<svg width="12" height="12" viewBox="0 0 12 12" fill="none" xmlns="http://www.w3.org/2000/svg">
<path d="M5.45 5.5C5.47761 5.5 5.5 5.47761 5.5 5.45V2.5C5.5 2.22386 5.72386 2 6 2C6.27614 2 6.5 2.22386 6.5 2.5V5.45C6.5 5.47761 6.52239 5.5 6.55 5.5H9.5C9.77614 5.5 10 5.72386 10 6C10 6.27614 9.77614 6.5 9.5 6.5H6.55C6.52239 6.5 6.5 6.52239 6.5 6.55V9.5C6.5 9.77614 6.27614 10 6 10C5.72386 10 5.5 9.77614 5.5 9.5V6.55C5.5 6.52239 5.47761 6.5 5.45 6.5H2.5C2.22386 6.5 2 6.27614 2 6C2 5.72386 2.22386 5.5 2.5 5.5H5.45Z" fill="black"/>
</svg>
