<svg width="48" height="48" viewBox="0 0 48 48" fill="none" xmlns="http://www.w3.org/2000/svg">
<path fill-rule="evenodd" clip-rule="evenodd" d="M10.1459 31.9987C5.72837 24.3473 8.34993 14.5634 16.0013 10.1459C23.6527 5.72837 33.4366 8.34993 37.8541 16.0013C42.2716 23.6527 39.6501 33.4366 31.9987 37.8541C24.3473 42.2716 14.5634 39.6501 10.1459 31.9987ZM11.2442 19.9021C10.1293 23.3762 10.4292 27.2902 12.3972 30.6989C15.2133 35.5765 20.6333 38.0135 25.8876 37.2677L25.1697 36.0243C24.6698 35.1584 24.1895 33.1267 26.2676 31.9269L28 30.9267C28.9564 30.3745 29.2835 29.1519 28.7313 28.1955L28.2314 27.3296C27.8981 26.7523 27.5779 25.3979 28.9633 24.598L30.2625 23.8479C30.9798 23.4337 31.2252 22.5167 30.8111 21.7994C30.3969 21.0821 29.4797 20.8363 28.7624 21.2505L21.4024 25.4998C20.8251 25.833 19.4706 26.1532 18.6708 24.7678L16.671 21.304C16.3949 20.8258 15.7835 20.6622 15.3053 20.9383C14.4481 21.4333 12.4483 21.9089 11.2442 19.9021ZM36.826 20.1174C36.5336 19.1547 36.1275 18.2099 35.6028 17.3011C32.0713 11.1843 24.4447 8.9058 18.1854 11.9291L18.8669 13.1095C19.4191 14.0659 20.7183 14.3545 21.8028 14.5629C23.1728 14.826 24.545 15.8694 25.4148 16.7317C25.6951 17.0097 26.0333 17.2255 26.4147 17.3277L36.826 20.1174Z" fill="black"/>
</svg>
