<svg width="24" height="24" viewBox="0 0 24 24" fill="none" xmlns="http://www.w3.org/2000/svg">
<path fill-rule="evenodd" clip-rule="evenodd" d="M17.9092 16.9832C18.0125 17.0865 18.1823 17.0798 18.273 16.9653C19.3543 15.6011 20 13.876 20 12C20 7.58172 16.4183 4 12 4C10.124 4 8.39887 4.64571 7.03466 5.727C6.92017 5.81775 6.91347 5.98753 7.01677 6.09083L17.9092 16.9832ZM16.9832 17.9092C17.0865 18.0125 17.0798 18.1823 16.9653 18.273C15.6011 19.3543 13.876 20 12 20C7.58172 20 4 16.4183 4 12C4 10.124 4.64571 8.39887 5.727 7.03466C5.81775 6.92017 5.98753 6.91347 6.09083 7.01677L16.9832 17.9092Z" fill="black"/>
</svg>
