<svg width="16" height="16" viewBox="0 0 16 16" fill="none" xmlns="http://www.w3.org/2000/svg">
<path d="M5.66667 3C4.93029 3 4.33333 3.59695 4.33333 4.33333V11C4.33333 11.7364 4.93029 12.3333 5.66667 12.3333H11C11.7364 12.3333 12.3333 11.7364 12.3333 11V4.33333C12.3333 3.59695 11.7364 3 11 3H5.66667Z" fill="black"/>
<path d="M10.569 13.6655C10.8083 13.6655 11.0023 13.4715 11.0023 13.2322C11.0023 12.9928 10.8083 12.7988 10.569 12.7988H4.76667C4.26961 12.7988 3.86667 12.3959 3.86667 11.8988L3.86667 4.76667C3.86667 4.52734 3.67266 4.33333 3.43333 4.33333C3.19401 4.33333 3 4.52734 3 4.76667V11.8988C3 12.8745 3.79096 13.6655 4.76667 13.6655H10.569Z" fill="black"/>
</svg>
