<svg width="20" height="20" viewBox="0 0 20 20" fill="none" xmlns="http://www.w3.org/2000/svg">
<path fill-rule="evenodd" clip-rule="evenodd" d="M7.63853 3.15889C7.42714 2.94723 7.08419 2.94701 6.87253 3.1584C6.66087 3.36979 6.66066 3.71274 6.87205 3.9244L8.14029 5.19424L3.1584 10.1824C2.9472 10.3939 2.9472 10.7365 3.1584 10.9479L8.10993 15.9058C8.21153 16.0075 8.3494 16.0646 8.49317 16.0646C8.63694 16.0646 8.77481 16.0075 8.87641 15.9058L14.2406 10.5348C14.4518 10.3233 14.4518 9.98076 14.2406 9.76929L7.63853 3.15889ZM4.903 9.96859L8.9058 5.96072L12.6007 9.6603L4.903 9.96859Z" fill="black"/>
<path fill-rule="evenodd" clip-rule="evenodd" d="M14.8974 12.0429L14.7507 11.8976C14.6695 11.8171 14.5386 11.8171 14.4574 11.8976L14.3108 12.0429C13.9654 12.3853 13.6146 12.8002 13.3472 13.2326C13.0857 13.6557 12.8748 14.1419 12.8748 14.6156C12.8748 15.5677 13.6525 16.3332 14.6041 16.3332C15.5556 16.3332 16.3333 15.5677 16.3333 14.6156C16.3333 14.1419 16.1224 13.6557 15.8609 13.2326C15.5935 12.8002 15.2427 12.3853 14.8974 12.0429Z" fill="black"/>
</svg>
