<svg width="16" height="16" viewBox="0 0 16 16" fill="none" xmlns="http://www.w3.org/2000/svg">
<path d="M7.33333 5.9C7.09401 5.9 6.9 6.09401 6.9 6.33333C6.9 6.57266 7.09401 6.76667 7.33333 6.76667H8.8075C8.64476 7.31095 8.45324 7.97402 8.29146 8.58174C8.1926 8.95315 8.10382 9.30769 8.03944 9.6035C7.97834 9.8842 7.92929 10.1543 7.92929 10.3333C7.92929 10.5727 8.1233 10.7667 8.36262 10.7667C8.60195 10.7667 8.79596 10.5727 8.79596 10.3333C8.79596 10.2618 8.82262 10.0803 8.88628 9.78781C8.94665 9.51042 9.03167 9.17017 9.12896 8.80468C9.32336 8.0744 9.56268 7.25854 9.74068 6.67408C9.86299 6.27251 9.55023 5.9 9.16135 5.9H7.33333Z" fill="black"/>
<path fill-rule="evenodd" clip-rule="evenodd" d="M13.6667 8.33333C13.6667 11.2789 11.2789 13.6667 8.33333 13.6667C5.38781 13.6667 3 11.2789 3 8.33333C3 5.38781 5.38781 3 8.33333 3C11.2789 3 13.6667 5.38781 13.6667 8.33333ZM12.8 8.33333C12.8 10.8002 10.8002 12.8 8.33333 12.8C5.86646 12.8 3.86667 10.8002 3.86667 8.33333C3.86667 5.86646 5.86646 3.86667 8.33333 3.86667C10.8002 3.86667 12.8 5.86646 12.8 8.33333Z" fill="black"/>
</svg>
