<svg width="24" height="24" viewBox="0 0 24 24" fill="none" xmlns="http://www.w3.org/2000/svg">
<path fill-rule="evenodd" clip-rule="evenodd" d="M19 11.0664C19 14.4582 15.9788 16.9106 13.2184 19.1513C12.9153 19.3973 12.6153 19.6408 12.3229 19.8827C12.1355 20.0376 11.8645 20.0376 11.6771 19.8827C11.3847 19.6408 11.0847 19.3974 10.7817 19.1513C8.02133 16.9107 5 14.4582 5 11.0664C5 7.16376 8.13401 4 12 4C15.866 4 19 7.16376 19 11.0664ZM9.35 11.0664C9.35 9.59821 10.5307 8.39746 12 8.39746C13.4693 8.39746 14.65 9.59821 14.65 11.0664C14.65 12.5347 13.4693 13.7354 12 13.7354C10.5307 13.7354 9.35 12.5347 9.35 11.0664Z" fill="black"/>
</svg>
