<svg width="32" height="32" viewBox="0 0 32 32" fill="none" xmlns="http://www.w3.org/2000/svg">
<path fill-rule="evenodd" clip-rule="evenodd" d="M9.66667 8.33333C8.93029 8.33333 8.33333 8.93029 8.33333 9.66667V13.6667C8.33333 14.403 8.93029 15 9.66667 15H13.6667C14.403 15 15 14.403 15 13.6667V9.66667C15 8.93029 14.403 8.33333 13.6667 8.33333H9.66667ZM10.7333 10.0667C10.3651 10.0667 10.0667 10.3651 10.0667 10.7333V12.6C10.0667 12.9682 10.3651 13.2667 10.7333 13.2667H12.6C12.9682 13.2667 13.2667 12.9682 13.2667 12.6V10.7333C13.2667 10.3651 12.9682 10.0667 12.6 10.0667H10.7333Z" fill="black"/>
<path fill-rule="evenodd" clip-rule="evenodd" d="M8.33333 17.6667C8.33333 16.9303 8.93029 16.3333 9.66667 16.3333H13.6667C14.403 16.3333 15 16.9303 15 17.6667V21.6667C15 22.403 14.403 23 13.6667 23H9.66667C8.93029 23 8.33333 22.403 8.33333 21.6667V17.6667ZM10.7333 21.2667C10.3651 21.2667 10.0667 20.9682 10.0667 20.6V18.7333C10.0667 18.3651 10.3651 18.0667 10.7333 18.0667H12.6C12.9682 18.0667 13.2667 18.3651 13.2667 18.7333V20.6C13.2667 20.9682 12.9682 21.2667 12.6 21.2667H10.7333Z" fill="black"/>
<path fill-rule="evenodd" clip-rule="evenodd" d="M17.6667 16.3333C16.9303 16.3333 16.3333 16.9303 16.3333 17.6667V21.6667C16.3333 22.403 16.9303 23 17.6667 23H21.6667C22.403 23 23 22.403 23 21.6667V17.6667C23 16.9303 22.403 16.3333 21.6667 16.3333H17.6667ZM18.7333 18.0667C18.3651 18.0667 18.0667 18.3651 18.0667 18.7333V20.6C18.0667 20.9682 18.3651 21.2667 18.7333 21.2667H20.6C20.9682 21.2667 21.2667 20.9682 21.2667 20.6V18.7333C21.2667 18.3651 20.9682 18.0667 20.6 18.0667H18.7333Z" fill="black"/>
<path fill-rule="evenodd" clip-rule="evenodd" d="M16.3333 9.66667C16.3333 8.93029 16.9303 8.33333 17.6667 8.33333H21.6667C22.403 8.33333 23 8.93029 23 9.66667V13.6667C23 14.403 22.403 15 21.6667 15H17.6667C16.9303 15 16.3333 14.403 16.3333 13.6667V9.66667ZM18.7333 13.2667C18.3651 13.2667 18.0667 12.9682 18.0667 12.6V10.7333C18.0667 10.3651 18.3651 10.0667 18.7333 10.0667H20.6C20.9682 10.0667 21.2667 10.3651 21.2667 10.7333V12.6C21.2667 12.9682 20.9682 13.2667 20.6 13.2667H18.7333Z" fill="black"/>
<path fill-rule="evenodd" clip-rule="evenodd" d="M7.66667 5C6.19391 5 5 6.19391 5 7.66667V23.6667C5 25.1394 6.19391 26.3333 7.66667 26.3333H23.6667C25.1394 26.3333 26.3333 25.1394 26.3333 23.6667V7.66667C26.3333 6.19391 25.1394 5 23.6667 5H7.66667ZM23.6667 6.73333H7.66667C7.1512 6.73333 6.73333 7.1512 6.73333 7.66667V23.6667C6.73333 24.1821 7.1512 24.6 7.66667 24.6H23.6667C24.1821 24.6 24.6 24.1821 24.6 23.6667V7.66667C24.6 7.1512 24.1821 6.73333 23.6667 6.73333Z" fill="black"/>
</svg>
