<svg width="24" height="24" viewBox="0 0 24 24" fill="none" xmlns="http://www.w3.org/2000/svg">
<path fill-rule="evenodd" clip-rule="evenodd" d="M12.1193 4C12.4782 4 12.7693 4.29101 12.7693 4.65L12.7693 5.69966L17 5.69966C18.1046 5.69966 19 6.59509 19 7.69966L19 9.47276C19 10.5773 18.1046 11.4728 17 11.4728L12.7693 11.4728L12.7693 12.5224L15.4192 12.5224C16.5238 12.5224 17.4192 13.4178 17.4192 14.5224L17.4192 16.2955C17.4192 17.4001 16.5238 18.2955 15.4192 18.2955L12.7693 18.2955L12.7693 19.3452C12.7693 19.7041 12.4782 19.9952 12.1193 19.9952C11.7603 19.9952 11.4693 19.7041 11.4693 19.3452L11.4693 18.2955L8.81922 18.2955C7.71466 18.2955 6.81923 17.4001 6.81923 16.2955L6.81922 14.5224C6.81922 13.4178 7.71466 12.5224 8.81922 12.5224L11.4693 12.5224L11.4693 11.4728L7.23922 11.4728C6.13465 11.4728 5.23922 10.5773 5.23922 9.47276L5.23922 7.69966C5.23922 6.59509 6.13465 5.69966 7.23922 5.69966L11.4693 5.69966L11.4693 4.65C11.4693 4.29101 11.7603 4 12.1193 4Z" fill="black"/>
</svg>
