<svg width="16" height="16" viewBox="0 0 16 16" fill="none" xmlns="http://www.w3.org/2000/svg">
<path d="M9.9 10.3333C9.9 10.094 10.094 9.9 10.3333 9.9H11C11.2393 9.9 11.4333 10.094 11.4333 10.3333C11.4333 10.5727 11.2393 10.7667 11 10.7667H10.3333C10.094 10.7667 9.9 10.5727 9.9 10.3333Z" fill="black"/>
<path d="M5.66667 9.9C5.42734 9.9 5.23333 10.094 5.23333 10.3333C5.23333 10.5727 5.42734 10.7667 5.66667 10.7667H6.33333C6.57266 10.7667 6.76667 10.5727 6.76667 10.3333C6.76667 10.094 6.57266 9.9 6.33333 9.9H5.66667Z" fill="black"/>
<path fill-rule="evenodd" clip-rule="evenodd" d="M4.33333 4C3.59695 4 3 4.59695 3 5.33333V10.6667C3 11.403 3.59695 12 4.33333 12H12.3333C13.0697 12 13.6667 11.403 13.6667 10.6667V5.33333C13.6667 4.59695 13.0697 4 12.3333 4H4.33333ZM9.1 4.86667C8.9159 4.86667 8.76667 5.01591 8.76667 5.2V10.8C8.76667 10.9841 8.9159 11.1333 9.1 11.1333H12.3333C12.5911 11.1333 12.8 10.9244 12.8 10.6667V5.33333C12.8 5.0756 12.5911 4.86667 12.3333 4.86667H9.1ZM7.56667 4.86667C7.75076 4.86667 7.9 5.01591 7.9 5.2V10.8C7.9 10.9841 7.75076 11.1333 7.56667 11.1333H4.33333C4.0756 11.1333 3.86667 10.9244 3.86667 10.6667V5.33333C3.86667 5.0756 4.0756 4.86667 4.33333 4.86667H7.56667Z" fill="black"/>
</svg>
