<svg width="20" height="20" viewBox="0 0 20 20" fill="none" xmlns="http://www.w3.org/2000/svg">
<path fill-rule="evenodd" clip-rule="evenodd" d="M8.81287 10.7083C8.90648 10.4911 8.95833 10.2516 8.95833 10C8.95833 9.01049 8.15618 8.20833 7.16667 8.20833C6.17716 8.20833 5.375 9.01049 5.375 10C5.375 10.9895 6.17716 11.7917 7.16667 11.7917H12.1667C13.1562 11.7917 13.9583 10.9895 13.9583 10C13.9583 9.01049 13.1562 8.20833 12.1667 8.20833C11.1772 8.20833 10.375 9.01049 10.375 10C10.375 10.2516 10.4269 10.4911 10.5205 10.7083H8.81287ZM6.45833 10C6.45833 9.6088 6.77547 9.29167 7.16667 9.29167C7.55787 9.29167 7.875 9.6088 7.875 10C7.875 10.3912 7.55787 10.7083 7.16667 10.7083C6.77547 10.7083 6.45833 10.3912 6.45833 10ZM12.1667 10.7083C12.5579 10.7083 12.875 10.3912 12.875 10C12.875 9.6088 12.5579 9.29167 12.1667 9.29167C11.7755 9.29167 11.4583 9.6088 11.4583 10C11.4583 10.3912 11.7755 10.7083 12.1667 10.7083Z" fill="black"/>
<path fill-rule="evenodd" clip-rule="evenodd" d="M3 6.66667C3 5.74619 3.74619 5 4.66667 5H14.6667C15.5871 5 16.3333 5.74619 16.3333 6.66667V13.3333C16.3333 14.2538 15.5871 15 14.6667 15H4.66667C3.74619 15 3 14.2538 3 13.3333V6.66667ZM4.66667 6.08333H14.6667C14.9888 6.08333 15.25 6.3445 15.25 6.66667V13.3333C15.25 13.6555 14.9888 13.9167 14.6667 13.9167H4.66667C4.3445 13.9167 4.08333 13.6555 4.08333 13.3333V6.66667C4.08333 6.3445 4.3445 6.08333 4.66667 6.08333Z" fill="black"/>
</svg>
