<svg width="20" height="20" viewBox="0 0 20 20" fill="none" xmlns="http://www.w3.org/2000/svg">
<path fill-rule="evenodd" clip-rule="evenodd" d="M9.00786 5.67737C9.04203 5.61662 9.04435 5.54266 9.01406 5.47983L8.19455 3.77978C8.06662 3.5144 8.17189 3.19399 8.43119 3.05951C8.69712 2.9216 9.02285 3.03171 9.15404 3.30387L9.47951 3.97904C9.55567 4.13703 9.77766 4.13703 9.85382 3.97904L10.1793 3.30387C10.3105 3.03171 10.6362 2.9216 10.9021 3.05951C11.1614 3.19399 11.2667 3.5144 11.1388 3.77978L10.3193 5.47983C10.289 5.54266 10.2913 5.61662 10.3255 5.67737L15.698 15.2304H15.8016C16.0953 15.2304 16.3333 15.4773 16.3333 15.7818C16.3333 16.0864 16.0953 16.3333 15.8016 16.3333H3.5317C3.23805 16.3333 3 16.0864 3 15.7818C3 15.4773 3.23805 15.2304 3.5317 15.2304H3.6353L9.00786 5.67737ZM9.48571 7.01673C9.56565 6.87458 9.76768 6.87458 9.84762 7.01673L14.2892 14.9143C14.3684 15.0552 14.2681 15.2304 14.1082 15.2304H12.6603C12.5125 15.2304 12.3757 15.1509 12.3009 15.0216L10.026 11.0889C9.86503 10.8106 9.46831 10.8106 9.3073 11.0889L7.03239 15.0216C6.95759 15.1509 6.82084 15.2304 6.67303 15.2304H5.2251C5.0652 15.2304 4.96491 15.0552 5.04414 14.9143L9.48571 7.01673ZM8.33587 14.9121C8.25437 15.053 8.35452 15.2304 8.51555 15.2304H10.8178C10.9788 15.2304 11.079 15.053 10.9975 14.9121L9.84635 12.9221C9.76585 12.783 9.56749 12.783 9.48698 12.9221L8.33587 14.9121Z" fill="black"/>
</svg>
