<svg width="32" height="32" viewBox="0 0 32 32" fill="none" xmlns="http://www.w3.org/2000/svg">
<path fill-rule="evenodd" clip-rule="evenodd" d="M5 6.33312C5 5.59686 5.64999 5 6.4518 5H24.8744C26.1458 5 26.8031 6.39441 25.9328 7.24559L17.5801 15.4153C17.4492 15.5434 17.4489 15.7427 17.5795 15.871L25.9394 24.0867C26.8064 24.9387 26.1485 26.33 24.8787 26.33H6.4518C5.64999 26.33 5 25.7331 5 24.9969V6.33312ZM15.5965 15.0749L24.0287 6.82739C24.1158 6.74227 24.0501 6.60283 23.9229 6.60283H16.4575C16.4164 6.60283 16.3772 6.61885 16.3497 6.64691L6.69598 16.4854C6.67195 16.5099 6.65865 16.5417 6.65865 16.5746V23.279C6.65865 23.399 6.81788 23.4579 6.90848 23.3714L15.5965 15.0749ZM8.08481 24.5015C7.9961 24.5862 8.06148 24.7272 8.18945 24.7272H23.9306C24.0576 24.7272 24.1234 24.588 24.0367 24.5028L16.2791 16.8791C16.2223 16.8232 16.126 16.8226 16.0684 16.8777L8.08481 24.5015ZM6.65865 13.8468C6.65865 13.9689 6.82265 14.0268 6.91169 13.936L13.8888 6.82538C13.973 6.73961 13.9067 6.60283 13.781 6.60283H6.80383C6.72365 6.60283 6.65865 6.66252 6.65865 6.73614V13.8468Z" fill="black"/>
</svg>
