<svg width="28" height="28" viewBox="0 0 28 28" fill="none" xmlns="http://www.w3.org/2000/svg">
<path d="M6.65002 9.81739C6.65002 9.17287 7.17236 8.65039 7.81669 8.65039H18.3167C18.961 8.65039 19.4834 9.17287 19.4834 9.81739C19.4834 10.4619 18.961 10.9844 18.3167 10.9844H7.81669C7.17236 10.9844 6.65002 10.4619 6.65002 9.81739Z" fill="black"/>
<path d="M6.65002 14.4854C6.65002 13.8409 7.17236 13.3184 7.81669 13.3184H22.9834C23.6277 13.3184 24.15 13.8409 24.15 14.4854C24.15 15.1299 23.6277 15.6524 22.9834 15.6524H7.81669C7.17236 15.6524 6.65002 15.1299 6.65002 14.4854Z" fill="black"/>
<path d="M7.81669 17.9864C7.17236 17.9864 6.65002 18.5089 6.65002 19.1534C6.65002 19.7979 7.17236 20.3204 7.81669 20.3204H13.65C14.2944 20.3204 14.8167 19.7979 14.8167 19.1534C14.8167 18.5089 14.2944 17.9864 13.65 17.9864H7.81669Z" fill="black"/>
</svg>
