<svg width="16" height="16" viewBox="0 0 16 16" fill="none" xmlns="http://www.w3.org/2000/svg">
<path d="M10.7667 10.3794C10.8969 10.5096 11.1081 10.5096 11.2383 10.3794L12.3363 9.28146C12.5055 9.11217 12.5055 8.83772 12.3363 8.66844C12.167 8.49916 11.8925 8.49916 11.7232 8.66844L11.436 8.9557V7.10128C11.436 6.86188 11.2419 6.66781 11.0025 6.66781C10.7631 6.66781 10.569 6.86188 10.569 7.10128V8.9557L10.2818 8.66844C10.1125 8.49916 9.83803 8.49916 9.66875 8.66844C9.49947 8.83772 9.49947 9.11217 9.66875 9.28145L10.7667 10.3794Z" fill="black"/>
<path d="M5.76516 6.29057C5.89538 6.16036 6.1065 6.16036 6.23671 6.29057L7.33469 7.38855C7.50397 7.55783 7.50397 7.83228 7.33469 8.00156C7.16541 8.17084 6.89095 8.17084 6.72167 8.00156L6.43441 7.7143V9.56872C6.43441 9.80812 6.24034 10.0022 6.00094 10.0022C5.76154 10.0022 5.56747 9.80812 5.56747 9.56872V7.7143L5.28021 8.00156C5.11092 8.17084 4.83647 8.17084 4.66719 8.00156C4.49791 7.83228 4.49791 7.55782 4.66719 7.38854L5.76516 6.29057Z" fill="black"/>
<path fill-rule="evenodd" clip-rule="evenodd" d="M4.33375 3C3.59714 3 3 3.59714 3 4.33375V11.6694C3 12.406 3.59714 13.0031 4.33375 13.0031H12.3363C13.0729 13.0031 13.67 12.406 13.67 11.6694V4.33375C13.67 3.59714 13.0729 3 12.3363 3H4.33375ZM8.76847 3.86694V12.1362H12.3363C12.5941 12.1362 12.8031 11.9272 12.8031 11.6694V4.33375C12.8031 4.07594 12.5941 3.86694 12.3363 3.86694H8.76847ZM7.90153 3.86694V12.1362H4.33375C4.07594 12.1362 3.86694 11.9272 3.86694 11.6694V4.33375C3.86694 4.07594 4.07594 3.86694 4.33375 3.86694H7.90153Z" fill="black"/>
</svg>
