<svg width="48" height="48" viewBox="0 0 48 48" fill="none" xmlns="http://www.w3.org/2000/svg">
<path fill-rule="evenodd" clip-rule="evenodd" d="M12.7 18.5C12.7 17.5059 13.5059 16.7 14.5 16.7H21.5C22.4941 16.7 23.3 17.5059 23.3 18.5V21.5C23.3 22.4941 22.4941 23.3 21.5 23.3H14.5C13.5059 23.3 12.7 22.4941 12.7 21.5V18.5Z" fill="black"/>
<path fill-rule="evenodd" clip-rule="evenodd" d="M26.5 16.7C25.5059 16.7 24.7 17.5059 24.7 18.5V21.5C24.7 22.4941 25.5059 23.3 26.5 23.3H33.5C34.4941 23.3 35.3 22.4941 35.3 21.5V18.5C35.3 17.5059 34.4941 16.7 33.5 16.7H26.5Z" fill="black"/>
<path fill-rule="evenodd" clip-rule="evenodd" d="M24.7 26.5C24.7 25.5059 25.5059 24.7 26.5 24.7H33.5C34.4941 24.7 35.3 25.5059 35.3 26.5V29.5C35.3 30.4941 34.4941 31.3 33.5 31.3H26.5C25.5059 31.3 24.7 30.4941 24.7 29.5V26.5Z" fill="black"/>
<path fill-rule="evenodd" clip-rule="evenodd" d="M14.5 24.7C13.5059 24.7 12.7 25.5059 12.7 26.5V29.5C12.7 30.4941 13.5059 31.3 14.5 31.3H21.5C22.4941 31.3 23.3 30.4941 23.3 29.5V26.5C23.3 25.5059 22.4941 24.7 21.5 24.7H14.5Z" fill="black"/>
<path fill-rule="evenodd" clip-rule="evenodd" d="M12 12C9.79086 12 8 13.7909 8 16V32C8 34.2091 9.79086 36 12 36H36C38.2091 36 40 34.2091 40 32V16C40 13.7909 38.2091 12 36 12H12ZM36 14.6H12C11.2268 14.6 10.6 15.2268 10.6 16V32C10.6 32.7732 11.2268 33.4 12 33.4H36C36.7732 33.4 37.4 32.7732 37.4 32V16C37.4 15.2268 36.7732 14.6 36 14.6Z" fill="black"/>
</svg>
