<svg width="20" height="20" viewBox="0 0 20 20" fill="none" xmlns="http://www.w3.org/2000/svg">
<path fill-rule="evenodd" clip-rule="evenodd" d="M5.31784 3C4.25858 3 3.63363 4.12878 4.23375 4.95816L7.1283 8.95852C7.43694 9.38508 7.43694 9.94828 7.1283 10.3748L4.23375 14.3752C3.63363 15.2046 4.25858 16.3334 5.31784 16.3334H14.3488C15.4081 16.3334 16.033 15.2046 15.4329 14.3752L12.5384 10.3748C12.2297 9.94828 12.2297 9.38508 12.5384 8.95852L15.4329 4.95816C16.033 4.12878 15.4081 3 14.3488 3H5.31784ZM10.9158 10.6667C10.3706 9.95311 9.29607 9.95311 8.75077 10.6667L6.01492 14.2471C5.80536 14.5213 6.00088 14.9167 6.34598 14.9167H13.3207C13.6657 14.9167 13.8613 14.5213 13.6518 14.2471L10.9158 10.6667Z" fill="black"/>
</svg>
