<svg width="24" height="24" viewBox="0 0 24 24" fill="none" xmlns="http://www.w3.org/2000/svg">
<path fill-rule="evenodd" clip-rule="evenodd" d="M11.0551 8.39717C11.0551 5.95621 13.0711 4 15.5297 4C16.0463 4 16.5438 4.08627 17.0073 4.24559L18.003 4.58778L15.3848 7.153C15.028 7.50262 15.028 8.06386 15.3848 8.41349C15.7491 8.77038 16.345 8.77038 16.7093 8.41349L19.3149 5.86067L19.6813 6.75421C19.8897 7.26245 20.0043 7.81737 20.0043 8.39717C20.0043 10.8381 17.9883 12.7943 15.5297 12.7943C15.1525 12.7943 14.7854 12.7483 14.4343 12.6615L7.55326 19.4032C6.74044 20.1996 5.428 20.1996 4.61518 19.4032C3.79494 18.5996 3.79494 17.291 4.61518 16.4874L11.3275 9.91093C11.1513 9.43862 11.0551 8.9285 11.0551 8.39717Z" fill="black"/>
</svg>
