<svg width="48" height="48" viewBox="0 0 48 48" fill="none" xmlns="http://www.w3.org/2000/svg">
<path d="M9.30005 13C8.58203 13 8 13.582 8 14.3C8 15.0179 8.58203 15.6 9.30005 15.6H38.7C39.418 15.6 40 15.0179 40 14.3C40 13.582 39.418 13 38.7 13H9.30005Z" fill="black"/>
<path d="M8 24.3C8 23.582 8.58203 23 9.30005 23H38.7C39.418 23 40 23.582 40 24.3C40 25.018 39.418 25.6 38.7 25.6H9.30005C8.58203 25.6 8 25.018 8 24.3Z" fill="black"/>
<path d="M8 34.3C8 33.5821 8.58203 33 9.30005 33H38.7C39.418 33 40 33.5821 40 34.3C40 35.018 39.418 35.6 38.7 35.6H9.30005C8.58203 35.6 8 35.018 8 34.3Z" fill="black"/>
</svg>
