<svg width="16" height="16" viewBox="0 0 16 16" fill="none" xmlns="http://www.w3.org/2000/svg">
<path d="M3 4.66667C3 4.29848 3.29848 4 3.66667 4H13C13.3682 4 13.6667 4.29848 13.6667 4.66667C13.6667 5.03486 13.3682 5.33333 13 5.33333H3.66667C3.29848 5.33333 3 5.03486 3 4.66667Z" fill="black"/>
<path d="M3 8C3 7.63181 3.29848 7.33333 3.66667 7.33333H13C13.3682 7.33333 13.6667 7.63181 13.6667 8C13.6667 8.36819 13.3682 8.66667 13 8.66667H3.66667C3.29848 8.66667 3 8.36819 3 8Z" fill="black"/>
<path d="M3.66667 10.6667C3.29848 10.6667 3 10.9651 3 11.3333C3 11.7015 3.29848 12 3.66667 12H13C13.3682 12 13.6667 11.7015 13.6667 11.3333C13.6667 10.9651 13.3682 10.6667 13 10.6667H3.66667Z" fill="black"/>
</svg>
