<svg width="48" height="48" viewBox="0 0 48 48" fill="none" xmlns="http://www.w3.org/2000/svg">
<path d="M8 14C8 12.8954 8.89543 12 10 12H38C39.1046 12 40 12.8954 40 14C40 15.1046 39.1046 16 38 16H10C8.89543 16 8 15.1046 8 14Z" fill="black"/>
<path d="M8 24C8 22.8954 8.89543 22 10 22H38C39.1046 22 40 22.8954 40 24C40 25.1046 39.1046 26 38 26H10C8.89543 26 8 25.1046 8 24Z" fill="black"/>
<path d="M10 32C8.89543 32 8 32.8954 8 34C8 35.1046 8.89543 36 10 36H38C39.1046 36 40 35.1046 40 34C40 32.8954 39.1046 32 38 32H10Z" fill="black"/>
</svg>
