<svg width="28" height="28" viewBox="0 0 28 28" fill="none" xmlns="http://www.w3.org/2000/svg">
<path d="M5 8.16667C5 7.52233 5.52233 7 6.16667 7H22.5C23.1443 7 23.6667 7.52233 23.6667 8.16667C23.6667 8.811 23.1443 9.33333 22.5 9.33333H6.16667C5.52233 9.33333 5 8.811 5 8.16667Z" fill="black"/>
<path d="M5 14C5 13.3557 5.52233 12.8333 6.16667 12.8333H22.5C23.1443 12.8333 23.6667 13.3557 23.6667 14C23.6667 14.6443 23.1443 15.1667 22.5 15.1667H6.16667C5.52233 15.1667 5 14.6443 5 14Z" fill="black"/>
<path d="M6.16667 18.6667C5.52233 18.6667 5 19.189 5 19.8333C5 20.4777 5.52233 21 6.16667 21H22.5C23.1443 21 23.6667 20.4777 23.6667 19.8333C23.6667 19.189 23.1443 18.6667 22.5 18.6667H6.16667Z" fill="black"/>
</svg>
