<svg width="32" height="32" viewBox="0 0 32 32" fill="none" xmlns="http://www.w3.org/2000/svg">
<path d="M5.8667 8C5.38802 8 5 8.38802 5 8.86666C5 9.3453 5.38802 9.73332 5.8667 9.73332H25.4666C25.9453 9.73332 26.3333 9.3453 26.3333 8.86666C26.3333 8.38802 25.9453 8 25.4666 8H5.8667Z" fill="black"/>
<path d="M5 15.5333C5 15.0547 5.38802 14.6667 5.8667 14.6667H25.4666C25.9453 14.6667 26.3333 15.0547 26.3333 15.5333C26.3333 16.012 25.9453 16.4 25.4666 16.4H5.8667C5.38802 16.4 5 16.012 5 15.5333Z" fill="black"/>
<path d="M5 22.2C5 21.7214 5.38802 21.3333 5.8667 21.3333H25.4666C25.9453 21.3333 26.3333 21.7214 26.3333 22.2C26.3333 22.6786 25.9453 23.0667 25.4666 23.0667H5.8667C5.38802 23.0667 5 22.6786 5 22.2Z" fill="black"/>
</svg>
