<svg width="12" height="12" viewBox="0 0 12 12" fill="none" xmlns="http://www.w3.org/2000/svg">
<path d="M2 3.5C2 3.22386 2.22386 3 2.5 3H9.5C9.77614 3 10 3.22386 10 3.5C10 3.77614 9.77614 4 9.5 4H2.5C2.22386 4 2 3.77614 2 3.5Z" fill="black"/>
<path d="M2 6C2 5.72386 2.22386 5.5 2.5 5.5H9.5C9.77614 5.5 10 5.72386 10 6C10 6.27614 9.77614 6.5 9.5 6.5H2.5C2.22386 6.5 2 6.27614 2 6Z" fill="black"/>
<path d="M2.5 8C2.22386 8 2 8.22386 2 8.5C2 8.77614 2.22386 9 2.5 9H9.5C9.77614 9 10 8.77614 10 8.5C10 8.22386 9.77614 8 9.5 8H2.5Z" fill="black"/>
</svg>
