<svg width="12" height="12" viewBox="0 0 12 12" fill="none" xmlns="http://www.w3.org/2000/svg">
<path d="M2.32501 3C2.14551 3 2 3.14808 2 3.33075C2 3.51342 2.14551 3.6615 2.32501 3.6615H9.67499C9.85449 3.6615 10 3.51342 10 3.33075C10 3.14808 9.85449 3 9.67499 3H2.32501Z" fill="black"/>
<path d="M2 5.875C2 5.69233 2.14551 5.54425 2.32501 5.54425H9.67499C9.85449 5.54425 10 5.69233 10 5.875C10 6.05767 9.85449 6.20575 9.67499 6.20575H2.32501C2.14551 6.20575 2 6.05767 2 5.875Z" fill="black"/>
<path d="M2 8.41925C2 8.23658 2.14551 8.0885 2.32501 8.0885H9.67499C9.85449 8.0885 10 8.23658 10 8.41925C10 8.60192 9.85449 8.75 9.67499 8.75H2.32501C2.14551 8.75 2 8.60192 2 8.41925Z" fill="black"/>
</svg>
