<svg width="16" height="16" viewBox="0 0 16 16" fill="none" xmlns="http://www.w3.org/2000/svg">
<path d="M3.43335 4C3.19401 4 3 4.19401 3 4.43333C3 4.67265 3.19401 4.86666 3.43335 4.86666H13.2333C13.4727 4.86666 13.6667 4.67265 13.6667 4.43333C13.6667 4.19401 13.4727 4 13.2333 4H3.43335Z" fill="black"/>
<path d="M3 7.76667C3 7.52735 3.19401 7.33334 3.43335 7.33334H13.2333C13.4727 7.33334 13.6667 7.52735 13.6667 7.76667C13.6667 8.00599 13.4727 8.2 13.2333 8.2H3.43335C3.19401 8.2 3 8.00599 3 7.76667Z" fill="black"/>
<path d="M3 11.1C3 10.8607 3.19401 10.6667 3.43335 10.6667H13.2333C13.4727 10.6667 13.6667 10.8607 13.6667 11.1C13.6667 11.3393 13.4727 11.5333 13.2333 11.5333H3.43335C3.19401 11.5333 3 11.3393 3 11.1Z" fill="black"/>
</svg>
