<svg width="20" height="20" viewBox="0 0 20 20" fill="none" xmlns="http://www.w3.org/2000/svg">
<path d="M3.54169 5C3.24251 5 3 5.24251 3 5.54166C3 5.84081 3.24251 6.08332 3.54169 6.08332H15.7916C16.0908 6.08332 16.3333 5.84081 16.3333 5.54166C16.3333 5.24251 16.0908 5 15.7916 5H3.54169Z" fill="black"/>
<path d="M3 9.70833C3 9.40918 3.24251 9.16667 3.54169 9.16667H15.7916C16.0908 9.16667 16.3333 9.40918 16.3333 9.70833C16.3333 10.0075 16.0908 10.25 15.7916 10.25H3.54169C3.24251 10.25 3 10.0075 3 9.70833Z" fill="black"/>
<path d="M3 13.875C3 13.5759 3.24251 13.3333 3.54169 13.3333H15.7916C16.0908 13.3333 16.3333 13.5759 16.3333 13.875C16.3333 14.1742 16.0908 14.4167 15.7916 14.4167H3.54169C3.24251 14.4167 3 14.1742 3 13.875Z" fill="black"/>
</svg>
