<svg width="48" height="48" viewBox="0 0 48 48" fill="none" xmlns="http://www.w3.org/2000/svg">
<path fill-rule="evenodd" clip-rule="evenodd" d="M23.6801 15.7991C23.6801 14.8055 24.4859 14 25.4799 14H29.3801C30.3741 14 31.1799 14.8055 31.1799 15.7991V32.2009C31.1799 33.1945 30.3741 34 29.3801 34H25.4799C24.4859 34 23.6801 33.1945 23.6801 32.2009V24.8412C23.5408 25.1058 23.3311 25.3415 23.0509 25.5192L10.7639 33.311C9.56564 34.0709 8 33.2103 8 31.7918L8 16.2082C8 14.7897 9.56563 13.9291 10.7639 14.689L23.0509 22.4808C23.3311 22.6585 23.5408 22.8942 23.6801 23.1588V15.7991ZM26.4797 16.5987C26.3693 16.5987 26.2798 16.6882 26.2798 16.7986V31.2014C26.2798 31.3118 26.3693 31.4013 26.4797 31.4013H28.3802C28.4906 31.4013 28.5802 31.3118 28.5802 31.2014V16.7986C28.5802 16.6882 28.4906 16.5987 28.3802 16.5987H26.4797ZM11.3675 18.1493C11.0346 17.9382 10.5997 18.1773 10.5997 18.5713L10.5997 29.4287C10.5997 29.8227 11.0346 30.0618 11.3675 29.8507L19.9281 24.422C20.2376 24.2257 20.2376 23.7743 19.9281 23.578L11.3675 18.1493Z" fill="black"/>
<path fill-rule="evenodd" clip-rule="evenodd" d="M34.3 14C33.306 14 32.5002 14.8055 32.5002 15.7991V32.2009C32.5002 33.1945 33.306 34 34.3 34H38.2002C39.1942 34 40 33.1945 40 32.2009V15.7991C40 14.8055 39.1942 14 38.2002 14H34.3ZM35.2999 31.4013C35.1895 31.4013 35.0999 31.3118 35.0999 31.2014V16.7986C35.0999 16.6882 35.1895 16.5987 35.2999 16.5987H37.2003C37.3108 16.5987 37.4003 16.6882 37.4003 16.7986V31.2014C37.4003 31.3118 37.3108 31.4013 37.2003 31.4013H35.2999Z" fill="black"/>
</svg>
