<svg width="24" height="24" viewBox="0 0 24 24" fill="none" xmlns="http://www.w3.org/2000/svg">
<path fill-rule="evenodd" clip-rule="evenodd" d="M10.9689 4.63206C11.3937 3.78932 12.6063 3.78931 13.0311 4.63206L14.6515 7.84643C14.7981 8.13738 15.0628 8.3526 15.3792 8.43819L19.1499 9.45818C20.037 9.69816 20.2977 10.8212 19.6057 11.4218L17.0948 13.6009C16.7941 13.8619 16.6511 14.2586 16.7168 14.6494L17.3918 18.6663C17.5467 19.588 16.5818 20.2948 15.7391 19.8769L12.5155 18.2783C12.191 18.1173 11.809 18.1173 11.4845 18.2783L8.26087 19.8769C7.41818 20.2948 6.45334 19.588 6.60823 18.6663L7.2832 14.6494C7.34887 14.2586 7.20586 13.8619 6.90521 13.6009L4.3943 11.4218C3.70228 10.8212 3.96297 9.69816 4.8501 9.45818L8.62077 8.43819C8.93718 8.3526 9.20186 8.13738 9.34853 7.84643L10.9689 4.63206ZM6.37879 10.3914C5.99246 10.4959 5.87937 10.9893 6.18163 11.2517L7.7573 12.6191C8.39819 13.1754 8.70637 14.0248 8.56522 14.8648L8.10245 17.6189C8.0348 18.0215 8.45198 18.3311 8.81768 18.1497L10.9069 17.1136C11.5953 16.7722 12.4047 16.7722 13.0931 17.1136L15.1823 18.1497C15.548 18.3311 15.9652 18.0215 15.8976 17.6189L15.4348 14.8648C15.2936 14.0248 15.6018 13.1754 16.2427 12.6191L17.8184 11.2517C18.1206 10.9893 18.0075 10.4959 17.6212 10.3914L15.0398 9.69309C14.3693 9.51173 13.8047 9.0546 13.4906 8.43161L12.4465 6.36033C12.2617 5.99376 11.7383 5.99376 11.5535 6.36033L10.5094 8.43161C10.1953 9.0546 9.63069 9.51173 8.96023 9.69309L6.37879 10.3914Z" fill="black"/>
</svg>
