<svg width="24" height="24" viewBox="0 0 24 24" fill="none" xmlns="http://www.w3.org/2000/svg">
<path fill-rule="evenodd" clip-rule="evenodd" d="M4 8C4 6.89543 4.89543 6 6 6H18C19.1046 6 20 6.89543 20 8V10C20 11.1046 19.1046 12 18 12H6C4.89543 12 4 11.1046 4 10V8ZM6.35 9C6.35 8.64102 6.64102 8.35 7 8.35H11C11.359 8.35 11.65 8.64102 11.65 9C11.65 9.35898 11.359 9.65 11 9.65H7C6.64102 9.65 6.35 9.35898 6.35 9ZM17 9.00001C17 9.35899 16.709 9.65001 16.35 9.65001C15.991 9.65001 15.7 9.35899 15.7 9.00001C15.7 8.64102 15.991 8.35001 16.35 8.35001C16.709 8.35001 17 8.64102 17 9.00001Z" fill="black"/>
<path fill-rule="evenodd" clip-rule="evenodd" d="M4 15C4 13.8954 4.89543 13 6 13H18C19.1046 13 20 13.8954 20 15V17C20 18.1046 19.1046 19 18 19H6C4.89543 19 4 18.1046 4 17V15ZM7 15.35C6.64102 15.35 6.35 15.641 6.35 16C6.35 16.359 6.64102 16.65 7 16.65H11C11.359 16.65 11.65 16.359 11.65 16C11.65 15.641 11.359 15.35 11 15.35H7ZM16.35 16.65C16.709 16.65 17 16.359 17 16C17 15.641 16.709 15.35 16.35 15.35C15.991 15.35 15.7 15.641 15.7 16C15.7 16.359 15.991 16.65 16.35 16.65Z" fill="black"/>
</svg>
