<svg width="32" height="32" viewBox="0 0 32 32" fill="none" xmlns="http://www.w3.org/2000/svg">
<path d="M25.6667 9.33333C25.6667 8.85469 25.2786 8.46667 24.8 8.46667C24.3214 8.46667 23.9333 8.85469 23.9333 9.33333V11.3333C23.9333 11.812 24.3214 12.2 24.8 12.2C25.2786 12.2 25.6667 11.812 25.6667 11.3333V9.33333Z" fill="black"/>
<path d="M24.8 13.8C25.2786 13.8 25.6667 14.188 25.6667 14.6667V16.6667C25.6667 17.1453 25.2786 17.5333 24.8 17.5333C24.3214 17.5333 23.9333 17.1453 23.9333 16.6667V14.6667C23.9333 14.188 24.3214 13.8 24.8 13.8Z" fill="black"/>
<path d="M25.6667 20C25.6667 19.5214 25.2786 19.1333 24.8 19.1333C24.3214 19.1333 23.9333 19.5214 23.9333 20V22C23.9333 22.4786 24.3214 22.8667 24.8 22.8667C25.2786 22.8667 25.6667 22.4786 25.6667 22V20Z" fill="black"/>
<path fill-rule="evenodd" clip-rule="evenodd" d="M7 6.33333C7 5.59695 7.59695 5 8.33333 5H21.6667C22.403 5 23 5.59695 23 6.33333V25C23 25.7364 22.403 26.3333 21.6667 26.3333H8.33333C7.59695 26.3333 7 25.7364 7 25V6.33333ZM12.3333 7.66667C10.8606 7.66667 9.66667 8.86057 9.66667 10.3333C9.66667 11.8061 10.8606 13 12.3333 13H17.6667C19.1394 13 20.3333 11.8061 20.3333 10.3333C20.3333 8.86057 19.1394 7.66667 17.6667 7.66667H12.3333Z" fill="black"/>
</svg>
