<svg width="32" height="32" viewBox="0 0 32 32" fill="none" xmlns="http://www.w3.org/2000/svg">
<path d="M8.13333 11.3333C8.13333 10.8547 8.52135 10.4667 9 10.4667H11.6667C12.1453 10.4667 12.5333 10.8547 12.5333 11.3333C12.5333 11.812 12.1453 12.2 11.6667 12.2H9.86667V14C9.86667 14.4786 9.47865 14.8667 9 14.8667C8.52135 14.8667 8.13333 14.4786 8.13333 14V11.3333Z" fill="black"/>
<path d="M8.13333 20.6667C8.13333 21.1453 8.52135 21.5333 9 21.5333H11.6667C12.1453 21.5333 12.5333 21.1453 12.5333 20.6667C12.5333 20.188 12.1453 19.8 11.6667 19.8H9.86667V18C9.86667 17.5214 9.47865 17.1333 9 17.1333C8.52135 17.1333 8.13333 17.5214 8.13333 18V20.6667Z" fill="black"/>
<path d="M23.2 20.6667C23.2 21.1453 22.812 21.5333 22.3333 21.5333H19.6667C19.188 21.5333 18.8 21.1453 18.8 20.6667C18.8 20.188 19.188 19.8 19.6667 19.8L21.4667 19.8V18C21.4667 17.5214 21.8547 17.1333 22.3333 17.1333C22.812 17.1333 23.2 17.5214 23.2 18V20.6667Z" fill="black"/>
<path d="M23.2 11.3333C23.2 10.8547 22.812 10.4667 22.3333 10.4667H19.6667C19.188 10.4667 18.8 10.8547 18.8 11.3333C18.8 11.812 19.188 12.2 19.6667 12.2H21.4667V14C21.4667 14.4786 21.8547 14.8667 22.3333 14.8667C22.812 14.8667 23.2 14.4786 23.2 14V11.3333Z" fill="black"/>
<path fill-rule="evenodd" clip-rule="evenodd" d="M7.66667 8C6.19391 8 5 9.19391 5 10.6667V21.3333C5 22.8061 6.19391 24 7.66667 24H23.6667C25.1394 24 26.3333 22.8061 26.3333 21.3333V10.6667C26.3333 9.19391 25.1394 8 23.6667 8H7.66667ZM23.6667 9.73333H7.66667C7.1512 9.73333 6.73333 10.1512 6.73333 10.6667V21.3333C6.73333 21.8488 7.1512 22.2667 7.66667 22.2667H23.6667C24.1821 22.2667 24.6 21.8488 24.6 21.3333V10.6667C24.6 10.1512 24.1821 9.73333 23.6667 9.73333Z" fill="black"/>
</svg>
