<svg width="20" height="20" viewBox="0 0 20 20" fill="none" xmlns="http://www.w3.org/2000/svg">
<path d="M7.98625 7.29508L7.00539 9.53854C6.85285 9.88744 6.5082 10.1129 6.12742 10.1129H3.5416C3.24248 10.1129 3 9.87042 3 9.5713C3 9.27219 3.24248 9.0297 3.5416 9.0297H6.04565L7.11914 6.57438C7.46587 5.78133 8.60307 5.818 8.89799 6.63174L10.9125 12.1902L11.9171 9.63706C12.0613 9.27062 12.415 9.0297 12.8088 9.0297H15.7917C16.0908 9.0297 16.3333 9.27219 16.3333 9.5713C16.3333 9.87042 16.0908 10.1129 15.7917 10.1129H12.8939L11.7994 12.8946C11.476 13.7163 10.3077 13.7004 10.0068 12.8703L7.98625 7.29508Z" fill="black"/>
</svg>
