<svg width="16" height="16" viewBox="0 0 16 16" fill="none" xmlns="http://www.w3.org/2000/svg">
<path fill-rule="evenodd" clip-rule="evenodd" d="M13.6667 4.33333V11C13.6667 11.7364 13.0697 12.3333 12.3333 12.3333H4.33333C3.59695 12.3333 3 11.7364 3 11V4.33333C3 3.59695 3.59695 3 4.33333 3H12.3333C13.0697 3 13.6667 3.59695 13.6667 4.33333ZM3.86667 6.43333C3.86667 6.24924 4.01591 6.1 4.2 6.1H12.4667C12.6508 6.1 12.8 6.24924 12.8 6.43333V11C12.8 11.2577 12.5911 11.4667 12.3333 11.4667H4.33333C4.0756 11.4667 3.86667 11.2577 3.86667 11V6.43333ZM7.22175 5.1412C7.24998 5.19767 7.30769 5.23333 7.37082 5.23333H8.02918C8.15308 5.23333 8.23366 5.10295 8.17825 4.99213L7.66158 3.9588C7.63335 3.90233 7.57564 3.86667 7.51251 3.86667H6.85415C6.73026 3.86667 6.64967 3.99705 6.70508 4.10787L7.22175 5.1412ZM11.2217 5.1412C11.25 5.19767 11.3077 5.23333 11.3708 5.23333H12.4667C12.6508 5.23333 12.8 5.08409 12.8 4.9V4.33333C12.8 4.0756 12.5911 3.86667 12.3333 3.86667H10.8542C10.7303 3.86667 10.6497 3.99705 10.7051 4.10787L11.2217 5.1412ZM10.0292 5.23333C10.1531 5.23333 10.2337 5.10295 10.1783 4.99213L9.66158 3.9588C9.63335 3.90233 9.57564 3.86667 9.51251 3.86667H8.85415C8.73026 3.86667 8.64967 3.99705 8.70508 4.10787L9.22175 5.1412C9.24998 5.19767 9.30769 5.23333 9.37082 5.23333H10.0292ZM6.02918 5.23333C6.15308 5.23333 6.23366 5.10295 6.17825 4.99213L5.66158 3.9588C5.63335 3.90233 5.57564 3.86667 5.51251 3.86667H4.33333C4.0756 3.86667 3.86667 4.0756 3.86667 4.33333V4.9C3.86667 5.08409 4.01591 5.23333 4.2 5.23333H6.02918Z" fill="black"/>
</svg>
