<svg width="48" height="48" viewBox="0 0 48 48" fill="none" xmlns="http://www.w3.org/2000/svg">
<path d="M24 26.5C25.3807 26.5 26.5 25.3807 26.5 24C26.5 22.6193 25.3807 21.5 24 21.5C22.6193 21.5 21.5 22.6193 21.5 24C21.5 25.3807 22.6193 26.5 24 26.5Z" fill="black"/>
<path fill-rule="evenodd" clip-rule="evenodd" d="M14 24C14 18.4771 18.4772 14 24 14C29.5228 14 34 18.4771 34 24C34 29.5229 29.5228 34 24 34C18.4772 34 14 29.5229 14 24ZM24 18C20.6863 18 18 20.6863 18 24C18 27.3137 20.6863 30 24 30C27.3137 30 30 27.3137 30 24C30 20.6863 27.3137 18 24 18Z" fill="black"/>
<path fill-rule="evenodd" clip-rule="evenodd" d="M24 40C32.8365 40 40 32.8365 40 24C40 15.1635 32.8365 8 24 8C15.1635 8 8 15.1635 8 24C8 32.8365 15.1635 40 24 40ZM24 36C30.6274 36 36 30.6274 36 24C36 17.3726 30.6274 12 24 12C17.3726 12 12 17.3726 12 24C12 30.6274 17.3726 36 24 36Z" fill="black"/>
</svg>
