<svg width="28" height="28" viewBox="0 0 28 28" fill="none" xmlns="http://www.w3.org/2000/svg">
<path d="M15.3333 6.15245C15.3333 5.51597 14.811 5 14.1667 5C13.5223 5 13 5.51597 13 6.15245V15.3721C13 16.0086 13.5223 16.5245 14.1667 16.5245C14.811 16.5245 15.3333 16.0086 15.3333 15.3721V6.15245Z" fill="black"/>
<path d="M11.2508 10.6074C11.8086 10.2887 11.9992 9.5837 11.6765 9.03276C11.3539 8.48181 10.6402 8.29354 10.0825 8.61225C7.64451 10.0054 6 12.612 6 15.5995C6 20.0549 9.65634 23.6667 14.1667 23.6667C18.677 23.6667 22.3333 20.0549 22.3333 15.5995C22.3333 12.612 20.6888 10.0054 18.2508 8.61225C17.6931 8.29354 16.9794 8.48181 16.6568 9.03276C16.3342 9.5837 16.5247 10.2887 17.0825 10.6074C18.8291 11.6055 20 13.4681 20 15.5995C20 18.7819 17.3883 21.3618 14.1667 21.3618C10.945 21.3618 8.33333 18.7819 8.33333 15.5995C8.33333 13.4681 9.50422 11.6055 11.2508 10.6074Z" fill="black"/>
</svg>
