<svg width="20" height="20" viewBox="0 0 20 20" fill="none" xmlns="http://www.w3.org/2000/svg">
<path d="M5.29109 5.08281C5.17606 5.08281 5.08281 5.17606 5.08281 5.29109V6.54078C5.08281 6.65581 5.17606 6.74906 5.29109 6.74906H6.54078C6.65581 6.74906 6.74906 6.65581 6.74906 6.54078V5.29109C6.74906 5.17606 6.65581 5.08281 6.54078 5.08281H5.29109Z" fill="black"/>
<path fill-rule="evenodd" clip-rule="evenodd" d="M3.83312 3C3.373 3 3 3.373 3 3.83312V7.99875C3 8.45887 3.373 8.83187 3.83312 8.83187H7.99875C8.45887 8.83187 8.83187 8.45887 8.83187 7.99875V3.83312C8.83187 3.373 8.45887 3 7.99875 3H3.83312ZM4.49962 4.08306C4.26956 4.08306 4.08306 4.26956 4.08306 4.49963V7.33225C4.08306 7.56231 4.26956 7.74881 4.49963 7.74881H7.33225C7.56231 7.74881 7.74881 7.56231 7.74881 7.33225V4.49962C7.74881 4.26956 7.56231 4.08306 7.33225 4.08306H4.49962Z" fill="black"/>
<path d="M12.5809 5.29109C12.5809 5.17606 12.6742 5.08281 12.7892 5.08281H14.0389C14.1539 5.08281 14.2472 5.17606 14.2472 5.29109V6.54078C14.2472 6.65581 14.1539 6.74906 14.0389 6.74906H12.7892C12.6742 6.74906 12.5809 6.65581 12.5809 6.54078V5.29109Z" fill="black"/>
<path fill-rule="evenodd" clip-rule="evenodd" d="M11.3313 3C10.8711 3 10.4981 3.373 10.4981 3.83312V7.99875C10.4981 8.45887 10.8711 8.83187 11.3313 8.83187H15.4969C15.957 8.83187 16.33 8.45887 16.33 7.99875V3.83312C16.33 3.373 15.957 3 15.4969 3H11.3313ZM11.9978 4.08306C11.7677 4.08306 11.5812 4.26956 11.5812 4.49963V7.33225C11.5812 7.56231 11.7677 7.74881 11.9978 7.74881H14.8304C15.0604 7.74881 15.2469 7.56231 15.2469 7.33225V4.49962C15.2469 4.26956 15.0604 4.08306 14.8304 4.08306H11.9978Z" fill="black"/>
<path d="M5.29109 12.5809C5.17606 12.5809 5.08281 12.6742 5.08281 12.7892V14.0389C5.08281 14.1539 5.17606 14.2472 5.29109 14.2472H6.54078C6.65581 14.2472 6.74906 14.1539 6.74906 14.0389V12.7892C6.74906 12.6742 6.65581 12.5809 6.54078 12.5809H5.29109Z" fill="black"/>
<path fill-rule="evenodd" clip-rule="evenodd" d="M3 11.3313C3 10.8711 3.373 10.4981 3.83312 10.4981H7.99875C8.45887 10.4981 8.83187 10.8711 8.83187 11.3313V15.4969C8.83187 15.957 8.45887 16.33 7.99875 16.33H3.83312C3.373 16.33 3 15.957 3 15.4969V11.3313ZM4.49962 15.2469C4.26956 15.2469 4.08306 15.0604 4.08306 14.8304V11.9978C4.08306 11.7677 4.26956 11.5812 4.49963 11.5812H7.33225C7.56231 11.5812 7.74881 11.7677 7.74881 11.9978V14.8304C7.74881 15.0604 7.56231 15.2469 7.33225 15.2469H4.49962Z" fill="black"/>
<path d="M10.4981 11.0397C10.4981 10.7406 10.7406 10.4981 11.0397 10.4981H15.7885C16.0875 10.4981 16.33 10.7406 16.33 11.0397C16.33 11.3387 16.0875 11.5812 15.7885 11.5812H11.0397C10.7406 11.5812 10.4981 11.3387 10.4981 11.0397Z" fill="black"/>
<path d="M11.0397 12.9975C10.7406 12.9975 10.4981 13.24 10.4981 13.539C10.4981 13.8381 10.7406 14.0806 11.0397 14.0806H14.1222C14.4213 14.0806 14.6637 13.8381 14.6637 13.539C14.6637 13.24 14.4213 12.9975 14.1222 12.9975H11.0397Z" fill="black"/>
<path d="M10.4981 15.7885C10.4981 15.4894 10.7406 15.2469 11.0397 15.2469H15.7885C16.0875 15.2469 16.33 15.4894 16.33 15.7885C16.33 16.0875 16.0875 16.33 15.7885 16.33H11.0397C10.7406 16.33 10.4981 16.0875 10.4981 15.7885Z" fill="black"/>
</svg>
