<svg width="48" height="48" viewBox="0 0 48 48" fill="none" xmlns="http://www.w3.org/2000/svg">
<path d="M25.1421 8.30285C24.435 7.89889 23.5669 7.89906 22.8598 8.30331L9.76186 15.7921C9.63584 15.8642 9.62616 16.0423 9.74363 16.1276L23.999 26.4778L38.3631 16.1812C38.4815 16.0963 38.4723 15.9173 38.3458 15.845L25.1421 8.30285Z" fill="black"/>
<path d="M37.7024 40C38.9726 40 40.0023 38.9703 40.0023 37.7001V18.6032C40.0023 18.4404 39.8182 18.3458 39.6859 18.4406L25.3382 28.7166C24.5377 29.2899 23.4609 29.29 22.6603 28.7169L8.31642 18.4462C8.18408 18.3515 8 18.4461 8 18.6089V37.7001C8 38.9703 9.02969 40 10.2999 40H37.7024Z" fill="black"/>
</svg>
