<svg width="48" height="48" viewBox="0 0 48 48" fill="none" xmlns="http://www.w3.org/2000/svg">
<path fill-rule="evenodd" clip-rule="evenodd" d="M8 12C8 9.79086 9.79086 8 12 8H18C20.2091 8 22 9.79086 22 12V18C22 20.2091 20.2091 22 18 22H12C9.79086 22 8 20.2091 8 18V12Z" fill="black"/>
<path fill-rule="evenodd" clip-rule="evenodd" d="M26 30C26 27.7909 27.7909 26 30 26H36C38.2091 26 40 27.7909 40 30V36C40 38.2091 38.2091 40 36 40H30C27.7909 40 26 38.2091 26 36V30Z" fill="black"/>
<path fill-rule="evenodd" clip-rule="evenodd" d="M12 26C9.79086 26 8 27.7909 8 30V36C8 38.2091 9.79086 40 12 40H18C20.2091 40 22 38.2091 22 36V30C22 27.7909 20.2091 26 18 26H12Z" fill="black"/>
<path fill-rule="evenodd" clip-rule="evenodd" d="M26 12C26 9.79086 27.7909 8 30 8H36C38.2091 8 40 9.79086 40 12V18C40 20.2091 38.2091 22 36 22H30C27.7909 22 26 20.2091 26 18V12Z" fill="black"/>
</svg>
