<svg width="16" height="16" viewBox="0 0 16 16" fill="none" xmlns="http://www.w3.org/2000/svg">
<path fill-rule="evenodd" clip-rule="evenodd" d="M9.65412 11.2836C9.65412 11.8343 9.09682 12.1784 8.65098 11.9031L3.33437 8.61954C2.88853 8.34419 2.88853 7.65581 3.33437 7.38046L8.65098 4.09691C9.09682 3.82156 9.65412 4.16575 9.65412 4.71645L9.65412 5.83162C9.65412 5.88669 9.70985 5.92111 9.75443 5.89357L12.6635 4.09691C13.1094 3.82156 13.6667 4.16575 13.6667 4.71645L13.6667 11.2836C13.6667 11.8343 13.1094 12.1784 12.6635 11.9031L9.75443 10.1064C9.70985 10.0789 9.65412 10.1133 9.65412 10.1684L9.65412 11.2836Z" fill="black"/>
</svg>
