<svg width="32" height="32" viewBox="0 0 32 32" fill="none" xmlns="http://www.w3.org/2000/svg">
<path fill-rule="evenodd" clip-rule="evenodd" d="M25.95 15.0465C26.4611 15.302 26.4611 16.0313 25.95 16.2869L6.00357 26.2592C5.5425 26.4898 5 26.1545 5 25.639V5.69429C5 5.17883 5.5425 4.84358 6.00357 5.0741L25.95 15.0465ZM6.80298 8.05035C6.80298 7.79263 7.07423 7.625 7.30477 7.74026L22.5387 15.3566C22.7942 15.4843 22.7942 15.849 22.5387 15.9768L7.30476 23.5931C7.07423 23.7083 6.80298 23.5407 6.80298 23.283V16.9148C6.80298 16.7233 6.95821 16.5681 7.1497 16.5681H12.628C13.1259 16.5681 13.5295 16.1645 13.5295 15.6667C13.5295 15.1688 13.1259 14.7653 12.628 14.7653H7.1497C6.95821 14.7653 6.80298 14.61 6.80298 14.4186L6.80298 8.05035Z" fill="black"/>
</svg>
