<svg width="32" height="32" viewBox="0 0 32 32" fill="none" xmlns="http://www.w3.org/2000/svg">
<path d="M10.3264 6.0468C10.4548 6.19449 10.4015 6.41689 10.2342 6.51834C8.69474 7.45152 7.40464 8.76921 6.49044 10.342C6.38946 10.5157 6.15965 10.5702 6.01166 10.4343C5.39063 9.86391 5 9.03647 5 8.11579C5 6.39498 6.3645 5 8.04761 5C8.95408 5 9.76813 5.40461 10.3264 6.0468Z" fill="black"/>
<path d="M26.3333 8.11579C26.3333 9.03651 25.9428 9.86394 25.3217 10.4343C25.1737 10.5703 24.9439 10.5158 24.8429 10.342C23.9287 8.76923 22.6386 7.45153 21.0992 6.51833C20.9319 6.41688 20.8786 6.19451 21.007 6.04682C21.5652 5.40461 22.3792 5 23.2857 5C24.9689 5 26.3333 6.39498 26.3333 8.11579Z" fill="black"/>
<path d="M15.6667 8.88499C16.1453 8.88499 16.5334 9.28169 16.5334 9.77103V15.2664C16.5334 15.4406 16.6016 15.608 16.7234 15.7325L20.2795 19.3681C20.6179 19.7142 20.6179 20.2752 20.2795 20.6212C19.941 20.9672 19.3923 20.9672 19.0539 20.6212L14.99 16.4666C14.8682 16.342 14.8 16.1747 14.8 16.0004V9.77103C14.8 9.28169 15.188 8.88499 15.6667 8.88499Z" fill="black"/>
<path fill-rule="evenodd" clip-rule="evenodd" d="M15.6667 25.4473C17.9319 25.4473 20.0087 24.6222 21.6252 23.25L24.3872 26.0738C24.7257 26.4198 25.2743 26.4198 25.6128 26.0738C25.9513 25.7278 25.9513 25.1668 25.6128 24.8207L22.8508 21.997C24.193 20.3443 25 18.2211 25 15.9052C25 10.6353 20.8213 6.36315 15.6667 6.36315C10.512 6.36315 6.33333 10.6353 6.33333 15.9052C6.33333 18.2211 7.1403 20.3443 8.4825 21.997L5.72054 24.8207C5.38208 25.1668 5.38208 25.7278 5.72054 26.0738C6.059 26.4198 6.60767 26.4198 6.94613 26.0738L9.70817 23.25C11.3246 24.6222 13.4014 25.4473 15.6667 25.4473ZM15.6667 24.0841C20.085 24.0841 23.6667 20.4223 23.6667 15.9052C23.6667 11.3881 20.085 7.72631 15.6667 7.72631C11.2484 7.72631 7.66667 11.3881 7.66667 15.9052C7.66667 20.4223 11.2484 24.0841 15.6667 24.0841Z" fill="black"/>
</svg>
