<svg width="48" height="48" viewBox="0 0 48 48" fill="none" xmlns="http://www.w3.org/2000/svg">
<path d="M13.5 13C13.2239 13 13 13.2239 13 13.5V16.5C13 16.7761 13.2239 17 13.5 17H16.5C16.7761 17 17 16.7761 17 16.5V13.5C17 13.2239 16.7761 13 16.5 13H13.5Z" fill="black"/>
<path fill-rule="evenodd" clip-rule="evenodd" d="M10 8C8.89543 8 8 8.89543 8 10V20C8 21.1046 8.89543 22 10 22H20C21.1046 22 22 21.1046 22 20V10C22 8.89543 21.1046 8 20 8H10ZM11.6 10.6C11.0477 10.6 10.6 11.0477 10.6 11.6V18.4C10.6 18.9523 11.0477 19.4 11.6 19.4H18.4C18.9523 19.4 19.4 18.9523 19.4 18.4V11.6C19.4 11.0477 18.9523 10.6 18.4 10.6H11.6Z" fill="black"/>
<path d="M31 13.5C31 13.2239 31.2239 13 31.5 13H34.5C34.7761 13 35 13.2239 35 13.5V16.5C35 16.7761 34.7761 17 34.5 17H31.5C31.2239 17 31 16.7761 31 16.5V13.5Z" fill="black"/>
<path fill-rule="evenodd" clip-rule="evenodd" d="M28 8C26.8954 8 26 8.89543 26 10V20C26 21.1046 26.8954 22 28 22H38C39.1046 22 40 21.1046 40 20V10C40 8.89543 39.1046 8 38 8H28ZM29.6 10.6C29.0477 10.6 28.6 11.0477 28.6 11.6V18.4C28.6 18.9523 29.0477 19.4 29.6 19.4H36.4C36.9523 19.4 37.4 18.9523 37.4 18.4V11.6C37.4 11.0477 36.9523 10.6 36.4 10.6H29.6Z" fill="black"/>
<path d="M13.5 31C13.2239 31 13 31.2239 13 31.5V34.5C13 34.7761 13.2239 35 13.5 35H16.5C16.7761 35 17 34.7761 17 34.5V31.5C17 31.2239 16.7761 31 16.5 31H13.5Z" fill="black"/>
<path fill-rule="evenodd" clip-rule="evenodd" d="M8 28C8 26.8954 8.89543 26 10 26H20C21.1046 26 22 26.8954 22 28V38C22 39.1046 21.1046 40 20 40H10C8.89543 40 8 39.1046 8 38V28ZM11.6 37.4C11.0477 37.4 10.6 36.9523 10.6 36.4V29.6C10.6 29.0477 11.0477 28.6 11.6 28.6H18.4C18.9523 28.6 19.4 29.0477 19.4 29.6V36.4C19.4 36.9523 18.9523 37.4 18.4 37.4H11.6Z" fill="black"/>
<path d="M26 27.3C26 26.582 26.582 26 27.3 26H38.7C39.418 26 40 26.582 40 27.3C40 28.018 39.418 28.6 38.7 28.6H27.3C26.582 28.6 26 28.018 26 27.3Z" fill="black"/>
<path d="M27.3 32C26.582 32 26 32.582 26 33.3C26 34.018 26.582 34.6 27.3 34.6H34.7C35.418 34.6 36 34.018 36 33.3C36 32.582 35.418 32 34.7 32H27.3Z" fill="black"/>
<path d="M26 38.7C26 37.982 26.582 37.4 27.3 37.4H38.7C39.418 37.4 40 37.982 40 38.7C40 39.418 39.418 40 38.7 40H27.3C26.582 40 26 39.418 26 38.7Z" fill="black"/>
</svg>
