<svg width="16" height="16" viewBox="0 0 16 16" fill="none" xmlns="http://www.w3.org/2000/svg">
<path d="M3.57195 3.2728C3.24656 3.49691 3 3.87252 3 4.41373C3 4.95495 3.24656 5.33056 3.57195 5.55466C3.8744 5.76296 4.22257 5.82747 4.45932 5.82747H4.70805V3.86683C4.73771 3.61228 4.65075 3.09285 4.06561 3.05159C3.90371 3.09308 3.73147 3.16294 3.57195 3.2728Z" fill="black"/>
<path d="M11.9749 13.67C12.449 13.67 12.8279 13.5077 13.1114 13.251C13.3863 13.0021 13.5508 12.6839 13.6463 12.393C13.6522 12.3753 13.6574 12.3576 13.6621 12.34C13.7066 12.1724 13.556 12.0361 13.3823 12.0361H7.51901C7.41059 12.0361 7.23648 12.1455 7.09738 12.4353C7.0335 12.5683 6.95591 12.691 6.86785 12.8032C6.58117 13.0917 5.94097 13.6687 5.67361 13.6687L11.9749 13.67Z" fill="black"/>
<path d="M12.4094 11.1693V4.10021C12.4094 3.49258 11.9156 3 11.3065 3H5.0052C5.44191 3 5.56834 3.57789 5.57697 3.86683V12.7106C5.8704 12.5937 6.16545 12.3697 6.3137 12.0609C6.49349 11.6863 6.88914 11.1693 7.51901 11.1693H12.4094Z" fill="black"/>
</svg>
