<svg width="16" height="16" viewBox="0 0 16 16" fill="none" xmlns="http://www.w3.org/2000/svg">
<path d="M4 7C4 8.28254 4.60361 9.4241 5.54224 10.1561C5.64975 10.2399 5.80357 10.6295 5.97399 11.1206C5.99735 11.1879 6.06069 11.2333 6.13196 11.2333H9.86804C9.93931 11.2333 10.0026 11.1879 10.026 11.1206C10.1964 10.6295 10.3503 10.2399 10.4578 10.1561C11.3964 9.4241 12 8.28254 12 7C12 4.79086 10.2091 3 8 3C5.79086 3 4 4.79086 4 7Z" fill="black"/>
<path d="M9 13.6667C9.14611 13.6667 9.37967 13.0425 9.62423 12.3193C9.66067 12.2115 9.58031 12.1 9.46655 12.1H6.53345C6.41969 12.1 6.33933 12.2115 6.37577 12.3193C6.62033 13.0425 6.85389 13.6667 7 13.6667H9Z" fill="black"/>
</svg>
