<svg width="20" height="20" viewBox="0 0 20 20" fill="none" xmlns="http://www.w3.org/2000/svg">
<path d="M5.58269 6.54078C5.58269 6.2417 5.82514 5.99925 6.12422 5.99925H13.2058C13.5049 5.99925 13.7473 6.2417 13.7473 6.54078C13.7473 6.83986 13.5049 7.08231 13.2058 7.08231H6.12422C5.82514 7.08231 5.58269 6.83986 5.58269 6.54078Z" fill="black"/>
<path d="M8.20703 8.91519C7.90795 8.91519 7.6655 9.15764 7.6655 9.45672C7.6655 9.7558 7.90795 9.99825 8.20703 9.99825H13.2058C13.5049 9.99825 13.7473 9.7558 13.7473 9.45672C13.7473 9.15764 13.5049 8.91519 13.2058 8.91519H8.20703Z" fill="black"/>
<path fill-rule="evenodd" clip-rule="evenodd" d="M4.66625 3C3.74601 3 3 3.74601 3 4.66625V14.6637C3 15.584 3.74601 16.33 4.66625 16.33H14.6637C15.584 16.33 16.33 15.584 16.33 14.6637V4.66625C16.33 3.74601 15.584 3 14.6637 3H4.66625ZM14.6637 4.08306H4.66625C4.34416 4.08306 4.08306 4.34416 4.08306 4.66625V14.6637C4.08306 14.9858 4.34416 15.2469 4.66625 15.2469H14.6637C14.9858 15.2469 15.2469 14.9858 15.2469 14.6637V4.66625C15.2469 4.34416 14.9858 4.08306 14.6637 4.08306Z" fill="black"/>
</svg>
