<svg width="20" height="20" viewBox="0 0 20 20" fill="none" xmlns="http://www.w3.org/2000/svg">
<path fill-rule="evenodd" clip-rule="evenodd" d="M14.3889 4.94444C15.1667 4.94444 16.3333 5.25798 16.3333 6.11111C16.3333 7.82933 14.9404 9.22222 13.2222 9.22222L10.9444 9.22222C10.4842 9.22222 10.1111 8.84912 10.1111 8.38888L10.1111 6.11111C10.1111 4.39289 11.504 3 13.2222 3C14.0873 3 14.3889 4.16667 14.3889 4.94444ZM11.4167 8.33333C11.1866 8.33333 11 8.14678 11 7.91666L11 6.11111C11 4.88645 11.9907 3.89317 13.2143 3.8889C13.2335 3.90627 13.2765 3.95485 13.3261 4.05993C13.4384 4.29782 13.5 4.64551 13.5 4.94444V5C13.5 5.46024 13.8731 5.83333 14.3333 5.83333H14.3889C14.6834 5.83333 15.0312 5.8965 15.2709 6.01052C15.3755 6.06028 15.4255 6.10365 15.4444 6.12418C15.4374 7.34547 14.4452 8.33333 13.2222 8.33333L11.4167 8.33333Z" fill="black"/>
<path fill-rule="evenodd" clip-rule="evenodd" d="M3 13.2222C3 14.0754 4.16667 14.3889 4.94444 14.3889L4.94445 14.39C4.94474 15.1678 5.24644 16.3333 6.11111 16.3333C7.82932 16.3333 9.22221 14.9404 9.22221 13.2222L9.22222 10.9444C9.22222 10.4842 8.84913 10.1111 8.38889 10.1111L6.11111 10.1111C4.39289 10.1111 3 11.504 3 13.2222ZM8.33333 11.4167C8.33333 11.1866 8.14678 11 7.91666 11L6.11111 11C4.88817 11 3.89596 11.9879 3.88893 13.2092C3.90786 13.2297 3.95788 13.2731 4.06245 13.3228C4.30211 13.4368 4.64997 13.5 4.94445 13.5H5C5.46024 13.5 5.83333 13.8731 5.83333 14.3333V14.3889C5.83333 14.6878 5.89496 15.0355 6.00723 15.2734C6.05682 15.3785 6.09983 15.4271 6.11902 15.4444C7.34268 15.4402 8.33332 14.4469 8.33332 13.2222L8.33333 11.4167Z" fill="black"/>
<path fill-rule="evenodd" clip-rule="evenodd" d="M13.2222 16.3333C14.0754 16.3333 14.3889 15.1667 14.3889 14.3889C15.1667 14.3889 16.3333 14.0873 16.3333 13.2222C16.3333 11.504 14.9404 10.1111 13.2222 10.1111L10.9444 10.1111C10.4842 10.1111 10.1111 10.4842 10.1111 10.9444L10.1111 13.2222C10.1111 14.9404 11.504 16.3333 13.2222 16.3333ZM11.4167 11C11.1866 11 11 11.1866 11 11.4167L11 13.2222C11 14.4452 11.9879 15.4374 13.2092 15.4444C13.2297 15.4255 13.2731 15.3755 13.3228 15.2709C13.4368 15.0312 13.5 14.6834 13.5 14.3889V14.3333C13.5 13.8731 13.8731 13.5 14.3333 13.5H14.3889C14.6878 13.5 15.0355 13.4384 15.2734 13.3261C15.3785 13.2765 15.4271 13.2335 15.4444 13.2143C15.4402 11.9907 14.4469 11 13.2222 11L11.4167 11Z" fill="black"/>
<path fill-rule="evenodd" clip-rule="evenodd" d="M6.11111 3C5.25839 3 4.94474 4.16556 4.94444 4.94334V4.94445C4.16667 4.94445 3 5.24602 3 6.11111C3 7.82932 4.39289 9.22221 6.11111 9.22221L8.38888 9.22222C8.84912 9.22222 9.22222 8.84913 9.22222 8.38889L9.22222 6.11111C9.22222 4.39289 7.82933 3 6.11111 3ZM7.91666 8.33333C8.14678 8.33333 8.33333 8.14678 8.33333 7.91666L8.33333 6.11111C8.33333 4.88817 7.34547 3.89596 6.12418 3.88893C6.10365 3.90786 6.06028 3.95788 6.01052 4.06245C5.8965 4.30211 5.83333 4.64997 5.83333 4.94445V5C5.83333 5.46024 5.46024 5.83333 5 5.83333H4.94444C4.64551 5.83333 4.29782 5.89496 4.05993 6.00723C3.95485 6.05682 3.90627 6.09983 3.8889 6.11902C3.89317 7.34268 4.88645 8.33333 6.11111 8.33333L7.91666 8.33333Z" fill="black"/>
</svg>
