<svg width="28" height="28" viewBox="0 0 28 28" fill="none" xmlns="http://www.w3.org/2000/svg">
<path fill-rule="evenodd" clip-rule="evenodd" d="M7.33333 5C6.04467 5 5 6.04467 5 7.33333V21.3333C5 22.622 6.04467 23.6667 7.33333 23.6667H21.3333C22.622 23.6667 23.6667 22.622 23.6667 21.3333V7.33333C23.6667 6.04467 22.622 5 21.3333 5H7.33333ZM21.3333 8.5C21.3333 7.85567 20.811 7.33333 20.1667 7.33333H8.5C7.85567 7.33333 7.33333 7.85567 7.33333 8.5V20.1667C7.33333 20.811 7.85567 21.3333 8.5 21.3333H20.1667C20.811 21.3333 21.3333 20.811 21.3333 20.1667V8.5Z" fill="black"/>
</svg>
