<svg width="24" height="24" viewBox="0 0 24 24" fill="none" xmlns="http://www.w3.org/2000/svg">
<path fill-rule="evenodd" clip-rule="evenodd" d="M17.6841 6.39555C18.8248 7.55616 19.5872 9.02967 19.8908 10.6178L19.8924 10.6267C19.938 10.8665 19.9731 11.1089 19.9975 11.3532C20.0352 11.7312 19.6455 11.979 19.3114 11.809L18.4782 11.3852C18.1954 11.2412 17.8624 11.2412 17.5795 11.3852L16.2439 12.0646C16.1025 12.1366 15.936 12.1366 15.7946 12.0646L14.459 11.3852C14.1761 11.2412 13.8431 11.2412 13.5603 11.3852L12.6531 11.8466V17.8019C12.6531 18.211 12.4992 18.7649 12.0692 19.2206C11.6234 19.6931 10.9389 20 9.99037 20C8.97365 20 8.27517 19.5541 7.85263 18.957C7.45408 18.3938 7.32762 17.7379 7.32762 17.2907C7.32762 16.9237 7.62003 16.6262 7.98074 16.6262C8.34146 16.6262 8.63387 16.9237 8.63387 17.2907C8.63387 17.5252 8.70837 17.8916 8.91271 18.1804C9.09306 18.4353 9.39939 18.6709 9.99037 18.6709C10.6496 18.6709 10.9699 18.4666 11.1269 18.3002C11.2998 18.1169 11.3469 17.904 11.3469 17.8019V11.8466L10.4397 11.3852C10.1569 11.2412 9.82389 11.2412 9.54101 11.3852L8.20543 12.0646C8.06399 12.1366 7.8975 12.1366 7.75606 12.0646L6.42048 11.3852C6.1376 11.2412 5.80463 11.2412 5.52175 11.3852L4.68858 11.809C4.35453 11.979 3.96484 11.7312 4.00254 11.3532C4.0269 11.1089 4.06199 10.8665 4.10755 10.6267L4.10924 10.6178C4.41276 9.02969 5.17523 7.55616 6.31592 6.39555C7.82343 4.8617 9.86806 4 12 4C14.1319 4 16.1766 4.86171 17.6841 6.39555ZM16.7604 7.33535C17.4969 8.08468 18.0451 8.98977 18.3741 9.97452C17.9087 9.90301 17.4267 9.97696 16.9953 10.1964L16.0193 10.693L15.0432 10.1964C14.3925 9.8654 13.6267 9.8654 12.9761 10.1964L12 10.693L11.0239 10.1964C10.3733 9.8654 9.60746 9.8654 8.95683 10.1964L7.98074 10.693L7.00466 10.1964C6.57332 9.97696 6.09135 9.903 5.62588 9.97452C5.95488 8.98977 6.50311 8.08468 7.23958 7.33535C8.50212 6.05075 10.2145 5.32907 12 5.32907C13.7855 5.32907 15.4979 6.05075 16.7604 7.33535Z" fill="black"/>
</svg>
