<svg width="48" height="48" viewBox="0 0 48 48" fill="none" xmlns="http://www.w3.org/2000/svg">
<path d="M18.8735 20.059C18.6093 20.426 18.5109 20.8979 18.5109 21.197C18.5109 21.7774 18.0404 22.2478 17.4599 22.2478C16.8793 22.2478 16.4088 21.7774 16.4088 21.197C16.4088 20.5618 16.5907 19.6322 17.1673 18.8313C17.7826 17.9768 18.7989 17.3433 20.2628 17.3433C21.7199 17.3433 22.6936 17.9668 23.2865 18.6256C23.5732 18.9441 23.7634 19.2611 23.8833 19.5009C23.9436 19.6217 23.9876 19.7256 24.0179 19.8044C24.0332 19.8438 24.0451 19.8772 24.054 19.9036L24.0653 19.9378L24.0694 19.9507L24.0711 19.9561L24.0722 19.9597C24.0816 19.9913 24.0899 20.0244 24.0964 20.0567C24.2742 20.9458 24.3456 22.3301 23.8861 23.5522C23.6498 24.1807 23.2579 24.804 22.6314 25.2678C21.9975 25.7371 21.2014 25.9851 20.2628 25.9851C19.2193 25.9851 18.5978 26.4918 18.1839 27.2105C17.9439 27.6272 17.7859 28.1031 17.6914 28.5552H23.0657C23.6462 28.5552 24.1168 29.0256 24.1168 29.606C24.1168 30.1863 23.6462 30.6567 23.0657 30.6567H16.5255C15.945 30.6567 15.4745 30.1863 15.4745 29.606C15.4745 28.7 15.685 27.3374 16.3621 26.1618C17.0693 24.934 18.3164 23.8835 20.2628 23.8835C20.8191 23.8835 21.1597 23.7423 21.3803 23.5789C21.6083 23.4101 21.7887 23.1575 21.9183 22.8127C22.181 22.1141 22.1698 21.2043 22.0488 20.5412C22.0389 20.5168 22.0238 20.4823 22.0029 20.4405C21.9476 20.33 21.8575 20.1798 21.7237 20.0312C21.4757 19.7556 21.048 19.4448 20.2628 19.4448C19.4843 19.4448 19.0992 19.7456 18.8735 20.059Z" fill="black"/>
<path fill-rule="evenodd" clip-rule="evenodd" d="M27.7472 18.3609C27.9309 18.0217 28.2857 17.8104 28.6715 17.8104H30.1664C30.7469 17.8104 31.2175 18.2809 31.2175 18.8612V25.5725H32.4088C32.9893 25.5725 33.4599 26.043 33.4599 26.6233C33.4599 27.2036 32.9893 27.6741 32.4088 27.6741H31.2175V30.0731C31.2175 30.6535 30.7469 31.1239 30.1664 31.1239C29.5859 31.1239 29.1153 30.6535 29.1153 30.0731V27.6741H24.9343C24.3538 27.6741 23.8832 27.2036 23.8832 26.6233V25.7608C23.8832 25.5861 23.9268 25.4141 24.01 25.2605L27.7472 18.3609ZM29.1153 25.5725V20.2486L26.2316 25.5725H29.1153Z" fill="black"/>
<path fill-rule="evenodd" clip-rule="evenodd" d="M8 24C8 15.1638 15.1631 8 24 8C32.8369 8 40 15.1638 40 24C40 32.8362 32.8369 40 24 40C15.1631 40 8 32.8362 8 24ZM24 10.1016C16.3248 10.1016 10.1022 16.3238 10.1022 24C10.1022 31.6762 16.3248 37.8984 24 37.8984C31.6752 37.8984 37.8978 31.6762 37.8978 24C37.8978 16.3238 31.6752 10.1016 24 10.1016Z" fill="black"/>
</svg>
