<svg width="24" height="24" viewBox="0 0 24 24" fill="none" xmlns="http://www.w3.org/2000/svg">
<path fill-rule="evenodd" clip-rule="evenodd" d="M12.0355 4.03274C12.2743 3.94898 12.5387 4.02954 12.6937 4.23326L15.8755 8.41564C16.0692 8.67018 16.0331 9.03535 15.7936 9.24521L12.8182 11.8526V12.2263L15.7936 14.8338C16.0347 15.045 16.0694 15.4133 15.8721 15.6677L12.6903 19.7711C12.5341 19.9726 12.2704 20.0509 12.0329 19.9664C11.7955 19.8818 11.6364 19.6529 11.6364 19.3958V13.498L9.00875 16.1843C8.77799 16.4203 8.40384 16.4203 8.17308 16.1843C7.94232 15.9484 7.94232 15.5659 8.17308 15.33L11.6052 11.8211L8.2018 8.77647C7.9562 8.55676 7.93131 8.1751 8.14621 7.92401C8.36111 7.67291 8.73443 7.64747 8.98003 7.86718L11.6364 10.2434V4.60416C11.6364 4.34607 11.7967 4.11649 12.0355 4.03274ZM12.8182 10.2613L14.5967 8.70273L12.8182 6.36489V10.2613ZM12.8182 13.8177V17.6613L14.5927 15.3728L12.8182 13.8177Z" fill="black"/>
</svg>
