<svg width="20" height="20" viewBox="0 0 20 20" fill="none" xmlns="http://www.w3.org/2000/svg">
<path d="M6.58333 7.875C6.58333 8.17416 6.34082 8.41667 6.04167 8.41667C5.74251 8.41667 5.5 8.17416 5.5 7.875C5.5 7.57585 5.74251 7.33334 6.04167 7.33334C6.34082 7.33334 6.58333 7.57585 6.58333 7.875Z" fill="black"/>
<path d="M8.45835 8.41667C8.75751 8.41667 9.00002 8.17416 9.00002 7.875C9.00002 7.57585 8.75751 7.33334 8.45835 7.33334C8.1592 7.33334 7.91669 7.57585 7.91669 7.875C7.91669 8.17416 8.1592 8.41667 8.45835 8.41667Z" fill="black"/>
<path d="M11.4167 7.875C11.4167 8.17416 11.1742 8.41667 10.875 8.41667C10.5759 8.41667 10.3334 8.17416 10.3334 7.875C10.3334 7.57585 10.5759 7.33334 10.875 7.33334C11.1742 7.33334 11.4167 7.57585 11.4167 7.875Z" fill="black"/>
<path d="M13.2917 8.41667C13.5909 8.41667 13.8334 8.17416 13.8334 7.875C13.8334 7.57585 13.5909 7.33334 13.2917 7.33334C12.9926 7.33334 12.7501 7.57585 12.7501 7.875C12.7501 8.17416 12.9926 8.41667 13.2917 8.41667Z" fill="black"/>
<path d="M8.04167 9.75C8.04167 10.0492 7.79915 10.2917 7.5 10.2917C7.20085 10.2917 6.95833 10.0492 6.95833 9.75C6.95833 9.45085 7.20085 9.20834 7.5 9.20834C7.79915 9.20834 8.04167 9.45085 8.04167 9.75Z" fill="black"/>
<path d="M9.66665 10.2917C9.9658 10.2917 10.2083 10.0492 10.2083 9.75C10.2083 9.45085 9.9658 9.20834 9.66665 9.20834C9.36749 9.20834 9.12498 9.45085 9.12498 9.75C9.12498 10.0492 9.36749 10.2917 9.66665 10.2917Z" fill="black"/>
<path d="M12.375 9.75C12.375 10.0492 12.1324 10.2917 11.8333 10.2917C11.5341 10.2917 11.2916 10.0492 11.2916 9.75C11.2916 9.45085 11.5341 9.20834 11.8333 9.20834C12.1324 9.20834 12.375 9.45085 12.375 9.75Z" fill="black"/>
<path d="M6.33333 11.125C6.03418 11.125 5.79167 11.3675 5.79167 11.6667C5.79167 11.9658 6.03418 12.2083 6.33333 12.2083H13C13.2992 12.2083 13.5417 11.9658 13.5417 11.6667C13.5417 11.3675 13.2992 11.125 13 11.125H6.33333Z" fill="black"/>
<path fill-rule="evenodd" clip-rule="evenodd" d="M4.66667 5C3.74619 5 3 5.74619 3 6.66667V12.5C3 13.4205 3.74619 14.1667 4.66667 14.1667H14.6667C15.5871 14.1667 16.3333 13.4205 16.3333 12.5V6.66667C16.3333 5.74619 15.5871 5 14.6667 5H4.66667ZM14.6667 6.08333H4.66667C4.3445 6.08333 4.08333 6.3445 4.08333 6.66667V12.5C4.08333 12.8222 4.3445 13.0833 4.66667 13.0833H14.6667C14.9888 13.0833 15.25 12.8222 15.25 12.5V6.66667C15.25 6.3445 14.9888 6.08333 14.6667 6.08333Z" fill="black"/>
</svg>
