<svg width="20" height="20" viewBox="0 0 20 20" fill="none" xmlns="http://www.w3.org/2000/svg">
<path fill-rule="evenodd" clip-rule="evenodd" d="M13.6598 10.3804C14.8699 9.86326 16.2535 8.72193 16.2666 6.59403V3.27778C16.2666 3.12437 16.1398 3 15.9834 3H6.87217C5.58145 3.04182 3 3.81918 3 6.59403V16.0556C3 16.209 3.12681 16.3333 3.28323 16.3333H8.03656C8.19299 16.3333 8.31979 16.209 8.31979 16.0556V11.1748C8.31979 11.0364 8.50376 10.9832 8.58036 11.0995L11.9441 16.2063C11.9963 16.2855 12.0858 16.3333 12.182 16.3333H16.0496C16.279 16.3333 16.4133 16.0798 16.2813 15.8958L12.6899 10.8869C12.6295 10.8027 12.6798 10.6848 12.7824 10.6627C12.8912 10.6393 13.0064 10.6099 13.1264 10.574C13.2934 10.5239 13.4696 10.4613 13.6496 10.3848C13.653 10.3833 13.6564 10.3819 13.6598 10.3804ZM14.4852 15.25L11.8095 11.5182C11.2534 10.7426 11.7594 9.77449 12.5548 9.60356C13.6287 9.37277 15.1698 8.51099 15.1833 6.59049V4.08333H6.89123C6.39751 4.10234 5.65153 4.26813 5.05961 4.66907C4.51322 5.03917 4.08333 5.60877 4.08333 6.59403V15.25H7.23646V11.1748C7.23646 9.9128 8.84398 9.53027 9.48507 10.5036L12.6114 15.25H14.4852Z" fill="black"/>
</svg>
