<svg width="16" height="16" viewBox="0 0 16 16" fill="none" xmlns="http://www.w3.org/2000/svg">
<path fill-rule="evenodd" clip-rule="evenodd" d="M3.56667 5.47563V4.86721C3.56667 3.83598 4.35763 3 5.33333 3H11.3333C12.309 3 13.1 3.83598 13.1 4.86721V5.47563C13.4427 5.73065 13.6667 6.15205 13.6667 6.62873V8.74255C13.6667 9.52083 13.0697 10.1518 12.3333 10.1518H11.6128L12.3064 10.8848C12.4756 11.0637 12.4756 11.3537 12.3064 11.5325C12.1372 11.7114 11.8628 11.7114 11.6936 11.5325L10.3872 10.1518H6.27949L4.97308 11.5325C4.80385 11.7114 4.52948 11.7114 4.36025 11.5325C4.19103 11.3537 4.19103 11.0637 4.36025 10.8848L5.05384 10.1518H4.33333C3.59695 10.1518 3 9.52083 3 8.74255V6.62873C3 6.15205 3.22393 5.73065 3.56667 5.47563ZM4.43333 4.86721C4.43333 4.34186 4.83628 3.91599 5.33333 3.91599H11.3333C11.8304 3.91599 12.2333 4.34186 12.2333 4.86721V5.21951H11.6667C10.9303 5.21951 10.3333 5.85044 10.3333 6.62873V6.91057C10.3333 6.94948 10.3035 6.98103 10.2667 6.98103H6.4C6.36318 6.98103 6.33333 6.94948 6.33333 6.91057V6.62873C6.33333 5.85044 5.73638 5.21951 5 5.21951H4.43333V4.86721Z" fill="black"/>
</svg>
