<svg width="16" height="16" viewBox="0 0 16 16" fill="none" xmlns="http://www.w3.org/2000/svg">
<path fill-rule="evenodd" clip-rule="evenodd" d="M3.7153 11.0021C2.24279 8.45079 3.11664 5.1885 5.66711 3.71553C8.21758 2.24255 11.4789 3.11668 12.9514 5.66795C14.4239 8.21921 13.55 11.4815 10.9996 12.9545C8.44909 14.4274 5.18782 13.5533 3.7153 11.0021ZM6.01433 4.51715C5.28282 4.96133 4.72295 5.58427 4.35853 6.29718C4.28853 6.43411 4.36764 6.59816 4.44452 6.73135C4.57388 6.95548 4.71878 7.01027 4.83738 7.02223C4.98306 7.03691 5.1342 6.98746 5.21847 6.93879L5.50709 6.7721C5.71432 6.65242 5.9793 6.72344 6.09894 6.93074L6.93213 8.37432C6.96786 8.43622 6.99989 8.46288 7.01875 8.475C7.03795 8.48734 7.05852 8.49422 7.08345 8.49674C7.14401 8.50284 7.21465 8.48063 7.25082 8.45974L8.96207 7.47144C9.38093 7.22953 9.29832 6.60181 8.83114 6.47659C8.74851 6.45444 8.67429 6.40833 8.61783 6.34406C8.45558 6.15938 8.17208 5.90362 7.86751 5.74361C7.55131 5.5775 7.32483 5.56832 7.1722 5.65647C6.96497 5.77615 6.7 5.70512 6.58035 5.49783L6.01433 4.51715ZM4.7505 7.88465C4.36639 7.84594 3.86151 8.01804 3.86714 8.40418C3.87787 9.14091 4.07129 9.88524 4.46573 10.5687C5.27007 11.9623 6.71169 12.7583 8.20977 12.8012C8.33495 12.8048 8.41062 12.6695 8.34801 12.561C8.23002 12.3566 8.11609 12.0247 8.15287 11.6595C8.19239 11.2673 8.40392 10.8734 8.87256 10.6028L9.16118 10.4361C9.43217 10.2796 9.52502 9.93297 9.36856 9.6619C9.27835 9.5056 9.19165 9.25421 9.21985 8.97418C9.25079 8.66705 9.41793 8.36303 9.77113 8.15905L10.2039 7.9091C10.2357 7.89072 10.2467 7.85005 10.2284 7.81817C10.21 7.78617 10.1692 7.77517 10.1373 7.79362L7.68408 9.2104C7.52783 9.30064 7.27652 9.38738 6.99657 9.35916C6.68954 9.32821 6.38562 9.16102 6.1817 8.80772L5.87306 8.27296C5.69853 7.97057 5.31635 7.87156 4.96776 7.88973C4.89722 7.8934 4.82454 7.89211 4.7505 7.88465ZM9.161 12.236C9.3097 12.4937 9.61306 12.6264 9.89164 12.5223C10.1213 12.4365 10.3469 12.3305 10.5663 12.2038C12.1206 11.3061 12.9314 9.61498 12.7826 7.93717C12.7599 7.68116 12.5676 7.47808 12.3194 7.41156L11.6732 7.23835C11.3333 7.14724 11.0529 7.51274 11.2289 7.81762C11.3485 8.02491 11.2775 8.28997 11.0703 8.40965L10.2044 8.90972C10.1425 8.94546 10.1159 8.97749 10.1037 8.99637C10.0914 9.01557 10.0845 9.03614 10.082 9.06108C10.0759 9.12166 10.0981 9.19233 10.119 9.2285L10.6189 10.0947C10.7386 10.3019 10.6676 10.567 10.4603 10.6867L9.30582 11.3534C9.08176 11.4829 9.02698 11.6278 9.01503 11.7464C9.00035 11.8922 9.04979 12.0433 9.09844 12.1276L9.161 12.236ZM11.9467 6.4143C12.139 6.46584 12.3005 6.27382 12.2009 6.10134C11.1758 4.32526 9.11564 3.51969 7.22266 4.00687C6.99709 4.06492 6.90348 4.3241 7.01994 4.52587C7.09903 4.66291 7.256 4.73093 7.41415 4.7339C7.72966 4.73984 8.0292 4.8495 8.2704 4.97621C8.56866 5.13289 8.83772 5.34469 9.04465 5.54047C9.13327 5.62431 9.23924 5.6886 9.35706 5.72018L11.9467 6.4143Z" fill="black"/>
</svg>
