<svg width="32" height="32" viewBox="0 0 32 32" fill="none" xmlns="http://www.w3.org/2000/svg">
<path d="M5.47945 4.25383C5.14101 3.91539 4.59228 3.91539 4.25383 4.25383C3.91539 4.59228 3.91539 5.14101 4.25383 5.47946L26.5205 27.7462C26.859 28.0846 27.4077 28.0846 27.7462 27.7462C28.0846 27.4077 28.0846 26.859 27.7462 26.5205L5.47945 4.25383Z" fill="black"/>
<path fill-rule="evenodd" clip-rule="evenodd" d="M5.3333 9.3332C5.3333 8.94192 5.41757 8.57032 5.56896 8.23556L8.66655 11.3331V12.4665C8.66655 12.9451 9.05456 13.3331 9.53319 13.3331C9.84077 13.3331 10.1109 13.1729 10.2647 12.9313L22.6662 25.3328H7.9999C6.52718 25.3328 5.3333 24.1389 5.3333 22.6662V9.3332ZM8.66655 15.1997C8.66655 14.7211 9.05456 14.3331 9.53319 14.3331C10.0118 14.3331 10.3998 14.7211 10.3998 15.1997V16.7997C10.3998 17.2783 10.0118 17.6663 9.53319 17.6663C9.05456 17.6663 8.66655 17.2783 8.66655 16.7997V15.1997ZM9.53319 18.6663C9.05456 18.6663 8.66655 19.0543 8.66655 19.5329V21.1329C8.66655 21.6115 9.05456 21.9995 9.53319 21.9995C10.0118 21.9995 10.3998 21.6115 10.3998 21.1329V19.5329C10.3998 19.0543 10.0118 18.6663 9.53319 18.6663Z" fill="black"/>
<path fill-rule="evenodd" clip-rule="evenodd" d="M26.6661 22.6662C26.6661 23.0575 26.5818 23.4291 26.4304 23.7638L23.3329 20.6663V19.5329C23.3329 19.0543 22.9448 18.6663 22.4662 18.6663C22.1586 18.6663 21.8885 18.8265 21.7347 19.0681L9.3332 6.6666H23.9995C25.4722 6.6666 26.6661 7.86048 26.6661 9.3332V22.6662ZM21.5996 15.1997C21.5996 14.7211 21.9876 14.3331 22.4662 14.3331C22.9448 14.3331 23.3329 14.7211 23.3329 15.1997V16.7997C23.3329 17.2783 22.9448 17.6663 22.4662 17.6663C21.9876 17.6663 21.5996 17.2783 21.5996 16.7997V15.1997ZM22.4662 9.99985C21.9876 9.99985 21.5996 10.3879 21.5996 10.8665V12.4665C21.5996 12.9451 21.9876 13.3331 22.4662 13.3331C22.9448 13.3331 23.3329 12.9451 23.3329 12.4665V10.8665C23.3329 10.3879 22.9448 9.99985 22.4662 9.99985Z" fill="black"/>
</svg>
