<svg width="32" height="32" viewBox="0 0 32 32" fill="none" xmlns="http://www.w3.org/2000/svg">
<path d="M10.6667 5C9.19391 5 8 6.19391 8 7.66667V14C8 14.1841 8.14924 14.3333 8.33333 14.3333H23.6667C23.8508 14.3333 24 14.1841 24 14V7.66667C24 6.19391 22.8061 5 21.3333 5H20.7333C20.5492 5 20.4 5.14924 20.4 5.33333V9.46667C20.4 9.94531 20.012 10.3333 19.5333 10.3333C19.0547 10.3333 18.6667 9.94531 18.6667 9.46667V5.33333C18.6667 5.14924 18.5174 5 18.3333 5H18.0667C17.8826 5 17.7333 5.14924 17.7333 5.33333V8.13333C17.7333 8.61198 17.3453 9 16.8667 9C16.388 9 16 8.61198 16 8.13333V5.33333C16 5.14924 15.8508 5 15.6667 5H10.6667Z" fill="black"/>
<path d="M23.6667 16.0667C23.8508 16.0667 24 16.2159 24 16.4V18.3333C24 19.8061 22.8061 21 21.3333 21H19C18.8159 21 18.6667 21.1492 18.6667 21.3333V23.6667C18.6667 25.1394 17.4728 26.3333 16 26.3333C14.5272 26.3333 13.3333 25.1394 13.3333 23.6667V21.3333C13.3333 21.1492 13.1841 21 13 21H10.6667C9.19391 21 8 19.8061 8 18.3333V16.4C8 16.2159 8.14924 16.0667 8.33333 16.0667H23.6667Z" fill="black"/>
</svg>
