<svg width="24" height="24" viewBox="0 0 24 24" fill="none" xmlns="http://www.w3.org/2000/svg">
<path fill-rule="evenodd" clip-rule="evenodd" d="M7.2891 8.75702C7.77602 6.60042 9.70486 5 12 5C14.2951 5 16.224 6.60042 16.7109 8.75702C16.781 9.06732 16.9986 9.2127 17.1528 9.2127H17.2849C18.7754 9.2127 20 10.4192 20 11.9276C20 13.4359 18.7754 14.6424 17.2849 14.6424H17.2298L15.839 17.6225C15.6872 17.9478 15.3004 18.0885 14.9751 17.9367C14.6498 17.7848 14.5092 17.3981 14.661 17.0728L15.7952 14.6424H13.6989L11.8019 17.6911C11.6122 17.9958 11.2114 18.0892 10.9066 17.8995C10.6018 17.7099 10.5085 17.309 10.6981 17.0042L12.1678 14.6424H9.6989L7.80188 17.6911C7.61222 17.9958 7.21139 18.0892 6.90659 17.8995C6.6018 17.7099 6.50846 17.309 6.69812 17.0042L8.16777 14.6424H6.71511C5.22456 14.6424 4 13.4359 4 11.9276C4 10.4192 5.22456 9.2127 6.71511 9.2127H6.84723C7.0014 9.2127 7.21904 9.06732 7.2891 8.75702ZM12 6.217C10.2655 6.217 8.82313 7.4251 8.46119 9.02817C8.30365 9.72593 7.71463 10.4297 6.84723 10.4297H6.71511C5.87066 10.4297 5.20231 11.1093 5.20231 11.9276C5.20231 12.7458 5.87066 13.4254 6.71511 13.4254H17.2849C18.1293 13.4254 18.7977 12.7458 18.7977 11.9276C18.7977 11.1093 18.1293 10.4297 17.2849 10.4297H17.1528C16.2854 10.4297 15.6964 9.72593 15.5388 9.02817C15.1769 7.4251 13.7345 6.217 12 6.217Z" fill="black"/>
</svg>
