<svg width="32" height="32" viewBox="0 0 32 32" fill="none" xmlns="http://www.w3.org/2000/svg">
<path fill-rule="evenodd" clip-rule="evenodd" d="M12.9059 15.4667C12.5099 13.6742 10.9115 12.3333 9 12.3333C6.79086 12.3333 5 14.1242 5 16.3333C5 18.5425 6.79086 20.3333 9 20.3333C10.9115 20.3333 12.5099 18.9925 12.9059 17.2H14.4667C14.6508 17.2 14.8 17.3492 14.8 17.5333V21.6667C14.8 22.8817 15.785 23.8667 17 23.8667H18.4275C18.8234 25.6591 20.4218 27 22.3333 27C24.5425 27 26.3333 25.2091 26.3333 23C26.3333 20.7909 24.5425 19 22.3333 19C20.4218 19 18.8234 20.3409 18.4275 22.1333H17C16.7423 22.1333 16.5333 21.9244 16.5333 21.6667V11C16.5333 10.7423 16.7423 10.5333 17 10.5333H18.4275C18.8234 12.3258 20.4218 13.6667 22.3333 13.6667C24.5425 13.6667 26.3333 11.8758 26.3333 9.66667C26.3333 7.45753 24.5425 5.66667 22.3333 5.66667C20.4218 5.66667 18.8234 7.00752 18.4275 8.8H17C15.785 8.8 14.8 9.78497 14.8 11V15.1333C14.8 15.3174 14.6508 15.4667 14.4667 15.4667H12.9059Z" fill="black"/>
</svg>
