<svg width="20" height="20" viewBox="0 0 20 20" fill="none" xmlns="http://www.w3.org/2000/svg">
<path fill-rule="evenodd" clip-rule="evenodd" d="M5.49937 16.064C5.49937 16.4263 5.90341 16.6277 6.17616 16.4014L9.64218 13.5251C9.65695 13.5129 9.67531 13.5062 9.69422 13.5062H14.6637C15.584 13.5062 16.33 12.7324 16.33 11.7778V5.7284C16.33 4.77383 15.584 4 14.6637 4H4.66625C3.74601 4 3 4.77383 3 5.7284V11.7778C3 12.7324 3.74601 13.5062 4.66625 13.5062H5.41606C5.46207 13.5062 5.49937 13.5449 5.49937 13.5926V16.064ZM14.6637 5.08306H4.66625C4.38121 5.08306 4.08306 5.33426 4.08306 5.7284V11.7778C4.08306 12.1719 4.38121 12.4231 4.66625 12.4231H5.41606C6.09728 12.4231 6.58244 12.9845 6.58244 13.5926V14.6568L8.95054 12.6917C9.15659 12.5207 9.41869 12.4231 9.69422 12.4231H14.6637C14.9488 12.4231 15.2469 12.1719 15.2469 11.7778V5.7284C15.2469 5.33426 14.9488 5.08306 14.6637 5.08306Z" fill="black"/>
</svg>
