<svg width="20" height="20" viewBox="0 0 20 20" fill="none" xmlns="http://www.w3.org/2000/svg">
<path d="M12.0055 8.04142C12.1166 8.15154 12.1121 8.32581 11.9955 8.43068L8.93443 11.184C8.81985 11.2871 8.63913 11.285 8.52724 11.1793L7.21536 9.94032C7.10152 9.8328 7.10152 9.65847 7.21536 9.55094C7.32921 9.44342 7.5138 9.44342 7.62765 9.55094L8.68805 10.5524C8.71603 10.5789 8.76121 10.5794 8.78985 10.5536L11.5934 8.03193C11.71 7.92706 11.8945 7.93131 12.0055 8.04142Z" fill="black"/>
<path fill-rule="evenodd" clip-rule="evenodd" d="M9.0826 3.24193C9.40517 2.91936 9.92816 2.91936 10.2507 3.24193L11.7195 4.71069H13.7966C14.2528 4.71069 14.6226 5.0805 14.6226 5.53668V7.61383L16.0914 9.0826C16.414 9.40517 16.414 9.92816 16.0914 10.2507L14.6226 11.7195V13.7966C14.6226 14.2528 14.2528 14.6226 13.7966 14.6226H11.7195L10.2507 16.0914C9.92816 16.414 9.40517 16.414 9.0826 16.0914L7.61383 14.6226H5.53669C5.0805 14.6226 4.71069 14.2528 4.71069 13.7966V11.7195L3.24193 10.2507C2.91936 9.92816 2.91936 9.40517 3.24193 9.0826L4.71069 7.61383V5.53668C4.71069 5.0805 5.0805 4.71069 5.53669 4.71069H7.61384L9.0826 3.24193ZM8.17958 5.66352C8.10213 5.74097 7.99709 5.78448 7.88755 5.78448H6.19748C5.96939 5.78448 5.78449 5.96939 5.78449 6.19748V7.88755C5.78449 7.99708 5.74098 8.10213 5.66352 8.17958L4.46847 9.37463C4.30718 9.53592 4.30718 9.79741 4.46847 9.9587L5.78449 11.2747V13.1358C5.78449 13.3639 5.96939 13.5488 6.19749 13.5488H7.88754C7.99708 13.5488 8.10212 13.5924 8.17957 13.6698L9.37463 14.8649C9.53592 15.0261 9.79741 15.0261 9.9587 14.8649L11.1538 13.6698C11.2312 13.5924 11.3363 13.5488 11.4458 13.5488H13.1358C13.3639 13.5488 13.5488 13.3639 13.5488 13.1358V11.4458C13.5488 11.3363 13.5924 11.2312 13.6698 11.1538L14.8649 9.9587C15.0261 9.79741 15.0261 9.53592 14.8649 9.37463L13.6698 8.17958C13.5924 8.10213 13.5488 7.99708 13.5488 7.88755V6.19748C13.5488 5.96939 13.3639 5.78448 13.1358 5.78448H11.4458C11.3362 5.78448 11.2312 5.74097 11.1537 5.66352L9.9587 4.46847C9.79741 4.30718 9.53592 4.30718 9.37463 4.46847L8.17958 5.66352Z" fill="black"/>
</svg>
