<svg width="32" height="32" viewBox="0 0 32 32" fill="none" xmlns="http://www.w3.org/2000/svg">
<path d="M12.978 12.0721L11.4086 15.6617C11.1646 16.2199 10.6131 16.5806 10.0039 16.5806H5.86656C5.38797 16.5806 5 16.1927 5 15.7141C5 15.2355 5.38797 14.8475 5.86656 14.8475H9.87305L11.5906 10.919C12.1454 9.65013 13.9649 9.70881 14.4368 11.0108L17.66 19.9043L19.2674 15.8193C19.4981 15.233 20.064 14.8475 20.6941 14.8475H25.4668C25.9454 14.8475 26.3333 15.2355 26.3333 15.7141C26.3333 16.1927 25.9454 16.5806 25.4668 16.5806H20.8303L19.079 21.0314C18.5617 22.3461 16.6923 22.3207 16.2109 20.9924L12.978 12.0721Z" fill="black"/>
</svg>
