<svg width="24" height="24" viewBox="0 0 24 24" fill="none" xmlns="http://www.w3.org/2000/svg">
<path fill-rule="evenodd" clip-rule="evenodd" d="M5.17198 16.4553C4.84965 15.7011 4.9709 14.8027 5.53572 14.1571C4.78431 13.2984 4.81795 11.9919 5.63664 11.1732C6.4904 10.3195 7.87463 10.3195 8.7284 11.1732L9.59122 12.036L12.2516 9.37569L11.3888 8.51287C10.535 7.6591 10.535 6.27487 11.3888 5.42111C12.2074 4.60242 13.5139 4.56878 14.3727 5.32019C15.0182 4.75537 15.9167 4.63412 16.6708 4.95646L17.2848 4.3425C17.7414 3.88583 18.4818 3.88583 18.9385 4.3425L19.6575 5.06151C20.1142 5.51818 20.1142 6.25858 19.6575 6.71525L19.1121 7.26067C19.6055 8.06262 19.5333 9.11411 18.8955 9.84305C19.6469 10.7018 19.6133 12.0083 18.7946 12.827C17.9408 13.6807 16.5566 13.6807 15.7028 12.827L14.6243 11.7484L11.964 14.4088L13.0425 15.4873C13.8962 16.3411 13.8962 17.7253 13.0425 18.5791C12.2238 19.3978 10.9173 19.4314 10.0586 18.68C9.32964 19.3178 8.27815 19.39 7.47619 18.8966L6.71525 19.6575C6.25858 20.1142 5.51818 20.1142 5.06151 19.6575L4.3425 18.9385C3.88583 18.4818 3.88583 17.7414 4.3425 17.2848L5.17198 16.4553ZM6.49945 18.0039L5.99614 17.5005L5.38507 18.1116L5.88838 18.6149L6.49945 18.0039ZM11.0292 13.4741L13.6896 10.8137L13.1863 10.3104L10.5259 12.9708L11.0292 13.4741ZM18.2194 6.28393L18.6149 5.88838L18.1116 5.38507L17.7161 5.78062L18.2194 6.28393Z" fill="black"/>
</svg>
