<svg width="16" height="16" viewBox="0 0 16 16" fill="none" xmlns="http://www.w3.org/2000/svg">
<path fill-rule="evenodd" clip-rule="evenodd" d="M3 4.66667C3 4.29848 3.29848 4 3.66667 4H13C13.3682 4 13.6667 4.29848 13.6667 4.66667V10C13.6667 10.3682 13.3682 10.6667 13 10.6667H3.66667C3.29848 10.6667 3 10.3682 3 10V4.66667ZM4.11667 9.8C3.9786 9.8 3.86667 9.68807 3.86667 9.55V5.11667C3.86667 4.9786 3.9786 4.86667 4.11667 4.86667H12.55C12.6881 4.86667 12.8 4.9786 12.8 5.11667V9.55C12.8 9.68807 12.6881 9.8 12.55 9.8H4.11667Z" fill="black"/>
<path d="M4.76667 11.3333C4.52734 11.3333 4.33333 11.5273 4.33333 11.7667C4.33333 12.006 4.52734 12.2 4.76667 12.2H11.9C12.1393 12.2 12.3333 12.006 12.3333 11.7667C12.3333 11.5273 12.1393 11.3333 11.9 11.3333H4.76667Z" fill="black"/>
</svg>
