<svg width="48" height="48" viewBox="0 0 48 48" fill="none" xmlns="http://www.w3.org/2000/svg">
<path d="M8.01524 16.6213C7.936 16.3057 8.17573 16 8.50245 16H10.429C11.2936 16 12.0613 16.5509 12.3347 17.3675L13.6252 21.2223C13.7767 21.6745 14.2276 21.9574 14.7027 21.8983L21.3272 21.0739C21.6369 21.0353 21.8367 20.7277 21.7449 20.4307L18.3032 9.29409C18.1044 8.65103 18.5874 8 19.2631 8H22.446C23.3278 8 24.1066 8.57265 24.3659 9.41183L27.8283 20.6153C27.8977 20.8399 28.1148 20.9861 28.35 20.9666L35.9963 20.3322C38.1515 20.1534 40 21.8467 40 24C40 26.1533 38.1515 27.8466 35.9963 27.6678L28.35 27.0334C28.1148 27.0139 27.8977 27.1601 27.8283 27.3847L24.3659 38.5882C24.1066 39.4274 23.3278 40 22.446 40H19.2631C18.5874 40 18.1044 39.349 18.3032 38.7059L21.7449 27.5693C21.8367 27.2723 21.6369 26.9647 21.3272 26.9261L14.7027 26.1017C14.2276 26.0426 13.7767 26.3255 13.6252 26.7777L12.3347 30.6325C12.0613 31.4491 11.2936 32 10.429 32H8.50245C8.17573 32 7.936 31.6943 8.01524 31.3787L9.74624 24.4851C9.82621 24.1666 9.82621 23.8334 9.74624 23.5149L8.01524 16.6213Z" fill="black"/>
</svg>
