<svg width="28" height="28" viewBox="0 0 28 28" fill="none" xmlns="http://www.w3.org/2000/svg">
<path d="M8.5 8.03333C8.08118 8.03333 7.74167 8.37285 7.74167 8.79167C7.74167 9.21048 8.08118 9.55 8.5 9.55H20.1667C20.5855 9.55 20.925 9.21048 20.925 8.79167C20.925 8.37285 20.5855 8.03333 20.1667 8.03333H8.5Z" fill="black"/>
<path d="M13.575 13.1667C13.575 12.7479 13.9145 12.4083 14.3333 12.4083H20.1667C20.5855 12.4083 20.925 12.7479 20.925 13.1667C20.925 13.5855 20.5855 13.925 20.1667 13.925H14.3333C13.9145 13.925 13.575 13.5855 13.575 13.1667Z" fill="black"/>
<path d="M14.3333 17.6583C13.9145 17.6583 13.575 17.9979 13.575 18.4167C13.575 18.8355 13.9145 19.175 14.3333 19.175H20.1667C20.5855 19.175 20.925 18.8355 20.925 18.4167C20.925 17.9979 20.5855 17.6583 20.1667 17.6583H14.3333Z" fill="black"/>
<path fill-rule="evenodd" clip-rule="evenodd" d="M10.25 15.5C11.5387 15.5 12.5833 14.4553 12.5833 13.1667C12.5833 11.878 11.5387 10.8333 10.25 10.8333C8.96134 10.8333 7.91667 11.878 7.91667 13.1667C7.91667 14.4553 8.96134 15.5 10.25 15.5ZM10.25 13.9833C10.701 13.9833 11.0667 13.6177 11.0667 13.1667C11.0667 12.7156 10.701 12.35 10.25 12.35C9.79897 12.35 9.43333 12.7156 9.43333 13.1667C9.43333 13.6177 9.79897 13.9833 10.25 13.9833Z" fill="black"/>
<path fill-rule="evenodd" clip-rule="evenodd" d="M12.5833 18.4167C12.5833 19.7053 11.5387 20.75 10.25 20.75C8.96134 20.75 7.91667 19.7053 7.91667 18.4167C7.91667 17.128 8.96134 16.0833 10.25 16.0833C11.5387 16.0833 12.5833 17.128 12.5833 18.4167ZM11.0667 18.4167C11.0667 18.8677 10.701 19.2333 10.25 19.2333C9.79897 19.2333 9.43333 18.8677 9.43333 18.4167C9.43333 17.9656 9.79897 17.6 10.25 17.6C10.701 17.6 11.0667 17.9656 11.0667 18.4167Z" fill="black"/>
<path fill-rule="evenodd" clip-rule="evenodd" d="M5 7.33333C5 6.04467 6.04467 5 7.33333 5H21.3333C22.622 5 23.6667 6.04467 23.6667 7.33333V21.3333C23.6667 22.622 22.622 23.6667 21.3333 23.6667H7.33333C6.04467 23.6667 5 22.622 5 21.3333V7.33333ZM7.33333 6.51667H21.3333C21.7844 6.51667 22.15 6.8823 22.15 7.33333V21.3333C22.15 21.7844 21.7844 22.15 21.3333 22.15H7.33333C6.8823 22.15 6.51667 21.7844 6.51667 21.3333V7.33333C6.51667 6.8823 6.8823 6.51667 7.33333 6.51667Z" fill="black"/>
</svg>
