<svg width="32" height="32" viewBox="0 0 32 32" fill="none" xmlns="http://www.w3.org/2000/svg">
<path fill-rule="evenodd" clip-rule="evenodd" d="M7.66667 5C6.19391 5 5 6.19391 5 7.66667V23.6667C5 25.1394 6.19391 26.3333 7.66667 26.3333H23.6667C25.1394 26.3333 26.3333 25.1394 26.3333 23.6667V7.66667C26.3333 6.19391 25.1394 5 23.6667 5H7.66667ZM9 8.46667C8.52135 8.46667 8.13333 8.85469 8.13333 9.33333C8.13333 9.81198 8.52135 10.2 9 10.2H22.3333C22.812 10.2 23.2 9.81198 23.2 9.33333C23.2 8.85469 22.812 8.46667 22.3333 8.46667H9ZM15.6667 13.4667C15.188 13.4667 14.8 13.8547 14.8 14.3333C14.8 14.812 15.188 15.2 15.6667 15.2H22.3333C22.812 15.2 23.2 14.812 23.2 14.3333C23.2 13.8547 22.812 13.4667 22.3333 13.4667H15.6667ZM15.6667 19.4667C15.188 19.4667 14.8 19.8547 14.8 20.3333C14.8 20.812 15.188 21.2 15.6667 21.2H22.3333C22.812 21.2 23.2 20.812 23.2 20.3333C23.2 19.8547 22.812 19.4667 22.3333 19.4667H15.6667ZM11 23C12.4728 23 13.6667 21.8061 13.6667 20.3333C13.6667 18.8606 12.4728 17.6667 11 17.6667C9.52724 17.6667 8.33333 18.8606 8.33333 20.3333C8.33333 21.8061 9.52724 23 11 23ZM11.9333 20.3333C11.9333 20.8488 11.5155 21.2667 11 21.2667C10.4845 21.2667 10.0667 20.8488 10.0667 20.3333C10.0667 19.8179 10.4845 19.4 11 19.4C11.5155 19.4 11.9333 19.8179 11.9333 20.3333ZM11 17C12.4728 17 13.6667 15.8061 13.6667 14.3333C13.6667 12.8606 12.4728 11.6667 11 11.6667C9.52724 11.6667 8.33333 12.8606 8.33333 14.3333C8.33333 15.8061 9.52724 17 11 17ZM11.9333 14.3333C11.9333 14.8488 11.5155 15.2667 11 15.2667C10.4845 15.2667 10.0667 14.8488 10.0667 14.3333C10.0667 13.8179 10.4845 13.4 11 13.4C11.5155 13.4 11.9333 13.8179 11.9333 14.3333Z" fill="black"/>
</svg>
