<svg width="20" height="20" viewBox="0 0 20 20" fill="none" xmlns="http://www.w3.org/2000/svg">
<path d="M5.5 5.16667C5.20085 5.16667 4.95833 5.40918 4.95833 5.70833C4.95833 6.00749 5.20085 6.25 5.5 6.25H13.8333C14.1325 6.25 14.375 6.00749 14.375 5.70833C14.375 5.40918 14.1325 5.16667 13.8333 5.16667H5.5Z" fill="black"/>
<path d="M9.125 8.83333C9.125 8.53418 9.36751 8.29167 9.66667 8.29167H13.8333C14.1325 8.29167 14.375 8.53418 14.375 8.83333C14.375 9.13249 14.1325 9.375 13.8333 9.375H9.66667C9.36751 9.375 9.125 9.13249 9.125 8.83333Z" fill="black"/>
<path d="M9.66667 12.0417C9.36751 12.0417 9.125 12.2842 9.125 12.5833C9.125 12.8825 9.36751 13.125 9.66667 13.125H13.8333C14.1325 13.125 14.375 12.8825 14.375 12.5833C14.375 12.2842 14.1325 12.0417 13.8333 12.0417H9.66667Z" fill="black"/>
<path fill-rule="evenodd" clip-rule="evenodd" d="M6.75 10.5C7.67047 10.5 8.41667 9.75381 8.41667 8.83333C8.41667 7.91286 7.67047 7.16667 6.75 7.16667C5.82953 7.16667 5.08333 7.91286 5.08333 8.83333C5.08333 9.75381 5.82953 10.5 6.75 10.5ZM6.75 9.41667C7.07217 9.41667 7.33333 9.1555 7.33333 8.83333C7.33333 8.51117 7.07217 8.25 6.75 8.25C6.42783 8.25 6.16667 8.51117 6.16667 8.83333C6.16667 9.1555 6.42783 9.41667 6.75 9.41667Z" fill="black"/>
<path fill-rule="evenodd" clip-rule="evenodd" d="M8.41667 12.5833C8.41667 13.5038 7.67047 14.25 6.75 14.25C5.82953 14.25 5.08333 13.5038 5.08333 12.5833C5.08333 11.6629 5.82953 10.9167 6.75 10.9167C7.67047 10.9167 8.41667 11.6629 8.41667 12.5833ZM7.33333 12.5833C7.33333 12.9055 7.07217 13.1667 6.75 13.1667C6.42783 13.1667 6.16667 12.9055 6.16667 12.5833C6.16667 12.2612 6.42783 12 6.75 12C7.07217 12 7.33333 12.2612 7.33333 12.5833Z" fill="black"/>
<path fill-rule="evenodd" clip-rule="evenodd" d="M3 4.66667C3 3.74619 3.74619 3 4.66667 3H14.6667C15.5871 3 16.3333 3.74619 16.3333 4.66667V14.6667C16.3333 15.5871 15.5871 16.3333 14.6667 16.3333H4.66667C3.74619 16.3333 3 15.5871 3 14.6667V4.66667ZM4.66667 4.08333H14.6667C14.9888 4.08333 15.25 4.3445 15.25 4.66667V14.6667C15.25 14.9888 14.9888 15.25 14.6667 15.25H4.66667C4.3445 15.25 4.08333 14.9888 4.08333 14.6667V4.66667C4.08333 4.3445 4.3445 4.08333 4.66667 4.08333Z" fill="black"/>
</svg>
