<svg width="24" height="24" viewBox="0 0 24 24" fill="none" xmlns="http://www.w3.org/2000/svg">
<path fill-rule="evenodd" clip-rule="evenodd" d="M12 3C10.3431 3 9 4.34315 9 6V11C9 12.6569 10.3431 14 12 14C13.6569 14 15 12.6569 15 11V6C15 4.34315 13.6569 3 12 3ZM13.7 6C13.7 5.06112 12.9389 4.3 12 4.3C11.0611 4.3 10.3 5.06112 10.3 6V11C10.3 11.9389 11.0611 12.7 12 12.7C12.9389 12.7 13.7 11.9389 13.7 11V6Z" fill="black"/>
<path d="M11.4 16.9698C10.732 16.9022 10.0786 16.7223 9.46751 16.4362L9.46265 16.4339C8.67836 16.0659 7.98253 15.5315 7.4229 14.8676L7.41845 14.8623C6.85994 14.1981 6.45082 13.4203 6.21917 12.5822L6.21821 12.5787C6.07782 12.0697 6.00492 11.5457 6.00024 11.0203C5.99954 10.9412 6.00038 10.862 6.00278 10.7828C6.00441 10.7289 6.00676 10.6751 6.00982 10.6212C6.02945 10.2767 6.35386 10.0451 6.69443 10.1007C6.99109 10.1491 7.20131 10.3996 7.2429 10.6915C7.24893 10.7338 7.25141 10.7771 7.25009 10.8207C7.24871 10.8664 7.24797 10.9121 7.24789 10.9578C7.24712 11.392 7.3052 11.8255 7.42147 12.2461L7.42243 12.2496C7.60656 12.9138 7.93147 13.5301 8.37485 14.0562L8.3793 14.0615C8.82269 14.586 9.37355 15.008 9.99422 15.2986L9.99908 15.3009C10.6205 15.5909 11.2969 15.7425 11.9821 15.7451C12.6672 15.7477 13.3448 15.6013 13.9684 15.3159L13.9732 15.3137C14.5961 15.0278 15.1501 14.61 15.5974 14.0888L15.6019 14.0836C16.0492 13.5609 16.3787 12.9472 16.5678 12.2844L16.5688 12.2808C16.6882 11.8611 16.7495 11.4281 16.752 10.9939C16.7523 10.9482 16.7519 10.9025 16.7509 10.8567C16.7499 10.8131 16.7527 10.7699 16.759 10.7276C16.8028 10.4361 17.0149 10.1871 17.312 10.1409C17.6529 10.088 17.9755 10.322 17.9926 10.6666C17.9953 10.7205 17.9972 10.7744 17.9984 10.8283C18.0002 10.9075 18.0005 10.9867 17.9992 11.0658C17.9906 11.5911 17.9138 12.1145 17.7696 12.6225L17.7685 12.626C17.5306 13.4623 17.1157 14.237 16.5522 14.8969L16.5477 14.9022C15.9831 15.5619 15.2833 16.0909 14.4962 16.453L14.4914 16.4553C13.9226 16.7163 13.3181 16.8858 12.7 16.9588V19.35C12.7 19.709 12.409 20 12.05 20C11.691 20 11.4 19.709 11.4 19.35V16.9698Z" fill="black"/>
</svg>
