<svg width="32" height="32" viewBox="0 0 32 32" fill="none" xmlns="http://www.w3.org/2000/svg">
<path fill-rule="evenodd" clip-rule="evenodd" d="M11.6667 19.6667H7.66667C6.19391 19.6667 5 18.4728 5 17V7.66667C5 6.19391 6.19391 5 7.66667 5H17C18.4728 5 19.6667 6.19391 19.6667 7.66667V11.6667H23.6667C25.1394 11.6667 26.3333 12.8606 26.3333 14.3333V23.6667C26.3333 25.1394 25.1394 26.3333 23.6667 26.3333H14.3333C12.8606 26.3333 11.6667 25.1394 11.6667 23.6667V19.6667ZM7.66667 6.73333H17C17.5155 6.73333 17.9333 7.1512 17.9333 7.66667V11.6667H14.3333C12.8606 11.6667 11.6667 12.8606 11.6667 14.3333V17.9333H7.66667C7.1512 17.9333 6.73333 17.5155 6.73333 17V7.66667C6.73333 7.1512 7.1512 6.73333 7.66667 6.73333ZM19.6667 13.4H23.6667C24.1821 13.4 24.6 13.8179 24.6 14.3333V23.6667C24.6 24.1821 24.1821 24.6 23.6667 24.6H14.3333C13.8179 24.6 13.4 24.1821 13.4 23.6667V19.6667H17C18.4728 19.6667 19.6667 18.4728 19.6667 17V13.4Z" fill="black"/>
</svg>
