<svg width="20" height="20" viewBox="0 0 20 20" fill="none" xmlns="http://www.w3.org/2000/svg">
<path fill-rule="evenodd" clip-rule="evenodd" d="M14.8157 7.9466L12.7189 6.52332C12.6354 6.46666 12.5631 6.39552 12.5053 6.31334L11.0079 4.18451L10.0545 3.24255C9.7272 2.91915 9.1965 2.91915 8.86917 3.24255L6.57583 5.50836C6.2485 5.83176 6.2485 6.35609 6.57583 6.67949L7.52923 7.62145L8.77597 8.47743L3.3629 13.8255C2.87903 14.3036 2.87903 15.0787 3.3629 15.5567C3.84677 16.0348 4.63128 16.0348 5.11514 15.5567L10.5234 10.2134L11.337 11.3835L12.3479 12.3823C12.6752 12.7056 13.2059 12.7056 13.5332 12.3823L15.8266 10.1164C16.1539 9.79304 16.1539 9.26871 15.8266 8.94531L14.8157 7.9466ZM10.0406 9.51924L9.89646 9.31192C9.83911 9.22944 9.7671 9.15792 9.68393 9.10081L9.47532 8.95759L3.95558 14.4111C3.79904 14.5658 3.79904 14.8165 3.95558 14.9712C4.11212 15.1258 4.36592 15.1258 4.52247 14.9712L10.0406 9.51924ZM12.2443 7.20587L13.8616 8.30369L11.6984 10.4409L10.5873 8.84298C10.4726 8.67803 10.3286 8.53498 10.1622 8.42078L8.48111 7.26656L10.6487 5.12497L11.817 6.78591C11.9326 6.95026 12.0773 7.09254 12.2443 7.20587ZM14.5194 8.82494L12.226 11.0908L12.9405 11.7967L15.2339 9.53087L14.5194 8.82494ZM7.16851 6.09393L7.82557 6.74311L10.1189 4.47729L9.46185 3.82811L7.16851 6.09393Z" fill="black"/>
<path d="M11.6888 15.2496C11.3897 15.2496 11.1472 15.4921 11.1472 15.7911C11.1472 16.0902 11.3897 16.3327 11.6888 16.3327H15.7884C16.0875 16.3327 16.33 16.0902 16.33 15.7911C16.33 15.4921 16.0875 15.2496 15.7884 15.2496H15.4389C15.4842 15.1704 15.5101 15.0788 15.5101 14.981C15.5101 14.6819 15.2676 14.4395 14.9685 14.4395H12.5087C12.2096 14.4395 11.9672 14.6819 11.9672 14.981C11.9672 15.0788 11.9931 15.1704 12.0384 15.2496H11.6888Z" fill="black"/>
</svg>
