<svg width="16" height="16" viewBox="0 0 16 16" fill="none" xmlns="http://www.w3.org/2000/svg">
<path d="M2.73973 2.12692C2.5705 1.95769 2.29614 1.95769 2.12692 2.12692C1.95769 2.29614 1.95769 2.5705 2.12692 2.73973L13.2603 13.8731C13.4295 14.0423 13.7039 14.0423 13.8731 13.8731C14.0423 13.7039 14.0423 13.4295 13.8731 13.2603L2.73973 2.12692Z" fill="black"/>
<path d="M2.66665 11.9997V3.99995L3.53277 4.86607V11.9997C3.53277 12.2575 3.74158 12.4664 3.99915 12.4664H11.1331L11.9997 13.333L11.9941 13.333H3.99915C3.26323 13.333 2.66665 12.7361 2.66665 11.9997Z" fill="black"/>
<path d="M3.99995 2.66665L4.86659 3.53329H8.22983C8.469 3.53329 8.66289 3.33929 8.66289 3.09997C8.66289 2.86065 8.469 2.66665 8.22983 2.66665H3.99995Z" fill="black"/>
<path d="M8.36159 7.02829L8.97421 7.64091L12.4669 4.14611V5.7999C12.4669 6.03922 12.6608 6.23323 12.9 6.23323C13.1392 6.23323 13.333 6.03922 13.333 5.7999V3.09997C13.333 2.86065 13.1392 2.66665 12.9 2.66665H10.2017C9.9625 2.66665 9.76862 2.86065 9.76862 3.09997C9.76862 3.33929 9.9625 3.53329 10.2017 3.53329H11.8545L8.36159 7.02829Z" fill="black"/>
<path d="M13.3266 7.76652V11.9933L12.4605 11.1272V7.76652C12.4605 7.5272 12.6544 7.3332 12.8936 7.3332C13.1327 7.3332 13.3266 7.5272 13.3266 7.76652Z" fill="black"/>
</svg>
