<svg width="48" height="48" viewBox="0 0 48 48" fill="none" xmlns="http://www.w3.org/2000/svg">
<path d="M24 8C24.7048 8 25.2761 8.57132 25.2761 9.27607V14.184C25.2761 14.8888 24.7048 15.4601 24 15.4601C23.2952 15.4601 22.7239 14.8888 22.7239 14.184V9.27607C22.7239 8.57132 23.2952 8 24 8Z" fill="black"/>
<path d="M17.8627 18.0312C17.3643 18.5295 16.5564 18.5295 16.058 18.0312L12.5876 14.5607C12.0892 14.0624 12.0892 13.2544 12.5876 12.7561C13.0859 12.2577 13.8939 12.2577 14.3922 12.7561L17.8627 16.2265C18.361 16.7249 18.361 17.5328 17.8627 18.0312Z" fill="black"/>
<path d="M31.8528 24C31.8528 28.337 28.337 31.8528 24 31.8528C19.663 31.8528 16.1472 28.337 16.1472 24C16.1472 19.663 19.663 16.1472 24 16.1472C28.337 16.1472 31.8528 19.663 31.8528 24Z" fill="black"/>
<path d="M24 32.5399C24.7048 32.5399 25.2761 33.1112 25.2761 33.816V38.7239C25.2761 39.4287 24.7048 40 24 40C23.2952 40 22.7239 39.4287 22.7239 38.7239V33.816C22.7239 33.1112 23.2952 32.5399 24 32.5399Z" fill="black"/>
<path d="M17.8627 31.7735C18.361 31.2752 18.361 30.4672 17.8627 29.9688C17.3643 29.4705 16.5564 29.4705 16.058 29.9688L12.5876 33.4393C12.0892 33.9376 12.0892 34.7456 12.5876 35.2439C13.0859 35.7423 13.8939 35.7423 14.3922 35.2439L17.8627 31.7735Z" fill="black"/>
<path d="M29.9688 16.2265C29.4705 16.7249 29.4705 17.5328 29.9688 18.0312C30.4672 18.5295 31.2752 18.5295 31.7735 18.0312L35.2439 14.5607C35.7423 14.0624 35.7423 13.2544 35.2439 12.7561C34.7456 12.2577 33.9376 12.2577 33.4393 12.7561L29.9688 16.2265Z" fill="black"/>
<path d="M29.9688 29.9688C30.4672 29.4705 31.2751 29.4705 31.7735 29.9688L35.2439 33.4393C35.7423 33.9376 35.7423 34.7456 35.2439 35.2439C34.7456 35.7423 33.9376 35.7423 33.4393 35.2439L29.9688 31.7735C29.4705 31.2752 29.4705 30.4672 29.9688 29.9688Z" fill="black"/>
<path d="M33.816 22.7239C33.1112 22.7239 32.5399 23.2952 32.5399 24C32.5399 24.7048 33.1112 25.2761 33.816 25.2761H38.7239C39.4287 25.2761 40 24.7048 40 24C40 23.2952 39.4287 22.7239 38.7239 22.7239H33.816Z" fill="black"/>
<path d="M9.27607 22.7239C8.57132 22.7239 8 23.2952 8 24C8 24.7048 8.57132 25.2761 9.27607 25.2761H14.184C14.8888 25.2761 15.4601 24.7048 15.4601 24C15.4601 23.2952 14.8888 22.7239 14.184 22.7239H9.27607Z" fill="black"/>
</svg>
