<svg width="28" height="28" viewBox="0 0 28 28" fill="none" xmlns="http://www.w3.org/2000/svg">
<path fill-rule="evenodd" clip-rule="evenodd" d="M20.1667 12C22.0997 12 23.6667 10.433 23.6667 8.5C23.6667 6.567 22.0997 5 20.1667 5C18.2337 5 16.6667 6.567 16.6667 8.5C16.6667 8.79321 16.7027 9.078 16.7706 9.35017L11.2171 12.1269C10.5754 11.3376 9.59657 10.8333 8.5 10.8333C6.567 10.8333 5 12.4003 5 14.3333C5 16.2663 6.567 17.8333 8.5 17.8333C9.59657 17.8333 10.5754 17.329 11.2171 16.5397L16.7706 19.3165C16.7027 19.5887 16.6667 19.8735 16.6667 20.1667C16.6667 22.0997 18.2337 23.6667 20.1667 23.6667C22.0997 23.6667 23.6667 22.0997 23.6667 20.1667C23.6667 18.2337 22.0997 16.6667 20.1667 16.6667C19.0701 16.6667 18.0913 17.171 17.4496 17.9603L11.896 15.1835C11.9639 14.9113 12 14.6265 12 14.3333C12 14.0401 11.9639 13.7553 11.896 13.4832L17.4496 10.7064C18.0913 11.4957 19.0701 12 20.1667 12Z" fill="black"/>
</svg>
