<svg width="32" height="32" viewBox="0 0 32 32" fill="none" xmlns="http://www.w3.org/2000/svg">
<g id="Shape">
<path d="M12.012 19.6127C12.4884 19.6127 12.8741 19.9969 12.8741 20.4713C12.8741 20.9458 12.4884 21.33 12.012 21.33H9.31666C8.8403 21.33 8.45461 20.9458 8.45461 20.4713C8.45461 19.9969 8.8403 19.6127 9.31666 19.6127H12.012Z" fill="black"/>
<path d="M16.0551 16.2567C16.5314 16.2567 16.9171 16.6409 16.9171 17.1154C16.9171 17.5899 16.5314 17.974 16.0551 17.974H5.2736C4.79725 17.974 4.41156 17.5899 4.41156 17.1154C4.41156 16.6409 4.79725 16.2567 5.2736 16.2567H16.0551Z" fill="black"/>
<path fill-rule="evenodd" clip-rule="evenodd" d="M10.6643 5.46785C13.5868 5.46785 15.9564 7.82814 15.9564 10.7391C15.9564 11.381 15.8409 11.9962 15.63 12.5652H20.468C20.944 12.5655 21.33 12.9496 21.33 13.4238C21.33 13.8981 20.944 14.2821 20.468 14.2825H0.862044C0.385968 14.2822 0 13.8981 0 13.4238C0 12.9496 0.385968 12.5655 0.862044 12.5652H5.6987C5.48775 11.9962 5.37231 11.381 5.37231 10.7391C5.37231 7.82814 7.74192 5.46785 10.6643 5.46785Z" fill="black"/>
<path d="M2.97438 3.19209C3.3102 2.85778 3.85471 2.85767 4.19046 3.19209L6.52916 5.5216C6.86469 5.85604 6.86472 6.39847 6.52916 6.73289C6.19343 7.0673 5.64891 7.06715 5.31309 6.73289L2.97438 4.40338C2.63858 4.0689 2.63858 3.52657 2.97438 3.19209Z" fill="black"/>
<path d="M17.025 3.19209C17.3609 2.85773 17.9054 2.85765 18.2411 3.19209C18.5769 3.52654 18.5768 4.0689 18.2411 4.40338L15.9024 6.73289C15.5666 7.06732 15.0221 7.06735 14.6863 6.73289C14.3506 6.39843 14.3506 5.85608 14.6863 5.5216L17.025 3.19209Z" fill="black"/>
<path d="M10.6643 0C11.1391 1.72912e-06 11.5235 0.383217 11.5238 0.856032V4.15038C11.5238 4.6234 11.1392 5.00772 10.6643 5.00772C10.1894 5.00772 9.80493 4.6234 9.80493 4.15038V0.856032C9.80518 0.383216 10.1896 0 10.6643 0Z" fill="black"/>
</g>
</svg>
