<svg width="16" height="16" viewBox="0 0 16 16" fill="none" xmlns="http://www.w3.org/2000/svg">
<path fill-rule="evenodd" clip-rule="evenodd" d="M7.70215 5.93066C7.70215 4.30379 9.04575 3 10.6844 3C11.0287 3 11.3603 3.0575 11.6692 3.16368L12.3328 3.39175L10.5878 5.10143C10.35 5.33446 10.35 5.70852 10.5878 5.94154C10.8306 6.1794 11.2278 6.1794 11.4706 5.94154L13.2072 4.24011L13.4514 4.83565C13.5903 5.17438 13.6667 5.54423 13.6667 5.93066C13.6667 7.55753 12.3231 8.86132 10.6844 8.86132C10.433 8.86132 10.1883 8.83066 9.95434 8.77276L5.36821 13.2661C4.82647 13.7968 3.95174 13.7968 3.41001 13.2661C2.86333 12.7305 2.86333 11.8583 3.41001 11.3227L7.8837 6.93957C7.76625 6.62477 7.70215 6.28479 7.70215 5.93066ZM10.609 3.86772C9.46763 3.90654 8.56859 4.82321 8.56859 5.93066C8.56859 6.25931 8.647 6.56909 8.78648 6.84425L8.93003 7.12741L4.01637 11.9416C3.81645 12.1375 3.81645 12.4513 4.01637 12.6472C4.22124 12.8479 4.55698 12.8479 4.76184 12.6472L9.72135 7.78805L9.9749 7.87608C10.196 7.95285 10.4347 7.99489 10.6844 7.99489C11.8613 7.99489 12.8002 7.06239 12.8002 5.93066C12.8002 5.90473 12.7997 5.87892 12.7988 5.85324L12.077 6.56043C11.4973 7.12835 10.5611 7.12835 9.98147 6.56043C9.39687 5.98767 9.39687 5.0553 9.98147 4.48254L10.609 3.86772Z" fill="black"/>
</svg>
