<svg width="24" height="24" viewBox="0 0 24 24" fill="none" xmlns="http://www.w3.org/2000/svg">
<path fill-rule="evenodd" clip-rule="evenodd" d="M6.2087 11.3455C5.93043 11.7333 5.93043 12.2667 6.2087 12.6545L11.1652 19.5636C11.5826 20.1455 12.4174 20.1455 12.8348 19.5636L17.7913 12.6545C18.0696 12.2667 18.0696 11.7333 17.7913 11.3455L12.8348 4.43636C12.4174 3.85455 11.5826 3.85455 11.1652 4.43636L6.2087 11.3455ZM7.54814 11.7085C7.42317 11.8828 7.42317 12.1172 7.54814 12.2915L11.5937 17.9308C11.7932 18.2088 12.2068 18.2088 12.4063 17.9308L16.4519 12.2915C16.5768 12.1172 16.5768 11.8828 16.4519 11.7085L12.4063 6.06924C12.2068 5.79118 11.7932 5.79118 11.5937 6.06924L7.54814 11.7085Z" fill="black"/>
</svg>
