<svg width="16" height="16" viewBox="0 0 16 16" fill="none" xmlns="http://www.w3.org/2000/svg">
<path d="M5 6C5 5.63181 5.29848 5.33333 5.66667 5.33333H7C7.36819 5.33333 7.66667 5.63181 7.66667 6V7.66667C7.66667 8.03486 7.36819 8.33333 7 8.33333H5.66667C5.29848 8.33333 5 8.03486 5 7.66667V6Z" fill="black"/>
<path d="M8.66667 5.56667C8.42734 5.56667 8.23333 5.76068 8.23333 6C8.23333 6.23932 8.42734 6.43333 8.66667 6.43333H11.3333C11.5727 6.43333 11.7667 6.23932 11.7667 6C11.7667 5.76068 11.5727 5.56667 11.3333 5.56667H8.66667Z" fill="black"/>
<path d="M8.23333 7.66667C8.23333 7.42734 8.42734 7.23333 8.66667 7.23333H11.3333C11.5727 7.23333 11.7667 7.42734 11.7667 7.66667C11.7667 7.90599 11.5727 8.1 11.3333 8.1H8.66667C8.42734 8.1 8.23333 7.90599 8.23333 7.66667Z" fill="black"/>
<path d="M5.33333 9.23333C5.09401 9.23333 4.9 9.42734 4.9 9.66667C4.9 9.90599 5.09401 10.1 5.33333 10.1H11.3333C11.5727 10.1 11.7667 9.90599 11.7667 9.66667C11.7667 9.42734 11.5727 9.23333 11.3333 9.23333H5.33333Z" fill="black"/>
<path fill-rule="evenodd" clip-rule="evenodd" d="M4.33333 3C3.59695 3 3 3.59695 3 4.33333V11C3 11.7364 3.59695 12.3333 4.33333 12.3333H12.3333C13.0697 12.3333 13.6667 11.7364 13.6667 11V4.33333C13.6667 3.59695 13.0697 3 12.3333 3H4.33333ZM12.3333 3.86667H4.33333C4.0756 3.86667 3.86667 4.0756 3.86667 4.33333V11C3.86667 11.2577 4.0756 11.4667 4.33333 11.4667H12.3333C12.5911 11.4667 12.8 11.2577 12.8 11V4.33333C12.8 4.0756 12.5911 3.86667 12.3333 3.86667Z" fill="black"/>
</svg>
