<svg width="28" height="28" viewBox="0 0 28 28" fill="none" xmlns="http://www.w3.org/2000/svg">
<path fill-rule="evenodd" clip-rule="evenodd" d="M23.6667 14.3333C23.6667 19.488 19.488 23.6667 14.3333 23.6667C9.17868 23.6667 5 19.488 5 14.3333C5 9.17868 9.17868 5 14.3333 5C19.488 5 23.6667 9.17868 23.6667 14.3333ZM13.575 22.1137V15.0917H11.5708C11.5032 16.8465 10.8899 18.6853 9.35992 20.364C10.5283 21.3286 11.9818 21.9603 13.575 22.1137ZM8.2876 19.2884C9.49649 17.9379 9.98802 16.4899 10.0533 15.0917H6.55298C6.70556 16.6766 7.33145 18.1232 8.2876 19.2884ZM13.575 13.575H11.4987C11.4933 13.534 11.4877 13.493 11.4818 13.4522C11.1797 11.3566 10.2133 9.51002 9.32855 8.32872C10.5022 7.3494 11.9675 6.70774 13.575 6.55298V13.575ZM9.96663 13.575C9.70843 11.9192 8.96037 10.4264 8.25027 9.42408C7.31517 10.5813 6.70357 12.0108 6.55298 13.575H9.96663ZM19.3293 20.3453C18.1571 21.3205 16.6952 21.9593 15.0917 22.1137V15.0917H17.1536C17.159 15.1327 17.1646 15.1736 17.1705 15.2145C17.4733 17.3144 18.443 19.1643 19.3293 20.3453ZM20.4088 19.252C21.3482 18.0931 21.9627 16.6601 22.1137 15.0917H18.6857C18.9447 16.7527 19.6967 18.2496 20.4088 19.252ZM17.0816 13.575C17.1492 11.8178 17.7641 9.97644 19.2986 8.29595C18.1316 7.33509 16.6812 6.70601 15.0917 6.55298V13.575H17.0816ZM20.3722 9.3699C19.1579 10.7228 18.6645 12.1739 18.5991 13.575H22.1137C21.9607 11.9863 21.3322 10.5366 20.3722 9.3699Z" fill="black"/>
</svg>
