<svg width="28" height="28" viewBox="0 0 28 28" fill="none" xmlns="http://www.w3.org/2000/svg">
<path d="M9.07591 12.4177V13.2428H8.25084C8.14768 13.1375 8.08406 12.9934 8.08406 12.8344C8.08406 12.5122 8.34528 12.2509 8.6675 12.2509C8.82651 12.2509 8.97067 12.3146 9.07591 12.4177Z" fill="black"/>
<path d="M10.5928 13.2428H11.4179C11.5211 13.1375 11.5847 12.9934 11.5847 12.8344C11.5847 12.5122 11.3235 12.2509 11.0013 12.2509C10.8422 12.2509 10.6981 12.3146 10.5928 12.4177V13.2428Z" fill="black"/>
<path d="M11.6318 16.8713L10.5928 15.8324V21.0025H20.3363C21.6251 21.0025 22.67 19.9576 22.67 18.6687V14.7597H11.6655L12.7044 15.7987C13.0006 16.0949 13.0006 16.5751 12.7044 16.8713C12.4082 17.1675 11.928 17.1675 11.6318 16.8713Z" fill="black"/>
<path d="M6.96431 16.8713C6.66811 16.5751 6.66811 16.0949 6.96431 15.7987L8.00327 14.7597H4V18.6687C4 19.9576 5.04486 21.0025 6.33375 21.0025H9.07591V15.8324L8.03694 16.8713C7.74074 17.1675 7.26051 17.1675 6.96431 16.8713Z" fill="black"/>
<path d="M6.33375 7C5.04486 7 4 8.04486 4 9.33375V13.2428H6.96509C6.93377 13.1118 6.91719 12.975 6.91719 12.8344C6.91719 11.8677 7.70083 11.0841 8.6675 11.0841C8.80813 11.0841 8.94488 11.1006 9.07591 11.132V7H6.33375Z" fill="black"/>
<path d="M10.5928 7V11.132C10.7239 11.1006 10.8606 11.0841 11.0013 11.0841C11.9679 11.0841 12.7516 11.8677 12.7516 12.8344C12.7516 12.975 12.735 13.1118 12.7037 13.2428H22.67V9.33375C22.67 8.04486 21.6251 7 20.3363 7H10.5928Z" fill="black"/>
</svg>
