<svg width="24" height="24" viewBox="0 0 24 24" fill="none" xmlns="http://www.w3.org/2000/svg">
<path d="M8.35 10.6429V11.35H7.64293C7.55452 11.2598 7.5 11.1363 7.5 11C7.5 10.7239 7.72386 10.5 8 10.5C8.13627 10.5 8.25981 10.5545 8.35 10.6429Z" fill="black"/>
<path d="M9.65 11.35H10.3571C10.4455 11.2598 10.5 11.1363 10.5 11C10.5 10.7239 10.2761 10.5 10 10.5C9.86373 10.5 9.74019 10.5545 9.65 10.6429V11.35Z" fill="black"/>
<path d="M10.5404 14.4596L9.65 13.5692V18H18C19.1046 18 20 17.1046 20 16V12.65H10.5692L11.4596 13.5404C11.7135 13.7942 11.7135 14.2058 11.4596 14.4596C11.2058 14.7135 10.7942 14.7135 10.5404 14.4596Z" fill="black"/>
<path d="M6.54038 14.4596C6.28654 14.2058 6.28654 13.7942 6.54038 13.5404L7.43076 12.65H4V16C4 17.1046 4.89543 18 6 18H8.35V13.5692L7.45962 14.4596C7.20578 14.7135 6.79422 14.7135 6.54038 14.4596Z" fill="black"/>
<path d="M6 6C4.89543 6 4 6.89543 4 8V11.35H6.54105C6.51421 11.2377 6.5 11.1205 6.5 11C6.5 10.1716 7.17157 9.5 8 9.5C8.12051 9.5 8.23771 9.51421 8.35 9.54105V6H6Z" fill="black"/>
<path d="M9.65 6V9.54105C9.76229 9.51421 9.87949 9.5 10 9.5C10.8284 9.5 11.5 10.1716 11.5 11C11.5 11.1205 11.4858 11.2377 11.4589 11.35H20V8C20 6.89543 19.1046 6 18 6H9.65Z" fill="black"/>
</svg>
