<svg width="20" height="20" viewBox="0 0 20 20" fill="none" xmlns="http://www.w3.org/2000/svg">
<path d="M6.71635 8.93517C6.86339 8.78813 7.13974 8.6063 7.45162 8.55553C7.7299 8.51023 8.07515 8.56 8.45032 8.93517C8.66185 9.1467 9.00482 9.1467 9.21635 8.93517C9.42788 8.72363 9.42788 8.38067 9.21635 8.16914C8.59152 7.5443 7.8951 7.38574 7.27755 7.48627C6.69359 7.58134 6.21994 7.89951 5.95032 8.16914C5.73878 8.38067 5.73878 8.72363 5.95032 8.93517C6.16185 9.1467 6.50482 9.1467 6.71635 8.93517Z" fill="black"/>
<path d="M11.6183 8.55553C11.3064 8.6063 11.0301 8.78813 10.883 8.93517C10.6715 9.1467 10.3285 9.1467 10.117 8.93517C9.90545 8.72363 9.90545 8.38067 10.117 8.16914C10.3866 7.89951 10.8603 7.58134 11.4442 7.48627C12.0618 7.38574 12.7582 7.5443 13.383 8.16914C13.5946 8.38067 13.5946 8.72363 13.383 8.93517C13.1715 9.1467 12.8285 9.1467 12.617 8.93517C12.2418 8.56 11.8966 8.51023 11.6183 8.55553Z" fill="black"/>
<path fill-rule="evenodd" clip-rule="evenodd" d="M6.86065 9.95833C6.45124 9.95833 6.0725 10.1394 5.83005 10.4401C5.58073 10.7492 5.48388 11.1795 5.64972 11.6067C6.13266 12.8507 7.32325 14.375 9.66667 14.375C12.0101 14.375 13.2007 12.8507 13.6836 11.6067C13.8495 11.1795 13.7526 10.7492 13.5033 10.4401C13.2608 10.1394 12.8821 9.95833 12.4727 9.95833H6.86065ZM6.65963 11.2146C6.64921 11.1878 6.65026 11.172 6.65174 11.1634C6.65352 11.1531 6.65885 11.1381 6.6733 11.1202C6.70387 11.0822 6.76881 11.0417 6.86065 11.0417H12.4727C12.5645 11.0417 12.6295 11.0822 12.66 11.1202C12.6745 11.1381 12.6798 11.1531 12.6816 11.1634C12.6831 11.172 12.6841 11.1878 12.6737 11.2146C12.2936 12.1938 11.4198 13.2917 9.66667 13.2917C7.91353 13.2917 7.03973 12.1938 6.65963 11.2146Z" fill="black"/>
<path fill-rule="evenodd" clip-rule="evenodd" d="M16.3333 9.66667C16.3333 13.3486 13.3486 16.3333 9.66667 16.3333C5.98477 16.3333 3 13.3486 3 9.66667C3 5.98477 5.98477 3 9.66667 3C13.3486 3 16.3333 5.98477 16.3333 9.66667ZM15.25 9.66667C15.25 12.7503 12.7503 15.25 9.66667 15.25C6.58308 15.25 4.08333 12.7503 4.08333 9.66667C4.08333 6.58308 6.58308 4.08333 9.66667 4.08333C12.7503 4.08333 15.25 6.58308 15.25 9.66667Z" fill="black"/>
</svg>
