<svg width="24" height="24" viewBox="0 0 24 24" fill="none" xmlns="http://www.w3.org/2000/svg">
<path fill-rule="evenodd" clip-rule="evenodd" d="M11 10.0969C10.4477 10.0969 10 10.5446 10 11.0969V12.0679C10 12.6202 10.4477 13.0679 11 13.0679H13C13.5523 13.0679 14 12.6202 14 12.0679V11.0969C14 10.5446 13.5523 10.0969 13 10.0969H11ZM13 11.0969H11V12.0679L13 12.0679V11.0969Z" fill="black"/>
<path d="M9.85 15.0485C9.85 14.6896 10.141 14.3985 10.5 14.3985H13.5C13.859 14.3985 14.15 14.6896 14.15 15.0485C14.15 15.4075 13.859 15.6985 13.5 15.6985H10.5C10.141 15.6985 9.85 15.4075 9.85 15.0485Z" fill="black"/>
<path d="M11.5 16.3792C11.141 16.3792 10.85 16.6703 10.85 17.0292C10.85 17.3882 11.141 17.6792 11.5 17.6792H12.5C12.859 17.6792 13.15 17.3882 13.15 17.0292C13.15 16.6703 12.859 16.3792 12.5 16.3792H11.5Z" fill="black"/>
<path fill-rule="evenodd" clip-rule="evenodd" d="M14.65 4.65C14.65 4.29101 14.359 4 14 4C13.641 4 13.35 4.29101 13.35 4.65V8.11622H12.15V7.12587C12.15 6.76689 11.859 6.47587 11.5 6.47587C11.141 6.47587 10.85 6.76689 10.85 7.12587V8.11622H10.15V7.12587C10.15 6.76689 9.85899 6.47587 9.5 6.47587C9.14101 6.47587 8.85 6.76689 8.85 7.12587V8.1274C8.36887 8.19977 8 8.61492 8 9.11622V19.0003C8 19.5526 8.44772 20.0003 9 20.0003H15C15.5523 20.0003 16 19.5526 16 19.0003V9.11622C16 8.56394 15.5523 8.11622 15 8.11622H14.65V4.65ZM9.8 9.41622C9.52386 9.41622 9.3 9.64008 9.3 9.91622V18.2003C9.3 18.4764 9.52386 18.7003 9.8 18.7003H14.2C14.4761 18.7003 14.7 18.4764 14.7 18.2003V9.91622C14.7 9.64008 14.4761 9.41622 14.2 9.41622H9.8Z" fill="black"/>
</svg>
