<svg width="20" height="20" viewBox="0 0 20 20" fill="none" xmlns="http://www.w3.org/2000/svg">
<path d="M9.25 6.74906C9.25 6.519 9.43655 6.3325 9.66667 6.3325C9.89678 6.3325 10.0833 6.519 10.0833 6.74906V9.24844H12.5833C12.8135 9.24844 13 9.43494 13 9.665C13 9.89506 12.8135 10.0816 12.5833 10.0816H10.0833V12.5809C10.0833 12.811 9.89678 12.9975 9.66667 12.9975C9.43655 12.9975 9.25 12.811 9.25 12.5809V10.0816H6.75C6.51988 10.0816 6.33333 9.89506 6.33333 9.665C6.33333 9.43494 6.51988 9.24844 6.75 9.24844H9.25L9.25 6.74906Z" fill="black"/>
<path fill-rule="evenodd" clip-rule="evenodd" d="M16.3333 9.665C16.3333 13.346 13.3486 16.33 9.66667 16.33C5.98477 16.33 3 13.346 3 9.665C3 5.98402 5.98477 3 9.66667 3C13.3486 3 16.3333 5.98402 16.3333 9.665ZM15.25 9.665C15.25 12.7478 12.7503 15.2469 9.66667 15.2469C6.58308 15.2469 4.08333 12.7478 4.08333 9.665C4.08333 6.58218 6.58308 4.08306 9.66667 4.08306C12.7503 4.08306 15.25 6.58218 15.25 9.665Z" fill="black"/>
</svg>
