<svg width="28" height="28" viewBox="0 0 28 28" fill="none" xmlns="http://www.w3.org/2000/svg">
<path d="M6.16688 5C5.52243 5 5 5.52243 5 6.16688V9.95922C5 10.1203 5.13061 10.2509 5.29172 10.2509H7.04203C7.20314 10.2509 7.33375 10.1203 7.33375 9.95922V8.98396L10.0093 11.6595C10.465 12.1152 11.2038 12.1152 11.6595 11.6595C12.1152 11.2038 12.1152 10.465 11.6595 10.0093L8.98396 7.33375L9.95922 7.33375C10.1203 7.33375 10.2509 7.20314 10.2509 7.04203V5.29172C10.2509 5.13061 10.1203 5 9.95922 5L6.16688 5Z" fill="black"/>
<path d="M22.5031 23.67C23.1476 23.67 23.67 23.1476 23.67 22.5031V18.7108C23.67 18.5497 23.5394 18.4191 23.3783 18.4191H21.628C21.4669 18.4191 21.3363 18.5497 21.3363 18.7108V19.686L18.6607 17.0105C18.205 16.5548 17.4662 16.5548 17.0105 17.0105C16.5548 17.4662 16.5548 18.205 17.0105 18.6607L19.686 21.3363H18.7108C18.5497 21.3363 18.4191 21.4669 18.4191 21.628V23.3783C18.4191 23.5394 18.5497 23.67 18.7108 23.67H22.5031Z" fill="black"/>
<path d="M22.5031 5C23.1476 5 23.67 5.52243 23.67 6.16688V9.95922C23.67 10.1203 23.5394 10.2509 23.3783 10.2509H21.628C21.4669 10.2509 21.3363 10.1203 21.3363 9.95922V8.98396L18.6607 11.6595C18.205 12.1152 17.4662 12.1152 17.0105 11.6595C16.5548 11.2038 16.5548 10.465 17.0105 10.0093L19.686 7.33375L18.7108 7.33375C18.5497 7.33375 18.4191 7.20314 18.4191 7.04203V5.29172C18.4191 5.13061 18.5497 5 18.7108 5H22.5031Z" fill="black"/>
<path d="M5 22.5031C5 23.1476 5.52243 23.67 6.16688 23.67H9.95922C10.1203 23.67 10.2509 23.5394 10.2509 23.3783L10.2509 21.628C10.2509 21.4669 10.1203 21.3363 9.95922 21.3363H8.98396L11.6595 18.6607C12.1152 18.205 12.1152 17.4662 11.6595 17.0105C11.2038 16.5548 10.465 16.5548 10.0093 17.0105L7.33375 19.686V18.7108C7.33375 18.5497 7.20314 18.4191 7.04203 18.4191H5.29172C5.13061 18.4191 5 18.5497 5 18.7108L5 22.5031Z" fill="black"/>
</svg>
