<svg width="20" height="20" viewBox="0 0 20 20" fill="none" xmlns="http://www.w3.org/2000/svg">
<path d="M11.9987 5.78898C12.1181 5.49403 11.9729 5.15928 11.6743 5.04129C11.3758 4.92331 11.0369 5.06678 10.9175 5.36173L7.33468 14.211C7.21526 14.506 7.36047 14.8407 7.65902 14.9587C7.95757 15.0767 8.2964 14.9332 8.41582 14.6383L11.9987 5.78898Z" fill="black"/>
<path d="M6.49552 6.93848C6.72288 7.16311 6.72288 7.52731 6.49552 7.75194L4.37841 9.84356C4.29097 9.92996 4.29097 10.07 4.37841 10.1564L6.49552 12.2481C6.72288 12.4727 6.72288 12.8369 6.49552 13.0615C6.26815 13.2861 5.89951 13.2861 5.67215 13.0615L3.3017 10.7196C2.89943 10.3222 2.89943 9.67782 3.3017 9.2804L5.67215 6.93848C5.89951 6.71385 6.26815 6.71385 6.49552 6.93848Z" fill="black"/>
<path d="M12.8378 13.0615C12.6104 12.8369 12.6104 12.4727 12.8378 12.2481L14.9549 10.1564C15.0424 10.07 15.0424 9.92996 14.9549 9.84357L12.8378 7.75194C12.6104 7.52731 12.6104 7.16311 12.8378 6.93848C13.0652 6.71385 13.4338 6.71385 13.6612 6.93848L16.0316 9.2804C16.4339 9.67782 16.4339 10.3222 16.0316 10.7196L13.6612 13.0615C13.4338 13.2861 13.0652 13.2861 12.8378 13.0615Z" fill="black"/>
</svg>
