<svg width="20" height="20" viewBox="0 0 20 20" fill="none" xmlns="http://www.w3.org/2000/svg">
<path d="M9.66667 3C9.96031 3 10.1984 3.23805 10.1984 3.5317V5.57669C10.1984 5.87034 9.96031 6.10838 9.66667 6.10838C9.37302 6.10838 9.13497 5.87034 9.13497 5.57669V3.5317C9.13497 3.23805 9.37302 3 9.66667 3Z" fill="black"/>
<path d="M7.10945 7.17965C6.90181 7.38729 6.56516 7.38729 6.35752 7.17965L4.91149 5.73362C4.70385 5.52598 4.70385 5.18933 4.91149 4.98169C5.11913 4.77405 5.45578 4.77405 5.66343 4.98169L7.10945 6.42771C7.31709 6.63535 7.31709 6.97201 7.10945 7.17965Z" fill="black"/>
<path fill-rule="evenodd" clip-rule="evenodd" d="M9.66667 12.9387C11.4737 12.9387 12.9387 11.4737 12.9387 9.66667C12.9387 7.8596 11.4737 6.39468 9.66667 6.39468C7.8596 6.39468 6.39468 7.8596 6.39468 9.66667C6.39468 11.4737 7.8596 12.9387 9.66667 12.9387ZM9.66667 11.8753C10.8864 11.8753 11.8753 10.8864 11.8753 9.66667C11.8753 8.4469 10.8864 7.45808 9.66667 7.45808C8.4469 7.45808 7.45808 8.4469 7.45808 9.66667C7.45808 10.8864 8.4469 11.8753 9.66667 11.8753Z" fill="black"/>
<path d="M9.66667 13.2249C9.96031 13.2249 10.1984 13.463 10.1984 13.7566V15.8016C10.1984 16.0953 9.96031 16.3333 9.66667 16.3333C9.37302 16.3333 9.13497 16.0953 9.13497 15.8016V13.7566C9.13497 13.463 9.37302 13.2249 9.66667 13.2249Z" fill="black"/>
<path d="M7.10945 12.9056C7.31709 12.698 7.31709 12.3613 7.10945 12.1537C6.90181 11.946 6.56516 11.946 6.35752 12.1537L4.91149 13.5997C4.70385 13.8074 4.70385 14.144 4.91149 14.3516C5.11913 14.5593 5.45578 14.5593 5.66342 14.3516L7.10945 12.9056Z" fill="black"/>
<path d="M12.1537 6.42771C11.946 6.63535 11.946 6.97201 12.1537 7.17965C12.3613 7.38729 12.698 7.38729 12.9056 7.17965L14.3516 5.73362C14.5593 5.52598 14.5593 5.18933 14.3516 4.98169C14.144 4.77405 13.8074 4.77405 13.5997 4.98169L12.1537 6.42771Z" fill="black"/>
<path d="M12.1537 12.1537C12.3613 11.946 12.698 11.946 12.9056 12.1537L14.3516 13.5997C14.5593 13.8074 14.5593 14.144 14.3516 14.3516C14.144 14.5593 13.8074 14.5593 13.5997 14.3516L12.1537 12.9056C11.946 12.698 11.946 12.3613 12.1537 12.1537Z" fill="black"/>
<path d="M13.7566 9.13497C13.463 9.13497 13.2249 9.37302 13.2249 9.66667C13.2249 9.96031 13.463 10.1984 13.7566 10.1984H15.8016C16.0953 10.1984 16.3333 9.96031 16.3333 9.66667C16.3333 9.37302 16.0953 9.13497 15.8016 9.13497H13.7566Z" fill="black"/>
<path d="M3.5317 9.13497C3.23805 9.13497 3 9.37302 3 9.66667C3 9.96031 3.23805 10.1984 3.5317 10.1984H5.57669C5.87034 10.1984 6.10838 9.96031 6.10838 9.66667C6.10838 9.37302 5.87034 9.13497 5.57669 9.13497H3.5317Z" fill="black"/>
</svg>
