<svg width="32" height="32" viewBox="0 0 32 32" fill="none" xmlns="http://www.w3.org/2000/svg">
<path d="M15 10.9991C15 10.6309 15.2985 10.3325 15.6667 10.3325C16.0349 10.3325 16.3333 10.6309 16.3333 10.9991V14.9984H20.3333C20.7015 14.9984 21 15.2969 21 15.665C21 16.0331 20.7015 16.3316 20.3333 16.3316H16.3333V20.3309C16.3333 20.6991 16.0349 20.9975 15.6667 20.9975C15.2985 20.9975 15 20.6991 15 20.3309V16.3316H11C10.6318 16.3316 10.3333 16.0331 10.3333 15.665C10.3333 15.2969 10.6318 14.9984 11 14.9984H15L15 10.9991Z" fill="black"/>
<path fill-rule="evenodd" clip-rule="evenodd" d="M26.3333 15.665C26.3333 21.5551 21.5577 26.33 15.6667 26.33C9.77563 26.33 5 21.5551 5 15.665C5 9.77488 9.77563 5 15.6667 5C21.5577 5 26.3333 9.77488 26.3333 15.665ZM24.6 15.665C24.6 20.598 20.6004 24.5969 15.6667 24.5969C10.7329 24.5969 6.73333 20.598 6.73333 15.665C6.73333 10.732 10.7329 6.73306 15.6667 6.73306C20.6004 6.73306 24.6 10.732 24.6 15.665Z" fill="black"/>
</svg>
