<svg width="16" height="16" viewBox="0 0 16 16" fill="none" xmlns="http://www.w3.org/2000/svg">
<path fill-rule="evenodd" clip-rule="evenodd" d="M8.33333 13.6667C11.2789 13.6667 13.6667 11.2789 13.6667 8.33333C13.6667 5.38781 11.2789 3 8.33333 3C5.38781 3 3 5.38781 3 8.33333C3 11.2789 5.38781 13.6667 8.33333 13.6667ZM7.43333 6.33333C7.43333 6.09401 7.23932 5.9 7 5.9C6.76068 5.9 6.56667 6.09401 6.56667 6.33333V10.3333C6.56667 10.5727 6.76068 10.7667 7 10.7667C7.23932 10.7667 7.43333 10.5727 7.43333 10.3333V6.33333ZM10.1 6.33333C10.1 6.09401 9.90599 5.9 9.66667 5.9C9.42734 5.9 9.23333 6.09401 9.23333 6.33333V10.3333C9.23333 10.5727 9.42734 10.7667 9.66667 10.7667C9.90599 10.7667 10.1 10.5727 10.1 10.3333V6.33333Z" fill="black"/>
</svg>
