<svg width="32" height="32" viewBox="0 0 32 32" fill="none" xmlns="http://www.w3.org/2000/svg">
<path d="M9 11.8454C9 11.3785 9.38803 11 9.86669 11H22.5128C22.9915 11 23.3795 11.3785 23.3795 11.8454C23.3795 12.3123 22.9915 12.6908 22.5128 12.6908H9.86669C9.38803 12.6908 9 12.3123 9 11.8454Z" fill="black"/>
<path d="M9 17.5C9 17.0331 9.38803 16.6546 9.86669 16.6546H28.1333C28.612 16.6546 29 17.0331 29 17.5C29 17.9669 28.612 18.3454 28.1333 18.3454H9.86669C9.38803 18.3454 9 17.9669 9 17.5Z" fill="black"/>
<path d="M9.86669 22.3092C9.38803 22.3092 9 22.6877 9 23.1546C9 23.6215 9.38803 24 9.86669 24H16.8923C17.371 24 17.759 23.6215 17.759 23.1546C17.759 22.6877 17.371 22.3092 16.8923 22.3092H9.86669Z" fill="black"/>
</svg>
