<svg width="32" height="32" viewBox="0 0 32 32" fill="none" xmlns="http://www.w3.org/2000/svg">
<path fill-rule="evenodd" clip-rule="evenodd" d="M25.6612 6.45495C25.7315 5.67314 25.1088 5 24.3153 5H8.35135C7.55783 5 6.93512 5.67314 7.00542 6.45495L8.52241 23.3253C8.57223 23.8794 8.96383 24.345 9.5056 24.4944L15.999 26.2843C16.2372 26.3499 16.4891 26.3497 16.7271 26.2836L23.1635 24.4956C23.704 24.3455 24.0943 23.8804 24.1441 23.3273L25.6612 6.45495ZM21.605 11.0168C21.59 11.2428 21.4602 11.4459 21.2602 11.5564L17.6131 13.5708C17.4915 13.638 17.5397 13.8212 17.679 13.8212H20.6026C20.9959 13.8212 21.3061 14.1523 21.2762 14.5402L20.8152 20.5251C20.7943 20.7962 20.6095 21.0277 20.3477 21.1107L16.5646 22.31C16.4312 22.3523 16.2879 22.3526 16.1543 22.3107L12.3215 21.1099C12.0584 21.0275 11.8725 20.7951 11.8518 20.5229L11.7003 18.5286C11.6518 17.8907 12.162 17.3467 12.8087 17.3467C13.4014 17.3467 13.8898 17.8067 13.9189 18.3922L13.9355 18.7265C13.9495 19.0083 14.1408 19.251 14.4136 19.3331L16.1607 19.8588C16.2903 19.8978 16.4287 19.8974 16.558 19.8576L18.2601 19.334C18.5294 19.2511 18.7183 19.0116 18.734 18.7331L18.8386 16.8819C18.8602 16.4988 18.5519 16.1764 18.164 16.1764H12.1271C11.7758 16.1764 11.4831 15.91 11.4538 15.5637L11.3318 14.119C11.3098 13.8583 11.4435 13.6089 11.6741 13.4808L15.0043 11.6294C15.1256 11.562 15.0772 11.3793 14.9381 11.3793H12.2429C11.6243 11.3793 11.1075 10.9134 11.0502 10.3043C10.9848 9.60954 11.5375 9.00962 12.2429 9.00962H21.0169C21.4074 9.00962 21.7166 9.33622 21.691 9.72171L21.605 11.0168Z" fill="black"/>
</svg>
