<svg width="16" height="16" viewBox="0 0 16 16" fill="none" xmlns="http://www.w3.org/2000/svg">
<path fill-rule="evenodd" clip-rule="evenodd" d="M6.33333 3.66667C6.33333 3.29848 6.63181 3 7 3H9.66667C10.0349 3 10.3333 3.29848 10.3333 3.66667V5.66667C11.0697 5.66667 11.6667 6.26362 11.6667 7V10.3333C11.6667 11.0697 11.0697 11.6667 10.3333 11.6667H9.66667V13.3333C9.66667 13.5174 9.51743 13.6667 9.33333 13.6667C9.14924 13.6667 9 13.5174 9 13.3333V11.6667H7.66667V13.3333C7.66667 13.5174 7.51743 13.6667 7.33333 13.6667C7.14924 13.6667 7 13.5174 7 13.3333V11.6667H6.33333C5.59695 11.6667 5 11.0697 5 10.3333V7C5 6.26362 5.59695 5.66667 6.33333 5.66667V3.66667ZM7.2 5.66V3.86667H9.46667V5.66H7.2ZM10.3333 6.53333H6.33333C6.0756 6.53333 5.86667 6.74227 5.86667 7V10.3333C5.86667 10.5911 6.0756 10.8 6.33333 10.8H10.3333C10.5911 10.8 10.8 10.5911 10.8 10.3333V7C10.8 6.74227 10.5911 6.53333 10.3333 6.53333Z" fill="black"/>
</svg>
