<svg width="48" height="48" viewBox="0 0 48 48" fill="none" xmlns="http://www.w3.org/2000/svg">
<path fill-rule="evenodd" clip-rule="evenodd" d="M29.9987 13.7405C29.9987 16.9109 27.3127 30.9619 23.9993 30.9619C20.686 30.9619 18 16.9109 18 13.7405C18 10.5701 20.686 8 23.9993 8C27.3127 8 29.9987 10.5701 29.9987 13.7405ZM27.399 13.7405C27.399 14.9837 26.7964 19.0285 25.7366 22.8444C25.3323 24.3003 24.8699 25.6529 24.4081 26.7122C24.2471 27.0815 23.7516 27.0815 23.5906 26.7122C23.1288 25.6529 22.6664 24.3003 22.2621 22.8444C21.2023 19.0285 20.5997 14.9837 20.5997 13.7405C20.5997 12.1128 22.0125 10.5997 23.9993 10.5997C25.9862 10.5997 27.399 12.1128 27.399 13.7405Z" fill="black"/>
<path fill-rule="evenodd" clip-rule="evenodd" d="M23.9993 31.4171C21.6281 31.4171 19.6998 33.3352 19.6998 35.7086C19.6998 38.082 21.6281 40 23.9993 40C26.3706 40 28.2989 38.082 28.2989 35.7086C28.2989 33.3352 26.3706 31.4171 23.9993 31.4171ZM22.2995 35.7086C22.2995 34.7776 23.0573 34.0168 23.9993 34.0168C24.9414 34.0168 25.6992 34.7776 25.6992 35.7086C25.6992 36.6396 24.9414 37.4003 23.9993 37.4003C23.0573 37.4003 22.2995 36.6396 22.2995 35.7086Z" fill="black"/>
</svg>
