<svg width="32" height="32" viewBox="0 0 32 32" fill="none" xmlns="http://www.w3.org/2000/svg">
<path fill-rule="evenodd" clip-rule="evenodd" d="M15.6667 15.6667C15.6667 17.8758 13.8758 19.6667 11.6667 19.6667C9.45753 19.6667 7.66667 17.8758 7.66667 15.6667C7.66667 13.4575 9.45753 11.6667 11.6667 11.6667C13.8758 11.6667 15.6667 13.4575 15.6667 15.6667ZM13.9333 15.6667C13.9333 16.9185 12.9185 17.9333 11.6667 17.9333C10.4148 17.9333 9.4 16.9185 9.4 15.6667C9.4 14.4148 10.4148 13.4 11.6667 13.4C12.9185 13.4 13.9333 14.4148 13.9333 15.6667Z" fill="black"/>
<path fill-rule="evenodd" clip-rule="evenodd" d="M5 15.6667C5 11.9848 7.98477 9 11.6667 9H19.6667C23.3486 9 26.3333 11.9848 26.3333 15.6667C26.3333 19.3486 23.3486 22.3333 19.6667 22.3333H11.6667C7.98477 22.3333 5 19.3486 5 15.6667ZM11.6667 10.7333H19.6667C22.3913 10.7333 24.6 12.9421 24.6 15.6667C24.6 18.3913 22.3913 20.6 19.6667 20.6H11.6667C8.94206 20.6 6.73333 18.3913 6.73333 15.6667C6.73333 12.9421 8.94206 10.7333 11.6667 10.7333Z" fill="black"/>
</svg>
