<svg width="24" height="24" viewBox="0 0 24 24" fill="none" xmlns="http://www.w3.org/2000/svg">
<path fill-rule="evenodd" clip-rule="evenodd" d="M11.845 12.3808C12.5624 13.1041 13.7254 13.1041 14.4428 12.3808C15.1601 11.6575 15.1601 10.4848 14.4428 9.76149C13.7254 9.03818 12.5624 9.03818 11.845 9.76149C11.1276 10.4848 11.1276 11.6575 11.845 12.3808ZM12.7604 11.4578C12.9722 11.6713 13.3156 11.6713 13.5273 11.4578C13.7391 11.2443 13.7391 10.8981 13.5273 10.6845C13.3156 10.471 12.9722 10.471 12.7604 10.6845C12.5487 10.8981 12.5487 11.2443 12.7604 11.4578Z" fill="black"/>
<path fill-rule="evenodd" clip-rule="evenodd" d="M6.13033 19.7043C5.85935 19.7043 5.62101 19.7142 5.41172 19.7303C5.36585 19.7339 5.32137 19.7377 5.27825 19.7418C4.67489 19.7992 4.33749 19.9081 4.16287 19.9644C4.06938 19.9946 4.02255 20.0097 4.00654 19.9938C3.99048 19.9779 4.00546 19.9306 4.0355 19.836C4.09107 19.6609 4.19817 19.3235 4.25531 18.7214C4.25944 18.678 4.2633 18.6332 4.26687 18.5869C4.28333 18.3735 4.29343 18.1298 4.29343 17.8522C4.29341 16.8293 5.11583 16 6.13033 16C7.14482 16 7.96723 16.8293 7.96723 17.8522C7.96723 18.8751 7.14482 19.7043 6.13033 19.7043Z" fill="black"/>
<path fill-rule="evenodd" clip-rule="evenodd" d="M17.3965 13.207L19.1253 11.4639C19.7656 10.8183 20.0809 9.91474 19.9827 9.0071L19.7486 6.8437C19.5928 5.40484 18.4442 4.28104 17.0132 4.16739L15.0226 4.00931C14.1512 3.94011 13.2935 4.25913 12.6755 4.88231L10.9216 6.65071C10.1546 6.06644 9.34514 5.92775 8.61729 6.04722C7.79649 6.18195 7.12753 6.63452 6.74813 7.01707L5.48619 8.28948C5.09956 8.67933 5.09956 9.308 5.48619 9.69784L7.07866 11.3035C7.17007 11.3957 7.28223 11.4548 7.40023 11.4807C7.4049 11.9358 7.51125 12.3901 7.71927 12.8059L6.94372 13.1969C6.24603 13.5486 6.0947 14.4788 6.6449 15.0336L8.88245 17.2897C9.43773 17.8496 10.3789 17.6973 10.7293 16.9908L11.0758 16.292C11.5835 16.6101 12.1652 16.7604 12.7428 16.7426C12.7672 16.7806 12.796 16.8166 12.829 16.85L14.4146 18.4487C14.8058 18.8432 15.4435 18.8432 15.8347 18.4487L16.9601 17.314C17.3396 16.9314 17.7884 16.2567 17.9218 15.4289C18.035 14.7271 17.914 13.95 17.3965 13.207ZM18.2098 10.5409L13.8483 14.9387C13.1872 15.6053 12.1152 15.6053 11.4541 14.9387L9.19054 12.6563C8.5294 11.9897 8.5294 10.9089 9.19054 10.2422L13.5909 5.80535C13.9411 5.45221 14.4272 5.27143 14.9209 5.31064L16.9115 5.46873C17.7225 5.53313 18.3733 6.16995 18.4616 6.9853L18.6957 9.1487C18.7514 9.66303 18.5727 10.1751 18.2098 10.5409ZM11.845 12.3808C12.5624 13.1041 13.7254 13.1041 14.4428 12.3808C15.1601 11.6575 15.1601 10.4848 14.4428 9.76149C13.7254 9.03818 12.5624 9.03818 11.845 9.76149C11.1276 10.4848 11.1276 11.6575 11.845 12.3808ZM12.7604 11.4578C12.9722 11.6713 13.3156 11.6713 13.5273 11.4578C13.7391 11.2443 13.7391 10.8981 13.5273 10.6845C13.3156 10.471 12.9722 10.471 12.7604 10.6845C12.5487 10.8981 12.5487 11.2443 12.7604 11.4578Z" fill="black"/>
</svg>
