<svg width="32" height="32" viewBox="0 0 32 32" fill="none" xmlns="http://www.w3.org/2000/svg">
<path d="M11.0538 11.0538C11.3923 10.7154 11.941 10.7154 12.2795 11.0538L15.6666 14.441L19.0538 11.0538C19.3923 10.7154 19.941 10.7154 20.2795 11.0538C20.6179 11.3923 20.6179 11.941 20.2795 12.2795L16.8923 15.6667L20.2795 19.0538C20.6179 19.3923 20.6179 19.941 20.2795 20.2795C19.941 20.618 19.3923 20.618 19.0538 20.2795L15.6666 16.8923L12.2795 20.2795C11.941 20.618 11.3923 20.618 11.0538 20.2795C10.7154 19.941 10.7154 19.3923 11.0538 19.0538L14.441 15.6667L11.0538 12.2795C10.7154 11.941 10.7154 11.3923 11.0538 11.0538Z" fill="black"/>
<path fill-rule="evenodd" clip-rule="evenodd" d="M5 7.66667C5 6.19391 6.19391 5 7.66667 5H23.6667C25.1394 5 26.3333 6.19391 26.3333 7.66667V23.6667C26.3333 25.1394 25.1394 26.3333 23.6667 26.3333H7.66667C6.19391 26.3333 5 25.1394 5 23.6667V7.66667ZM7.66667 6.73333H23.6667C24.1821 6.73333 24.6 7.1512 24.6 7.66667V23.6667C24.6 24.1821 24.1821 24.6 23.6667 24.6H7.66667C7.1512 24.6 6.73333 24.1821 6.73333 23.6667V7.66667C6.73333 7.1512 7.1512 6.73333 7.66667 6.73333Z" fill="black"/>
</svg>
