<svg width="48" height="48" viewBox="0 0 48 48" fill="none" xmlns="http://www.w3.org/2000/svg">
<path fill-rule="evenodd" clip-rule="evenodd" d="M8 12C8 9.79086 9.79086 8 12 8H36C38.2091 8 40 9.79086 40 12V36C40 38.2091 38.2091 40 36 40H12C9.79086 40 8 38.2091 8 36V12ZM13.7 24C13.7 23.282 14.282 22.7 15 22.7H33C33.718 22.7 34.3 23.282 34.3 24C34.3 24.718 33.718 25.3 33 25.3H15C14.282 25.3 13.7 24.718 13.7 24ZM15 29.7C14.282 29.7 13.7 30.282 13.7 31C13.7 31.718 14.282 32.3 15 32.3H33C33.718 32.3 34.3 31.718 34.3 31C34.3 30.282 33.718 29.7 33 29.7H15Z" fill="black"/>
</svg>
