<svg width="28" height="28" viewBox="0 0 28 28" fill="none" xmlns="http://www.w3.org/2000/svg">
<path fill-rule="evenodd" clip-rule="evenodd" d="M10.8988 7.16061C10.7302 7.58525 10.6433 8.04037 10.6433 8.5L10.4 8.5C9.26333 8.5 8.30724 9.3885 8.17696 10.5659L7.01503 21.0659C6.86172 22.4513 7.90054 23.6667 9.23806 23.6667H18.7619C20.0995 23.6667 21.1383 22.4513 20.985 21.0659L19.823 10.5659C19.6928 9.3885 18.7367 8.5 17.6 8.5L17.3567 8.5C17.3567 8.04037 17.2698 7.58525 17.1012 7.16061C17.0774 7.10072 17.052 7.04161 17.0251 6.98333C16.8614 6.62836 16.6413 6.3043 16.3735 6.02513C16.0618 5.70012 15.6918 5.44231 15.2845 5.26642C14.8773 5.09053 14.4408 5 14 5C13.5592 5 13.1227 5.09053 12.7155 5.26642C12.3082 5.44231 11.9382 5.70012 11.6265 6.02513C11.3587 6.3043 11.1386 6.62835 10.9749 6.98333C10.948 7.04161 10.9226 7.10072 10.8988 7.16061ZM12.1393 7.69636C12.0381 7.95115 11.986 8.22422 11.986 8.5L16.014 8.5C16.014 8.22422 15.9619 7.95115 15.8607 7.69636C15.7595 7.44158 15.6111 7.21008 15.4241 7.01508C15.2371 6.82007 15.0151 6.66539 14.7707 6.55985C14.5264 6.45432 14.2645 6.4 14 6.4C13.7355 6.4 13.4736 6.45432 13.2293 6.55985C12.9849 6.66539 12.7629 6.82007 12.5759 7.01508C12.3889 7.21008 12.2405 7.44158 12.1393 7.69636Z" fill="black"/>
</svg>
