<svg width="28" height="28" viewBox="0 0 28 28" fill="none" xmlns="http://www.w3.org/2000/svg">
<path fill-rule="evenodd" clip-rule="evenodd" d="M14.675 23.325C14.4562 23.5438 14.1595 23.6667 13.8501 23.6667H7.33263C6.04396 23.6667 5 22.622 5 21.3333V7.33333C5 6.04467 6.04467 5 7.33333 5H21.3333C22.622 5 23.6667 6.04467 23.6667 7.33333V13.8501C23.6667 14.1595 23.5437 14.4562 23.325 14.675L14.675 23.325ZM21.8583 13.575C22.0194 13.575 22.15 13.4444 22.15 13.2833V7.33333C22.15 6.8823 21.7844 6.51667 21.3333 6.51667H7.33333C6.8823 6.51667 6.51667 6.8823 6.51667 7.33333V21.3333C6.51667 21.785 6.88219 22.15 7.33263 22.15H13.2833C13.4444 22.15 13.575 22.0194 13.575 21.8583V16.666C13.575 14.9582 14.9595 13.575 16.6667 13.575H21.8583ZM15.5896 20.2655C15.4058 20.4493 15.0917 20.3191 15.0917 20.0593V16.666C15.0917 15.7964 15.7965 15.0917 16.6667 15.0917H20.0593C20.3191 15.0917 20.4493 15.4058 20.2655 15.5896L15.5896 20.2655Z" fill="black"/>
</svg>
