<svg width="28" height="28" viewBox="0 0 28 28" fill="none" xmlns="http://www.w3.org/2000/svg">
<path fill-rule="evenodd" clip-rule="evenodd" d="M14.3333 23.67C19.488 23.67 23.6667 19.4906 23.6667 14.335C23.6667 9.17942 19.488 5 14.3333 5C9.17868 5 5 9.17942 5 14.335C5 19.4906 9.17868 23.67 14.3333 23.67ZM10.8333 14.335C11.4777 14.335 12 13.8126 12 13.1681C12 12.5237 11.4777 12.0013 10.8333 12.0013C10.189 12.0013 9.66667 12.5237 9.66667 13.1681C9.66667 13.8126 10.189 14.335 10.8333 14.335ZM19 13.1681C19 13.8126 18.4777 14.335 17.8333 14.335C17.189 14.335 16.6667 13.8126 16.6667 13.1681C16.6667 12.5237 17.189 12.0013 17.8333 12.0013C18.4777 12.0013 19 12.5237 19 13.1681ZM10.9857 16.4848C10.8841 16.0784 10.4724 15.8313 10.0661 15.9329C9.65977 16.0345 9.41273 16.4463 9.51431 16.8527C9.79875 17.9907 11.209 19.761 14.3333 19.761C17.4577 19.761 18.8679 17.9907 19.1524 16.8527C19.2539 16.4463 19.0069 16.0345 18.6006 15.9329C18.1943 15.8313 17.7826 16.0784 17.681 16.4848C17.5765 16.9027 16.809 18.244 14.3333 18.244C11.8577 18.244 11.0901 16.9027 10.9857 16.4848Z" fill="black"/>
</svg>
