<svg width="24" height="24" viewBox="0 0 24 24" fill="none" xmlns="http://www.w3.org/2000/svg">
<path d="M19.35 4C18.991 4 18.7 4.29101 18.7 4.65L18.7 19.3525C18.7 19.7115 18.991 20.0025 19.35 20.0025C19.709 20.0025 20 19.7115 20 19.3525L20 4.65C20 4.29101 19.709 4 19.35 4Z" fill="black"/>
<path fill-rule="evenodd" clip-rule="evenodd" d="M15.7621 5.70017C16.8666 5.70017 17.7621 6.5956 17.7621 7.70017L17.7621 9.47616C17.7621 10.5807 16.8666 11.4762 15.7621 11.4762L5.99973 11.4762C4.89517 11.4762 3.99973 10.5807 3.99973 9.47616L3.99973 7.70017C3.99973 6.5956 4.89517 5.70017 5.99974 5.70017L15.7621 5.70017ZM5.99974 7.00017L15.7621 7.00017C16.1487 7.00017 16.4621 7.31357 16.4621 7.70017L16.4621 9.47616C16.4621 9.86276 16.1487 10.1762 15.7621 10.1762L5.99973 10.1762C5.61314 10.1762 5.29974 9.86276 5.29974 9.47616L5.29974 7.70017C5.29974 7.31357 5.61314 7.00017 5.99974 7.00017Z" fill="black"/>
<path fill-rule="evenodd" clip-rule="evenodd" d="M17.7621 14.5263C17.7621 13.4218 16.8666 12.5263 15.7621 12.5263L9.17566 12.5263C8.07109 12.5263 7.17566 13.4218 7.17566 14.5263L7.17566 16.3023C7.17566 17.4069 8.07109 18.3023 9.17566 18.3023L15.7621 18.3023C16.8666 18.3023 17.7621 17.4069 17.7621 16.3023L17.7621 14.5263ZM15.7621 13.8263L9.17566 13.8263C8.78906 13.8263 8.47566 14.1397 8.47566 14.5263L8.47566 16.3023C8.47566 16.6889 8.78906 17.0023 9.17566 17.0023L15.7621 17.0023C16.1487 17.0023 16.4621 16.6889 16.4621 16.3023L16.4621 14.5263C16.4621 14.1397 16.1487 13.8263 15.7621 13.8263Z" fill="black"/>
</svg>
