<svg width="24" height="24" viewBox="0 0 24 24" fill="none" xmlns="http://www.w3.org/2000/svg">
<path fill-rule="evenodd" clip-rule="evenodd" d="M11 9.35C10.0887 9.35 9.35 10.0887 9.35 11C9.35 11.9113 10.0887 12.65 11 12.65H13C13.9113 12.65 14.65 11.9113 14.65 11C14.65 10.0887 13.9113 9.35 13 9.35H11ZM10.65 11C10.65 10.8067 10.8067 10.65 11 10.65H13C13.1933 10.65 13.35 10.8067 13.35 11C13.35 11.1933 13.1933 11.35 13 11.35H11C10.8067 11.35 10.65 11.1933 10.65 11Z" fill="black"/>
<path fill-rule="evenodd" clip-rule="evenodd" d="M9.30807 5.66215C9.1324 6.01476 9.02674 6.40082 9 6.7988C8.95521 6.8206 9.03308 6.77917 9 6.7988C7.1421 7.8185 6 9.73106 6 12V18C6 19.1046 6.89543 20 8 20H16C17.1046 20 18 19.1046 18 18V12C18 9.77347 16.7872 7.8302 14.9862 6.79475C14.959 6.39821 14.8535 6.01356 14.6784 5.66215C14.5353 5.37491 14.3458 5.10987 14.1146 4.87868C13.552 4.31607 12.7889 4 11.9933 4C11.1976 4 10.4345 4.31607 9.87193 4.87868C9.64074 5.10987 9.45118 5.37491 9.30807 5.66215ZM12 6C11.4446 6 10.9068 6.07547 10.3964 6.2167L10.4099 6.21112C10.4943 6.04175 10.6061 5.88547 10.7424 5.74915C11.0741 5.41741 11.5241 5.23103 11.9933 5.23104C12.4624 5.23104 12.9124 5.41741 13.2441 5.74915C13.3798 5.8849 13.4913 6.04044 13.5755 6.20899C13.0734 6.07272 12.5452 6 12 6ZM7.3 18V15.65H8.35V17C8.35 17.359 8.64102 17.65 9 17.65C9.35898 17.65 9.65 17.359 9.65 17V15.65H16.7V18C16.7 18.3866 16.3866 18.7 16 18.7H8C7.6134 18.7 7.3 18.3866 7.3 18ZM16.7 14.35V12C16.7 9.40426 14.5957 7.3 12 7.3C9.40426 7.3 7.3 9.40426 7.3 12V14.35H16.7Z" fill="black"/>
</svg>
