<svg width="24" height="24" viewBox="0 0 24 24" fill="none" xmlns="http://www.w3.org/2000/svg">
<path fill-rule="evenodd" clip-rule="evenodd" d="M20 12C20 16.4183 16.4183 20 12 20C7.58172 20 4 16.4183 4 12C4 7.58172 7.58172 4 12 4C16.4183 4 20 7.58172 20 12ZM16.061 16.9803C16.1654 17.0847 16.1573 17.2566 16.0397 17.3457C14.9165 18.1957 13.5171 18.7 12 18.7C8.29969 18.7 5.3 15.7003 5.3 12C5.3 10.4829 5.80426 9.08348 6.65433 7.96035C6.7434 7.84266 6.91534 7.83458 7.01971 7.93895L16.061 16.9803ZM17.3457 16.0397C17.2566 16.1573 17.0847 16.1654 16.9803 16.0611L7.93895 7.01971C7.83458 6.91534 7.84266 6.7434 7.96035 6.65433C9.08348 5.80426 10.4829 5.3 12 5.3C15.7003 5.3 18.7 8.29969 18.7 12C18.7 13.5171 18.1957 14.9165 17.3457 16.0397Z" fill="black"/>
</svg>
