<svg width="24" height="24" viewBox="0 0 24 24" fill="none" xmlns="http://www.w3.org/2000/svg">
<path d="M12 4C13.614 4 15.1163 4.47794 16.3732 5.3H12C8.29969 5.3 5.3 8.29969 5.3 12C5.3 15.5641 8.08291 18.4782 11.5943 18.6879C11.7343 18.6963 11.85 18.583 11.85 18.4428V18.25C11.85 18.1119 11.9619 18 12.1 18H17.2917C16.6932 18.5283 16.015 18.9684 15.2775 19.3C14.2772 19.7498 13.1678 20 12 20C7.58172 20 4 16.4183 4 12C4 7.58172 7.58172 4 12 4Z" fill="black"/>
<path d="M20 12C20 12.4426 19.9641 12.8769 19.8949 13.3H12.1C11.9619 13.3 11.85 13.1881 11.85 13.05V12.25C11.85 12.1119 11.9619 12 12.1 12L20 12Z" fill="black"/>
<path d="M19.748 14C19.6322 14.4499 19.4783 14.8844 19.2898 15.3H12.1C11.9619 15.3 11.85 15.1881 11.85 15.05V14.25C11.85 14.1119 11.9619 14 12.1 14H19.748Z" fill="black"/>
<path d="M18.9298 16C18.6608 16.4649 18.3464 16.9003 17.9926 17.3H12.1C11.9619 17.3 11.85 17.1881 11.85 17.05V16.25C11.85 16.1119 11.9619 16 12.1 16H18.9298Z" fill="black"/>
<path d="M19.9698 11.3C19.9313 10.8553 19.8563 10.4209 19.748 10H12.1C11.9619 10 11.85 10.1119 11.85 10.25V11.05C11.85 11.1881 11.9619 11.3 12.1 11.3H19.9698Z" fill="black"/>
<path d="M19.5329 9.3C19.3703 8.8463 19.1678 8.41156 18.9298 8H12.1C11.9619 8 11.85 8.11193 11.85 8.25V9.05C11.85 9.18807 11.9619 9.3 12.1 9.3H19.5329Z" fill="black"/>
<path d="M18.4745 7.3C18.1287 6.8244 17.7317 6.38837 17.2917 6H12.1C11.9619 6 11.85 6.11193 11.85 6.25V7.05C11.85 7.18807 11.9619 7.3 12.1 7.3H18.4745Z" fill="black"/>
</svg>
