<svg width="24" height="24" viewBox="0 0 24 24" fill="none" xmlns="http://www.w3.org/2000/svg">
<path fill-rule="evenodd" clip-rule="evenodd" d="M16.7 17.65H7.825C7.53505 17.65 7.3 17.885 7.3 18.175C7.3 18.4649 7.53505 18.7 7.825 18.7H17.35C17.709 18.7 18 18.991 18 19.35C18 19.709 17.709 20 17.35 20H7C6.44772 20 6 19.5523 6 19V5C6 4.44772 6.44772 4 7 4H17C17.5523 4 18 4.44772 18 5V16.35C18 17.068 17.418 17.65 16.7 17.65ZM8 8C8 6.89543 8.89543 6 10 6H14C15.1046 6 16 6.89543 16 8C16 9.10457 15.1046 10 14 10H10C8.89543 10 8 9.10457 8 8Z" fill="black"/>
</svg>
