<svg width="24" height="24" viewBox="0 0 24 24" fill="none" xmlns="http://www.w3.org/2000/svg">
<path fill-rule="evenodd" clip-rule="evenodd" d="M12 7C9.70486 7 7.77602 8.4938 7.2891 10.5067C7.21904 10.7963 7.0014 10.932 6.84723 10.932H6.71511C5.22456 10.932 4 12.0581 4 13.466C4 14.8739 5.22456 16 6.71511 16H17.2849C18.7754 16 20 14.8739 20 13.466C20 12.0581 18.7754 10.932 17.2849 10.932H17.1528C16.9986 10.932 16.781 10.7963 16.7109 10.5067C16.224 8.4938 14.2951 7 12 7ZM8.46119 10.7598C8.82313 9.26353 10.2655 8.13592 12 8.13592C13.7345 8.13592 15.1769 9.26353 15.5388 10.7598C15.6964 11.4111 16.2854 12.068 17.1528 12.068H17.2849C18.1293 12.068 18.7977 12.7023 18.7977 13.466C18.7977 14.2297 18.1293 14.8641 17.2849 14.8641H6.71511C5.87066 14.8641 5.20231 14.2297 5.20231 13.466C5.20231 12.7023 5.87066 12.068 6.71511 12.068H6.84723C7.71463 12.068 8.30365 11.4111 8.46119 10.7598Z" fill="black"/>
</svg>
