<svg width="24" height="24" viewBox="0 0 24 24" fill="none" xmlns="http://www.w3.org/2000/svg">
<path d="M14.7984 6.94678C14.9417 6.59283 14.7674 6.19113 14.4092 6.04955C14.0509 5.90797 13.6443 6.08013 13.501 6.43408L9.20162 17.0532C9.05831 17.4072 9.23257 17.8089 9.59083 17.9504C9.94908 18.092 10.3557 17.9199 10.499 17.5659L14.7984 6.94678Z" fill="black"/>
<path d="M8.19462 8.32618C8.46746 8.59574 8.46746 9.03278 8.19462 9.30233L5.6541 11.8123C5.54916 11.916 5.54916 12.084 5.6541 12.1877L8.19462 14.6977C8.46746 14.9672 8.46746 15.4043 8.19462 15.6738C7.92178 15.9434 7.47942 15.9434 7.20657 15.6738L4.36204 12.8635C3.87932 12.3866 3.87932 11.6134 4.36204 11.1365L7.20657 8.32618C7.47942 8.05662 7.92178 8.05662 8.19462 8.32618Z" fill="black"/>
<path d="M15.8054 15.6738C15.5325 15.4043 15.5325 14.9672 15.8054 14.6977L18.3459 12.1877C18.4508 12.084 18.4508 11.916 18.3459 11.8123L15.8054 9.30233C15.5325 9.03278 15.5325 8.59574 15.8054 8.32618C16.0782 8.05662 16.5206 8.05662 16.7934 8.32618L19.638 11.1365C20.1207 11.6134 20.1207 12.3866 19.638 12.8635L16.7934 15.6738C16.5206 15.9434 16.0782 15.9434 15.8054 15.6738Z" fill="black"/>
</svg>
