<svg width="24" height="24" viewBox="0 0 24 24" fill="none" xmlns="http://www.w3.org/2000/svg">
<path d="M15.0063 7.37166C15.2169 6.85887 14.9608 6.2769 14.4344 6.07179C13.908 5.86668 13.3106 6.11609 13.1 6.62888L8.9937 16.6289C8.78313 17.1417 9.03918 17.7236 9.56559 17.9287C10.092 18.1339 10.6894 17.8844 10.9 17.3717L15.0063 7.37166Z" fill="black"/>
<path d="M8.61959 8.29316C9.0205 8.68368 9.0205 9.31685 8.61959 9.70737L6.26576 12.0003L8.61959 14.2932C9.0205 14.6837 9.0205 15.3168 8.61959 15.7074C8.21869 16.0979 7.5687 16.0979 7.1678 15.7074L4.45102 13.0609C3.84966 12.4751 3.84966 11.5254 4.45102 10.9396L7.1678 8.29316C7.5687 7.90263 8.21869 7.90263 8.61959 8.29316Z" fill="black"/>
<path d="M15.3804 15.7074C14.9795 15.3168 14.9795 14.6837 15.3804 14.2932L17.7342 12.0003L15.3804 9.70737C14.9795 9.31685 14.9795 8.68368 15.3804 8.29316C15.7813 7.90264 16.4313 7.90264 16.8322 8.29316L19.549 10.9396C20.1503 11.5254 20.1503 12.4751 19.549 13.0609L16.8322 15.7074C16.4313 16.0979 15.7813 16.0979 15.3804 15.7074Z" fill="black"/>
</svg>
