<svg width="24" height="24" viewBox="0 0 24 24" fill="none" xmlns="http://www.w3.org/2000/svg">
<path d="M4.10962 3.19038C3.85578 2.93654 3.44422 2.93654 3.19038 3.19038C2.93654 3.44422 2.93654 3.85578 3.19038 4.10962L19.8908 20.8101C20.1447 21.0639 20.5562 21.0639 20.8101 20.8101C21.0639 20.5562 21.0639 20.1447 20.8101 19.8908L4.10962 3.19038Z" fill="black"/>
<path d="M4.65 6.70926H4.70926L7.11055 9.11055L7.76995 18.0521C7.79691 18.4177 8.10142 18.7006 8.46805 18.7006H15.5336C15.8477 18.7006 16.1161 18.493 16.2036 18.2036L17.162 19.162C16.798 19.6716 16.2019 20.0006 15.5336 20.0006H8.46805C7.42054 20.0006 6.55051 19.1923 6.47347 18.1477L5.72581 8.00926H4.65C4.29101 8.00926 4 7.71825 4 7.35926C4 7.00028 4.29101 6.70926 4.65 6.70926Z" fill="black"/>
<path fill-rule="evenodd" clip-rule="evenodd" d="M8.52273 6.52272L10.0098 8.00984H16.9723L16.4941 14.4941L17.7081 15.7081L18.2758 8.00984L19.3519 8.00926C19.7109 8.00926 20.0019 7.71825 20.0019 7.35926C20.0019 7.00028 19.7109 6.70926 19.3519 6.70926H15.5225C15.4281 6.24726 15.2273 5.72885 14.8655 5.26575C14.2953 4.53613 13.3674 4 12.001 4C10.6345 4 9.70662 4.53613 9.13649 5.26575C8.82261 5.66743 8.62994 6.11072 8.52273 6.52272ZM13.8411 6.0662C13.9993 6.26863 14.1085 6.4932 14.1797 6.70926H9.82228C9.89347 6.4932 10.0026 6.26863 10.1608 6.0662C10.4728 5.66695 11.0151 5.3 12.001 5.3C12.9868 5.3 13.5291 5.66695 13.8411 6.0662Z" fill="black"/>
<path d="M10.6905 12.6905L9.3905 11.3905V16.4223C9.3905 16.7813 9.68152 17.0723 10.0405 17.0723C10.3995 17.0723 10.6905 16.7813 10.6905 16.4223V12.6905Z" fill="black"/>
<path d="M14.5894 16.5894L13.311 15.311V16.4223C13.311 16.7813 13.602 17.0723 13.961 17.0723C14.2623 17.0723 14.5156 16.8674 14.5894 16.5894Z" fill="black"/>
<path d="M13.311 11.311L14.611 12.611V10.2881C14.611 9.92913 14.32 9.63812 13.961 9.63812C13.602 9.63812 13.311 9.92913 13.311 10.2881V11.311Z" fill="black"/>
</svg>
