<svg width="24" height="24" viewBox="0 0 24 24" fill="none" xmlns="http://www.w3.org/2000/svg">
<path fill-rule="evenodd" clip-rule="evenodd" d="M10 12C10 12.5523 9.55228 13 9 13C8.44772 13 8 12.5523 8 12C8 11.4477 8.44772 11 9 11C9.55228 11 10 11.4477 10 12Z" fill="black"/>
<path fill-rule="evenodd" clip-rule="evenodd" d="M6 6C6 4.89543 6.89543 4 8 4H16C17.1046 4 18 4.89543 18 6V18C18 19.1046 17.1046 20 16 20H8C6.89543 20 6 19.1046 6 18V6ZM8 5.3H16C16.3866 5.3 16.7 5.6134 16.7 6V18C16.7 18.3866 16.3866 18.7 16 18.7H8C7.6134 18.7 7.3 18.3866 7.3 18V6C7.3 5.6134 7.6134 5.3 8 5.3Z" fill="black"/>
</svg>
