<svg width="24" height="24" viewBox="0 0 24 24" fill="none" xmlns="http://www.w3.org/2000/svg">
<path d="M15.65 13.8429C15.65 13.4839 15.359 13.1929 15 13.1929C14.641 13.1929 14.35 13.4839 14.35 13.8429C14.35 14.2389 14.2259 14.8473 13.8725 15.3381C13.543 15.7957 12.9882 16.1929 12 16.1929C11.641 16.1929 11.35 16.4839 11.35 16.8429C11.35 17.2019 11.641 17.4929 12 17.4929C13.4118 17.4929 14.357 16.8901 14.9275 16.0977C15.4741 15.3385 15.65 14.4469 15.65 13.8429Z" fill="black"/>
<path fill-rule="evenodd" clip-rule="evenodd" d="M18 12.9306C18 16.8349 15.3137 20 12 20C8.68629 20 6 16.8349 6 12.9306C6 9.56983 10.4456 5.26024 11.6835 4.12539C11.8658 3.9582 12.1342 3.9582 12.3165 4.12539C13.5544 5.26024 18 9.56983 18 12.9306ZM16.7 12.9306C16.7 16.325 14.404 18.7 12 18.7C9.59601 18.7 7.3 16.325 7.3 12.9306C7.3 12.3626 7.4927 11.6656 7.88245 10.8663C8.26711 10.0775 8.80623 9.26498 9.4064 8.48791C10.2396 7.4091 11.1492 6.45113 11.8268 5.78347C11.9231 5.68866 12.0769 5.68866 12.1732 5.78347C12.8508 6.45113 13.7604 7.4091 14.5936 8.48791C15.1938 9.26498 15.7329 10.0775 16.1176 10.8663C16.5073 11.6656 16.7 12.3626 16.7 12.9306Z" fill="black"/>
</svg>
