<svg width="24" height="24" viewBox="0 0 24 24" fill="none" xmlns="http://www.w3.org/2000/svg">
<path fill-rule="evenodd" clip-rule="evenodd" d="M12 20C16.4183 20 20 16.4183 20 12C20 7.58172 16.4183 4 12 4C7.58172 4 4 7.58172 4 12C4 16.4183 7.58172 20 12 20ZM9.13059 13.8424C9.04353 13.4941 8.69062 13.2823 8.34235 13.3694C7.99409 13.4565 7.78234 13.8094 7.86941 14.1576C8.11321 15.1329 9.32199 16.65 12 16.65C14.678 16.65 15.8868 15.1329 16.1306 14.1576C16.2177 13.8094 16.0059 13.4565 15.6576 13.3694C15.3094 13.2823 14.9565 13.4941 14.8694 13.8424C14.7799 14.2005 14.122 15.35 12 15.35C9.87801 15.35 9.22012 14.2005 9.13059 13.8424ZM6.29999 10.15C6.29999 9.51487 6.81486 9 7.44999 9H16.45C17.0851 9 17.6 9.51487 17.6 10.15V11.65C17.6 12.2851 17.0851 12.8 16.45 12.8H13.7C13.0649 12.8 12.55 12.2851 12.55 11.65V10.3H11.35V11.65C11.35 12.2851 10.8351 12.8 10.2 12.8H7.44999C6.81486 12.8 6.29999 12.2851 6.29999 11.65V10.15Z" fill="black"/>
</svg>
