<svg width="24" height="24" viewBox="0 0 24 24" fill="none" xmlns="http://www.w3.org/2000/svg">
<path fill-rule="evenodd" clip-rule="evenodd" d="M7.82343 7.65C7.82343 7.29101 8.11444 7 8.47343 7H13.2527C13.6117 7 13.9027 7.29101 13.9027 7.65C13.9027 8.00899 13.6117 8.3 13.2527 8.3H12.4689V8.7404H13.4749C13.8261 8.7404 14.1769 8.89956 14.3969 9.20011L15.0162 10.0457H15.4034C15.8356 10.0457 16.2924 10.378 16.2924 10.9132V11.351H16.4261V10.9132C16.4261 10.378 16.8829 10.0457 17.3151 10.0457H18.3951C18.6388 10.0457 18.9019 10.1457 19.0829 10.3664C19.9225 11.3896 20.0814 12.6486 19.975 13.7489C19.8685 14.8496 19.491 15.8712 19.1519 16.529C18.9874 16.8481 18.6626 17.002 18.3622 17.002H17.3151C16.8829 17.002 16.4261 16.6696 16.4261 16.1344V15.6967H16.2924V16.1344C16.2924 16.6697 15.8356 17.002 15.4034 17.002H10.5831C10.3026 17.002 10.0228 16.9011 9.80758 16.7052L8.22187 15.2616H6.81171C6.31466 15.2616 5.91171 14.8586 5.91171 14.3616V12.651H5.3V14.1765C5.3 14.5355 5.00899 14.8265 4.65 14.8265C4.29101 14.8265 4 14.5355 4 14.1765V9.82549C4 9.46651 4.29101 9.17549 4.65 9.17549C5.00899 9.17549 5.3 9.46651 5.3 9.82549V11.351H5.91171V11.1308C5.91171 10.544 6.19842 10.1305 6.56383 9.89101C6.78716 9.74462 7.02934 9.66801 7.2406 9.63373L7.89587 9.03718C8.11107 8.84127 8.39092 8.7404 8.67139 8.7404H9.73514V8.3H8.47343C8.11444 8.3 7.82343 8.00899 7.82343 7.65ZM11.0351 8.3V8.7404H11.1689V8.3H11.0351ZM8.72499 10.0404L7.76913 10.9106H7.51757C7.49292 10.9106 7.44835 10.9145 7.39743 10.9277C7.34688 10.9409 7.30559 10.9592 7.27649 10.9783C7.24951 10.9959 7.2379 11.0108 7.23178 11.0216C7.22683 11.0303 7.21171 11.0598 7.21171 11.1308V13.9616H8.27547C8.55594 13.9616 8.83579 14.0625 9.05099 14.2584L10.6367 15.702H14.9924V15.2642C14.9924 14.729 15.4491 14.3967 15.8813 14.3967H16.8372C17.2694 14.3967 17.7261 14.729 17.7261 15.2642V15.702H18.1087C18.3563 15.1613 18.6051 14.4081 18.681 13.6237C18.7619 12.7882 18.6421 11.985 18.1952 11.3457H17.7261V11.651C17.7261 12.2033 17.2784 12.651 16.7261 12.651H15.8813C15.4491 12.651 14.9924 12.3187 14.9924 11.7834V11.3457H14.9423C14.5911 11.3457 14.2403 11.1865 14.0202 10.886L13.401 10.0404H8.72499Z" fill="black"/>
</svg>
