<svg width="24" height="24" viewBox="0 0 24 24" fill="none" xmlns="http://www.w3.org/2000/svg">
<path fill-rule="evenodd" clip-rule="evenodd" d="M8.35696 11.0668C7.94213 10.3593 7.47968 9.81159 7 10.5289C6.61101 11.3215 6 13.0764 6 14.0183C6 17.3219 8.68629 20 12 20C15.3137 20 18 17.3219 18 14.0183C18 12.365 17.1025 11.0555 16.235 9.78977L16.2161 9.76222C15 7.98782 14.5 6.5411 14 4.04871C13.3126 3.77528 10.7584 4.65926 9.5 6.5411C8.77488 7.62546 9.1524 9.0194 9.47698 10.2178C9.50983 10.3392 9.54215 10.4585 9.57272 10.5753C9.64228 10.841 9.70282 11.0936 9.74023 11.3269C9.82263 11.8409 9.79283 12.2615 9.5 12.5228C9.266 12.7316 8.97399 12.1924 8.64253 11.5803C8.63868 11.5732 8.63482 11.5661 8.63096 11.5589C8.5423 11.3952 8.45085 11.2269 8.35696 11.0668Z" fill="black"/>
</svg>
