<svg width="24" height="24" viewBox="0 0 24 24" fill="none" xmlns="http://www.w3.org/2000/svg">
<path fill-rule="evenodd" clip-rule="evenodd" d="M7.90115 4.54515C8.04305 4.21441 8.36835 4 8.72825 4H14.807C15.4215 4 15.8552 4.60205 15.6608 5.18488L14.5352 8.5578H18.0988C18.9008 8.5578 19.3022 9.52771 18.7348 10.0945L9.08725 19.7318C8.46133 20.357 7.40343 19.7985 7.56665 18.929L8.79404 12.3899H5.90097C5.2547 12.3899 4.81907 11.729 5.07388 11.1351L7.90115 4.54515ZM8.99189 5.3L6.50784 11.0899H9.2761C9.8397 11.0899 10.2646 11.602 10.1607 12.1559L9.08272 17.8988L17.1323 9.8578H13.9801C13.3657 9.8578 12.9319 9.25575 13.1264 8.67292L14.2519 5.3H8.99189Z" fill="black"/>
</svg>
