<svg width="24" height="24" viewBox="0 0 24 24" fill="none" xmlns="http://www.w3.org/2000/svg">
<path d="M7 6.6C6.64102 6.6 6.35 6.89102 6.35 7.25C6.35 7.60898 6.64102 7.9 7 7.9H17C17.359 7.9 17.65 7.60898 17.65 7.25C17.65 6.89102 17.359 6.6 17 6.6H7Z" fill="black"/>
<path d="M11.35 11C11.35 10.641 11.641 10.35 12 10.35H17C17.359 10.35 17.65 10.641 17.65 11C17.65 11.359 17.359 11.65 17 11.65H12C11.641 11.65 11.35 11.359 11.35 11Z" fill="black"/>
<path d="M12 14.85C11.641 14.85 11.35 15.141 11.35 15.5C11.35 15.859 11.641 16.15 12 16.15H17C17.359 16.15 17.65 15.859 17.65 15.5C17.65 15.141 17.359 14.85 17 14.85H12Z" fill="black"/>
<path fill-rule="evenodd" clip-rule="evenodd" d="M8.5 13C9.60457 13 10.5 12.1046 10.5 11C10.5 9.89543 9.60457 9 8.5 9C7.39543 9 6.5 9.89543 6.5 11C6.5 12.1046 7.39543 13 8.5 13ZM8.5 11.7C8.8866 11.7 9.2 11.3866 9.2 11C9.2 10.6134 8.8866 10.3 8.5 10.3C8.1134 10.3 7.8 10.6134 7.8 11C7.8 11.3866 8.1134 11.7 8.5 11.7Z" fill="black"/>
<path fill-rule="evenodd" clip-rule="evenodd" d="M10.5 15.5C10.5 16.6046 9.60457 17.5 8.5 17.5C7.39543 17.5 6.5 16.6046 6.5 15.5C6.5 14.3954 7.39543 13.5 8.5 13.5C9.60457 13.5 10.5 14.3954 10.5 15.5ZM9.2 15.5C9.2 15.8866 8.8866 16.2 8.5 16.2C8.1134 16.2 7.8 15.8866 7.8 15.5C7.8 15.1134 8.1134 14.8 8.5 14.8C8.8866 14.8 9.2 15.1134 9.2 15.5Z" fill="black"/>
<path fill-rule="evenodd" clip-rule="evenodd" d="M4 6C4 4.89543 4.89543 4 6 4H18C19.1046 4 20 4.89543 20 6V18C20 19.1046 19.1046 20 18 20H6C4.89543 20 4 19.1046 4 18V6ZM6 5.3H18C18.3866 5.3 18.7 5.6134 18.7 6V18C18.7 18.3866 18.3866 18.7 18 18.7H6C5.6134 18.7 5.3 18.3866 5.3 18V6C5.3 5.6134 5.6134 5.3 6 5.3Z" fill="black"/>
</svg>
