<svg width="24" height="24" viewBox="0 0 24 24" fill="none" xmlns="http://www.w3.org/2000/svg">
<path fill-rule="evenodd" clip-rule="evenodd" d="M6 4C4.89543 4 4 4.89543 4 6V18C4 19.1046 4.89543 20 6 20H18C19.1046 20 20 19.1046 20 18V6C20 4.89543 19.1046 4 18 4H6ZM7 6.6C6.64102 6.6 6.35 6.89102 6.35 7.25C6.35 7.60898 6.64102 7.9 7 7.9H17C17.359 7.9 17.65 7.60898 17.65 7.25C17.65 6.89102 17.359 6.6 17 6.6H7ZM12 10.35C11.641 10.35 11.35 10.641 11.35 11C11.35 11.359 11.641 11.65 12 11.65H17C17.359 11.65 17.65 11.359 17.65 11C17.65 10.641 17.359 10.35 17 10.35H12ZM12 14.85C11.641 14.85 11.35 15.141 11.35 15.5C11.35 15.859 11.641 16.15 12 16.15H17C17.359 16.15 17.65 15.859 17.65 15.5C17.65 15.141 17.359 14.85 17 14.85H12ZM8.5 17.5C9.60457 17.5 10.5 16.6046 10.5 15.5C10.5 14.3954 9.60457 13.5 8.5 13.5C7.39543 13.5 6.5 14.3954 6.5 15.5C6.5 16.6046 7.39543 17.5 8.5 17.5ZM9.2 15.5C9.2 15.8866 8.8866 16.2 8.5 16.2C8.1134 16.2 7.8 15.8866 7.8 15.5C7.8 15.1134 8.1134 14.8 8.5 14.8C8.8866 14.8 9.2 15.1134 9.2 15.5ZM8.5 13C9.60457 13 10.5 12.1046 10.5 11C10.5 9.89543 9.60457 9 8.5 9C7.39543 9 6.5 9.89543 6.5 11C6.5 12.1046 7.39543 13 8.5 13ZM9.2 11C9.2 11.3866 8.8866 11.7 8.5 11.7C8.1134 11.7 7.8 11.3866 7.8 11C7.8 10.6134 8.1134 10.3 8.5 10.3C8.8866 10.3 9.2 10.6134 9.2 11Z" fill="black"/>
</svg>
