<svg width="24" height="24" viewBox="0 0 24 24" fill="none" xmlns="http://www.w3.org/2000/svg">
<path d="M7.39759 4.39795C5.74087 4.39795 4.39783 5.74099 4.39783 7.39771V9.13125C4.39783 9.68349 4.84551 10.1312 5.39775 10.1312C5.94999 10.1312 6.39767 9.68349 6.39767 9.13125V7.39771C6.39767 6.84547 6.84535 6.39779 7.39759 6.39779H9.13114C9.68338 6.39779 10.1311 5.95011 10.1311 5.39787C10.1311 4.84563 9.68338 4.39795 9.13114 4.39795H7.39759Z" fill="black"/>
<path d="M6.39767 15.6647C6.39767 15.1125 5.94999 14.6648 5.39775 14.6648C4.84551 14.6648 4.39783 15.1125 4.39783 15.6647V17.3982C4.39783 19.055 5.74087 20.398 7.39759 20.398H9.13114C9.68338 20.398 10.1311 19.9503 10.1311 19.3981C10.1311 18.8458 9.68338 18.3982 9.13114 18.3982H7.39759C6.84535 18.3982 6.39767 17.9505 6.39767 17.3982V15.6647Z" fill="black"/>
<path d="M19.3979 14.6648C19.9501 14.6648 20.3978 15.1125 20.3978 15.6647V17.3982C20.3978 19.055 19.0548 20.398 17.3981 20.398H15.6645C15.1123 20.398 14.6646 19.9503 14.6646 19.3981C14.6646 18.8458 15.1123 18.3982 15.6645 18.3982H17.3981C17.9503 18.3982 18.398 17.9505 18.398 17.3982V15.6647C18.398 15.1125 18.8457 14.6648 19.3979 14.6648Z" fill="black"/>
<path d="M15.6645 4.39795C15.1123 4.39795 14.6646 4.84563 14.6646 5.39787C14.6646 5.95011 15.1123 6.39779 15.6645 6.39779H17.3981C17.9503 6.39779 18.398 6.84547 18.398 7.39771V9.13125C18.398 9.68349 18.8457 10.1312 19.3979 10.1312C19.9501 10.1312 20.3978 9.68349 20.3978 9.13125V7.39771C20.3978 5.74099 19.0548 4.39795 17.3981 4.39795H15.6645Z" fill="black"/>
</svg>
