<svg width="24" height="24" viewBox="0 0 24 24" fill="none" xmlns="http://www.w3.org/2000/svg">
<path d="M7.5 9.85C7.14102 9.85 6.85 10.141 6.85 10.5C6.85 10.859 7.14102 11.15 7.5 11.15H12C12.359 11.15 12.65 10.859 12.65 10.5C12.65 10.141 12.359 9.85 12 9.85H7.5Z" fill="black"/>
<path d="M10.35 13C10.35 12.641 10.641 12.35 11 12.35H16.5C16.859 12.35 17.15 12.641 17.15 13C17.15 13.359 16.859 13.65 16.5 13.65H11C10.641 13.65 10.35 13.359 10.35 13Z" fill="black"/>
<path d="M9 14.85C8.64102 14.85 8.35 15.141 8.35 15.5C8.35 15.859 8.64102 16.15 9 16.15H13.5C13.859 16.15 14.15 15.859 14.15 15.5C14.15 15.141 13.859 14.85 13.5 14.85H9Z" fill="black"/>
<path fill-rule="evenodd" clip-rule="evenodd" d="M6 4C4.89543 4 4 4.89543 4 6V18C4 19.1046 4.89543 20 6 20H18C19.1046 20 20 19.1046 20 18V6C20 4.89543 19.1046 4 18 4H6ZM6.15 5.3C5.68056 5.3 5.3 5.68056 5.3 6.15C5.3 6.61944 5.68056 7 6.15 7H17.85C18.3194 7 18.7 6.61944 18.7 6.15C18.7 5.68056 18.3194 5.3 17.85 5.3H6.15ZM5.3 9.3C5.3 8.74772 5.74772 8.3 6.3 8.3H17.7C18.2523 8.3 18.7 8.74772 18.7 9.3V17.7C18.7 18.2523 18.2523 18.7 17.7 18.7H6.3C5.74772 18.7 5.3 18.2523 5.3 17.7V9.3Z" fill="black"/>
</svg>
