<svg width="24" height="24" viewBox="0 0 24 24" fill="none" xmlns="http://www.w3.org/2000/svg">
<path fill-rule="evenodd" clip-rule="evenodd" d="M18.1795 9.9362L15.6633 8.22819C15.5631 8.16019 15.4762 8.07481 15.4069 7.9762L13.61 5.42148L12.4658 4.29107C12.073 3.90298 11.4361 3.90298 11.0433 4.29107L8.2912 7.01018C7.89839 7.39828 7.89839 8.0275 8.2912 8.4156L9.43534 9.54601L10.9315 10.5732L4.4355 16.9913C3.85483 17.565 3.85483 18.4951 4.4355 19.0688C5.01617 19.6425 5.95762 19.6425 6.53829 19.0688L13.0285 12.6565L14.0049 14.0607L15.218 15.2592C15.6108 15.6473 16.2477 15.6473 16.6405 15.2592L19.3926 12.5401C19.7854 12.152 19.7854 11.5228 19.3926 11.1347L18.1795 9.9362ZM12.4492 11.8235L12.2761 11.5747C12.2073 11.4757 12.1209 11.3899 12.0211 11.3213L11.7708 11.1495L5.14675 17.694C4.95889 17.8796 4.95889 18.1805 5.14675 18.3661C5.33461 18.5517 5.63919 18.5517 5.82705 18.3661L12.4492 11.8235ZM15.0937 9.04728L17.0346 10.3647L14.4386 12.9295L13.1052 11.0119C12.9675 10.814 12.7947 10.6423 12.5951 10.5052L10.5776 9.12012L13.1789 6.55008L14.5809 8.54331C14.7196 8.74053 14.8933 8.91128 15.0937 9.04728ZM17.8239 10.9903L15.0718 13.7094L15.9292 14.5565L18.6814 11.8374L17.8239 10.9903ZM9.00244 7.71289L9.79096 8.49194L12.5431 5.77283L11.7546 4.99378L9.00244 7.71289Z" fill="black"/>
<path d="M14.427 18.7002C14.0681 18.7002 13.7771 18.9912 13.7771 19.3501C13.7771 19.709 14.0681 20 14.427 20H19.3469C19.7058 20 19.9968 19.709 19.9968 19.3501C19.9968 18.9912 19.7058 18.7002 19.3469 18.7002H18.9274C18.9817 18.6052 19.0128 18.4952 19.0128 18.3779C19.0128 18.019 18.7218 17.728 18.3629 17.728H15.411C15.0521 17.728 14.7611 18.019 14.7611 18.3779C14.7611 18.4952 14.7922 18.6052 14.8465 18.7002H14.427Z" fill="black"/>
</svg>
