<svg width="24" height="24" viewBox="0 0 24 24" fill="none" xmlns="http://www.w3.org/2000/svg">
<path fill-rule="evenodd" clip-rule="evenodd" d="M13.3912 4.18309C14.1993 4.39132 14.937 4.7528 15.3827 5.11041L15.4103 5.13256L19.781 9.49881C20.0737 9.79116 20.0741 10.2655 19.782 10.5584L18.0801 12.2652C17.7874 12.5587 17.312 12.5587 17.0193 12.2652L15.4876 10.7292C15.3544 10.5956 15.1391 10.5956 15.0059 10.7292L10.7544 14.9927C10.7284 15.0188 10.7067 15.049 10.6901 15.0822L10.3735 15.7173C10.2947 15.8753 10.191 16.0196 10.0663 16.1446L7.95344 18.2635L7.95039 18.2677C7.54964 19.0715 6.47921 19.2468 5.84408 18.6099L4.38457 17.1462C3.75165 16.5115 3.92373 15.4413 4.7262 15.0389L4.73 15.0361L6.79113 12.9692C6.97123 12.7886 7.19094 12.6523 7.4329 12.5715L8.37052 12.258C8.42062 12.2413 8.46631 12.213 8.5039 12.1753L12.8003 7.8668C12.8398 7.82711 12.8516 7.79989 12.8542 7.79188C12.9438 7.51 12.9369 7.3147 12.9015 7.1832C12.867 7.05483 12.7931 6.94111 12.667 6.83814C12.3942 6.61554 11.8917 6.46241 11.2498 6.47282C10.6249 6.48295 9.99097 6.00274 9.99097 5.26981C9.99097 4.84655 10.2308 4.38295 10.7193 4.21016C11.6089 3.89554 12.5823 3.97465 13.3912 4.18309Z" fill="black"/>
</svg>
