<svg width="24" height="24" viewBox="0 0 24 24" fill="none" xmlns="http://www.w3.org/2000/svg">
<path d="M11.4286 13.3993C11.6276 13.3605 11.8521 13.2801 12.0473 13.1395C12.3309 12.9354 12.5714 12.5926 12.5714 12C12.5714 11.4074 12.3309 11.0646 12.0473 10.8604C11.8521 10.7199 11.6276 10.6395 11.4286 10.6007V13.3993Z" fill="black"/>
<path d="M14 10.5714V11.7143H15.1428C15.1614 11.7143 15.2273 11.7025 15.2903 11.6344C15.3494 11.5707 15.4286 11.4319 15.4286 11.1429C15.4286 10.8538 15.3494 10.715 15.2903 10.6513C15.2273 10.5832 15.1614 10.5714 15.1428 10.5714H14Z" fill="black"/>
<path fill-rule="evenodd" clip-rule="evenodd" d="M6 6C4.89543 6 4 6.89543 4 8V16C4 17.1046 4.89543 18 6 18H18C19.1046 18 20 17.1046 20 16V8C20 6.89543 19.1046 6 18 6H6ZM8.28571 10C8.44351 10 8.57143 10.1279 8.57143 10.2857V11.7143H9.71428V10.2857C9.71428 10.1279 9.8422 10 10 10C10.1578 10 10.2857 10.1279 10.2857 10.2857V13.7143C10.2857 13.8721 10.1578 14 10 14C9.8422 14 9.71428 13.8721 9.71428 13.7143V12.2857H8.57143V13.7143C8.57143 13.8721 8.44351 14 8.28571 14C8.12792 14 8 13.8721 8 13.7143V10.2857C8 10.1279 8.12792 10 8.28571 10ZM10.8571 10.2857C10.8571 10.1279 10.9851 10 11.1429 10C11.4743 10 11.9651 10.0971 12.3812 10.3967C12.8119 10.7068 13.1428 11.2212 13.1428 12C13.1428 12.7788 12.8119 13.2932 12.3812 13.6033C11.9651 13.9029 11.4743 14 11.1429 14C10.9851 14 10.8571 13.8721 10.8571 13.7143V10.2857ZM13.4286 10.2857C13.4286 10.1279 13.5565 10 13.7143 10H15.1428C15.3147 10 15.5345 10.0739 15.7096 10.263C15.8887 10.4564 16 10.7462 16 11.1429C16 11.5395 15.8887 11.8293 15.7096 12.0227C15.5345 12.2118 15.3147 12.2857 15.1428 12.2857H15L15.9428 13.5428C16.0375 13.6691 16.0119 13.8482 15.8857 13.9428C15.7595 14.0375 15.5804 14.0119 15.4857 13.8857L14.2857 12.2857H14V13.7143C14 13.8721 13.8721 14 13.7143 14C13.5565 14 13.4286 13.8721 13.4286 13.7143V10.2857Z" fill="black"/>
</svg>
