<svg width="24" height="24" viewBox="0 0 24 24" fill="none" xmlns="http://www.w3.org/2000/svg">
<path fill-rule="evenodd" clip-rule="evenodd" d="M7.38091 7.09885C6.55876 8.0872 6.3 9.28486 6.3 10.0718V12.9912H9.18399C9.73627 12.9912 10.184 13.4389 10.184 13.9912V16.996C10.184 17.5482 9.73627 17.996 9.18399 17.996H7C5.89543 17.996 5 17.1005 5 15.996V10.0718C5 9.05145 5.32444 7.53822 6.38149 6.26749C7.4599 4.97108 9.24059 4 12.0004 4C14.7602 4 16.5409 4.97108 17.6193 6.26749C18.6763 7.53822 19.0007 9.05145 19.0007 10.0718V13H19.004V16.0047C19.004 16.0475 19.0026 16.0899 19 16.132V17.3507C19 18.8143 17.8136 20.0007 16.35 20.0007H13C12.641 20.0007 12.35 19.7097 12.35 19.3507C12.35 18.9918 12.641 18.7007 13 18.7007H16.35C16.8912 18.7007 17.358 18.3823 17.5733 17.9225C17.3928 17.976 17.2018 18.0047 17.004 18.0047H14.82C14.2677 18.0047 13.82 17.557 13.82 17.0047V14C13.82 13.4477 14.2677 13 14.82 13H17.7007V10.0718C17.7007 9.28486 17.442 8.0872 16.6199 7.09885C15.8191 6.13619 14.4246 5.3 12.0004 5.3C9.57619 5.3 8.18169 6.13619 7.38091 7.09885Z" fill="black"/>
</svg>
