<svg width="24" height="24" viewBox="0 0 24 24" fill="none" xmlns="http://www.w3.org/2000/svg">
<path fill-rule="evenodd" clip-rule="evenodd" d="M11.3539 9.24396C11.3539 10.4111 10.4083 11.3572 9.24171 11.3572C8.07516 11.3572 7.12949 10.4111 7.12949 9.24396C7.12949 8.07686 8.07516 7.13074 9.24171 7.13074C10.4083 7.13074 11.3539 8.07686 11.3539 9.24396ZM9.24171 10.1628C9.7489 10.1628 10.1601 9.75139 10.1601 9.24396C10.1601 8.73653 9.7489 8.32517 9.24171 8.32517C8.73452 8.32517 8.32335 8.73653 8.32335 9.24396C8.32335 9.75139 8.73452 10.1628 9.24171 10.1628Z" fill="black"/>
<path fill-rule="evenodd" clip-rule="evenodd" d="M12.0003 4C7.58187 4 4 7.58187 4 12.0003C4 16.4188 7.58187 20.0006 12.0003 20.0006C16.4188 20.0006 20.0006 16.4188 20.0006 12.0003C20.0006 7.58187 16.4188 4 12.0003 4ZM5.3 12.0003C5.3 8.29984 8.29984 5.3 12.0003 5.3C15.7008 5.3 18.7006 8.29984 18.7006 12.0003C18.7006 12.7281 18.5846 13.4287 18.3701 14.0848L18.1498 13.8007L16.4433 11.6666C15.8116 10.8766 14.5985 10.9155 14.0187 11.7443L12.1355 14.4359C12.0209 14.5997 11.7862 14.6202 11.6449 14.4788L10.1962 13.0294C9.68542 12.5184 8.88516 12.4392 8.28416 12.84L5.81563 14.5824C5.48347 13.7878 5.3 12.9155 5.3 12.0003ZM6.3333 15.5767C7.52054 17.454 9.61485 18.7006 12.0003 18.7006C14.4971 18.7006 16.675 17.3349 17.8276 15.3098L15.511 12.4128C15.3771 12.2452 15.1197 12.2534 14.9967 12.4292L13.1135 15.1208C12.5732 15.8931 11.4669 15.99 10.8007 15.3234L9.35198 13.874C9.24364 13.7656 9.07389 13.7488 8.9464 13.8338L6.3333 15.5767Z" fill="black"/>
</svg>
