<svg width="24" height="24" viewBox="0 0 24 24" fill="none" xmlns="http://www.w3.org/2000/svg">
<path fill-rule="evenodd" clip-rule="evenodd" d="M6 4C4.89543 4 4 4.89543 4 6V18C4 19.1046 4.89543 20 6 20H18C19.1046 20 20 19.1046 20 18V6C20 4.89543 19.1046 4 18 4H6ZM13.0862 10.6319C13.0941 10.2853 12.8152 10 12.4685 10C12.1272 10 11.8505 10.2766 11.8505 10.6179V15.25C11.8505 15.5187 11.7543 15.7785 11.5794 15.9825C11.4044 16.1864 11.1622 16.321 10.8967 16.3619C10.6311 16.4028 10.3596 16.3473 10.1314 16.2054C10.0644 16.1637 10.0024 16.1153 9.94618 16.0613C9.72212 15.8461 9.41242 15.664 9.11616 15.7575C8.81989 15.8509 8.64997 16.1726 8.81379 16.4365C8.99488 16.7282 9.24165 16.9768 9.53736 17.1607C9.99378 17.4445 10.5366 17.5556 11.0678 17.4738C11.5989 17.392 12.0833 17.1229 12.4332 16.715C12.7832 16.3071 12.9755 16.0374 12.9755 15.5L13.0862 10.6319ZM14 11C14 10.5 14.5 10 15 10H17.4461C17.752 10 18 10.248 18 10.554C18 10.8599 17.752 11.108 17.4461 11.108H15.4593C15.3212 11.108 15.2093 11.2199 15.2093 11.358V13.1591C15.2093 13.2972 15.3212 13.4091 15.4593 13.4091H17C17.4649 13.4091 18 14 18 14.5V16.5C18 17 17.5 17.5 17 17.5H14.554C14.2481 17.5 14 17.252 14 16.946C14 16.6401 14.2481 16.392 14.554 16.392H16.5407C16.6788 16.392 16.7907 16.2801 16.7907 16.142V14.75C16.7907 14.6119 16.6788 14.5 16.5407 14.5H15C14.5 14.5 14 14 14 13.5V11Z" fill="black"/>
</svg>
