<svg width="24" height="24" viewBox="0 0 24 24" fill="none" xmlns="http://www.w3.org/2000/svg">
<path d="M20 8.7125C20 8.319 19.6958 8 19.3205 8C18.9452 8 18.6409 8.319 18.6409 8.7125V11.8689L17.4499 8.74801C17.1292 7.90763 15.9379 8.14827 15.9379 9.05341V15.2875C15.9379 15.681 16.2421 16 16.6174 16C16.9927 16 17.2969 15.681 17.2969 15.2875V12.1831L18.4879 15.304C18.8086 16.1444 20 15.9038 20 14.9986V8.7125Z" fill="black"/>
<path d="M6.69124 8.72613C6.69124 8.33263 6.387 8.01363 6.0117 8.01363C5.6364 8.01363 5.33215 8.33263 5.33215 8.72613V14.4166H4.67955C4.30424 14.4166 4 14.7356 4 15.1291C4 15.5226 4.30424 15.8416 4.67955 15.8416H5.48897C6.15297 15.8416 6.69124 15.2772 6.69124 14.581V8.72613Z" fill="black"/>
<path fill-rule="evenodd" clip-rule="evenodd" d="M12.5443 8.01363C12.0246 8.01363 11.6033 8.45532 11.6033 9.00017V14.855C11.6033 15.3999 12.0246 15.8416 12.5443 15.8416H14.1529C14.6726 15.8416 15.0939 15.3999 15.0939 14.855V9.00017C15.0939 8.45532 14.6726 8.01363 14.1529 8.01363H12.5443ZM12.9624 14.4166V9.43863H13.7348V14.4166H12.9624Z" fill="black"/>
<path d="M7.80167 9.00017C7.80167 8.45532 8.22293 8.01363 8.74257 8.01363H10.0798C10.4551 8.01363 10.7593 8.33263 10.7593 8.72613C10.7593 9.11963 10.4551 9.43863 10.0798 9.43863H9.16076V11.2151H9.81843C10.3381 11.2151 10.7593 11.6568 10.7593 12.2016V14.855C10.7593 15.3999 10.3381 15.8416 9.81843 15.8416H8.21478C7.83948 15.8416 7.53523 15.5226 7.53523 15.1291C7.53523 14.7356 7.83948 14.4166 8.21478 14.4166H9.40025V12.6401H8.74257C8.22292 12.6401 7.80167 12.1984 7.80167 11.6536V9.00017Z" fill="black"/>
</svg>
