<svg width="24" height="24" viewBox="0 0 24 24" fill="none" xmlns="http://www.w3.org/2000/svg">
<path d="M18.8807 4C19.8732 4 20.3596 5.09787 19.6434 5.72159L12.9966 11.5103L4.92738 18.3715C4.57553 18.6707 4 18.4442 4 18.0066V12.9475C4 12.8149 4.05806 12.6876 4.16139 12.5939L13.4704 4.14639C13.5737 4.05266 13.7137 4 13.8598 4H18.8807Z" fill="black"/>
<path d="M19.6607 18.2801C20.3743 18.9045 19.8874 20 18.8961 20H6.48253C5.98308 20 5.74146 19.445 6.10597 19.1351L13.0942 13.1931C13.3082 13.0111 13.6419 13.0133 13.853 13.198L19.6607 18.2801Z" fill="black"/>
<path d="M10.2938 4C10.7846 4 11.0303 4.53865 10.6832 4.85361L4.94025 10.0651C4.59323 10.38 4 10.1569 4 9.71151V5C4 4.44772 4.49322 4 5.10164 4H10.2938Z" fill="black"/>
</svg>
