<svg width="24" height="24" viewBox="0 0 24 24" fill="none" xmlns="http://www.w3.org/2000/svg">
<path d="M19.6419 4.22551C20.0324 4.61603 20.0324 5.2492 19.6419 5.63972L18.7667 6.51484C18.3762 6.90536 17.743 6.90536 17.3525 6.51484C16.962 6.12431 16.962 5.49115 17.3525 5.10062L18.2276 4.22551C18.6182 3.83499 19.2513 3.83499 19.6419 4.22551Z" fill="black"/>
<path d="M17.0165 6.85085C17.407 7.24138 17.407 7.87454 17.0165 8.26507L15.2663 10.0153C14.8758 10.4058 14.2426 10.4058 13.8521 10.0153C13.4615 9.62477 13.4615 8.99161 13.8521 8.60108L15.6023 6.85085C15.9928 6.46033 16.626 6.46033 17.0165 6.85085Z" fill="black"/>
<path d="M13.5161 10.3513C13.9066 10.7418 13.9066 11.375 13.5161 11.7655L11.7658 13.5157C11.3753 13.9063 10.7421 13.9063 10.3516 13.5157C9.96109 13.1252 9.96109 12.4921 10.3516 12.1015L12.1018 10.3513C12.4924 9.96078 13.1255 9.96078 13.5161 10.3513Z" fill="black"/>
<path d="M10.0156 13.8518C10.4061 14.2423 10.4061 14.8755 10.0156 15.266L8.26537 17.0162C7.87485 17.4067 7.24168 17.4067 6.85116 17.0162C6.46063 16.6257 6.46063 15.9925 6.85116 15.602L8.60139 13.8518C8.99191 13.4612 9.62507 13.4612 10.0156 13.8518Z" fill="black"/>
<path d="M6.51514 17.3522C6.90567 17.7427 6.90567 18.3759 6.51514 18.7664L5.64003 19.6415C5.2495 20.0321 4.61634 20.0321 4.22582 19.6415C3.83529 19.251 3.83529 18.6179 4.22582 18.2273L5.10093 17.3522C5.49145 16.9617 6.12462 16.9617 6.51514 17.3522Z" fill="black"/>
</svg>
