<svg width="24" height="24" viewBox="0 0 24 24" fill="none" xmlns="http://www.w3.org/2000/svg">
<path fill-rule="evenodd" clip-rule="evenodd" d="M12 8.39746C10.5307 8.39746 9.35 9.59821 9.35 11.0664C9.35 12.5347 10.5307 13.7354 12 13.7354C13.4693 13.7354 14.65 12.5347 14.65 11.0664C14.65 9.59821 13.4693 8.39746 12 8.39746ZM10.65 11.0664C10.65 10.3046 11.2602 9.69746 12 9.69746C12.7398 9.69746 13.35 10.3046 13.35 11.0664C13.35 11.8283 12.7398 12.4354 12 12.4354C11.2602 12.4354 10.65 11.8283 10.65 11.0664Z" fill="black"/>
<path fill-rule="evenodd" clip-rule="evenodd" d="M19 11.0664C19 14.4582 15.9788 16.9106 13.2184 19.1513C12.9153 19.3973 12.6153 19.6408 12.3229 19.8827C12.1355 20.0376 11.8645 20.0376 11.6771 19.8827C11.3847 19.6408 11.0847 19.3974 10.7817 19.1513C8.02133 16.9107 5 14.4582 5 11.0664C5 7.16376 8.13401 4 12 4C15.866 4 19 7.16376 19 11.0664ZM17.7 11.0664C17.7 12.4865 17.0062 13.7785 15.8085 15.0943C14.8386 16.1598 13.6568 17.1198 12.4364 18.111L12.4355 18.1118C12.3432 18.1868 12.2507 18.2619 12.1581 18.3373C12.066 18.4122 11.934 18.4122 11.8419 18.3373C11.749 18.2616 11.6562 18.1863 11.5636 18.111C10.3432 17.1198 9.16138 16.1598 8.19145 15.0943C6.99381 13.7785 6.3 12.4865 6.3 11.0664C6.3 7.87012 8.86353 5.3 12 5.3C15.1365 5.3 17.7 7.87012 17.7 11.0664Z" fill="black"/>
</svg>
