<svg width="24" height="24" viewBox="0 0 24 24" fill="none" xmlns="http://www.w3.org/2000/svg">
<path fill-rule="evenodd" clip-rule="evenodd" d="M18.435 5.42696C19.0984 4.95958 20.0019 5.44571 20.0019 6.27006V14.7708C20.0019 15.1076 19.84 15.4229 19.5689 15.6139L15.0183 18.8196C14.6768 19.0601 14.2258 19.0601 13.8843 18.8196L10.1176 16.1661C9.77616 15.9256 9.32513 15.9256 8.98369 16.1661L5.56696 18.573C4.9035 19.0404 4 18.5543 4 17.7299V9.22922C4 8.89238 4.16193 8.5771 4.43304 8.38612L8.98368 5.1804C9.32513 4.93987 9.77617 4.93987 10.1176 5.1804L13.8843 7.83388C14.2258 8.07441 14.6768 8.07441 15.0183 7.83388L18.435 5.42696ZM13.8013 9.52515C13.8013 9.44094 13.7608 9.36212 13.693 9.31437L10.5924 7.13011C10.4265 7.01327 10.2006 7.1348 10.2006 7.34089V14.4748C10.2006 14.5591 10.2411 14.6379 10.3089 14.6856L13.4096 16.8699C13.5754 16.9867 13.8013 16.8652 13.8013 16.6591V9.52515ZM15.1013 16.6591C15.1013 16.8652 15.3272 16.9867 15.493 16.8699L18.5937 14.6856C18.6615 14.6379 18.7019 14.5591 18.7019 14.4748V7.34089C18.7019 7.1348 18.4761 7.01327 18.3102 7.13011L15.2096 9.31437C15.1418 9.36212 15.1013 9.44094 15.1013 9.52515V16.6591ZM8.79239 14.6856C8.86016 14.6379 8.90065 14.5591 8.90065 14.4748V7.34089C8.90065 7.1348 8.67477 7.01327 8.50891 7.13011L5.40826 9.31437C5.34048 9.36212 5.3 9.44094 5.3 9.52515V16.6591C5.3 16.8652 5.52588 16.9867 5.69174 16.8699L8.79239 14.6856Z" fill="black"/>
</svg>
