<svg width="24" height="24" viewBox="0 0 24 24" fill="none" xmlns="http://www.w3.org/2000/svg">
<path d="M4.65002 6C4.29102 6 4 6.29102 4 6.64999C4 7.00897 4.29102 7.29999 4.65002 7.29999H19.35C19.709 7.29999 20 7.00897 20 6.64999C20 6.29102 19.709 6 19.35 6H4.65002Z" fill="black"/>
<path d="M4 11.65C4 11.291 4.29102 11 4.65002 11H19.35C19.709 11 20 11.291 20 11.65C20 12.009 19.709 12.3 19.35 12.3H4.65002C4.29102 12.3 4 12.009 4 11.65Z" fill="black"/>
<path d="M4 16.65C4 16.291 4.29102 16 4.65002 16H19.35C19.709 16 20 16.291 20 16.65C20 17.009 19.709 17.3 19.35 17.3H4.65002C4.29102 17.3 4 17.009 4 16.65Z" fill="black"/>
</svg>
