<svg width="24" height="24" viewBox="0 0 24 24" fill="none" xmlns="http://www.w3.org/2000/svg">
<path d="M12.15 10.0878V12.5038H10.8413L12.15 10.0878Z" fill="black"/>
<path fill-rule="evenodd" clip-rule="evenodd" d="M12 20C16.4183 20 20 16.4183 20 12C20 7.58172 16.4183 4 12 4C7.58172 4 4 7.58172 4 12C4 16.4183 7.58172 20 12 20ZM12 8.35C11.7615 8.35 11.5421 8.48067 11.4285 8.69042L9.42846 12.3827C9.37697 12.4778 9.35 12.5842 9.35 12.6923V13.1538C9.35 13.5128 9.64102 13.8038 10 13.8038H12.15V15C12.15 15.359 12.441 15.65 12.8 15.65C13.159 15.65 13.45 15.359 13.45 15V13.8038H14C14.359 13.8038 14.65 13.5128 14.65 13.1538C14.65 12.7949 14.359 12.5038 14 12.5038H13.45V9C13.45 8.64102 13.159 8.35 12.8 8.35H12Z" fill="black"/>
</svg>
