<svg width="24" height="24" viewBox="0 0 24 24" fill="none" xmlns="http://www.w3.org/2000/svg">
<path d="M17 12H18C18.2712 12 18.5298 12.054 18.7656 12.1518L18.3825 13.0755C18.266 13.0272 18.1374 13 18 13H17V12Z" fill="black"/>
<path d="M20 18V17H19V18C19 18.1374 18.9728 18.266 18.9245 18.3825L19.8482 18.7656C19.946 18.5298 20 18.2712 20 18Z" fill="black"/>
<path d="M13 20H15V19H13V20Z" fill="black"/>
<path d="M17 20H18C18.2712 20 18.5298 19.946 18.7656 19.8482L18.3825 18.9245C18.266 18.9728 18.1374 19 18 19H17V20Z" fill="black"/>
<path d="M20 15V14C20 13.7288 19.946 13.4702 19.8482 13.2344L18.9245 13.6175C18.9728 13.734 19 13.8626 19 14V15H20Z" fill="black"/>
<path d="M15 12H13V13H15V12Z" fill="black"/>
<path fill-rule="evenodd" clip-rule="evenodd" d="M10 4C11.1046 4 12 4.89543 12 6L12 18C12 19.1046 11.1046 20 10 20H6C4.89543 20 4 19.1046 4 18V6C4 4.89543 4.89543 4 6 4H10ZM6 5.3H10C10.3866 5.3 10.7 5.6134 10.7 6L10.7 18C10.7 18.3866 10.3866 18.7 10 18.7L6 18.7C5.6134 18.7 5.3 18.3866 5.3 18L5.3 6C5.3 5.6134 5.6134 5.3 6 5.3Z" fill="black"/>
<path d="M16.3113 8.7021L16.5172 8.81444C16.4262 8.481 16.2936 8.14165 16.1093 7.83442C15.706 7.16232 15.0674 6.65 14 6.65C13.641 6.65 13.35 6.35898 13.35 6C13.35 5.64101 13.641 5.35 14 5.35C15.5993 5.35 16.6273 6.17101 17.224 7.16558C17.3882 7.43923 17.5205 7.72616 17.6257 8.01392C17.8086 7.88538 18.053 7.8547 18.2708 7.95456C18.5972 8.10414 18.7405 8.48994 18.5909 8.81628L17.8572 10.417C17.7365 10.6805 17.4177 10.7864 17.1633 10.6476L15.6887 9.84336C15.3736 9.67146 15.2575 9.27662 15.4294 8.96147C15.6013 8.64632 15.9961 8.53019 16.3113 8.7021Z" fill="black"/>
</svg>
