<svg width="24" height="24" viewBox="0 0 24 24" fill="none" xmlns="http://www.w3.org/2000/svg">
<path fill-rule="evenodd" clip-rule="evenodd" d="M6 7C4.89545 7 4 7.89543 4 9V15C4 16.1046 4.89545 17 6 17H18C19.1046 17 20 16.1046 20 15V9C20 7.89543 19.1046 7 18 7H6ZM6.29291 12L6.00001 11.7071C5.80473 11.5118 5.80474 11.1952 6.00002 11C6.19528 10.8047 6.51186 10.8047 6.70712 11L7 11.2929L7.29288 11C7.48814 10.8047 7.80472 10.8047 7.99998 11C8.19526 11.1952 8.19527 11.5118 7.99999 11.7071L7.70709 12L7.99999 12.2929C8.19527 12.4882 8.19526 12.8048 7.99998 13C7.80472 13.1953 7.48814 13.1953 7.29288 13L7 12.7071L6.70712 13C6.51186 13.1953 6.19528 13.1953 6.00002 13C5.80474 12.8048 5.80473 12.4882 6.00001 12.2929L6.29291 12ZM9.5929 12L9.3 11.7071C9.10472 11.5118 9.10472 11.1952 9.3 11C9.49527 10.8047 9.81185 10.8047 10.0071 11L10.3 11.2929L10.5929 11C10.7881 10.8047 11.1047 10.8047 11.3 11C11.4953 11.1952 11.4953 11.5118 11.3 11.7071L11.0071 12L11.3 12.2929C11.4953 12.4882 11.4953 12.8048 11.3 13C11.1047 13.1953 10.7881 13.1953 10.5929 13L10.3 12.7071L10.0071 13C9.81185 13.1953 9.49527 13.1953 9.3 13C9.10472 12.8048 9.10472 12.4882 9.3 12.2929L9.5929 12ZM12.6 11C12.4047 11.1952 12.4047 11.5118 12.6 11.7071L12.8929 12L12.6 12.2929C12.4047 12.4882 12.4047 12.8048 12.6 13C12.7953 13.1953 13.1118 13.1953 13.3071 13L13.6 12.7071L13.8929 13C14.0881 13.1953 14.4047 13.1953 14.6 13C14.7952 12.8048 14.7952 12.4882 14.6 12.2929L14.3071 12L14.6 11.7071C14.7952 11.5118 14.7952 11.1952 14.6 11C14.4047 10.8047 14.0881 10.8047 13.8929 11L13.6 11.2929L13.3071 11C13.1118 10.8047 12.7953 10.8047 12.6 11ZM16.1929 12L15.9 11.7071C15.7047 11.5118 15.7047 11.1952 15.9 11C16.0952 10.8047 16.4118 10.8047 16.6071 11L16.9 11.2929L17.1928 11C17.3881 10.8047 17.7047 10.8047 17.8999 11C18.0952 11.1952 18.0952 11.5118 17.9 11.7071L17.6071 12L17.9 12.2929C18.0952 12.4882 18.0952 12.8048 17.8999 13C17.7047 13.1953 17.3881 13.1953 17.1928 13L16.9 12.7071L16.6071 13C16.4118 13.1953 16.0952 13.1953 15.9 13C15.7047 12.8048 15.7047 12.4882 15.9 12.2929L16.1929 12Z" fill="black"/>
</svg>
