<svg width="24" height="24" viewBox="0 0 24 24" fill="none" xmlns="http://www.w3.org/2000/svg">
<path fill-rule="evenodd" clip-rule="evenodd" d="M7.16116 12.8933C6.54176 12.5115 6.54176 11.6435 7.16116 11.2618L18.4408 4.31044C19.114 3.89555 19.9994 4.35893 19.9994 5.12616L19.9994 19.0289C19.9994 19.7962 19.114 20.2595 18.4408 19.8446L7.16116 12.8933ZM18.6994 17.5815C18.6994 17.9728 18.2702 18.2125 17.9371 18.0072L9.00608 12.5032C8.68918 12.3079 8.68918 11.8472 9.00608 11.6519L17.9371 6.14792C18.2702 5.94263 18.6994 6.18228 18.6994 6.57359L18.6994 17.5815Z" fill="black"/>
<path d="M4 19.0099C4 19.3689 4.29101 19.6599 4.65 19.6599C5.00898 19.6599 5.3 19.3689 5.3 19.0099L5.3 4.65C5.3 4.29101 5.00899 4 4.65 4C4.29102 4 4 4.29101 4 4.65L4 19.0099Z" fill="black"/>
</svg>
