<svg width="24" height="24" viewBox="0 0 24 24" fill="none" xmlns="http://www.w3.org/2000/svg">
<path fill-rule="evenodd" clip-rule="evenodd" d="M12 20C16.4183 20 20 16.4183 20 12C20 7.58172 16.4183 4 12 4C7.58172 4 4 7.58172 4 12C4 16.4183 7.58172 20 12 20ZM10.615 9.80144C10.6336 9.67747 10.6686 9.55598 10.7196 9.44031C10.8227 9.20657 10.9875 9.00506 11.1957 8.85824C11.4042 8.71142 11.6491 8.62415 11.9031 8.60648C12.1571 8.58884 12.4111 8.64112 12.6378 8.75773C12.8642 8.87434 13.0552 9.051 13.1894 9.26827C13.3235 9.48558 13.3964 9.73599 13.3998 9.99167C13.4032 10.2474 13.3372 10.4991 13.2089 10.72C13.0968 10.9127 12.9407 11.076 12.7544 11.1958L12.7508 11.1971C12.7254 11.2118 12.7004 11.2271 12.6757 11.2428L12.673 11.2444L12.6708 11.2456C12.5115 11.3481 12.3681 11.473 12.2442 11.6153C12.1572 11.7153 12.0799 11.8242 12.0137 11.9404C11.9476 12.0567 11.8932 12.1793 11.8516 12.3054C11.7878 12.4985 11.7533 12.7009 11.75 12.9057L11.7497 12.9384V14.1132C11.7497 14.2799 11.884 14.4151 12.0497 14.4151C12.2155 14.4151 12.3498 14.2799 12.3498 14.1132V12.9541C12.3471 12.7041 12.4108 12.4578 12.5341 12.2407C12.6445 12.0467 12.7993 11.8818 12.9849 11.7601C13.1693 11.6552 13.3352 11.522 13.477 11.3659C13.5714 11.2619 13.6551 11.1478 13.7265 11.0252C13.91 10.7096 14.0047 10.3492 13.9998 9.98364C13.995 9.61811 13.8911 9.26081 13.6992 8.95021C13.5074 8.63984 13.2348 8.38736 12.9112 8.22087C12.5876 8.05446 12.2245 7.9796 11.8619 8.00478C11.4992 8.02998 11.1502 8.15404 10.8524 8.3636C10.5546 8.57328 10.3189 8.86091 10.1714 9.1949C10.1033 9.34919 10.055 9.51119 10.0273 9.67611C10.0187 9.72709 10.0121 9.77839 10.0075 9.8299C10.0037 9.87293 10.0012 9.91611 10.0001 9.95936C9.99587 10.126 10.1482 10.2437 10.3126 10.223C10.4466 10.2061 10.5465 10.1021 10.587 9.97438C10.5963 9.94528 10.6024 9.91495 10.6052 9.88414C10.6077 9.85648 10.6109 9.8289 10.615 9.80144ZM12.4998 15.5597C12.4998 15.8029 12.3039 16 12.0623 16C11.8206 16 11.6247 15.8029 11.6247 15.5597C11.6247 15.3166 11.8206 15.1195 12.0623 15.1195C12.3039 15.1195 12.4998 15.3166 12.4998 15.5597Z" fill="black"/>
</svg>
