<svg width="24" height="24" viewBox="0 0 24 24" fill="none" xmlns="http://www.w3.org/2000/svg">
<path d="M4.64992 4C5.00887 4 5.29985 4.29098 5.29985 4.64992V19.3501C5.29985 19.709 5.00887 20 4.64992 20C4.29098 20 4 19.709 4 19.3501V4.64992C4 4.29098 4.29098 4 4.64992 4Z" fill="black"/>
<path d="M19.3501 4C19.709 4 20 4.29098 20 4.64992V19.3501C20 19.709 19.709 20 19.3501 20C18.9911 20 18.7002 19.709 18.7002 19.3501V4.64992C18.7002 4.29098 18.9911 4 19.3501 4Z" fill="black"/>
<path d="M12.6499 4.64992C12.6499 4.29098 12.3589 4 12 4C11.6411 4 11.3501 4.29098 11.3501 4.64992V7.58995C11.3501 7.94889 11.6411 8.23987 12 8.23987C12.3589 8.23987 12.6499 7.94889 12.6499 7.58995V4.64992Z" fill="black"/>
<path d="M12 9.88008C12.3589 9.88008 12.6499 10.1711 12.6499 10.53V13.47C12.6499 13.829 12.3589 14.1199 12 14.1199C11.6411 14.1199 11.3501 13.829 11.3501 13.47V10.53C11.3501 10.1711 11.6411 9.88008 12 9.88008Z" fill="black"/>
<path d="M12.6499 16.41C12.6499 16.0511 12.3589 15.7601 12 15.7601C11.6411 15.7601 11.3501 16.0511 11.3501 16.41V19.3501C11.3501 19.709 11.6411 20 12 20C12.3589 20 12.6499 19.709 12.6499 19.3501V16.41Z" fill="black"/>
</svg>
