<svg width="24" height="24" viewBox="0 0 24 24" fill="none" xmlns="http://www.w3.org/2000/svg">
<path d="M5.3 9C5.3 11.0435 6.95655 12.7 9 12.7V14C6.23858 14 4 11.7614 4 9C4 6.23858 6.23858 4 9 4C11.7614 4 14 6.23858 14 9H12.7C12.7 6.95655 11.0435 5.3 9 5.3C6.95655 5.3 5.3 6.95655 5.3 9Z" fill="black"/>
<path fill-rule="evenodd" clip-rule="evenodd" d="M10 12C10 10.8954 10.8954 10 12 10H18C19.1046 10 20 10.8954 20 12V18C20 19.1046 19.1046 20 18 20H12C10.8954 20 10 19.1046 10 18V12ZM12 11.3H18C18.3866 11.3 18.7 11.6134 18.7 12V18C18.7 18.3866 18.3866 18.7 18 18.7H12C11.6134 18.7 11.3 18.3866 11.3 18V12C11.3 11.6134 11.6134 11.3 12 11.3Z" fill="black"/>
</svg>
