<svg width="24" height="24" viewBox="0 0 24 24" fill="none" xmlns="http://www.w3.org/2000/svg">
<path fill-rule="evenodd" clip-rule="evenodd" d="M9 15H6C4.89543 15 4 14.1046 4 13V6C4 4.89543 4.89543 4 6 4H13C14.1046 4 15 4.89543 15 6V9H18C19.1046 9 20 9.89543 20 11V18C20 19.1046 19.1046 20 18 20H11C9.89543 20 9 19.1046 9 18V15ZM6 5.3H6.49289L5.3 6.49289V6C5.3 5.6134 5.6134 5.3 6 5.3ZM5.3 7.90711L7.90711 5.3H8.49289L5.3 8.49289V7.90711ZM5.3 9.90711V10.4929L10.4929 5.3H9.90711L5.3 9.90711ZM5.3 12.4929V11.9071L11.9071 5.3H12.4929L5.3 12.4929ZM5.61947 13.5876C5.72902 13.6587 5.85969 13.7 6 13.7H6.09289L9.01185 10.781C9.05036 10.4274 9.18107 10.1014 9.37944 9.82767L5.61947 13.5876ZM8.12951 13.7H7.50711L9 12.2071V12.8965L8.12951 13.7ZM13.7 13C13.7 13.3866 13.3866 13.7 13 13.7H10.5C10.3895 13.7 10.3 13.6104 10.3 13.5V11C10.3 10.6134 10.6134 10.3 11 10.3H13.5C13.6104 10.3 13.7 10.3895 13.7 10.5V13ZM10.9023 15H10.3V15.5646L10.9023 15ZM10.3 16.9354V17.5289L12.9777 15H12.3644L10.3 16.9354ZM11 18.7C10.8637 18.7 10.7366 18.6611 10.629 18.5937L18.6994 10.9716C18.6998 10.981 18.7 10.9905 18.7 11V11.5663L11.1205 18.7H11ZM12.5795 18.7H13.1295L18.7 13.558V12.9396L12.5795 18.7ZM15.1474 18.7H14.6038L18.7 14.9189V15.5421L15.1474 18.7ZM16.6526 18.7H17.1996L18.7 17.4997V16.8801L16.6526 18.7ZM17.3777 10.3H17.9542L14.9979 13.092C14.9993 13.0615 15 13.0308 15 13V12.5291L17.3777 10.3ZM15 11.1584L15.9156 10.3H15.3633L15 10.6303V11.1584ZM13.7 8.55801L13.2212 9H12.2071L13.7 7.50711V8.55801ZM13.7 6V6.09289L10.781 9.01185C10.4274 9.05036 10.1014 9.18107 9.82767 9.37944L13.5876 5.61947C13.6587 5.72902 13.7 5.85969 13.7 6Z" fill="black"/>
</svg>
