<svg width="24" height="24" viewBox="0 0 24 24" fill="none" xmlns="http://www.w3.org/2000/svg">
<path fill-rule="evenodd" clip-rule="evenodd" d="M12.4755 4.11806C12.1681 3.95103 11.7957 3.96187 11.4983 4.14652L5.46592 7.89179C5.17638 8.07156 5 8.39 5 8.733V15.7414C5 16.1047 5.19775 16.4388 5.51487 16.611L11.5359 19.8819C11.8256 20.0394 12.1744 20.0394 12.4641 19.8819L18.4851 16.611C18.8022 16.4388 19 16.1047 19 15.7414V8.25245C19 7.88907 18.8022 7.55505 18.4851 7.38277L12.4755 4.11806ZM11.9203 5.39221C11.9828 5.35344 12.061 5.35116 12.1255 5.38624L17.1761 8.13004C17.3175 8.20684 17.3209 8.41021 17.1822 8.49184L12.3388 11.3423C12.0381 11.5193 11.8531 11.8442 11.8531 12.1955V18.2487C11.8531 18.4056 11.687 18.5057 11.5501 18.4313L6.38089 15.6231C6.3143 15.5869 6.27277 15.5168 6.27277 15.4405V9.0145C6.27277 8.94247 6.30981 8.8756 6.37061 8.83784L11.9203 5.39221ZM14.3051 12.8915C14.4346 12.8745 14.5543 12.974 14.5724 13.1138L14.6041 13.3593C14.6103 13.4066 14.65 13.4404 14.6928 13.4347L14.828 13.4274C14.9575 13.4104 15.0772 13.5099 15.0953 13.6497C15.1134 13.7896 15.0231 13.9168 14.8936 13.9338L14.3975 13.9887C14.3547 13.9943 14.3249 14.0373 14.3311 14.0846L14.3694 14.3806C14.3755 14.428 14.4152 14.4618 14.458 14.4561L14.9081 14.3968C15.0152 14.3827 15.1145 14.4672 15.1298 14.5855L15.2407 15.4425C15.256 15.5609 15.1816 15.6682 15.0745 15.6823L14.9852 15.6941C14.9424 15.6997 14.9126 15.7427 14.9187 15.79L14.9505 16.0354C14.9686 16.1753 14.8783 16.3024 14.7487 16.3195C14.6192 16.3366 14.4996 16.237 14.4815 16.0972L14.4497 15.8518C14.4436 15.8045 14.4039 15.7707 14.361 15.7763L14.1319 15.8065C14.0024 15.8235 13.8828 15.724 13.8647 15.5842C13.8466 15.4443 13.9369 15.3171 14.0664 15.3001L14.6563 15.2224C14.6991 15.2167 14.7289 15.1738 14.7228 15.1265L14.7097 15.0252C14.7035 14.9778 14.6638 14.944 14.621 14.9497L14.1709 15.009C14.0638 15.0231 13.9646 14.9386 13.9493 14.8203L13.8132 13.7685C13.7978 13.6502 13.8722 13.5428 13.9793 13.5287L14.0686 13.517C14.1115 13.5113 14.1412 13.4684 14.1351 13.421L14.1034 13.1756C14.0853 13.0358 14.1756 12.9086 14.3051 12.8915ZM15.5398 15.9587C15.4812 15.8358 15.5325 15.6882 15.6543 15.6292L16.3161 15.3082C16.4379 15.2491 16.5842 15.3008 16.6427 15.4237C16.7013 15.5466 16.65 15.6942 16.5282 15.7533L15.8664 16.0743C15.7446 16.1333 15.5984 16.0816 15.5398 15.9587Z" fill="black"/>
</svg>
