<svg width="24" height="24" viewBox="0 0 24 24" fill="none" xmlns="http://www.w3.org/2000/svg">
<path fill-rule="evenodd" clip-rule="evenodd" d="M12 12C12 13.6569 10.6569 15 9 15C7.34315 15 6 13.6569 6 12C6 10.3431 7.34315 9 9 9C10.6569 9 12 10.3431 12 12ZM10.7 12C10.7 12.9389 9.93888 13.7 9 13.7C8.06112 13.7 7.3 12.9389 7.3 12C7.3 11.0611 8.06112 10.3 9 10.3C9.93888 10.3 10.7 11.0611 10.7 12Z" fill="black"/>
<path fill-rule="evenodd" clip-rule="evenodd" d="M4 12C4 9.23858 6.23858 7 9 7H15C17.7614 7 20 9.23858 20 12C20 14.7614 17.7614 17 15 17H9C6.23858 17 4 14.7614 4 12ZM9 8.3H15C17.0435 8.3 18.7 9.95655 18.7 12C18.7 14.0435 17.0435 15.7 15 15.7H9C6.95655 15.7 5.3 14.0435 5.3 12C5.3 9.95655 6.95655 8.3 9 8.3Z" fill="black"/>
</svg>
