<svg width="24" height="24" viewBox="0 0 24 24" fill="none" xmlns="http://www.w3.org/2000/svg">
<path fill-rule="evenodd" clip-rule="evenodd" d="M4 6C4 4.89543 4.89543 4 6 4H18C19.1046 4 20 4.89543 20 6V18C20 19.1046 19.1046 20 18 20H6C4.89543 20 4 19.1046 4 18V6ZM15 10C14.5 10 14 10.5 14 11V13.5C14 14 14.5 14.5 15 14.5H16.5407C16.6788 14.5 16.7907 14.6119 16.7907 14.75V16.142C16.7907 16.2801 16.6788 16.392 16.5407 16.392H14.554C14.2481 16.392 14 16.6401 14 16.946C14 17.252 14.2481 17.5 14.554 17.5H17C17.5 17.5 18 17 18 16.5V14.5C18 14 17.4649 13.4091 17 13.4091H15.4593C15.3212 13.4091 15.2093 13.2972 15.2093 13.1591V11.358C15.2093 11.2199 15.3212 11.108 15.4593 11.108H17.4461C17.752 11.108 18 10.8599 18 10.554C18 10.248 17.752 10 17.4461 10H15ZM10.25 11.4C10.3052 11.4 10.35 11.4448 10.35 11.5V16.85C10.35 17.209 10.641 17.5 11 17.5C11.359 17.5 11.65 17.209 11.65 16.85V11.5C11.65 11.4448 11.6948 11.4 11.75 11.4H12.85C13.209 11.4 13.5 11.109 13.5 10.75C13.5 10.391 13.209 10.1 12.85 10.1H9.15C8.79101 10.1 8.5 10.391 8.5 10.75C8.5 11.109 8.79101 11.4 9.15 11.4H10.25Z" fill="black"/>
</svg>
