<svg width="32" height="32" viewBox="0 0 32 32" fill="none" xmlns="http://www.w3.org/2000/svg">
<path d="M26.3333 21.2C26.3333 20.4636 25.7364 19.8667 25 19.8667H17.8667C17.1303 19.8667 16.5333 20.4636 16.5333 21.2V25C16.5333 25.7364 17.1303 26.3333 17.8667 26.3333H23.6667C25.1394 26.3333 26.3333 25.1394 26.3333 23.6667V21.2Z" fill="black"/>
<path d="M14.8 14.5333C14.8 13.797 14.203 13.2 13.4667 13.2H6.33333C5.59695 13.2 5 13.797 5 14.5333V23.6667C5 25.1394 6.19391 26.3333 7.66667 26.3333H13.4667C14.203 26.3333 14.8 25.7364 14.8 25V14.5333Z" fill="black"/>
<path d="M5 10.1333C5 10.8697 5.59695 11.4667 6.33333 11.4667H13.4667C14.203 11.4667 14.8 10.8697 14.8 10.1333V6.33333C14.8 5.59695 14.203 5 13.4667 5H7.66667C6.19391 5 5 6.19391 5 7.66667V10.1333Z" fill="black"/>
<path d="M16.5333 16.8C16.5333 17.5364 17.1303 18.1333 17.8667 18.1333H25C25.7364 18.1333 26.3333 17.5364 26.3333 16.8V7.66667C26.3333 6.19391 25.1394 5 23.6667 5H17.8667C17.1303 5 16.5333 5.59695 16.5333 6.33333V16.8Z" fill="black"/>
</svg>
