<svg width="28" height="28" viewBox="0 0 28 28" fill="none" xmlns="http://www.w3.org/2000/svg">
<path fill-rule="evenodd" clip-rule="evenodd" d="M7.74167 10.7917C7.74167 10.2118 8.21177 9.74167 8.79167 9.74167H12.875C13.4549 9.74167 13.925 10.2118 13.925 10.7917V12.5417C13.925 13.1216 13.4549 13.5917 12.875 13.5917H8.79167C8.21177 13.5917 7.74167 13.1216 7.74167 12.5417V10.7917Z" fill="black"/>
<path fill-rule="evenodd" clip-rule="evenodd" d="M15.7917 9.74167C15.2118 9.74167 14.7417 10.2118 14.7417 10.7917V12.5417C14.7417 13.1216 15.2118 13.5917 15.7917 13.5917H19.875C20.4549 13.5917 20.925 13.1216 20.925 12.5417V10.7917C20.925 10.2118 20.4549 9.74167 19.875 9.74167H15.7917Z" fill="black"/>
<path fill-rule="evenodd" clip-rule="evenodd" d="M14.7417 15.4583C14.7417 14.8784 15.2118 14.4083 15.7917 14.4083H19.875C20.4549 14.4083 20.925 14.8784 20.925 15.4583V17.2083C20.925 17.7882 20.4549 18.2583 19.875 18.2583H15.7917C15.2118 18.2583 14.7417 17.7882 14.7417 17.2083V15.4583Z" fill="black"/>
<path fill-rule="evenodd" clip-rule="evenodd" d="M8.79167 14.4083C8.21177 14.4083 7.74167 14.8784 7.74167 15.4583V17.2083C7.74167 17.7882 8.21177 18.2583 8.79167 18.2583H12.875C13.4549 18.2583 13.925 17.7882 13.925 17.2083V15.4583C13.925 14.8784 13.4549 14.4083 12.875 14.4083H8.79167Z" fill="black"/>
<path fill-rule="evenodd" clip-rule="evenodd" d="M7.33333 7C6.04467 7 5 8.04467 5 9.33333V18.6667C5 19.9553 6.04467 21 7.33333 21H21.3333C22.622 21 23.6667 19.9553 23.6667 18.6667V9.33333C23.6667 8.04467 22.622 7 21.3333 7H7.33333ZM21.3333 8.51667H7.33333C6.8823 8.51667 6.51667 8.8823 6.51667 9.33333V18.6667C6.51667 19.1177 6.8823 19.4833 7.33333 19.4833H21.3333C21.7844 19.4833 22.15 19.1177 22.15 18.6667V9.33333C22.15 8.8823 21.7844 8.51667 21.3333 8.51667Z" fill="black"/>
</svg>
