<svg width="32" height="32" viewBox="0 0 32 32" fill="none" xmlns="http://www.w3.org/2000/svg">
<path fill-rule="evenodd" clip-rule="evenodd" d="M15.6667 26.3333C21.5577 26.3333 26.3333 21.5577 26.3333 15.6667C26.3333 9.77563 21.5577 5 15.6667 5C9.77563 5 5 9.77563 5 15.6667C5 21.5577 9.77563 26.3333 15.6667 26.3333ZM15.4667 19.6667V13.6019L14.2867 14.8103C13.9523 15.1527 13.4036 15.1593 13.0612 14.8249C12.7187 14.4905 12.7122 13.9418 13.0466 13.5993L15.4856 11.1014C16.1434 10.4279 17.2 10.9491 17.2 11.8035V19.6667C17.2 20.1453 16.812 20.5333 16.3333 20.5333C15.8547 20.5333 15.4667 20.1453 15.4667 19.6667Z" fill="black"/>
</svg>
