<svg width="28" height="28" viewBox="0 0 28 28" fill="none" xmlns="http://www.w3.org/2000/svg">
<path fill-rule="evenodd" clip-rule="evenodd" d="M11.7083 10.8333C11.2251 10.8333 10.8333 11.2251 10.8333 11.7083V16.9583C10.8333 17.4416 11.2251 17.8333 11.7083 17.8333H16.9583C17.4416 17.8333 17.8333 17.4416 17.8333 16.9583V11.7083C17.8333 11.2251 17.4416 10.8333 16.9583 10.8333H11.7083Z" fill="black"/>
<path fill-rule="evenodd" clip-rule="evenodd" d="M23.6667 14.3333C23.6667 19.488 19.488 23.6667 14.3333 23.6667C9.17868 23.6667 5 19.488 5 14.3333C5 9.17868 9.17868 5 14.3333 5C19.488 5 23.6667 9.17868 23.6667 14.3333ZM22.15 14.3333C22.15 18.6504 18.6504 22.15 14.3333 22.15C10.0163 22.15 6.51667 18.6504 6.51667 14.3333C6.51667 10.0163 10.0163 6.51667 14.3333 6.51667C18.6504 6.51667 22.15 10.0163 22.15 14.3333Z" fill="black"/>
</svg>
