<svg width="24" height="24" viewBox="0 0 24 24" fill="none" xmlns="http://www.w3.org/2000/svg">
<path d="M18 7.3H6C5.6134 7.3 5.3 7.6134 5.3 8V15C5.3 15.3866 5.6134 15.7 6 15.7H15V17H6C4.89543 17 4 16.1046 4 15V8C4 6.89543 4.89543 6 6 6H18C19.1046 6 20 6.89543 20 8V11.2124C19.695 11.0759 19.3564 11 19 11C18.8984 11 18.7983 11.0062 18.7 11.0181V8C18.7 7.6134 18.3866 7.3 18 7.3Z" fill="black"/>
<path d="M16.5667 14.0721V13.6813C16.4552 13.4836 16.2432 13.35 16 13.35H8C7.64102 13.35 7.35 13.641 7.35 14C7.35 14.359 7.64102 14.65 8 14.65H15.2309C15.4709 14.3011 15.8751 14.0721 16.3333 14.0721H16.5667Z" fill="black"/>
<path d="M8.3 9.45C8.3 9.80899 8.00899 10.1 7.65 10.1C7.29101 10.1 7 9.80899 7 9.45C7 9.09102 7.29101 8.8 7.65 8.8C8.00899 8.8 8.3 9.09102 8.3 9.45Z" fill="black"/>
<path d="M10.55 10.1C10.909 10.1 11.2 9.80899 11.2 9.45C11.2 9.09102 10.909 8.8 10.55 8.8C10.191 8.8 9.90002 9.09102 9.90002 9.45C9.90002 9.80899 10.191 10.1 10.55 10.1Z" fill="black"/>
<path d="M14.1 9.45C14.1 9.80899 13.809 10.1 13.45 10.1C13.0911 10.1 12.8 9.80899 12.8 9.45C12.8 9.09102 13.0911 8.8 13.45 8.8C13.809 8.8 14.1 9.09102 14.1 9.45Z" fill="black"/>
<path d="M16.3501 10.1C16.7091 10.1 17.0001 9.80899 17.0001 9.45C17.0001 9.09102 16.7091 8.8 16.3501 8.8C15.9911 8.8 15.7001 9.09102 15.7001 9.45C15.7001 9.80899 15.9911 10.1 16.3501 10.1Z" fill="black"/>
<path d="M10.05 11.7C10.05 12.059 9.75899 12.35 9.4 12.35C9.04101 12.35 8.75 12.059 8.75 11.7C8.75 11.341 9.04101 11.05 9.4 11.05C9.75899 11.05 10.05 11.341 10.05 11.7Z" fill="black"/>
<path d="M12 12.35C12.359 12.35 12.65 12.059 12.65 11.7C12.65 11.341 12.359 11.05 12 11.05C11.641 11.05 11.35 11.341 11.35 11.7C11.35 12.059 11.641 12.35 12 12.35Z" fill="black"/>
<path d="M15.25 11.7C15.25 12.059 14.9589 12.35 14.6 12.35C14.241 12.35 13.95 12.059 13.95 11.7C13.95 11.341 14.241 11.05 14.6 11.05C14.9589 11.05 15.25 11.341 15.25 11.7Z" fill="black"/>
<path fill-rule="evenodd" clip-rule="evenodd" d="M17.175 13.973V14.5135H17C16.4477 14.5135 16 14.9975 16 15.5946V19.9189C16 20.516 16.4477 21 17 21H21C21.5523 21 22 20.516 22 19.9189V15.5946C22 14.9975 21.5523 14.5135 21 14.5135H20.825V13.973C20.825 12.8833 20.0079 12 19 12C17.9921 12 17.175 12.8833 17.175 13.973ZM19 12.7027C18.3511 12.7027 17.825 13.2714 17.825 13.973V14.5135H20.175V13.973C20.175 13.2714 19.6489 12.7027 19 12.7027ZM19 18.2973C19.2761 18.2973 19.5 18.0553 19.5 17.7568C19.5 17.4582 19.2761 17.2162 19 17.2162C18.7239 17.2162 18.5 17.4582 18.5 17.7568C18.5 18.0553 18.7239 18.2973 19 18.2973Z" fill="black"/>
</svg>
