<svg width="48" height="48" viewBox="0 0 48 48" fill="none" xmlns="http://www.w3.org/2000/svg">
<path d="M40 18.0004C40 16.8956 39.1048 16 38.0005 16C36.8963 16 36.0011 16.8956 36.0011 18.0004V20.1262L35.0728 17.8051C34.1733 15.5558 30.8314 16.1999 30.8314 18.6226V29.9996C30.8314 31.1044 31.7266 32 32.8309 32C33.9352 32 34.8303 31.1044 34.8303 29.9996V27.9687L35.7586 30.2898C36.6581 32.5391 40 31.8951 40 29.4724V18.0004Z" fill="black"/>
<path d="M14.5467 18.0253C14.5467 16.9205 13.6515 16.0249 12.5472 16.0249C11.443 16.0249 10.5478 16.9205 10.5478 18.0253V27.71H9.99946C8.89519 27.71 8 28.6056 8 29.7104C8 30.8153 8.89519 31.7109 9.99946 31.7109H11.5475C13.2039 31.7109 14.5467 30.3674 14.5467 28.7102V18.0253Z" fill="black"/>
<path fill-rule="evenodd" clip-rule="evenodd" d="M25.0409 16.0249C23.6606 16.0249 22.5416 17.1444 22.5416 18.5254V29.2103C22.5416 30.5913 23.6606 31.7109 25.0409 31.7109H28.1176C29.4979 31.7109 30.6169 30.5913 30.6169 29.2103V18.5254C30.6169 17.1444 29.4979 16.0249 28.1176 16.0249H25.0409Z" fill="black"/>
<path d="M15.2708 18.5254C15.2708 17.1444 16.3898 16.0249 17.7701 16.0249H20.3276C21.4318 16.0249 22.327 16.9205 22.327 18.0253C22.327 19.1301 21.4318 20.0258 20.3276 20.0258H19.2697V21.8674H19.8277C21.208 21.8674 22.327 22.987 22.327 24.368V29.2103C22.327 30.5913 21.208 31.7109 19.8277 31.7109H16.7607C15.6564 31.7109 14.7612 30.8153 14.7612 29.7104C14.7612 28.6056 15.6564 27.71 16.7607 27.71H18.3281V25.8683H17.7701C16.3898 25.8683 15.2708 24.7488 15.2708 23.3678V18.5254Z" fill="black"/>
</svg>
