<svg width="32" height="32" viewBox="0 0 32 32" fill="none" xmlns="http://www.w3.org/2000/svg">
<path fill-rule="evenodd" clip-rule="evenodd" d="M9.38546 12.0094C10.0347 9.13389 12.6065 7 15.6667 7C18.7268 7 21.2986 9.13389 21.9479 12.0094C22.0413 12.4231 22.3315 12.6169 22.537 12.6169H22.7132C24.7006 12.6169 26.3333 14.2256 26.3333 16.2367C26.3333 18.2479 24.7006 19.8565 22.7132 19.8565H22.6397L20.7854 23.83C20.5829 24.2638 20.0672 24.4513 19.6335 24.2489C19.1997 24.0465 19.0122 23.5308 19.2146 23.097L20.7269 19.8565H17.9319L15.4025 23.9214C15.1496 24.3278 14.6152 24.4522 14.2088 24.1994C13.8024 23.9465 13.6779 23.412 13.9308 23.0057L15.8904 19.8565H12.5985L10.0692 23.9214C9.81629 24.3278 9.28185 24.4522 8.87546 24.1994C8.46906 23.9465 8.34462 23.412 8.59749 23.0057L10.557 19.8565H8.62015C6.63274 19.8565 5 18.2479 5 16.2367C5 14.2256 6.63274 12.6169 8.62015 12.6169H8.79631C9.00187 12.6169 9.29205 12.4231 9.38546 12.0094ZM15.6667 8.62267C13.3541 8.62267 11.4308 10.2335 10.9483 12.3709C10.7382 13.3012 9.95284 14.2396 8.79631 14.2396H8.62015C7.49421 14.2396 6.60308 15.1458 6.60308 16.2367C6.60308 17.3277 7.49421 18.2339 8.62015 18.2339H22.7132C23.8391 18.2339 24.7302 17.3277 24.7302 16.2367C24.7302 15.1458 23.8391 14.2396 22.7132 14.2396H22.537C21.3805 14.2396 20.5951 13.3012 20.3851 12.3709C19.9025 10.2335 17.9793 8.62267 15.6667 8.62267Z" fill="black"/>
</svg>
