<svg width="16" height="16" viewBox="0 0 16 16" fill="none" xmlns="http://www.w3.org/2000/svg">
<path fill-rule="evenodd" clip-rule="evenodd" d="M8.40127 5.43038H5.80255V4.06329C5.80255 3.1519 7.63694 3 8.09554 3C8.60106 3 9.22562 3.09917 9.67187 3.17002C9.74633 3.18184 9.81583 3.19288 9.87898 3.20253C10.735 3.40506 10.983 4.06329 11 4.36709V6.74684C11 7.8 10.1507 8.1308 9.72612 8.16456H6.97452C5.75159 8.16456 5.44586 9.1097 5.44586 9.58228V11H4.47771C3.40764 11 3.10191 9.63291 3.05096 9.32911C3.02976 9.20276 3 8.29958 3 7.86076C3.08153 6.24051 4.01911 5.80169 4.47771 5.78481H8.40127V5.43038ZM7.66667 4.33333C7.66667 4.60948 7.44281 4.83333 7.16667 4.83333C6.89052 4.83333 6.66667 4.60948 6.66667 4.33333C6.66667 4.05719 6.89052 3.83333 7.16667 3.83333C7.44281 3.83333 7.66667 4.05719 7.66667 4.33333Z" fill="black"/>
<path fill-rule="evenodd" clip-rule="evenodd" d="M8.26539 11.2363H10.8641V12.6034C10.8641 13.5148 9.02972 13.6667 8.57113 13.6667C8.0656 13.6667 7.44104 13.5675 6.99479 13.4966C6.92033 13.4848 6.85084 13.4738 6.78768 13.4641C5.93163 13.2616 5.68365 12.6034 5.66667 12.2996L5.66667 9.91983C5.66667 8.86667 6.51592 8.53586 6.94055 8.50211H9.69214C10.9151 8.50211 11.2208 7.55696 11.2208 7.08439L11.2208 5.66667L12.189 5.66667C13.259 5.66667 13.5648 7.03376 13.6157 7.33755C13.6369 7.4639 13.6667 8.36709 13.6667 8.80591C13.5851 10.4262 12.6476 10.865 12.189 10.8819H8.26539V11.2363ZM10 12.3333C10 12.6095 9.77614 12.8333 9.5 12.8333C9.22386 12.8333 9 12.6095 9 12.3333C9 12.0572 9.22386 11.8333 9.5 11.8333C9.77614 11.8333 10 12.0572 10 12.3333Z" fill="black"/>
</svg>
