<svg width="28" height="28" viewBox="0 0 28 28" fill="none" xmlns="http://www.w3.org/2000/svg">
<path fill-rule="evenodd" clip-rule="evenodd" d="M7.84498 5C6.36201 5 5.48708 6.5803 6.32726 7.74143L10.3796 13.3419C10.8117 13.9391 10.8117 14.7276 10.3796 15.3248L6.32726 20.9253C5.48708 22.0864 6.36201 23.6667 7.84498 23.6667H20.4884C21.9713 23.6667 22.8463 22.0864 22.0061 20.9253L17.9537 15.3248C17.5216 14.7276 17.5216 13.9391 17.9537 13.3419L22.0061 7.74143C22.8463 6.5803 21.9713 5 20.4884 5H7.84498ZM15.4443 18.436C14.6683 17.9282 13.6651 17.9282 12.8891 18.436L8.92321 21.031C8.68068 21.1897 8.79304 21.5667 9.08293 21.5667H19.2504C19.5403 21.5667 19.6527 21.1897 19.4101 21.031L15.4443 18.436Z" fill="black"/>
</svg>
