<svg width="24" height="24" viewBox="0 0 24 24" fill="none" xmlns="http://www.w3.org/2000/svg">
<path fill-rule="evenodd" clip-rule="evenodd" d="M16.0246 4.89506C15.5993 4.36846 14.9193 4 13.9555 4C13.0742 4 12.4301 4.30806 12.0012 4.7634C11.5723 4.30806 10.9283 4 10.047 4C9.08314 4 8.40312 4.36846 7.97789 4.89506C7.57504 5.39394 7.44275 5.98173 7.44275 6.39246C7.44275 6.80319 7.57504 7.39097 7.97789 7.88985C7.98618 7.90013 7.99458 7.91034 8.00306 7.92049H6.65C5.73873 7.92049 5 8.65922 5 9.57049V10.5338C5 11.2013 5.402 11.775 5.97712 12.0259V18.3519C5.97712 19.2632 6.71585 20.0019 7.62712 20.0019H16.3754C17.2867 20.0019 18.0254 19.2632 18.0254 18.3519V12.0259C18.6005 11.775 19.0025 11.2013 19.0025 10.5338V9.57049C19.0025 8.65922 18.2638 7.92049 17.3525 7.92049H15.9994C16.0079 7.91034 16.0163 7.90013 16.0246 7.88985C16.4274 7.39097 16.5597 6.80319 16.5597 6.39246C16.5597 5.98173 16.4274 5.39394 16.0246 4.89506ZM12.6512 7.48491V6.39246C12.6512 6.22237 12.7144 5.93893 12.8978 5.71178C13.0588 5.51236 13.3559 5.3 13.9555 5.3C14.555 5.3 14.8521 5.51236 15.0132 5.71178C15.1966 5.93893 15.2597 6.22237 15.2597 6.39246C15.2597 6.56254 15.1966 6.84598 15.0132 7.07313C14.8521 7.27255 14.555 7.48491 13.9555 7.48491H12.6512ZM6.65 9.22049C6.4567 9.22049 6.3 9.37719 6.3 9.57049V10.5338C6.3 10.7144 6.44646 10.8609 6.62712 10.8609H11.3513V9.22049H6.65ZM12.6513 9.22049V10.8609H17.3754C17.5561 10.8609 17.7025 10.7144 17.7025 10.5338V9.57049C17.7025 9.37719 17.5458 9.22049 17.3525 9.22049H12.6513ZM11.3513 12.1609H7.27712V18.3519C7.27712 18.5452 7.43382 18.7019 7.62712 18.7019H11.3513V12.1609ZM12.6513 18.7019V12.1609H16.7254V18.3519C16.7254 18.5452 16.5687 18.7019 16.3754 18.7019H12.6513ZM11.3512 6.39246V7.48491H10.047C9.44744 7.48491 9.15034 7.27255 8.9893 7.07313C8.80588 6.84598 8.74275 6.56254 8.74275 6.39246C8.74275 6.22237 8.80588 5.93893 8.9893 5.71178C9.15034 5.51236 9.44744 5.3 10.047 5.3C10.6465 5.3 10.9436 5.51236 11.1047 5.71178C11.2881 5.93893 11.3512 6.22237 11.3512 6.39246Z" fill="black"/>
</svg>
