<svg width="16" height="16" viewBox="0 0 16 16" fill="none" xmlns="http://www.w3.org/2000/svg">
<path d="M3.77151 7.45257C4.28497 6.69824 5.91886 4.8927 8.33331 4.8927C9.24467 4.8927 10.0597 5.14859 10.746 5.5112L11.2814 4.79718C10.4675 4.33992 9.46942 4 8.33331 4C5.51265 4 3.65645 6.08574 3.07926 6.9337C2.94272 7.13429 2.987 7.41306 3.17815 7.55634C3.36931 7.69963 3.63497 7.65317 3.77151 7.45257Z" fill="black"/>
<path d="M8.33331 6.06009C8.98567 6.06009 9.55539 6.21514 10.0409 6.45164L9.49534 7.17932C9.15384 7.04008 8.76597 6.95279 8.33331 6.95279C6.71629 6.95279 5.72487 8.17208 5.44181 8.76614C5.33675 8.98663 5.08125 9.076 4.87114 8.96575C4.66102 8.85551 4.57586 8.5874 4.68091 8.36691C5.05225 7.58758 6.28575 6.06009 8.33331 6.06009Z" fill="black"/>
<path d="M11.3185 7.41137L10.9522 8.32451C11.074 8.48798 11.1652 8.64094 11.2248 8.76614C11.3299 8.98663 11.5854 9.076 11.7955 8.96575C12.0056 8.85551 12.0908 8.5874 11.9857 8.36691C11.8606 8.10432 11.6376 7.75679 11.3185 7.41137Z" fill="black"/>
<path d="M8.33331 8.12017C8.48141 8.12017 8.62327 8.13503 8.75862 8.16192L8.10639 9.03183C7.80242 9.08301 7.53548 9.23327 7.31054 9.42675C7.02767 9.67006 6.83499 9.9624 6.75059 10.1395C6.64553 10.36 6.39004 10.4494 6.17992 10.3391C5.9698 10.2289 5.88464 9.96079 5.9897 9.7403C6.12343 9.45963 6.38882 9.06528 6.77125 8.73634C7.15721 8.40436 7.68564 8.12017 8.33331 8.12017Z" fill="black"/>
<path d="M10.5058 9.43748L10.1381 10.3542C10.247 10.4 10.3735 10.3986 10.4867 10.3391C10.6968 10.2289 10.782 9.96079 10.6769 9.7403C10.6336 9.64928 10.5763 9.54631 10.5058 9.43748Z" fill="black"/>
<path d="M12.1389 5.36626L11.7981 6.216C12.3585 6.68009 12.7273 7.14902 12.8719 7.41459C12.9885 7.62862 13.2483 7.70298 13.4523 7.58067C13.6562 7.45837 13.7271 7.18571 13.6106 6.97168C13.3829 6.55362 12.8689 5.93109 12.1389 5.36626Z" fill="black"/>
<path fill-rule="evenodd" clip-rule="evenodd" d="M11.46 6.22667L9.35296 11.348C9.14071 11.8771 8.53299 12.1366 7.99557 11.9277C7.95339 11.9113 7.91233 11.8922 7.87267 11.8705C7.36717 11.5947 7.18453 10.9676 7.46473 10.4699L7.49955 10.4125L7.53807 10.3575L10.7 6.1403C10.7157 6.11935 10.7498 6.06817 10.7974 5.9968C10.8216 5.96054 10.8493 5.91898 10.8798 5.87361C11.0332 5.64521 11.2582 5.31818 11.4718 5.06057C11.6887 4.7988 11.8938 4.60872 12 4.66666C12.1039 4.72338 12.0278 4.99994 11.8939 5.32024C11.7631 5.63318 11.46 6.22667 11.46 6.22667Z" fill="black"/>
</svg>
