<svg width="24" height="24" viewBox="0 0 24 24" fill="none" xmlns="http://www.w3.org/2000/svg">
<path fill-rule="evenodd" clip-rule="evenodd" d="M6 15H9V18C9 19.1046 9.89543 20 11 20H18C19.1046 20 20 19.1046 20 18V11C20 9.89543 19.1046 9 18 9H15V6C15 4.89543 14.1046 4 13 4H6C4.89543 4 4 4.89543 4 6V13C4 14.1046 4.89543 15 6 15ZM13.7 11.5071V12.0929L12.0929 13.7H11.5071L13.7 11.5071ZM13.7 10.0929L10.0929 13.7H9.50711L13.7 9.50711V10.0929ZM13.7 8.09289L8.09289 13.7H7.50711L13.7 7.50711V8.09289ZM6.09289 13.7L13.7 6.09289V6C13.7 5.85969 13.6587 5.72902 13.5876 5.61947L5.61947 13.5876C5.72902 13.6587 5.85969 13.7 6 13.7H6.09289ZM5.3 12.4929L12.4929 5.3H11.9071L5.3 11.9071V12.4929ZM5.3 10.4929L10.4929 5.3H9.90711L5.3 9.90711V10.4929ZM5.3 8.49289L8.49289 5.3H7.90711L5.3 7.90711V8.49289ZM6.49289 5.3L5.3 6.49289V6C5.3 5.6134 5.6134 5.3 6 5.3H6.49289ZM16.9071 10.3H18C18.3866 10.3 18.7 10.6134 18.7 11V18C18.7 18.3866 18.3866 18.7 18 18.7H11C10.6134 18.7 10.3 18.3866 10.3 18V16.9071V15.4929V15H10.7929H12.2071H13C14.1046 15 15 14.1046 15 13V12.2071V10.7929V10.3H15.4929H16.9071Z" fill="black"/>
</svg>
