<svg width="24" height="24" viewBox="0 0 24 24" fill="none" xmlns="http://www.w3.org/2000/svg">
<path d="M4.00004 7.85C4.00004 8.12614 4.2239 8.35 4.50004 8.35H19.5C19.7762 8.35 20 8.12614 20 7.85V6C20 4.89543 19.1046 4 18 4H6.00004C4.89547 4 4.00004 4.89543 4.00004 6V7.85Z" fill="black"/>
<path fill-rule="evenodd" clip-rule="evenodd" d="M4 10.15C4 9.87386 4.22386 9.65 4.5 9.65H19.5C19.7762 9.65 20 9.87386 20 10.15V18C20 19.1046 19.1046 20 18 20H6.00004C4.89547 20 4.00004 19.1046 4.00004 18L4 10.15ZM9.00004 12.5C9.00004 13.0523 8.55233 13.5 8.00004 13.5C7.44776 13.5 7.00004 13.0523 7.00004 12.5C7.00004 11.9477 7.44776 11.5 8.00004 11.5C8.55233 11.5 9.00004 11.9477 9.00004 12.5ZM12 13.5C12.5523 13.5 13 13.0523 13 12.5C13 11.9477 12.5523 11.5 12 11.5C11.4478 11.5 11 11.9477 11 12.5C11 13.0523 11.4478 13.5 12 13.5ZM17 12.5C17 13.0523 16.5523 13.5 16 13.5C15.4478 13.5 15 13.0523 15 12.5C15 11.9477 15.4478 11.5 16 11.5C16.5523 11.5 17 11.9477 17 12.5ZM8.00004 16.5C8.55233 16.5 9.00004 16.0523 9.00004 15.5C9.00004 14.9477 8.55233 14.5 8.00004 14.5C7.44776 14.5 7.00004 14.9477 7.00004 15.5C7.00004 16.0523 7.44776 16.5 8.00004 16.5ZM13 15.5C13 16.0523 12.5523 16.5 12 16.5C11.4478 16.5 11 16.0523 11 15.5C11 14.9477 11.4478 14.5 12 14.5C12.5523 14.5 13 14.9477 13 15.5ZM16 16.5C16.5523 16.5 17 16.0523 17 15.5C17 14.9477 16.5523 14.5 16 14.5C15.4478 14.5 15 14.9477 15 15.5C15 16.0523 15.4478 16.5 16 16.5Z" fill="black"/>
</svg>
