<svg width="32" height="32" viewBox="0 0 32 32" fill="none" xmlns="http://www.w3.org/2000/svg">
<path d="M8.79997 14C8.79997 13.5214 9.18799 13.1333 9.66667 13.1333H10.4666V12.3333C10.4666 11.8547 10.8547 11.4667 11.3333 11.4667C11.812 11.4667 12.2 11.8547 12.2 12.3333V13.1333H13C13.4787 13.1333 13.8667 13.5214 13.8667 14C13.8667 14.4786 13.4787 14.8667 13 14.8667H12.2V15.6667C12.2 16.1453 11.812 16.5333 11.3333 16.5333C10.8547 16.5333 10.4666 16.1453 10.4666 15.6667V14.8667H9.66667C9.18799 14.8667 8.79997 14.4786 8.79997 14Z" fill="black"/>
<path d="M18.7333 13.8667C18.7333 14.3453 18.3453 14.7333 17.8667 14.7333C17.388 14.7333 17 14.3453 17 13.8667C17 13.388 17.388 13 17.8667 13C18.3453 13 18.7333 13.388 18.7333 13.8667Z" fill="black"/>
<path d="M19.5334 16.4C20.012 16.4 20.4 16.012 20.4 15.5333C20.4 15.0547 20.012 14.6667 19.5334 14.6667C19.0547 14.6667 18.6667 15.0547 18.6667 15.5333C18.6667 16.012 19.0547 16.4 19.5334 16.4Z" fill="black"/>
<path d="M22.0667 13.8667C22.0667 14.3453 21.6786 14.7333 21.2 14.7333C20.7214 14.7333 20.3333 14.3453 20.3333 13.8667C20.3333 13.388 20.7214 13 21.2 13C21.6786 13 22.0667 13.388 22.0667 13.8667Z" fill="black"/>
<path d="M19.5334 13.0667C20.012 13.0667 20.4 12.6786 20.4 12.2C20.4 11.7214 20.012 11.3333 19.5334 11.3333C19.0547 11.3333 18.6667 11.7214 18.6667 12.2C18.6667 12.6786 19.0547 13.0667 19.5334 13.0667Z" fill="black"/>
<path fill-rule="evenodd" clip-rule="evenodd" d="M12.8596 8C8.51888 8 5 11.5817 5 16V21.7143C5 22.9766 6.00537 24 7.24561 24H9.02002C9.8313 24 10.5795 23.5546 10.9772 22.8349L12.5377 20.0111C12.7366 19.6513 13.1107 19.4286 13.5164 19.4286H17.817C18.2227 19.4286 18.5968 19.6513 18.7957 20.0111L20.3561 22.8349C20.7538 23.5546 21.502 24 22.3133 24H24.0877C25.328 24 26.3333 22.9766 26.3333 21.7143V16C26.3333 11.5817 22.8145 8 18.4737 8H12.8596ZM18.4737 9.73334H12.8596C9.50496 9.73334 6.73332 12.51 6.73332 16V21.7143C6.73332 22.0484 6.99146 22.2667 7.24561 22.2667H9.02002C9.18978 22.2667 9.36239 22.1734 9.46012 21.9965L11.0206 19.1728C11.5195 18.2701 12.4692 17.6952 13.5164 17.6952H17.817C18.8642 17.6952 19.8139 18.2701 20.3127 19.1728L21.8732 21.9965C21.9709 22.1734 22.1436 22.2667 22.3133 22.2667H24.0877C24.3419 22.2667 24.6 22.0484 24.6 21.7143V16C24.6 12.51 21.8284 9.73334 18.4737 9.73334Z" fill="black"/>
</svg>
