<svg width="28" height="28" viewBox="0 0 28 28" fill="none" xmlns="http://www.w3.org/2000/svg">
<path fill-rule="evenodd" clip-rule="evenodd" d="M12.787 5L14.9463 5C15.9302 5 16.7278 5.79709 16.7278 6.78035V7.79224C16.7278 8.49826 17.4925 8.93952 18.1044 8.58651L18.9812 8.08057C19.8333 7.58894 20.9228 7.88069 21.4147 8.73222L22.4944 10.6011C22.9863 11.4526 22.6944 12.5415 21.8423 13.0331L20.9654 13.5391C20.3536 13.8921 20.3536 14.7746 20.9654 15.1276L21.8423 15.6336C22.6944 16.1252 22.9863 17.214 22.4944 18.0656L21.4147 19.9344C20.9228 20.786 19.8333 21.0777 18.9812 20.5861L18.1044 20.0801C17.4925 19.7271 16.7278 20.1684 16.7278 20.8744V21.8863C16.7278 22.8696 15.9302 23.6667 14.9463 23.6667H12.787C11.8032 23.6667 11.0056 22.8696 11.0056 21.8863V20.8744C11.0056 20.1684 10.2408 19.7271 9.62902 20.0801L8.75212 20.5861C7.90007 21.0777 6.81056 20.786 6.31863 19.9344L5.23897 18.0656C4.74703 17.214 5.03897 16.1252 5.89102 15.6336L6.76789 15.1276C7.3797 14.7746 7.3797 13.8921 6.76789 13.5391L5.89102 13.0331C5.03897 12.5415 4.74703 11.4526 5.23897 10.6011L6.31863 8.73222C6.81056 7.8807 7.90007 7.58894 8.75212 8.08057L9.62902 8.58654C10.2408 8.93955 11.0056 8.49828 11.0056 7.79226V6.78035C11.0056 5.79709 11.8032 5 12.787 5ZM13.9442 11.474C12.364 11.474 11.0831 12.7542 11.0831 14.3333C11.0831 15.9125 12.364 17.1927 13.9442 17.1927C15.5243 17.1927 16.8053 15.9125 16.8053 14.3333C16.8053 12.7542 15.5243 11.474 13.9442 11.474Z" fill="black"/>
</svg>
