<svg width="48" height="48" viewBox="0 0 48 48" fill="none" xmlns="http://www.w3.org/2000/svg">
<path d="M37.3377 25.3H31.4612C31.9053 28.1475 33.1943 30.7136 34.415 32.432L36.239 34.3062C38.3242 31.8325 39.6731 28.7178 39.948 25.3H37.3377Z" fill="black"/>
<path d="M34.3524 15.4913C32.2707 17.8105 31.4248 20.298 31.3127 22.7H37.3377H39.948C39.6715 19.2621 38.3083 16.1309 36.2021 13.6502L34.3524 15.4913Z" fill="black"/>
<path d="M28.7113 22.7C28.8273 19.6876 29.8814 16.531 32.5119 13.6502L34.3524 11.8001C31.8713 9.69264 28.7391 8.32858 25.3 8.05205V10.6623V22.7H28.7113Z" fill="black"/>
<path d="M19.1407 22.7H22.7V10.6623V8.05205C19.2863 8.32654 16.1749 9.67256 13.7027 11.7535L15.4204 13.7064C16.9371 15.7315 18.5938 18.8971 19.1117 22.4895C19.1218 22.5595 19.1314 22.6297 19.1407 22.7Z" fill="black"/>
<path d="M16.5142 22.7C16.0716 19.8614 14.7892 17.3025 13.5719 15.5841L11.8137 13.6315C9.69855 16.1151 8.32918 19.2534 8.05205 22.7H10.6623H16.5142Z" fill="black"/>
<path d="M13.6359 32.4945C15.7083 30.1793 16.5509 27.697 16.6628 25.3H10.6623H8.05205C8.32806 28.7326 9.68748 31.8594 11.7881 34.3383L13.6359 32.4945Z" fill="black"/>
<path d="M22.7 37.3377V25.3H19.2642C19.1483 28.3084 18.0969 31.4605 15.4741 34.3383L13.6359 36.19C16.1188 38.3031 19.2554 39.671 22.7 39.948V37.3377Z" fill="black"/>
<path d="M25.3 25.3V37.3377V39.948C28.7681 39.6691 31.9241 38.2843 34.415 36.1465L32.5645 34.3062C31.0452 32.2817 29.3827 29.1103 28.8638 25.5105C28.8537 25.4405 28.844 25.3703 28.8348 25.3H25.3Z" fill="black"/>
</svg>
