<svg width="20" height="20" viewBox="0 0 20 20" fill="none" xmlns="http://www.w3.org/2000/svg">
<path fill-rule="evenodd" clip-rule="evenodd" d="M5.58329 5.59984C5.58329 5.13966 5.95635 4.76661 6.41653 4.76661H10.4668C10.927 4.76661 11.3 5.13966 11.3 5.59984V8.01676C11.3 8.47694 10.927 8.84999 10.4668 8.84999H6.41653C5.95635 8.84999 5.58329 8.47694 5.58329 8.01676V5.59984ZM6.6665 7.76679V5.84981H10.2168V7.76679H6.6665Z" fill="black"/>
<path fill-rule="evenodd" clip-rule="evenodd" d="M6.02474 3L10.8586 3C12.0781 3 13.0667 3.98859 13.0667 5.20807V11.6C13.1957 11.8968 13.4175 12.3023 13.6968 12.638C14.0236 13.0308 14.327 13.2085 14.5667 13.2085C14.8802 13.2085 15.0239 13.09 15.1072 12.9742C15.2104 12.8309 15.2501 12.6425 15.2501 12.525V7.77214C15.2501 7.52875 15.1712 7.29193 15.0252 7.09722L14.1334 5.90825C13.954 5.66896 14.0025 5.32948 14.2418 5.15001C14.481 4.97054 14.8205 5.01904 15 5.25833L15.8917 6.44729C16.1784 6.8295 16.3333 7.29437 16.3333 7.77214V12.525C16.3333 12.8159 16.2505 13.2401 15.9863 13.6071C15.7021 14.0018 15.2332 14.2917 14.5667 14.2917C13.9473 14.2917 13.4392 13.9396 13.0667 13.5564V15.2502H13.3417C13.6408 15.2502 13.8833 15.4926 13.8833 15.7918C13.8833 16.0909 13.6408 16.3334 13.3417 16.3334H3.5416C3.24248 16.3334 3 16.0909 3 15.7918C3 15.4926 3.24248 15.2502 3.5416 15.2502H3.81668V5.20807C3.81668 3.98859 4.80526 3 6.02474 3ZM11.9834 5.20807V11.6951C11.9832 11.704 11.9832 11.713 11.9834 11.722V15.2502H4.89988V5.20807C4.89988 4.58683 5.4035 4.08321 6.02474 4.08321L10.8586 4.0832C11.4798 4.0832 11.9834 4.58682 11.9834 5.20807Z" fill="black"/>
</svg>
