<svg width="20" height="20" viewBox="0 0 20 20" fill="none" xmlns="http://www.w3.org/2000/svg">
<path d="M5.375 9.66667C5.375 9.36751 5.61751 9.125 5.91667 9.125H13C13.2992 9.125 13.5417 9.36751 13.5417 9.66667C13.5417 9.96582 13.2992 10.2083 13 10.2083H5.91667C5.61751 10.2083 5.375 9.96582 5.375 9.66667Z" fill="black"/>
<path d="M5.91667 12.0417C5.61751 12.0417 5.375 12.2842 5.375 12.5833C5.375 12.8825 5.61751 13.125 5.91667 13.125H10.9167C11.2158 13.125 11.4583 12.8825 11.4583 12.5833C11.4583 12.2842 11.2158 12.0417 10.9167 12.0417H5.91667Z" fill="black"/>
<path fill-rule="evenodd" clip-rule="evenodd" d="M4.66667 3C3.74619 3 3 3.74619 3 4.66667V14.6667C3 15.5871 3.74619 16.3333 4.66667 16.3333H14.6667C15.5871 16.3333 16.3333 15.5871 16.3333 14.6667V4.66667C16.3333 3.74619 15.5871 3 14.6667 3H4.66667ZM14.6667 4.08333H4.66667C4.3445 4.08333 4.08333 4.3445 4.08333 4.66667V14.6667C4.08333 14.9888 4.3445 15.25 4.66667 15.25H14.6667C14.9888 15.25 15.25 14.9888 15.25 14.6667V4.66667C15.25 4.3445 14.9888 4.08333 14.6667 4.08333Z" fill="black"/>
</svg>
