<svg width="20" height="20" viewBox="0 0 20 20" fill="none" xmlns="http://www.w3.org/2000/svg">
<path fill-rule="evenodd" clip-rule="evenodd" d="M10.2643 3C10.5636 3 10.8061 3.24259 10.8061 3.54183L10.8061 4.41681L14.3328 4.41681C15.2536 4.41681 16 5.16323 16 6.08399L16 7.56201C16 8.48277 15.2536 9.22918 14.3328 9.22918L10.8061 9.22918L10.8061 10.1042L13.0151 10.1042C13.9359 10.1042 14.6823 10.8506 14.6823 11.7713L14.6823 13.2494C14.6823 14.1701 13.9359 14.9165 13.0151 14.9165L10.8061 14.9165L10.8061 15.7915C10.8061 16.0907 10.5636 16.3333 10.2643 16.3333C9.96506 16.3333 9.72248 16.0907 9.72248 15.7915L9.72248 14.9165L7.51345 14.9165C6.59269 14.9165 5.84628 14.1701 5.84628 13.2494L5.84628 11.7713C5.84628 10.8506 6.59269 10.1042 7.51345 10.1042L9.72248 10.1042L9.72248 9.22918L6.19638 9.22918C5.27563 9.22918 4.52921 8.48277 4.52921 7.56201L4.52921 6.08398C4.52921 5.16323 5.27563 4.41681 6.19638 4.41681L9.72248 4.41681L9.72248 3.54183C9.72248 3.24259 9.96506 3 10.2643 3ZM7.51345 11.1878C7.19118 11.1878 6.92994 11.4491 6.92994 11.7713L6.92994 13.2494C6.92994 13.5716 7.19119 13.8329 7.51345 13.8329L13.0151 13.8329C13.3374 13.8329 13.5986 13.5716 13.5986 13.2494L13.5986 11.7713C13.5986 11.4491 13.3374 11.1878 13.0151 11.1878L7.51345 11.1878ZM6.19638 5.50048L14.3328 5.50048C14.6551 5.50048 14.9163 5.76172 14.9163 6.08399L14.9163 7.56201C14.9163 7.88428 14.6551 8.14552 14.3328 8.14552L6.19638 8.14552C5.87411 8.14552 5.61287 7.88428 5.61287 7.56201L5.61287 6.08398C5.61287 5.76172 5.87411 5.50048 6.19638 5.50048Z" fill="black"/>
</svg>
