<svg width="16" height="16" viewBox="0 0 16 16" fill="none" xmlns="http://www.w3.org/2000/svg">
<path d="M8.5487 8.14457C8.63154 8.2252 8.76484 8.34004 8.91477 8.4395L8.5487 8.14457Z" fill="black"/>
<path fill-rule="evenodd" clip-rule="evenodd" d="M8.5487 8.14457C7.36704 6.99446 7.33871 5.13954 8.50786 4.00161C9.67702 2.86368 11.5828 2.89125 12.7645 4.04135C13.8994 5.14598 13.9704 6.89977 12.9387 8.0457L12.9318 8.05328L12.4779 8.50071L12.793 8.80739C12.958 8.96801 12.9687 9.23587 12.7943 9.40556L12.3707 9.81787L12.5603 10.0024C12.7253 10.163 12.7359 10.4308 12.5616 10.6005L12.138 11.0128L12.3897 11.2578C12.6578 11.5188 12.6702 11.9475 12.395 12.2153L11.1049 13.4709C10.8298 13.7388 10.3893 13.7266 10.1212 13.4657L9.24935 12.6171C9.1199 12.4911 9.04497 12.3204 9.04297 12.141L9.00233 8.49336C8.97154 8.47561 8.94169 8.45735 8.91477 8.4395L8.5487 8.14457ZM11.001 4.57436C11.2137 4.78142 11.2137 5.11712 11.001 5.32418C10.7882 5.53123 10.4433 5.53123 10.2306 5.32418C10.0178 5.11712 10.0178 4.78142 10.2306 4.57436C10.4433 4.36731 10.7882 4.36731 11.001 4.57436Z" fill="black"/>
<path d="M8.53028 8.91205C7.60125 8.27184 6.99481 7.21748 6.99481 6.02526C6.99481 4.74259 7.69677 3.61948 8.7472 3.00002C8.74311 3.00001 8.73902 3 8.73493 3C7.0815 3 5.75392 4.33112 5.75392 5.95761L5.7985 6.4181C5.80456 6.44925 5.8124 6.48271 5.82129 6.51645L3.19998 9.1237C3.0711 9.25189 3 9.42422 3 9.60241V10.8025C3 11.1715 3.30266 11.4832 3.69181 11.4832H5.5163C5.90544 11.4832 6.2081 11.1715 6.2081 10.8025V10.456H6.8072C7.05375 10.456 7.24082 10.2593 7.24082 10.0321V9.77122H7.83991C8.08647 9.77122 8.27354 9.57448 8.27354 9.34733V8.91363L8.53028 8.91205Z" fill="black"/>
</svg>
