<svg width="16" height="16" viewBox="0 0 16 16" fill="none" xmlns="http://www.w3.org/2000/svg">
<path fill-rule="evenodd" clip-rule="evenodd" d="M13.6667 8.33333C13.6667 11.2789 11.2789 13.6667 8.33333 13.6667C5.38781 13.6667 3 11.2789 3 8.33333C3 5.38781 5.38781 3 8.33333 3C11.2789 3 13.6667 5.38781 13.6667 8.33333ZM7.53045 12.728C7.01898 12.0774 6.65331 11.419 6.4066 10.7667H4.58705C5.24457 11.7769 6.29966 12.5046 7.53045 12.728ZM8.3181 12.3247C7.89087 11.8047 7.57227 11.2828 7.34322 10.7667H9.21283C8.95004 11.3696 8.63084 11.9007 8.3181 12.3247ZM7.03765 9.9H9.53128C9.62353 9.59232 9.69735 9.27256 9.7464 8.94429C9.85044 8.24804 9.84383 7.51197 9.66283 6.76667H7.09851C7.0233 7.02905 6.96246 7.3013 6.92011 7.58144C6.81038 8.30737 6.82372 9.09076 7.03765 9.9ZM7.41032 5.9C7.68152 5.27564 8.01951 4.7356 8.34902 4.31602C8.80619 4.83532 9.13917 5.36701 9.37106 5.9H7.41032ZM10.5508 6.76667C10.7139 7.55529 10.7138 8.33434 10.6035 9.07237C10.5613 9.355 10.503 9.63142 10.4318 9.9H12.5175C12.7001 9.4125 12.8 8.88458 12.8 8.33333C12.8 7.78209 12.7001 7.25416 12.5175 6.76667H10.5508ZM12.0796 5.9H10.3042C10.0633 5.24101 9.69583 4.58334 9.17127 3.94514C10.387 4.17589 11.4283 4.89937 12.0796 5.9ZM6.47468 5.9H4.58705C5.24796 4.88456 6.31055 4.15453 7.5495 3.93521C7.15685 4.46342 6.76694 5.13241 6.47468 5.9ZM4.14914 6.76667H6.20111C6.14511 6.98939 6.09853 7.21807 6.06318 7.4519C5.94619 8.22586 5.95321 9.05239 6.14543 9.9H4.14914C3.96652 9.4125 3.86667 8.88458 3.86667 8.33333C3.86667 7.78209 3.96652 7.25416 4.14914 6.76667ZM9.09018 12.7361C9.47246 12.2005 9.85535 11.5286 10.1497 10.7667H12.0796C11.4139 11.7895 10.3407 12.5227 9.09018 12.7361Z" fill="black"/>
</svg>
