<svg width="20" height="20" viewBox="0 0 20 20" fill="none" xmlns="http://www.w3.org/2000/svg">
<path d="M6.94692 3.01842C7.23587 3.09547 7.40764 3.39217 7.33059 3.68111L4.06478 15.9279C3.98773 16.2169 3.69103 16.3886 3.40208 16.3116C3.11314 16.2345 2.94136 15.9378 3.01842 15.6489L6.28423 3.40208C6.36128 3.11314 6.65798 2.94136 6.94692 3.01842Z" fill="black"/>
<path d="M9.66504 3.1334C9.9581 3.1334 10.1957 3.37097 10.1957 3.66403V6.06443C10.1957 6.35749 9.9581 6.59506 9.66504 6.59506C9.37198 6.59506 9.13441 6.35749 9.13441 6.06443V3.66403C9.13441 3.37097 9.37198 3.1334 9.66504 3.1334Z" fill="black"/>
<path d="M10.1957 8.46484C10.1957 8.17178 9.9581 7.93421 9.66504 7.93421C9.37198 7.93421 9.13441 8.17178 9.13441 8.46484V10.8652C9.13441 11.1583 9.37198 11.3959 9.66504 11.3959C9.9581 11.3959 10.1957 11.1583 10.1957 10.8652V8.46484Z" fill="black"/>
<path d="M10.1957 13.2656C10.1957 12.9726 9.9581 12.735 9.66504 12.735C9.37198 12.735 9.13441 12.9726 9.13441 13.2656V15.666C9.13441 15.9591 9.37198 16.1966 9.66504 16.1966C9.9581 16.1966 10.1957 15.9591 10.1957 15.666V13.2656Z" fill="black"/>
<path d="M13.0458 3.40208C12.9687 3.11314 12.672 2.94136 12.3831 3.01842C12.0941 3.09547 11.9224 3.39217 11.9994 3.68111L15.2652 15.9279C15.3423 16.2169 15.639 16.3886 15.9279 16.3116C16.2169 16.2345 16.3886 15.9378 16.3116 15.6489L13.0458 3.40208Z" fill="black"/>
</svg>
