<svg width="12" height="12" viewBox="0 0 12 12" fill="none" xmlns="http://www.w3.org/2000/svg">
<path fill-rule="evenodd" clip-rule="evenodd" d="M6 10C8.20914 10 10 8.20914 10 6C10 3.79086 8.20914 2 6 2C3.79086 2 2 3.79086 2 6C2 8.20914 3.79086 10 6 10ZM6.25 4.25C6.25 4.11193 6.13807 4 6 4C5.86193 4 5.75 4.11193 5.75 4.25L5.75 5.75H4.25C4.11193 5.75 4 5.86193 4 6C4 6.13807 4.11193 6.25 4.25 6.25H5.75V7.75C5.75 7.88807 5.86193 8 6 8C6.13807 8 6.25 7.88807 6.25 7.75V6.25H7.75C7.88807 6.25 8 6.13807 8 6C8 5.86193 7.88807 5.75 7.75 5.75H6.25V4.25Z" fill="black"/>
</svg>
