<svg width="12" height="12" viewBox="0 0 12 12" fill="none" xmlns="http://www.w3.org/2000/svg">
<path d="M5.75 4.25C5.75 4.11193 5.86193 4 6 4C6.13807 4 6.25 4.11193 6.25 4.25V5.75H7.75C7.88807 5.75 8 5.86193 8 6C8 6.13807 7.88807 6.25 7.75 6.25H6.25V7.75C6.25 7.88807 6.13807 8 6 8C5.86193 8 5.75 7.88807 5.75 7.75V6.25H4.25C4.11193 6.25 4 6.13807 4 6C4 5.86193 4.11193 5.75 4.25 5.75H5.75L5.75 4.25Z" fill="black"/>
<path fill-rule="evenodd" clip-rule="evenodd" d="M10 6C10 8.20914 8.20914 10 6 10C3.79086 10 2 8.20914 2 6C2 3.79086 3.79086 2 6 2C8.20914 2 10 3.79086 10 6ZM9.35 6C9.35 7.85015 7.85015 9.35 6 9.35C4.14985 9.35 2.65 7.85015 2.65 6C2.65 4.14985 4.14985 2.65 6 2.65C7.85015 2.65 9.35 4.14985 9.35 6Z" fill="black"/>
</svg>
