<svg width="16" height="16" viewBox="0 0 16 16" fill="none" xmlns="http://www.w3.org/2000/svg">
<path d="M8.00156 5.00094C8.00156 4.81678 8.15085 4.6675 8.335 4.6675C8.51915 4.6675 8.66844 4.81679 8.66844 5.00094V7.00156H10.6691C10.8532 7.00156 11.0025 7.15085 11.0025 7.335C11.0025 7.51915 10.8532 7.66844 10.6691 7.66844H8.66844V9.66906C8.66844 9.85321 8.51915 10.0025 8.335 10.0025C8.15085 10.0025 8.00156 9.85321 8.00156 9.66906V7.66844H6.00094C5.81678 7.66844 5.6675 7.51915 5.6675 7.335C5.6675 7.15085 5.81679 7.00156 6.00094 7.00156H8.00156L8.00156 5.00094Z" fill="black"/>
<path fill-rule="evenodd" clip-rule="evenodd" d="M13.67 7.335C13.67 10.2814 11.2814 12.67 8.335 12.67C5.38856 12.67 3 10.2814 3 7.335C3 4.38856 5.38856 2 8.335 2C11.2814 2 13.67 4.38856 13.67 7.335ZM12.8031 7.335C12.8031 9.80264 10.8026 11.8031 8.335 11.8031C5.86736 11.8031 3.86694 9.80264 3.86694 7.335C3.86694 4.86736 5.86736 2.86694 8.335 2.86694C10.8026 2.86694 12.8031 4.86736 12.8031 7.335Z" fill="black"/>
</svg>
