<svg width="28" height="28" viewBox="0 0 28 28" fill="none" xmlns="http://www.w3.org/2000/svg">
<path fill-rule="evenodd" clip-rule="evenodd" d="M9.91667 5C9.49785 5 9.15833 5.33952 9.15833 5.75833C9.15833 6.17715 9.49785 6.51667 9.91667 6.51667H10.325V8.64683H9.33333C8.04467 8.64683 7 9.6915 7 10.9802V20.1782C7 21.4669 8.04467 22.5116 9.33333 22.5116H10.15V22.9095C10.15 23.3283 10.4895 23.6678 10.9083 23.6678C11.3272 23.6678 11.6667 23.3283 11.6667 22.9095V22.5116H16.3333V22.9095C16.3333 23.3283 16.6728 23.6678 17.0917 23.6678C17.5105 23.6678 17.85 23.3283 17.85 22.9095V22.5116H18.6667C19.9553 22.5116 21 21.4669 21 20.1782V10.9802C21 9.6915 19.9553 8.64683 18.6667 8.64683H17.675V6.51667H18.0833C18.5021 6.51667 18.8417 6.17715 18.8417 5.75833C18.8417 5.33952 18.5021 5 18.0833 5H9.91667ZM16.1583 8.64683V6.51667H11.8417V8.64683H16.1583Z" fill="black"/>
</svg>
