<svg width="48" height="48" viewBox="0 0 48 48" fill="none" xmlns="http://www.w3.org/2000/svg">
<path fill-rule="evenodd" clip-rule="evenodd" d="M10.6006 33.1598C10.6006 32.6076 11.0484 32.1599 11.6008 32.1599H36.5847C39.2073 32.1599 41.0756 29.2307 39.3045 26.9501L34.2454 20.4357C34.0759 20.2174 34.0759 19.9425 34.2454 19.7242L39.3045 13.2098C41.0756 10.9292 39.2072 8 36.5847 8H11.3933C9.60047 8 8 9.38087 8 11.2599V38.7002C8 39.418 8.58217 40 9.3003 40C10.0184 40 10.6006 39.418 10.6006 38.7002V33.1598ZM11.3933 10.5997C10.8742 10.5997 10.6006 10.9739 10.6006 11.2599V28.5604C10.6006 29.1126 11.0484 29.5602 11.6008 29.5602H36.5847C36.9546 29.5602 37.1955 29.3743 37.3074 29.1687C37.4144 28.9718 37.4134 28.7544 37.2503 28.5443L32.1911 22.0299C31.2931 20.8736 31.2931 19.2863 32.1911 18.13L37.2503 11.6156C37.4134 11.4055 37.4144 11.1881 37.3074 10.9912C37.1955 10.7856 36.9546 10.5997 36.5847 10.5997H11.3933Z" fill="black"/>
</svg>
