<svg width="48" height="48" viewBox="0 0 48 48" fill="none" xmlns="http://www.w3.org/2000/svg">
<path fill-rule="evenodd" clip-rule="evenodd" d="M39.425 23.0697C40.1917 23.453 40.1917 24.547 39.425 24.9303L9.50536 39.8889C8.81374 40.2346 8 39.7318 8 38.9586V9.04143C8 8.26825 8.81375 7.76537 9.50536 8.11115L39.425 23.0697ZM10.7045 12.5755C10.7045 12.1889 11.1113 11.9375 11.4571 12.1104L34.308 23.5349C34.6913 23.7265 34.6913 24.2735 34.308 24.4651L11.4571 35.8896C11.1113 36.0625 10.7045 35.8111 10.7045 35.4245V25.8722C10.7045 25.5849 10.9373 25.3521 11.2246 25.3521H19.442C20.1888 25.3521 20.7942 24.7468 20.7942 24C20.7942 23.2532 20.1888 22.6479 19.442 22.6479H11.2246C10.9373 22.6479 10.7045 22.415 10.7045 22.1278L10.7045 12.5755Z" fill="black"/>
</svg>
