<svg width="48" height="48" viewBox="0 0 48 48" fill="none" xmlns="http://www.w3.org/2000/svg">
<path fill-rule="evenodd" clip-rule="evenodd" d="M17.9378 5.26411C18.7875 3.57863 21.2125 3.57863 22.0622 5.26411L25.3029 11.6929C25.5963 12.2748 26.1256 12.7052 26.7585 12.8764L34.2998 14.9164C36.0741 15.3963 36.5954 17.6424 35.2114 18.8436L30.1896 23.2019C29.5883 23.7237 29.3023 24.5172 29.4336 25.2988L30.7835 33.3325C31.0933 35.1761 29.1636 36.5897 27.4783 35.7539L21.0311 32.5565C20.382 32.2346 19.618 32.2346 18.9689 32.5565L12.5217 35.7538C10.8364 36.5897 8.90667 35.1761 9.21645 33.3325L10.5664 25.2988C10.6977 24.5172 10.4117 23.7237 9.81042 23.2019L4.7886 18.8436C3.40456 17.6424 3.92593 15.3963 5.70019 14.9164L13.2415 12.8764C13.8744 12.7052 14.4037 12.2748 14.6971 11.6929L17.9378 5.26411ZM8.75759 16.7828C7.98493 16.9918 7.75874 17.9787 8.36326 18.5033L11.5146 21.2383C12.7964 22.3507 13.4127 24.0497 13.1304 25.7297L12.2049 31.2378C12.0696 32.0429 12.904 32.6621 13.6354 32.2994L17.8138 30.2272C19.1907 29.5444 20.8094 29.5444 22.1862 30.2272L26.3646 32.2994C27.096 32.6621 27.9304 32.0429 27.7951 31.2378L26.8696 25.7297C26.5873 24.0497 27.2036 22.3507 28.4854 21.2383L31.6367 18.5033C32.2413 17.9787 32.0151 16.9918 31.2424 16.7828L26.0795 15.3862C24.7386 15.0235 23.6093 14.1092 22.9812 12.8632L20.893 8.72066C20.5234 7.98752 19.4766 7.98752 19.107 8.72066L17.0188 12.8632C16.3907 14.1092 15.2614 15.0235 13.9205 15.3862L8.75759 16.7828Z" fill="black"/>
</svg>
