<svg width="32" height="32" viewBox="0 0 32 32" fill="none" xmlns="http://www.w3.org/2000/svg">
<path fill-rule="evenodd" clip-rule="evenodd" d="M26.3333 15.6667C26.3333 21.5577 21.5577 26.3333 15.6667 26.3333C9.77563 26.3333 5 21.5577 5 15.6667C5 9.77563 9.77563 5 15.6667 5C21.5577 5 26.3333 9.77563 26.3333 15.6667ZM24.6 15.6667C24.6 20.6004 20.6004 24.6 15.6667 24.6C10.7329 24.6 6.73333 20.6004 6.73333 15.6667C6.73333 10.7329 10.7329 6.73333 15.6667 6.73333C20.6004 6.73333 24.6 10.7329 24.6 15.6667Z" fill="black"/>
<path d="M14.5384 12.9615C14.348 13.197 14.2819 13.494 14.2819 13.6667C14.2819 14.1453 13.8939 14.5333 13.4153 14.5333C12.9366 14.5333 12.5486 14.1453 12.5486 13.6667C12.5486 13.1727 12.7071 12.4696 13.1904 11.8718C13.7036 11.2371 14.5202 10.8 15.661 10.8C16.8012 10.8 17.578 11.2332 18.0672 11.7173C18.3036 11.9512 18.4625 12.1862 18.5642 12.3674C18.6153 12.4584 18.6529 12.5374 18.6792 12.5983C18.6924 12.6288 18.7029 12.6549 18.7109 12.6759L18.7212 12.7036L18.7251 12.7145L18.7267 12.7192L18.7274 12.7213L18.7281 12.7233C18.7377 12.7518 18.7458 12.7808 18.7524 12.8101C18.9002 13.4682 18.9622 14.5013 18.5742 15.4204C18.373 15.897 18.0436 16.3567 17.5346 16.6923C17.0257 17.0279 16.3967 17.2 15.661 17.2C14.7869 17.2 14.2995 17.5806 13.9933 18.054C13.8433 18.2859 13.7356 18.5453 13.6623 18.8H17.9068C18.3854 18.8 18.7734 19.188 18.7734 19.6667C18.7734 20.1453 18.3854 20.5333 17.9068 20.5333H12.6667C12.188 20.5333 11.8 20.1453 11.8 19.6667C11.8 18.9899 11.976 17.9814 12.5378 17.1127C13.1299 16.1972 14.1397 15.4667 15.661 15.4667C16.123 15.4667 16.4049 15.361 16.5805 15.2452C16.7562 15.1294 16.8853 14.9641 16.9773 14.7462C17.1657 14.3001 17.1636 13.7062 17.0758 13.2595C17.0699 13.2475 17.0623 13.2328 17.0528 13.216C17.0142 13.1471 16.9485 13.0488 16.848 12.9494C16.6635 12.7668 16.3174 12.5333 15.661 12.5333C15.0052 12.5333 14.699 12.7629 14.5384 12.9615Z" fill="black"/>
</svg>
