<svg width="16" height="16" viewBox="0 0 16 16" fill="none" xmlns="http://www.w3.org/2000/svg">
<path fill-rule="evenodd" clip-rule="evenodd" d="M10.4333 10.2045C11.3859 9.47036 12 8.31543 12 7.01647C12 4.79824 10.2091 3 8 3C5.79086 3 4 4.79824 4 7.01647C4 8.31543 4.61409 9.47036 5.56667 10.2045V13.0632C5.56667 13.5444 6.10075 13.8314 6.49949 13.5645L8 12.56L9.50051 13.5645C9.89925 13.8314 10.4333 13.5444 10.4333 13.0632V10.2045ZM11.1333 7.01647C11.1333 8.75409 9.73049 10.1627 8 10.1627C6.26951 10.1627 4.86667 8.75409 4.86667 7.01647C4.86667 5.27885 6.26951 3.87024 8 3.87024C9.73049 3.87024 11.1333 5.27885 11.1333 7.01647ZM9.56667 10.7132C9.08553 10.919 8.55601 11.0329 8 11.0329C7.44399 11.0329 6.91447 10.919 6.43333 10.7132V12.5629L8 11.5141L9.56667 12.5629V10.7132Z" fill="black"/>
</svg>
