<svg width="16" height="16" viewBox="0 0 16 16" fill="none" xmlns="http://www.w3.org/2000/svg">
<path fill-rule="evenodd" clip-rule="evenodd" d="M13.67 9.42653C13.67 9.05827 13.3715 8.75973 13.0032 8.75973H3.66679C3.29853 8.75973 3 9.05827 3 9.42653V10.9036C3 11.5112 3.49258 12.0038 4.10021 12.0038H12.5698C13.1774 12.0038 13.67 11.5112 13.67 10.9036V9.42653ZM11.6027 10.435C11.8734 10.435 12.0929 10.2171 12.0929 9.94836C12.0929 9.67961 11.8734 9.46175 11.6027 9.46175C11.332 9.46175 11.1125 9.67961 11.1125 9.94836C11.1125 10.2171 11.332 10.435 11.6027 10.435Z" fill="black"/>
<path d="M3.28814 7.65122C3.23231 7.76208 3.31289 7.8929 3.43702 7.8929H13.233C13.3571 7.8929 13.4377 7.76208 13.3819 7.65122L11.8478 4.60532C11.6609 4.23416 11.2808 4 10.8652 4H5.80481C5.38924 4 5.00912 4.23416 4.82219 4.60532L3.28814 7.65122Z" fill="black"/>
</svg>
