<svg width="24" height="24" viewBox="0 0 24 24" fill="none" xmlns="http://www.w3.org/2000/svg">
<path fill-rule="evenodd" clip-rule="evenodd" d="M15.7729 4.09253C15.711 4.07301 15.65 4.12077 15.65 4.18569V7C15.65 8.46355 14.4636 9.65 13 9.65H10.5C9.03645 9.65 7.85 8.46355 7.85 7V4.1C7.85 4.04477 7.80523 4 7.75 4H6C4.89543 4 4 4.89543 4 6V18C4 19.1046 4.89543 20 6 20H6.25C6.30523 20 6.35 19.9552 6.35 19.9V14.5C6.35 13.0364 7.53645 11.85 9 11.85H15C16.4636 11.85 17.65 13.0364 17.65 14.5V19.9C17.65 19.9552 17.6948 20 17.75 20H18C19.1046 20 20 19.1046 20 18V8.82843C20 8.29799 19.7893 7.78929 19.4142 7.41421L16.5858 4.58579C16.3563 4.3563 16.0768 4.18834 15.7729 4.09253ZM9.25 4C9.19477 4 9.15 4.04477 9.15 4.1V7C9.15 7.74558 9.75442 8.35 10.5 8.35H13C13.7456 8.35 14.35 7.74558 14.35 7V4.1C14.35 4.04477 14.3052 4 14.25 4H9.25ZM16.35 19.9C16.35 19.9552 16.3052 20 16.25 20H7.75C7.69477 20 7.65 19.9552 7.65 19.9V14.5C7.65 13.7544 8.25442 13.15 9 13.15H15C15.7456 13.15 16.35 13.7544 16.35 14.5V19.9Z" fill="black"/>
</svg>
