<svg width="546" height="314" viewBox="0 0 546 314" fill="none" xmlns="http://www.w3.org/2000/svg">
<rect width="546" height="314" rx="20" fill="#EAEAEA"/>
<path d="M303.938 161.073C306.009 159.527 306.428 156.602 304.875 154.541C303.322 152.479 300.384 152.061 298.312 153.607L264.065 179.177L248.19 163.373C246.359 161.551 243.391 161.551 241.56 163.373C239.73 165.196 239.73 168.15 241.56 169.972L259.735 188.065C261.715 190.035 264.849 190.257 267.088 188.585L303.938 161.073Z" fill="black"/>
<path fill-rule="evenodd" clip-rule="evenodd" d="M262.378 85.2842L206.128 123.781C201.04 127.263 198 133.015 198 139.161V204.003C198 219.465 210.592 232 226.125 232H319.875C335.408 232 348 219.465 348 204.003V139.161C348 133.015 344.96 127.263 339.872 123.781L283.622 85.2842C277.224 80.9053 268.776 80.9052 262.378 85.2842ZM276.718 95.2817L332.968 133.778C334.749 134.997 335.812 137.01 335.812 139.161V204.003C335.812 212.765 328.677 219.868 319.875 219.868H226.125C217.323 219.868 210.188 212.765 210.188 204.003V139.161C210.188 137.01 211.251 134.997 213.032 133.778L269.282 95.2817C271.522 93.749 274.478 93.749 276.718 95.2817Z" fill="black"/>
</svg>
