<svg width="48" height="48" viewBox="0 0 48 48" fill="none" xmlns="http://www.w3.org/2000/svg">
<path fill-rule="evenodd" clip-rule="evenodd" d="M24 40C32.8366 40 40 32.8366 40 24C40 15.1634 32.8366 8 24 8C15.1634 8 8 15.1634 8 24C8 32.8366 15.1634 40 24 40ZM18.9192 17.0808C18.4116 16.5731 17.5884 16.5731 17.0808 17.0808C16.5731 17.5884 16.5731 18.4116 17.0808 18.9192L22.1615 24L17.0808 29.0808C16.5731 29.5884 16.5731 30.4116 17.0808 30.9192C17.5884 31.4269 18.4116 31.4269 18.9192 30.9192L24 25.8385L29.0808 30.9192C29.5884 31.4269 30.4116 31.4269 30.9192 30.9192C31.4269 30.4116 31.4269 29.5884 30.9192 29.0808L25.8385 24L30.9192 18.9192C31.4269 18.4116 31.4269 17.5884 30.9192 17.0808C30.4116 16.5731 29.5884 16.5731 29.0808 17.0808L24 22.1615L18.9192 17.0808Z" fill="black"/>
</svg>
