<svg width="20" height="20" viewBox="0 0 20 20" fill="none" xmlns="http://www.w3.org/2000/svg">
<path fill-rule="evenodd" clip-rule="evenodd" d="M3.89413 12.9969C2.05349 9.80966 3.1458 5.73409 6.33389 3.8939C9.52197 2.05372 13.5986 3.14577 15.4392 6.33306C17.2798 9.52034 16.1875 13.5959 12.9994 15.4361C9.81136 17.2763 5.73477 16.1842 3.89413 12.9969ZM6.76792 4.89537C5.85352 5.45028 5.15369 6.22852 4.69816 7.11915C4.61066 7.29022 4.70955 7.49517 4.80564 7.66156C4.96735 7.94157 5.14847 8.01002 5.29672 8.02496C5.47883 8.0433 5.66775 7.98152 5.77308 7.92072L6.13387 7.71247C6.3929 7.56296 6.72412 7.65169 6.87367 7.91066L7.91517 9.71412C7.95983 9.79146 7.99986 9.82476 8.02344 9.83991C8.04743 9.85531 8.07315 9.86392 8.10431 9.86706C8.18001 9.87468 8.26832 9.84693 8.31352 9.82084L10.4526 8.58616C10.9762 8.28395 10.8729 7.49973 10.2889 7.34329C10.1856 7.31562 10.0929 7.25801 10.0223 7.17772C9.81947 6.947 9.4651 6.62748 9.08439 6.42759C8.68914 6.22007 8.40604 6.20859 8.21525 6.31872C7.95622 6.46823 7.625 6.3795 7.47544 6.12054L6.76792 4.89537ZM5.18813 9.10238C4.70799 9.05401 4.07689 9.26902 4.08393 9.75142C4.09734 10.6718 4.33911 11.6017 4.83217 12.4555C5.83759 14.1965 7.63961 15.1911 9.51221 15.2447C9.66868 15.2491 9.76328 15.0801 9.68501 14.9446C9.53753 14.6892 9.39511 14.2746 9.44109 13.8183C9.49049 13.3283 9.75489 12.8363 10.3407 12.4981L10.7015 12.2899C11.0402 12.0944 11.1563 11.6613 10.9607 11.3227C10.8479 11.1274 10.7396 10.8134 10.7748 10.4635C10.8135 10.0798 11.0224 9.70002 11.4639 9.44519L12.0049 9.13293C12.0447 9.10997 12.0584 9.05915 12.0355 9.01932C12.0126 8.97935 11.9615 8.96561 11.9216 8.98865L8.8551 10.7586C8.65979 10.8714 8.34565 10.9797 7.99572 10.9445C7.61193 10.9058 7.23202 10.6969 6.97713 10.2556L6.59132 9.5875C6.37316 9.20972 5.89543 9.08603 5.4597 9.10872C5.37153 9.11331 5.28067 9.1117 5.18813 9.10238ZM10.7013 14.5386C10.8871 14.8604 11.2663 15.0262 11.6145 14.8962C11.9016 14.7889 12.1837 14.6566 12.4579 14.4983C14.4008 13.3768 15.4143 11.2641 15.2282 9.16799C15.1998 8.84816 14.9595 8.59445 14.6493 8.51135L13.8415 8.29496C13.4166 8.18113 13.0661 8.63775 13.2861 9.01863C13.4356 9.2776 13.3469 9.60874 13.0878 9.75825L12.0055 10.383C11.9281 10.4276 11.8948 10.4677 11.8797 10.4912C11.8643 10.5152 11.8557 10.5409 11.8525 10.5721C11.8449 10.6478 11.8726 10.7361 11.8987 10.7813L12.5236 11.8633C12.6732 12.1223 12.5844 12.4534 12.3254 12.603L10.8823 13.4359C10.6022 13.5976 10.5337 13.7787 10.5188 13.9269C10.5004 14.109 10.5622 14.2978 10.623 14.4031L10.7013 14.5386ZM14.1834 7.26547C14.4238 7.32987 14.6256 7.08997 14.5012 6.8745C13.2198 4.65565 10.6446 3.64924 8.27832 4.25788C7.99636 4.33041 7.87936 4.6542 8.02493 4.90627C8.12379 5.07747 8.32 5.16244 8.51769 5.16616C8.91207 5.17358 9.28651 5.31058 9.588 5.46888C9.96082 5.66462 10.2971 5.92922 10.5558 6.1738C10.6666 6.27855 10.7991 6.35886 10.9463 6.39832L14.1834 7.26547Z" fill="black"/>
</svg>
