<svg width="24" height="24" viewBox="0 0 24 24" fill="none" xmlns="http://www.w3.org/2000/svg">
<path d="M9 6C9 4.34315 10.3431 3 12 3C13.6569 3 15 4.34315 15 6V11C15 12.6569 13.6569 14 12 14C10.3431 14 9 12.6569 9 11V6Z" fill="black"/>
<path d="M12.7 16.9588C13.3181 16.8858 13.9226 16.7163 14.4914 16.4553C15.2804 16.0931 15.982 15.5632 16.5477 14.9022C17.1135 14.2411 17.53 13.4645 17.7685 12.626C17.95 11.9883 18.0252 11.3262 17.9926 10.6666C17.9755 10.322 17.6529 10.088 17.312 10.1409C16.9718 10.1938 16.743 10.5126 16.7509 10.8567C16.7618 11.3368 16.7008 11.8169 16.5688 12.2808C16.3799 12.945 16.05 13.56 15.6019 14.0836C15.1538 14.6072 14.5981 15.0268 13.9732 15.3137C13.3483 15.6005 12.669 15.7477 11.9821 15.7451C11.2952 15.7425 10.617 15.5901 9.99422 15.2986C9.37148 15.007 8.819 14.5831 8.37485 14.0562C7.93069 13.5292 7.60543 12.9117 7.42147 12.2461C7.29296 11.7812 7.23554 11.3006 7.25009 10.8207C7.26053 10.4766 7.03415 10.1561 6.69443 10.1007C6.35386 10.0451 6.02945 10.2767 6.00982 10.6212C5.97225 11.2806 6.04252 11.9431 6.21917 12.5822C6.45144 13.4225 6.86211 14.2022 7.4229 14.8676C7.98368 15.5329 8.68124 16.0681 9.46751 16.4362C10.0786 16.7223 10.732 16.9022 11.4 16.9698V19.35C11.4 19.709 11.691 20 12.05 20C12.409 20 12.7 19.709 12.7 19.35V16.9588Z" fill="black"/>
</svg>
