<svg width="32" height="32" viewBox="0 0 32 32" fill="none" xmlns="http://www.w3.org/2000/svg">
<path d="M13.1226 9.29371C13.4495 9.65277 13.4137 10.2003 13.0427 10.5166L8.01861 14.8002H24.5428V10.4465C24.5428 9.96795 24.9436 9.58003 25.4381 9.58003C25.9325 9.58003 26.3333 9.96795 26.3333 10.4465V15.2001C26.3333 15.9363 25.7167 16.5331 24.956 16.5331H8.01861L13.0427 20.8167C13.4137 21.133 13.4495 21.6806 13.1226 22.0396C12.7958 22.3987 12.2301 22.4333 11.8591 22.117L5.46686 16.6669C4.84438 16.1362 4.84438 15.1972 5.46686 14.6664L11.8591 9.21632C12.2301 8.89999 12.7958 8.93464 13.1226 9.29371Z" fill="black"/>
</svg>
