<svg width="32" height="32" viewBox="0 0 32 32" fill="none" xmlns="http://www.w3.org/2000/svg">
<path d="M21.8592 6.28214C22.1326 5.94797 22.629 5.89587 22.9298 6.20557C23.4092 6.69902 23.8126 7.26297 24.1252 7.87912C24.5561 8.72824 24.8052 9.65785 24.8566 10.6086C24.9081 11.5594 24.7608 12.5105 24.4242 13.4012C24.1798 14.0475 23.8397 14.6517 23.4164 15.194C23.1508 15.5344 22.6517 15.5361 22.3438 15.2334C22.0359 14.9307 22.0372 14.4386 22.2912 14.0894C22.5684 13.7085 22.7941 13.2912 22.9616 12.8483C23.2214 12.1609 23.3351 11.4269 23.2953 10.6932C23.2556 9.95939 23.0634 9.24196 22.7308 8.58665C22.5166 8.16442 22.2471 7.77396 21.9305 7.42514C21.6402 7.10547 21.5858 6.61631 21.8592 6.28214Z" fill="black"/>
<path d="M20.4074 8.11452C20.6808 7.8411 21.1291 7.83852 21.3586 8.14973C21.5825 8.45333 21.7693 8.78365 21.9143 9.13374C22.1489 9.70005 22.2696 10.307 22.2696 10.92C22.2696 11.5329 22.1489 12.1399 21.9143 12.7062C21.7693 13.0563 21.5825 13.3866 21.3586 13.6902C21.1291 14.0014 20.6808 13.9988 20.4074 13.7254C20.134 13.452 20.1417 13.0115 20.3508 12.6862C20.4556 12.523 20.546 12.3504 20.6206 12.1703C20.7848 11.7739 20.8693 11.349 20.8693 10.92C20.8693 10.4909 20.7848 10.066 20.6206 9.66961C20.546 9.48954 20.4556 9.31694 20.3508 9.15375C20.1417 8.82843 20.134 8.38795 20.4074 8.11452Z" fill="black"/>
<path d="M15.8154 14.9878C18.025 14.9878 19.8163 13.1966 19.8163 10.987C19.8163 8.77737 18.025 6.98613 15.8154 6.98613C13.6058 6.98613 11.8146 8.77737 11.8146 10.987C11.8146 13.1966 13.6058 14.9878 15.8154 14.9878Z" fill="black"/>
<path d="M24.4401 19.8939C25.2149 18.0234 23.5095 16.3214 21.4848 16.3214H10.1461C8.12143 16.3214 6.41594 18.0234 7.19074 19.8939C7.65988 21.0265 8.34751 22.0556 9.21438 22.9225C10.0812 23.7894 11.1104 24.477 12.243 24.9461C13.3756 25.4153 14.5895 25.6568 15.8154 25.6568C17.0414 25.6568 18.2553 25.4153 19.3879 24.9461C20.5205 24.477 21.5496 23.7894 22.4165 22.9225C23.2834 22.0556 23.971 21.0265 24.4401 19.8939Z" fill="black"/>
</svg>
