<svg width="24" height="24" viewBox="0 0 24 24" fill="none" xmlns="http://www.w3.org/2000/svg">
<path fill-rule="evenodd" clip-rule="evenodd" d="M6 4C4.89543 4 4 4.89543 4 6V18C4 19.1046 4.89543 20 6 20H18C19.1046 20 20 19.1046 20 18V6C20 4.89543 19.1046 4 18 4H6ZM8.54036 8.54039C8.7942 8.28655 9.20575 8.28655 9.45959 8.54039L12 11.0808L14.5404 8.54039C14.7942 8.28655 15.2058 8.28655 15.4596 8.54039C15.7134 8.79423 15.7134 9.20578 15.4596 9.45963L12.9192 12L15.4596 14.5404C15.7134 14.7942 15.7134 15.2058 15.4596 15.4596C15.2058 15.7135 14.7942 15.7135 14.5404 15.4596L12 12.9192L9.45959 15.4596C9.20575 15.7135 8.7942 15.7135 8.54036 15.4596C8.28652 15.2058 8.28652 14.7942 8.54036 14.5404L11.0807 12L8.54036 9.45963C8.28652 9.20578 8.28652 8.79423 8.54036 8.54039Z" fill="black"/>
</svg>
