<svg width="28" height="28" viewBox="0 0 28 28" fill="none" xmlns="http://www.w3.org/2000/svg">
<path d="M10.898 11.508C10.898 11.7589 10.9212 12.1395 10.9935 12.5213L10.898 11.508Z" fill="black"/>
<path fill-rule="evenodd" clip-rule="evenodd" d="M10.898 11.508C10.898 7.92904 13.7412 5 17.2823 5C20.8234 5 23.6667 7.92904 23.6667 11.508C23.6667 14.9455 21.0453 17.7817 17.6999 18.0023L17.6778 18.0038L16.2942 18.0125V18.9668C16.2942 19.4667 15.8935 19.8996 15.3655 19.8996H14.0824V20.4737C14.0824 20.9735 13.6818 21.4064 13.1538 21.4064H11.8707V22.1689C11.8707 22.9808 11.2225 23.6667 10.3891 23.6667H6.48162C5.6482 23.6667 5 22.9808 5 22.1689V19.5281C5 19.136 5.15226 18.7568 5.42828 18.4748L11.0423 12.7377C11.0232 12.6635 11.0064 12.5898 10.9935 12.5213L10.898 11.508ZM20.1667 9.66667C20.1667 10.311 19.6443 10.8333 19 10.8333C18.3557 10.8333 17.8333 10.311 17.8333 9.66667C17.8333 9.02233 18.3557 8.5 19 8.5C19.6443 8.5 20.1667 9.02233 20.1667 9.66667Z" fill="black"/>
</svg>
