<svg width="48" height="48" viewBox="0 0 48 48" fill="none" xmlns="http://www.w3.org/2000/svg">
<path fill-rule="evenodd" clip-rule="evenodd" d="M23.8745 8.09679C24.555 7.84914 25.3087 8.08735 25.7505 8.68969L31.6452 16.7276C32.1971 17.4802 32.0944 18.5599 31.4118 19.1804L26.1052 24.0043V24.1475L31.4118 28.9714C32.099 29.5961 32.1978 30.685 31.6355 31.4372L25.7408 39.3233C25.2956 39.9189 24.5438 40.1505 23.8671 39.9005C23.1903 39.6505 22.7368 38.9737 22.7368 38.2137V28.3882L18.8751 32.4837C18.2174 33.1813 17.151 33.1813 16.4933 32.4837C15.8356 31.7862 15.8356 30.6552 16.4933 29.9577L22.4063 23.6866L16.5752 18.2754C15.8752 17.6257 15.8042 16.4973 16.4167 15.7549C17.0292 15.0125 18.0933 14.9372 18.7933 15.5868L22.7368 19.2464V9.78631C22.7368 9.02323 23.1939 8.34443 23.8745 8.09679ZM26.1052 28.8526V33.0852L27.989 30.565L26.1052 28.8526ZM26.1052 19.2992L28.0004 17.5764L26.1052 14.9922V19.2992Z" fill="black"/>
</svg>
