<svg width="16" height="16" viewBox="0 0 16 16" fill="none" xmlns="http://www.w3.org/2000/svg">
<path fill-rule="evenodd" clip-rule="evenodd" d="M11.6667 7C12.7712 7 13.6667 6.10457 13.6667 5C13.6667 3.89543 12.7712 3 11.6667 3C10.5621 3 9.66667 3.89543 9.66667 5C9.66667 5.16755 9.68727 5.33028 9.72608 5.48581L6.55263 7.07254C6.18592 6.6215 5.62661 6.33333 5 6.33333C3.89543 6.33333 3 7.22876 3 8.33333C3 9.4379 3.89543 10.3333 5 10.3333C5.62661 10.3333 6.18592 10.0452 6.55263 9.59413L9.72608 11.1809C9.68727 11.3364 9.66667 11.4991 9.66667 11.6667C9.66667 12.7712 10.5621 13.6667 11.6667 13.6667C12.7712 13.6667 13.6667 12.7712 13.6667 11.6667C13.6667 10.5621 12.7712 9.66667 11.6667 9.66667C11.0401 9.66667 10.4807 9.95483 10.114 10.4059L6.94059 8.81915C6.9794 8.66362 7 8.50088 7 8.33333C7 8.16579 6.9794 8.00305 6.94059 7.84752L10.114 6.2608C10.4807 6.71183 11.0401 7 11.6667 7Z" fill="black"/>
</svg>
