<svg width="16" height="16" viewBox="0 0 16 16" fill="none" xmlns="http://www.w3.org/2000/svg">
<path fill-rule="evenodd" clip-rule="evenodd" d="M4.5 4.56667C4.53682 4.56667 4.56667 4.53682 4.56667 4.5V3.43333C4.56667 3.19401 4.76068 3 5 3C5.23932 3 5.43333 3.19401 5.43333 3.43333V4.5C5.43333 4.53682 5.46318 4.56667 5.5 4.56667H11.1667C11.2035 4.56667 11.2333 4.53682 11.2333 4.5V3.43333C11.2333 3.19401 11.4273 3 11.6667 3C11.906 3 12.1 3.19401 12.1 3.43333V4.5C12.1 4.53682 12.1298 4.56667 12.1667 4.56667H13.2333C13.4727 4.56667 13.6667 4.76068 13.6667 5C13.6667 5.23932 13.4727 5.43333 13.2333 5.43333H12.1667C12.1298 5.43333 12.1 5.46318 12.1 5.5V11.1667C12.1 11.2035 12.1298 11.2333 12.1667 11.2333H13.2333C13.4727 11.2333 13.6667 11.4273 13.6667 11.6667C13.6667 11.906 13.4727 12.1 13.2333 12.1H12.1667C12.1298 12.1 12.1 12.1298 12.1 12.1667V13.2333C12.1 13.4727 11.906 13.6667 11.6667 13.6667C11.4273 13.6667 11.2333 13.4727 11.2333 13.2333V12.1667C11.2333 12.1298 11.2035 12.1 11.1667 12.1H5.5C5.46318 12.1 5.43333 12.1298 5.43333 12.1667V13.2333C5.43333 13.4727 5.23932 13.6667 5 13.6667C4.76068 13.6667 4.56667 13.4727 4.56667 13.2333V12.1667C4.56667 12.1298 4.53682 12.1 4.5 12.1H3.43333C3.19401 12.1 3 11.906 3 11.6667C3 11.4273 3.19401 11.2333 3.43333 11.2333H4.5C4.53682 11.2333 4.56667 11.2035 4.56667 11.1667V5.5C4.56667 5.46318 4.53682 5.43333 4.5 5.43333H3.43333C3.19401 5.43333 3 5.23932 3 5C3 4.76068 3.19401 4.56667 3.43333 4.56667H4.5ZM5.5 5.43333C5.46318 5.43333 5.43333 5.46318 5.43333 5.5V11.1667C5.43333 11.2035 5.46318 11.2333 5.5 11.2333H11.1667C11.2035 11.2333 11.2333 11.2035 11.2333 11.1667V5.5C11.2333 5.46318 11.2035 5.43333 11.1667 5.43333H5.5Z" fill="black"/>
</svg>
