<svg width="28" height="28" viewBox="0 0 28 28" fill="none" xmlns="http://www.w3.org/2000/svg">
<path d="M13.1704 6.19237C14.1594 5.8843 15.1342 5.99241 15.766 6.1952L15.8031 6.20709L15.8567 6.22859C16.1519 6.34687 16.8197 6.61447 17.3991 7.23436C18.0183 7.89683 18.451 8.86211 18.451 10.218C18.451 11.745 17.6897 12.7607 16.78 13.3472C15.9278 13.8968 14.9561 14.0729 14.3333 14.0729H6.09804C5.49161 14.0729 5 13.5798 5 12.9715C5 12.3632 5.49161 11.8701 6.09804 11.8701H14.3333C14.6256 11.8701 15.1637 11.7708 15.5925 11.4943C15.9639 11.2548 16.2549 10.8938 16.2549 10.218C16.2549 9.37105 16.0013 8.95959 15.797 8.74094C15.5765 8.50501 15.3153 8.38512 15.0642 8.28319C14.7757 8.19833 14.288 8.15081 13.8217 8.29605C13.391 8.43022 12.9202 8.74219 12.6077 9.52564C12.3825 10.0904 11.7435 10.3651 11.1804 10.1392C10.6174 9.9133 10.3435 9.27232 10.5687 8.70754C11.1347 7.28819 12.1279 6.51711 13.1704 6.19237Z" fill="black"/>
<path d="M18.5212 12.115C18.9861 11.6754 19.6546 11.3194 20.3725 11.3194C20.9143 11.3194 21.7024 11.4733 22.3867 11.9675C23.1269 12.5021 23.6667 13.3835 23.6667 14.6236C23.6667 15.8636 23.1269 16.745 22.3867 17.2796C21.7024 17.7738 20.9143 17.9277 20.3725 17.9277H19.9195C19.957 18.3485 19.9124 18.8081 19.7907 19.2963C19.4697 20.5843 18.3281 21.2319 17.0784 21.2319C15.6685 21.2319 14.7603 20.2557 14.4493 19.6318C14.1781 19.0878 14.3979 18.4262 14.9403 18.1542C15.4827 17.8821 16.1423 18.1026 16.4135 18.6467C16.4135 18.6467 16.4312 18.6799 16.4752 18.7312C16.517 18.78 16.5717 18.8325 16.6365 18.8793C16.7639 18.9715 16.9099 19.0291 17.0784 19.0291C17.3459 19.0291 17.4894 18.9653 17.5529 18.9222C17.6059 18.8863 17.6402 18.8426 17.6602 18.762C17.7448 18.4226 17.7447 18.2093 17.7285 18.0909C17.7206 18.0329 17.7089 17.9974 17.7011 17.9786C17.6935 17.9601 17.6875 17.9523 17.6861 17.9505C17.6848 17.9488 17.681 17.944 17.6663 17.9378C17.6477 17.93 17.6305 17.9281 17.6278 17.9278L6.09804 17.9277C5.49161 17.9277 5 17.4346 5 16.8263C5 16.2181 5.49161 15.7249 6.09804 15.7249H20.3725C20.5628 15.7249 20.8727 15.6586 21.1035 15.492C21.2783 15.3657 21.4706 15.1457 21.4706 14.6236C21.4706 14.1014 21.2783 13.8814 21.1035 13.7551C20.8727 13.5885 20.5628 13.5222 20.3725 13.5222C20.373 13.5222 20.3731 13.5221 20.3725 13.5222C20.3678 13.5226 20.3289 13.5266 20.2607 13.5577C20.1869 13.5913 20.104 13.6457 20.0278 13.7178C19.8611 13.8753 19.8235 14.0164 19.8235 14.0729C19.8235 14.6811 19.3319 15.1743 18.7255 15.1743C18.1191 15.1743 17.6274 14.6811 17.6274 14.0729C17.6274 13.2482 18.0474 12.5632 18.5212 12.115Z" fill="black"/>
<path d="M8.78825 7.62967C8.78825 8.23796 8.29664 8.73107 7.69021 8.73107C7.08378 8.73107 6.59217 8.23796 6.59217 7.62967C6.59217 7.02139 7.08378 6.52827 7.69021 6.52827C8.29664 6.52827 8.78825 7.02139 8.78825 7.62967Z" fill="black"/>
<path d="M12.0824 22.3333C12.6888 22.3333 13.1804 21.8402 13.1804 21.2319C13.1804 20.6237 12.6888 20.1305 12.0824 20.1305C11.4759 20.1305 10.9843 20.6237 10.9843 21.2319C10.9843 21.8402 11.4759 22.3333 12.0824 22.3333Z" fill="black"/>
<path d="M22.0196 8.56587C22.0196 9.17415 21.528 9.66726 20.9216 9.66726C20.3151 9.66726 19.8235 9.17415 19.8235 8.56587C19.8235 7.95758 20.3151 7.46447 20.9216 7.46447C21.528 7.46447 22.0196 7.95758 22.0196 8.56587Z" fill="black"/>
</svg>
