<svg width="48" height="48" viewBox="0 0 48 48" fill="none" xmlns="http://www.w3.org/2000/svg">
<path fill-rule="evenodd" clip-rule="evenodd" d="M40 28.2745C40 27.1701 39.1047 26.2747 38.0002 26.2747H9.99976C8.89532 26.2747 8 27.1701 8 28.2745V32.7043C8 34.5267 9.47728 36.0039 11.2996 36.0039H36.7004C38.5227 36.0039 40 34.5267 40 32.7043V28.2745ZM33.8 31.2989C34.6119 31.2989 35.27 30.6455 35.27 29.8395C35.27 29.0335 34.6119 28.3801 33.8 28.3801C32.9882 28.3801 32.33 29.0335 32.33 29.8395C32.33 30.6455 32.9882 31.2989 33.8 31.2989Z" fill="black"/>
<path d="M8.86416 22.9502C8.6967 23.2827 8.93838 23.6751 9.31066 23.6751H38.6893C39.0616 23.6751 39.3033 23.2827 39.1358 22.9502L34.5351 13.8154C33.9745 12.7023 32.8345 12 31.5882 12H16.4118C15.1655 12 14.0255 12.7023 13.4649 13.8154L8.86416 22.9502Z" fill="black"/>
</svg>
