<svg width="16" height="16" viewBox="0 0 16 16" fill="none" xmlns="http://www.w3.org/2000/svg">
<path d="M6.67358 6.68468H7.66667V7.41441H6.82096C6.64306 7.41441 6.39204 7.46217 6.16299 7.60168C6.13027 7.62161 6.098 7.64341 6.06645 7.66721C5.95734 7.74953 5.85955 7.85389 5.78272 7.98295C5.726 7.87546 5.69257 7.74616 5.69257 7.59009C5.69257 7.21861 5.85421 7.00126 6.04977 6.87011C6.25486 6.73257 6.50717 6.68468 6.67358 6.68468Z" fill="black"/>
<path d="M8.33333 6.68468V7.41441H9.17904C9.38236 7.41441 9.68117 7.4768 9.93355 7.66721C10.0397 7.74731 10.1351 7.84826 10.211 7.97252C10.2716 7.86631 10.3074 7.7402 10.3074 7.59009C10.3074 7.21861 10.1458 7.00126 9.95023 6.87011C9.74515 6.73257 9.49283 6.68468 9.32643 6.68468H8.33333Z" fill="black"/>
<path d="M6.82096 7.76577H7.66667V8.4955H6.96834C6.78069 8.4955 6.51083 8.5612 6.28536 8.75561C6.19233 8.83583 6.10961 8.93558 6.04391 9.05709C5.99693 8.95147 5.96891 8.82442 5.96891 8.67117C5.96891 8.65875 5.96907 8.64649 5.96938 8.63441C5.97317 8.48758 5.99963 8.36596 6.04084 8.26506C6.09997 8.12027 6.18946 8.01815 6.28588 7.9454C6.30806 7.92867 6.33087 7.9133 6.35406 7.89924C6.51642 7.80078 6.69795 7.76577 6.82096 7.76577Z" fill="black"/>
<path d="M8.33333 7.76577V8.4955H9.03166C9.21931 8.4955 9.48917 8.5612 9.71464 8.75561C9.80516 8.83367 9.88593 8.93022 9.95074 9.04731C10.0011 8.94302 10.0311 8.819 10.0311 8.67117C10.0311 8.65087 10.0307 8.63102 10.0298 8.61163C10.0236 8.46556 9.99458 8.34512 9.95093 8.24563C9.8919 8.11108 9.80617 8.01485 9.71412 7.9454C9.53664 7.81149 9.31962 7.76577 9.17904 7.76577H8.33333Z" fill="black"/>
<path fill-rule="evenodd" clip-rule="evenodd" d="M5.33333 3C4.59695 3 4 3.59695 4 4.33333V12.3333C4 13.0697 4.59695 13.6667 5.33333 13.6667H10.6667C11.403 13.6667 12 13.0697 12 12.3333V4.33333C12 3.59695 11.403 3 10.6667 3H5.33333ZM5.63513 8.38291C5.45569 8.19294 5.33333 7.9336 5.33333 7.59009C5.33333 7.09671 5.55857 6.77351 5.84661 6.58034C6.12511 6.39356 6.45311 6.33333 6.67358 6.33333H9.32643C9.54689 6.33333 9.87489 6.39356 10.1534 6.58034C10.4414 6.77351 10.6667 7.09671 10.6667 7.59009C10.6667 7.92346 10.5397 8.17555 10.3607 8.36157C10.3799 8.45646 10.3903 8.55951 10.3903 8.67117C10.3903 9.00629 10.274 9.26076 10.1079 9.44891C10.0927 9.5849 10.0473 9.76358 9.95154 9.92492C9.82454 10.1388 9.59962 10.3333 9.24353 10.3333C9.14433 10.3333 9.06391 10.2547 9.06391 10.1577C9.06391 10.0606 9.14433 9.98198 9.24353 9.98198C9.44012 9.98198 9.56062 9.88368 9.64087 9.7485C9.68739 9.67015 9.71712 9.58338 9.7345 9.50653C9.72426 9.44873 9.71047 9.39608 9.69389 9.34811C9.64149 9.19651 9.56121 9.09171 9.47707 9.01916C9.32641 8.88926 9.14492 8.84685 9.03166 8.84685H8.33333V10.3333C8.33333 10.5174 8.18409 10.6667 8 10.6667C7.81591 10.6667 7.66667 10.5174 7.66667 10.3333V8.84685H6.96834C6.85508 8.84685 6.67359 8.88926 6.52293 9.01916C6.43516 9.09484 6.35159 9.20561 6.29948 9.368C6.28584 9.41053 6.27435 9.45659 6.26551 9.50649C6.28288 9.58336 6.31262 9.67014 6.35914 9.7485C6.4394 9.88368 6.5599 9.98198 6.75648 9.98198C6.85568 9.98198 6.9361 10.0606 6.9361 10.1577C6.9361 10.2547 6.85568 10.3333 6.75648 10.3333C6.40039 10.3333 6.17547 10.1388 6.04847 9.92492C5.9596 9.77522 5.91412 9.6106 5.89589 9.479C5.7249 9.28611 5.60967 9.02167 5.60967 8.67117C5.60967 8.56783 5.61858 8.47186 5.63513 8.38291Z" fill="black"/>
</svg>
