<svg width="28" height="28" viewBox="0 0 28 28" fill="none" xmlns="http://www.w3.org/2000/svg">
<path fill-rule="evenodd" clip-rule="evenodd" d="M8.68816 15.3759C7.96549 14.9305 7.96549 13.9178 8.68816 13.4724L21.8483 5.36219C22.6337 4.87814 23.6667 5.41877 23.6667 6.3139L23.6667 22.5344C23.6667 23.4295 22.6337 23.9701 21.8483 23.4861L8.68816 15.3759ZM22.1499 20.8457C22.1499 21.3022 21.6492 21.5818 21.2605 21.3423L10.8406 14.9208C10.4709 14.6929 10.4709 14.1554 10.8406 13.9275L21.2605 7.506C21.6492 7.26648 22.1499 7.54609 22.1499 8.00263L22.1499 20.8457Z" fill="black"/>
<path d="M5 22.5122C5 22.931 5.33953 23.2706 5.75836 23.2706C6.17719 23.2706 6.51672 22.931 6.51672 22.5122L6.51672 5.75836C6.51672 5.33953 6.17719 5 5.75836 5C5.33953 5 5 5.33953 5 5.75836L5 22.5122Z" fill="black"/>
</svg>
