<svg width="32" height="32" viewBox="0 0 32 32" fill="none" xmlns="http://www.w3.org/2000/svg">
<path d="M5 9.66667C5 8.19391 6.19391 7 7.66667 7H23.6667C25.1394 7 26.3333 8.19391 26.3333 9.66667V11H10.3333C8.86057 11 7.66667 12.1939 7.66667 13.6667V23C6.19391 23 5 21.8061 5 20.3333V9.66667Z" fill="black"/>
<path d="M9 24.3333V23.3852C9 22.9065 9.38802 22.5185 9.86667 22.5185C10.3453 22.5185 10.7333 22.9065 10.7333 23.3852V24.3333C10.7333 24.8488 11.1512 25.2667 11.6667 25.2667H13.6519C14.1305 25.2667 14.5185 25.6547 14.5185 26.1333C14.5185 26.612 14.1305 27 13.6519 27H11.6667C10.1939 27 9 25.8061 9 24.3333Z" fill="black"/>
<path d="M9.86667 21.4815C9.38802 21.4815 9 21.0935 9 20.6148V18.7185C9 18.2399 9.38802 17.8519 9.86667 17.8519C10.3453 17.8519 10.7333 18.2399 10.7333 18.7185V20.6148C10.7333 21.0935 10.3453 21.4815 9.86667 21.4815Z" fill="black"/>
<path d="M9.86667 16.8148C9.38802 16.8148 9 16.4268 9 15.9481V15C9 13.5272 10.1939 12.3333 11.6667 12.3333H13.6519C14.1305 12.3333 14.5185 12.7214 14.5185 13.2C14.5185 13.6786 14.1305 14.0667 13.6519 14.0667H11.6667C11.1512 14.0667 10.7333 14.4845 10.7333 15V15.9481C10.7333 16.4268 10.3453 16.8148 9.86667 16.8148Z" fill="black"/>
<path d="M16.1481 13.2C16.1481 12.7214 16.5362 12.3333 17.0148 12.3333H20.9852C21.4638 12.3333 21.8519 12.7214 21.8519 13.2C21.8519 13.6786 21.4638 14.0667 20.9852 14.0667H17.0148C16.5362 14.0667 16.1481 13.6786 16.1481 13.2Z" fill="black"/>
<path d="M23.4815 13.2C23.4815 12.7214 23.8695 12.3333 24.3481 12.3333H26.3333C27.8061 12.3333 29 13.5272 29 15V15.9481C29 16.4268 28.612 16.8148 28.1333 16.8148C27.6547 16.8148 27.2667 16.4268 27.2667 15.9481V15C27.2667 14.4845 26.8488 14.0667 26.3333 14.0667H24.3481C23.8695 14.0667 23.4815 13.6786 23.4815 13.2Z" fill="black"/>
<path d="M28.1333 17.8519C28.612 17.8519 29 18.2399 29 18.7185V20.6148C29 21.0935 28.612 21.4815 28.1333 21.4815C27.6547 21.4815 27.2667 21.0935 27.2667 20.6148V18.7185C27.2667 18.2399 27.6547 17.8519 28.1333 17.8519Z" fill="black"/>
<path d="M28.1333 22.5185C28.612 22.5185 29 22.9065 29 23.3852V24.3333C29 25.8061 27.8061 27 26.3333 27H24.3481C23.8695 27 23.4815 26.612 23.4815 26.1333C23.4815 25.6547 23.8695 25.2667 24.3481 25.2667H26.3333C26.8488 25.2667 27.2667 24.8488 27.2667 24.3333V23.3852C27.2667 22.9065 27.6547 22.5185 28.1333 22.5185Z" fill="black"/>
<path d="M21.8519 26.1333C21.8519 26.612 21.4638 27 20.9852 27H17.0148C16.5362 27 16.1481 26.612 16.1481 26.1333C16.1481 25.6547 16.5362 25.2667 17.0148 25.2667H20.9852C21.4638 25.2667 21.8519 25.6547 21.8519 26.1333Z" fill="black"/>
</svg>
