<svg width="20" height="20" viewBox="0 0 20 20" fill="none" xmlns="http://www.w3.org/2000/svg">
<path d="M6.75 10.0816C6.51988 10.0816 6.33333 9.89506 6.33333 9.665C6.33333 9.43494 6.51988 9.24844 6.75 9.24844H9.25V6.74906C9.25 6.519 9.43655 6.3325 9.66667 6.3325C9.89679 6.3325 10.0833 6.519 10.0833 6.74906V9.24844H12.5833C12.8135 9.24844 13 9.43494 13 9.665C13 9.89506 12.8135 10.0816 12.5833 10.0816H10.0833V12.5809C10.0833 12.811 9.89678 12.9975 9.66667 12.9975C9.43655 12.9975 9.25 12.811 9.25 12.5809V10.0816H6.75Z" fill="black"/>
<path fill-rule="evenodd" clip-rule="evenodd" d="M3 5.49937C3 4.11901 4.11929 3 5.5 3H13.8333C15.214 3 16.3333 4.11901 16.3333 5.49937V13.8306C16.3333 15.211 15.214 16.33 13.8333 16.33H5.5C4.11929 16.33 3 15.211 3 13.8306V5.49937ZM5.5 4.08306H13.8333C14.6157 4.08306 15.25 4.71717 15.25 5.49937V13.8306C15.25 14.6128 14.6157 15.2469 13.8333 15.2469H5.5C4.7176 15.2469 4.08333 14.6128 4.08333 13.8306V5.49937C4.08333 4.71717 4.7176 4.08306 5.5 4.08306Z" fill="black"/>
</svg>
