<svg width="20" height="20" viewBox="0 0 20 20" fill="none" xmlns="http://www.w3.org/2000/svg">
<path d="M16.4584 3C16.1593 3 15.9168 3.24247 15.9168 3.54158L15.9168 15.7918C15.9168 16.0909 16.1593 16.3333 16.4584 16.3333C16.7575 16.3333 17 16.0909 17 15.7918L17 3.54158C17 3.24247 16.7575 3 16.4584 3Z" fill="black"/>
<path fill-rule="evenodd" clip-rule="evenodd" d="M13.4689 4.41659C14.3893 4.41659 15.1354 5.16266 15.1354 6.08299L15.1354 7.56275C15.1354 8.48308 14.3893 9.22915 13.4689 9.22915L5.33495 9.22915C4.41462 9.22915 3.66854 8.48308 3.66854 7.56275L3.66854 6.08299C3.66854 5.16266 4.41462 4.41659 5.33495 4.41659L13.4689 4.41659ZM5.33495 5.49975L13.4689 5.49975C13.7911 5.49975 14.0522 5.76088 14.0522 6.08299L14.0522 7.56275C14.0522 7.88486 13.7911 8.14599 13.4689 8.14599L5.33495 8.14599C5.01283 8.14599 4.75171 7.88486 4.75171 7.56275L4.75171 6.08299C4.75171 5.76088 5.01283 5.49975 5.33495 5.49975Z" fill="black"/>
<path fill-rule="evenodd" clip-rule="evenodd" d="M15.1354 11.7706C15.1354 10.8502 14.3893 10.1042 13.4689 10.1042L7.98113 10.1042C7.0608 10.1042 6.31473 10.8502 6.31473 11.7706L6.31473 13.2503C6.31473 14.1707 7.06081 14.9167 7.98113 14.9167L13.469 14.9167C14.3893 14.9167 15.1354 14.1707 15.1354 13.2503L15.1354 11.7706ZM13.4689 11.1873L7.98113 11.1873C7.65902 11.1873 7.39789 11.4485 7.39789 11.7706L7.39789 13.2503C7.39789 13.5724 7.65902 13.8336 7.98113 13.8336L13.469 13.8336C13.7911 13.8336 14.0522 13.5724 14.0522 13.2503L14.0522 11.7706C14.0522 11.4485 13.7911 11.1873 13.4689 11.1873Z" fill="black"/>
</svg>
