<svg width="20" height="20" viewBox="0 0 20 20" fill="none" xmlns="http://www.w3.org/2000/svg">
<mask id="path-1-inside-1_94_817" fill="white">
<path d="M8.70934 6.39443C8.92663 6.26866 9.20444 6.3433 9.32989 6.56114L9.58697 7.00756L9.8397 6.56863C9.96511 6.35078 10.243 6.27615 10.4602 6.40192C10.6775 6.52769 10.7519 6.80625 10.6265 7.02409L8.60629 10.5324H10.0319L10.5676 11.4434H7.03265L6.37094 11.4485C6.12005 11.4485 5.91667 11.2446 5.91667 10.993C5.91667 10.7415 6.12005 10.5376 6.37094 10.5376L7.55718 10.5324L9.0624 7.91849L8.54307 7.0166C8.41762 6.79875 8.4921 6.5202 8.70934 6.39443Z"/>
<path d="M11.8328 12.7296L10.0319 9.60214L10.515 8.61918L11.6167 10.5324H12.9624C13.2133 10.5324 13.4167 10.7364 13.4167 10.9879C13.4167 11.2395 13.2133 11.4434 12.9624 11.4434H12.1412L12.6196 12.2742C12.745 12.492 12.6706 12.7706 12.4533 12.8963C12.2361 13.0221 11.9583 12.9475 11.8328 12.7296Z"/>
<path d="M6.7812 11.88L6.52975 12.3167C6.4043 12.5346 6.47878 12.8131 6.69602 12.9389C6.9133 13.0647 7.19112 12.99 7.31657 12.7722L7.83027 11.88H6.7812Z"/>
<path fill-rule="evenodd" clip-rule="evenodd" d="M3 4.66667C3 3.74619 3.74619 3 4.66667 3H14.6667C15.5871 3 16.3333 3.74619 16.3333 4.66667V14.6667C16.3333 15.5871 15.5871 16.3333 14.6667 16.3333H4.66667C3.74619 16.3333 3 15.5871 3 14.6667V4.66667ZM4.66667 4.08333H14.6667C14.9888 4.08333 15.25 4.3445 15.25 4.66667V14.6667C15.25 14.9888 14.9888 15.25 14.6667 15.25H4.66667C4.3445 15.25 4.08333 14.9888 4.08333 14.6667V4.66667C4.08333 4.3445 4.3445 4.08333 4.66667 4.08333Z"/>
</mask>
<path d="M8.70934 6.39443C8.92663 6.26866 9.20444 6.3433 9.32989 6.56114L9.58697 7.00756L9.8397 6.56863C9.96511 6.35078 10.243 6.27615 10.4602 6.40192C10.6775 6.52769 10.7519 6.80625 10.6265 7.02409L8.60629 10.5324H10.0319L10.5676 11.4434H7.03265L6.37094 11.4485C6.12005 11.4485 5.91667 11.2446 5.91667 10.993C5.91667 10.7415 6.12005 10.5376 6.37094 10.5376L7.55718 10.5324L9.0624 7.91849L8.54307 7.0166C8.41762 6.79875 8.4921 6.5202 8.70934 6.39443Z" fill="#D9D9D9"/>
<path d="M11.8328 12.7296L10.0319 9.60214L10.515 8.61918L11.6167 10.5324H12.9624C13.2133 10.5324 13.4167 10.7364 13.4167 10.9879C13.4167 11.2395 13.2133 11.4434 12.9624 11.4434H12.1412L12.6196 12.2742C12.745 12.492 12.6706 12.7706 12.4533 12.8963C12.2361 13.0221 11.9583 12.9475 11.8328 12.7296Z" fill="#D9D9D9"/>
<path d="M6.7812 11.88L6.52975 12.3167C6.4043 12.5346 6.47878 12.8131 6.69602 12.9389C6.9133 13.0647 7.19112 12.99 7.31657 12.7722L7.83027 11.88H6.7812Z" fill="#D9D9D9"/>
<path fill-rule="evenodd" clip-rule="evenodd" d="M3 4.66667C3 3.74619 3.74619 3 4.66667 3H14.6667C15.5871 3 16.3333 3.74619 16.3333 4.66667V14.6667C16.3333 15.5871 15.5871 16.3333 14.6667 16.3333H4.66667C3.74619 16.3333 3 15.5871 3 14.6667V4.66667ZM4.66667 4.08333H14.6667C14.9888 4.08333 15.25 4.3445 15.25 4.66667V14.6667C15.25 14.9888 14.9888 15.25 14.6667 15.25H4.66667C4.3445 15.25 4.08333 14.9888 4.08333 14.6667V4.66667C4.08333 4.3445 4.3445 4.08333 4.66667 4.08333Z" fill="#D9D9D9"/>
<path d="M9.32989 6.56114L10.4564 5.91238L10.4564 5.91238L9.32989 6.56114ZM8.70934 6.39443L8.0581 5.26931L8.058 5.26937L8.70934 6.39443ZM9.58697 7.00756L8.46042 7.65631L9.58705 9.61269L10.7136 7.65624L9.58697 7.00756ZM9.8397 6.56863L10.9663 7.21732L10.9664 7.2172L9.8397 6.56863ZM10.4602 6.40192L9.80887 7.52698L9.80896 7.52704L10.4602 6.40192ZM10.6265 7.02409L9.49993 6.37533L9.4999 6.37538L10.6265 7.02409ZM8.60629 10.5324L7.47971 9.88374L6.3576 11.8324H8.60629V10.5324ZM10.0319 10.5324L11.1525 9.87344L10.7755 9.23245H10.0319V10.5324ZM10.5676 11.4434V12.7434H12.8403L11.6882 10.7844L10.5676 11.4434ZM7.03265 11.4434V10.1433L7.02257 10.1434L7.03265 11.4434ZM6.37094 11.4485V12.7485L6.38103 12.7485L6.37094 11.4485ZM6.37094 10.5376V11.8376L6.37657 11.8376L6.37094 10.5376ZM7.55718 10.5324L7.56281 11.8324L8.31059 11.8292L8.68375 11.1812L7.55718 10.5324ZM9.0624 7.91849L10.189 8.56721L10.5625 7.9185L10.189 7.26978L9.0624 7.91849ZM8.54307 7.0166L9.66965 6.36789L9.66963 6.36787L8.54307 7.0166ZM11.8328 12.7296L10.7062 13.3783L10.7062 13.3783L11.8328 12.7296ZM10.0319 9.60214L8.86517 9.02878L8.55964 9.65052L8.90533 10.2509L10.0319 9.60214ZM10.515 8.61918L11.6415 7.97046L10.4242 5.85637L9.34822 8.04582L10.515 8.61918ZM11.6167 10.5324L10.4901 11.1812L10.8651 11.8324H11.6167V10.5324ZM12.1412 11.4434V10.1434H9.89254L11.0146 12.0921L12.1412 11.4434ZM12.6196 12.2742L11.493 12.9229L11.493 12.9229L12.6196 12.2742ZM12.4533 12.8963L11.802 11.7712L11.802 11.7713L12.4533 12.8963ZM6.52975 12.3167L7.65631 12.9655L7.65632 12.9654L6.52975 12.3167ZM6.7812 11.88V10.58H6.02965L5.65463 11.2313L6.7812 11.88ZM6.69602 12.9389L6.04464 14.0639L6.04478 14.064L6.69602 12.9389ZM7.31657 12.7722L8.44313 13.4209L8.44315 13.4209L7.31657 12.7722ZM7.83027 11.88L8.95685 12.5287L10.0789 10.58H7.83027V11.88ZM14.6667 2.78333H4.66667V5.38333H14.6667V2.78333ZM16.55 4.66667C16.55 3.62653 15.7068 2.78333 14.6667 2.78333V5.38333C14.2709 5.38333 13.95 5.06247 13.95 4.66667H16.55ZM16.55 14.6667V4.66667H13.95V14.6667H16.55ZM14.6667 16.55C15.7068 16.55 16.55 15.7068 16.55 14.6667H13.95C13.95 14.2709 14.2709 13.95 14.6667 13.95V16.55ZM4.66667 16.55H14.6667V13.95H4.66667V16.55ZM2.78333 14.6667C2.78333 15.7068 3.62653 16.55 4.66667 16.55V13.95C5.06247 13.95 5.38333 14.2709 5.38333 14.6667H2.78333ZM2.78333 4.66667V14.6667H5.38333V4.66667H2.78333ZM4.66667 2.78333C3.62653 2.78333 2.78333 3.62653 2.78333 4.66667H5.38333C5.38333 5.06247 5.06247 5.38333 4.66667 5.38333V2.78333ZM4.66667 1.7C3.02822 1.7 1.7 3.02822 1.7 4.66667H4.3C4.3 4.46416 4.46416 4.3 4.66667 4.3V1.7ZM14.6667 1.7H4.66667V4.3H14.6667V1.7ZM17.6333 4.66667C17.6333 3.02822 16.3051 1.7 14.6667 1.7V4.3C14.8692 4.3 15.0333 4.46416 15.0333 4.66667H17.6333ZM17.6333 14.6667V4.66667H15.0333V14.6667H17.6333ZM14.6667 17.6333C16.3051 17.6333 17.6333 16.3051 17.6333 14.6667H15.0333C15.0333 14.8692 14.8692 15.0333 14.6667 15.0333V17.6333ZM4.66667 17.6333H14.6667V15.0333H4.66667V17.6333ZM1.7 14.6667C1.7 16.3051 3.02822 17.6333 4.66667 17.6333V15.0333C4.46416 15.0333 4.3 14.8692 4.3 14.6667H1.7ZM1.7 4.66667V14.6667H4.3V4.66667H1.7ZM10.4564 5.91238C9.97294 5.0728 8.89914 4.7825 8.0581 5.26931L9.36058 7.51954C8.95411 7.75481 8.43594 7.6138 8.20334 7.20989L10.4564 5.91238ZM10.7135 6.3588L10.4564 5.91238L8.20333 7.20989L8.46042 7.65631L10.7135 6.3588ZM8.71311 5.91995L8.46038 6.35887L10.7136 7.65624L10.9663 7.21732L8.71311 5.91995ZM11.1115 5.27686C10.2706 4.79 9.19652 5.08018 8.71304 5.92006L10.9664 7.2172C10.7337 7.62138 10.2153 7.76231 9.80887 7.52698L11.1115 5.27686ZM11.753 7.67285C12.2354 6.83522 11.9506 5.7625 11.1114 5.27681L9.80896 7.52704C9.40442 7.29288 9.26845 6.77728 9.49993 6.37533L11.753 7.67285ZM10.0319 9.23245H8.60629V11.8324H10.0319V9.23245ZM11.6882 10.7844L11.1525 9.87344L8.91132 11.1915L9.44703 12.1024L11.6882 10.7844ZM6.38103 12.7485L7.04274 12.7433L7.02257 10.1434L6.36086 10.1485L6.38103 12.7485ZM4.61667 10.993C4.61667 11.9593 5.39886 12.7485 6.37094 12.7485V10.1485C6.84123 10.1485 7.21667 10.5298 7.21667 10.993H4.61667ZM6.37094 9.23758C5.39889 9.23758 4.61667 10.0267 4.61667 10.993H7.21667C7.21667 11.4563 6.84121 11.8376 6.37094 11.8376V9.23758ZM7.55156 9.23246L6.36532 9.23759L6.37657 11.8376L7.56281 11.8324L7.55156 9.23246ZM7.93583 7.26977L6.43061 9.88373L8.68375 11.1812L10.189 8.56721L7.93583 7.26977ZM7.41649 7.66531L7.93582 8.5672L10.189 7.26978L9.66965 6.36789L7.41649 7.66531ZM8.058 5.26937C7.21916 5.755 6.93408 6.82758 7.41651 7.66534L9.66963 6.36787C9.90116 6.76992 9.76503 7.28539 9.36068 7.51949L8.058 5.26937ZM9.34822 8.04582L8.86517 9.02878L11.1986 10.1755L11.6817 9.19253L9.34822 8.04582ZM12.7432 9.88373L11.6415 7.97046L9.38838 9.26789L10.4901 11.1812L12.7432 9.88373ZM12.9624 9.23245H11.6167V11.8324H12.9624V9.23245ZM14.7167 10.9879C14.7167 10.0216 13.9344 9.23245 12.9624 9.23245V11.8324C12.4921 11.8324 12.1167 11.4511 12.1167 10.9879H14.7167ZM12.9624 12.7434C13.9345 12.7434 14.7167 11.9542 14.7167 10.9879H12.1167C12.1167 10.5247 12.4921 10.1434 12.9624 10.1434V12.7434ZM12.1412 12.7434H12.9624V10.1434H12.1412V12.7434ZM13.7462 11.6255L13.2678 10.7947L11.0146 12.0921L11.493 12.9229L13.7462 11.6255ZM13.1046 14.0214C13.9437 13.5357 14.2285 12.4631 13.7461 11.6254L11.493 12.9229C11.2616 12.521 11.3975 12.0054 11.802 11.7712L13.1046 14.0214ZM10.7062 13.3783C11.1897 14.2179 12.2635 14.5083 13.1046 14.0214L11.802 11.7713C12.2086 11.5359 12.7268 11.677 12.9594 12.0809L10.7062 13.3783ZM7.65632 12.9654L7.90778 12.5288L5.65463 11.2313L5.40317 11.668L7.65632 12.9654ZM7.3474 11.8139C7.75168 12.0479 7.88785 12.5634 7.65631 12.9655L5.40319 11.668C4.92075 12.5058 5.20587 13.5783 6.04464 14.0639L7.3474 11.8139ZM6.19 12.1235C6.4226 11.7195 6.94078 11.5785 7.34726 11.8138L6.04478 14.064C6.88583 14.5508 7.95964 14.2605 8.44313 13.4209L6.19 12.1235ZM6.70368 11.2314L6.18998 12.1235L8.44315 13.4209L8.95685 12.5287L6.70368 11.2314ZM6.7812 13.18H7.83027V10.58H6.7812V13.18ZM9.73286 11.1812L11.7531 7.67279L9.4999 6.37538L7.47971 9.88374L9.73286 11.1812ZM7.03265 12.7434H10.5676V10.1434H7.03265V12.7434ZM8.90533 10.2509L10.7062 13.3783L12.9594 12.0809L11.1585 8.95342L8.90533 10.2509Z" fill="black" mask="url(#path-1-inside-1_94_817)"/>
</svg>
