<svg width="20" height="20" viewBox="0 0 20 20" fill="none" xmlns="http://www.w3.org/2000/svg">
<path d="M10.2083 6.75C10.2083 6.45085 9.96582 6.20833 9.66667 6.20833C9.36751 6.20833 9.125 6.45085 9.125 6.75V9.125H6.75C6.45085 9.125 6.20833 9.36751 6.20833 9.66667C6.20833 9.96582 6.45085 10.2083 6.75 10.2083H9.125V12.5833C9.125 12.8825 9.36751 13.125 9.66667 13.125C9.96582 13.125 10.2083 12.8825 10.2083 12.5833V10.2083H12.5833C12.8825 10.2083 13.125 9.96582 13.125 9.66667C13.125 9.36751 12.8825 9.125 12.5833 9.125H10.2083V6.75Z" fill="black"/>
<path fill-rule="evenodd" clip-rule="evenodd" d="M9.66667 16.3333C13.3486 16.3333 16.3333 13.3486 16.3333 9.66667C16.3333 5.98477 13.3486 3 9.66667 3C5.98477 3 3 5.98477 3 9.66667V15.5C3 15.9602 3.3731 16.3333 3.83333 16.3333H9.66667ZM15.25 9.66667C15.25 12.7503 12.7503 15.25 9.66667 15.25H4.08333V9.66667C4.08333 6.58308 6.58308 4.08333 9.66667 4.08333C12.7503 4.08333 15.25 6.58308 15.25 9.66667Z" fill="black"/>
</svg>
