<svg width="20" height="20" viewBox="0 0 20 20" fill="none" xmlns="http://www.w3.org/2000/svg">
<path fill-rule="evenodd" clip-rule="evenodd" d="M10.1933 5.22492C9.90247 4.92502 9.43086 4.92503 9.13999 5.22492L7.44418 6.97332C6.97819 7.45376 6.2663 7.57287 5.67686 7.26901L4.07867 6.44513C3.52429 6.15935 2.89365 6.65597 3.0152 7.2826L4.32131 14.0156C4.52633 15.0726 5.42642 15.8333 6.47184 15.8333H12.8615C13.9069 15.8333 14.807 15.0726 15.012 14.0156L16.3181 7.2826C16.4397 6.65598 15.809 6.15935 15.2547 6.44513L13.6565 7.26901C13.067 7.57287 12.3551 7.45376 11.8892 6.97332L10.1933 5.22492ZM9.66667 9.58333C8.67716 9.58333 7.875 10.3855 7.875 11.375C7.875 12.3645 8.67716 13.1667 9.66667 13.1667C10.6562 13.1667 11.4583 12.3645 11.4583 11.375C11.4583 10.3855 10.6562 9.58333 9.66667 9.58333ZM9.66667 10.6667C9.27547 10.6667 8.95833 10.9838 8.95833 11.375C8.95833 11.7662 9.27547 12.0833 9.66667 12.0833C10.0579 12.0833 10.375 11.7662 10.375 11.375C10.375 10.9838 10.0579 10.6667 9.66667 10.6667Z" fill="black"/>
</svg>
