<svg width="20" height="20" viewBox="0 0 20 20" fill="none" xmlns="http://www.w3.org/2000/svg">
<path fill-rule="evenodd" clip-rule="evenodd" d="M5.60576 3.14003C6.00142 2.88477 6.53599 2.98823 6.79976 3.37113L12.4629 11.5918C12.6861 11.5285 12.9223 11.4946 13.1667 11.4946C14.5474 11.4946 15.6667 12.5778 15.6667 13.914C15.6667 15.2502 14.5474 16.3333 13.1667 16.3333C11.7859 16.3333 10.6667 15.2502 10.6667 13.914C10.6667 13.4231 10.8178 12.9663 11.0774 12.5848L5.36696 4.29552C5.10318 3.91262 5.2101 3.39529 5.60576 3.14003ZM14.3752 13.914C14.3752 14.5599 13.8341 15.0835 13.1667 15.0835C12.4992 15.0835 11.9582 14.5599 11.9582 13.914C11.9582 13.2681 12.4992 12.7445 13.1667 12.7445C13.8341 12.7445 14.3752 13.2681 14.3752 13.914Z" fill="black"/>
<path fill-rule="evenodd" clip-rule="evenodd" d="M9.00001 13.914C9.00001 15.2502 7.88072 16.3333 6.5 16.3333C5.11929 16.3333 4 15.2502 4 13.914C4 12.5778 5.11929 11.4946 6.5 11.4946C6.74436 11.4946 6.98054 11.5285 7.20377 11.5918L8.31436 9.97966L9.34916 11.4818L8.58928 12.5848C8.84892 12.9663 9.00001 13.4231 9.00001 13.914ZM7.70849 13.914C7.70849 14.5599 7.16743 15.0835 6.5 15.0835C5.83257 15.0835 5.29151 14.5599 5.29151 13.914C5.29151 13.2681 5.83257 12.7445 6.5 12.7445C7.16743 12.7445 7.70849 13.2681 7.70849 13.914Z" fill="black"/>
<path d="M14.2997 4.29552L11.3522 8.57409L10.3174 7.07195L12.8669 3.37113C13.1307 2.98823 13.6652 2.88477 14.0609 3.14003C14.4566 3.39529 14.5635 3.91262 14.2997 4.29552Z" fill="black"/>
</svg>
