<svg width="20" height="20" viewBox="0 0 20 20" fill="none" xmlns="http://www.w3.org/2000/svg">
<path d="M9.8359 7.67662C12.2393 7.67662 14.3665 7.18386 15.6667 6.42767V9.6865C15.6644 9.69275 15.661 9.70087 15.6561 9.71091C15.6361 9.75167 15.5902 9.82355 15.4923 9.91997C15.2891 10.12 14.9292 10.3595 14.3794 10.5885C13.2844 11.0445 11.679 11.3582 9.8359 11.3582C7.99281 11.3582 6.38737 11.0445 5.29242 10.5885C4.74258 10.3595 4.38266 10.12 4.17952 9.91997C4.08161 9.82355 4.03571 9.75167 4.01569 9.71091C4.00601 9.6912 4.00241 9.67894 4.00111 9.67361C4.00029 9.67026 4 9.66726 4 9.66726V6.42469C5.29975 7.18257 7.4293 7.67662 9.8359 7.67662Z" fill="black"/>
<path d="M4.00111 14.6487C4.00029 14.6454 4 14.6424 4 14.6424V11.3998C5.29975 12.1577 7.4293 12.6517 9.8359 12.6517C12.2393 12.6517 14.3665 12.159 15.6667 11.4028V14.6616C15.6644 14.6679 15.661 14.676 15.6561 14.686C15.6361 14.7268 15.5902 14.7987 15.4923 14.8951C15.2891 15.0951 14.9292 15.3346 14.3794 15.5636C13.2844 16.0197 11.679 16.3333 9.8359 16.3333C7.99281 16.3333 6.38737 16.0197 5.29242 15.5636C4.74258 15.3346 4.38266 15.0951 4.17952 14.8951C4.08161 14.7987 4.03571 14.7268 4.01569 14.686C4.00601 14.6663 4.00241 14.6541 4.00111 14.6487Z" fill="black"/>
<path d="M15.6561 4.64729C15.6361 4.60654 15.5902 4.53466 15.4923 4.43824C15.2891 4.23821 14.9292 3.99873 14.3794 3.76972C13.2844 3.31367 11.679 3 9.8359 3C7.99281 3 6.38737 3.31367 5.29242 3.76972C4.74258 3.99873 4.38266 4.23821 4.17952 4.43824C4.08161 4.53466 4.03571 4.60654 4.01569 4.64729C4.00844 4.66391 3.99829 4.70486 4.01569 4.73579C4.03571 4.77654 4.08161 4.84842 4.17952 4.94485C4.38266 5.14488 4.74258 5.38435 5.29242 5.61337C6.38737 6.06942 7.99281 6.38308 9.8359 6.38308C11.679 6.38308 13.2844 6.06942 14.3794 5.61337C14.9292 5.38435 15.2891 5.14488 15.4923 4.94485C15.5902 4.84842 15.6361 4.77654 15.6561 4.73579C15.6745 4.70322 15.6638 4.66322 15.6561 4.64729Z" fill="black"/>
</svg>
