<svg width="20" height="20" viewBox="0 0 20 20" fill="none" xmlns="http://www.w3.org/2000/svg">
<path fill-rule="evenodd" clip-rule="evenodd" d="M3 4.66667C3 3.74619 3.74619 3 4.66667 3H14.6667C15.5871 3 16.3333 3.74619 16.3333 4.66667V10.5C16.3333 11.4205 15.5871 12.1667 14.6667 12.1667H11.994V14H13.8333C14.1325 14 14.375 14.2425 14.375 14.5417C14.375 14.8408 14.1325 15.0833 13.8333 15.0833H5.5C5.20085 15.0833 4.95833 14.8408 4.95833 14.5417C4.95833 14.2425 5.20085 14 5.5 14H7.33929V12.1667H4.66667C3.74619 12.1667 3 11.4205 3 10.5V4.66667ZM4.66667 4.08333H14.6667C14.9888 4.08333 15.25 4.3445 15.25 4.66667V10.5C15.25 10.8222 14.9888 11.0833 14.6667 11.0833H4.66667C4.3445 11.0833 4.08333 10.8222 4.08333 10.5V4.66667C4.08333 4.3445 4.3445 4.08333 4.66667 4.08333ZM8.42262 12.1667V14H10.9107V12.1667H8.42262Z" fill="black"/>
</svg>
