<svg width="20" height="20" viewBox="0 0 20 20" fill="none" xmlns="http://www.w3.org/2000/svg">
<path fill-rule="evenodd" clip-rule="evenodd" d="M4.66667 3C3.74619 3 3 3.74619 3 4.66667V14.6667C3 15.5871 3.74619 16.3333 4.66667 16.3333H14.6667C15.5871 16.3333 16.3333 15.5871 16.3333 14.6667V4.66667C16.3333 3.74619 15.5871 3 14.6667 3H4.66667ZM6.78363 6.78366C6.99516 6.57212 7.33813 6.57212 7.54966 6.78366L9.66665 8.90064L11.7836 6.78366C11.9952 6.57212 12.3381 6.57212 12.5497 6.78366C12.7612 6.99519 12.7612 7.33815 12.5497 7.54969L10.4327 9.66667L12.5497 11.7837C12.7612 11.9952 12.7612 12.3382 12.5497 12.5497C12.3381 12.7612 11.9952 12.7612 11.7836 12.5497L9.66665 10.4327L7.54966 12.5497C7.33813 12.7612 6.99516 12.7612 6.78363 12.5497C6.5721 12.3382 6.5721 11.9952 6.78363 11.7837L8.90061 9.66667L6.78363 7.54969C6.5721 7.33815 6.5721 6.99519 6.78363 6.78366Z" fill="black"/>
</svg>
