<svg width="20" height="20" viewBox="0 0 20 20" fill="none" xmlns="http://www.w3.org/2000/svg">
<path fill-rule="evenodd" clip-rule="evenodd" d="M9.66667 16.3333C13.3486 16.3333 16.3333 13.3486 16.3333 9.66667C16.3333 5.98477 13.3486 3 9.66667 3C5.98477 3 3 5.98477 3 9.66667C3 13.3486 5.98477 16.3333 9.66667 16.3333ZM7.54968 6.78365C7.33815 6.57212 6.99518 6.57212 6.78365 6.78365C6.57212 6.99518 6.57212 7.33815 6.78365 7.54968L8.90063 9.66667L6.78365 11.7837C6.57212 11.9952 6.57212 12.3381 6.78365 12.5497C6.99518 12.7612 7.33815 12.7612 7.54968 12.5497L9.66667 10.4327L11.7837 12.5497C11.9952 12.7612 12.3381 12.7612 12.5497 12.5497C12.7612 12.3381 12.7612 11.9952 12.5497 11.7837L10.4327 9.66667L12.5497 7.54968C12.7612 7.33815 12.7612 6.99518 12.5497 6.78365C12.3381 6.57212 11.9952 6.57212 11.7837 6.78365L9.66667 8.90063L7.54968 6.78365Z" fill="black"/>
</svg>
