<svg width="20" height="20" viewBox="0 0 20 20" fill="none" xmlns="http://www.w3.org/2000/svg">
<path d="M10.0454 4.25738C10.3886 3.91421 10.945 3.91421 11.2882 4.25738L12.7301 5.69933C12.9532 5.9224 12.9532 6.28406 12.7301 6.50713C12.507 6.73019 12.1454 6.73019 11.9223 6.50713L11.238 5.82279V7.76266C11.238 8.07812 10.9822 8.33386 10.6668 8.33386C10.3513 8.33386 10.0956 8.07812 10.0956 7.76266V5.82279L9.41125 6.50713C9.18818 6.73019 8.82652 6.73019 8.60346 6.50713C8.38039 6.28406 8.38039 5.9224 8.60346 5.69933L10.0454 4.25738Z" fill="black"/>
<path d="M17.0759 10.0453C17.4191 10.3884 17.4191 10.9449 17.0759 11.288L15.634 12.73C15.4109 12.953 15.0493 12.953 14.8262 12.73C14.6031 12.5069 14.6031 12.1452 14.8262 11.9222L15.5105 11.2378H13.5707C13.2552 11.2378 12.9995 10.9821 12.9995 10.6666C12.9995 10.3512 13.2552 10.0955 13.5707 10.0955H15.5105L14.8262 9.41112C14.6031 9.18805 14.6031 8.82639 14.8262 8.60332C15.0493 8.38025 15.4109 8.38025 15.634 8.60332L17.0759 10.0453Z" fill="black"/>
<path d="M4.25738 10.0453C3.91421 10.3884 3.91421 10.9448 4.25738 11.288L5.69933 12.73C5.9224 12.953 6.28406 12.953 6.50713 12.73C6.73019 12.5069 6.73019 12.1452 6.50713 11.9222L5.82279 11.2378H7.76266C8.07812 11.2378 8.33386 10.9821 8.33386 10.6666C8.33386 10.3512 8.07812 10.0954 7.76266 10.0954H5.82279L6.50713 9.4111C6.73019 9.18803 6.73019 8.82637 6.50713 8.6033C6.28406 8.38024 5.9224 8.38024 5.69933 8.6033L4.25738 10.0453Z" fill="black"/>
<path d="M11.2881 17.0759C10.945 17.4191 10.3886 17.4191 10.0454 17.0759L8.60344 15.634C8.38037 15.4109 8.38037 15.0492 8.60344 14.8262C8.8265 14.6031 9.18817 14.6031 9.41123 14.8262L10.0956 15.5105L10.0956 13.5707C10.0956 13.2552 10.3513 12.9995 10.6668 12.9995C10.9822 12.9995 11.238 13.2552 11.238 13.5707V15.5105L11.9223 14.8262C12.1454 14.6031 12.507 14.6031 12.7301 14.8262C12.9532 15.0492 12.9532 15.4109 12.7301 15.634L11.2881 17.0759Z" fill="black"/>
<path fill-rule="evenodd" clip-rule="evenodd" d="M12.3262 10.6666C12.3262 11.5831 11.5833 12.3261 10.6668 12.3261C9.75031 12.3261 9.00735 11.5831 9.00735 10.6666C9.00735 9.75017 9.75031 9.00722 10.6668 9.00722C11.5833 9.00722 12.3262 9.75017 12.3262 10.6666Z" fill="black"/>
</svg>
