<svg width="20" height="20" viewBox="0 0 20 20" fill="none" xmlns="http://www.w3.org/2000/svg">
<path d="M2.92466 3.15865C2.71313 2.94712 2.37018 2.94712 2.15865 3.15865C1.94712 3.37018 1.94712 3.71313 2.15865 3.92466L16.0753 17.8413C16.2869 18.0529 16.6298 18.0529 16.8414 17.8413C17.0529 17.6298 17.0529 17.2869 16.8414 17.0753L2.92466 3.15865Z" fill="black"/>
<path d="M3.6302 12.9781L6.97081 9.63744L10.3622 13.0288L7.02156 16.3694C6.9032 16.4878 6.75245 16.5685 6.58832 16.6013L3.8479 17.1494C3.25465 17.268 2.7316 16.745 2.85025 16.1517L3.39833 13.4113C3.43116 13.2472 3.51184 13.0964 3.6302 12.9781Z" fill="black"/>
<path d="M8.63744 7.97081L12.0288 11.3622L14.3207 9.07025C14.4035 8.98747 14.4035 8.85327 14.3207 8.77049L11.2291 5.67888C11.1464 5.5961 11.0122 5.5961 10.9294 5.67888L8.63744 7.97081Z" fill="black"/>
<path d="M15.0253 8.27607C15.1002 8.35089 15.2194 8.35977 15.299 8.29001C15.8306 7.82382 16.1663 7.13953 16.1663 6.37684C16.1663 4.97208 15.0275 3.83331 13.6228 3.83331C12.8601 3.83331 12.1758 4.169 11.7096 4.70068C11.6398 4.78024 11.6487 4.89947 11.7235 4.97429L15.0253 8.27607Z" fill="black"/>
</svg>
