<svg width="20" height="20" viewBox="0 0 20 20" fill="none" xmlns="http://www.w3.org/2000/svg">
<path fill-rule="evenodd" clip-rule="evenodd" d="M9.66667 16.3333C13.3486 16.3333 16.3333 13.3486 16.3333 9.66667C16.3333 5.98477 13.3486 3 9.66667 3C5.98477 3 3 5.98477 3 9.66667C3 13.3486 5.98477 16.3333 9.66667 16.3333ZM7.27549 11.202C7.20294 10.9117 6.90885 10.7353 6.61863 10.8078C6.3284 10.8804 6.15195 11.1745 6.22451 11.4647C6.42768 12.2774 7.43499 13.5417 9.66667 13.5417C11.8983 13.5417 12.9057 12.2774 13.1088 11.4647C13.1814 11.1745 13.0049 10.8804 12.7147 10.8078C12.4245 10.7353 12.1304 10.9117 12.0578 11.202C11.9832 11.5004 11.435 12.4583 9.66667 12.4583C7.89834 12.4583 7.3501 11.5004 7.27549 11.202ZM4.91666 8.125C4.91666 7.59573 5.34572 7.16667 5.87499 7.16667H13.375C13.9043 7.16667 14.3333 7.59573 14.3333 8.125V9.375C14.3333 9.90427 13.9043 10.3333 13.375 10.3333H11.0833C10.554 10.3333 10.125 9.90427 10.125 9.375V8.25H9.12499V9.375C9.12499 9.90427 8.69593 10.3333 8.16666 10.3333H5.87499C5.34572 10.3333 4.91666 9.90427 4.91666 9.375V8.125Z" fill="black"/>
</svg>
