<svg width="20" height="20" viewBox="0 0 20 20" fill="none" xmlns="http://www.w3.org/2000/svg">
<path fill-rule="evenodd" clip-rule="evenodd" d="M16.3333 9.66667C16.3333 13.3486 13.3486 16.3333 9.66667 16.3333C5.98477 16.3333 3 13.3486 3 9.66667C3 5.98477 5.98477 3 9.66667 3C13.3486 3 16.3333 5.98477 16.3333 9.66667ZM6.20833 8.41667C6.20833 8.11751 6.45085 7.875 6.75 7.875H12.5833C12.8825 7.875 13.125 8.11751 13.125 8.41667C13.125 8.71582 12.8825 8.95833 12.5833 8.95833H6.75C6.45085 8.95833 6.20833 8.71582 6.20833 8.41667ZM6.75 10.375C6.45085 10.375 6.20833 10.6175 6.20833 10.9167C6.20833 11.2158 6.45085 11.4583 6.75 11.4583H12.5833C12.8825 11.4583 13.125 11.2158 13.125 10.9167C13.125 10.6175 12.8825 10.375 12.5833 10.375H6.75Z" fill="black"/>
</svg>
