<svg width="20" height="20" viewBox="0 0 20 20" fill="none" xmlns="http://www.w3.org/2000/svg">
<path d="M3.92466 3.15865C3.71313 2.94712 3.37018 2.94712 3.15865 3.15865C2.94712 3.37018 2.94712 3.71313 3.15865 3.92466L17.0753 17.8413C17.2869 18.0529 17.6298 18.0529 17.8414 17.8413C18.0529 17.6298 18.0529 17.2869 17.8414 17.0753L3.92466 3.15865Z" fill="black"/>
<path d="M5.90434 8.39409C6.03735 8.25601 6.177 8.12083 6.32329 7.98992L7.09057 8.75719C6.94915 8.8815 6.81383 9.01143 6.68454 9.14565C5.73557 10.1308 5.14124 11.3191 4.89051 12.0947C4.79849 12.3794 4.49315 12.5356 4.20851 12.4435C3.92386 12.3515 3.7677 12.0462 3.85972 11.7615C4.15347 10.8528 4.82508 9.51447 5.90434 8.39409Z" fill="black"/>
<path d="M8.38355 6.71693L9.24417 7.57754C9.63678 7.4739 10.0554 7.41655 10.5006 7.41655C12.1116 7.41655 13.3744 8.1674 14.3167 9.14565C15.2657 10.1308 15.86 11.3191 16.1107 12.0947C16.2027 12.3794 16.5081 12.5356 16.7927 12.4435C17.0774 12.3515 17.2335 12.0462 17.1415 11.7615C16.8478 10.8528 16.1762 9.51447 15.0969 8.39409C14.011 7.26682 12.4832 6.33325 10.5006 6.33325C9.72571 6.33325 9.02027 6.47587 8.38355 6.71693Z" fill="black"/>
<path d="M7.64206 11.8104C7.64206 11.1119 7.89265 10.4719 8.30883 9.97545L9.07966 10.7463C8.85718 11.0428 8.72537 11.4112 8.72537 11.8104C8.72537 12.7906 9.52007 13.5854 10.5006 13.5854C10.8998 13.5854 11.2682 13.4537 11.5647 13.2313L12.3356 14.0022C11.8391 14.4182 11.1991 14.6687 10.5006 14.6687C8.92189 14.6687 7.64206 13.389 7.64206 11.8104Z" fill="black"/>
<path d="M13.3567 11.6901L10.6213 8.95466C12.1042 9.01622 13.2953 10.2073 13.3567 11.6901Z" fill="black"/>
</svg>
