<svg width="20" height="20" viewBox="0 0 20 20" fill="none" xmlns="http://www.w3.org/2000/svg">
<path fill-rule="evenodd" clip-rule="evenodd" d="M8.01568 5.89556C8.01568 5.20719 8.7123 4.77695 9.26959 5.12114L15.9154 9.22558C16.4727 9.56977 16.4727 10.4302 15.9154 10.7744L9.26959 14.8789C8.7123 15.2231 8.01568 14.7928 8.01568 14.1044V12.7105C8.01568 12.6416 7.94601 12.5986 7.89028 12.633L4.25392 14.8789C3.69662 15.2231 3 14.7928 3 14.1044V5.89556C3 5.20719 3.69662 4.77695 4.25392 5.12114L7.89028 7.36696C7.94601 7.40138 8.01568 7.35836 8.01568 7.28952V5.89556ZM8.01568 9.04488C8.01568 8.88514 7.93601 8.73754 7.80669 8.65767L4.71369 6.74743C4.43504 6.57533 4.08673 6.79045 4.08673 7.13464V12.8654C4.08673 13.2096 4.43504 13.4247 4.71369 13.2526L7.80669 11.3423C7.93601 11.2625 8.01568 11.1149 8.01568 10.9551L8.01568 9.04488ZM9.72936 6.74743C9.45072 6.57533 9.10241 6.79045 9.10241 7.13464V12.8654C9.1024 13.2096 9.45072 13.4247 9.72936 13.2526L14.3689 10.3872C14.6475 10.2151 14.6475 9.78488 14.3689 9.61279L9.72936 6.74743Z" fill="black"/>
</svg>
