<svg width="20" height="20" viewBox="0 0 20 20" fill="none" xmlns="http://www.w3.org/2000/svg">
<path d="M11.7941 3.54164C11.7941 3.2425 11.5516 3 11.2524 3C10.9533 3 10.7108 3.2425 10.7108 3.54164V4.77997C10.7108 5.07911 10.9533 5.32161 11.2524 5.32161C11.5516 5.32161 11.7941 5.07911 11.7941 4.77997V3.54164Z" fill="black"/>
<path d="M7.6924 11.6454C7.90393 11.8569 7.90393 12.1999 7.69241 12.4114L6.88666 13.2171C6.67514 13.4287 6.33219 13.4287 6.12067 13.2171C5.90914 13.0056 5.90914 12.6627 6.12066 12.4511L6.9264 11.6454C7.13793 11.4339 7.48087 11.4339 7.6924 11.6454Z" fill="black"/>
<path fill-rule="evenodd" clip-rule="evenodd" d="M10.1434 12.5736L12.7254 12.375C13.1088 12.3455 13.469 12.1798 13.741 11.9079L14.0816 11.5673C14.7107 10.9382 14.7107 9.91823 14.0816 9.28913L10.0435 5.25111C9.41443 4.62203 8.39449 4.62203 7.76541 5.25111L7.42465 5.59187C7.15273 5.86378 6.98706 6.224 6.95756 6.60741L6.75894 9.18944C6.7442 9.38114 6.66136 9.56125 6.5254 9.69721L3.47183 12.7507C2.84272 13.3799 2.84272 14.3998 3.47183 15.0289L4.30379 15.8609C4.93288 16.49 5.95281 16.49 6.5819 15.8609L9.63567 12.8072C9.77163 12.6712 9.95173 12.5884 10.1434 12.5736ZM9.7691 11.4817L7.85088 9.56351C7.80931 9.52195 7.78798 9.46429 7.79249 9.40568L7.93169 7.5961C7.93697 7.52749 8.02029 7.49666 8.06895 7.54532L11.7873 11.2636C11.836 11.3123 11.8051 11.3956 11.7365 11.4009L9.92693 11.5401C9.86832 11.5446 9.81067 11.5233 9.7691 11.4817ZM4.0983 13.6051L6.97016 10.7332C7.12743 10.576 7.38242 10.576 7.53969 10.7332L8.59947 11.793C8.75674 11.9503 8.75674 12.2053 8.59947 12.3626L5.72761 15.2344C5.57034 15.3917 5.31535 15.3917 5.15808 15.2344L4.0983 14.1746C3.94103 14.0173 3.94103 13.7623 4.0983 13.6051ZM8.6197 5.87762L8.53569 5.96163C8.37841 6.11891 8.37841 6.37391 8.53569 6.53118L12.8016 10.797C12.9588 10.9543 13.2138 10.9543 13.3711 10.797L13.4551 10.713C13.6124 10.5557 13.6124 10.3007 13.4551 10.1435L9.18922 5.87762C9.03195 5.72035 8.77697 5.72035 8.6197 5.87762Z" fill="black"/>
<path d="M14.9369 4.39631C15.1484 4.60783 15.1484 4.95078 14.9369 5.1623L13.6986 6.40063C13.4871 6.61216 13.1441 6.61216 12.9326 6.40063C12.7211 6.18911 12.7211 5.84616 12.9326 5.63464L14.1709 4.39631C14.3824 4.18478 14.7254 4.18478 14.9369 4.39631Z" fill="black"/>
<path d="M14.5534 7.53863C14.2542 7.53863 14.0117 7.78113 14.0117 8.08027C14.0117 8.37941 14.2542 8.62192 14.5534 8.62192H15.7917C16.0908 8.62192 16.3333 8.37941 16.3333 8.08027C16.3333 7.78113 16.0908 7.53863 15.7917 7.53863H14.5534Z" fill="black"/>
</svg>
