<svg width="20" height="20" viewBox="0 0 20 20" fill="none" xmlns="http://www.w3.org/2000/svg">
<path fill-rule="evenodd" clip-rule="evenodd" d="M3 6.2406C3 5.55544 3.56935 5 4.27168 5H7.42064C7.75791 5 8.08137 5.13071 8.31986 5.36336L9.79516 6.80262C9.84575 6.85197 9.91436 6.8797 9.98591 6.8797H15.0617C15.764 6.8797 16.3333 7.43514 16.3333 8.1203V13.7594C16.3333 14.4446 15.764 15 15.0617 15H4.27168C3.56935 15 3 14.4446 3 13.7594V6.2406ZM4.27168 5.97744C4.1227 5.97744 4.00193 6.09526 4.00193 6.2406V13.7594C4.00193 13.9047 4.1227 14.0226 4.27168 14.0226H15.0617C15.2106 14.0226 15.3314 13.9047 15.3314 13.7594V8.1203C15.3314 7.97496 15.2106 7.85714 15.0617 7.85714H9.98591C9.64864 7.85714 9.32518 7.72644 9.0867 7.49378L7.61139 6.05452C7.5608 6.00517 7.49219 5.97744 7.42064 5.97744H4.27168Z" fill="black"/>
</svg>
