<svg width="20" height="20" viewBox="0 0 20 20" fill="none" xmlns="http://www.w3.org/2000/svg">
<path fill-rule="evenodd" clip-rule="evenodd" d="M9.58427 10.6015C9.58427 11.0529 9.21579 11.4188 8.76124 11.4188C8.30669 11.4188 7.9382 11.0529 7.9382 10.6015C7.9382 10.1501 8.30669 9.78418 8.76124 9.78418C9.21579 9.78418 9.58427 10.1501 9.58427 10.6015Z" fill="black"/>
<path fill-rule="evenodd" clip-rule="evenodd" d="M10.1976 6.78129C9.49552 6.35767 8.55327 6.50996 8.0323 7.19304L6.97004 8.58583C5.88081 8.45756 4.79097 8.77571 4.00499 9.55622C2.55863 10.9925 2.6889 13.4505 4.29598 15.0464C5.90305 16.6423 8.37835 16.7716 9.82472 15.3354C10.6468 14.519 10.9596 13.3725 10.7813 12.2419L12.1052 11.3123C12.8431 10.7941 13.0074 9.80221 12.5341 9.08442L16.0923 5.55103C16.4137 5.23186 16.4137 4.71438 16.0923 4.39521L14.9283 3.23938C14.6069 2.92021 14.0858 2.92021 13.7644 3.23938L10.1976 6.78129ZM15.1368 4.97312L14.4084 5.69641L13.618 4.91149L14.3464 4.1882L15.1368 4.97312ZM13.6397 6.45978L12.8493 5.67486L10.3614 8.14539L9.6379 7.70885C9.39481 7.56217 9.06932 7.61973 8.8937 7.85L7.74499 9.35615C7.56638 9.59033 7.27742 9.71285 6.98492 9.6784L6.84334 9.66173C6.04184 9.56734 5.29264 9.80428 4.76834 10.3249C3.82358 11.2631 3.79989 13.027 5.05932 14.2777C6.32133 15.5309 8.11086 15.5105 9.06137 14.5666C9.60816 14.0237 9.84184 13.2393 9.71116 12.4106L9.68688 12.2567C9.63734 11.9425 9.7709 11.6276 10.0312 11.4449L11.4827 10.4257C11.7317 10.2508 11.7867 9.91887 11.6297 9.68081L11.1415 8.94054L13.6397 6.45978Z" fill="black"/>
</svg>
