<svg width="20" height="20" viewBox="0 0 20 20" fill="none" xmlns="http://www.w3.org/2000/svg">
<path fill-rule="evenodd" clip-rule="evenodd" d="M9.12803 7.36979C9.12803 8.34233 8.34 9.13074 7.36792 9.13074C6.39583 9.13074 5.6078 8.34233 5.6078 7.36979C5.6078 6.39725 6.39583 5.60885 7.36792 5.60885C8.34 5.60885 9.12803 6.39725 9.12803 7.36979ZM7.36792 8.13542C7.79056 8.13542 8.13318 7.79264 8.13318 7.36979C8.13318 6.94695 7.79056 6.60416 7.36792 6.60416C6.94527 6.60416 6.60265 6.94695 6.60265 7.36979C6.60265 7.79264 6.94527 8.13542 7.36792 8.13542Z" fill="black"/>
<path fill-rule="evenodd" clip-rule="evenodd" d="M9.66667 3C5.98477 3 3 5.98477 3 9.66667C3 13.3486 5.98477 16.3333 9.66667 16.3333C13.3486 16.3333 16.3333 13.3486 16.3333 9.66667C16.3333 5.98477 13.3486 3 9.66667 3ZM4.08329 9.66667C4.08329 6.58305 6.58305 4.08329 9.66667 4.08329C12.7503 4.08329 15.25 6.58305 15.25 9.66667C15.25 10.2731 15.1534 10.8569 14.9746 11.4036L14.791 11.1669L13.369 9.38858C12.8426 8.73031 11.8318 8.76269 11.3486 9.4533L9.77928 11.6962C9.68378 11.8327 9.48823 11.8498 9.37047 11.732L8.16326 10.5242C7.73766 10.0984 7.07081 10.0324 6.56999 10.3664L4.51297 11.8183C4.23617 11.1561 4.08329 10.4293 4.08329 9.66667ZM4.94434 12.6469C5.93366 14.2112 7.67885 15.25 9.66667 15.25C11.7473 15.25 13.5621 14.112 14.5225 12.4245L12.5922 10.0103C12.4805 9.87072 12.2661 9.87758 12.1636 10.0241L10.5943 12.267C10.144 12.9105 9.22218 12.9912 8.667 12.4358L7.4598 11.228C7.36952 11.1377 7.22807 11.1237 7.12183 11.1945L4.94434 12.6469Z" fill="black"/>
</svg>
