<svg width="20" height="20" viewBox="0 0 20 20" fill="none" xmlns="http://www.w3.org/2000/svg">
<path fill-rule="evenodd" clip-rule="evenodd" d="M9.66667 16.3333C13.3486 16.3333 16.3333 13.3486 16.3333 9.66667C16.3333 5.98477 13.3486 3 9.66667 3C5.98477 3 3 5.98477 3 9.66667C3 13.3486 5.98477 16.3333 9.66667 16.3333ZM9.66667 7.875C9.96582 7.875 10.2083 8.11751 10.2083 8.41667V13.4167C10.2083 13.7158 9.96582 13.9583 9.66667 13.9583C9.36751 13.9583 9.125 13.7158 9.125 13.4167V8.41667C9.125 8.11751 9.36751 7.875 9.66667 7.875ZM10.2917 6.54167C10.2917 6.88684 10.0118 7.16667 9.66667 7.16667C9.32149 7.16667 9.04167 6.88684 9.04167 6.54167C9.04167 6.19649 9.32149 5.91667 9.66667 5.91667C10.0118 5.91667 10.2917 6.19649 10.2917 6.54167Z" fill="black"/>
</svg>
