<svg width="20" height="20" viewBox="0 0 20 20" fill="none" xmlns="http://www.w3.org/2000/svg">
<path d="M2.92466 3.15865C2.71313 2.94712 2.37018 2.94712 2.15865 3.15865C1.94712 3.37018 1.94712 3.71313 2.15865 3.92466L16.0753 17.8413C16.2869 18.0529 16.6298 18.0529 16.8414 17.8413C17.0529 17.6298 17.0529 17.2869 16.8414 17.0753L2.92466 3.15865Z" fill="black"/>
<path d="M2.83331 7.58322C2.83331 7.01658 3.1161 6.51598 3.54824 6.21486L5.63777 8.3044C5.45747 8.39233 5.33325 8.57742 5.33325 8.79152C5.33325 9.09067 5.57575 9.33318 5.8749 9.33318C6.089 9.33318 6.27409 9.20895 6.36203 9.02865L7.47768 10.1443C7.43168 10.1316 7.38323 10.1248 7.3332 10.1248C7.03405 10.1248 6.79155 10.3673 6.79155 10.6665C6.79155 10.9656 7.03405 11.2081 7.3332 11.2081C7.63234 11.2081 7.87485 10.9656 7.87485 10.6665C7.87485 10.6164 7.86807 10.568 7.85537 10.522L9.37481 12.0414H6.16656C5.86741 12.0414 5.62491 12.2839 5.62491 12.5831C5.62491 12.8822 5.86741 13.1247 6.16656 13.1247H10.4581L12.4164 15.083H4.49994C3.57949 15.083 2.83331 14.3369 2.83331 13.4164V7.58322Z" fill="black"/>
<path fill-rule="evenodd" clip-rule="evenodd" d="M13.3747 12.5831C13.3747 12.6219 13.3706 12.6598 13.3629 12.6962L15.4514 14.7848C15.8835 14.4836 16.1663 13.983 16.1663 13.4164V7.58322C16.1663 6.66277 15.4201 5.91659 14.4997 5.91659H6.58322L11.1548 10.4881C11.2285 10.2766 11.4297 10.1248 11.6664 10.1248C11.9655 10.1248 12.208 10.3673 12.208 10.6665C12.208 10.9031 12.0562 11.1044 11.8447 11.1781L12.7081 12.0414H12.8331C13.1322 12.0414 13.3747 12.2839 13.3747 12.5831ZM10.7082 9.33318C11.0073 9.33318 11.2498 9.09067 11.2498 8.79152C11.2498 8.49238 11.0073 8.24987 10.7082 8.24987C10.409 8.24987 10.1665 8.49238 10.1665 8.79152C10.1665 9.09067 10.409 9.33318 10.7082 9.33318ZM13.1248 9.33318C13.4239 9.33318 13.6664 9.09067 13.6664 8.79152C13.6664 8.49238 13.4239 8.24987 13.1248 8.24987C12.8256 8.24987 12.5831 8.49238 12.5831 8.79152C12.5831 9.09067 12.8256 9.33318 13.1248 9.33318Z" fill="black"/>
</svg>
