<svg width="20" height="20" viewBox="0 0 20 20" fill="none" xmlns="http://www.w3.org/2000/svg">
<path d="M5.45833 9C6.26372 9 6.91663 9.65291 6.91667 10.4583C6.91667 11.2638 6.26375 11.9167 5.45833 11.9167C4.65292 11.9167 4 11.2638 4 10.4583C4.00004 9.65291 4.65294 9 5.45833 9Z" fill="black"/>
<path d="M10.4583 9C11.2637 9 11.9166 9.65291 11.9167 10.4583C11.9167 11.2638 11.2637 11.9167 10.4583 11.9167C9.65292 11.9167 9 11.2638 9 10.4583C9.00004 9.65291 9.65294 9 10.4583 9Z" fill="black"/>
<path d="M15.4583 9C16.2637 9 16.9166 9.65291 16.9167 10.4583C16.9167 11.2638 16.2637 11.9167 15.4583 11.9167C14.6529 11.9167 14 11.2638 14 10.4583C14 9.65291 14.6529 9 15.4583 9Z" fill="black"/>
</svg>
