<svg width="20" height="20" viewBox="0 0 20 20" fill="none" xmlns="http://www.w3.org/2000/svg">
<path d="M6.78438 6.79167C6.93975 6.79167 7.04045 6.62772 6.9702 6.48913L5.76619 4.11413C5.7307 4.04412 5.65887 4 5.58037 4H4.66667C3.74619 4 3 4.74619 3 5.66667V6.375C3 6.60512 3.18655 6.79167 3.41667 6.79167H6.78438Z" fill="black"/>
<path d="M8.27747 6.67546C8.31256 6.74661 8.385 6.79167 8.46433 6.79167H9.28438C9.43975 6.79167 9.54045 6.62772 9.4702 6.48913L8.26619 4.11413C8.2307 4.04412 8.15887 4 8.08037 4H7.29333C7.13897 4 7.03821 4.16201 7.10648 4.30046L8.27747 6.67546Z" fill="black"/>
<path d="M11.7844 6.79167C11.9398 6.79167 12.0405 6.62772 11.9702 6.48913L10.7662 4.11413C10.7307 4.04412 10.6589 4 10.5804 4H9.79333C9.63897 4 9.53821 4.16201 9.60648 4.30046L10.7775 6.67546C10.8126 6.74661 10.885 6.79167 10.9643 6.79167H11.7844Z" fill="black"/>
<path d="M13.2775 6.67546C13.3126 6.74661 13.385 6.79167 13.4643 6.79167H15.9167C16.1468 6.79167 16.3333 6.60512 16.3333 6.375V5.66667C16.3333 4.74619 15.5871 4 14.6667 4H12.2933C12.139 4 12.0382 4.16201 12.1065 4.30046L13.2775 6.67546Z" fill="black"/>
<path d="M16.3333 7.875H3V14C3 14.9205 3.74619 15.6667 4.66667 15.6667H14.6667C15.5871 15.6667 16.3333 14.9205 16.3333 14V7.875Z" fill="black"/>
</svg>
