<svg width="20" height="20" viewBox="0 0 20 20" fill="none" xmlns="http://www.w3.org/2000/svg">
<path d="M3 5.83333C3 5.3731 3.3731 5 3.83333 5H15.5C15.9602 5 16.3333 5.3731 16.3333 5.83333C16.3333 6.29357 15.9602 6.66667 15.5 6.66667H3.83333C3.3731 6.66667 3 6.29357 3 5.83333Z" fill="black"/>
<path d="M3 10C3 9.53976 3.3731 9.16667 3.83333 9.16667H15.5C15.9602 9.16667 16.3333 9.53976 16.3333 10C16.3333 10.4602 15.9602 10.8333 15.5 10.8333H3.83333C3.3731 10.8333 3 10.4602 3 10Z" fill="black"/>
<path d="M3.83333 13.3333C3.3731 13.3333 3 13.7064 3 14.1667C3 14.6269 3.3731 15 3.83333 15H15.5C15.9602 15 16.3333 14.6269 16.3333 14.1667C16.3333 13.7064 15.9602 13.3333 15.5 13.3333H3.83333Z" fill="black"/>
</svg>
