<svg width="20" height="20" viewBox="0 0 20 20" fill="none" xmlns="http://www.w3.org/2000/svg">
<path d="M7.49996 7.12636C7.20081 7.12636 6.9583 7.36887 6.9583 7.66802C6.9583 7.96717 7.20081 8.20968 7.49996 8.20968H13.3332C13.6324 8.20968 13.8749 7.96717 13.8749 7.66802C13.8749 7.36887 13.6324 7.12636 13.3332 7.12636H7.49996Z" fill="black"/>
<path d="M6.9583 10.1438C6.9583 9.84465 7.20081 9.60214 7.49996 9.60214H13.3332C13.6324 9.60214 13.8749 9.84465 13.8749 10.1438C13.8749 10.443 13.6324 10.6855 13.3332 10.6855H7.49996C7.20081 10.6855 6.9583 10.443 6.9583 10.1438Z" fill="black"/>
<path d="M7.49996 12.078C7.20081 12.078 6.9583 12.3205 6.9583 12.6196C6.9583 12.9188 7.20081 13.1613 7.49996 13.1613H11.2499C11.5491 13.1613 11.7916 12.9188 11.7916 12.6196C11.7916 12.3205 11.5491 12.078 11.2499 12.078H7.49996Z" fill="black"/>
<path fill-rule="evenodd" clip-rule="evenodd" d="M7.91662 3C8.21577 3 8.45828 3.24251 8.45828 3.54166V3.9543H9.87492V3.54166C9.87492 3.24251 10.1174 3 10.4166 3C10.7157 3 10.9582 3.24251 10.9582 3.54166V3.9543H12.3749V3.54166C12.3749 3.24251 12.6174 3 12.9165 3C13.2157 3 13.4582 3.24251 13.4582 3.54166V3.9543H14.1665C15.087 3.9543 15.8332 4.70048 15.8332 5.62094V14.6667C15.8332 15.5872 15.087 16.3333 14.1665 16.3333H6.66664C5.74618 16.3333 5 15.5872 5 14.6667V5.62094C5 4.70048 5.74618 3.9543 6.66664 3.9543H7.37496V3.54166C7.37496 3.24251 7.61747 3 7.91662 3ZM14.7498 5.62094C14.7498 5.29878 14.4887 5.03761 14.1665 5.03761H6.66664C6.34448 5.03761 6.08332 5.29878 6.08332 5.62094V14.6667C6.08332 14.9889 6.34448 15.25 6.66664 15.25H14.1665C14.4887 15.25 14.7498 14.9889 14.7498 14.6667V5.62094Z" fill="black"/>
</svg>
