<svg width="20" height="20" viewBox="0 0 20 20" fill="none" xmlns="http://www.w3.org/2000/svg">
<path fill-rule="evenodd" clip-rule="evenodd" d="M9.66667 6.625C9.46788 6.625 9.28506 6.73389 9.19038 6.90868L7.52372 9.9856C7.48081 10.0648 7.45833 10.1535 7.45833 10.2436V10.6282C7.45833 10.9274 7.70085 11.1699 8 11.1699H9.79167V12.1667C9.79167 12.4658 10.0342 12.7083 10.3333 12.7083C10.6325 12.7083 10.875 12.4658 10.875 12.1667V11.1699H11.3333C11.6325 11.1699 11.875 10.9274 11.875 10.6282C11.875 10.3291 11.6325 10.0865 11.3333 10.0865H10.875V7.16667C10.875 6.86751 10.6325 6.625 10.3333 6.625H9.66667ZM9.79167 8.07318V10.0865H8.7011L9.79167 8.07318Z" fill="black"/>
<path fill-rule="evenodd" clip-rule="evenodd" d="M16.3333 9.66667C16.3333 13.3486 13.3486 16.3333 9.66667 16.3333C5.98477 16.3333 3 13.3486 3 9.66667C3 5.98477 5.98477 3 9.66667 3C13.3486 3 16.3333 5.98477 16.3333 9.66667ZM15.25 9.66667C15.25 12.7503 12.7503 15.25 9.66667 15.25C6.58308 15.25 4.08333 12.7503 4.08333 9.66667C4.08333 6.58308 6.58308 4.08333 9.66667 4.08333C12.7503 4.08333 15.25 6.58308 15.25 9.66667Z" fill="black"/>
</svg>
