<svg width="20" height="20" viewBox="0 0 20 20" fill="none" xmlns="http://www.w3.org/2000/svg">
<path fill-rule="evenodd" clip-rule="evenodd" d="M9.66667 16.3333C13.3486 16.3333 16.3333 13.3486 16.3333 9.66667C16.3333 5.98477 13.3486 3 9.66667 3C5.98477 3 3 5.98477 3 9.66667C3 13.3486 5.98477 16.3333 9.66667 16.3333ZM8.95833 8.41667C8.95833 8.29501 8.99929 8.10047 9.10625 7.95191C9.19332 7.83098 9.34321 7.70833 9.66667 7.70833C9.99013 7.70833 10.14 7.83098 10.2271 7.95191C10.334 8.10047 10.375 8.29501 10.375 8.41667C10.375 8.53832 10.334 8.73286 10.2271 8.88142C10.14 9.00236 9.99013 9.125 9.66667 9.125H9.35417C9.05501 9.125 8.8125 9.36751 8.8125 9.66667C8.8125 9.96582 9.05501 10.2083 9.35417 10.2083H9.66667C9.78832 10.2083 9.98286 10.2493 10.1314 10.3562C10.2524 10.4433 10.375 10.5932 10.375 10.9167C10.375 11.2401 10.2524 11.39 10.1314 11.4771C9.98286 11.584 9.78832 11.625 9.66667 11.625C9.54501 11.625 9.35047 11.584 9.20191 11.4771C9.08098 11.39 8.95833 11.2401 8.95833 10.9167C8.95833 10.6175 8.71582 10.375 8.41667 10.375C8.11751 10.375 7.875 10.6175 7.875 10.9167C7.875 11.5932 8.16902 12.0683 8.56892 12.3562C8.94119 12.6243 9.37165 12.7083 9.66667 12.7083C9.96168 12.7083 10.3921 12.6243 10.7644 12.3562C11.1643 12.0683 11.4583 11.5932 11.4583 10.9167C11.4583 10.3712 11.2672 9.95664 10.9835 9.66559C11.0277 9.61729 11.0686 9.56676 11.1062 9.51441C11.3743 9.14214 11.4583 8.71168 11.4583 8.41667C11.4583 8.12165 11.3743 7.69119 11.1062 7.31892C10.8183 6.91902 10.3432 6.625 9.66667 6.625C8.99013 6.625 8.51501 6.91902 8.22709 7.31892C7.95905 7.69119 7.875 8.12165 7.875 8.41667C7.875 8.71582 8.11751 8.95833 8.41667 8.95833C8.71582 8.95833 8.95833 8.71582 8.95833 8.41667Z" fill="black"/>
</svg>
