<svg width="20" height="20" viewBox="0 0 20 20" fill="none" xmlns="http://www.w3.org/2000/svg">
<path fill-rule="evenodd" clip-rule="evenodd" d="M4.31006 6.30443H3.54181C3.24269 6.30443 3.00021 6.06195 3.00021 5.76283C3.00021 5.46371 3.24269 5.22123 3.54181 5.22123H4.31006C4.53925 4.51189 5.2065 4 5.99176 4C6.77702 4 7.44427 4.51189 7.67345 5.22123H15.7917C16.0909 5.22123 16.3333 5.46371 16.3333 5.76283C16.3333 6.06195 16.0909 6.30443 15.7917 6.30443H7.67346C7.44428 7.01378 6.77703 7.52568 5.99176 7.52568C5.20649 7.52568 4.53924 7.01378 4.31006 6.30443ZM5.30836 5.76284C5.30836 5.38905 5.61276 5.0832 5.99176 5.0832C6.37075 5.0832 6.67515 5.38905 6.67515 5.76284C6.67515 6.13663 6.37075 6.44248 5.99176 6.44248C5.61276 6.44248 5.30836 6.13663 5.30836 5.76284Z" fill="black"/>
<path fill-rule="evenodd" clip-rule="evenodd" d="M15.0234 10.3753C14.7942 11.0846 14.1269 11.5965 13.3417 11.5965C12.5564 11.5965 11.8892 11.0846 11.66 10.3753L3.5416 10.3753C3.24248 10.3753 3 10.1328 3 9.83368C3 9.53457 3.24248 9.29208 3.5416 9.29208L11.66 9.29208C11.8892 8.58272 12.5564 8.07081 13.3417 8.07081C14.127 8.07081 14.7942 8.58272 15.0234 9.29208L15.7915 9.29208C16.0906 9.29208 16.3331 9.53456 16.3331 9.83368C16.3331 10.1328 16.0906 10.3753 15.7915 10.3753H15.0234ZM14.0251 9.83365C14.0251 10.2074 13.7207 10.5133 13.3417 10.5133C12.9627 10.5133 12.6583 10.2074 12.6583 9.83365C12.6583 9.45986 12.9627 9.154 13.3417 9.154C13.7207 9.154 14.0251 9.45986 14.0251 9.83365Z" fill="black"/>
<path fill-rule="evenodd" clip-rule="evenodd" d="M3.74461 13.485C3.93336 12.713 4.63127 12.1416 5.46091 12.1416C6.29055 12.1416 6.98846 12.713 7.17721 13.485H15.7917C16.0909 13.485 16.3333 13.7274 16.3333 14.0266C16.3333 14.3257 16.0909 14.5682 15.7917 14.5682H7.09808C6.83515 15.2134 6.20035 15.6673 5.46091 15.6673C4.72146 15.6673 4.08667 15.2134 3.82374 14.5682H3.54181C3.24269 14.5682 3.00021 14.3257 3.00021 14.0266C3.00021 13.7274 3.24269 13.485 3.54181 13.485H3.74461ZM4.82202 13.6628C4.91979 13.4074 5.16808 13.2248 5.46091 13.2248C5.8399 13.2248 6.1443 13.5307 6.1443 13.9045C6.1443 14.2783 5.8399 14.5841 5.46091 14.5841C5.08191 14.5841 4.77751 14.2783 4.77751 13.9045C4.77751 13.8851 4.77834 13.8658 4.77995 13.8468C4.78927 13.7838 4.80343 13.7223 4.82202 13.6628Z" fill="black"/>
</svg>
