<svg width="20" height="20" viewBox="0 0 20 20" fill="none" xmlns="http://www.w3.org/2000/svg">
<path d="M13.8333 9.66634H14.6666C14.8926 9.66634 15.1081 9.71132 15.3046 9.79281L14.9854 10.5626C14.8883 10.5223 14.7812 10.4997 14.6666 10.4997H13.8333V9.66634Z" fill="black"/>
<path d="M16.3333 14.6663V13.833H15.5V14.6663C15.5 14.7809 15.4773 14.888 15.4371 14.9851L16.2068 15.3043C16.2883 15.1078 16.3333 14.8923 16.3333 14.6663Z" fill="black"/>
<path d="M10.5 16.333H12.1666V15.4997H10.5V16.333Z" fill="black"/>
<path d="M13.8333 16.333H14.6666C14.8926 16.333 15.1081 16.288 15.3046 16.2065L14.9854 15.4368C14.8883 15.477 14.7812 15.4997 14.6666 15.4997H13.8333V16.333Z" fill="black"/>
<path d="M16.3333 12.1663V11.333C16.3333 11.107 16.2883 10.8915 16.2068 10.695L15.4371 11.0142C15.4773 11.1113 15.5 11.2185 15.5 11.333V12.1663H16.3333Z" fill="black"/>
<path d="M12.1666 9.66634H10.5V10.4997H12.1666V9.66634Z" fill="black"/>
<path fill-rule="evenodd" clip-rule="evenodd" d="M7.99998 2.99967C8.92045 2.99967 9.66665 3.74587 9.66665 4.66634L9.66665 14.6663C9.66665 15.5868 8.92045 16.333 7.99998 16.333H4.66665C3.74617 16.333 2.99998 15.5868 2.99998 14.6663V4.66634C2.99998 3.74587 3.74617 2.99967 4.66665 2.99967H7.99998ZM4.66665 4.08301H7.99998C8.32215 4.08301 8.58331 4.34418 8.58331 4.66634L8.58331 14.6663C8.58331 14.9885 8.32215 15.2497 7.99998 15.2497L4.66665 15.2497C4.34448 15.2497 4.08331 14.9885 4.08331 14.6663V4.66634C4.08331 4.34418 4.34448 4.08301 4.66665 4.08301Z" fill="black"/>
<path d="M13.2594 6.91809L13.431 7.01171C13.3552 6.73384 13.2447 6.45105 13.0911 6.19503C12.755 5.63494 12.2228 5.20801 11.3333 5.20801C11.0342 5.20801 10.7916 4.9655 10.7916 4.66634C10.7916 4.36719 11.0342 4.12467 11.3333 4.12467C12.666 4.12467 13.5227 4.80885 14.02 5.63766C14.1568 5.8657 14.2671 6.1048 14.3547 6.34461C14.5071 6.2375 14.7108 6.21193 14.8923 6.29514C15.1643 6.41979 15.2837 6.74129 15.1591 7.01324L14.5477 8.34719C14.447 8.56675 14.1814 8.65503 13.9694 8.53937L12.7406 7.86914C12.478 7.72589 12.3812 7.39686 12.5245 7.13424C12.6677 6.87161 12.9967 6.77484 13.2594 6.91809Z" fill="black"/>
</svg>
