<svg width="20" height="20" viewBox="0 0 20 20" fill="none" xmlns="http://www.w3.org/2000/svg">
<path d="M3.83333 2.99967C3.37309 2.99967 3 3.37275 3 3.83301L3 5.49967C3 5.95993 3.37309 6.33301 3.83333 6.33301C4.29358 6.33301 4.66667 5.95993 4.66667 5.49967L4.66667 3.83301C4.66667 3.37275 4.29358 2.99967 3.83333 2.99967Z" fill="black"/>
<path d="M8.54636 10.4997C8.47212 10.4997 8.43494 10.5894 8.48744 10.6419L10.0833 12.2378C10.4088 12.5633 10.4088 13.0909 10.0833 13.4163C9.75789 13.7418 9.23026 13.7418 8.90483 13.4163L5.74408 10.2556C5.41864 9.93016 5.41864 9.40252 5.74408 9.07708L8.90483 5.91634C9.23026 5.59091 9.75789 5.59091 10.0833 5.91633C10.4088 6.24177 10.4088 6.7694 10.0833 7.09484L8.48744 8.69075C8.43494 8.74325 8.47212 8.83301 8.54636 8.83301L13 8.83301C13.4602 8.83301 13.8333 9.2061 13.8333 9.66634C13.8333 10.1266 13.4602 10.4997 13 10.4997L8.54636 10.4997Z" fill="black"/>
<path d="M14.6667 3.83301C14.6667 3.37275 15.0398 2.99967 15.5 2.99967C15.9602 2.99967 16.3333 3.37275 16.3333 3.83301L16.3333 15.4997C16.3333 15.9599 15.9602 16.333 15.5 16.333C15.0398 16.333 14.6667 15.9599 14.6667 15.4997L14.6667 3.83301Z" fill="black"/>
<path d="M3 13.833C3 13.3728 3.37309 12.9997 3.83333 12.9997C4.29358 12.9997 4.66667 13.3728 4.66667 13.833L4.66667 15.4997C4.66667 15.9599 4.29358 16.333 3.83333 16.333C3.37309 16.333 3 15.9599 3 15.4997L3 13.833Z" fill="black"/>
<path d="M3.83333 7.16634C3.37309 7.16634 3 7.53942 3 7.99967L3 11.333C3 11.7933 3.37309 12.1663 3.83333 12.1663C4.29358 12.1663 4.66667 11.7933 4.66667 11.333L4.66667 7.99967C4.66667 7.53942 4.29358 7.16634 3.83333 7.16634Z" fill="black"/>
</svg>
