<svg width="20" height="20" viewBox="0 0 20 20" fill="none" xmlns="http://www.w3.org/2000/svg">
<path d="M3.54169 3C3.24251 3 3 3.24251 3 3.54166V5.79167C3 6.09082 3.24251 6.33333 3.54169 6.33333C3.84081 6.33333 4.08332 6.09082 4.08332 5.79167V3.54166C4.08332 3.24251 3.84081 3 3.54169 3Z" fill="black"/>
<path d="M15.25 3.54166C15.25 3.24251 15.4925 3 15.7917 3C16.0908 3 16.3333 3.24251 16.3333 3.54166V15.7917C16.3333 16.0908 16.0908 16.3333 15.7917 16.3333C15.4925 16.3333 15.25 16.0908 15.25 15.7917V3.54166Z" fill="black"/>
<path d="M7.00889 10.2083C6.93463 10.2083 6.89745 10.2981 6.94994 10.3506L9.66667 13.0673C9.8782 13.2788 9.8782 13.6218 9.66667 13.8333C9.45513 14.0449 9.11216 14.0449 8.90062 13.8333L5.3232 10.2559C4.99778 9.93048 4.99778 9.40284 5.3232 9.07741L8.90062 5.5C9.11216 5.28846 9.45513 5.28846 9.66667 5.5C9.8782 5.71152 9.8782 6.05449 9.66667 6.26603L6.94994 8.98274C6.89745 9.03523 6.93463 9.12499 7.00889 9.12499H13.2916C13.5908 9.12499 13.8333 9.36751 13.8333 9.66667C13.8333 9.96582 13.5908 10.2083 13.2916 10.2083H7.00889Z" fill="black"/>
<path d="M3 13.5417C3 13.2425 3.24251 13 3.54169 13C3.84081 13 4.08332 13.2425 4.08332 13.5417V15.7917C4.08332 16.0908 3.84081 16.3333 3.54169 16.3333C3.24251 16.3333 3 16.0908 3 15.7917V13.5417Z" fill="black"/>
<path d="M3.54169 7.16667C3.24251 7.16667 3 7.40918 3 7.70833V11.625C3 11.9242 3.24251 12.1667 3.54169 12.1667C3.84081 12.1667 4.08332 11.9242 4.08332 11.625V7.70833C4.08332 7.40918 3.84081 7.16667 3.54169 7.16667Z" fill="black"/>
</svg>
