<svg width="20" height="20" viewBox="0 0 20 20" fill="none" xmlns="http://www.w3.org/2000/svg">
<path d="M6.04167 11.4167C5.74251 11.4167 5.5 11.6592 5.5 11.9583C5.5 12.2575 5.74251 12.5 6.04167 12.5H7.45833C7.75749 12.5 8 12.2575 8 11.9583C8 11.6592 7.75749 11.4167 7.45833 11.4167H6.04167Z" fill="black"/>
<path fill-rule="evenodd" clip-rule="evenodd" d="M4.66667 5C3.74619 5 3 5.74619 3 6.66667V13.3333C3 14.2538 3.74619 15 4.66667 15H14.6667C15.5871 15 16.3333 14.2538 16.3333 13.3333V6.66667C16.3333 5.74619 15.5871 5 14.6667 5H4.66667ZM14.6667 6.08333H4.66667C4.3445 6.08333 4.08333 6.3445 4.08333 6.66667V7.79167H15.25V6.66667C15.25 6.3445 14.9888 6.08333 14.6667 6.08333ZM4.08333 13.3333V8.875H15.25V13.3333C15.25 13.6555 14.9888 13.9167 14.6667 13.9167H4.66667C4.3445 13.9167 4.08333 13.6555 4.08333 13.3333Z" fill="black"/>
</svg>
