<svg width="20" height="20" viewBox="0 0 20 20" fill="none" xmlns="http://www.w3.org/2000/svg">
<path fill-rule="evenodd" clip-rule="evenodd" d="M5.5 6.66667C5.03976 6.66667 4.66667 7.03976 4.66667 7.5V9.16667C4.66667 9.6269 5.03976 10 5.5 10H13.8333C14.2936 10 14.6667 9.6269 14.6667 9.16667V7.5C14.6667 7.03976 14.2936 6.66667 13.8333 6.66667H5.5ZM5.95833 7.75C5.84327 7.75 5.75 7.84327 5.75 7.95833V8.70833C5.75 8.82339 5.84327 8.91667 5.95833 8.91667H13.375C13.4901 8.91667 13.5833 8.82339 13.5833 8.70833V7.95833C13.5833 7.84327 13.4901 7.75 13.375 7.75H5.95833Z" fill="black"/>
<path d="M4.66667 11.25C4.66667 11.5492 4.90918 11.7917 5.20833 11.7917H8.70833C9.00749 11.7917 9.25 11.5492 9.25 11.25C9.25 10.9508 9.00749 10.7083 8.70833 10.7083H5.20833C4.90918 10.7083 4.66667 10.9508 4.66667 11.25Z" fill="black"/>
<path d="M9.25 12.9167C9.25 13.2158 9.00749 13.4583 8.70833 13.4583H5.20833C4.90918 13.4583 4.66667 13.2158 4.66667 12.9167C4.66667 12.6175 4.90918 12.375 5.20833 12.375H8.70833C9.00749 12.375 9.25 12.6175 9.25 12.9167Z" fill="black"/>
<path fill-rule="evenodd" clip-rule="evenodd" d="M9.66667 11.4583C9.66667 10.9981 10.0398 10.625 10.5 10.625H13.8333C14.2936 10.625 14.6667 10.9981 14.6667 11.4583V12.7083C14.6667 13.1686 14.2936 13.5417 13.8333 13.5417H10.5C10.0398 13.5417 9.66667 13.1686 9.66667 12.7083V11.4583ZM10.9583 12.4583C10.8433 12.4583 10.75 12.3651 10.75 12.25V11.9167C10.75 11.8016 10.8433 11.7083 10.9583 11.7083H13.375C13.4901 11.7083 13.5833 11.8016 13.5833 11.9167V12.25C13.5833 12.3651 13.4901 12.4583 13.375 12.4583H10.9583Z" fill="black"/>
<path fill-rule="evenodd" clip-rule="evenodd" d="M4.66667 5C3.74619 5 3 5.74619 3 6.66667V13.3333C3 14.2538 3.74619 15 4.66667 15H14.6667C15.5871 15 16.3333 14.2538 16.3333 13.3333V6.66667C16.3333 5.74619 15.5871 5 14.6667 5H4.66667ZM14.6667 6.08333H4.66667C4.3445 6.08333 4.08333 6.3445 4.08333 6.66667V13.3333C4.08333 13.6555 4.3445 13.9167 4.66667 13.9167H14.6667C14.9888 13.9167 15.25 13.6555 15.25 13.3333V6.66667C15.25 6.3445 14.9888 6.08333 14.6667 6.08333Z" fill="black"/>
</svg>
