<svg width="20" height="20" viewBox="0 0 20 20" fill="none" xmlns="http://www.w3.org/2000/svg">
<path fill-rule="evenodd" clip-rule="evenodd" d="M7.79167 7.16667C7.44649 7.16667 7.16667 7.44649 7.16667 7.79167V11.5417C7.16667 11.8868 7.44649 12.1667 7.79167 12.1667H11.5417C11.8868 12.1667 12.1667 11.8868 12.1667 11.5417V7.79167C12.1667 7.44649 11.8868 7.16667 11.5417 7.16667H7.79167Z" fill="black"/>
<path fill-rule="evenodd" clip-rule="evenodd" d="M16.3333 9.66667C16.3333 13.3486 13.3486 16.3333 9.66667 16.3333C5.98477 16.3333 3 13.3486 3 9.66667C3 5.98477 5.98477 3 9.66667 3C13.3486 3 16.3333 5.98477 16.3333 9.66667ZM15.25 9.66667C15.25 12.7503 12.7503 15.25 9.66667 15.25C6.58308 15.25 4.08333 12.7503 4.08333 9.66667C4.08333 6.58308 6.58308 4.08333 9.66667 4.08333C12.7503 4.08333 15.25 6.58308 15.25 9.66667Z" fill="black"/>
</svg>
