<svg width="20" height="20" viewBox="0 0 20 20" fill="none" xmlns="http://www.w3.org/2000/svg">
<path d="M3.5416 3C3.84072 3 4.08321 3.24248 4.08321 3.5416V15.7917C4.08321 16.0908 3.84072 16.3333 3.5416 16.3333C3.24248 16.3333 3 16.0908 3 15.7917V3.5416C3 3.24248 3.24248 3 3.5416 3Z" fill="black"/>
<path d="M15.7917 3C16.0908 3 16.3333 3.24248 16.3333 3.5416V15.7917C16.3333 16.0908 16.0908 16.3333 15.7917 16.3333C15.4926 16.3333 15.2501 16.0908 15.2501 15.7917V3.5416C15.2501 3.24248 15.4926 3 15.7917 3Z" fill="black"/>
<path d="M10.2083 3.5416C10.2083 3.24248 9.96579 3 9.66667 3C9.36755 3 9.12506 3.24248 9.12506 3.5416V5.99163C9.12506 6.29075 9.36755 6.53323 9.66667 6.53323C9.96579 6.53323 10.2083 6.29075 10.2083 5.99163V3.5416Z" fill="black"/>
<path d="M9.66667 7.90006C9.96579 7.90006 10.2083 8.14255 10.2083 8.44166V10.8917C10.2083 11.1908 9.96579 11.4333 9.66667 11.4333C9.36755 11.4333 9.12506 11.1908 9.12506 10.8917V8.44166C9.12506 8.14255 9.36755 7.90006 9.66667 7.90006Z" fill="black"/>
<path d="M10.2083 13.3417C10.2083 13.0426 9.96579 12.8001 9.66667 12.8001C9.36755 12.8001 9.12506 13.0426 9.12506 13.3417V15.7917C9.12506 16.0908 9.36755 16.3333 9.66667 16.3333C9.96579 16.3333 10.2083 16.0908 10.2083 15.7917V13.3417Z" fill="black"/>
</svg>
