<svg width="20" height="20" viewBox="0 0 20 20" fill="none" xmlns="http://www.w3.org/2000/svg">
<path fill-rule="evenodd" clip-rule="evenodd" d="M9.53573 9.98214C10.1334 10.5847 11.1023 10.5847 11.7 9.98214C12.2976 9.37954 12.2976 8.40254 11.7 7.79994C11.1023 7.19735 10.1334 7.19735 9.53573 7.79994C8.93809 8.40254 8.93809 9.37954 9.53573 9.98214ZM10.2984 9.21315C10.4748 9.39105 10.7609 9.39105 10.9373 9.21315C11.1137 9.03525 11.1137 8.74682 10.9373 8.56893C10.7609 8.39103 10.4748 8.39103 10.2984 8.56893C10.1219 8.74682 10.1219 9.03525 10.2984 9.21315Z" fill="black"/>
<path fill-rule="evenodd" clip-rule="evenodd" d="M4.77479 16.0834C4.54904 16.0834 4.35048 16.0916 4.17612 16.1051C4.1379 16.108 4.10085 16.1112 4.06492 16.1146C3.56226 16.1624 3.28116 16.2532 3.13568 16.3001C3.0578 16.3252 3.01879 16.3378 3.00545 16.3246C2.99207 16.3113 3.00455 16.2719 3.02957 16.1931C3.07587 16.0472 3.1651 15.7661 3.2127 15.2645C3.21614 15.2283 3.21936 15.191 3.22233 15.1525C3.23604 14.9746 3.24446 14.7717 3.24445 14.5404C3.24444 13.6882 3.92961 12.9973 4.77479 12.9973C5.61998 12.9973 6.30513 13.6882 6.30513 14.5404C6.30513 15.3926 5.61998 16.0834 4.77479 16.0834ZM5.22209 14.5404C5.22209 14.8029 5.0134 15.0004 4.77479 15.0004C4.61115 15.0004 4.45858 15.0042 4.3163 15.0112C4.32349 14.8654 4.3275 14.7087 4.32749 14.5403C4.32749 14.2779 4.53617 14.0804 4.77479 14.0804C5.0134 14.0804 5.22209 14.2778 5.22209 14.5404Z" fill="black"/>
<path fill-rule="evenodd" clip-rule="evenodd" d="M14.1608 10.6704L15.601 9.21826C16.1344 8.6804 16.3971 7.92761 16.3153 7.17145L16.1202 5.36911C15.9905 4.17038 15.0336 3.23414 13.8414 3.13946L12.183 3.00776C11.4571 2.95011 10.7425 3.21589 10.2276 3.73506L8.76647 5.20833C8.12748 4.72156 7.45307 4.60602 6.8467 4.70555C6.16288 4.8178 5.60557 5.19484 5.28949 5.51354L4.23816 6.5736C3.91605 6.89838 3.91605 7.42213 4.23816 7.74691L5.56486 9.08463C5.64101 9.16141 5.73445 9.21061 5.83276 9.23219C5.83665 9.61138 5.92525 9.98985 6.09855 10.3363L5.45244 10.662C4.87119 10.955 4.74511 11.73 5.20348 12.1922L7.06761 14.0718C7.53021 14.5382 8.31435 14.4113 8.6062 13.8227L8.89491 13.2405C9.31785 13.5056 9.80251 13.6308 10.2837 13.616C10.304 13.6476 10.328 13.6776 10.3555 13.7054L11.6765 15.0374C12.0024 15.366 12.5336 15.366 12.8595 15.0374L13.7972 14.092C14.1133 13.7732 14.4872 13.2112 14.5984 12.5215C14.6927 11.9368 14.5919 11.2894 14.1608 10.6704ZM13.3792 11.4585L11.9673 12.8821C11.8112 13.0395 11.6396 13.1716 11.4573 13.2784L11.9723 13.7976C12.1352 13.9619 12.4008 13.9619 12.5638 13.7976L13.0345 13.323C13.2285 13.1274 13.4667 12.7635 13.5338 12.347C13.5762 12.0842 13.5548 11.7817 13.3792 11.4585ZM5.57665 6.76202C5.4156 6.92441 5.4156 7.18628 5.57665 7.34867L6.16863 7.94557C6.27458 7.76187 6.40557 7.58883 6.56163 7.43148L7.8888 6.09328C7.53349 5.86486 7.20129 5.83489 6.91701 5.88155C6.50568 5.94907 6.1454 6.18855 5.95126 6.3843L5.57665 6.76202ZM6.2955 11.7552C6.19585 11.6548 6.22326 11.4863 6.34962 11.4226L6.64806 11.2721C6.72862 11.2315 6.82617 11.2474 6.8897 11.3114L7.95344 12.384C8.01616 12.4473 8.03172 12.5434 7.99215 12.6232L7.84293 12.9241C7.77948 13.0521 7.60902 13.0796 7.50845 12.9782L6.2955 11.7552ZM14.8383 8.44928L11.2047 12.1131C10.6539 12.6685 9.76086 12.6685 9.21006 12.1131L7.32428 10.2117C6.77348 9.65628 6.77348 8.75584 7.32428 8.20046L10.9903 4.50405C11.282 4.20985 11.687 4.05924 12.0983 4.09191L13.7567 4.22361C14.4323 4.27726 14.9745 4.8078 15.0481 5.48708L15.2431 7.28942C15.2895 7.71791 15.1406 8.14449 14.8383 8.44928ZM9.53573 9.98214C10.1334 10.5847 11.1023 10.5847 11.7 9.98214C12.2976 9.37954 12.2976 8.40254 11.7 7.79994C11.1023 7.19735 10.1334 7.19735 9.53573 7.79994C8.93809 8.40254 8.93809 9.37954 9.53573 9.98214ZM10.2984 9.21315C10.4748 9.39105 10.7609 9.39105 10.9373 9.21315C11.1137 9.03525 11.1137 8.74682 10.9373 8.56893C10.7609 8.39103 10.4748 8.39103 10.2984 8.56893C10.1219 8.74682 10.1219 9.03525 10.2984 9.21315Z" fill="black"/>
</svg>
