<svg width="20" height="20" viewBox="0 0 20 20" fill="none" xmlns="http://www.w3.org/2000/svg">
<path fill-rule="evenodd" clip-rule="evenodd" d="M8.66625 3C7.74601 3 7 3.74601 7 4.66625V14.6637C7 15.584 7.74601 16.33 8.66625 16.33H11.9987C12.919 16.33 13.665 15.584 13.665 14.6637V4.66625C13.665 3.74601 12.919 3 11.9987 3H8.66625ZM8.08306 6.24919H9.49937C9.79845 6.24919 10.0409 6.00674 10.0409 5.70766C10.0409 5.40858 9.79845 5.16612 9.49937 5.16612H8.08306V6.24919ZM10.3325 8.332H8.08306V7.24894H10.3325C10.6316 7.24894 10.874 7.49139 10.874 7.79047C10.874 8.08955 10.6316 8.332 10.3325 8.332ZM8.08306 10.4148H9.49937C9.79845 10.4148 10.0409 10.1724 10.0409 9.87328C10.0409 9.5742 9.79845 9.33175 9.49937 9.33175H8.08306V10.4148ZM10.3325 12.4976H8.08306V11.4146H10.3325C10.6316 11.4146 10.874 11.657 10.874 11.9561C10.874 12.2552 10.6316 12.4976 10.3325 12.4976ZM8.08306 14.5804H9.49937C9.79845 14.5804 10.0409 14.338 10.0409 14.0389C10.0409 13.7398 9.79845 13.4974 9.49937 13.4974H8.08306V14.5804Z" fill="black"/>
</svg>
