<svg width="20" height="20" viewBox="0 0 20 20" fill="none" xmlns="http://www.w3.org/2000/svg">
<path fill-rule="evenodd" clip-rule="evenodd" d="M3 5.66667C3 4.74619 3.74621 4 4.66667 4H14.6667C15.5871 4 16.3333 4.74619 16.3333 5.66667V7.33333C16.3333 8.25381 15.5871 9 14.6667 9H4.66667C3.74621 9 3 8.25381 3 7.33333V5.66667ZM13.2917 7.04167C13.5908 7.04167 13.8333 6.79916 13.8333 6.5C13.8333 6.20085 13.5908 5.95834 13.2917 5.95834C12.9925 5.95834 12.75 6.20085 12.75 6.5C12.75 6.79916 12.9925 7.04167 13.2917 7.04167ZM5.5 5.95834C5.20083 5.95834 4.95831 6.20085 4.95831 6.5C4.95831 6.79915 5.20083 7.04166 5.5 7.04166H8.83333C9.13251 7.04166 9.37502 6.79915 9.37502 6.5C9.37502 6.20085 9.13251 5.95834 8.83333 5.95834H5.5Z" fill="black"/>
<path fill-rule="evenodd" clip-rule="evenodd" d="M3 11.5C3 10.5795 3.74621 9.83333 4.66667 9.83333H14.6667C15.5871 9.83333 16.3333 10.5795 16.3333 11.5V12.0375C16.0693 11.9589 15.7896 11.9167 15.5 11.9167C14.875 11.9167 14.2959 12.1133 13.8212 12.448C13.8292 12.411 13.8333 12.3727 13.8333 12.3333C13.8333 12.0342 13.5908 11.7917 13.2917 11.7917C12.9925 11.7917 12.75 12.0342 12.75 12.3333C12.75 12.6325 12.9925 12.875 13.2917 12.875C13.3009 12.875 13.31 12.8748 13.3191 12.8743C13.3262 12.874 13.3334 12.8735 13.3405 12.8728C12.87 13.3907 12.5833 14.0785 12.5833 14.8333H4.66667C3.74621 14.8333 3 14.0871 3 13.1667V11.5ZM5.5 11.7917C5.20083 11.7917 4.95831 12.0342 4.95831 12.3333C4.95831 12.6325 5.20083 12.875 5.5 12.875H8.83333C9.13251 12.875 9.37502 12.6325 9.37502 12.3333C9.37502 12.0342 9.13251 11.7917 8.83333 11.7917H5.5Z" fill="black"/>
<path fill-rule="evenodd" clip-rule="evenodd" d="M18 14.8333C18 16.2141 16.8807 17.3333 15.5 17.3333C14.1193 17.3333 13 16.2141 13 14.8333C13 13.4526 14.1193 12.3333 15.5 12.3333C16.8807 12.3333 18 13.4526 18 14.8333ZM16.3673 14.7198L14.7463 13.9094C14.6618 13.8672 14.5625 13.9286 14.5625 14.023V15.6437C14.5625 15.7381 14.6618 15.7995 14.7463 15.7573L16.3673 14.9469C16.4609 14.9001 16.4609 14.7666 16.3673 14.7198Z" fill="black"/>
</svg>
