<svg width="20" height="20" viewBox="0 0 20 20" fill="none" xmlns="http://www.w3.org/2000/svg">
<path fill-rule="evenodd" clip-rule="evenodd" d="M9.56216 3L11.1045 3C11.8073 3 12.377 3.56935 12.377 4.27168V4.99446C12.377 5.49876 12.9232 5.81395 13.3603 5.56179L13.9866 5.20041C14.5952 4.84924 15.3734 5.05764 15.7248 5.66587L16.496 7.00079C16.8474 7.60902 16.6388 8.38677 16.0302 8.73793L15.4039 9.09932C14.9669 9.35148 14.9669 9.98185 15.4039 10.234L16.0302 10.5954C16.6388 10.9466 16.8474 11.7243 16.496 12.3325L15.7248 13.6675C15.3734 14.2757 14.5952 14.4841 13.9866 14.1329L13.3603 13.7715C12.9232 13.5194 12.377 13.8346 12.377 14.3389V15.0617C12.377 15.764 11.8073 16.3333 11.1045 16.3333H9.56216C8.8594 16.3333 8.2897 15.764 8.2897 15.0617V14.3389C8.2897 13.8346 7.74345 13.5194 7.30644 13.7715L6.68009 14.1329C6.07148 14.4841 5.29326 14.2757 4.94188 13.6675L4.17069 12.3325C3.81931 11.7243 4.02783 10.9466 4.63644 10.5954L5.26278 10.234C5.69979 9.98185 5.69979 9.35148 5.26278 9.09932L4.63644 8.73793C4.02783 8.38677 3.81931 7.60902 4.17069 7.00079L4.94188 5.66587C5.29326 5.05764 6.07148 4.84924 6.68009 5.20041L7.30644 5.56181C7.74345 5.81396 8.2897 5.49877 8.2897 4.99447V4.27168C8.2897 3.56935 8.8594 3 9.56216 3ZM10.3887 7.62428C9.26003 7.62428 8.34506 8.53869 8.34506 9.66667C8.34506 10.7946 9.26003 11.7091 10.3887 11.7091C11.5174 11.7091 12.4323 10.7946 12.4323 9.66667C12.4323 8.53869 11.5174 7.62428 10.3887 7.62428Z" fill="black"/>
</svg>
