<svg width="20" height="20" viewBox="0 0 20 20" fill="none" xmlns="http://www.w3.org/2000/svg">
<path d="M4.08306 7.16563C4.08306 8.86808 5.46317 10.2482 7.16563 10.2482V11.3313C4.86501 11.3313 3 9.46624 3 7.16563C3 4.86501 4.86501 3 7.16563 3C9.46624 3 11.3313 4.86501 11.3313 7.16563H10.2482C10.2482 5.46317 8.86808 4.08306 7.16563 4.08306C5.46317 4.08306 4.08306 5.46317 4.08306 7.16563Z" fill="black"/>
<path fill-rule="evenodd" clip-rule="evenodd" d="M7.99875 9.665C7.99875 8.74476 8.74476 7.99875 9.665 7.99875H14.6637C15.584 7.99875 16.33 8.74476 16.33 9.665V14.6637C16.33 15.584 15.584 16.33 14.6637 16.33H9.665C8.74476 16.33 7.99875 15.584 7.99875 14.6637V9.665ZM9.665 9.08181H14.6637C14.9858 9.08181 15.2469 9.34291 15.2469 9.665V14.6637C15.2469 14.9858 14.9858 15.2469 14.6637 15.2469H9.665C9.34291 15.2469 9.08181 14.9858 9.08181 14.6637V9.665C9.08181 9.34291 9.34291 9.08181 9.665 9.08181Z" fill="black"/>
</svg>
