<svg width="20" height="20" viewBox="0 0 20 20" fill="none" xmlns="http://www.w3.org/2000/svg">
<path d="M7.16563 3C9.46624 3 11.3313 4.86501 11.3313 7.16563H8.83187C7.91163 7.16563 7.16563 7.91163 7.16563 8.83187V11.3313C4.86501 11.3313 3 9.46624 3 7.16563C3 4.86501 4.86501 3 7.16563 3Z" fill="black"/>
<path d="M9.665 7.99875C8.74476 7.99875 7.99875 8.74476 7.99875 9.665V14.6637C7.99875 15.584 8.74476 16.33 9.665 16.33H14.6637C15.584 16.33 16.33 15.584 16.33 14.6637V9.665C16.33 8.74476 15.584 7.99875 14.6637 7.99875H9.665Z" fill="black"/>
</svg>
