<svg width="20" height="20" viewBox="0 0 20 20" fill="none" xmlns="http://www.w3.org/2000/svg">
<path d="M11.7035 10.402C11.8114 10.3878 11.9111 10.4708 11.9262 10.5873L11.9527 10.7918C11.9578 10.8312 11.9909 10.8594 12.0266 10.8547L12.1393 10.8486C12.2472 10.8344 12.3469 10.9173 12.362 11.0339C12.3771 11.1504 12.3018 11.2564 12.1939 11.2706L11.7805 11.3163C11.7448 11.321 11.72 11.3568 11.7251 11.3963L11.7571 11.643C11.7622 11.6824 11.7952 11.7106 11.8309 11.7059L12.206 11.6565C12.2953 11.6447 12.378 11.7151 12.3907 11.8137L12.4831 12.5279C12.4959 12.6265 12.4339 12.7159 12.3447 12.7277L12.2702 12.7375C12.2345 12.7422 12.2097 12.778 12.2148 12.8174L12.2413 13.0219C12.2564 13.1385 12.1811 13.2445 12.0732 13.2587C11.9653 13.2729 11.8655 13.1899 11.8504 13.0734L11.824 12.8689C11.8189 12.8295 11.7858 12.8013 11.7501 12.806L11.5592 12.8312C11.4513 12.8454 11.3515 12.7625 11.3365 12.6459C11.3214 12.5294 11.3967 12.4234 11.5046 12.4092L11.9961 12.3444C12.0319 12.3397 12.0566 12.3039 12.0515 12.2645L12.0406 12.1801C12.0355 12.1407 12.0024 12.1125 11.9667 12.1172L11.5917 12.1666C11.5024 12.1783 11.4197 12.108 11.407 12.0093L11.2935 11.1329C11.2877 11.0877 11.2975 11.0445 11.3185 11.0098C11.3433 10.9686 11.3837 10.9394 11.432 10.933L11.5065 10.9232C11.5422 10.9185 11.567 10.8827 11.5618 10.8433L11.5354 10.6388C11.5203 10.5223 11.5955 10.4163 11.7035 10.402Z" fill="black"/>
<path d="M12.7324 12.958C12.6836 12.8556 12.7263 12.7326 12.8279 12.6834L13.3793 12.4159C13.4808 12.3667 13.6027 12.4098 13.6515 12.5122C13.7003 12.6147 13.6576 12.7376 13.5561 12.7868L13.0046 13.0543C12.9031 13.1035 12.7812 13.0604 12.7324 12.958Z" fill="black"/>
<path fill-rule="evenodd" clip-rule="evenodd" d="M9.41524 3.1221C9.66308 2.96823 9.97339 2.95919 10.2296 3.09838L15.2376 5.81898C15.5019 5.96254 15.6667 6.2409 15.6667 6.54371V12.7845C15.6667 13.0873 15.5019 13.3656 15.2376 13.5092L10.2201 16.2349C9.97865 16.3661 9.68801 16.3661 9.44654 16.2349L4.42906 13.5092C4.16479 13.3656 4 13.0873 4 12.7845V6.94417C4 6.65833 4.14698 6.39296 4.38827 6.24316L9.41524 3.1221ZM9.93794 4.1552C9.88414 4.12597 9.81897 4.12786 9.76692 4.16018L5.14218 7.03154C5.09151 7.063 5.06064 7.11872 5.06064 7.17875V12.5337C5.06064 12.5973 5.09525 12.6558 5.15074 12.6859L9.45838 15.0261C9.57253 15.0881 9.71094 15.0047 9.71094 14.8739V9.82955C9.71094 9.53679 9.86506 9.26607 10.1157 9.11856L14.1519 6.7432C14.2674 6.67517 14.2646 6.5057 14.1468 6.4417L9.93794 4.1552ZM14.606 12.5337C14.606 12.5973 14.5714 12.6558 14.5159 12.6859L11.0241 14.5829C10.91 14.6449 10.7716 14.5615 10.7716 14.4307V10.0707C10.7716 10.0092 10.8039 9.95235 10.8566 9.92137L14.3484 7.86635C14.4626 7.79913 14.606 7.88225 14.606 8.01566V12.5337Z" fill="black"/>
</svg>
