<svg width="20" height="20" viewBox="0 0 20 20" fill="none" xmlns="http://www.w3.org/2000/svg">
<path d="M15.25 9.66667C15.25 10.8168 14.9022 11.8858 14.3061 12.774L15.0844 13.5524C15.8705 12.4584 16.3333 11.1166 16.3333 9.66667C16.3333 5.98477 13.3486 3 9.66667 3C5.98477 3 3 5.98477 3 9.66667C3 11.1166 3.46286 12.4584 4.24888 13.5524L5.02723 12.774C4.43111 11.8858 4.08333 10.8168 4.08333 9.66667C4.08333 6.58308 6.58308 4.08333 9.66667 4.08333C12.7503 4.08333 15.25 6.58308 15.25 9.66667Z" fill="black"/>
<path d="M14.5625 9.66667C14.5625 10.6264 14.2864 11.5216 13.8092 12.2772L13.0179 11.4859C13.3121 10.9452 13.4792 10.3255 13.4792 9.66667C13.4792 7.56108 11.7723 5.85417 9.66667 5.85417C7.56108 5.85417 5.85417 7.56108 5.85417 9.66667C5.85417 10.3255 6.02126 10.9452 6.31538 11.4859L5.52411 12.2772C5.04696 11.5216 4.77083 10.6264 4.77083 9.66667C4.77083 6.96277 6.96277 4.77083 9.66667 4.77083C12.3706 4.77083 14.5625 6.96277 14.5625 9.66667Z" fill="black"/>
<path d="M11.5 9.66667C11.5 9.76188 11.4927 9.8554 11.4787 9.9467L12.3481 10.8161C12.4995 10.4634 12.5833 10.0748 12.5833 9.66667C12.5833 8.05584 11.2775 6.75 9.66667 6.75C8.05584 6.75 6.75 8.05584 6.75 9.66667C6.75 10.0748 6.83383 10.4634 6.98521 10.8161L7.85458 9.94668C7.84059 9.85539 7.83333 9.76188 7.83333 9.66667C7.83333 8.65414 8.65414 7.83333 9.66667 7.83333C10.6792 7.83333 11.5 8.65414 11.5 9.66667Z" fill="black"/>
<path fill-rule="evenodd" clip-rule="evenodd" d="M9.07741 9.83925C9.40285 9.51382 9.93049 9.51382 10.2559 9.83926L14.9107 14.4941C15.4357 15.0191 15.0639 15.9167 14.3215 15.9167H5.01184C4.26942 15.9167 3.89762 15.019 4.42259 14.4941L9.07741 9.83925ZM5.6154 14.8333L9.66667 10.7821L13.7179 14.8333H5.6154Z" fill="black"/>
</svg>
