<svg width="20" height="20" viewBox="0 0 20 20" fill="none" xmlns="http://www.w3.org/2000/svg">
<path d="M8.84999 3C8.55088 3 8.30839 3.24248 8.30839 3.5416C8.30839 3.84072 8.55088 4.0832 8.84999 4.0832H10.4833C10.7825 4.0832 11.0249 3.84072 11.0249 3.5416C11.0249 3.24248 10.7825 3 10.4833 3H8.84999Z" fill="black"/>
<path d="M8.84999 15.2501C8.55088 15.2501 8.30839 15.4926 8.30839 15.7917C8.30839 16.0908 8.55088 16.3333 8.84999 16.3333H10.4833C10.7825 16.3333 11.0249 16.0908 11.0249 15.7917C11.0249 15.4926 10.7825 15.2501 10.4833 15.2501H8.84999Z" fill="black"/>
<path d="M15.7917 8.30838C16.0908 8.30838 16.3333 8.55087 16.3333 8.84999V10.4833C16.3333 10.7825 16.0908 11.0249 15.7917 11.0249C15.4926 11.0249 15.2501 10.7825 15.2501 10.4833V8.84999C15.2501 8.55087 15.4926 8.30838 15.7917 8.30838Z" fill="black"/>
<path d="M4.08321 8.84999C4.08321 8.55087 3.84073 8.30838 3.54161 8.30838C3.24249 8.30838 3.00001 8.55087 3.00001 8.84999V10.4833C3.00001 10.7825 3.24249 11.0249 3.54161 11.0249C3.84073 11.0249 4.08321 10.7825 4.08321 10.4833V8.84999Z" fill="black"/>
<path d="M15.7917 13.2084C16.0908 13.2084 16.3333 13.4509 16.3333 13.75C16.3333 14.7432 15.9073 15.4163 15.3425 15.8229C14.8053 16.2097 14.177 16.3333 13.75 16.3333C13.4509 16.3333 13.2084 16.0908 13.2084 15.7917C13.2084 15.4926 13.4509 15.2501 13.75 15.2501C14.0036 15.2501 14.3961 15.1696 14.7096 14.9439C14.9955 14.738 15.2501 14.3902 15.2501 13.75C15.2501 13.4509 15.4926 13.2084 15.7917 13.2084Z" fill="black"/>
<path d="M4.08321 13.75C4.08321 13.4509 3.84073 13.2084 3.54161 13.2084C3.24249 13.2084 3.00001 13.4509 3.00001 13.75C3.00001 14.7432 3.42597 15.4163 3.99078 15.8229C4.52798 16.2097 5.15635 16.3333 5.5833 16.3333C5.88241 16.3333 6.1249 16.0908 6.1249 15.7917C6.1249 15.4926 5.88241 15.2501 5.5833 15.2501C5.32968 15.2501 4.93721 15.1696 4.6237 14.9439C4.33781 14.738 4.08321 14.3902 4.08321 13.75Z" fill="black"/>
<path d="M3.5416 6.12491C3.24248 6.1249 3 5.88242 3 5.5833C3 4.59011 3.42596 3.91709 3.99077 3.51043C4.52797 3.12365 5.15634 3.00002 5.58329 3.00002C5.88241 3.00002 6.12489 3.2425 6.12489 3.54162C6.12489 3.84074 5.88241 4.08322 5.58329 4.08322C5.32968 4.08322 4.9372 4.16376 4.62369 4.38948C4.3378 4.59532 4.0832 4.94315 4.0832 5.5833C4.0832 5.88242 3.84072 6.12491 3.5416 6.12491Z" fill="black"/>
<path d="M15.2501 5.5833C15.2501 5.88242 15.4926 6.12491 15.7917 6.12491C16.0908 6.12491 16.3333 5.88242 16.3333 5.5833C16.3333 4.59011 15.9074 3.91709 15.3426 3.51043C14.8054 3.12365 14.177 3.00002 13.75 3.00002C13.4509 3.00002 13.2084 3.2425 13.2084 3.54162C13.2084 3.84074 13.4509 4.08322 13.75 4.08322C14.0037 4.08322 14.3961 4.16376 14.7096 4.38948C14.9955 4.59532 15.2501 4.94315 15.2501 5.5833Z" fill="black"/>
</svg>
