<svg width="20" height="20" viewBox="0 0 20 20" fill="none" xmlns="http://www.w3.org/2000/svg">
<path fill-rule="evenodd" clip-rule="evenodd" d="M8.80743 3.52671C9.16145 2.82443 10.1719 2.82443 10.5259 3.52671L11.8762 6.20535C11.9984 6.44782 12.219 6.62717 12.4827 6.69849L15.6249 7.54849C16.3642 7.74847 16.5814 8.68434 16.0048 9.18483L13.9123 11.0008C13.6618 11.2182 13.5426 11.5488 13.5973 11.8745L14.1598 15.2219C14.2889 15.99 13.4848 16.579 12.7826 16.2308L10.0963 14.8985C9.82583 14.7644 9.5075 14.7644 9.23705 14.8985L6.55073 16.2308C5.84849 16.579 5.04445 15.99 5.17352 15.2219L5.736 11.8745C5.79073 11.5488 5.67155 11.2182 5.42101 11.0008L3.32858 9.18482C2.7519 8.68434 2.96914 7.74846 3.70841 7.54849L6.85064 6.69849C7.11432 6.62717 7.33488 6.44782 7.45711 6.20536L8.80743 3.52671Z" fill="black"/>
</svg>
