<svg width="20" height="20" viewBox="0 0 20 20" fill="none" xmlns="http://www.w3.org/2000/svg">
<path fill-rule="evenodd" clip-rule="evenodd" d="M4.66667 3C3.74619 3 3 3.74619 3 4.66667V14.6667C3 15.5871 3.74619 16.3333 4.66667 16.3333H14.6667C15.5871 16.3333 16.3333 15.5871 16.3333 14.6667V4.66667C16.3333 3.74619 15.5871 3 14.6667 3H4.66667ZM5.91667 6.20833C5.61751 6.20833 5.375 6.45085 5.375 6.75C5.375 7.04915 5.61751 7.29167 5.91667 7.29167H13.4167C13.7158 7.29167 13.9583 7.04915 13.9583 6.75C13.9583 6.45085 13.7158 6.20833 13.4167 6.20833H5.91667ZM5.91667 9.125C5.61751 9.125 5.375 9.36751 5.375 9.66667C5.375 9.96582 5.61751 10.2083 5.91667 10.2083H10.0833C10.3825 10.2083 10.625 9.96582 10.625 9.66667C10.625 9.36751 10.3825 9.125 10.0833 9.125H5.91667ZM5.91667 12.0417C5.61751 12.0417 5.375 12.2842 5.375 12.5833C5.375 12.8825 5.61751 13.125 5.91667 13.125H12.5833C12.8825 13.125 13.125 12.8825 13.125 12.5833C13.125 12.2842 12.8825 12.0417 12.5833 12.0417H5.91667Z" fill="black"/>
</svg>
