<svg width="20" height="20" viewBox="0 0 20 20" fill="none" xmlns="http://www.w3.org/2000/svg">
<path d="M5.58333 8.20833C5.58333 7.90918 5.82585 7.66667 6.125 7.66667H13.2083C13.5075 7.66667 13.75 7.90918 13.75 8.20833C13.75 8.50749 13.5075 8.75 13.2083 8.75H6.125C5.82585 8.75 5.58333 8.50749 5.58333 8.20833Z" fill="black"/>
<path d="M7.16667 10.5833C6.86751 10.5833 6.625 10.8258 6.625 11.125C6.625 11.4242 6.86751 11.6667 7.16667 11.6667H12.1667C12.4658 11.6667 12.7083 11.4242 12.7083 11.125C12.7083 10.8258 12.4658 10.5833 12.1667 10.5833H7.16667Z" fill="black"/>
<path fill-rule="evenodd" clip-rule="evenodd" d="M4.66667 3C3.74619 3 3 3.74619 3 4.66667V14.6667C3 15.5871 3.74619 16.3333 4.66667 16.3333H14.6667C15.5871 16.3333 16.3333 15.5871 16.3333 14.6667V4.66667C16.3333 3.74619 15.5871 3 14.6667 3H4.66667ZM14.6667 4.08333H4.66667C4.3445 4.08333 4.08333 4.3445 4.08333 4.66667V14.6667C4.08333 14.9888 4.3445 15.25 4.66667 15.25H14.6667C14.9888 15.25 15.25 14.9888 15.25 14.6667V4.66667C15.25 4.3445 14.9888 4.08333 14.6667 4.08333Z" fill="black"/>
</svg>
