<svg width="20" height="20" viewBox="0 0 20 20" fill="none" xmlns="http://www.w3.org/2000/svg">
<path d="M4 6.833C4 6.37295 4.3731 6 4.83333 6H15.6667C16.1269 6 16.5 6.37295 16.5 6.833C16.5 7.29305 16.1269 7.666 15.6667 7.666H4.83333C4.3731 7.666 4 7.29305 4 6.833Z" fill="black"/>
<path d="M4 10.165C4 9.70495 4.3731 9.332 4.83333 9.332H15.6667C16.1269 9.332 16.5 9.70495 16.5 10.165C16.5 10.6251 16.1269 10.998 15.6667 10.998H4.83333C4.3731 10.998 4 10.6251 4 10.165Z" fill="black"/>
<path d="M4.83333 12.664C4.3731 12.664 4 13.0369 4 13.497C4 13.9571 4.3731 14.33 4.83333 14.33H15.6667C16.1269 14.33 16.5 13.9571 16.5 13.497C16.5 13.0369 16.1269 12.664 15.6667 12.664H4.83333Z" fill="black"/>
</svg>
