<svg width="20" height="20" viewBox="0 0 20 20" fill="none" xmlns="http://www.w3.org/2000/svg">
<path d="M5.58333 9.66667C5.58333 9.36751 5.82585 9.125 6.125 9.125H13.2083C13.5075 9.125 13.75 9.36751 13.75 9.66667C13.75 9.96582 13.5075 10.2083 13.2083 10.2083H6.125C5.82585 10.2083 5.58333 9.96582 5.58333 9.66667Z" fill="black"/>
<path d="M7.16667 12.0417C6.86751 12.0417 6.625 12.2842 6.625 12.5833C6.625 12.8825 6.86751 13.125 7.16667 13.125H12.1667C12.4658 13.125 12.7083 12.8825 12.7083 12.5833C12.7083 12.2842 12.4658 12.0417 12.1667 12.0417H7.16667Z" fill="black"/>
<path fill-rule="evenodd" clip-rule="evenodd" d="M4.66667 3C3.74619 3 3 3.74619 3 4.66667V14.6667C3 15.5871 3.74619 16.3333 4.66667 16.3333H14.6667C15.5871 16.3333 16.3333 15.5871 16.3333 14.6667V4.66667C16.3333 3.74619 15.5871 3 14.6667 3H4.66667ZM14.6667 4.08333H4.66667C4.3445 4.08333 4.08333 4.3445 4.08333 4.66667V14.6667C4.08333 14.9888 4.3445 15.25 4.66667 15.25H14.6667C14.9888 15.25 15.25 14.9888 15.25 14.6667V4.66667C15.25 4.3445 14.9888 4.08333 14.6667 4.08333Z" fill="black"/>
</svg>
