<svg width="20" height="20" viewBox="0 0 20 20" fill="none" xmlns="http://www.w3.org/2000/svg">
<path fill-rule="evenodd" clip-rule="evenodd" d="M3 4.66625C3 3.74601 3.74601 3 4.66625 3H14.6637C15.584 3 16.33 3.74601 16.33 4.66625V14.6637C16.33 15.584 15.584 16.33 14.6637 16.33H4.66625C3.74601 16.33 3 15.584 3 14.6637V4.66625ZM5.37441 9.665C5.37441 9.36592 5.61686 9.12347 5.91594 9.12347H13.4141C13.7131 9.12347 13.9556 9.36592 13.9556 9.665C13.9556 9.96408 13.7131 10.2065 13.4141 10.2065H5.91594C5.61686 10.2065 5.37441 9.96408 5.37441 9.665ZM5.91594 12.0394C5.61686 12.0394 5.37441 12.2819 5.37441 12.5809C5.37441 12.88 5.61686 13.1225 5.91594 13.1225H13.4141C13.7131 13.1225 13.9556 12.88 13.9556 12.5809C13.9556 12.2819 13.7131 12.0394 13.4141 12.0394H5.91594Z" fill="black"/>
</svg>
