<svg width="20" height="20" viewBox="0 0 20 20" fill="none" xmlns="http://www.w3.org/2000/svg">
<path d="M7.57982 4.54182C7.57982 4.24258 7.8224 4 8.12164 4H11.4189C11.7182 4 11.9608 4.24258 11.9608 4.54182C11.9608 4.84106 11.7182 5.08364 11.4189 5.08364H8.12164C7.8224 5.08364 7.57982 4.84106 7.57982 4.54182Z" fill="black"/>
<path d="M14.6874 5.80998C14.476 5.59825 14.1329 5.59802 13.9212 5.80947C13.7094 6.02093 13.7092 6.36399 13.9207 6.57572L14.7454 7.40155C14.9569 7.61328 15.2999 7.61351 15.5117 7.40205C15.7234 7.1906 15.7236 6.84754 15.5122 6.63581L14.6874 5.80998Z" fill="black"/>
<path fill-rule="evenodd" clip-rule="evenodd" d="M9.77662 17.3333C12.967 17.3333 15.5532 14.7471 15.5532 11.5567C15.5532 8.36637 12.967 5.78009 9.77662 5.78009C6.58628 5.78009 4 8.36637 4 11.5567C4 14.7471 6.58628 17.3333 9.77662 17.3333ZM10.3121 7.84388C10.3121 7.54464 10.0695 7.30206 9.77026 7.30206C9.47102 7.30206 9.22844 7.54464 9.22844 7.84388V11.9715C9.22844 12.2707 9.47102 12.5133 9.77026 12.5133C10.0695 12.5133 10.3121 12.2707 10.3121 11.9715V7.84388Z" fill="black"/>
</svg>
