<svg width="20" height="20" viewBox="0 0 20 20" fill="none" xmlns="http://www.w3.org/2000/svg">
<path fill-rule="evenodd" clip-rule="evenodd" d="M9.665 10.1656C9.665 8.78526 10.784 7.66625 12.1644 7.66625C13.5447 7.66625 14.6637 8.78526 14.6637 10.1656C14.6637 11.546 13.5447 12.665 12.1644 12.665C10.784 12.665 9.665 11.546 9.665 10.1656ZM10.7481 10.1656C10.7481 9.38342 11.3822 8.74931 12.1644 8.74931C12.9466 8.74931 13.5807 9.38342 13.5807 10.1656C13.5807 10.9478 12.9466 11.5819 12.1644 11.5819C11.3822 11.5819 10.7481 10.9478 10.7481 10.1656Z" fill="black"/>
<path fill-rule="evenodd" clip-rule="evenodd" d="M16.33 10.1656C16.33 12.4662 14.465 14.3313 12.1644 14.3313L7.16563 14.3312C4.86501 14.3312 3 12.4662 3 10.1656C3 7.86501 4.86501 6 7.16563 6H12.1644C14.465 6 16.33 7.86501 16.33 10.1656ZM15.2469 10.1656C15.2469 11.8681 13.8668 13.2482 12.1644 13.2482L7.16563 13.2482C5.46317 13.2482 4.08306 11.8681 4.08306 10.1656C4.08306 8.46317 5.46317 7.08306 7.16563 7.08306L12.1644 7.08306C13.8668 7.08306 15.2469 8.46317 15.2469 10.1656Z" fill="black"/>
</svg>
