<svg width="20" height="20" viewBox="0 0 20 20" fill="none" xmlns="http://www.w3.org/2000/svg">
<path fill-rule="evenodd" clip-rule="evenodd" d="M11.9999 3C12.2991 3 12.5416 3.24251 12.5416 3.54166V6.43012H12.8332C13.2935 6.43012 13.6665 6.80321 13.6665 7.26344V15.5C13.6665 15.9602 13.2935 16.3333 12.8332 16.3333H7.83332C7.37309 16.3333 7 15.9602 7 15.5V7.26344C7 6.8457 7.30739 6.49974 7.70832 6.43944V5.60485C7.70832 5.3057 7.95083 5.06319 8.24998 5.06319C8.54913 5.06319 8.79164 5.3057 8.79164 5.60485V6.43012H9.37496V5.60485C9.37496 5.3057 9.61747 5.06319 9.91662 5.06319C10.2158 5.06319 10.4583 5.3057 10.4583 5.60485V6.43012H11.4583V3.54166C11.4583 3.24251 11.7008 3 11.9999 3ZM9.91662 13.3158C9.61747 13.3158 9.37496 13.5584 9.37496 13.8575C9.37496 14.1567 9.61747 14.3992 9.91662 14.3992H10.7499C11.0491 14.3992 11.2916 14.1567 11.2916 13.8575C11.2916 13.5584 11.0491 13.3158 10.7499 13.3158H9.91662ZM9.0833 11.6653C8.78415 11.6653 8.54164 11.9078 8.54164 12.207C8.54164 12.5061 8.78415 12.7486 9.0833 12.7486H11.5833C11.8824 12.7486 12.1249 12.5061 12.1249 12.207C12.1249 11.9078 11.8824 11.6653 11.5833 11.6653H9.0833ZM9.49996 8.08062C9.03973 8.08062 8.66664 8.45371 8.66664 8.91394V9.72311C8.66664 10.1833 9.03973 10.5564 9.49996 10.5564H11.1666C11.6268 10.5564 11.9999 10.1833 11.9999 9.72311V8.91394C11.9999 8.45371 11.6268 8.08062 11.1666 8.08062H9.49996ZM9.49996 8.91394H11.1666V9.72311L9.49996 9.72311V8.91394Z" fill="black"/>
</svg>
