<svg width="20" height="20" viewBox="0 0 20 20" fill="none" xmlns="http://www.w3.org/2000/svg">
<path fill-rule="evenodd" clip-rule="evenodd" d="M10.9696 5.36218C10.6883 4.87927 9.97842 4.87927 9.69711 5.36218L5.09763 13.2579C4.81848 13.7371 5.17122 14.3333 5.73385 14.3333H14.9328C15.4955 14.3333 15.8482 13.7371 15.569 13.2579L10.9696 5.36218ZM10.7667 8C10.7667 7.76068 10.5727 7.56667 10.3333 7.56667C10.094 7.56667 9.9 7.76068 9.9 8V10.6667C9.9 10.906 10.094 11.1 10.3333 11.1C10.5727 11.1 10.7667 10.906 10.7667 10.6667V8ZM10.3333 12.6667C10.6095 12.6667 10.8333 12.4428 10.8333 12.1667C10.8333 11.8905 10.6095 11.6667 10.3333 11.6667C10.0572 11.6667 9.83333 11.8905 9.83333 12.1667C9.83333 12.4428 10.0572 12.6667 10.3333 12.6667Z" fill="black"/>
</svg>
