<svg width="20" height="20" viewBox="0 0 20 20" fill="none" xmlns="http://www.w3.org/2000/svg">
<path d="M5.1371 4.30058C5.26963 4.14143 5.46034 4.03244 5.67658 4.00628C5.89289 3.97954 6.10457 4.03948 6.27173 4.16237C6.38171 4.24322 6.47241 4.35132 6.53248 4.47992C6.55597 4.52999 6.57463 4.58277 6.58785 4.63767C6.62334 4.76829 6.73112 5.00677 6.92483 5.20292C7.10535 5.38572 7.35319 5.52814 7.72223 5.52814C8.09128 5.52814 8.33912 5.38572 8.51964 5.20292C8.71293 5.00719 8.82066 4.76932 8.85639 4.63851C8.86449 4.60494 8.87466 4.572 8.88679 4.53988C8.92942 4.42619 8.99513 4.32638 9.07706 4.2445C9.2313 4.09038 9.44305 3.99984 9.66669 4C9.76844 3.99993 9.86774 4.01863 9.96027 4.05355C10.0743 4.09633 10.1744 4.16232 10.2565 4.24463C10.3383 4.32648 10.404 4.42625 10.4466 4.53988C10.4587 4.57201 10.4689 4.60495 10.477 4.63852C10.5127 4.76933 10.6205 5.0072 10.8137 5.20292C10.9943 5.38572 11.2421 5.52814 11.6112 5.52814C11.9802 5.52814 12.228 5.38572 12.4086 5.20292C12.6018 5.0072 12.7096 4.76933 12.7453 4.63852C12.7534 4.60495 12.7636 4.57201 12.7757 4.53988C12.8583 4.321 13.0317 4.13994 13.262 4.05355C13.3546 4.01863 13.4539 3.99993 13.5556 4C13.6574 3.99993 13.7567 4.01863 13.8492 4.05355C14.0795 4.13994 14.2529 4.321 14.3355 4.53988C14.3476 4.57201 14.3578 4.60495 14.3659 4.63852C14.4016 4.76933 14.5094 5.0072 14.7027 5.20292C14.8832 5.38572 15.131 5.52814 15.5001 5.52814C15.9603 5.52814 16.3333 5.9012 16.3333 6.3614C16.3333 6.8216 15.9603 7.19466 15.5001 7.19466C14.6291 7.19466 13.9962 6.84802 13.5556 6.41288C13.115 6.84802 12.4821 7.19466 11.6112 7.19466C10.7402 7.19466 10.1073 6.84802 9.66669 6.41288C9.22609 6.84802 8.59322 7.19466 7.72223 7.19466C6.90707 7.19466 6.30048 6.89103 5.86487 6.49539C5.73671 6.60661 5.59932 6.70158 5.45886 6.78105C4.89458 7.1003 4.2562 7.19466 3.83326 7.19466C3.37306 7.19466 3 6.8216 3 6.3614C3 5.9012 3.37306 5.52814 3.83326 5.52814C4.05848 5.52814 4.39233 5.4697 4.63823 5.33058C4.75273 5.2658 4.82504 5.19676 4.86848 5.13058C4.9065 5.07267 4.94262 4.98738 4.94439 4.84448C4.94361 4.78862 4.94849 4.73346 4.95862 4.67969C4.98519 4.53727 5.04799 4.40759 5.1371 4.30058Z" fill="black"/>
<path d="M5.1371 8.12037C5.26963 7.96122 5.46034 7.85223 5.67658 7.82607C5.89289 7.79933 6.10457 7.85927 6.27173 7.98216C6.38171 8.06301 6.47241 8.17111 6.53248 8.29972C6.55597 8.34978 6.57463 8.40256 6.58785 8.45746C6.62334 8.58809 6.73112 8.82656 6.92483 9.02272C7.10535 9.20551 7.35319 9.34793 7.72223 9.34793C8.09128 9.34793 8.33912 9.20551 8.51964 9.02272C8.71293 8.82698 8.82066 8.58911 8.85639 8.4583C8.86449 8.42473 8.87466 8.3918 8.88679 8.35967C8.92942 8.24598 8.99513 8.14616 9.07706 8.06429C9.2313 7.91017 9.44306 7.81963 9.66669 7.81979C9.76844 7.81972 9.86774 7.83842 9.96027 7.87334C10.0743 7.91612 10.1744 7.98211 10.2564 8.06442C10.3383 8.14627 10.404 8.24604 10.4466 8.35967C10.4587 8.3918 10.4689 8.42474 10.477 8.45831C10.5127 8.58912 10.6205 8.82699 10.8137 9.02272C10.9943 9.20551 11.2421 9.34793 11.6112 9.34793C11.9802 9.34793 12.228 9.20551 12.4086 9.02272C12.6018 8.82699 12.7096 8.58912 12.7453 8.45831C12.7534 8.42474 12.7636 8.3918 12.7757 8.35967C12.8583 8.1408 13.0317 7.95973 13.262 7.87334C13.3546 7.83842 13.4539 7.81972 13.5556 7.81979C13.6574 7.81972 13.7567 7.83842 13.8492 7.87334C14.0795 7.95973 14.2529 8.1408 14.3355 8.35967C14.3476 8.3918 14.3578 8.42474 14.3659 8.45831C14.4016 8.58912 14.5094 8.82699 14.7027 9.02272C14.8832 9.20551 15.131 9.34793 15.5001 9.34793C15.9603 9.34793 16.3333 9.721 16.3333 10.1812C16.3333 10.6414 15.9603 11.0145 15.5001 11.0145C14.6291 11.0145 13.9962 10.6678 13.5556 10.2327C13.115 10.6678 12.4821 11.0145 11.6112 11.0145C10.7402 11.0145 10.1073 10.6678 9.66669 10.2327C9.22609 10.6678 8.59322 11.0145 7.72223 11.0145C6.90707 11.0145 6.30048 10.7108 5.86487 10.3152C5.73671 10.4264 5.59932 10.5214 5.45886 10.6008C4.89458 10.9201 4.2562 11.0145 3.83326 11.0145C3.37306 11.0145 3 10.6414 3 10.1812C3 9.721 3.37306 9.34793 3.83326 9.34793C4.05848 9.34793 4.39233 9.2895 4.63823 9.15037C4.75273 9.08559 4.82504 9.01655 4.86848 8.95038C4.9065 8.89247 4.94262 8.80717 4.94439 8.66427C4.94361 8.60842 4.94849 8.55325 4.95862 8.49949C4.98519 8.35706 5.04799 8.22738 5.1371 8.12037Z" fill="black"/>
<path d="M5.67658 11.646C5.46034 11.6722 5.26963 11.7812 5.1371 11.9403C5.04799 12.0473 4.98519 12.177 4.95862 12.3194C4.94849 12.3732 4.94361 12.4284 4.94439 12.4842C4.94262 12.6271 4.9065 12.7124 4.86848 12.7703C4.82504 12.8365 4.75273 12.9055 4.63823 12.9703C4.39233 13.1094 4.05848 13.1679 3.83326 13.1679C3.37306 13.1679 3 13.5409 3 14.0011C3 14.4613 3.37306 14.8344 3.83326 14.8344C4.2562 14.8344 4.89458 14.74 5.45886 14.4208C5.59932 14.3413 5.73671 14.2463 5.86487 14.1351C6.30048 14.5308 6.90707 14.8344 7.72223 14.8344C8.59322 14.8344 9.22609 14.4878 9.66669 14.0526C10.1073 14.4878 10.7402 14.8344 11.6112 14.8344C12.4821 14.8344 13.115 14.4878 13.5556 14.0526C13.9962 14.4878 14.6291 14.8344 15.5001 14.8344C15.9603 14.8344 16.3333 14.4613 16.3333 14.0011C16.3333 13.5409 15.9603 13.1679 15.5001 13.1679C15.131 13.1679 14.8832 13.0255 14.7027 12.8427C14.5094 12.6469 14.4016 12.4091 14.3659 12.2783C14.3578 12.2447 14.3476 12.2117 14.3355 12.1796C14.2529 11.9607 14.0795 11.7797 13.8492 11.6933C13.7567 11.6584 13.6574 11.6397 13.5556 11.6397C13.4539 11.6397 13.3546 11.6584 13.262 11.6933C13.0317 11.7797 12.8583 11.9607 12.7757 12.1796C12.7636 12.2117 12.7534 12.2447 12.7453 12.2783C12.7096 12.4091 12.6018 12.6469 12.4086 12.8427C12.228 13.0255 11.9802 13.1679 11.6112 13.1679C11.2421 13.1679 10.9943 13.0255 10.8137 12.8427C10.6205 12.6469 10.5127 12.4091 10.477 12.2783C10.4689 12.2447 10.4587 12.2117 10.4466 12.1796C10.404 12.066 10.3383 11.9662 10.2565 11.8844C10.1744 11.8021 10.0743 11.7361 9.96027 11.6933C9.86774 11.6584 9.76844 11.6397 9.66669 11.6397C9.44305 11.6396 9.2313 11.7301 9.07706 11.8842C8.99513 11.9661 8.92942 12.0659 8.88679 12.1796C8.87466 12.2117 8.86449 12.2447 8.85639 12.2782C8.82066 12.4091 8.71293 12.6469 8.51964 12.8427C8.33912 13.0255 8.09128 13.1679 7.72223 13.1679C7.35319 13.1679 7.10535 13.0255 6.92483 12.8427C6.73112 12.6465 6.62334 12.408 6.58785 12.2774C6.57463 12.2225 6.55597 12.1697 6.53248 12.1197C6.47241 11.9911 6.38171 11.883 6.27173 11.8021C6.10457 11.6792 5.89289 11.6193 5.67658 11.646Z" fill="black"/>
</svg>
