<svg width="20" height="20" viewBox="0 0 20 20" fill="none" xmlns="http://www.w3.org/2000/svg">
<path d="M3.96439 9.31571C4.60621 8.3728 6.64858 6.11588 9.66664 6.11588C11.1744 6.11588 12.4714 6.67619 13.4633 7.36453C14.4654 8.0599 15.1166 8.8581 15.3399 9.26823C15.4856 9.53577 15.8104 9.62873 16.0653 9.47584C16.3203 9.32296 16.4089 8.98214 16.2632 8.7146C15.9412 8.12331 15.1609 7.20476 14.0499 6.43376C12.9287 5.65571 11.4308 5 9.66664 5C6.14081 5 3.82057 7.60717 3.09908 8.66712C2.9284 8.91787 2.98374 9.26633 3.22269 9.44543C3.46164 9.62453 3.79371 9.56646 3.96439 9.31571Z" fill="black"/>
<path d="M9.66664 8.69099C7.64536 8.69099 6.40608 10.2151 6.05226 10.9577C5.92094 11.2333 5.60157 11.345 5.33892 11.2072C5.07628 11.0694 4.96982 10.7342 5.10114 10.4586C5.56531 9.48447 7.10719 7.57511 9.66664 7.57511C12.2261 7.57511 13.768 9.48447 14.2321 10.4586C14.3635 10.7342 14.257 11.0694 13.9944 11.2072C13.7317 11.345 13.4123 11.2333 13.281 10.9577C12.9272 10.2151 11.6879 8.69099 9.66664 8.69099Z" fill="black"/>
<path d="M7.68824 12.6744C7.79374 12.453 8.03458 12.0876 8.38817 11.7834C8.73734 11.4831 9.16746 11.2661 9.66664 11.2661C10.1658 11.2661 10.5959 11.4831 10.9451 11.7834C11.2987 12.0876 11.5395 12.453 11.645 12.6744C11.7764 12.95 12.0957 13.0617 12.3584 12.9239C12.621 12.7861 12.7275 12.451 12.5962 12.1754C12.429 11.8245 12.0973 11.3316 11.6192 10.9204C11.1368 10.5055 10.4762 10.1502 9.66664 10.1502C8.85705 10.1502 8.19651 10.5055 7.71406 10.9204C7.23603 11.3316 6.90428 11.8245 6.73712 12.1754C6.6058 12.451 6.71225 12.7861 6.9749 12.9239C7.23754 13.0617 7.55692 12.95 7.68824 12.6744Z" fill="black"/>
<path d="M9.66664 15C10.2313 15 10.6891 14.5196 10.6891 13.927C10.6891 13.3345 10.2313 12.8541 9.66664 12.8541C9.10194 12.8541 8.64416 13.3345 8.64416 13.927C8.64416 14.5196 9.10194 15 9.66664 15Z" fill="black"/>
</svg>
