<svg width="20" height="20" viewBox="0 0 20 20" fill="none" xmlns="http://www.w3.org/2000/svg">
<path fill-rule="evenodd" clip-rule="evenodd" d="M11.6775 12.4883L11.665 12.4977C10.9688 13.0208 10.1033 13.3308 9.16538 13.3308C6.86491 13.3308 5 11.4659 5 9.16538C5 6.86491 6.86491 5 9.16538 5C11.4659 5 13.3308 6.86491 13.3308 9.16538C13.3308 10.1089 13.0171 10.9791 12.4883 11.6775L15.3131 14.5023C15.377 14.5663 15.4516 14.6499 15.5238 14.7446L15.5323 14.7557C15.7619 15.0603 15.963 15.4739 15.7185 15.7185C15.4739 15.963 15.0603 15.7619 14.7557 15.5323L14.7446 15.5238C14.6499 15.4516 14.5663 15.377 14.5023 15.3131L11.6775 12.4883ZM7.62445 8.74885C7.5553 8.74885 7.49925 8.93534 7.49925 9.16539C7.49925 9.39543 7.5553 9.58192 7.62445 9.58192H10.7064C10.7755 9.58192 10.8316 9.39543 10.8316 9.16539C10.8316 8.93534 10.7755 8.74885 10.7064 8.74885H7.62445Z" fill="black"/>
</svg>
