<svg width="20" height="20" viewBox="0 0 20 20" fill="none" xmlns="http://www.w3.org/2000/svg">
<path d="M3 3.83312C3 3.64553 3.06201 3.47242 3.16667 3.33317C3.21405 3.27011 3.27018 3.214 3.33325 3.16663C3.47254 3.062 3.6457 3 3.83333 3H6.125C6.24006 3 6.33333 3.09325 6.33333 3.20828V4.04141C6.33333 4.15644 6.24006 4.24969 6.125 4.24969H5.01603L7.54968 6.7827C7.76122 6.99419 7.76122 7.33706 7.54968 7.54855C7.33815 7.76003 6.99518 7.76003 6.78365 7.54855L4.25 5.01553V6.12422C4.25 6.23925 4.15673 6.3325 4.04167 6.3325H3.20833C3.09327 6.3325 3 6.23925 3 6.12422V3.83312Z" fill="black"/>
<path d="M16.3333 15.4969C16.3333 15.6845 16.2713 15.8576 16.1667 15.9968C16.1193 16.0599 16.0632 16.116 16.0001 16.1634C15.8608 16.268 15.6876 16.33 15.5 16.33H13.2083C13.0933 16.33 13 16.2367 13 16.1217V15.2886C13 15.1736 13.0933 15.0803 13.2083 15.0803H14.3173L11.7837 12.5473C11.5721 12.3358 11.5721 11.9929 11.7837 11.7815C11.9952 11.57 12.3381 11.57 12.5497 11.7815L15.0833 14.3145V13.2058C15.0833 13.0908 15.1766 12.9975 15.2917 12.9975H16.125C16.2401 12.9975 16.3333 13.0908 16.3333 13.2058V15.4969Z" fill="black"/>
<path d="M3.33325 16.1634C3.47254 16.268 3.6457 16.33 3.83333 16.33H6.125C6.24006 16.33 6.33333 16.2367 6.33333 16.1217V15.2886C6.33333 15.1736 6.24006 15.0803 6.125 15.0803H5.01603L7.54968 12.5473C7.76122 12.3358 7.76122 11.9929 7.54968 11.7815C7.33815 11.57 6.99518 11.57 6.78365 11.7815L4.25 14.3145L4.25 13.2058C4.25 13.0908 4.15673 12.9975 4.04167 12.9975H3.20833C3.09327 12.9975 3 13.0908 3 13.2058V15.4969C3 15.6845 3.06201 15.8576 3.16667 15.9968C3.21405 16.0599 3.27018 16.116 3.33325 16.1634Z" fill="black"/>
<path d="M15.5 3C15.6876 3 15.8608 3.062 16.0001 3.16663C16.0632 3.214 16.1193 3.27011 16.1667 3.33317C16.2713 3.47242 16.3333 3.64553 16.3333 3.83312V6.12422C16.3333 6.23925 16.2401 6.3325 16.125 6.3325H15.2917C15.1766 6.3325 15.0833 6.23925 15.0833 6.12422V5.01553L12.5497 7.54855C12.3381 7.76003 11.9952 7.76003 11.7837 7.54855C11.5721 7.33706 11.5721 6.99419 11.7837 6.7827L14.3173 4.24969H13.2083C13.0933 4.24969 13 4.15644 13 4.04141V3.20828C13 3.09325 13.0933 3 13.2083 3H15.5Z" fill="black"/>
</svg>
