<svg width="24" height="24" viewBox="0 0 24 24" fill="none" xmlns="http://www.w3.org/2000/svg">
<path fill-rule="evenodd" clip-rule="evenodd" d="M15.4999 10.1248C15.8949 10.1248 16.2532 10.3574 16.4137 10.7185L19.9137 18.5942C20.1378 19.0987 19.9105 19.6891 19.406 19.9134C18.9016 20.1377 18.3104 19.9112 18.0861 19.4066L17.5267 18.1479H13.4731L12.9136 19.4066C12.6893 19.9111 12.0981 20.1377 11.5937 19.9134C11.0894 19.6891 10.862 19.0987 11.086 18.5942L14.586 10.7185L14.6554 10.5896C14.8367 10.303 15.1541 10.1248 15.4999 10.1248ZM14.3615 16.148H16.6382L15.4999 13.5865L14.3615 16.148Z" fill="black"/>
<path d="M10.2503 4C10.8021 4.00032 11.25 4.4479 11.25 4.99996V5.67572H15.5008C16.0527 5.67623 16.4997 6.12461 16.4996 6.67665C16.4993 7.22868 16.0518 7.67566 15.4999 7.67564H14.3761C13.8808 8.85615 13.099 10.3946 12.0877 11.8649C12.1279 11.8756 12.167 11.8887 12.2068 11.8972C12.7468 12.0119 13.0917 12.5425 12.9771 13.0827C12.8623 13.6226 12.3318 13.9676 11.7919 13.8531C11.4532 13.7812 11.124 13.6674 10.8068 13.526C9.70014 14.7912 8.36503 15.9063 6.8303 16.4438C6.3092 16.6263 5.7387 16.3518 5.55622 15.8306C5.3739 15.3094 5.64827 14.7387 6.16934 14.5562C7.19761 14.1961 8.18793 13.4293 9.09532 12.4401C8.95374 12.3243 8.81654 12.2084 8.68722 12.0915C7.84766 11.3322 7.17268 10.4942 6.79515 9.93336C6.487 9.47547 6.60813 8.85428 7.06559 8.54572C7.52348 8.23738 8.14448 8.35838 8.45291 8.81622C8.74848 9.25534 9.31938 9.96756 10.0277 10.6081C10.1312 10.7017 10.2362 10.7914 10.3411 10.8777C11.103 9.79226 11.7296 8.6501 12.1882 7.67564H4.99973C4.4476 7.67564 4 7.22794 4 6.67568C4.0002 6.12358 4.44772 5.67572 4.99973 5.67572H9.25055V4.99996C9.25055 4.4477 9.69814 4 10.2503 4Z" fill="black"/>
</svg>
