<svg width="24" height="24" viewBox="0 0 24 24" fill="none" xmlns="http://www.w3.org/2000/svg">
<path fill-rule="evenodd" clip-rule="evenodd" d="M6 20C4.89543 20 4 19.1046 4 18C4 16.8954 4.89543 16 6 16H11C12.1046 16 13 16.8954 13 18C13 19.1046 12.1046 20 11 20H6ZM11 18.7L6 18.7C5.6134 18.7 5.3 18.3866 5.3 18C5.3 17.6134 5.6134 17.3 6 17.3H11C11.3866 17.3 11.7 17.6134 11.7 18C11.7 18.3866 11.3866 18.7 11 18.7Z" fill="black"/>
<path fill-rule="evenodd" clip-rule="evenodd" d="M6 14C4.89543 14 4 13.1046 4 12C4 10.8954 4.89543 10 6 10L14 10C15.1046 10 16 10.8954 16 12C16 13.1046 15.1046 14 14 14L6 14ZM14 12.7L6 12.7C5.6134 12.7 5.3 12.3866 5.3 12C5.3 11.6134 5.6134 11.3 6 11.3L14 11.3C14.3866 11.3 14.7 11.6134 14.7 12C14.7 12.3866 14.3866 12.7 14 12.7Z" fill="black"/>
<path fill-rule="evenodd" clip-rule="evenodd" d="M4 6C4 7.10457 4.89543 8 6 8L18 8C19.1046 8 20 7.10457 20 6C20 4.89543 19.1046 4 18 4L6 4C4.89543 4 4 4.89543 4 6ZM6 6.7L18 6.7C18.3866 6.7 18.7 6.3866 18.7 6C18.7 5.6134 18.3866 5.3 18 5.3L6 5.3C5.6134 5.3 5.3 5.6134 5.3 6C5.3 6.3866 5.6134 6.7 6 6.7Z" fill="black"/>
</svg>
