<svg width="20" height="20" viewBox="0 0 20 20" fill="none" xmlns="http://www.w3.org/2000/svg">
<path fill-rule="evenodd" clip-rule="evenodd" d="M9.66667 3C13.3486 3 16.3333 5.98477 16.3333 9.66667C16.3333 13.3486 13.3486 16.3333 9.66667 16.3333C5.98477 16.3333 3 13.3486 3 9.66667C3 5.98477 5.98477 3 9.66667 3ZM6.33333 8.83333C5.8731 8.83333 5.5 9.20643 5.5 9.66667C5.5 10.1269 5.8731 10.5 6.33333 10.5C6.79357 10.5 7.16667 10.1269 7.16667 9.66667C7.16667 9.20643 6.79357 8.83333 6.33333 8.83333ZM9.66667 8.83333C9.20643 8.83333 8.83333 9.20643 8.83333 9.66667C8.83333 10.1269 9.20643 10.5 9.66667 10.5C10.1269 10.5 10.5 10.1269 10.5 9.66667C10.5 9.20643 10.1269 8.83333 9.66667 8.83333ZM13 8.83333C12.5398 8.83333 12.1667 9.20643 12.1667 9.66667C12.1667 10.1269 12.5398 10.5 13 10.5C13.4602 10.5 13.8333 10.1269 13.8333 9.66667C13.8333 9.20643 13.4602 8.83333 13 8.83333Z" fill="black"/>
</svg>
