<svg width="48" height="48" viewBox="0 0 48 48" fill="none" xmlns="http://www.w3.org/2000/svg">
<path fill-rule="evenodd" clip-rule="evenodd" d="M23 16.7C21.1775 16.7 19.7 18.1775 19.7 20V28C19.7 29.8225 21.1775 31.3 23 31.3H25C26.8225 31.3 28.3 29.8225 28.3 28V26C28.3 24.1775 26.8225 22.7 25 22.7H22.3V20C22.3 19.6134 22.6134 19.3 23 19.3H27C27.718 19.3 28.3 18.718 28.3 18C28.3 17.282 27.718 16.7 27 16.7H23ZM22.3 28V25.3H25C25.3866 25.3 25.7 25.6134 25.7 26V28C25.7 28.3866 25.3866 28.7 25 28.7H23C22.6134 28.7 22.3 28.3866 22.3 28Z" fill="black"/>
<path fill-rule="evenodd" clip-rule="evenodd" d="M40 24C40 32.8366 32.8366 40 24 40C15.1634 40 8 32.8366 8 24C8 15.1634 15.1634 8 24 8C32.8366 8 40 15.1634 40 24ZM37.4 24C37.4 31.4006 31.4006 37.4 24 37.4C16.5994 37.4 10.6 31.4006 10.6 24C10.6 16.5994 16.5994 10.6 24 10.6C31.4006 10.6 37.4 16.5994 37.4 24Z" fill="black"/>
</svg>
