<svg width="24" height="24" viewBox="0 0 24 24" fill="none" xmlns="http://www.w3.org/2000/svg">
<path d="M4.10962 3.19038C3.85578 2.93654 3.44422 2.93654 3.19038 3.19038C2.93654 3.44422 2.93654 3.85578 3.19038 4.10962L19.8908 20.8101C20.1447 21.0639 20.5562 21.0639 20.8101 20.8101C21.0639 20.5562 21.0639 20.1447 20.8101 19.8908L4.10962 3.19038Z" fill="black"/>
<path d="M4 8C4 7.44772 4.22386 6.94772 4.58579 6.58579L8.08368 10.0837C8.03198 10.1354 8 10.2068 8 10.2857V13.7143C8 13.8721 8.12792 14 8.28571 14C8.44351 14 8.57143 13.8721 8.57143 13.7143V12.2857H9.71428V13.7143C9.71428 13.8721 9.8422 14 10 14C10.1578 14 10.2857 13.8721 10.2857 13.7143V12.2857L10.8571 12.8571V13.7143C10.8571 13.8721 10.9851 14 11.1429 14C11.3438 14 11.6034 13.9643 11.8694 13.8694L16 18H6C4.89543 18 4 17.1046 4 16V8Z" fill="black"/>
<path d="M8.57143 11.7143V10.5714L9.71428 11.7143H8.57143Z" fill="black"/>
<path d="M8 6L12.4437 10.4437C12.5539 10.5303 12.6566 10.6312 12.7474 10.7474L13.4286 11.4286V10.2857C13.4286 10.1279 13.5565 10 13.7143 10H15.1428C15.3147 10 15.5345 10.0739 15.7096 10.263C15.8887 10.4564 16 10.7462 16 11.1429C16 11.5395 15.8887 11.8293 15.7096 12.0227C15.5345 12.2118 15.3147 12.2857 15.1428 12.2857H15L15.9428 13.5428C16.0293 13.6581 16.0155 13.8174 15.9163 13.9163L19.4142 17.4142C19.7761 17.0523 20 16.5523 20 16V8C20 6.89543 19.1046 6 18 6H8Z" fill="black"/>
<path d="M14 11.7143V10.5714H15.1428C15.1614 10.5714 15.2273 10.5832 15.2903 10.6513C15.3494 10.715 15.4286 10.8538 15.4286 11.1429C15.4286 11.4319 15.3494 11.5707 15.2903 11.6344C15.2273 11.7025 15.1614 11.7143 15.1428 11.7143H14Z" fill="black"/>
</svg>
