<svg width="24" height="24" viewBox="0 0 24 24" fill="none" xmlns="http://www.w3.org/2000/svg">
<path fill-rule="evenodd" clip-rule="evenodd" d="M8.99764 11.3C10.2673 11.3 11.2966 10.2703 11.2966 9C11.2966 7.72975 10.2673 6.7 8.99764 6.7C7.72798 6.7 6.69872 7.72975 6.69872 9C6.69872 10.2703 7.72798 11.3 8.99764 11.3ZM9.99716 9C9.99716 9.55228 9.54966 10 8.99764 10C8.44561 10 7.99811 9.55228 7.99811 9C7.99811 8.44772 8.44561 8 8.99764 8C9.54966 8 9.99716 8.44772 9.99716 9Z" fill="black"/>
<path fill-rule="evenodd" clip-rule="evenodd" d="M19.9924 18V15.6L20 15.5939L19.9924 15.5845V6C19.9924 4.89543 19.0974 4 17.9934 4H5.99905C4.89501 4 4 4.89543 4 6V18C4 19.1046 4.89501 20 5.99905 20H17.9934C19.0974 20 19.9924 19.1046 19.9924 18ZM17.9934 5.3H5.99905C5.61264 5.3 5.29939 5.6134 5.29939 6V14.6855L7.95546 12.9139C8.60957 12.4776 9.48056 12.5639 10.0365 13.1201L11.6132 14.6976C11.767 14.8515 12.0224 14.8291 12.1472 14.6508L14.1968 11.7213C14.828 10.8193 16.1483 10.777 16.8358 11.6368L18.6931 13.9595V6C18.6931 5.6134 18.3798 5.3 17.9934 5.3ZM5.29939 18V16.2479L8.67623 13.9956C8.81498 13.903 8.99973 13.9213 9.11765 14.0393L10.6944 15.6168C11.4195 16.3423 12.6236 16.2368 13.2117 15.3963L15.2613 12.4668C15.3952 12.2755 15.6753 12.2665 15.8211 12.4489L18.6931 16.0405V18C18.6931 18.3866 18.3798 18.7 17.9934 18.7H5.99905C5.61264 18.7 5.29939 18.3866 5.29939 18Z" fill="black"/>
</svg>
