<svg width="24" height="24" viewBox="0 0 24 24" fill="none" xmlns="http://www.w3.org/2000/svg">
<path fill-rule="evenodd" clip-rule="evenodd" d="M13.3912 4.18309C14.1993 4.39132 14.937 4.7528 15.3827 5.11041L15.4103 5.13256L19.781 9.49881C20.0737 9.79116 20.0741 10.2655 19.782 10.5584L18.0801 12.2652C17.7874 12.5587 17.312 12.5587 17.0193 12.2652L15.4876 10.7292C15.3544 10.5956 15.1391 10.5956 15.0059 10.7292L10.7544 14.9927C10.7284 15.0188 10.7067 15.049 10.6901 15.0822L10.3735 15.7173C10.2947 15.8753 10.191 16.0196 10.0663 16.1446L7.95344 18.2635L7.95039 18.2677C7.54964 19.0715 6.47921 19.2468 5.84408 18.6099L4.38457 17.1462C3.75165 16.5115 3.92373 15.4413 4.7262 15.0389L4.73 15.0361L6.79113 12.9692C6.97123 12.7886 7.19094 12.6523 7.4329 12.5715L8.37052 12.258C8.42062 12.2413 8.46631 12.213 8.5039 12.1753L12.8003 7.8668C12.8398 7.82711 12.8516 7.79989 12.8542 7.79188C12.9438 7.51 12.9369 7.3147 12.9015 7.1832C12.867 7.05483 12.7931 6.94111 12.667 6.83814C12.3942 6.61554 11.8917 6.46241 11.2498 6.47282C10.6249 6.48295 9.99097 6.00274 9.99097 5.26981C9.99097 4.84655 10.2308 4.38295 10.7193 4.21016C11.6089 3.89554 12.5823 3.97465 13.3912 4.18309ZM12.5055 5.3326C12.868 5.4382 13.2062 5.60024 13.4889 5.83099C13.8001 6.08494 14.0433 6.42335 14.1569 6.84538C14.2696 7.2643 14.2419 7.71768 14.093 8.18582C14.014 8.43441 13.8711 8.63398 13.7208 8.78474L9.42444 13.0933C9.24433 13.2739 9.02463 13.4101 8.78266 13.491L7.84505 13.8044C7.79494 13.8211 7.74926 13.8494 7.71166 13.8871L5.65053 15.9541C5.5507 16.0542 5.43535 16.1376 5.3089 16.201C5.30593 16.2025 5.30437 16.2038 5.30437 16.2038L5.30342 16.2048C5.30342 16.2048 5.30114 16.2086 5.30042 16.2131C5.2997 16.2176 5.3007 16.2222 5.3007 16.2222L5.30143 16.2239C5.30143 16.2239 5.30266 16.2259 5.3051 16.2283L6.76462 17.6919C6.76706 17.6944 6.76877 17.6954 6.76877 17.6954C6.76877 17.6954 6.77269 17.6965 6.77632 17.6959C6.77995 17.6954 6.78296 17.6935 6.78296 17.6935L6.78391 17.6927C6.78391 17.6927 6.78537 17.6909 6.78698 17.6877C6.85004 17.5612 6.93306 17.4456 7.0329 17.3455L9.14577 15.2267C9.1718 15.2006 9.19353 15.1704 9.21007 15.1372L9.52673 14.5021C9.60551 14.3441 9.70922 14.1998 9.83391 14.0747L14.0854 9.81124C14.7266 9.16821 15.767 9.16821 16.4082 9.81124L17.3727 10.7784C17.4703 10.8764 17.629 10.8764 17.7267 10.7784L18.2968 10.2067C18.3942 10.109 18.3941 9.95084 18.2965 9.85333L14.5438 6.10447C14.093 5.76037 13.7176 5.60965 13.0668 5.44198C12.88 5.39383 12.6918 5.35676 12.5055 5.3326Z" fill="black"/>
</svg>
