<svg width="32" height="32" viewBox="0 0 32 32" fill="none" xmlns="http://www.w3.org/2000/svg">
<path fill-rule="evenodd" clip-rule="evenodd" d="M17.521 6.24411C18.5984 6.52173 19.5819 7.00368 20.1762 7.48048L20.213 7.51L26.0403 13.3314C26.4305 13.7212 26.4311 14.3535 26.0416 14.7441L23.7725 17.0197C23.3822 17.411 22.7485 17.411 22.3582 17.0197L20.3161 14.9718C20.1385 14.7936 19.8515 14.7936 19.6738 14.9718L14.0055 20.6562C13.9708 20.691 13.9418 20.7312 13.9197 20.7755L13.4976 21.6222C13.3925 21.8329 13.2542 22.0253 13.088 22.192L10.271 25.017L10.2669 25.0227C9.73262 26.0943 8.30545 26.3281 7.45865 25.4789L5.51273 23.5275C4.66888 22.6812 4.89831 21.2542 5.96822 20.7178L5.97329 20.7141L8.72132 17.9583C8.96145 17.7175 9.25437 17.5359 9.57698 17.428L10.8271 17.0102C10.8939 16.9878 10.9548 16.9501 11.0049 16.8999L16.7331 11.1555C16.7859 11.1026 16.8016 11.0663 16.805 11.0556C16.9245 10.6798 16.9153 10.4194 16.8681 10.2441C16.8221 10.0729 16.7236 9.92128 16.5554 9.784C16.1917 9.48722 15.5217 9.28305 14.6659 9.29693C13.8328 9.31044 12.9876 8.67019 12.9876 7.693C12.9876 7.12867 13.3073 6.51058 13.9587 6.2802C15.1446 5.86073 16.4424 5.96621 17.521 6.24411ZM16.34 7.77671C16.8235 7.91751 17.2743 8.13355 17.6513 8.44119C18.0662 8.77978 18.3904 9.23097 18.5418 9.79366C18.6921 10.3522 18.6552 10.9567 18.4567 11.5808C18.3513 11.9122 18.1609 12.1783 17.9604 12.3793L12.2322 18.1237C11.9921 18.3645 11.6992 18.5462 11.3766 18.654L10.1265 19.0719C10.0597 19.0942 9.99876 19.1319 9.94864 19.1822L7.2006 21.9379C7.06749 22.0714 6.9137 22.1826 6.74511 22.2672C6.74115 22.2691 6.73907 22.2709 6.73907 22.2709L6.73781 22.2723C6.73781 22.2723 6.73477 22.2774 6.73381 22.2833C6.73285 22.2893 6.73419 22.2955 6.73419 22.2955L6.73515 22.2977C6.73515 22.2977 6.73679 22.3003 6.74005 22.3036L8.68597 24.255C8.68923 24.2583 8.69151 24.2597 8.69151 24.2597C8.69151 24.2597 8.69674 24.2611 8.70157 24.2603C8.70641 24.2596 8.71043 24.2571 8.71043 24.2571L8.71169 24.256C8.71169 24.256 8.71364 24.2536 8.71579 24.2493C8.79987 24.0807 8.91056 23.9266 9.04367 23.7932L11.8607 20.9682C11.8954 20.9334 11.9244 20.8931 11.9464 20.8489L12.3686 20.0021C12.4736 19.7914 12.6119 19.599 12.7782 19.4323L18.4465 13.7479C19.3014 12.8906 20.6885 12.8906 21.5434 13.7479L22.8293 15.0375C22.9596 15.1681 23.1711 15.1681 23.3014 15.0375L24.0615 14.2752C24.1914 14.1449 24.1912 13.9341 24.061 13.804L19.0577 8.80582C18.4567 8.34704 17.9561 8.1461 17.0885 7.92254C16.8394 7.85835 16.5885 7.80893 16.34 7.77671Z" fill="black"/>
</svg>
