<svg width="28" height="28" viewBox="0 0 28 28" fill="none" xmlns="http://www.w3.org/2000/svg">
<path d="M16.7849 15.3629C16.936 15.343 17.0756 15.4591 17.0967 15.6223L17.1337 15.9085C17.1409 15.9637 17.1872 16.0032 17.2372 15.9966L17.395 15.9881C17.5461 15.9682 17.6857 16.0843 17.7068 16.2475C17.7279 16.4106 17.6225 16.559 17.4714 16.5789L16.8927 16.6429C16.8428 16.6494 16.808 16.6996 16.8152 16.7548L16.8599 17.1002C16.867 17.1554 16.9133 17.1948 16.9633 17.1882L17.4884 17.119C17.6134 17.1026 17.7292 17.2011 17.747 17.3392L17.8764 18.3391C17.8943 18.4771 17.8075 18.6023 17.6825 18.6188L17.5783 18.6325C17.5283 18.6391 17.4936 18.6892 17.5008 18.7444L17.5378 19.0307C17.5589 19.1939 17.4536 19.3422 17.3025 19.3621C17.1514 19.382 17.0117 19.2659 16.9906 19.1028L16.9536 18.8165C16.9464 18.7613 16.9001 18.7218 16.8502 18.7284L16.5829 18.7637C16.4318 18.7836 16.2922 18.6675 16.271 18.5043C16.2499 18.3412 16.3553 18.1928 16.5064 18.1729L17.1946 18.0822C17.2446 18.0756 17.2793 18.0255 17.2721 17.9703L17.2569 17.8521C17.2497 17.7969 17.2034 17.7575 17.1534 17.7641L16.6283 17.8332C16.5034 17.8497 16.3876 17.7511 16.3698 17.6131L16.2109 16.386C16.2028 16.3228 16.2165 16.2623 16.2459 16.2137C16.2806 16.1561 16.3371 16.1152 16.4048 16.1062L16.509 16.0925C16.559 16.086 16.5937 16.0358 16.5866 15.9806L16.5495 15.6943C16.5284 15.5312 16.6338 15.3828 16.7849 15.3629Z" fill="black"/>
<path d="M18.2254 18.9413C18.1571 18.7979 18.2169 18.6257 18.359 18.5567L19.131 18.1823C19.2732 18.1134 19.4438 18.1737 19.5121 18.3171C19.5805 18.4605 19.5206 18.6326 19.3785 18.7016L18.6064 19.076C18.4643 19.145 18.2937 19.0846 18.2254 18.9413Z" fill="black"/>
<path fill-rule="evenodd" clip-rule="evenodd" d="M13.5813 5.17094C13.9283 4.95552 14.3628 4.94287 14.7215 5.13774L21.7327 8.94657C22.1026 9.14755 22.3333 9.53725 22.3333 9.96119V18.6982C22.3333 19.1222 22.1026 19.5119 21.7327 19.7129L14.7082 23.5289C14.3701 23.7126 13.9632 23.7126 13.6252 23.5289L6.60068 19.7129C6.23071 19.5119 6 19.1222 6 18.6982V10.5218C6 10.1217 6.20577 9.75015 6.54357 9.54042L13.5813 5.17094ZM14.3131 6.61728C14.2378 6.57635 14.1466 6.57901 14.0737 6.62425L7.59905 10.6442C7.52811 10.6882 7.4849 10.7662 7.4849 10.8502V18.3472C7.4849 18.4362 7.53335 18.5181 7.61104 18.5603L13.6417 21.8365C13.8015 21.9233 13.9953 21.8065 13.9953 21.6234V14.5614C13.9953 14.1515 14.2111 13.7725 14.562 13.566L20.2126 10.2405C20.3744 10.1452 20.3704 9.90798 20.2055 9.81838L14.3131 6.61728ZM20.8484 18.3472C20.8484 18.4362 20.8 18.5181 20.7223 18.5603L15.8338 21.216C15.674 21.3028 15.4802 21.1861 15.4802 21.0029V14.8989C15.4802 14.8129 15.5255 14.7333 15.5992 14.6899L20.4877 11.8129C20.6476 11.7188 20.8484 11.8352 20.8484 12.0219V18.3472Z" fill="black"/>
</svg>
