<svg width="20" height="20" viewBox="0 0 20 20" fill="none" xmlns="http://www.w3.org/2000/svg">
<path fill-rule="evenodd" clip-rule="evenodd" d="M3 6.2406C3 5.55544 3.51401 5 4.14808 5H6.99098C7.29547 5 7.58749 5.13071 7.80279 5.36336L9.13471 6.80262C9.18038 6.85197 9.24232 6.8797 9.30691 6.8797H13.8893C14.5234 6.8797 15.0374 7.43514 15.0374 8.1203V8.33333H15.5015C16.0347 8.33333 16.4301 8.82927 16.3125 9.35051L15.184 14.3505C15.0983 14.7303 14.7615 15 14.373 15H13.8916L13.8893 15H4.14808L4.1458 15H4.04061C3.78461 15 3.56037 14.8857 3.40942 14.7092C3.15908 14.4816 3 14.1406 3 13.7594V6.2406ZM3.90454 10.9923L4.35809 8.98281C4.44381 8.60301 4.78056 8.33333 5.16912 8.33333H14.1329V8.1203C14.1329 7.97496 14.0238 7.85714 13.8893 7.85714H9.30691C9.00242 7.85714 8.71041 7.72644 8.4951 7.49378L7.16318 6.05452C7.11751 6.00517 7.05557 5.97744 6.99098 5.97744H4.14808C4.01358 5.97744 3.90454 6.09526 3.90454 6.2406V10.9923ZM4.3528 13.9167L5.36845 9.41666H15.1893L14.1736 13.9167H4.3528Z" fill="black"/>
</svg>
