<svg width="28" height="28" viewBox="0 0 28 28" fill="none" xmlns="http://www.w3.org/2000/svg">
<path d="M14.1703 11.5473C17.5351 11.5473 20.513 10.8574 22.3333 9.79874V14.3611C22.3301 14.3698 22.3254 14.3812 22.3185 14.3953C22.2905 14.4523 22.2263 14.553 22.0892 14.688C21.8048 14.968 21.3009 15.3033 20.5311 15.6239C18.9982 16.2624 16.7506 16.7015 14.1703 16.7015C11.5899 16.7015 9.34232 16.2624 7.80939 15.6239C7.03962 15.3033 6.53572 14.968 6.25133 14.688C6.11425 14.553 6.05 14.4523 6.02197 14.3953C6.00841 14.3677 6.00337 14.3505 6.00156 14.3431C6.00041 14.3384 6 14.3342 6 14.3342V9.79456C7.81964 10.8556 10.801 11.5473 14.1703 11.5473Z" fill="black"/>
<path d="M6.00156 21.3082C6.00041 21.3035 6 21.2993 6 21.2993V16.7597C7.81964 17.8208 10.801 18.5124 14.1703 18.5124C17.5351 18.5124 20.513 17.8226 22.3333 16.7639V21.3263C22.3301 21.335 22.3254 21.3464 22.3185 21.3605C22.2905 21.4175 22.2263 21.5181 22.0892 21.6531C21.8048 21.9332 21.3009 22.2684 20.5311 22.5891C18.9982 23.2275 16.7506 23.6667 14.1703 23.6667C11.5899 23.6667 9.34232 23.2275 7.80939 22.5891C7.03962 22.2684 6.53572 21.9332 6.25133 21.6531C6.11425 21.5181 6.05 21.4175 6.02197 21.3605C6.00841 21.3329 6.00337 21.3157 6.00156 21.3082Z" fill="black"/>
<path d="M22.3185 7.30621C22.2905 7.24916 22.2263 7.14852 22.0892 7.01354C21.8048 6.73349 21.3009 6.39823 20.5311 6.07761C18.9982 5.43913 16.7506 5 14.1703 5C11.5899 5 9.34232 5.43913 7.80939 6.07761C7.03962 6.39823 6.53572 6.73349 6.25133 7.01354C6.11425 7.14852 6.05 7.24916 6.02197 7.30621C6.01182 7.32947 5.99761 7.3868 6.02197 7.43011C6.05 7.48716 6.11425 7.58779 6.25133 7.72278C6.53572 8.00283 7.03962 8.33809 7.80939 8.65871C9.34232 9.29719 11.5899 9.73632 14.1703 9.73632C16.7506 9.73632 18.9982 9.29719 20.5311 8.65871C21.3009 8.33809 21.8048 8.00283 22.0892 7.72278C22.2263 7.58779 22.2905 7.48716 22.3185 7.43011C22.3443 7.38451 22.3293 7.32851 22.3185 7.30621Z" fill="black"/>
</svg>
