<svg width="32" height="32" viewBox="0 0 32 32" fill="none" xmlns="http://www.w3.org/2000/svg">
<path fill-rule="evenodd" clip-rule="evenodd" d="M9.10855 5C7.41372 5 6.4138 6.80605 7.37401 8.13306L12.0053 14.5336C12.4991 15.2161 12.4991 16.1172 12.0053 16.7997L7.37401 23.2003C6.4138 24.5273 7.41372 26.3334 9.10855 26.3334H23.5581C25.2529 26.3334 26.2529 24.5273 25.2927 23.2003L20.6614 16.7997C20.1676 16.1172 20.1676 15.2161 20.6614 14.5336L25.2927 8.13306C26.2529 6.80605 25.2529 5 23.5581 5H9.10855ZM17.7935 20.3555C16.9066 19.7751 15.7601 19.7751 14.8732 20.3555L10.3408 23.3211C10.0636 23.5025 10.192 23.9334 10.5233 23.9334H22.1433C22.4746 23.9334 22.603 23.5025 22.3258 23.3211L17.7935 20.3555Z" fill="black"/>
</svg>
