<svg width="48" height="48" viewBox="0 0 48 48" fill="none" xmlns="http://www.w3.org/2000/svg">
<path d="M13.4117 8C10.4229 8 8 10.4029 8 13.3671V34.6329C8 37.5971 10.4229 40 13.4117 40H32.8122C35.801 40 38.2239 37.5971 38.2239 34.6329V31.5949C38.2239 30.8679 37.6296 30.2785 36.8965 30.2785C36.1634 30.2785 35.5691 30.8679 35.5691 31.5949V34.6329C35.5691 36.143 34.3348 37.3671 32.8122 37.3671H13.4117C11.8891 37.3671 10.6548 36.143 10.6548 34.6329V13.3671C10.6548 11.857 11.8891 10.6329 13.4117 10.6329H21.5803C22.3134 10.6329 22.9077 10.0435 22.9077 9.31646C22.9077 8.5894 22.3134 8 21.5803 8H13.4117Z" fill="black"/>
<path fill-rule="evenodd" clip-rule="evenodd" d="M26.0731 22.7289C27.0152 22.5986 27.9128 22.5215 28.7279 22.481V24.8235C28.7279 26.6072 30.8845 27.5199 32.183 26.2858L39.3708 19.4542C40.2362 18.6318 40.2046 17.2505 39.3026 16.4678L32.1148 10.2303C30.7944 9.08442 28.7279 10.0144 28.7279 11.7545V14.3797C18.6606 14.3797 14.5718 20.0992 13.0915 26.1485C12.9082 27.5246 13.1392 29.6997 15.5294 27.3916C18.3111 24.4752 22.5103 23.2215 26.0731 22.7289ZM28.5949 19.8514C25.658 19.9974 21.4959 20.5908 17.8206 22.4811C17.6372 22.5755 17.4412 22.3776 17.552 22.2047C18.3932 20.8914 19.4811 19.7645 20.8844 18.9025C22.7002 17.787 25.2106 17.0127 28.7279 17.0127H29.3405C30.4684 17.0127 31.3827 16.1059 31.3827 14.9873V13.5398C31.3827 13.3658 31.5893 13.2728 31.7214 13.3874L36.8831 17.8667C36.9733 17.945 36.9765 18.0831 36.89 18.1653L31.7282 23.0713C31.5983 23.1947 31.3827 23.1034 31.3827 22.9251V21.8422C31.3827 20.6838 30.4048 19.7614 29.2383 19.8194L28.5949 19.8514Z" fill="black"/>
</svg>
