<svg width="32" height="32" viewBox="0 0 32 32" fill="none" xmlns="http://www.w3.org/2000/svg">
<path fill-rule="evenodd" clip-rule="evenodd" d="M26.3333 15.6667C26.3333 21.5577 21.5577 26.3333 15.6667 26.3333C9.77563 26.3333 5 21.5577 5 15.6667C5 9.77563 9.77563 5 15.6667 5C21.5577 5 26.3333 9.77563 26.3333 15.6667ZM10.1333 13.6667C10.1333 13.188 10.5214 12.8 11 12.8H20.3333C20.812 12.8 21.2 13.188 21.2 13.6667C21.2 14.1453 20.812 14.5333 20.3333 14.5333H11C10.5214 14.5333 10.1333 14.1453 10.1333 13.6667ZM11 16.8C10.5214 16.8 10.1333 17.188 10.1333 17.6667C10.1333 18.1453 10.5214 18.5333 11 18.5333H20.3333C20.812 18.5333 21.2 18.1453 21.2 17.6667C21.2 17.188 20.812 16.8 20.3333 16.8H11Z" fill="black"/>
</svg>
