<svg width="20" height="20" viewBox="0 0 20 20" fill="none" xmlns="http://www.w3.org/2000/svg">
<path fill-rule="evenodd" clip-rule="evenodd" d="M3 4.66667C3 3.74619 3.74619 3 4.66667 3H14.6667C15.5871 3 16.3333 3.74619 16.3333 4.66667V14.6667C16.3333 15.5871 15.5871 16.3333 14.6667 16.3333H4.66667C3.74619 16.3333 3 15.5871 3 14.6667V4.66667ZM8.83333 4.08333H10.5V10.0833C10.5 10.5329 10.7373 10.9271 11.0936 11.1473C11.1616 11.1894 11.2083 11.2611 11.2083 11.3411V15.25H8.125V11.3411C8.125 11.2611 8.17168 11.1894 8.23975 11.1473C8.59598 10.9271 8.83333 10.5329 8.83333 10.0833V4.08333ZM12.2917 15.25H14.6667C14.9888 15.25 15.25 14.9888 15.25 14.6667V4.66667C15.25 4.3445 14.9888 4.08333 14.6667 4.08333H13V10.0833C13 10.5329 12.7626 10.9271 12.4064 11.1473C12.3384 11.1894 12.2917 11.2611 12.2917 11.3411V15.25ZM6.92691 11.1473C6.99498 11.1894 7.04167 11.2611 7.04167 11.3411V15.25H4.66667C4.3445 15.25 4.08333 14.9888 4.08333 14.6667V4.66667C4.08333 4.3445 4.3445 4.08333 4.66667 4.08333H6.33333V10.0833C6.33333 10.5329 6.57068 10.9271 6.92691 11.1473Z" fill="black"/>
</svg>
