<svg width="16" height="16" viewBox="0 0 16 16" fill="none" xmlns="http://www.w3.org/2000/svg">
<path fill-rule="evenodd" clip-rule="evenodd" d="M4 4.33333C4 3.59695 4.59695 3 5.33333 3H10.6667C11.403 3 12 3.59695 12 4.33333V12.3333C12 13.0697 11.403 13.6667 10.6667 13.6667H5.33333C4.59695 13.6667 4 13.0697 4 12.3333V4.33333ZM5.33333 3.86667H10.6667C10.9244 3.86667 11.1333 4.0756 11.1333 4.33333V12.3333C11.1333 12.5911 10.9244 12.8 10.6667 12.8H5.33333C5.0756 12.8 4.86667 12.5911 4.86667 12.3333V4.33333C4.86667 4.0756 5.0756 3.86667 5.33333 3.86667Z" fill="black"/>
<path d="M6 4.33333C5.63181 4.33333 5.33333 4.63181 5.33333 5V11.6667C5.33333 12.0349 5.63181 12.3333 6 12.3333H10C10.3682 12.3333 10.6667 12.0349 10.6667 11.6667V5C10.6667 4.63181 10.3682 4.33333 10 4.33333H6Z" fill="black"/>
</svg>
