<svg width="24" height="24" viewBox="0 0 24 24" fill="none" xmlns="http://www.w3.org/2000/svg">
<path d="M14.5534 4.65C14.5534 4.29101 14.2624 4 13.9034 4C13.5444 4 13.2534 4.29101 13.2534 4.65V6.13607C13.2534 6.49505 13.5444 6.78607 13.9034 6.78607C14.2624 6.78607 14.5534 6.49505 14.5534 6.13607V4.65Z" fill="black"/>
<path d="M9.63115 14.3749C9.88499 14.6288 9.88499 15.0403 9.63115 15.2942L8.66421 16.2611C8.41037 16.515 7.99882 16.515 7.74497 16.2611C7.49113 16.0073 7.49113 15.5957 7.74497 15.3419L8.71191 14.375C8.96574 14.1211 9.3773 14.1211 9.63115 14.3749Z" fill="black"/>
<path fill-rule="evenodd" clip-rule="evenodd" d="M12.5725 15.4889L15.6711 15.2505C16.1312 15.2151 16.5634 15.0163 16.8897 14.69L17.2985 14.2813C18.0535 13.5263 18.0535 12.3023 17.2985 11.5473L12.4526 6.70146C11.6977 5.94653 10.4737 5.94653 9.71876 6.70146L9.30983 7.11039C8.98351 7.4367 8.78469 7.86898 8.7493 8.3291L8.51094 11.4277C8.49325 11.6577 8.39384 11.8739 8.23068 12.037L4.56622 15.7014C3.81126 16.4564 3.81126 17.6805 4.56622 18.4354L5.56463 19.4338C6.31956 20.1887 7.54354 20.1887 8.29848 19.4338L11.9632 15.7691C12.1263 15.606 12.3425 15.5066 12.5725 15.4889ZM12.1233 14.1785L9.82132 11.8766C9.77144 11.8267 9.74585 11.7575 9.75126 11.6872L9.91831 9.51558C9.92464 9.43324 10.0246 9.39625 10.083 9.45464L14.5453 13.9168C14.6037 13.9752 14.5667 14.0752 14.4843 14.0816L12.3127 14.2486C12.2424 14.254 12.1732 14.2284 12.1233 14.1785ZM5.31803 16.7267L8.76442 13.2803C8.95315 13.0916 9.25915 13.0916 9.44788 13.2803L10.7197 14.5521C10.9084 14.7408 10.9084 15.0469 10.7197 15.2356L7.27329 18.682C7.08455 18.8707 6.77856 18.8707 6.58982 18.682L5.31803 17.4102C5.12929 17.2214 5.12929 16.9154 5.31803 16.7267ZM10.744 7.45331L10.6431 7.55413C10.4544 7.74287 10.4544 8.04888 10.6431 8.23762L15.7624 13.3569C15.9512 13.5456 16.2572 13.5456 16.4459 13.3569L16.5467 13.256C16.7354 13.0673 16.7354 12.7613 16.5467 12.5725L11.4274 7.45331C11.2387 7.26458 10.9327 7.26458 10.744 7.45331Z" fill="black"/>
<path d="M18.325 5.67565C18.5788 5.92949 18.5788 6.34104 18.325 6.59488L16.8389 8.08095C16.5851 8.33479 16.1735 8.33479 15.9197 8.08095C15.6658 7.82711 15.6658 7.41555 15.9197 7.16171L17.4057 5.67565C17.6596 5.4218 18.0711 5.4218 18.325 5.67565Z" fill="black"/>
<path d="M17.8647 9.44662C17.5057 9.44662 17.2147 9.73763 17.2147 10.0966C17.2147 10.4556 17.5057 10.7466 17.8647 10.7466H19.3508C19.7097 10.7466 20.0008 10.4556 20.0008 10.0966C20.0008 9.73763 19.7097 9.44662 19.3508 9.44662H17.8647Z" fill="black"/>
</svg>
