<svg width="20" height="20" viewBox="0 0 20 20" fill="none" xmlns="http://www.w3.org/2000/svg">
<path d="M6.83333 4.66667C6.83333 3.74619 7.57953 3 8.5 3H11.8333C12.7538 3 13.5 3.74619 13.5 4.66667V4.80892C13.2394 4.7168 12.9589 4.66667 12.6667 4.66667H7.66667C7.37447 4.66667 7.09398 4.7168 6.83333 4.80892V4.66667Z" fill="black"/>
<path d="M12.6667 14.6667C12.9589 14.6667 13.2394 14.6165 13.5 14.5244V14.6667C13.5 15.5871 12.7538 16.3333 11.8333 16.3333H8.5C7.57953 16.3333 6.83333 15.5871 6.83333 14.6667V14.5244C7.09398 14.6165 7.37447 14.6667 7.66667 14.6667H12.6667Z" fill="black"/>
<path fill-rule="evenodd" clip-rule="evenodd" d="M7.66667 5.5C6.74619 5.5 6 6.24619 6 7.16667V12.1667C6 13.0871 6.74619 13.8333 7.66667 13.8333H12.6667C13.5871 13.8333 14.3333 13.0871 14.3333 12.1667V10.5C14.7936 10.5 15.1667 10.1269 15.1667 9.66667V8.83333C15.1667 8.3731 14.7936 8 14.3333 8V7.16667C14.3333 6.24619 13.5871 5.5 12.6667 5.5H7.66667Z" fill="black"/>
</svg>
