<svg width="16" height="16" viewBox="0 0 16 16" fill="none" xmlns="http://www.w3.org/2000/svg">
<path fill-rule="evenodd" clip-rule="evenodd" d="M4.91282 3.01755C5.69462 2.92929 6.5339 3.19004 7.06091 3.43947C7.37665 3.58891 7.83759 3.65791 8.32767 3.65096L8.33405 3.65087L8.34042 3.65096C8.83034 3.65791 9.29111 3.58891 9.60671 3.43949C10.1336 3.19006 10.9727 2.92928 11.7543 3.01755C12.1542 3.06271 12.5633 3.20245 12.8978 3.50738C13.2355 3.81526 13.4564 4.25446 13.542 4.82196C13.693 5.82317 13.6973 6.56512 13.6059 7.16109C13.5134 7.76425 13.3264 8.19505 13.1282 8.57031C12.9135 8.9768 12.4754 10.1798 12.4481 11.4889C12.4473 11.5261 12.4467 11.5645 12.446 11.604C12.4395 11.9668 12.4317 12.4126 12.3345 12.7722C12.2786 12.9793 12.1818 13.2064 11.9989 13.3837C11.8038 13.5729 11.5509 13.6667 11.2643 13.6667C10.9081 13.6667 10.6356 13.4764 10.4439 13.266C10.2544 13.058 10.1049 12.7899 9.98281 12.5269C9.85878 12.2597 9.74981 11.9679 9.65231 11.6969C9.62786 11.6289 9.60428 11.5627 9.58136 11.4984C9.51024 11.2987 9.44547 11.1168 9.3806 10.9552C9.2534 10.6384 9.12981 10.3567 8.95706 10.1503C8.80185 9.96485 8.61756 9.85165 8.33405 9.85165C8.05038 9.85165 7.86608 9.96487 7.71087 10.1503C7.53806 10.3568 7.41445 10.6384 7.28697 10.9554C7.22179 11.1175 7.15672 11.3001 7.08525 11.5006C7.06257 11.5643 7.03925 11.6297 7.01507 11.6969C6.91753 11.9678 6.80855 12.2597 6.68452 12.5268C6.56247 12.7898 6.41291 13.0579 6.22343 13.2659C6.0317 13.4764 5.75921 13.6667 5.40291 13.6667C5.11632 13.6667 4.86333 13.5729 4.66825 13.3837C4.48538 13.2063 4.38875 12.9791 4.3329 12.7721C4.23637 12.4143 4.22806 11.9708 4.22129 11.6092C4.22053 11.5681 4.21978 11.5281 4.21892 11.4895C4.19003 10.1829 3.74722 8.98144 3.53524 8.5638C3.34055 8.18023 3.15341 7.75066 3.06084 7.15097C2.96932 6.55805 2.97367 5.82287 3.12473 4.82194C3.21038 4.25441 3.43132 3.8152 3.76912 3.50733C4.10366 3.20243 4.51286 3.0627 4.91282 3.01755ZM4.37579 4.17841C4.22048 4.31996 4.07809 4.55417 4.01718 4.95773C3.87513 5.89899 3.87948 6.53699 3.95283 7.01216C4.02514 7.48056 4.16776 7.814 4.33946 8.15227C4.6009 8.66736 5.08889 10.002 5.12134 11.4693C5.12211 11.5045 5.12284 11.5392 5.12356 11.5733C5.1318 11.9662 5.13865 12.2924 5.20414 12.5351C5.23762 12.6592 5.275 12.712 5.29539 12.7318L5.29589 12.7323C5.30437 12.7406 5.32469 12.7603 5.40291 12.7603C5.41301 12.7603 5.4619 12.7591 5.55739 12.6542C5.65515 12.5469 5.75866 12.376 5.86639 12.144C5.97214 11.9161 6.06965 11.657 6.16617 11.3888C6.1876 11.3293 6.20916 11.2688 6.23078 11.2081C6.30367 11.0035 6.37736 10.7967 6.44999 10.6161C6.5728 10.3107 6.74231 9.89877 7.01987 9.56718C7.31503 9.21456 7.73837 8.94533 8.33405 8.94533C8.92961 8.94533 9.35295 9.21458 9.64808 9.56719C9.92566 9.89883 10.0951 10.3108 10.2178 10.6163C10.29 10.7963 10.3634 11.0024 10.436 11.2063C10.4578 11.2676 10.4796 11.3288 10.5013 11.389C10.5977 11.6571 10.6952 11.9163 10.8009 12.144C10.9087 12.3761 11.0122 12.547 11.1099 12.6543C11.2054 12.7591 11.2543 12.7603 11.2643 12.7603C11.3425 12.7603 11.3629 12.7405 11.3715 12.7322C11.3919 12.7124 11.4298 12.659 11.4633 12.535C11.5293 12.2907 11.5359 11.9614 11.5438 11.565C11.5444 11.5337 11.545 11.502 11.5457 11.4699C11.5762 10.005 12.057 8.66412 12.3307 8.14575C12.4988 7.82738 12.6414 7.49518 12.7138 7.0232C12.7872 6.54402 12.7915 5.89869 12.6495 4.95771C12.5886 4.55412 12.4463 4.31991 12.291 4.17837C12.1325 4.03387 11.919 3.94818 11.6534 3.91819C11.1042 3.85618 10.4415 4.04627 9.99166 4.25926C9.50141 4.49136 8.88706 4.5645 8.33404 4.55727C7.78089 4.5645 7.1664 4.49136 6.67605 4.25928C6.22602 4.04628 5.56309 3.85617 5.01367 3.9182C4.74802 3.94819 4.53435 4.0339 4.37579 4.17841Z" fill="black"/>
</svg>
