<svg width="48" height="48" viewBox="0 0 48 48" fill="none" xmlns="http://www.w3.org/2000/svg">
<path fill-rule="evenodd" clip-rule="evenodd" d="M24 16.7949C21.0613 16.7949 18.7 19.1964 18.7 22.1329C18.7 25.0694 21.0613 27.4709 24 27.4709C26.9387 27.4709 29.3 25.0694 29.3 22.1329C29.3 19.1964 26.9387 16.7949 24 16.7949ZM21.3 22.1329C21.3 20.6092 22.5204 19.3949 24 19.3949C25.4796 19.3949 26.7 20.6092 26.7 22.1329C26.7 23.6566 25.4796 24.8709 24 24.8709C22.5204 24.8709 21.3 23.6566 21.3 22.1329Z" fill="black"/>
<path fill-rule="evenodd" clip-rule="evenodd" d="M38 22.1329C38 28.9164 31.9575 33.8212 26.4369 38.3025C25.8307 38.7946 25.2307 39.2816 24.6458 39.7654C24.2711 40.0753 23.7289 40.0753 23.3542 39.7654C22.7694 39.2816 22.1695 38.7947 21.5633 38.3027C16.0427 33.8214 10 28.9164 10 22.1329C10 14.3275 16.268 8 24 8C31.732 8 38 14.3275 38 22.1329ZM35.4 22.1329C35.4 24.9729 34.0124 27.5571 31.6171 30.1885C29.6772 32.3197 27.3137 34.2395 24.8728 36.2221L24.871 36.2236C24.6864 36.3735 24.5014 36.5238 24.3161 36.6745C24.132 36.8243 23.868 36.8243 23.6839 36.6745C23.4979 36.5233 23.3123 36.3725 23.1271 36.2221C20.6863 34.2395 18.3228 32.3197 16.3829 30.1885C13.9876 27.5571 12.6 24.9729 12.6 22.1329C12.6 15.7402 17.7271 10.6 24 10.6C30.2729 10.6 35.4 15.7402 35.4 22.1329Z" fill="black"/>
</svg>
