<svg width="28" height="28" viewBox="0 0 28 28" fill="none" xmlns="http://www.w3.org/2000/svg">
<path d="M15.584 9.09596C15.8992 8.82017 16.3782 8.85211 16.654 9.1673L20.0651 13.0657C20.7002 13.7915 20.7002 14.8752 20.0651 15.601L16.654 19.4994C16.3782 19.8146 15.8992 19.8465 15.584 19.5707C15.2688 19.2949 15.2368 18.8158 15.5126 18.5006L18.9237 14.6022C19.0584 14.4483 19.0584 14.2184 18.9237 14.0644L15.5126 10.166C15.2368 9.85084 15.2688 9.37176 15.584 9.09596Z" fill="black"/>
<path d="M12.0126 19.4994C12.2884 19.8146 12.7675 19.8465 13.0827 19.5707C13.3979 19.2949 13.4298 18.8158 13.154 18.5006L9.74293 14.6022C9.60822 14.4483 9.60822 14.2184 9.74293 14.0644L13.154 10.166C13.4298 9.85084 13.3979 9.37175 13.0827 9.09596C12.7675 8.82017 12.2884 8.85211 12.0126 9.1673L8.60152 13.0657C7.96647 13.7915 7.96646 14.8752 8.60152 15.601L12.0126 19.4994Z" fill="black"/>
<path fill-rule="evenodd" clip-rule="evenodd" d="M7.33333 5C6.04467 5 5 6.04467 5 7.33333V21.3333C5 22.622 6.04467 23.6667 7.33333 23.6667H21.3333C22.622 23.6667 23.6667 22.622 23.6667 21.3333V7.33333C23.6667 6.04467 22.622 5 21.3333 5H7.33333ZM21.3333 6.51667H7.33333C6.8823 6.51667 6.51667 6.8823 6.51667 7.33333V21.3333C6.51667 21.7844 6.8823 22.15 7.33333 22.15H21.3333C21.7844 22.15 22.15 21.7844 22.15 21.3333V7.33333C22.15 6.8823 21.7844 6.51667 21.3333 6.51667Z" fill="black"/>
</svg>
