<svg width="28" height="28" viewBox="0 0 28 28" fill="none" xmlns="http://www.w3.org/2000/svg">
<path fill-rule="evenodd" clip-rule="evenodd" d="M17.3436 6.2741C18.0009 5.49493 18.9844 5 20.0835 5C22.0624 5 23.6667 6.60453 23.6667 8.58382C23.6667 9.6831 23.1718 10.6668 22.3928 11.3242L22.4005 11.3319L11.2593 22.475C11.0936 22.6407 10.8826 22.7537 10.6528 22.7997L6.42046 23.6463C5.58988 23.8124 4.8576 23.08 5.02371 22.2493L5.87018 18.0162C5.91614 17.7863 6.02909 17.5752 6.1948 17.4095L17.3359 6.26639L17.3436 6.2741ZM18.6773 7.25098C18.5767 7.35693 18.5912 7.52189 18.6945 7.62518L21.042 9.97309C21.1452 10.0764 21.3102 10.0908 21.4161 9.99029C21.7884 9.63688 22.0207 9.13696 22.0207 8.58382C22.0207 7.51375 21.1534 6.64628 20.0835 6.64628C19.5304 6.64628 19.0306 6.8786 18.6773 7.25098ZM17.4435 8.90673C17.3276 8.79082 17.1397 8.79082 17.0238 8.90673L7.52048 18.4118C7.47905 18.4532 7.45081 18.506 7.43932 18.5634L6.86004 21.4604C6.81851 21.6681 7.00159 21.8512 7.20923 21.8096L10.1056 21.2302C10.1631 21.2188 10.2158 21.1905 10.2573 21.1491L19.7606 11.644C19.8765 11.5281 19.8765 11.3402 19.7606 11.2243L17.4435 8.90673Z" fill="black"/>
</svg>
