<svg width="24" height="24" viewBox="0 0 24 24" fill="none" xmlns="http://www.w3.org/2000/svg">
<path fill-rule="evenodd" clip-rule="evenodd" d="M4 5.65C4 5.29101 4.29897 5 4.66777 5H6.94238C7.41321 5 7.82377 5.31154 7.93866 5.75598L8.38196 7.47084H18.9718C19.6856 7.47084 20.1819 8.16203 19.9365 8.81455L18.1558 13.5504C18.0076 13.9446 17.6223 14.2067 17.191 14.2067H9.54691C9.07609 14.2067 8.66552 13.8952 8.55063 13.4507L6.79984 6.67799C6.74239 6.45577 6.53711 6.3 6.3017 6.3H4.66777C4.29897 6.3 4 6.00899 4 5.65Z" fill="black"/>
<path d="M11.3105 16.5217C11.3105 17.3405 10.6241 18.0042 9.77751 18.0042C8.93088 18.0042 8.24456 17.3405 8.24456 16.5217C8.24456 15.703 8.93088 15.0392 9.77751 15.0392C10.6241 15.0392 11.3105 15.703 11.3105 16.5217Z" fill="black"/>
<path d="M16.9313 18.0042C17.778 18.0042 18.4643 17.3405 18.4643 16.5217C18.4643 15.703 17.778 15.0392 16.9313 15.0392C16.0847 15.0392 15.3984 15.703 15.3984 16.5217C15.3984 17.3405 16.0847 18.0042 16.9313 18.0042Z" fill="black"/>
</svg>
