<svg width="24" height="24" viewBox="0 0 24 24" fill="none" xmlns="http://www.w3.org/2000/svg">
<path fill-rule="evenodd" clip-rule="evenodd" d="M6.58141 4C5.31029 4 4.56035 5.35454 5.28051 6.34979L8.75396 11.1502C9.12432 11.6621 9.12432 12.3379 8.75396 12.8498L5.28051 17.6502C4.56035 18.6455 5.31029 20 6.58141 20H17.4186C18.6897 20 19.4396 18.6455 18.7195 17.6502L15.246 12.8498C14.8757 12.3379 14.8757 11.6621 15.246 11.1502L18.7195 6.34979C19.4396 5.35454 18.6897 4 17.4186 4H6.58141ZM13.0951 15.5166C12.4299 15.0813 11.5701 15.0813 10.9049 15.5166L7.5056 17.7408C7.29772 17.8768 7.39403 18.2 7.6425 18.2H16.3575C16.6059 18.2 16.7023 17.8768 16.4943 17.7408L13.0951 15.5166Z" fill="black"/>
</svg>
