<svg width="24" height="24" viewBox="0 0 24 24" fill="none" xmlns="http://www.w3.org/2000/svg">
<path d="M10.2409 12.4353L10.6261 11.5543L11.7758 14.7267C12.0584 15.5065 13.1558 15.5214 13.4595 14.7496L14.1579 12.9747H15.9206C16.2796 12.9747 16.5706 12.6837 16.5706 12.3247C16.5706 11.9658 16.2796 11.6747 15.9206 11.6747H13.8854C13.5155 11.6747 13.1833 11.901 13.0479 12.2452L12.6374 13.2886L11.507 10.1696C11.23 9.4053 10.1619 9.37085 9.83621 10.1157L9.15459 11.6747H7.65C7.29101 11.6747 7 11.9658 7 12.3247C7 12.6837 7.29101 12.9747 7.65 12.9747H9.41626C9.77391 12.9747 10.0976 12.763 10.2409 12.4353Z" fill="black"/>
<path fill-rule="evenodd" clip-rule="evenodd" d="M4 6C4 4.89543 4.89543 4 6 4H18C19.1046 4 20 4.89543 20 6V18C20 19.1046 19.1046 20 18 20H6C4.89543 20 4 19.1046 4 18V6ZM6 5.3H18C18.3866 5.3 18.7 5.6134 18.7 6V18C18.7 18.3866 18.3866 18.7 18 18.7H6C5.6134 18.7 5.3 18.3866 5.3 18V6C5.3 5.6134 5.6134 5.3 6 5.3Z" fill="black"/>
</svg>
