<svg width="28" height="28" viewBox="0 0 28 28" fill="none" xmlns="http://www.w3.org/2000/svg">
<path d="M14.9812 5.41402C14.5151 4.86199 13.6644 4.862 13.1983 5.41402L10.506 8.60271C10.0904 9.09503 10.1525 9.8311 10.6448 10.2468C11.1371 10.6625 11.8732 10.6003 12.2889 10.108L12.9231 9.35686V15.7327C12.9231 16.3771 13.4454 16.8994 14.0898 16.8994C14.7341 16.8994 15.2564 16.3771 15.2564 15.7327V9.35686L15.8907 10.108C16.3063 10.6003 17.0424 10.6625 17.5347 10.2468C18.027 9.8311 18.0892 9.09503 17.6735 8.60271L14.9812 5.41402Z" fill="black"/>
<path d="M9.33333 10.8333C8.04467 10.8333 7 11.878 7 13.1667V21.3333C7 22.622 8.04467 23.6667 9.33333 23.6667H18.6667C19.9553 23.6667 21 22.622 21 21.3333V13.1667C21 11.878 19.9553 10.8333 18.6667 10.8333H17.1818C16.5375 10.8333 16.0152 11.3557 16.0152 12C16.0152 12.6443 16.5375 13.1667 17.1818 13.1667H17.5C18.1443 13.1667 18.6667 13.689 18.6667 14.3333V20.1667C18.6667 20.811 18.1443 21.3333 17.5 21.3333H10.5C9.85567 21.3333 9.33333 20.811 9.33333 20.1667V14.3333C9.33333 13.689 9.85567 13.1667 10.5 13.1667H10.8182C11.4625 13.1667 11.9848 12.6443 11.9848 12C11.9848 11.3557 11.4625 10.8333 10.8182 10.8333H9.33333Z" fill="black"/>
</svg>
