<svg width="24" height="24" viewBox="0 0 24 24" fill="none" xmlns="http://www.w3.org/2000/svg">
<path fill-rule="evenodd" clip-rule="evenodd" d="M18.0551 17C18.7488 17 19.2054 16.2337 18.9072 15.5701L17.8457 13.208C17.725 12.9394 17.6623 12.6456 17.6623 12.3481V10C17.6623 6.68629 15.1272 4 12 4C8.87278 4 6.33767 6.68629 6.33767 10V12.3481C6.33767 12.6456 6.27503 12.9394 6.15432 13.208L5.09283 15.5701C4.79461 16.2337 5.25124 17 5.94487 17H9.16883C9.16883 17.4657 9.26899 17.9067 9.44773 18.3C9.90485 19.3058 10.8759 20 12 20C13.1241 20 14.0951 19.3058 14.5523 18.3C14.731 17.9067 14.8312 17.4657 14.8312 17H18.0551ZM7.38116 13.5017C7.50187 13.2331 7.56451 12.9393 7.56451 12.6418V10C7.56451 7.40426 9.55034 5.3 12 5.3C14.4497 5.3 16.4355 7.40426 16.4355 10V12.6418C16.4355 12.9393 16.4981 13.2331 16.6188 13.5017L17.414 15.271C17.5034 15.4701 17.3664 15.7 17.1583 15.7H6.84166C6.63357 15.7 6.49658 15.4701 6.58605 15.271L7.38116 13.5017ZM13.6043 17H10.3957C10.3957 17.9389 11.114 18.7 12 18.7C12.886 18.7 13.6043 17.9389 13.6043 17Z" fill="black"/>
</svg>
