<svg width="16" height="16" viewBox="0 0 16 16" fill="none" xmlns="http://www.w3.org/2000/svg">
<path d="M8.99786 4.33375C8.99786 5.07036 8.40112 5.6675 7.665 5.6675C6.92888 5.6675 6.33214 5.07036 6.33214 4.33375C6.33214 3.59714 6.92888 3 7.665 3C8.40112 3 8.99786 3.59714 8.99786 4.33375Z" fill="black"/>
<path d="M6.66536 6.00094L3.66643 5.00063C3.33321 5.00063 3 5.23199 3 5.6675C3 6.10301 3.66643 6.33437 3.66643 6.33437L6.33214 7.00125V9.66875L4.99929 13.0031C4.99929 13.3366 5.3325 13.67 5.66571 13.67C6.33214 13.67 6.28962 13.4855 6.33214 13.3366C6.55429 12.5585 7.06521 10.8691 7.33179 10.3356C7.59836 9.80212 7.88714 10.1133 7.99821 10.3356L8.99786 13.3366C8.99786 13.4477 9.13114 13.67 9.66429 13.67C10.1974 13.67 10.3307 13.2254 10.3307 13.0031L8.99786 9.66875V7.00125L11.6636 6.33437C11.6636 6.33437 12.33 6.201 12.33 5.6675C12.33 5.134 11.9968 5.00063 11.6636 5.00063L8.66464 6.00094C7.99821 6.33437 7.33179 6.33437 6.66536 6.00094Z" fill="black"/>
</svg>
