<svg width="48" height="48" viewBox="0 0 48 48" fill="none" xmlns="http://www.w3.org/2000/svg">
<path fill-rule="evenodd" clip-rule="evenodd" d="M12 15C12 13.8954 12.8954 13 14 13H34C35.1046 13 36 13.8954 36 15V29C36 30.1046 35.1046 31 34 31H14C12.8954 31 12 30.1046 12 29V15ZM15.1 28.4C14.8239 28.4 14.6 28.1761 14.6 27.9V16.1C14.6 15.8239 14.8239 15.6 15.1 15.6H32.9C33.1761 15.6 33.4 15.8239 33.4 16.1V27.9C33.4 28.1761 33.1761 28.4 32.9 28.4H15.1Z" fill="black"/>
<path d="M9.3 33C8.58203 33 8 33.582 8 34.3C8 35.018 8.58203 35.6 9.3 35.6H38.7C39.418 35.6 40 35.018 40 34.3C40 33.582 39.418 33 38.7 33H9.3Z" fill="black"/>
</svg>
