<svg width="16" height="16" viewBox="0 0 16 16" fill="none" xmlns="http://www.w3.org/2000/svg">
<path fill-rule="evenodd" clip-rule="evenodd" d="M3 6.33333C3 5.59695 3.59696 5 4.33333 5H9C9.73637 5 10.3333 5.59695 10.3333 6.33333V10.3333C10.3333 11.0697 9.73637 11.6667 9 11.6667H4.33333C3.59696 11.6667 3 11.0697 3 10.3333V6.33333ZM4.33333 5.86667H9C9.25773 5.86667 9.46667 6.0756 9.46667 6.33333V10.3333C9.46667 10.5911 9.25773 10.8 9 10.8H4.33333C4.0756 10.8 3.86666 10.5911 3.86666 10.3333V6.33333C3.86666 6.0756 4.0756 5.86667 4.33333 5.86667Z" fill="black"/>
<path fill-rule="evenodd" clip-rule="evenodd" d="M13.6667 6.42336V10.2433C13.6667 10.8085 13.0074 11.1173 12.5732 10.7555L10.8428 9.31347C10.6908 9.18681 10.6029 8.99918 10.6029 8.80132V7.86535C10.6029 7.66749 10.6908 7.47986 10.8428 7.3532L12.5732 5.91121C13.0074 5.54937 13.6667 5.85813 13.6667 6.42336ZM12.8 7.20621C12.8 7.0649 12.6352 6.98771 12.5266 7.07818L11.5896 7.85907C11.5135 7.9224 11.4696 8.01623 11.4696 8.11515V8.55152C11.4696 8.65045 11.5135 8.74426 11.5896 8.8076L12.5266 9.58849C12.6352 9.67895 12.8 9.60177 12.8 9.46046V7.20621Z" fill="black"/>
</svg>
