<svg width="20" height="20" viewBox="0 0 20 20" fill="none" xmlns="http://www.w3.org/2000/svg">
<path d="M4.66667 5C3.74619 5 3 5.74619 3 6.66667V13.3333C3 14.2538 3.74619 15 4.66667 15C5.58714 15 6.33333 14.2538 6.33333 13.3333V6.66667C6.33333 5.74619 5.58714 5 4.66667 5Z" fill="black"/>
<path d="M7.625 6.95833C7.50994 6.95833 7.41667 7.05161 7.41667 7.16667V12.8333C7.41667 12.9484 7.50994 13.0417 7.625 13.0417H11.7083C11.8234 13.0417 11.9167 12.9484 11.9167 12.8333V7.16667C11.9167 7.05161 11.8234 6.95833 11.7083 6.95833H7.625Z" fill="black"/>
<path d="M13 6.66667V13.3333C13 14.2538 13.7462 15 14.6667 15C15.5871 15 16.3333 14.2538 16.3333 13.3333V6.66667C16.3333 5.74619 15.5871 5 14.6667 5C13.7462 5 13 5.74619 13 6.66667Z" fill="black"/>
</svg>
