<svg width="28" height="28" viewBox="0 0 28 28" fill="none" xmlns="http://www.w3.org/2000/svg">
<path fill-rule="evenodd" clip-rule="evenodd" d="M8.34743 5.03071C9.71559 4.87626 11.1843 5.33257 12.1066 5.76908C12.6591 6.03059 13.4658 6.15135 14.3234 6.13918L14.3346 6.13902L14.3457 6.13918C15.2031 6.15135 16.0094 6.03059 16.5617 5.76911C17.4838 5.3326 18.9522 4.87625 20.32 5.03072C21.0198 5.10974 21.7358 5.35429 22.3211 5.88791C22.9121 6.4267 23.2986 7.1953 23.4485 8.18843C23.7128 9.94055 23.7202 11.239 23.5603 12.2819C23.3985 13.3374 23.0711 14.0913 22.7243 14.748C22.3487 15.4594 21.5819 17.5647 21.5342 19.8555C21.5328 19.9207 21.5317 19.988 21.5304 20.0569C21.5192 20.692 21.5054 21.472 21.3354 22.1014C21.2375 22.4638 21.0682 22.8612 20.7481 23.1715C20.4067 23.5025 19.964 23.6667 19.4626 23.6667C18.8391 23.6667 18.3623 23.3337 18.0268 22.9655C17.6952 22.6015 17.4335 22.1323 17.2199 21.6721C17.0029 21.2045 16.8122 20.6939 16.6415 20.2195C16.5987 20.1006 16.5575 19.9847 16.5174 19.8721C16.3929 19.5227 16.2796 19.2044 16.166 18.9216C15.9435 18.3672 15.7272 17.8742 15.4249 17.513C15.1532 17.1885 14.8307 16.9904 14.3346 16.9904C13.8382 16.9904 13.5156 17.1885 13.244 17.513C12.9416 17.8743 12.7253 18.3673 12.5022 18.922C12.3881 19.2057 12.2743 19.5252 12.1492 19.8761C12.1095 19.9874 12.0687 20.102 12.0264 20.2195C11.8557 20.6937 11.665 21.2044 11.4479 21.672C11.2343 22.1321 10.9726 22.6014 10.641 22.9654C10.3055 23.3337 9.82861 23.6667 9.2051 23.6667C8.70357 23.6667 8.26082 23.5025 7.91943 23.1714C7.59941 22.861 7.43032 22.4635 7.33257 22.1012C7.16364 21.475 7.14911 20.6988 7.13726 20.066C7.13592 19.9942 7.13461 19.9243 7.13311 19.8566C7.08254 17.5701 6.30764 15.4675 5.93667 14.7367C5.59595 14.0654 5.26848 13.3137 5.10648 12.2642C4.94631 11.2266 4.95393 9.94003 5.21828 8.1884C5.36817 7.19521 5.75482 6.4266 6.34595 5.88783C6.9314 5.35424 7.6475 5.10973 8.34743 5.03071Z" fill="black"/>
</svg>
