<svg width="20" height="20" viewBox="0 0 20 20" fill="none" xmlns="http://www.w3.org/2000/svg">
<path fill-rule="evenodd" clip-rule="evenodd" d="M5.39102 3.02194C6.36828 2.91161 7.41737 3.23755 8.07614 3.54934C8.47081 3.73613 9.04699 3.82239 9.65958 3.8137L9.66756 3.81359L9.67553 3.8137C10.2879 3.82239 10.8639 3.73614 11.2584 3.54937C11.917 3.23757 12.9658 2.9116 13.9429 3.02194C14.4427 3.07839 14.9541 3.25306 15.3722 3.63422C15.7944 4.01907 16.0704 4.56807 16.1775 5.27745C16.3663 6.52897 16.3716 7.4564 16.2574 8.20136C16.1418 8.95531 15.908 9.49381 15.6602 9.96289C15.3919 10.471 14.8442 11.9748 14.8101 13.6111C14.8092 13.6576 14.8083 13.7057 14.8075 13.7549C14.7994 14.2085 14.7896 14.7657 14.6681 15.2153C14.5982 15.4742 14.4773 15.758 14.2487 15.9797C14.0048 16.2161 13.6886 16.3333 13.3304 16.3333C12.8851 16.3333 12.5445 16.0955 12.3049 15.8325C12.068 15.5725 11.8811 15.2373 11.7285 14.9087C11.5735 14.5747 11.4373 14.2099 11.3154 13.8711C11.2848 13.7861 11.2554 13.7034 11.2267 13.6229C11.1378 13.3733 11.0568 13.146 10.9757 12.944C10.8168 12.548 10.6623 12.1959 10.4463 11.9379C10.2523 11.7061 10.022 11.5646 9.66756 11.5646C9.31297 11.5646 9.08261 11.7061 8.88859 11.9379C8.67257 12.1959 8.51807 12.5481 8.35871 12.9443C8.27723 13.1469 8.1959 13.3751 8.10656 13.6258C8.07821 13.7053 8.04906 13.7871 8.01884 13.8711C7.89692 14.2098 7.76069 14.5746 7.60565 14.9086C7.45309 15.2372 7.26613 15.5724 7.02929 15.8324C6.78962 16.0955 6.44901 16.3333 6.00364 16.3333C5.6454 16.3333 5.32916 16.2161 5.08531 15.9796C4.85672 15.7578 4.73594 15.4739 4.66612 15.2151C4.54546 14.7678 4.53508 14.2134 4.52662 13.7614C4.52566 13.7102 4.52472 13.6602 4.52365 13.6118C4.48753 11.9786 3.93403 10.4768 3.66905 9.95475C3.42568 9.47528 3.19177 8.93832 3.07606 8.18872C2.96165 7.44756 2.96709 6.52859 3.15591 5.27743C3.26298 4.56801 3.53916 4.019 3.9614 3.63416C4.37957 3.25303 4.89107 3.07838 5.39102 3.02194Z" fill="black"/>
</svg>
