<svg width="28" height="28" viewBox="0 0 28 28" fill="none" xmlns="http://www.w3.org/2000/svg">
<path d="M10.8333 14.3333C11.4777 14.3333 12 13.811 12 13.1667C12 12.5223 11.4777 12 10.8333 12C10.189 12 9.66667 12.5223 9.66667 13.1667C9.66667 13.811 10.189 14.3333 10.8333 14.3333Z" fill="black"/>
<path d="M19 13.1667C19 13.811 18.4777 14.3333 17.8333 14.3333C17.189 14.3333 16.6667 13.811 16.6667 13.1667C16.6667 12.5223 17.189 12 17.8333 12C18.4777 12 19 12.5223 19 13.1667Z" fill="black"/>
<path d="M14.3333 20.1667C15.622 20.1667 16.6667 19.122 16.6667 17.8333C16.6667 16.5447 15.622 15.5 14.3333 15.5C13.0447 15.5 12 16.5447 12 17.8333C12 19.122 13.0447 20.1667 14.3333 20.1667Z" fill="black"/>
<path fill-rule="evenodd" clip-rule="evenodd" d="M23.6667 14.3333C23.6667 19.488 19.488 23.6667 14.3333 23.6667C9.17868 23.6667 5 19.488 5 14.3333C5 9.17868 9.17868 5 14.3333 5C19.488 5 23.6667 9.17868 23.6667 14.3333ZM22.15 14.3333C22.15 18.6504 18.6504 22.15 14.3333 22.15C10.0163 22.15 6.51667 18.6504 6.51667 14.3333C6.51667 10.0163 10.0163 6.51667 14.3333 6.51667C18.6504 6.51667 22.15 10.0163 22.15 14.3333Z" fill="black"/>
</svg>
