<svg width="32" height="32" viewBox="0 0 32 32" fill="none" xmlns="http://www.w3.org/2000/svg">
<path d="M21.1134 11.3578C21.0998 11.5665 20.9821 11.7541 20.8008 11.856L17.4937 13.7161C17.3835 13.7781 17.4272 13.9472 17.5535 13.9472H20.2044C20.5611 13.9472 20.8424 14.2529 20.8153 14.6112L20.3972 20.1373C20.3783 20.3876 20.2107 20.6014 19.9734 20.678L16.543 21.7854C16.4221 21.8245 16.2921 21.8247 16.171 21.7861L12.6956 20.6773C12.4571 20.6012 12.2885 20.3866 12.2697 20.1353L12.1323 18.2938C12.0884 17.7048 12.551 17.2026 13.1374 17.2026C13.6748 17.2026 14.1177 17.6273 14.144 18.1679L14.1697 18.6935C14.176 18.8235 14.2628 18.9356 14.3865 18.9735L16.267 19.5498C16.3257 19.5678 16.3885 19.5676 16.4471 19.5492L18.2834 18.9739C18.4055 18.9357 18.4911 18.8251 18.4983 18.6965L18.6049 16.7734C18.6246 16.4196 18.345 16.1219 17.9933 16.1219H12.5194C12.2008 16.1219 11.9354 15.876 11.9089 15.5562L11.7982 14.2222C11.7783 13.9815 11.8995 13.7512 12.1086 13.6329L15.1283 11.9235C15.2382 11.8612 15.1944 11.6925 15.0683 11.6925H12.6243C12.0635 11.6925 11.5949 11.2624 11.5429 10.6999C11.4836 10.0584 11.9847 9.50446 12.6243 9.50446H20.5801C20.9342 9.50446 21.2146 9.80603 21.1914 10.162L21.1134 11.3578Z" fill="black"/>
<path fill-rule="evenodd" clip-rule="evenodd" d="M8.22533 5C7.50581 5 6.94117 5.62155 7.00491 6.34343L8.50635 23.3467C8.55152 23.8583 8.90661 24.2882 9.39785 24.4261L16.031 26.288C16.247 26.3487 16.4754 26.3484 16.6912 26.2874L23.2711 24.4261C23.7612 24.2875 24.1152 23.858 24.1603 23.3473L25.6618 6.34343C25.7255 5.62155 25.1609 5 24.4413 5H8.22533ZM10.2745 23.0067C10.1517 22.9723 10.0629 22.8648 10.0516 22.7369L8.65671 6.94019C8.64077 6.75972 8.78193 6.60433 8.96181 6.60433H23.7049C23.8847 6.60433 24.0259 6.75972 24.01 6.94019L22.6149 22.7385C22.6037 22.8662 22.5152 22.9735 22.3926 23.0082L16.4421 24.6915C16.3881 24.7067 16.331 24.7068 16.277 24.6916L10.2745 23.0067Z" fill="black"/>
</svg>
