<svg width="48" height="48" viewBox="0 0 48 48" fill="none" xmlns="http://www.w3.org/2000/svg">
<path fill-rule="evenodd" clip-rule="evenodd" d="M18 30H12C9.79086 30 8 28.2091 8 26V12C8 9.79086 9.79086 8 12 8H26C28.2091 8 30 9.79086 30 12V18H36C38.2091 18 40 19.7909 40 22V36C40 38.2091 38.2091 40 36 40H22C19.7909 40 18 38.2091 18 36V30ZM12.9858 10.6H12C11.2268 10.6 10.6 11.2268 10.6 12V12.9858L12.9858 10.6ZM10.6 15.8142L15.8142 10.6H16.9858L10.6 16.9858V15.8142ZM20.9858 10.6H19.8142L10.6 19.8142V20.9858L20.9858 10.6ZM23.8142 10.6H24.9858L10.6 24.9858V23.8142L23.8142 10.6ZM27.4 12C27.4 11.7194 27.3174 11.458 27.1753 11.2389L11.2389 27.1753C11.458 27.3174 11.7194 27.4 12 27.4H12.1858L27.4 12.1858V12ZM27.4 15.0142L15.0142 27.4H16.1858L27.4 16.1858V15.0142ZM20.1858 27.4H19.0142L27.4 19.0142V20.1858L20.1858 27.4ZM20.6 29.8142V30.9858L30.9858 20.6H29.8142L20.6 29.8142ZM20.6 34.9858V33.8142L33.8142 20.6H34.9858L20.6 34.9858ZM21.2389 37.1753C21.458 37.3174 21.7194 37.4 22 37.4H22.1858L37.4 22.1858V22C37.4 21.7194 37.3174 21.458 37.1753 21.2389L21.2389 37.1753ZM26.1858 37.4H25.0142L37.4 25.0142V26.1858L26.1858 37.4ZM29.0142 37.4H30.1858L37.4 30.1858V29.0142L29.0142 37.4ZM34.1858 37.4H33.0142L37.4 33.0142V34.1858L34.1858 37.4Z" fill="black"/>
</svg>
