<svg width="20" height="20" viewBox="0 0 20 20" fill="none" xmlns="http://www.w3.org/2000/svg">
<path d="M9.66667 4C7.75405 4 6.14668 5.24483 5.74092 6.92226C5.68253 7.16361 5.50117 7.2767 5.37269 7.2767H5.26259C4.02046 7.2767 3 8.21512 3 9.38835C3 10.0977 3.37309 10.7213 3.94268 11.1035C4.03546 10.78 4.18419 10.4821 4.3769 10.2174C4.14466 10.0051 4.00193 9.71053 4.00193 9.38835C4.00193 8.75191 4.55888 8.2233 5.26259 8.2233H5.37269C6.09553 8.2233 6.58637 7.67589 6.71766 7.13316C7.01928 5.88627 8.22129 4.9466 9.66667 4.9466C10.4535 4.9466 11.1682 5.22507 11.7048 5.67997C12.246 5.71885 12.7657 5.84202 13.2473 6.0369C12.5785 4.82505 11.2238 4 9.66667 4Z" fill="black"/>
<path d="M7.40758 9.42226C7.81335 7.74483 9.42072 6.5 11.3333 6.5C13.2459 6.5 14.8533 7.74483 15.2591 9.42226C15.3175 9.66361 15.4988 9.7767 15.6273 9.7767H15.7374C16.9795 9.7767 18 10.7151 18 11.8883C18 13.0616 16.9795 14 15.7374 14H12.9931C12.9729 13.6546 12.8404 13.3195 12.611 13.0534H15.7374C16.4411 13.0534 16.9981 12.5248 16.9981 11.8883C16.9981 11.2519 16.4411 10.7233 15.7374 10.7233H15.6273C14.9045 10.7233 14.4136 10.1759 14.2823 9.63316C13.9807 8.38627 12.7787 7.4466 11.3333 7.4466C9.88796 7.4466 8.68595 8.38627 8.38433 9.63316C8.25304 10.1759 7.76219 10.7233 7.03936 10.7233H6.92926C6.22555 10.7233 5.66859 11.2519 5.66859 11.8883C5.66859 12.5248 6.22555 13.0534 6.92926 13.0534H8.45393C8.44701 13.3886 8.54596 13.7223 8.73958 14H6.92926C5.68713 14 4.66667 13.0616 4.66667 11.8883C4.66667 10.7151 5.68713 9.7767 6.92926 9.7767H7.03936C7.16784 9.7767 7.3492 9.66361 7.40758 9.42226Z" fill="black"/>
<path d="M12.1516 13.9649C12.1536 13.9766 12.1553 13.9883 12.1567 14C12.1798 14.1904 12.1306 14.3913 11.9975 14.5577L10.5063 16.4217C10.3194 16.6553 9.97853 16.6932 9.74493 16.5063C9.51133 16.3194 9.47346 15.9786 9.66034 15.745L10.8709 14.2318L9.75886 13.7869C9.25894 13.587 9.1263 12.941 9.50704 12.5602L10.9503 11.117C11.1618 10.9054 11.5048 10.9054 11.7163 11.117C11.9279 11.3285 11.9279 11.6715 11.7163 11.883L10.6305 12.9688L11.6904 13.3928C11.9005 13.4768 12.0473 13.6412 12.1167 13.8325C12.1323 13.8755 12.144 13.9199 12.1516 13.9649Z" fill="black"/>
</svg>
