<svg width="16" height="16" viewBox="0 0 16 16" fill="none" xmlns="http://www.w3.org/2000/svg">
<path d="M2.73973 2.12692C2.5705 1.95769 2.29614 1.95769 2.12692 2.12692C1.95769 2.29614 1.95769 2.5705 2.12692 2.73973L13.2603 13.8731C13.4295 14.0423 13.7039 14.0423 13.8731 13.8731C14.0423 13.7039 14.0423 13.4295 13.8731 13.2603L2.73973 2.12692Z" fill="black"/>
<path d="M3.34937 9.75635L5.88621 7.21951L6.55127 7.88457L4.10689 10.329C4.08321 10.3526 4.06708 10.3828 4.06051 10.4156L3.7295 12.0707C3.70577 12.1893 3.81038 12.2939 3.92904 12.2702L5.58407 11.9392C5.6169 11.9326 5.64705 11.9165 5.67072 11.8928L8.11512 9.44841L8.78018 10.1135L6.24333 12.6503C6.14864 12.745 6.02804 12.8096 5.89674 12.8358L3.47832 13.3195C3.00372 13.4144 2.58528 12.996 2.6802 12.5214L3.16388 10.1029C3.19014 9.97164 3.25469 9.85104 3.34937 9.75635Z" fill="black"/>
<path fill-rule="evenodd" clip-rule="evenodd" d="M7.21951 5.88621L7.88457 6.55127L9.53723 4.89861C9.60345 4.83239 9.71082 4.83239 9.77704 4.89861L11.1011 6.22265C11.1673 6.28887 11.1673 6.39623 11.1011 6.46245L9.44841 8.11511L10.1135 8.78018L12.6095 6.28412L12.6051 6.27973C13.0503 5.90415 13.333 5.34216 13.333 4.71413C13.333 3.58334 12.4164 2.66665 11.2856 2.66665C10.6575 2.66665 10.0956 2.94941 9.71998 3.39456L9.71557 3.39015L7.21951 5.88621ZM10.482 3.95266C10.4246 4.01319 10.4329 4.10744 10.4919 4.16645L11.8333 5.50784C11.8923 5.56685 11.9865 5.57511 12.047 5.51766C12.2598 5.31575 12.3925 5.03015 12.3925 4.71413C12.3925 4.10278 11.8969 3.60719 11.2856 3.60719C10.9696 3.60719 10.6839 3.73992 10.482 3.95266Z" fill="black"/>
</svg>
