<svg width="32" height="32" viewBox="0 0 32 32" fill="none" xmlns="http://www.w3.org/2000/svg">
<path d="M9.39687 5.39795C7.18826 5.39795 5.39783 7.18838 5.39783 9.39699V11.708C5.39783 12.4442 5.99464 13.041 6.73084 13.041C7.46705 13.041 8.06386 12.4442 8.06386 11.708V9.39699C8.06386 8.66079 8.66067 8.06398 9.39687 8.06398H11.7079C12.4441 8.06398 13.0409 7.46717 13.0409 6.73096C13.0409 5.99476 12.4441 5.39795 11.7079 5.39795H9.39687Z" fill="black"/>
<path d="M8.06386 20.4179C8.06386 19.6817 7.46705 19.0849 6.73084 19.0849C5.99464 19.0849 5.39783 19.6817 5.39783 20.4179V22.7289C5.39783 24.9375 7.18826 26.7279 9.39687 26.7279H11.7079C12.4441 26.7279 13.0409 26.1311 13.0409 25.3949C13.0409 24.6587 12.4441 24.0619 11.7079 24.0619H9.39687C8.66067 24.0619 8.06386 23.4651 8.06386 22.7289V20.4179Z" fill="black"/>
<path d="M25.3947 19.0849C26.1309 19.0849 26.7278 19.6817 26.7278 20.4179V22.7289C26.7278 24.9375 24.9373 26.7279 22.7287 26.7279H20.4177C19.6815 26.7279 19.0847 26.1311 19.0847 25.3949C19.0847 24.6587 19.6815 24.0619 20.4177 24.0619H22.7287C23.4649 24.0619 24.0617 23.4651 24.0617 22.7289V20.4179C24.0617 19.6817 24.6585 19.0849 25.3947 19.0849Z" fill="black"/>
<path d="M20.4177 5.39795C19.6815 5.39795 19.0847 5.99476 19.0847 6.73096C19.0847 7.46717 19.6815 8.06398 20.4177 8.06398H22.7287C23.4649 8.06398 24.0617 8.66079 24.0617 9.39699V11.708C24.0617 12.4442 24.6585 13.041 25.3947 13.041C26.1309 13.041 26.7278 12.4442 26.7278 11.708V9.39699C26.7278 7.18838 24.9373 5.39795 22.7287 5.39795H20.4177Z" fill="black"/>
</svg>
