<svg width="16" height="16" viewBox="0 0 16 16" fill="none" xmlns="http://www.w3.org/2000/svg">
<path d="M4.8223 6.82214C5.92678 6.82214 6.82214 5.92678 6.82214 4.8223L6.82214 3.66661C6.82214 3.29845 6.52369 3 6.15553 3C5.78737 3 5.48892 3.29845 5.48892 3.66661V4.8223C5.48892 5.19046 5.19046 5.48891 4.8223 5.48891L3.66661 5.48891C3.29845 5.48891 3 5.78737 3 6.15553C3 6.52368 3.29845 6.82214 3.66661 6.82214L4.8223 6.82214Z" fill="black"/>
<path d="M5.48892 13.0001C5.48892 13.3682 5.78737 13.6667 6.15553 13.6667C6.52369 13.6667 6.82214 13.3682 6.82214 13.0001V11.8444C6.82214 10.7399 5.92678 9.84453 4.82231 9.84453H3.66661C3.29845 9.84453 3 10.143 3 10.5111C3 10.8793 3.29845 11.1778 3.66661 11.1778H4.82231C5.19047 11.1778 5.48892 11.4762 5.48892 11.8444L5.48892 13.0001Z" fill="black"/>
<path d="M10.5111 13.6667C10.1429 13.6667 9.84449 13.3682 9.84449 13.0001L9.84449 11.8444C9.84449 10.7399 10.7398 9.84453 11.8443 9.84453H13C13.3682 9.84453 13.6666 10.143 13.6666 10.5111C13.6666 10.8793 13.3682 11.1778 13 11.1778H11.8443C11.4762 11.1778 11.1777 11.4762 11.1777 11.8444L11.1777 13.0001C11.1777 13.3682 10.8793 13.6667 10.5111 13.6667Z" fill="black"/>
<path d="M13 6.82214C13.3682 6.82214 13.6666 6.52369 13.6666 6.15553C13.6666 5.78737 13.3682 5.48892 13 5.48892H11.8443C11.4762 5.48892 11.1777 5.19046 11.1777 4.82231V3.66661C11.1777 3.29845 10.8793 3 10.5111 3C10.1429 3 9.84449 3.29845 9.84449 3.66661V4.82231C9.84449 5.92678 10.7398 6.82214 11.8443 6.82214H13Z" fill="black"/>
</svg>
