<svg width="32" height="32" viewBox="0 0 32 32" fill="none" xmlns="http://www.w3.org/2000/svg">
<path fill-rule="evenodd" clip-rule="evenodd" d="M14.7454 5.60356C15.0945 4.79882 16.2388 4.79881 16.588 5.60356L24.2552 23.2744C24.4638 23.7553 24.235 24.281 23.8027 24.4885C18.6799 26.9483 12.6534 26.9483 7.53066 24.4885C7.09834 24.281 6.86951 23.7553 7.07815 23.2745L14.7454 5.60356ZM15.368 8.4275C15.4817 8.16552 15.8517 8.16552 15.9653 8.4275L22.2689 22.9557C22.3413 23.1223 22.2645 23.3166 22.0966 23.3845C17.9869 25.0477 13.3464 25.0477 9.23676 23.3845C9.06887 23.3166 8.99208 23.1223 9.06439 22.9557L15.368 8.4275Z" fill="black"/>
</svg>
