<svg width="28" height="28" viewBox="0 0 28 28" fill="none" xmlns="http://www.w3.org/2000/svg">
<path fill-rule="evenodd" clip-rule="evenodd" d="M13.6099 5.24375L5.46836 11.4391C5.06755 11.7441 4.9029 12.2674 5.05724 12.7457L7.9388 21.6762C8.0972 22.1671 8.55566 22.5 9.07332 22.5H19.5933C20.111 22.5 20.5695 22.1671 20.7279 21.6762L23.6094 12.7457C23.7638 12.2674 23.5991 11.7441 23.1983 11.4391L15.0567 5.24375C14.6296 4.91875 14.037 4.91875 13.6099 5.24375ZM6.92808 12.2342C6.71535 12.3961 6.62794 12.6746 6.71003 12.929L9.16805 20.5468C9.25201 20.807 9.49421 20.9833 9.76761 20.9833H18.8991C19.1725 20.9833 19.4147 20.807 19.4986 20.5468L21.9566 12.929C22.0387 12.6746 21.9513 12.3961 21.7386 12.2342L14.7148 6.88943C14.4894 6.7179 14.1772 6.7179 13.9518 6.88943L6.92808 12.2342Z" fill="black"/>
</svg>
