<svg width="20" height="20" viewBox="0 0 20 20" fill="none" xmlns="http://www.w3.org/2000/svg">
<path fill-rule="evenodd" clip-rule="evenodd" d="M5 6.33333C5 4.49238 6.49238 3 8.33333 3H11.6667C13.5076 3 15 4.49238 15 6.33333V11.3333C15 14.0948 12.7614 16.3333 10 16.3333C7.23858 16.3333 5 14.0948 5 11.3333V6.33333ZM10.5417 4.29167C10.5417 4.17661 10.6349 4.08333 10.75 4.08333H11.6667C12.9093 4.08333 13.9167 5.09069 13.9167 6.33333V11.3333C13.9167 13.4964 12.1631 15.25 10 15.25C7.83688 15.25 6.08333 13.4964 6.08333 11.3333V6.33333C6.08333 5.09069 7.09069 4.08333 8.33333 4.08333H9.25C9.36506 4.08333 9.45833 4.17661 9.45833 4.29167V8C9.45833 8.29915 9.70085 8.54167 10 8.54167C10.2992 8.54167 10.5417 8.29915 10.5417 8V4.29167Z" fill="black"/>
</svg>
