<svg width="32" height="32" viewBox="0 0 32 32" fill="none" xmlns="http://www.w3.org/2000/svg">
<path d="M7 6.30859C7 5.58588 7.62828 5 8.40329 5H24.2605C25.0355 5 25.6637 5.58587 25.6637 6.30859V8.27147C25.6637 8.74124 25.2554 9.12206 24.7516 9.12206C24.2479 9.12206 23.8395 8.74124 23.8395 8.27147V7.02831C23.8395 6.84763 23.6824 6.70117 23.4887 6.70117H17.5948C17.4011 6.70117 17.244 6.84763 17.244 7.02831V24.3017C17.244 24.4824 17.4011 24.6288 17.5948 24.6288H19.6296C20.1334 24.6288 20.5417 25.0097 20.5417 25.4794C20.5417 25.9492 20.1334 26.33 19.6296 26.33H13.0341C12.5304 26.33 12.122 25.9492 12.122 25.4794C12.122 25.0097 12.5304 24.6288 13.0341 24.6288H15.0689C15.2627 24.6288 15.4197 24.4824 15.4197 24.3017V7.02831C15.4197 6.84763 15.2627 6.70117 15.0689 6.70117H9.1751C8.98134 6.70117 8.82428 6.84763 8.82428 7.02831V8.27147C8.82428 8.74124 8.4159 9.12206 7.91214 9.12206C7.40838 9.12206 7 8.74124 7 8.27147V6.30859Z" fill="black"/>
</svg>
