<svg width="28" height="28" viewBox="0 0 28 28" fill="none" xmlns="http://www.w3.org/2000/svg">
<path fill-rule="evenodd" clip-rule="evenodd" d="M11.6667 14.3333C11.6667 14.9777 11.1443 15.5 10.5 15.5C9.85567 15.5 9.33333 14.9777 9.33333 14.3333C9.33333 13.689 9.85567 13.1667 10.5 13.1667C11.1443 13.1667 11.6667 13.689 11.6667 14.3333Z" fill="black"/>
<path fill-rule="evenodd" clip-rule="evenodd" d="M7 7.33333C7 6.04467 8.04467 5 9.33333 5H18.6667C19.9553 5 21 6.04467 21 7.33333V21.3333C21 22.622 19.9553 23.6667 18.6667 23.6667H9.33333C8.04467 23.6667 7 22.622 7 21.3333V7.33333ZM9.33333 6.51667H18.6667C19.1177 6.51667 19.4833 6.8823 19.4833 7.33333V21.3333C19.4833 21.7844 19.1177 22.15 18.6667 22.15H9.33333C8.8823 22.15 8.51667 21.7844 8.51667 21.3333V7.33333C8.51667 6.8823 8.8823 6.51667 9.33333 6.51667Z" fill="black"/>
</svg>
