<svg width="16" height="16" viewBox="0 0 16 16" fill="none" xmlns="http://www.w3.org/2000/svg">
<path d="M8.23333 10.3333V7.30095L7.64337 7.90513C7.47617 8.07636 7.20182 8.07963 7.03059 7.91243C6.85936 7.74523 6.85609 7.47088 7.02329 7.29965L8.24282 6.05072C8.57169 5.71393 9.1 5.97456 9.1 6.40174V10.3333C9.1 10.5727 8.90599 10.7667 8.66667 10.7667C8.42734 10.7667 8.23333 10.5727 8.23333 10.3333Z" fill="black"/>
<path fill-rule="evenodd" clip-rule="evenodd" d="M13.6667 8.33333C13.6667 11.2789 11.2789 13.6667 8.33333 13.6667C5.38781 13.6667 3 11.2789 3 8.33333C3 5.38781 5.38781 3 8.33333 3C11.2789 3 13.6667 5.38781 13.6667 8.33333ZM12.8 8.33333C12.8 10.8002 10.8002 12.8 8.33333 12.8C5.86646 12.8 3.86667 10.8002 3.86667 8.33333C3.86667 5.86646 5.86646 3.86667 8.33333 3.86667C10.8002 3.86667 12.8 5.86646 12.8 8.33333Z" fill="black"/>
</svg>
