<svg width="24" height="24" viewBox="0 0 24 24" fill="none" xmlns="http://www.w3.org/2000/svg">
<path fill-rule="evenodd" clip-rule="evenodd" d="M9.58565 5.85195C9.44106 6.21593 9.36664 6.60603 9.36664 7L9.15804 7C8.18377 7 7.36427 7.76157 7.25259 8.77075L6.25666 17.7708C6.12525 18.9583 7.01567 20 8.16211 20H16.3254C17.4719 20 18.3623 18.9583 18.2309 17.7708L17.235 8.77075C17.1233 7.76157 16.3038 7 15.3295 7L15.1209 7C15.1209 6.60603 15.0465 6.21593 14.9019 5.85195C14.8815 5.80062 14.8598 5.74995 14.8368 5.7C14.6964 5.39573 14.5077 5.11797 14.2782 4.87868C14.0111 4.6001 13.6939 4.37913 13.3448 4.22836C12.9957 4.0776 12.6216 4 12.2438 4C11.8659 4 11.4918 4.0776 11.1427 4.22836C10.7937 4.37913 10.4765 4.6001 10.2093 4.87868C9.97984 5.11797 9.79111 5.39573 9.6508 5.7C9.62777 5.74995 9.60604 5.80062 9.58565 5.85195ZM10.6489 6.31117C10.5621 6.52956 10.5175 6.76362 10.5175 7L13.9701 7C13.9701 6.76362 13.9254 6.52956 13.8387 6.31117C13.7519 6.09278 13.6247 5.89435 13.4644 5.72721C13.3041 5.56006 13.1138 5.42748 12.9044 5.33702C12.695 5.24656 12.4705 5.2 12.2438 5.2C12.0171 5.2 11.7926 5.24656 11.5832 5.33702C11.3737 5.42748 11.1834 5.56006 11.0231 5.72721C10.8628 5.89435 10.7357 6.09278 10.6489 6.31117ZM9.15804 8.3H15.3295C15.6705 8.3 15.9573 8.56655 15.9964 8.91976L16.9923 17.9198C17.0383 18.3354 16.7267 18.7 16.3254 18.7H8.16211C7.76086 18.7 7.44921 18.3354 7.4952 17.9198L8.49114 8.91976C8.53022 8.56655 8.81705 8.3 9.15804 8.3Z" fill="black"/>
</svg>
