<svg width="16" height="16" viewBox="0 0 16 16" fill="none" xmlns="http://www.w3.org/2000/svg">
<path fill-rule="evenodd" clip-rule="evenodd" d="M4.33333 3C3.59695 3 3 3.59695 3 4.33333V12.3333C3 13.0697 3.59695 13.6667 4.33333 13.6667H12.3333C13.0697 13.6667 13.6667 13.0697 13.6667 12.3333V4.33333C13.6667 3.59695 13.0697 3 12.3333 3H4.33333ZM7.61869 11.3261C7.43858 11.4837 7.16481 11.4655 7.00722 11.2854L5.05801 9.05769C4.69512 8.64296 4.69512 8.02371 5.05801 7.60898L7.00722 5.38131C7.16481 5.20121 7.43858 5.18295 7.61868 5.34055C7.79879 5.49815 7.81705 5.77191 7.65945 5.95202L5.71024 8.17968C5.63327 8.26766 5.63327 8.39901 5.71024 8.48698L7.65945 10.7146C7.81705 10.8948 7.79879 11.1685 7.61869 11.3261ZM9.04798 5.34055C9.22809 5.18295 9.50185 5.20121 9.65945 5.38131L11.6087 7.60898C11.9715 8.02371 11.9715 8.64296 11.6087 9.05769L9.65945 11.2854C9.50185 11.4655 9.22809 11.4837 9.04798 11.3261C8.86787 11.1685 8.84962 10.8948 9.00722 10.7146L10.9564 8.48698C11.0334 8.39901 11.0334 8.26766 10.9564 8.17968L9.00722 5.95202C8.84962 5.77191 8.86787 5.49815 9.04798 5.34055Z" fill="black"/>
</svg>
