<svg width="48" height="48" viewBox="0 0 48 48" fill="none" xmlns="http://www.w3.org/2000/svg">
<path fill-rule="evenodd" clip-rule="evenodd" d="M8 12C8 9.79086 9.79086 8 12 8H36C38.2091 8 40 9.79086 40 12V36C40 38.2091 38.2091 40 36 40H12C9.79086 40 8 38.2091 8 36V12ZM14.2 20.5C14.2 19.782 14.782 19.2 15.5 19.2H32.5C33.218 19.2 33.8 19.782 33.8 20.5C33.8 21.218 33.218 21.8 32.5 21.8H15.5C14.782 21.8 14.2 21.218 14.2 20.5ZM20.5 26.2C19.782 26.2 19.2 26.782 19.2 27.5C19.2 28.218 19.782 28.8 20.5 28.8H32.5C33.218 28.8 33.8 28.218 33.8 27.5C33.8 26.782 33.218 26.2 32.5 26.2H20.5Z" fill="black"/>
</svg>
