<svg width="24" height="24" viewBox="0 0 24 24" fill="none" xmlns="http://www.w3.org/2000/svg">
<path d="M12.001 4C12.36 4 12.651 4.29101 12.651 4.65V7.18274L14.5252 5.62085C14.801 5.39103 15.2109 5.42829 15.4407 5.70407C15.6705 5.97985 15.6333 6.38972 15.3575 6.61954L12.651 8.87496V11.351H15.127L17.3824 8.64446C17.6122 8.36868 18.0221 8.33142 18.2979 8.56124C18.5736 8.79106 18.6109 9.20092 18.3811 9.4767L16.8192 11.351H19.3519C19.7109 11.351 20.0019 11.642 20.0019 12.001C20.0019 12.36 19.7109 12.651 19.3519 12.651H16.8192L18.3811 14.5252C18.6109 14.801 18.5736 15.2109 18.2979 15.4407C18.0221 15.6705 17.6122 15.6333 17.3824 15.3575L15.127 12.651H12.651V15.127L15.3575 17.3824C15.6333 17.6122 15.6705 18.0221 15.4407 18.2979C15.2109 18.5736 14.801 18.6109 14.5252 18.3811L12.651 16.8192V19.3519C12.651 19.7109 12.36 20.0019 12.001 20.0019C11.642 20.0019 11.351 19.7109 11.351 19.3519V16.8192L9.4767 18.3811C9.20092 18.6109 8.79106 18.5736 8.56124 18.2979C8.33142 18.0221 8.36868 17.6122 8.64446 17.3824L11.351 15.127V12.651H8.87496L6.61954 15.3575C6.38972 15.6333 5.97985 15.6705 5.70407 15.4407C5.42829 15.2109 5.39103 14.801 5.62085 14.5252L7.18274 12.651H4.65C4.29101 12.651 4 12.36 4 12.001C4 11.642 4.29101 11.351 4.65 11.351H7.18274L5.62085 9.4767C5.39103 9.20092 5.42829 8.79106 5.70407 8.56124C5.97985 8.33142 6.38972 8.36868 6.61954 8.64446L8.87496 11.351H11.351V8.87496L8.64446 6.61954C8.36868 6.38972 8.33142 5.97985 8.56124 5.70407C8.79106 5.42829 9.20092 5.39103 9.4767 5.62085L11.351 7.18274V4.65C11.351 4.29101 11.642 4 12.001 4Z" fill="black"/>
</svg>
