<svg width="20" height="20" viewBox="0 0 20 20" fill="none" xmlns="http://www.w3.org/2000/svg">
<path d="M10.1164 7.95032C9.90706 7.73878 9.56773 7.73878 9.35844 7.95032C9.14916 8.16185 9.14916 8.50482 9.35844 8.71635L10.4835 9.85347C10.5638 9.93465 10.5638 10.0654 10.4835 10.1465L9.35844 11.2837C9.14916 11.4952 9.14916 11.8381 9.35844 12.0497C9.56773 12.2612 9.90706 12.2612 10.1164 12.0497L11.2383 10.9157C11.3198 10.8333 11.4529 10.8333 11.5345 10.9157L12.6564 12.0497C12.8657 12.2612 13.205 12.2612 13.4143 12.0497C13.6236 11.8381 13.6236 11.4952 13.4143 11.2837L12.2893 10.1465C12.2089 10.0654 12.2089 9.93465 12.2893 9.85347L13.4143 8.71635C13.6236 8.50482 13.6236 8.16185 13.4143 7.95032C13.205 7.73878 12.8657 7.73878 12.6564 7.95032L11.5345 9.08428C11.4529 9.16669 11.3198 9.16669 11.2383 9.08428L10.1164 7.95032Z" fill="black"/>
<path fill-rule="evenodd" clip-rule="evenodd" d="M6.78094 5.48816C7.09019 5.17559 7.50961 5 7.94695 5H14.6844C15.5951 5 16.3333 5.74619 16.3333 6.66667V13.3333C16.3333 14.2538 15.5951 15 14.6844 15H7.94695C7.50961 15 7.09019 14.8244 6.78094 14.5118L3.48298 11.1785C2.83901 10.5276 2.83901 9.47236 3.48298 8.82149L6.78094 5.48816ZM7.94695 6.08333H14.6844C15.0031 6.08333 15.2615 6.3445 15.2615 6.66667V13.3333C15.2615 13.6555 15.0031 13.9167 14.6844 13.9167H7.94695C7.79388 13.9167 7.64708 13.8552 7.53885 13.7458L4.24088 10.4125C4.01549 10.1847 4.01549 9.81533 4.24088 9.58752L7.53885 6.25419C7.64709 6.14479 7.79388 6.08333 7.94695 6.08333Z" fill="black"/>
</svg>
