<svg width="20" height="20" viewBox="0 0 20 20" fill="none" xmlns="http://www.w3.org/2000/svg">
<path fill-rule="evenodd" clip-rule="evenodd" d="M12.9995 5.39187C12.9995 6.71286 11.8803 12.5675 10.4997 12.5675C9.11917 12.5675 8 6.71286 8 5.39187C8 4.07088 9.11917 3 10.4997 3C11.8803 3 12.9995 4.07088 12.9995 5.39187ZM11.9162 5.39187C11.9162 5.90988 11.6652 7.59522 11.2236 9.18517C11.0551 9.79179 10.8624 10.3554 10.67 10.7968C10.603 10.9506 10.3965 10.9506 10.3294 10.7968C10.137 10.3554 9.94434 9.79179 9.77586 9.18517C9.33428 7.59522 9.08321 5.90988 9.08321 5.39187C9.08321 4.71365 9.67189 4.08321 10.4997 4.08321C11.3276 4.08321 11.9162 4.71365 11.9162 5.39187Z" fill="black"/>
<path fill-rule="evenodd" clip-rule="evenodd" d="M10.4997 12.7571C9.5117 12.7571 8.70826 13.5563 8.70826 14.5452C8.70826 15.5342 9.5117 16.3333 10.4997 16.3333C11.4877 16.3333 12.2912 15.5342 12.2912 14.5452C12.2912 13.5563 11.4877 12.7571 10.4997 12.7571ZM9.79147 14.5452C9.79147 14.1573 10.1072 13.8403 10.4997 13.8403C10.8923 13.8403 11.208 14.1573 11.208 14.5452C11.208 14.9332 10.8923 15.2501 10.4997 15.2501C10.1072 15.2501 9.79147 14.9332 9.79147 14.5452Z" fill="black"/>
</svg>
