<svg width="20" height="20" viewBox="0 0 20 20" fill="none" xmlns="http://www.w3.org/2000/svg">
<path fill-rule="evenodd" clip-rule="evenodd" d="M7 4.66625C7 3.74601 7.74601 3 8.66625 3H11.9987C12.919 3 13.665 3.74601 13.665 4.66625V14.6637C13.665 15.584 12.919 16.33 11.9987 16.33H8.66625C7.74601 16.33 7 15.584 7 14.6637V4.66625ZM8.66625 4.08306H11.9987C12.3208 4.08306 12.5819 4.34416 12.5819 4.66625V14.6637C12.5819 14.9858 12.3208 15.2469 11.9987 15.2469H8.66625C8.34416 15.2469 8.08306 14.9858 8.08306 14.6637V14.5804H9.49937C9.79845 14.5804 10.0409 14.338 10.0409 14.0389C10.0409 13.7398 9.79845 13.4974 9.49937 13.4974H8.08306V12.4976H10.3325C10.6316 12.4976 10.874 12.2552 10.874 11.9561C10.874 11.657 10.6316 11.4146 10.3325 11.4146H8.08306V10.4148H9.49937C9.79845 10.4148 10.0409 10.1724 10.0409 9.87328C10.0409 9.5742 9.79845 9.33175 9.49937 9.33175H8.08306V8.332H10.3325C10.6316 8.332 10.874 8.08955 10.874 7.79047C10.874 7.49139 10.6316 7.24894 10.3325 7.24894H8.08306V6.24919H9.49937C9.79845 6.24919 10.0409 6.00674 10.0409 5.70766C10.0409 5.40858 9.79845 5.16612 9.49937 5.16612H8.08306V4.66625C8.08306 4.34416 8.34416 4.08306 8.66625 4.08306Z" fill="black"/>
</svg>
