<svg width="28" height="28" viewBox="0 0 28 28" fill="none" xmlns="http://www.w3.org/2000/svg">
<path d="M7.99247 6.42089C8.17805 6.19804 8.4451 6.04542 8.74789 6.00879C9.05076 5.97135 9.34717 6.05527 9.58124 6.22735C9.73524 6.34057 9.86225 6.49194 9.94636 6.67201C9.97925 6.74211 10.0054 6.81602 10.0239 6.89289C10.0736 7.0758 10.2245 7.40973 10.4957 7.68439C10.7485 7.94035 11.0956 8.13978 11.6123 8.13978C12.1291 8.13978 12.4761 7.94035 12.7289 7.68439C12.9995 7.41032 13.1504 7.07724 13.2004 6.89407C13.2118 6.84707 13.226 6.80095 13.243 6.75597C13.3027 6.59677 13.3947 6.45701 13.5094 6.34237C13.7254 6.12655 14.0219 5.99977 14.335 6C14.4775 5.9999 14.6165 6.02608 14.7461 6.07499C14.9058 6.13488 15.046 6.22729 15.1608 6.34254C15.2755 6.45715 15.3674 6.59685 15.4271 6.75597C15.4441 6.80095 15.4583 6.84708 15.4697 6.89409C15.5197 7.07726 15.6706 7.41033 15.9412 7.68439C16.194 7.94035 16.541 8.13978 17.0578 8.13978C17.5745 8.13978 17.9216 7.94035 18.1743 7.68439C18.445 7.41033 18.5958 7.07726 18.6459 6.89409C18.6572 6.84708 18.6715 6.80095 18.6884 6.75597C18.8041 6.44949 19.0469 6.19595 19.3694 6.07499C19.499 6.02608 19.638 5.9999 19.7805 6C19.923 5.9999 20.062 6.02608 20.1916 6.07499C20.5141 6.19594 20.7569 6.44949 20.8726 6.75597C20.8895 6.80095 20.9038 6.84708 20.9151 6.89409C20.9652 7.07726 21.116 7.41033 21.3867 7.68439C21.6394 7.94035 21.9865 8.13978 22.5032 8.13978C23.1476 8.13978 23.67 8.66216 23.67 9.30655C23.67 9.95094 23.1476 10.4733 22.5032 10.4733C21.2836 10.4733 20.3975 9.98794 19.7805 9.37864C19.1635 9.98794 18.2774 10.4733 17.0578 10.4733C15.8382 10.4733 14.952 9.98794 14.335 9.37864C13.7181 9.98794 12.8319 10.4733 11.6123 10.4733C10.4709 10.4733 9.62149 10.0482 9.01153 9.49417C8.83208 9.64991 8.6397 9.78289 8.44302 9.89416C7.65288 10.3412 6.75899 10.4733 6.16677 10.4733C5.52238 10.4733 5 9.95094 5 9.30655C5 8.66216 5.52238 8.13978 6.16677 8.13978C6.48213 8.13978 6.94961 8.05795 7.29394 7.86314C7.45426 7.77243 7.55551 7.67576 7.61634 7.5831C7.66958 7.50201 7.72016 7.38258 7.72264 7.18248C7.72154 7.10427 7.72837 7.02703 7.74256 6.95174C7.77976 6.75231 7.8677 6.57072 7.99247 6.42089Z" fill="black"/>
<path d="M7.99247 11.7696C8.17805 11.5467 8.4451 11.3941 8.74789 11.3575C9.05076 11.32 9.34717 11.4039 9.58124 11.576C9.73524 11.6892 9.86225 11.8406 9.94636 12.0207C9.97925 12.0908 10.0054 12.1647 10.0239 12.2416C10.0736 12.4245 10.2245 12.7584 10.4957 13.0331C10.7485 13.289 11.0956 13.4884 11.6123 13.4884C12.1291 13.4884 12.4761 13.289 12.7289 13.0331C12.9995 12.759 13.1504 12.4259 13.2004 12.2427C13.2118 12.1957 13.226 12.1496 13.243 12.1046C13.3027 11.9454 13.3947 11.8057 13.5094 11.691C13.7254 11.4752 14.0219 11.3484 14.335 11.3487C14.4775 11.3486 14.6165 11.3747 14.7461 11.4237C14.9058 11.4835 15.046 11.576 15.1608 11.6912C15.2755 11.8058 15.3674 11.9455 15.4271 12.1046C15.4441 12.1496 15.4583 12.1957 15.4697 12.2428C15.5197 12.4259 15.6706 12.759 15.9412 13.0331C16.194 13.289 16.541 13.4884 17.0578 13.4884C17.5745 13.4884 17.9216 13.289 18.1743 13.0331C18.445 12.759 18.5958 12.4259 18.6459 12.2428C18.6572 12.1957 18.6715 12.1496 18.6884 12.1046C18.8041 11.7982 19.0469 11.5446 19.3694 11.4237C19.499 11.3747 19.638 11.3486 19.7805 11.3487C19.923 11.3486 20.062 11.3747 20.1916 11.4237C20.5141 11.5446 20.7569 11.7982 20.8726 12.1046C20.8895 12.1496 20.9038 12.1957 20.9151 12.2428C20.9652 12.4259 21.116 12.759 21.3867 13.0331C21.6394 13.289 21.9865 13.4884 22.5032 13.4884C23.1476 13.4884 23.67 14.0108 23.67 14.6552C23.67 15.2996 23.1476 15.822 22.5032 15.822C21.2836 15.822 20.3975 15.3366 19.7805 14.7273C19.1635 15.3366 18.2774 15.822 17.0578 15.822C15.8382 15.822 14.952 15.3366 14.335 14.7273C13.7181 15.3366 12.8319 15.822 11.6123 15.822C10.4709 15.822 9.62149 15.3968 9.01153 14.8428C8.83208 14.9986 8.6397 15.1315 8.44302 15.2428C7.65288 15.6899 6.75899 15.822 6.16677 15.822C5.52238 15.822 5 15.2996 5 14.6552C5 14.0108 5.52238 13.4884 6.16677 13.4884C6.48213 13.4884 6.94961 13.4066 7.29394 13.2118C7.45426 13.1211 7.55551 13.0244 7.61634 12.9318C7.66958 12.8507 7.72016 12.7312 7.72264 12.5311C7.72154 12.4529 7.72837 12.3757 7.74256 12.3004C7.77976 12.101 7.8677 11.9194 7.99247 11.7696Z" fill="black"/>
<path d="M8.74789 16.7063C8.4451 16.743 8.17805 16.8956 7.99247 17.1184C7.8677 17.2683 7.77976 17.4498 7.74256 17.6493C7.72837 17.7246 7.72154 17.8018 7.72264 17.88C7.72016 18.0801 7.66958 18.1996 7.61634 18.2806C7.55551 18.3733 7.45426 18.47 7.29394 18.5607C6.94961 18.7555 6.48213 18.8373 6.16677 18.8373C5.52238 18.8373 5 19.3597 5 20.0041C5 20.6485 5.52238 21.1709 6.16677 21.1709C6.75899 21.1709 7.65288 21.0387 8.44302 20.5917C8.6397 20.4804 8.83208 20.3474 9.01153 20.1917C9.62149 20.7457 10.4709 21.1709 11.6123 21.1709C12.8319 21.1709 13.7181 20.6855 14.335 20.0762C14.952 20.6855 15.8382 21.1709 17.0578 21.1709C18.2774 21.1709 19.1635 20.6855 19.7805 20.0762C20.3975 20.6855 21.2836 21.1709 22.5032 21.1709C23.1476 21.1709 23.67 20.6485 23.67 20.0041C23.67 19.3597 23.1476 18.8373 22.5032 18.8373C21.9865 18.8373 21.6394 18.6379 21.3867 18.3819C21.116 18.1079 20.9652 17.7748 20.9151 17.5916C20.9038 17.5446 20.8895 17.4985 20.8726 17.4535C20.7569 17.147 20.5141 16.8935 20.1916 16.7725C20.062 16.7236 19.923 16.6974 19.7805 16.6975C19.638 16.6974 19.499 16.7236 19.3694 16.7725C19.0469 16.8935 18.8041 17.147 18.6884 17.4535C18.6715 17.4985 18.6572 17.5446 18.6459 17.5916C18.5958 17.7748 18.445 18.1079 18.1743 18.3819C17.9216 18.6379 17.5745 18.8373 17.0578 18.8373C16.541 18.8373 16.194 18.6379 15.9412 18.3819C15.6706 18.1079 15.5197 17.7748 15.4697 17.5916C15.4583 17.5446 15.4441 17.4985 15.4271 17.4535C15.3674 17.2944 15.2755 17.1547 15.1608 17.0401C15.046 16.9248 14.9058 16.8324 14.7461 16.7725C14.6165 16.7236 14.4775 16.6974 14.335 16.6975C14.0219 16.6973 13.7254 16.8241 13.5094 17.0399C13.3947 17.1545 13.3027 17.2943 13.243 17.4535C13.226 17.4985 13.2118 17.5446 13.2004 17.5916C13.1504 17.7748 12.9995 18.1079 12.7289 18.3819C12.4761 18.6379 12.1291 18.8373 11.6123 18.8373C11.0956 18.8373 10.7485 18.6379 10.4957 18.3819C10.2245 18.1073 10.0736 17.7733 10.0239 17.5904C10.0054 17.5136 9.97925 17.4397 9.94636 17.3696C9.86225 17.1895 9.73524 17.0381 9.58124 16.9249C9.34717 16.7528 9.05076 16.6689 8.74789 16.7063Z" fill="black"/>
</svg>
