<svg width="32" height="32" viewBox="0 0 32 32" fill="none" xmlns="http://www.w3.org/2000/svg">
<path fill-rule="evenodd" clip-rule="evenodd" d="M7.66667 9C6.19391 9 5 10.1939 5 11.6667V19.6667C5 21.1394 6.19391 22.3333 7.66667 22.3333H23.6667C25.1394 22.3333 26.3333 21.1394 26.3333 19.6667V11.6667C26.3333 10.1939 25.1394 9 23.6667 9H7.66667ZM10.3333 17C11.0697 17 11.6667 16.403 11.6667 15.6667C11.6667 14.9303 11.0697 14.3333 10.3333 14.3333C9.59695 14.3333 9 14.9303 9 15.6667C9 16.403 9.59695 17 10.3333 17ZM14.3333 15C13.9651 15 13.6667 15.2985 13.6667 15.6667C13.6667 16.0349 13.9651 16.3333 14.3333 16.3333H21.6667C22.0349 16.3333 22.3333 16.0349 22.3333 15.6667C22.3333 15.2985 22.0349 15 21.6667 15H14.3333Z" fill="black"/>
</svg>
