<svg width="20" height="20" viewBox="0 0 20 20" fill="none" xmlns="http://www.w3.org/2000/svg">
<path d="M7.16667 10.1667C7.16667 10.6269 6.79357 11 6.33333 11C5.8731 11 5.5 10.6269 5.5 10.1667C5.5 9.70643 5.8731 9.33333 6.33333 9.33333C6.79357 9.33333 7.16667 9.70643 7.16667 10.1667Z" fill="black"/>
<path d="M8.83333 9.75C8.60321 9.75 8.41667 9.93655 8.41667 10.1667C8.41667 10.3968 8.60321 10.5833 8.83333 10.5833H13.4167C13.6468 10.5833 13.8333 10.3968 13.8333 10.1667C13.8333 9.93655 13.6468 9.75 13.4167 9.75H8.83333Z" fill="black"/>
<path fill-rule="evenodd" clip-rule="evenodd" d="M4.66667 6C3.74619 6 3 6.74619 3 7.66667V12.6667C3 13.5871 3.74619 14.3333 4.66667 14.3333H14.6667C15.5871 14.3333 16.3333 13.5871 16.3333 12.6667V7.66667C16.3333 6.74619 15.5871 6 14.6667 6H4.66667ZM14.6667 7.08333H4.66667C4.3445 7.08333 4.08333 7.3445 4.08333 7.66667V12.6667C4.08333 12.9888 4.3445 13.25 4.66667 13.25H14.6667C14.9888 13.25 15.25 12.9888 15.25 12.6667V7.66667C15.25 7.3445 14.9888 7.08333 14.6667 7.08333Z" fill="black"/>
</svg>
