<svg width="24" height="24" viewBox="0 0 24 24" fill="none" xmlns="http://www.w3.org/2000/svg">
<path d="M9 12C9 12.5523 8.55228 13 8 13C7.44772 13 7 12.5523 7 12C7 11.4477 7.44772 11 8 11C8.55228 11 9 11.4477 9 12Z" fill="black"/>
<path d="M11 11.5C10.7239 11.5 10.5 11.7239 10.5 12C10.5 12.2761 10.7239 12.5 11 12.5H16.5C16.7761 12.5 17 12.2761 17 12C17 11.7239 16.7761 11.5 16.5 11.5H11Z" fill="black"/>
<path fill-rule="evenodd" clip-rule="evenodd" d="M6 7C4.89543 7 4 7.89543 4 9V15C4 16.1046 4.89543 17 6 17H18C19.1046 17 20 16.1046 20 15V9C20 7.89543 19.1046 7 18 7H6ZM18 8.3H6C5.6134 8.3 5.3 8.6134 5.3 9V15C5.3 15.3866 5.6134 15.7 6 15.7H18C18.3866 15.7 18.7 15.3866 18.7 15V9C18.7 8.6134 18.3866 8.3 18 8.3Z" fill="black"/>
</svg>
