<svg width="28" height="28" viewBox="0 0 28 28" fill="none" xmlns="http://www.w3.org/2000/svg">
<path d="M10.8333 13.8333C10.8333 14.4777 10.311 15 9.66667 15C9.02233 15 8.5 14.4777 8.5 13.8333C8.5 13.189 9.02233 12.6667 9.66667 12.6667C10.311 12.6667 10.8333 13.189 10.8333 13.8333Z" fill="black"/>
<path d="M13.1667 13.25C12.8445 13.25 12.5833 13.5112 12.5833 13.8333C12.5833 14.1555 12.8445 14.4167 13.1667 14.4167H19.5833C19.9055 14.4167 20.1667 14.1555 20.1667 13.8333C20.1667 13.5112 19.9055 13.25 19.5833 13.25H13.1667Z" fill="black"/>
<path fill-rule="evenodd" clip-rule="evenodd" d="M7.33333 8C6.04467 8 5 9.04467 5 10.3333V17.3333C5 18.622 6.04467 19.6667 7.33333 19.6667H21.3333C22.622 19.6667 23.6667 18.622 23.6667 17.3333V10.3333C23.6667 9.04467 22.622 8 21.3333 8H7.33333ZM21.3333 9.51667H7.33333C6.8823 9.51667 6.51667 9.8823 6.51667 10.3333V17.3333C6.51667 17.7844 6.8823 18.15 7.33333 18.15H21.3333C21.7844 18.15 22.15 17.7844 22.15 17.3333V10.3333C22.15 9.8823 21.7844 9.51667 21.3333 9.51667Z" fill="black"/>
</svg>
