<svg width="16" height="16" viewBox="0 0 16 16" fill="none" xmlns="http://www.w3.org/2000/svg">
<path fill-rule="evenodd" clip-rule="evenodd" d="M12.2728 11.6555C12.3416 11.7244 12.4548 11.7199 12.5153 11.6436C13.2362 10.7341 13.6667 9.58398 13.6667 8.33333C13.6667 5.38781 11.2789 3 8.33333 3C7.08269 3 5.93258 3.43047 5.0231 4.15134C4.94678 4.21183 4.94231 4.32502 5.01118 4.39389L12.2728 11.6555ZM11.6555 12.2728C11.7244 12.3416 11.7199 12.4548 11.6436 12.5153C10.7341 13.2362 9.58398 13.6667 8.33333 13.6667C5.38781 13.6667 3 11.2789 3 8.33333C3 7.08269 3.43047 5.93258 4.15134 5.0231C4.21183 4.94678 4.32502 4.94231 4.39389 5.01118L11.6555 12.2728Z" fill="black"/>
</svg>
