<svg width="32" height="32" viewBox="0 0 32 32" fill="none" xmlns="http://www.w3.org/2000/svg">
<path d="M21.0019 8.14872C21.4274 8.56283 21.4274 9.23424 21.0019 9.64835C20.5764 10.0625 19.8866 10.0625 19.4611 9.64835C19.0357 9.23424 19.0357 8.56283 19.4611 8.14872C19.8866 7.73461 20.5764 7.73461 21.0019 8.14872Z" fill="black"/>
<path d="M16.0974 15.2891C16.2631 15.4504 16.5297 15.6801 16.8295 15.879L16.0974 15.2891Z" fill="black"/>
<path fill-rule="evenodd" clip-rule="evenodd" d="M21.0019 8.14872C21.4274 8.56283 21.4274 9.23424 21.0019 9.64835C20.5764 10.0625 19.8866 10.0625 19.4611 9.64835C19.0357 9.23424 19.0357 8.56283 19.4611 8.14872C19.8866 7.73461 20.5764 7.73461 21.0019 8.14872Z" fill="black"/>
<path fill-rule="evenodd" clip-rule="evenodd" d="M16.0974 15.2891C13.7341 12.9889 13.6774 9.27909 16.0157 7.00322C18.354 4.72736 22.1657 4.7825 24.529 7.08271C26.7988 9.29196 26.9408 12.7995 24.8773 15.0914L24.8637 15.1066L23.9558 16.0014L24.586 16.6148C24.916 16.936 24.9373 17.4717 24.5887 17.8111L23.7414 18.6357L24.1205 19.0047C24.4506 19.3259 24.4719 19.8617 24.1232 20.201L23.2759 21.0257L23.7794 21.5157C24.3155 22.0375 24.3404 22.8949 23.7901 23.4306L21.2099 25.9419C20.6595 26.4775 19.7786 26.4533 19.2425 25.9315L17.4987 24.2343C17.2398 23.9823 17.0899 23.6407 17.0859 23.282L17.0047 15.9867C16.9431 15.9512 16.8834 15.9147 16.8295 15.879L16.0974 15.2891ZM16.9988 7.96004C15.2234 9.68801 15.2399 12.5409 17.0805 14.3323C17.1967 14.4455 17.3971 14.6179 17.6125 14.7608C17.6714 14.7999 17.765 14.8538 17.8613 14.9024C18.1629 15.0549 18.3881 15.3636 18.3922 15.7354L18.4749 23.1594C18.4757 23.2286 18.5042 23.2948 18.5544 23.3438L20.0329 24.7867C20.1393 24.8905 20.3119 24.8906 20.4184 24.787L22.6037 22.66C22.7101 22.5564 22.7101 22.3886 22.6037 22.2851L21.9257 21.6251C21.5957 21.3039 21.5744 20.7682 21.923 20.4288L22.5777 19.7916C22.6841 19.6881 22.6841 19.5203 22.5777 19.4167L22.3912 19.2352C22.0611 18.914 22.0398 18.3782 22.3885 18.0389L23.0432 17.4017C23.1495 17.2982 23.1495 17.1303 23.0432 17.0268L22.6079 16.6032C22.2786 16.2826 22.2566 15.7485 22.603 15.409L23.8448 14.185C25.3983 12.444 25.3078 9.75443 23.5459 8.03953C21.7053 6.24809 18.7742 6.23208 16.9988 7.96004ZM21.0019 8.14872C21.4274 8.56283 21.4274 9.23424 21.0019 9.64835C20.5764 10.0625 19.8866 10.0625 19.4611 9.64835C19.0357 9.23424 19.0357 8.56283 19.4611 8.14872C19.8866 7.73461 20.5764 7.73461 21.0019 8.14872Z" fill="black"/>
<path d="M16.0606 16.8241C15.5369 16.4633 15.0646 16.0366 14.6561 15.5566C14.3564 15.6939 14.1568 15.9933 14.1568 16.3251V16.9242C14.1568 17.0706 14.0349 17.1893 13.8844 17.1893H12.9586C12.4655 17.1893 12.0914 17.5828 12.0914 18.0371V18.2938C12.0914 18.4402 11.9694 18.5589 11.819 18.5589H10.8932C10.4001 18.5589 10.0259 18.9523 10.0259 19.4066V20.3399C10.0259 20.4863 9.90399 20.605 9.75356 20.605H6.66301C6.51244 20.605 6.39044 20.4861 6.39064 20.3396L6.39348 18.3017C6.39357 18.2325 6.42146 18.1661 6.47117 18.1167L11.8063 12.8102C12.0735 12.5444 12.1386 12.1711 12.036 11.8557C12.0033 11.7551 11.9763 11.6526 11.963 11.5844C11.9145 11.3351 11.8981 11.0753 11.8981 10.9152C11.8981 9.12361 12.9288 7.58447 14.4204 6.83671C14.9819 6.10166 15.6866 5.4764 16.4944 5.00005C16.4862 5.00002 16.478 5 16.4699 5C13.163 5 10.5078 7.66225 10.5078 10.9152L10.597 11.8362C10.6091 11.8985 10.6248 11.9654 10.6426 12.0329L5.39995 17.2474C5.14219 17.5038 5 17.8484 5 18.2048V20.605C5 21.343 5.60533 21.9664 6.38362 21.9664H10.0326C10.8109 21.9664 11.4162 21.343 11.4162 20.605V19.912H12.6144C13.1075 19.912 13.4816 19.5185 13.4816 19.0642V18.5424H14.6798C15.1729 18.5424 15.5471 18.149 15.5471 17.6947V16.8273L16.0606 16.8241Z" fill="black"/>
</svg>
