<svg width="16" height="16" viewBox="0 0 16 16" fill="none" xmlns="http://www.w3.org/2000/svg">
<path d="M6.11896 9.66372L3.86667 11.1652L3 11.6667V12.3333C3 13.0697 3.59695 13.6667 4.33333 13.6667H12.3333C13.0697 13.6667 13.6667 13.0697 13.6667 12.3333V12L12.8 11.027L10.8845 8.63259C10.7872 8.511 10.6004 8.51698 10.5111 8.64454L9.14402 10.5975C8.75178 11.1579 7.94869 11.2282 7.46504 10.7445L6.41338 9.69287C6.33473 9.61422 6.2115 9.60202 6.11896 9.66372Z" fill="black"/>
<path fill-rule="evenodd" clip-rule="evenodd" d="M3.86667 10.1236L5.63822 8.94261C6.0745 8.65175 6.65543 8.70928 7.02621 9.08005L8.07787 10.1317C8.18046 10.2343 8.35081 10.2194 8.43401 10.1005L9.80111 8.14754C10.222 7.54619 11.1027 7.51799 11.5612 8.09118L12.8 9.63966L13.6667 10.6667V4.33333C13.6667 3.59695 13.0697 3 12.3333 3H4.33333C3.59695 3 3 3.59695 3 4.33333V10.6667L3.86667 10.1236ZM6.33333 7.86667C7.18017 7.86667 7.86667 7.18017 7.86667 6.33333C7.86667 5.4865 7.18017 4.8 6.33333 4.8C5.4865 4.8 4.8 5.4865 4.8 6.33333C4.8 7.18017 5.4865 7.86667 6.33333 7.86667Z" fill="black"/>
</svg>
