<svg width="20" height="20" viewBox="0 0 20 20" fill="none" xmlns="http://www.w3.org/2000/svg">
<path fill-rule="evenodd" clip-rule="evenodd" d="M10.9813 3.54455C10.2553 2.81849 9.07808 2.81848 8.35202 3.54454L3.54455 8.35202C2.81849 9.07808 2.81848 10.2553 3.54454 10.9813L8.35202 15.7888C9.07808 16.5148 10.2553 16.5148 10.9813 15.7888L15.7888 10.9813C16.5148 10.2553 16.5148 9.07808 15.7888 8.35202L10.9813 3.54455ZM15.0228 9.11805L10.2153 4.31058C9.91229 4.00759 9.42104 4.00759 9.11805 4.31058L4.31058 9.11805C4.00759 9.42104 4.00759 9.91229 4.31058 10.2153L9.11805 15.0228C9.42104 15.3257 9.91229 15.3257 10.2153 15.0228L15.0228 10.2153C15.3257 9.91229 15.3257 9.42104 15.0228 9.11805Z" fill="black"/>
</svg>
