<svg width="32" height="32" viewBox="0 0 32 32" fill="none" xmlns="http://www.w3.org/2000/svg">
<path d="M22.1973 20.8639C22.7385 20.8639 23.1772 20.4284 23.1772 19.8911C23.1772 19.3539 22.7385 18.9184 22.1973 18.9184C21.6562 18.9184 21.2175 19.3539 21.2175 19.8911C21.2175 20.4284 21.6562 20.8639 22.1973 20.8639Z" fill="black"/>
<path fill-rule="evenodd" clip-rule="evenodd" d="M10.607 8C9.77623 8 9.01636 8.4681 8.64267 9.21007L5.28493 15.877C5.09758 16.249 5 16.6597 5 17.0761V21.8007C5 23.0154 5.9847 24.0001 7.19939 24.0001H24.1306C25.3453 24.0001 26.33 23.0154 26.33 21.8007V17.0761C26.33 16.6597 26.2324 16.249 26.0451 15.877L22.6873 9.21007C22.3136 8.4681 21.5538 8 20.723 8H10.607ZM10.1903 9.98953C10.2696 9.83215 10.4308 9.73285 10.607 9.73285H20.723C20.8992 9.73285 21.0604 9.83215 21.1397 9.98953L23.8138 15.299C23.9254 15.5206 23.7643 15.7822 23.5161 15.7822H7.81386C7.56571 15.7822 7.40461 15.5206 7.51624 15.299L10.1903 9.98953ZM6.73285 18.1815C6.73285 17.8134 7.03125 17.515 7.39933 17.515H23.9307C24.2988 17.515 24.5971 17.8134 24.5971 18.1815V21.8007C24.5971 22.0584 24.3883 22.2673 24.1306 22.2673H7.19939C6.94173 22.2673 6.73285 22.0584 6.73285 21.8007V18.1815Z" fill="black"/>
</svg>
