<svg width="16" height="16" viewBox="0 0 16 16" fill="none" xmlns="http://www.w3.org/2000/svg">
<path fill-rule="evenodd" clip-rule="evenodd" d="M3.78132 11.3035C3.56643 10.8008 3.64726 10.2018 4.02382 9.77142C3.52288 9.19891 3.5453 8.32794 4.09109 7.78215C4.66027 7.21297 5.58309 7.21297 6.15227 7.78215L6.72748 8.35736L8.50104 6.58379L7.92583 6.00858C7.35666 5.4394 7.35666 4.51658 7.92583 3.94741C8.47163 3.40161 9.34259 3.37919 9.91511 3.88013C10.3455 3.50358 10.9444 3.42275 11.4472 3.63764L11.8565 3.22833C12.1609 2.92389 12.6545 2.92389 12.959 3.22833L13.4383 3.70768C13.7428 4.01212 13.7428 4.50572 13.4383 4.81016L13.0747 5.17378C13.4037 5.70841 13.3555 6.4094 12.9303 6.89536C13.4313 7.46788 13.4089 8.33884 12.8631 8.88464C12.2939 9.45381 11.3711 9.45381 10.8019 8.88464L10.0829 8.16562L8.30931 9.93919L9.02832 10.6582C9.5975 11.2274 9.5975 12.1502 9.02832 12.7194C8.48253 13.2652 7.61156 13.2876 7.03905 12.7867C6.55309 13.2119 5.8521 13.26 5.31746 12.931L4.81016 13.4383C4.50572 13.7428 4.01212 13.7428 3.70768 13.4383L3.22833 12.959C2.92389 12.6545 2.92389 12.1609 3.22833 11.8565L3.78132 11.3035ZM4.6663 12.3359L4.33076 12.0004L3.92338 12.4077L4.25892 12.7433L4.6663 12.3359ZM7.68616 9.31604L9.45973 7.54248L9.12419 7.20694L7.35062 8.9805L7.68616 9.31604ZM12.4796 4.52262L12.7433 4.25892L12.4077 3.92338L12.144 4.18708L12.4796 4.52262ZM4.64866 10.4009C4.49189 10.6256 4.51375 10.9371 4.71424 11.1375L5.67292 12.0962C5.87341 12.2967 6.18489 12.3186 6.40958 12.1618L4.64866 10.4009ZM8.40518 12.0962C8.18015 12.3213 7.81532 12.3213 7.59029 12.0962L4.71424 9.22018C4.48921 8.99515 4.48921 8.63032 4.71424 8.40529C4.93926 8.18027 5.3041 8.18027 5.52912 8.40529L8.40518 11.2814C8.6302 11.5064 8.6302 11.8712 8.40518 12.0962ZM12.3055 6.26589C12.4623 6.0412 12.4404 5.72973 12.2399 5.52924L11.2812 4.57055C11.0807 4.37006 10.7693 4.3482 10.5446 4.50497L12.3055 6.26589ZM12.2399 8.26149C12.4649 8.03647 12.4649 7.67163 12.2399 7.44661L9.36386 4.57055C9.13884 4.34553 8.774 4.34553 8.54898 4.57055C8.32396 4.79557 8.32396 5.16041 8.54898 5.38543L11.425 8.26149C11.6501 8.48651 12.0149 8.48651 12.2399 8.26149Z" fill="black"/>
</svg>
