<svg width="20" height="20" viewBox="0 0 20 20" fill="none" xmlns="http://www.w3.org/2000/svg">
<path fill-rule="evenodd" clip-rule="evenodd" d="M3 7.66625C3 6.74601 3.74601 6 4.66625 6H13.4309C14.3512 6 15.0972 6.746 15.0972 7.66625V8.44587C15.778 8.44587 16.33 8.99783 16.33 9.67871V10.6525C16.33 11.3334 15.778 11.8854 15.0972 11.8854V12.665C15.0972 13.5852 14.3512 14.3313 13.4309 14.3313H4.66625C3.74601 14.3313 3 13.5852 3 12.665V7.66625ZM5.49937 7.66625C5.03925 7.66625 4.66625 8.03925 4.66625 8.49937V11.8319C4.66625 12.292 5.03925 12.665 5.49937 12.665H8.49862C8.95875 12.665 9.33175 12.292 9.33175 11.8319V8.49937C9.33175 8.03925 8.95875 7.66625 8.49863 7.66625H5.49937Z" fill="black"/>
</svg>
