<svg width="16" height="16" viewBox="0 0 16 16" fill="none" xmlns="http://www.w3.org/2000/svg">
<path fill-rule="evenodd" clip-rule="evenodd" d="M8.23152 8.58885C8.7099 9.0712 9.4855 9.0712 9.96388 8.58885C10.4423 8.1065 10.4423 7.32446 9.96388 6.84211C9.4855 6.35977 8.7099 6.35977 8.23152 6.84211C7.75315 7.32446 7.75315 8.1065 8.23152 8.58885ZM8.84199 7.97332C8.98322 8.11572 9.21219 8.11572 9.35341 7.97332C9.49464 7.83092 9.49464 7.60005 9.35341 7.45765C9.21219 7.31525 8.98322 7.31525 8.84199 7.45765C8.70076 7.60005 8.70076 7.83092 8.84199 7.97332Z" fill="black"/>
<path fill-rule="evenodd" clip-rule="evenodd" d="M4.42063 13.4726C4.23993 13.4726 4.08099 13.4792 3.94142 13.49C3.91083 13.4923 3.88117 13.4949 3.85242 13.4976C3.45006 13.5359 3.22506 13.6085 3.10861 13.6461C3.04627 13.6662 3.01504 13.6763 3.00436 13.6657C2.99365 13.655 3.00364 13.6235 3.02367 13.5604C3.06073 13.4437 3.13215 13.2186 3.17026 12.8171C3.17301 12.7882 3.17559 12.7583 3.17796 12.7275C3.18894 12.5851 3.19568 12.4226 3.19567 12.2375C3.19566 11.5553 3.74411 11.0023 4.42063 11.0023C5.09716 11.0023 5.64559 11.5553 5.64559 12.2375C5.64559 12.9196 5.09716 13.4726 4.42063 13.4726Z" fill="black"/>
<path fill-rule="evenodd" clip-rule="evenodd" d="M11.9336 9.13981L13.0865 7.97741C13.5134 7.54688 13.7237 6.94431 13.6582 6.33904L13.5021 4.89635C13.3983 3.93683 12.6323 3.18741 11.678 3.11163L10.3505 3.00621C9.76946 2.96006 9.19749 3.17281 8.78534 3.58838L7.61577 4.76766C7.1043 4.37803 6.56446 4.28554 6.07909 4.36521C5.53173 4.45506 5.08563 4.75686 4.83262 5.01197L3.99108 5.86049C3.73325 6.12046 3.73325 6.5397 3.99108 6.79967L5.05304 7.87044C5.11399 7.9319 5.18879 7.97128 5.26748 7.98856C5.2706 8.29208 5.34152 8.59503 5.48024 8.87232L4.96305 9.13306C4.49779 9.36762 4.39687 9.98792 4.76378 10.3579L6.25592 11.8624C6.62621 12.2358 7.25387 12.1342 7.48748 11.6631L7.71858 11.197C8.05712 11.4092 8.44507 11.5094 8.83025 11.4975C8.84653 11.5229 8.86568 11.5469 8.88771 11.5691L9.9451 12.6353C10.206 12.8983 10.6312 12.8983 10.8921 12.6353L11.6426 11.8786C11.8956 11.6234 12.1949 11.1735 12.2839 10.6215C12.3594 10.1535 12.2787 9.63527 11.9336 9.13981ZM12.476 7.36188L9.56744 10.2946C9.12655 10.7391 8.41173 10.7391 7.97084 10.2946L6.46137 8.77257C6.02048 8.32802 6.02048 7.60726 6.46137 7.16271L9.3958 4.20391C9.62935 3.96842 9.95347 3.84787 10.2827 3.87402L11.6102 3.97944C12.151 4.02238 12.585 4.44705 12.6439 4.99078L12.8 6.43346C12.8371 6.77645 12.718 7.11791 12.476 7.36188ZM8.23152 8.58885C8.7099 9.0712 9.4855 9.0712 9.96388 8.58885C10.4423 8.1065 10.4423 7.32446 9.96388 6.84211C9.4855 6.35977 8.7099 6.35977 8.23152 6.84211C7.75315 7.32446 7.75315 8.1065 8.23152 8.58885ZM8.84199 7.97332C8.98322 8.11572 9.21219 8.11572 9.35341 7.97332C9.49464 7.83092 9.49464 7.60005 9.35341 7.45765C9.21219 7.31525 8.98322 7.31525 8.84199 7.45765C8.70076 7.60005 8.70076 7.83092 8.84199 7.97332Z" fill="black"/>
</svg>
