<svg width="28" height="28" viewBox="0 0 28 28" fill="none" xmlns="http://www.w3.org/2000/svg">
<path d="M4.29452 4.2221C3.99838 3.92596 3.51824 3.92597 3.2221 4.22211C2.92596 4.51825 2.92597 4.99838 3.22211 5.29452L22.7055 24.7779C23.0016 25.074 23.4818 25.074 23.7779 24.7779C24.074 24.4817 24.074 24.0016 23.7779 23.7055L4.29452 4.2221Z" fill="black"/>
<path d="M4.79782 19.1861L10.1347 13.468L11.2078 14.541L6.33865 19.758C6.1821 19.9257 6.07848 20.1359 6.04076 20.3622L5.85592 21.4712C5.79012 21.8661 6.13239 22.2083 6.5272 22.1425L7.63626 21.9577C7.86258 21.92 8.07275 21.8163 8.24048 21.6598L13.4574 16.7907L14.5305 17.8637L8.81235 23.2006C8.72849 23.2789 8.6234 23.3307 8.51024 23.3496L5.72933 23.8131C4.82129 23.9644 4.03405 23.1772 4.18539 22.2691L4.64888 19.4882C4.66774 19.375 4.71954 19.27 4.79782 19.1861Z" fill="black"/>
<path fill-rule="evenodd" clip-rule="evenodd" d="M12.3875 11.0543L13.4606 12.1273L13.6539 11.9202L16.0782 14.3446L15.8711 14.5379L16.9442 15.6109L17.1513 15.4176L17.5426 15.809C18.3152 16.5815 19.5751 16.5569 20.317 15.7548L21.0878 14.9213C21.7898 14.1623 21.7668 12.9843 21.0357 12.2532L20.6297 11.8471L21.8137 10.7914L21.8291 10.7761C22.2094 10.3958 22.6583 9.7275 22.7924 8.9038C22.9341 8.03307 22.7107 7.05093 21.8291 6.16929C20.9474 5.28765 19.9653 5.06423 19.0946 5.20598C18.2827 5.33814 17.6219 5.77609 17.2389 6.15281L16.0211 7.23858L15.6181 6.83553C14.8455 6.06296 13.5855 6.08755 12.8437 6.88969L12.0729 7.72318C11.3709 8.48223 11.3939 9.66024 12.1249 10.3913L12.5808 10.8472L12.3875 11.0543ZM18.615 14.7365C18.7789 14.9004 19.0462 14.8952 19.2035 14.7251L19.9743 13.8916C20.1232 13.7306 20.1184 13.4807 19.9633 13.3256L19.2078 12.5701C18.7811 12.1434 18.8011 11.4456 19.2515 11.044L20.7702 9.68988C20.9764 9.47797 21.2249 9.09332 21.2954 8.66011C21.3599 8.26435 21.2888 7.77382 20.7566 7.24171C20.2245 6.70959 19.734 6.63848 19.3382 6.7029C18.8954 6.77498 18.5034 7.03298 18.2947 7.24171L16.7015 8.66386C16.2861 9.03424 15.6538 9.01615 15.2603 8.6226L14.5456 7.90795C14.3818 7.74407 14.1145 7.74929 13.9571 7.91944L13.1863 8.75293C13.0374 8.91394 13.0423 9.16382 13.1974 9.31889L18.615 14.7365Z" fill="black"/>
</svg>
