<svg width="20" height="20" viewBox="0 0 20 20" fill="none" xmlns="http://www.w3.org/2000/svg">
<path fill-rule="evenodd" clip-rule="evenodd" d="M3.20833 8.29167C3.09327 8.29167 3 8.38494 3 8.5V14C3 14.9205 3.74619 15.6667 4.66667 15.6667H14.6667C15.5871 15.6667 16.3333 14.9205 16.3333 14V8.5C16.3333 8.38494 16.2401 8.29167 16.125 8.29167H3.20833ZM4.95833 10.25C4.95833 9.95085 5.20085 9.70833 5.5 9.70833H12.1667C12.4658 9.70833 12.7083 9.95085 12.7083 10.25C12.7083 10.5492 12.4658 10.7917 12.1667 10.7917H5.5C5.20085 10.7917 4.95833 10.5492 4.95833 10.25ZM5.5 11.7917C5.20085 11.7917 4.95833 12.0342 4.95833 12.3333C4.95833 12.6325 5.20085 12.875 5.5 12.875H9.66667C9.96582 12.875 10.2083 12.6325 10.2083 12.3333C10.2083 12.0342 9.96582 11.7917 9.66667 11.7917H5.5Z" fill="black"/>
<path fill-rule="evenodd" clip-rule="evenodd" d="M4.66667 4C3.74619 4 3 4.74619 3 5.66667V7C3 7.11506 3.09327 7.20833 3.20833 7.20833H16.125C16.2401 7.20833 16.3333 7.11506 16.3333 7V5.66667C16.3333 4.74619 15.5871 4 14.6667 4H4.66667ZM11.875 6.75C12.1742 6.75 12.4167 6.50749 12.4167 6.20833C12.4167 5.90918 12.1742 5.66667 11.875 5.66667C11.5758 5.66667 11.3333 5.90918 11.3333 6.20833C11.3333 6.50749 11.5758 6.75 11.875 6.75ZM13.125 6.75C13.4242 6.75 13.6667 6.50749 13.6667 6.20833C13.6667 5.90918 13.4242 5.66667 13.125 5.66667C12.8258 5.66667 12.5833 5.90918 12.5833 6.20833C12.5833 6.50749 12.8258 6.75 13.125 6.75ZM14.375 6.75C14.6742 6.75 14.9167 6.50749 14.9167 6.20833C14.9167 5.90918 14.6742 5.66667 14.375 5.66667C14.0758 5.66667 13.8333 5.90918 13.8333 6.20833C13.8333 6.50749 14.0758 6.75 14.375 6.75Z" fill="black"/>
</svg>
