<svg width="32" height="32" viewBox="0 0 32 32" fill="none" xmlns="http://www.w3.org/2000/svg">
<path d="M5.86656 5C6.34516 5 6.73313 5.38797 6.73313 5.86656V25.4668C6.73313 25.9454 6.34516 26.3333 5.86656 26.3333C5.38797 26.3333 5 25.9454 5 25.4668V5.86656C5 5.38797 5.38797 5 5.86656 5Z" fill="black"/>
<path d="M25.4668 5C25.9454 5 26.3333 5.38797 26.3333 5.86656V25.4668C26.3333 25.9454 25.9454 26.3333 25.4668 26.3333C24.9882 26.3333 24.6002 25.9454 24.6002 25.4668V5.86656C24.6002 5.38797 24.9882 5 25.4668 5Z" fill="black"/>
<path d="M16.5332 5.86656C16.5332 5.38797 16.1453 5 15.6667 5C15.1881 5 14.8001 5.38797 14.8001 5.86656V9.7866C14.8001 10.2652 15.1881 10.6532 15.6667 10.6532C16.1453 10.6532 16.5332 10.2652 16.5332 9.7866V5.86656Z" fill="black"/>
<path d="M15.6667 12.8401C16.1453 12.8401 16.5332 13.2281 16.5332 13.7067V17.6267C16.5332 18.1053 16.1453 18.4933 15.6667 18.4933C15.1881 18.4933 14.8001 18.1053 14.8001 17.6267V13.7067C14.8001 13.2281 15.1881 12.8401 15.6667 12.8401Z" fill="black"/>
<path d="M16.5332 21.5467C16.5332 21.0681 16.1453 20.6802 15.6667 20.6802C15.1881 20.6802 14.8001 21.0681 14.8001 21.5467V25.4668C14.8001 25.9454 15.1881 26.3333 15.6667 26.3333C16.1453 26.3333 16.5332 25.9454 16.5332 25.4668V21.5467Z" fill="black"/>
</svg>
