<svg width="20" height="20" viewBox="0 0 20 20" fill="none" xmlns="http://www.w3.org/2000/svg">
<path d="M10.9388 9.17538C10.8564 9.25932 10.8598 9.39477 10.9463 9.47448L13.2411 11.59C13.3067 11.6505 13.4036 11.6625 13.482 11.6197L16.1682 10.1558C16.6128 9.91345 16.6099 9.30097 16.1636 9.06222L12.9479 7.34213C12.8663 7.2985 12.7658 7.31388 12.701 7.37991L10.9388 9.17538Z" fill="black"/>
<path d="M11.9584 12.4501C12.0837 12.3818 12.1048 12.2107 11.9999 12.114L10.0772 10.3414C9.99442 10.2651 9.86608 10.2684 9.78726 10.3487L4.27607 15.964C4.20059 16.0409 4.19507 16.1661 4.28578 16.2243C4.48511 16.352 4.75524 16.3758 4.98377 16.2512L11.9584 12.4501Z" fill="black"/>
<path d="M8.87224 9.52286C8.95462 9.43892 8.95123 9.30347 8.86476 9.22376L4.34954 5.06135C4.21606 4.9383 4 5.03298 4 5.21453V13.9775C4 14.164 4.22635 14.2566 4.35702 14.1234L8.87224 9.52286Z" fill="black"/>
<path d="M4.3201 3.08852C4.22001 3.14462 4.22609 3.27941 4.31045 3.35718L9.73387 8.35682C9.8166 8.43309 9.94494 8.42988 10.0238 8.34957L11.484 6.86174C11.5813 6.76255 11.5561 6.59766 11.4336 6.53211L4.97918 3.07962C4.76434 2.9647 4.51391 2.9799 4.3201 3.08852Z" fill="black"/>
</svg>
