<svg width="28" height="28" viewBox="0 0 28 28" fill="none" xmlns="http://www.w3.org/2000/svg">
<path fill-rule="evenodd" clip-rule="evenodd" d="M19.0025 5C20.2914 5 21.3363 6.04486 21.3363 7.33375C22.6251 7.33375 23.67 8.37861 23.67 9.6675V12.8764C23.67 13.0375 23.5394 13.1681 23.3783 13.1681H17.2522C16.2855 13.1681 15.5019 13.9518 15.5019 14.9184C15.5019 15.8851 16.2855 16.6687 17.2522 16.6687H23.3783C23.5394 16.6687 23.67 16.7994 23.67 16.9605V20.1694C23.67 21.4583 22.6251 22.5031 21.3363 22.5031H7.33375C6.04486 22.5031 5 21.4583 5 20.1694V7.33375C5 6.04486 6.04486 5 7.33375 5H19.0025ZM19.0025 6.51694H7.33375C6.88264 6.51694 6.51694 6.88264 6.51694 7.33375V7.48068C6.77116 7.38569 7.04639 7.33375 7.33375 7.33375H19.8193C19.8193 6.88264 19.4536 6.51694 19.0025 6.51694Z" fill="black"/>
<path d="M22.1531 15.1518V14.6851H17.2522C17.1233 14.6851 17.0188 14.7895 17.0188 14.9184C17.0188 15.0473 17.1233 15.1518 17.2522 15.1518H22.1531Z" fill="black"/>
</svg>
