<svg width="48" height="48" viewBox="0 0 48 48" fill="none" xmlns="http://www.w3.org/2000/svg">
<path d="M10.6 18C10.6 22.0869 13.9131 25.4 18 25.4V28C12.4772 28 8 23.5228 8 18C8 12.4772 12.4772 8 18 8C23.5228 8 28 12.4772 28 18H25.4C25.4 13.9131 22.0869 10.6 18 10.6C13.9131 10.6 10.6 13.9131 10.6 18Z" fill="black"/>
<path fill-rule="evenodd" clip-rule="evenodd" d="M20 24C20 21.7909 21.7909 20 24 20H36C38.2091 20 40 21.7909 40 24V36C40 38.2091 38.2091 40 36 40H24C21.7909 40 20 38.2091 20 36V24ZM24 22.6H36C36.7732 22.6 37.4 23.2268 37.4 24V36C37.4 36.7732 36.7732 37.4 36 37.4H24C23.2268 37.4 22.6 36.7732 22.6 36V24C22.6 23.2268 23.2268 22.6 24 22.6Z" fill="black"/>
</svg>
