<svg width="28" height="28" viewBox="0 0 28 28" fill="none" xmlns="http://www.w3.org/2000/svg">
<path d="M10.8333 5C14.055 5 16.6667 7.61167 16.6667 10.8333H13.1667C11.878 10.8333 10.8333 11.878 10.8333 13.1667V16.6667C7.61167 16.6667 5 14.055 5 10.8333C5 7.61167 7.61167 5 10.8333 5Z" fill="black"/>
<path d="M14.3333 12C13.0447 12 12 13.0447 12 14.3333V21.3333C12 22.622 13.0447 23.6667 14.3333 23.6667H21.3333C22.622 23.6667 23.6667 22.622 23.6667 21.3333V14.3333C23.6667 13.0447 22.622 12 21.3333 12H14.3333Z" fill="black"/>
</svg>
