<svg width="48" height="48" viewBox="0 0 48 48" fill="none" xmlns="http://www.w3.org/2000/svg">
<path d="M8 19C8 24.0351 11.383 28.2801 16 29.5859V26.8484C12.8424 25.6407 10.6 22.5822 10.6 19C10.6 14.3608 14.3608 10.6 19 10.6C22.5822 10.6 25.6407 12.8424 26.8484 16H29.5859C28.2801 11.383 24.0351 8 19 8C12.9249 8 8 12.9249 8 19Z" fill="black"/>
<path fill-rule="evenodd" clip-rule="evenodd" d="M18 22C18 19.7909 19.7909 18 22 18H36C38.2091 18 40 19.7909 40 22V36C40 38.2091 38.2091 40 36 40H22C19.7909 40 18 38.2091 18 36V22ZM22 20.6H36C36.7732 20.6 37.4 21.2268 37.4 22V36C37.4 36.7732 36.7732 37.4 36 37.4H22C21.2268 37.4 20.6 36.7732 20.6 36V22C20.6 21.2268 21.2268 20.6 22 20.6Z" fill="black"/>
</svg>
