<svg width="32" height="32" viewBox="0 0 32 32" fill="none" xmlns="http://www.w3.org/2000/svg">
<path d="M6.73333 11.6667C6.73333 14.3913 8.94206 16.6 11.6667 16.6V18.3333C7.98477 18.3333 5 15.3486 5 11.6667C5 7.98477 7.98477 5 11.6667 5C15.3486 5 18.3333 7.98477 18.3333 11.6667H16.6C16.6 8.94206 14.3913 6.73333 11.6667 6.73333C8.94206 6.73333 6.73333 8.94206 6.73333 11.6667Z" fill="black"/>
<path fill-rule="evenodd" clip-rule="evenodd" d="M13 15.6667C13 14.1939 14.1939 13 15.6667 13H23.6667C25.1394 13 26.3333 14.1939 26.3333 15.6667V23.6667C26.3333 25.1394 25.1394 26.3333 23.6667 26.3333H15.6667C14.1939 26.3333 13 25.1394 13 23.6667V15.6667ZM15.6667 14.7333H23.6667C24.1821 14.7333 24.6 15.1512 24.6 15.6667V23.6667C24.6 24.1821 24.1821 24.6 23.6667 24.6H15.6667C15.1512 24.6 14.7333 24.1821 14.7333 23.6667V15.6667C14.7333 15.1512 15.1512 14.7333 15.6667 14.7333Z" fill="black"/>
</svg>
