<svg width="32" height="32" viewBox="0 0 32 32" fill="none" xmlns="http://www.w3.org/2000/svg">
<path fill-rule="evenodd" clip-rule="evenodd" d="M14.6126 9.28379C14.6672 9.18659 14.671 9.06825 14.6225 8.96772L13.3113 6.24765C13.1066 5.82304 13.275 5.31038 13.6899 5.09521C14.1154 4.87456 14.6366 5.05074 14.8465 5.48619L15.3672 6.56646C15.4891 6.81925 15.8443 6.81925 15.9661 6.56646L16.4869 5.48619C16.6968 5.05074 17.2179 4.87456 17.6434 5.09521C18.0583 5.31038 18.2267 5.82304 18.0221 6.24765L16.7108 8.96772C16.6624 9.06825 16.6661 9.18659 16.7208 9.28379L25.3168 24.5686H25.4826C25.9525 24.5686 26.3333 24.9636 26.3333 25.4509C26.3333 25.9383 25.9525 26.3333 25.4826 26.3333H5.85072C5.38088 26.3333 5 25.9383 5 25.4509C5 24.9636 5.38088 24.5686 5.85072 24.5686H6.01649L14.6126 9.28379ZM15.3771 11.4268C15.505 11.1993 15.8283 11.1993 15.9562 11.4268L23.0627 24.0629C23.1895 24.2883 23.029 24.5686 22.7732 24.5686H20.4565C20.22 24.5686 20.0012 24.4415 19.8815 24.2346L16.2417 17.9423C15.984 17.497 15.3493 17.497 15.0917 17.9423L11.4518 24.2346C11.3321 24.4415 11.1133 24.5686 10.8768 24.5686H8.56016C8.30432 24.5686 8.14385 24.2883 8.27062 24.0629L15.3771 11.4268ZM13.5374 24.0593C13.407 24.2847 13.5672 24.5686 13.8249 24.5686H17.5084C17.7661 24.5686 17.9263 24.2847 17.7959 24.0593L15.9542 20.8754C15.8254 20.6527 15.508 20.6527 15.3792 20.8754L13.5374 24.0593Z" fill="black"/>
</svg>
