<svg width="24" height="24" viewBox="0 0 24 24" fill="none" xmlns="http://www.w3.org/2000/svg">
<path d="M4 19.3485C4 18.9895 4.29101 18.6985 4.65 18.6985H19.3452C19.7041 18.6985 19.9952 18.9895 19.9952 19.3485C19.9952 19.7075 19.7041 19.9985 19.3452 19.9985H4.65C4.29101 19.9985 4 19.7075 4 19.3485Z" fill="black"/>
<path fill-rule="evenodd" clip-rule="evenodd" d="M14.5224 17.7608C13.4178 17.7608 12.5224 16.8653 12.5224 15.7608V9.17557C12.5224 8.071 13.4178 7.17556 14.5224 7.17556H16.2955C17.4001 7.17556 18.2955 8.07099 18.2955 9.17556V15.7608C18.2955 16.8653 17.4001 17.7608 16.2955 17.7608H14.5224Z" fill="black"/>
<path d="M7.69966 17.7608C6.5951 17.7608 5.69967 16.8653 5.69967 15.7608L5.69967 6C5.69967 4.89543 6.5951 4 7.69967 4L9.47276 4C10.5773 4 11.4728 4.89543 11.4728 6L11.4728 15.7608C11.4728 16.8653 10.5773 17.7608 9.47276 17.7608H7.69966Z" fill="black"/>
</svg>
