<svg width="28" height="28" viewBox="0 0 28 28" fill="none" xmlns="http://www.w3.org/2000/svg">
<path d="M9.49995 10.7769C9.08114 10.7769 8.74162 11.1164 8.74162 11.5352C8.74162 11.954 9.08114 12.2936 9.49995 12.2936H17.6665C18.0853 12.2936 18.4248 11.954 18.4248 11.5352C18.4248 11.1164 18.0853 10.7769 17.6665 10.7769H9.49995Z" fill="black"/>
<path d="M8.74162 15.0013C8.74162 14.5825 9.08114 14.243 9.49995 14.243H17.6665C18.0853 14.243 18.4248 14.5825 18.4248 15.0013C18.4248 15.4201 18.0853 15.7596 17.6665 15.7596H9.49995C9.08114 15.7596 8.74162 15.4201 8.74162 15.0013Z" fill="black"/>
<path d="M9.49995 17.7092C9.08114 17.7092 8.74162 18.0487 8.74162 18.4675C8.74162 18.8863 9.08114 19.2258 9.49995 19.2258H14.7499C15.1687 19.2258 15.5082 18.8863 15.5082 18.4675C15.5082 18.0487 15.1687 17.7092 14.7499 17.7092H9.49995Z" fill="black"/>
<path fill-rule="evenodd" clip-rule="evenodd" d="M10.0833 5C10.5021 5 10.8416 5.33951 10.8416 5.75832V6.33602H12.8249V5.75832C12.8249 5.33951 13.1644 5 13.5832 5C14.002 5 14.3415 5.33951 14.3415 5.75832V6.33602H16.3248V5.75832C16.3248 5.33951 16.6644 5 17.0832 5C17.502 5 17.8415 5.33951 17.8415 5.75832V6.33602H18.8331C20.1218 6.33602 21.1664 7.38067 21.1664 8.66931V21.3334C21.1664 22.622 20.1218 23.6667 18.8331 23.6667H8.3333C7.04465 23.6667 6 22.622 6 21.3334V8.66931C6 7.38067 7.04465 6.33602 8.3333 6.33602H9.32495V5.75832C9.32495 5.33951 9.66446 5 10.0833 5ZM19.6498 8.66931C19.6498 8.21829 19.2842 7.85266 18.8331 7.85266H8.3333C7.88227 7.85266 7.51664 8.21829 7.51664 8.66931V21.3334C7.51664 21.7844 7.88227 22.15 8.3333 22.15H18.8331C19.2842 22.15 19.6498 21.7844 19.6498 21.3334V8.66931Z" fill="black"/>
</svg>
