<svg width="32" height="32" viewBox="0 0 32 32" fill="none" xmlns="http://www.w3.org/2000/svg">
<path fill-rule="evenodd" clip-rule="evenodd" d="M12.3988 15.665C12.3988 13.8605 13.8619 12.3977 15.6667 12.3977C17.4714 12.3977 18.9345 13.8605 18.9345 15.665C18.9345 17.4695 17.4714 18.9323 15.6667 18.9323C13.8619 18.9323 12.3988 17.4695 12.3988 15.665ZM15.6667 14.0005C14.7473 14.0005 14.0019 14.7457 14.0019 15.665C14.0019 16.5843 14.7473 17.3295 15.6667 17.3295C16.5861 17.3295 17.3314 16.5843 17.3314 15.665C17.3314 14.7457 16.5861 14.0005 15.6667 14.0005Z" fill="black"/>
<path fill-rule="evenodd" clip-rule="evenodd" d="M5 15.665C5 9.77488 9.77563 5 15.6667 5C21.5577 5 26.3333 9.77488 26.3333 15.665C26.3333 21.5551 21.5577 26.33 15.6667 26.33C9.77563 26.33 5 21.5551 5 15.665ZM15.6667 6.60283C10.661 6.60283 6.60308 10.6601 6.60308 15.665C6.60308 20.6699 10.661 24.7272 15.6667 24.7272C20.6723 24.7272 24.7303 20.6699 24.7303 15.665C24.7303 10.6601 20.6723 6.60283 15.6667 6.60283Z" fill="black"/>
</svg>
