<svg width="32" height="32" viewBox="0 0 32 32" fill="none" xmlns="http://www.w3.org/2000/svg">
<path fill-rule="evenodd" clip-rule="evenodd" d="M8.55717 9.09393C8.98705 8.87752 9.5124 9.04776 9.73058 9.47418L11.3836 12.705C12.7224 12.1362 14.1786 11.8345 15.6667 11.8345C17.1547 11.8345 18.611 12.1362 19.9497 12.705L21.6028 9.47418C21.8209 9.04776 22.3463 8.87752 22.7762 9.09393C23.2061 9.31034 23.3777 9.83145 23.1595 10.2579L21.494 13.5132C22.1278 13.9131 22.7215 14.3801 23.2632 14.9096C24.9548 16.5627 26.0241 18.7104 26.3235 21.0049C26.4187 21.7345 25.8086 22.3333 25.0669 22.3333L6.26641 22.3333C5.52475 22.3333 4.91461 21.7345 5.00982 21.0049C5.30927 18.7104 6.37849 16.5627 8.07011 14.9096C8.61186 14.3801 9.2055 13.9131 9.83936 13.5132L8.17382 10.2579C7.95565 9.83145 8.12728 9.31034 8.55717 9.09393ZM11.9737 17.7401C11.9737 18.4649 11.3725 19.0525 10.6308 19.0525C9.88916 19.0525 9.28792 18.4649 9.28792 17.7401C9.28792 17.0153 9.88916 16.4278 10.6308 16.4278C11.3725 16.4278 11.9737 17.0153 11.9737 17.7401ZM22.0454 17.7401C22.0454 18.4649 21.4442 19.0525 20.7025 19.0525C19.9609 19.0525 19.3596 18.4649 19.3596 17.7401C19.3596 17.0153 19.9609 16.4278 20.7025 16.4278C21.4442 16.4278 22.0454 17.0153 22.0454 17.7401Z" fill="black"/>
</svg>
