<svg width="32" height="32" viewBox="0 0 32 32" fill="none" xmlns="http://www.w3.org/2000/svg">
<path fill-rule="evenodd" clip-rule="evenodd" d="M21.6667 7.66667C21.6667 6.19391 20.4728 5 19 5H12.3333C10.8606 5 9.66667 6.19391 9.66667 7.66667H7.66667C6.19391 7.66667 5 8.86057 5 10.3333V21C5 22.4728 6.19391 23.6667 7.66667 23.6667H9.66667C9.66667 25.1394 10.8606 26.3333 12.3333 26.3333H19C20.4728 26.3333 21.6667 25.1394 21.6667 23.6667H23.6667C25.1394 23.6667 26.3333 22.4728 26.3333 21V10.3333C26.3333 8.86057 25.1394 7.66667 23.6667 7.66667H21.6667ZM19 6.73333H12.3333C11.8179 6.73333 11.4 7.1512 11.4 7.66667V9.4V21.9333V23.6667C11.4 24.1821 11.8179 24.6 12.3333 24.6H19C19.5155 24.6 19.9333 24.1821 19.9333 23.6667V21.9333V9.4V7.66667C19.9333 7.1512 19.5155 6.73333 19 6.73333ZM21.6667 21.9333V9.4H23.6667C24.1821 9.4 24.6 9.81787 24.6 10.3333V21C24.6 21.5155 24.1821 21.9333 23.6667 21.9333H21.6667ZM7.66667 21.9333H9.66667V9.4H7.66667C7.1512 9.4 6.73333 9.81787 6.73333 10.3333V21C6.73333 21.5155 7.1512 21.9333 7.66667 21.9333Z" fill="black"/>
</svg>
