<svg width="32" height="32" viewBox="0 0 32 32" fill="none" xmlns="http://www.w3.org/2000/svg">
<path fill-rule="evenodd" clip-rule="evenodd" d="M14.6667 12.1333C13.4516 12.1333 12.4667 13.1183 12.4667 14.3333C12.4667 15.5484 13.4516 16.5333 14.6667 16.5333H17.3333C18.5484 16.5333 19.5333 15.5484 19.5333 14.3333C19.5333 13.1183 18.5484 12.1333 17.3333 12.1333H14.6667ZM14.2 14.3333C14.2 14.0756 14.4089 13.8667 14.6667 13.8667H17.3333C17.5911 13.8667 17.8 14.0756 17.8 14.3333C17.8 14.5911 17.5911 14.8 17.3333 14.8H14.6667C14.4089 14.8 14.2 14.5911 14.2 14.3333Z" fill="black"/>
<path fill-rule="evenodd" clip-rule="evenodd" d="M12.4108 7.2162C12.1765 7.68635 12.0356 8.2011 12 8.73173C11.9403 8.7608 12.0441 8.70556 12 8.73173C9.5228 10.0913 8 12.6414 8 15.6667V23.6667C8 25.1394 9.19391 26.3333 10.6667 26.3333H21.3333C22.8061 26.3333 24 25.1394 24 23.6667V15.6667C24 12.698 22.383 10.1069 19.9816 8.72633C19.9454 8.19761 19.8047 7.68475 19.5712 7.2162C19.3804 6.83321 19.1277 6.47983 18.8194 6.17157C18.0693 5.42143 17.0519 5 15.991 5C14.9301 5 13.9127 5.42143 13.1626 6.17157C12.8543 6.47983 12.6016 6.83321 12.4108 7.2162ZM16 7.66667C15.2595 7.66667 14.5424 7.76729 13.8618 7.9556L13.8799 7.94815C13.9924 7.72233 14.1414 7.51396 14.3232 7.3322C14.7655 6.88988 15.3655 6.64138 15.991 6.64138C16.6165 6.64138 17.2165 6.88988 17.6588 7.3322C17.8398 7.5132 17.9883 7.72059 18.1007 7.94532C17.4313 7.76363 16.7269 7.66667 16 7.66667ZM9.73333 23.6667V20.5333H11.1333V22.3333C11.1333 22.812 11.5214 23.2 12 23.2C12.4786 23.2 12.8667 22.812 12.8667 22.3333V20.5333H22.2667V23.6667C22.2667 24.1821 21.8488 24.6 21.3333 24.6H10.6667C10.1512 24.6 9.73333 24.1821 9.73333 23.6667ZM22.2667 18.8V15.6667C22.2667 12.2057 19.461 9.4 16 9.4C12.539 9.4 9.73333 12.2057 9.73333 15.6667V18.8H22.2667Z" fill="black"/>
</svg>
