<svg width="32" height="32" viewBox="0 0 32 32" fill="none" xmlns="http://www.w3.org/2000/svg">
<path d="M13.0121 8.72895C13.782 8.04855 14.7872 7.61337 15.6883 7.61337C16.1669 7.61337 16.5548 8.00134 16.5548 8.47993C16.5548 8.95852 16.1669 9.34649 15.6883 9.34649C15.2957 9.34649 14.6837 9.56465 14.1598 10.0276C13.6529 10.4756 13.3206 11.0707 13.3206 11.7466C13.3206 12.2252 12.9326 12.6132 12.454 12.6132C11.9754 12.6132 11.5874 12.2252 11.5874 11.7466C11.5874 10.4626 12.2254 9.42426 13.0121 8.72895Z" fill="black"/>
<path fill-rule="evenodd" clip-rule="evenodd" d="M9 12.4C9 8.32124 12.2759 5 16.3351 5C20.3944 5 23.6703 8.32124 23.6703 12.4C23.6703 15.9751 20.9231 18.8107 18.1364 20.7557C17.8455 20.9588 17.5295 21.1073 17.2017 21.2014V21.5202C17.2017 22.7351 16.2169 23.72 15.002 23.72H13.7872C13.5295 23.72 13.3206 23.9289 13.3206 24.1866V25.4668C13.3206 25.9454 12.9326 26.3333 12.454 26.3333C11.9754 26.3333 11.5874 25.9454 11.5874 25.4668V24.1866C11.5874 22.9717 12.5723 21.9869 13.7872 21.9869H15.002C15.2597 21.9869 15.4686 21.7779 15.4686 21.5202V21.2014C15.1408 21.1073 14.8247 20.9588 14.5339 20.7557C11.7472 18.8107 9 15.9751 9 12.4ZM16.3351 6.73312C13.2494 6.73312 10.7331 9.26209 10.7331 12.4C10.7331 15.0646 12.822 17.4473 15.5258 19.3346C16.014 19.6753 16.6563 19.6753 17.1445 19.3346C19.8483 17.4473 21.9372 15.0646 21.9372 12.4C21.9372 9.26209 19.4209 6.73312 16.3351 6.73312Z" fill="black"/>
</svg>
