<svg width="32" height="32" viewBox="0 0 32 32" fill="none" xmlns="http://www.w3.org/2000/svg">
<path fill-rule="evenodd" clip-rule="evenodd" d="M7.66667 5C6.19391 5 5 6.19391 5 7.66667C5 9.13943 6.19391 10.3333 7.66667 10.3333H14.3333C15.8061 10.3333 17 9.13943 17 7.66667C17 6.19391 15.8061 5 14.3333 5H7.66667Z" fill="black"/>
<path fill-rule="evenodd" clip-rule="evenodd" d="M7.66667 13C6.19391 13 5 14.1939 5 15.6667C5 17.1394 6.19391 18.3333 7.66667 18.3333H18.3333C19.8061 18.3333 21 17.1394 21 15.6667C21 14.1939 19.8061 13 18.3333 13H7.66667Z" fill="black"/>
<path fill-rule="evenodd" clip-rule="evenodd" d="M5 23.6667C5 22.1939 6.19391 21 7.66667 21H23.6667C25.1394 21 26.3333 22.1939 26.3333 23.6667C26.3333 25.1394 25.1394 26.3333 23.6667 26.3333H7.66667C6.19391 26.3333 5 25.1394 5 23.6667Z" fill="black"/>
</svg>
