<svg width="32" height="32" viewBox="0 0 32 32" fill="none" xmlns="http://www.w3.org/2000/svg">
<path fill-rule="evenodd" clip-rule="evenodd" d="M5 11.6667C5 10.1939 6.19391 9 7.66667 9H21.6936C23.1664 9 24.3603 10.1939 24.3603 11.6667V12.9144C25.45 12.9144 26.3333 13.7977 26.3333 14.8874V16.4459C26.3333 17.5356 25.45 18.419 24.3603 18.419V19.6667C24.3603 21.1394 23.1664 22.3333 21.6936 22.3333H7.66667C6.19391 22.3333 5 21.1394 5 19.6667V11.6667ZM8.73333 11.6667C8.14423 11.6667 7.66667 12.1442 7.66667 12.7333V18.6C7.66667 19.1891 8.14423 19.6667 8.73333 19.6667C9.32244 19.6667 9.8 19.1891 9.8 18.6V12.7333C9.8 12.1442 9.32244 11.6667 8.73333 11.6667Z" fill="black"/>
</svg>
