<svg width="32" height="32" viewBox="0 0 32 32" fill="none" xmlns="http://www.w3.org/2000/svg">
<path fill-rule="evenodd" clip-rule="evenodd" d="M16.2513 5.06452C16.7051 4.89944 17.2078 5.05823 17.5023 5.45972L21.4334 10.8175C21.8015 11.3191 21.733 12.0388 21.2778 12.4524L17.7389 15.6679V15.7633L21.2778 18.9788C21.736 19.3951 21.8019 20.121 21.427 20.6224L17.4959 25.879C17.199 26.2759 16.6977 26.4303 16.2464 26.2637C15.795 26.0971 15.4926 25.6459 15.4926 25.1393V18.59L12.9174 21.3199C12.4787 21.7849 11.7676 21.7849 11.329 21.3199C10.8904 20.855 10.8904 20.1011 11.329 19.6361L15.2722 15.4561L11.3836 11.8492C10.9167 11.4162 10.8694 10.664 11.2779 10.1691C11.6864 9.67425 12.3959 9.6241 12.8628 10.0571L15.4926 12.4964V6.19068C15.4926 5.68205 15.7974 5.22959 16.2513 5.06452ZM17.7389 18.8995V21.7209L18.9952 20.041L17.7389 18.8995ZM17.7389 12.5316L19.0028 11.3833L17.7389 9.66077V12.5316Z" fill="black"/>
</svg>
