<svg width="32" height="32" viewBox="0 0 32 32" fill="none" xmlns="http://www.w3.org/2000/svg">
<path d="M15.6667 5C17.8186 5 19.8217 5.63725 21.4976 6.73333H15.6667C10.7329 6.73333 6.73333 10.7329 6.73333 15.6666C6.73333 20.4188 10.4439 24.3042 15.1257 24.5839C15.3124 24.595 15.4667 24.444 15.4667 24.257V24C15.4667 23.8159 15.6159 23.6666 15.8 23.6666H22.7222C21.9242 24.371 21.0199 24.9578 20.0366 25.4C18.703 25.9997 17.2237 26.3333 15.6667 26.3333C9.77562 26.3333 5 21.5577 5 15.6666C5 9.77562 9.77562 5 15.6667 5Z" fill="black"/>
<path d="M26.3333 15.6666C26.3333 16.2568 26.2854 16.8359 26.1932 17.4H15.8C15.6159 17.4 15.4667 17.2507 15.4667 17.0666V16C15.4667 15.8159 15.6159 15.6666 15.8 15.6666L26.3333 15.6666Z" fill="black"/>
<path d="M25.9973 18.3333C25.8429 18.9331 25.6377 19.5125 25.3864 20.0666H15.8C15.6159 20.0666 15.4667 19.9174 15.4667 19.7333V18.6666C15.4667 18.4826 15.6159 18.3333 15.8 18.3333H25.9973Z" fill="black"/>
<path d="M24.9063 21C24.5477 21.6199 24.1285 22.2004 23.6568 22.7333H15.8C15.6159 22.7333 15.4667 22.5841 15.4667 22.4V21.3333C15.4667 21.1492 15.6159 21 15.8 21H24.9063Z" fill="black"/>
<path d="M26.2931 14.7333C26.2417 14.1403 26.1417 13.5612 25.9973 13H15.8C15.6159 13 15.4667 13.1492 15.4667 13.3333V14.4C15.4667 14.5841 15.6159 14.7333 15.8 14.7333H26.2931Z" fill="black"/>
<path d="M25.7106 12.0667C25.4937 11.4617 25.2238 10.8821 24.9063 10.3333H15.8C15.6159 10.3333 15.4667 10.4826 15.4667 10.6667V11.7333C15.4667 11.9174 15.6159 12.0667 15.8 12.0667H25.7106Z" fill="black"/>
<path d="M24.2993 9.39999C23.8382 8.76586 23.3089 8.18449 22.7222 7.66666H15.8C15.6159 7.66666 15.4667 7.8159 15.4667 8V9.06666C15.4667 9.25076 15.6159 9.39999 15.8 9.39999H24.2993Z" fill="black"/>
</svg>
