<svg width="32" height="32" viewBox="0 0 32 32" fill="none" xmlns="http://www.w3.org/2000/svg">
<path d="M11.6667 15.665C11.6667 16.4012 11.0697 16.998 10.3333 16.998C9.59695 16.998 9 16.4012 9 15.665C9 14.9288 9.59695 14.332 10.3333 14.332C11.0697 14.332 11.6667 14.9288 11.6667 15.665Z" fill="black"/>
<path d="M14.3333 14.9985C13.9651 14.9985 13.6667 15.2969 13.6667 15.665C13.6667 16.0331 13.9651 16.3315 14.3333 16.3315H21.6667C22.0349 16.3315 22.3333 16.0331 22.3333 15.665C22.3333 15.2969 22.0349 14.9985 21.6667 14.9985H14.3333Z" fill="black"/>
<path fill-rule="evenodd" clip-rule="evenodd" d="M7.66667 9C6.19391 9 5 10.1936 5 11.666V19.664C5 21.1364 6.19391 22.33 7.66667 22.33H23.6667C25.1394 22.33 26.3333 21.1364 26.3333 19.664V11.666C26.3333 10.1936 25.1394 9 23.6667 9H7.66667ZM23.6667 10.7329H7.66667C7.1512 10.7329 6.73333 11.1507 6.73333 11.666V19.664C6.73333 20.1793 7.1512 20.5971 7.66667 20.5971H23.6667C24.1821 20.5971 24.6 20.1793 24.6 19.664V11.666C24.6 11.1507 24.1821 10.7329 23.6667 10.7329Z" fill="black"/>
</svg>
