<svg width="32" height="32" viewBox="0 0 32 32" fill="none" xmlns="http://www.w3.org/2000/svg">
<path d="M5.00006 10.1333C5.00006 10.5015 5.29853 10.8 5.66672 10.8H25.6667C26.0349 10.8 26.3333 10.5015 26.3333 10.1333V7.66666C26.3333 6.1939 25.1394 5 23.6667 5H7.66672C6.19396 5 5.00006 6.1939 5.00006 7.66666V10.1333Z" fill="black"/>
<path fill-rule="evenodd" clip-rule="evenodd" d="M5 13.2C5 12.8318 5.29847 12.5333 5.66667 12.5333H25.6667C26.0349 12.5333 26.3333 12.8318 26.3333 13.2V23.6666C26.3333 25.1394 25.1394 26.3333 23.6667 26.3333H7.66672C6.19396 26.3333 5.00006 25.1394 5.00006 23.6666L5 13.2ZM11.6667 16.3333C11.6667 17.0697 11.0698 17.6666 10.3334 17.6666C9.597 17.6666 9.00005 17.0697 9.00005 16.3333C9.00005 15.5969 9.597 15 10.3334 15C11.0698 15 11.6667 15.5969 11.6667 16.3333ZM15.6667 17.6666C16.4031 17.6666 17 17.0697 17 16.3333C17 15.5969 16.4031 15 15.6667 15C14.9303 15 14.3334 15.5969 14.3334 16.3333C14.3334 17.0697 14.9303 17.6666 15.6667 17.6666ZM22.3333 16.3333C22.3333 17.0697 21.7364 17.6666 21 17.6666C20.2636 17.6666 19.6667 17.0697 19.6667 16.3333C19.6667 15.5969 20.2636 15 21 15C21.7364 15 22.3333 15.5969 22.3333 16.3333ZM10.3334 21.6666C11.0698 21.6666 11.6667 21.0697 11.6667 20.3333C11.6667 19.5969 11.0698 19 10.3334 19C9.597 19 9.00005 19.5969 9.00005 20.3333C9.00005 21.0697 9.597 21.6666 10.3334 21.6666ZM17 20.3333C17 21.0697 16.4031 21.6666 15.6667 21.6666C14.9303 21.6666 14.3334 21.0697 14.3334 20.3333C14.3334 19.5969 14.9303 19 15.6667 19C16.4031 19 17 19.5969 17 20.3333ZM21 21.6666C21.7364 21.6666 22.3333 21.0697 22.3333 20.3333C22.3333 19.5969 21.7364 19 21 19C20.2636 19 19.6667 19.5969 19.6667 20.3333C19.6667 21.0697 20.2636 21.6666 21 21.6666Z" fill="black"/>
</svg>
