<svg width="32" height="32" viewBox="0 0 32 32" fill="none" xmlns="http://www.w3.org/2000/svg">
<path fill-rule="evenodd" clip-rule="evenodd" d="M20.2311 6.26985H22.015C23.1113 6.26985 24 7.20792 24 8.36509V24.2381C24 25.3953 23.1113 26.3333 22.015 26.3333H9.98496C8.8887 26.3333 8 25.3953 8 24.2381V8.36509C8 7.20792 8.8887 6.26985 9.98496 6.26985H11.769C12.0725 5.52307 12.7754 5 13.594 5H18.406C19.2247 5 19.9275 5.52307 20.2311 6.26985ZM11.769 7.92064H9.98496C9.75242 7.92064 9.56391 8.11963 9.56391 8.36509V24.2381C9.56391 24.4836 9.75242 24.6825 9.98496 24.6825H22.015C22.2476 24.6825 22.4361 24.4836 22.4361 24.2381V8.36509C22.4361 8.11963 22.2476 7.92064 22.015 7.92064H20.231C19.9275 8.66741 19.2247 9.19048 18.406 9.19048H13.594C12.7754 9.19048 12.0725 8.66741 11.769 7.92064ZM13.173 7.09524C13.173 6.84978 13.3615 6.65079 13.594 6.65079H18.406C18.6386 6.65079 18.8271 6.84978 18.8271 7.09524C18.8271 7.3407 18.6386 7.53968 18.406 7.53968H13.594C13.3615 7.53968 13.173 7.3407 13.173 7.09524Z" fill="black"/>
</svg>
