<svg width="32" height="32" viewBox="0 0 32 32" fill="none" xmlns="http://www.w3.org/2000/svg">
<path fill-rule="evenodd" clip-rule="evenodd" d="M26.3333 15.665C26.3333 21.5551 21.5577 26.33 15.6667 26.33C9.77563 26.33 5 21.5551 5 15.665C5 9.77488 9.77563 5 15.6667 5C16.2463 5 16.8151 5.04622 17.3696 5.13518C18.3788 5.29707 18.6099 6.65282 18.4026 7.65353C18.3572 7.87284 18.3333 8.10004 18.3333 8.33281C18.3333 9.85063 19.3474 11.1904 20.7355 11.5999C20.8876 11.6448 20.9977 11.78 21.0137 11.9377C21.15 13.2824 22.2858 14.3319 23.6667 14.3319C23.7005 14.3319 23.7342 14.3312 23.7677 14.33C24.7557 14.2932 26.3333 14.6765 26.3333 15.665ZM10.3333 12.9987C11.0697 12.9987 11.6667 12.4019 11.6667 11.6656C11.6667 10.9294 11.0697 10.3325 10.3333 10.3325C9.59692 10.3325 9 10.9294 9 11.6656C9 12.4019 9.59692 12.9987 10.3333 12.9987ZM17 15.665C17 16.4013 16.4031 16.9981 15.6667 16.9981C14.9303 16.9981 14.3333 16.4013 14.3333 15.665C14.3333 14.9287 14.9303 14.3319 15.6667 14.3319C16.4031 14.3319 17 14.9287 17 15.665ZM21 20.9975C21 21.7338 20.4031 22.3306 19.6667 22.3306C18.9303 22.3306 18.3333 21.7338 18.3333 20.9975C18.3333 20.2612 18.9303 19.6644 19.6667 19.6644C20.4031 19.6644 21 20.2612 21 20.9975ZM13 19.6644C13 20.4006 12.4031 20.9975 11.6667 20.9975C10.9303 20.9975 10.3333 20.4006 10.3333 19.6644C10.3333 18.9281 10.9303 18.3313 11.6667 18.3313C12.4031 18.3313 13 18.9281 13 19.6644Z" fill="black"/>
</svg>
