<svg width="32" height="32" viewBox="0 0 32 32" fill="none" xmlns="http://www.w3.org/2000/svg">
<path d="M12.3333 5C10.8606 5 9.66667 6.19404 9.66667 7.66696V21.0018C9.66667 22.4747 10.8606 23.6687 12.3333 23.6687H23C24.4728 23.6687 25.6667 22.4747 25.6667 21.0018V7.66696C25.6667 6.19404 24.4728 5 23 5H12.3333Z" fill="black"/>
<path d="M22.1379 26.3333C22.6165 26.3333 23.0046 25.9453 23.0046 25.4666C23.0046 24.9879 22.6165 24.5998 22.1379 24.5998L10.5333 24.5998C9.53922 24.5998 8.73333 23.7938 8.73333 22.7996L8.73333 8.53372C8.73333 8.05502 8.34531 7.66696 7.86667 7.66696C7.38802 7.66696 7 8.05502 7 8.53372V22.7996C7 24.7512 8.58193 26.3333 10.5333 26.3333H22.1379Z" fill="black"/>
</svg>
