<svg width="32" height="32" viewBox="0 0 32 32" fill="none" xmlns="http://www.w3.org/2000/svg">
<path fill-rule="evenodd" clip-rule="evenodd" d="M9.66667 7.66696C9.66667 6.19404 10.8606 5 12.3333 5H23C24.4728 5 25.6667 6.19404 25.6667 7.66696V21.0018C25.6667 22.4747 24.4728 23.6687 23 23.6687H12.3333C10.8606 23.6687 9.66667 22.4747 9.66667 21.0018V7.66696ZM12.3333 6.73352H23C23.5155 6.73352 23.9333 7.15144 23.9333 7.66696V21.0018C23.9333 21.5173 23.5155 21.9352 23 21.9352H12.3333C11.8179 21.9352 11.4 21.5173 11.4 21.0018V7.66696C11.4 7.15144 11.8179 6.73352 12.3333 6.73352Z" fill="black"/>
<path d="M22.1379 26.3333C22.6165 26.3333 23.0046 25.9453 23.0046 25.4666C23.0046 24.9879 22.6165 24.5998 22.1379 24.5998L10.5333 24.5998C9.53922 24.5998 8.73333 23.7938 8.73333 22.7996L8.73333 8.53372C8.73333 8.05502 8.34531 7.66696 7.86667 7.66696C7.38802 7.66696 7 8.05502 7 8.53372V22.7996C7 24.7512 8.58193 26.3333 10.5333 26.3333H22.1379Z" fill="black"/>
</svg>
