<svg width="32" height="32" viewBox="0 0 32 32" fill="none" xmlns="http://www.w3.org/2000/svg">
<path d="M5.47945 4.25383C5.14101 3.91539 4.59228 3.91539 4.25383 4.25383C3.91539 4.59228 3.91539 5.14101 4.25383 5.47946L26.5205 27.7462C26.859 28.0846 27.4077 28.0846 27.7462 27.7462C28.0846 27.4077 28.0846 26.859 27.7462 26.5205L5.47945 4.25383Z" fill="black"/>
<path d="M6.19994 8.94556H6.27896L12.5205 15.1871V21.896C12.5205 22.3746 12.9085 22.7626 13.3871 22.7626C13.8657 22.7626 14.2537 22.3746 14.2537 21.896V16.9203L17.7477 20.4143V21.896C17.7477 22.3746 18.1357 22.7626 18.6143 22.7626C19.016 22.7626 19.3538 22.4894 19.4521 22.1187L22.8822 25.5488C22.3969 26.2282 21.6021 26.6669 20.711 26.6669H11.2905C9.89391 26.6669 8.73389 25.5893 8.63117 24.1964L7.63432 10.6788H6.19994C5.72131 10.6788 5.3333 10.2908 5.3333 9.8122C5.3333 9.33357 5.72131 8.94556 6.19994 8.94556Z" fill="black"/>
<path fill-rule="evenodd" clip-rule="evenodd" d="M11.3634 8.69685L17.7477 15.0811V13.7172C17.7477 13.2386 18.1357 12.8506 18.6143 12.8506C19.093 12.8506 19.481 13.2386 19.481 13.7172V16.8144L23.6103 20.9437L24.3672 10.6796L25.802 10.6788C26.2807 10.6788 26.6687 10.2908 26.6687 9.8122C26.6687 9.33357 26.2807 8.94556 25.802 8.94556H20.6963C20.5704 8.32957 20.3027 7.63837 19.8202 7.02092C19.06 6.04813 17.8229 5.3333 16.001 5.3333C14.1791 5.3333 12.9419 6.04813 12.1818 7.02092C11.7633 7.55648 11.5064 8.14752 11.3634 8.69685ZM18.4544 8.08816C18.6653 8.35806 18.8109 8.65748 18.9058 8.94556H13.0961C13.1911 8.65748 13.3366 8.35806 13.5475 8.08816C13.9635 7.55585 14.6865 7.06659 16.001 7.06659C17.3154 7.06659 18.0385 7.55585 18.4544 8.08816Z" fill="black"/>
</svg>
