<svg width="32" height="32" viewBox="0 0 32 32" fill="none" xmlns="http://www.w3.org/2000/svg">
<path fill-rule="evenodd" clip-rule="evenodd" d="M15.6667 26.3333C21.5577 26.3333 26.3333 21.5577 26.3333 15.6667C26.3333 9.77563 21.5577 5 15.6667 5C9.77563 5 5 9.77563 5 15.6667C5 21.5577 9.77563 26.3333 15.6667 26.3333ZM12.2795 11.0538C11.941 10.7154 11.3923 10.7154 11.0538 11.0538C10.7154 11.3923 10.7154 11.941 11.0538 12.2795L14.441 15.6667L11.0538 19.0538C10.7154 19.3923 10.7154 19.941 11.0538 20.2795C11.3923 20.6179 11.941 20.6179 12.2795 20.2795L15.6667 16.8923L19.0538 20.2795C19.3923 20.6179 19.941 20.6179 20.2795 20.2795C20.6179 19.941 20.6179 19.3923 20.2795 19.0538L16.8923 15.6667L20.2795 12.2795C20.6179 11.941 20.6179 11.3923 20.2795 11.0538C19.941 10.7154 19.3923 10.7154 19.0538 11.0538L15.6667 14.441L12.2795 11.0538Z" fill="black"/>
</svg>
