<svg width="32" height="32" viewBox="0 0 32 32" fill="none" xmlns="http://www.w3.org/2000/svg">
<path d="M10.9462 14.4963C11.1814 14.261 11.6236 13.9701 12.1226 13.8888C12.5678 13.8164 13.1202 13.896 13.7205 14.4963C14.059 14.8347 14.6077 14.8347 14.9462 14.4963C15.2846 14.1578 15.2846 13.6091 14.9462 13.2706C13.9464 12.2709 12.8322 12.0172 11.8441 12.178C10.9097 12.3301 10.1519 12.8392 9.72051 13.2706C9.38205 13.6091 9.38205 14.1578 9.72051 14.4963C10.059 14.8347 10.6077 14.8347 10.9462 14.4963Z" fill="black"/>
<path d="M18.7893 13.8888C18.2903 13.9701 17.8481 14.261 17.6128 14.4963C17.2744 14.8347 16.7256 14.8347 16.3872 14.4963C16.0487 14.1578 16.0487 13.6091 16.3872 13.2706C16.8186 12.8392 17.5764 12.3301 18.5107 12.178C19.4988 12.0172 20.6131 12.2709 21.6128 13.2706C21.9513 13.6091 21.9513 14.1578 21.6128 14.4963C21.2744 14.8347 20.7256 14.8347 20.3872 14.4963C19.7869 13.896 19.2345 13.8164 18.7893 13.8888Z" fill="black"/>
<path fill-rule="evenodd" clip-rule="evenodd" d="M11.177 16.1333C10.522 16.1333 9.91599 16.4231 9.52808 16.9041C9.12918 17.3987 8.97421 18.0872 9.23956 18.7707C10.0123 20.7612 11.9172 23.2 15.6667 23.2C19.4161 23.2 21.3211 20.7612 22.0938 18.7707C22.3591 18.0872 22.2042 17.3987 21.8053 16.9041C21.4173 16.4231 20.8113 16.1333 20.1563 16.1333H11.177ZM10.8554 18.1434C10.8387 18.1005 10.8404 18.0752 10.8428 18.0614C10.8456 18.045 10.8542 18.0209 10.8773 17.9923C10.9262 17.9316 11.0301 17.8667 11.177 17.8667H20.1563C20.3032 17.8667 20.4071 17.9316 20.4561 17.9923C20.4792 18.0209 20.4877 18.045 20.4905 18.0614C20.4929 18.0752 20.4946 18.1005 20.4779 18.1434C19.8698 19.7101 18.4717 21.4667 15.6667 21.4667C12.8616 21.4667 11.4636 19.7101 10.8554 18.1434Z" fill="black"/>
<path fill-rule="evenodd" clip-rule="evenodd" d="M26.3333 15.6667C26.3333 21.5577 21.5577 26.3333 15.6667 26.3333C9.77563 26.3333 5 21.5577 5 15.6667C5 9.77563 9.77563 5 15.6667 5C21.5577 5 26.3333 9.77563 26.3333 15.6667ZM24.6 15.6667C24.6 20.6004 20.6004 24.6 15.6667 24.6C10.7329 24.6 6.73333 20.6004 6.73333 15.6667C6.73333 10.7329 10.7329 6.73333 15.6667 6.73333C20.6004 6.73333 24.6 10.7329 24.6 15.6667Z" fill="black"/>
</svg>
