<svg width="32" height="32" viewBox="0 0 32 32" fill="none" xmlns="http://www.w3.org/2000/svg">
<path fill-rule="evenodd" clip-rule="evenodd" d="M25.1873 6.14599C24.1797 5.13831 23.0571 4.88296 22.0619 5.04497C21.134 5.19602 20.3787 5.69657 19.941 6.12715L18.5491 7.36813L18.0885 6.90747C17.2054 6.02445 15.7654 6.05257 14.9175 6.96938L14.0365 7.92202C13.2341 8.78957 13.2604 10.136 14.096 10.9716L14.617 11.4926L5.72141 21.0236C5.63195 21.1195 5.57273 21.2396 5.55118 21.3689L5.02144 24.5474C4.84846 25.5852 5.74824 26.485 6.78609 26.312L9.96454 25.7823C10.0939 25.7607 10.214 25.7015 10.3098 25.612L19.8408 16.7164L20.2881 17.1637C21.1711 18.0467 22.6112 18.0186 23.4591 17.1018L24.3401 16.1492C25.1425 15.2816 25.1162 13.9352 24.2806 13.0996L23.8165 12.6355L25.1698 11.4289L25.1873 11.4114C25.6221 10.9766 26.1351 10.2129 26.2884 9.2714C26.4504 8.2762 26.195 7.15366 25.1873 6.14599ZM15.8435 12.719L18.6144 15.49L9.65622 23.8509C9.46451 24.0299 9.22429 24.1483 8.96562 24.1914L7.69801 24.4027C7.24677 24.4779 6.85556 24.0867 6.93077 23.6354L7.14204 22.3678C7.18515 22.1092 7.30358 21.8689 7.48251 21.6772L15.8435 12.719Z" fill="black"/>
</svg>
