<svg width="32" height="32" viewBox="0 0 32 32" fill="none" xmlns="http://www.w3.org/2000/svg">
<path d="M5.47945 4.25383C5.14101 3.91539 4.59228 3.91539 4.25383 4.25383C3.91539 4.59228 3.91539 5.14101 4.25383 5.47946L26.5205 27.7462C26.859 28.0846 27.4077 28.0846 27.7462 27.7462C28.0846 27.4077 28.0846 26.859 27.7462 26.5205L5.47945 4.25383Z" fill="black"/>
<path d="M5.3333 25.802V7.9999L18.7749 21.4415H7.73324C7.36506 21.4415 7.06659 21.7399 7.06659 22.1081V25.802C7.06659 26.2807 6.67858 26.6687 6.19994 26.6687C5.72131 26.6687 5.3333 26.2807 5.3333 25.802Z" fill="black"/>
<path d="M7.9999 5.3333L24.1081 21.4415H24.3849C26.1328 21.4415 27.378 19.4885 26.1976 17.9679L22.8257 13.6246C22.7127 13.479 22.7127 13.2957 22.8257 13.1502L26.1976 8.80683C27.378 7.28629 26.1328 5.3333 24.3849 5.3333H7.9999Z" fill="black"/>
</svg>
