<svg width="32" height="32" viewBox="0 0 32 32" fill="none" xmlns="http://www.w3.org/2000/svg">
<path fill-rule="evenodd" clip-rule="evenodd" d="M5 9.98496C5 8.8887 5.82242 8 6.83692 8H11.3856C11.8728 8 12.34 8.20913 12.6845 8.58138L14.8155 10.8842C14.8886 10.9632 14.9877 11.0075 15.0911 11.0075H22.4229C23.4374 11.0075 24.2598 11.8962 24.2598 12.9925V13.3333H25.0023C25.8556 13.3333 26.4882 14.1268 26.3 14.9608L24.4944 22.9608C24.3572 23.5685 23.8184 24 23.1967 24H22.4266L22.4229 24H6.83692L6.83328 24H6.66498C6.25537 24 5.89659 23.8171 5.65506 23.5347C5.25453 23.1705 5 22.6249 5 22.015V9.98496ZM6.44727 17.5877L7.17294 14.3725C7.31009 13.7648 7.8489 13.3333 8.47059 13.3333H22.8126V12.9925C22.8126 12.7599 22.6381 12.5714 22.4229 12.5714H15.0911C14.6039 12.5714 14.1367 12.3623 13.7922 11.99L11.6611 9.68723C11.588 9.60827 11.4889 9.56391 11.3856 9.56391H6.83692C6.62172 9.56391 6.44727 9.75242 6.44727 9.98496V17.5877ZM7.16448 22.2667L8.78953 15.0667H24.5028L22.8778 22.2667H7.16448Z" fill="black"/>
</svg>
