<svg width="32" height="32" viewBox="0 0 32 32" fill="none" xmlns="http://www.w3.org/2000/svg">
<path d="M8.64404 12.6431C10.8527 12.6431 12.6431 10.8526 12.6431 8.64403L12.6431 6.33302C12.6431 5.59681 12.0463 5 11.3101 5C10.5739 5 9.97706 5.59681 9.97706 6.33302V8.64403C9.97706 9.38024 9.38025 9.97705 8.64404 9.97705L6.33302 9.97705C5.59681 9.97705 5 10.5739 5 11.3101C5 12.0463 5.59681 12.6431 6.33302 12.6431L8.64404 12.6431Z" fill="black"/>
<path d="M9.97706 24.997C9.97706 25.7332 10.5739 26.33 11.3101 26.33C12.0463 26.33 12.6431 25.7332 12.6431 24.997V22.686C12.6431 20.4774 10.8527 18.6869 8.64404 18.6869H6.33302C5.59681 18.6869 5 19.2837 5 20.0199C5 20.7561 5.59681 21.353 6.33302 21.353H8.64404C9.38025 21.353 9.97706 21.9498 9.97706 22.686L9.97706 24.997Z" fill="black"/>
<path d="M20.0199 26.33C19.2836 26.33 18.6868 25.7332 18.6868 24.997L18.6868 22.686C18.6868 20.4774 20.4773 18.6869 22.6859 18.6869H24.9969C25.7331 18.6869 26.3299 19.2837 26.3299 20.0199C26.3299 20.7561 25.7331 21.353 24.9969 21.353H22.6859C21.9497 21.353 21.3529 21.9498 21.3529 22.686V24.997C21.3529 25.7332 20.7561 26.33 20.0199 26.33Z" fill="black"/>
<path d="M24.9969 12.6431C25.7331 12.6431 26.3299 12.0463 26.3299 11.3101C26.3299 10.5739 25.7331 9.97705 24.9969 9.97705H22.6859C21.9497 9.97705 21.3529 9.38024 21.3529 8.64404V6.33302C21.3529 5.59682 20.7561 5 20.0199 5C19.2837 5 18.6868 5.59682 18.6868 6.33302V8.64404C18.6868 10.8527 20.4773 12.6431 22.6859 12.6431H24.9969Z" fill="black"/>
</svg>
