<svg width="32" height="32" viewBox="0 0 32 32" fill="none" xmlns="http://www.w3.org/2000/svg">
<path d="M18.9033 24.6012C18.4247 24.6012 18.0368 24.9892 18.0368 25.4678C18.0368 25.9463 18.4247 26.3343 18.9033 26.3343H25.4634C25.942 26.3343 26.33 25.9463 26.33 25.4678C26.33 24.9892 25.942 24.6012 25.4634 24.6012H24.9041C24.9766 24.4745 25.018 24.3278 25.018 24.1714C25.018 23.6929 24.63 23.3049 24.1514 23.3049H20.2154C19.7368 23.3049 19.3488 23.6929 19.3488 24.1714C19.3488 24.3278 19.3902 24.4745 19.4627 24.6012H18.9033Z" fill="black"/>
<path d="M16.2883 5.38811C15.7645 4.87063 14.9153 4.87063 14.3916 5.38811L10.7219 9.01376C10.1981 9.53125 10.1981 10.3703 10.7219 10.8877L11.779 11.9322L17.334 6.42124L16.2883 5.38811Z" fill="black"/>
<path d="M19.958 20.013C20.4818 20.5305 21.331 20.5305 21.8547 20.013L25.5244 16.3874C26.0482 15.8699 26.0482 15.0309 25.5244 14.5134L24.3754 13.3781L18.8204 18.8891L19.958 20.013Z" fill="black"/>
<path fill-rule="evenodd" clip-rule="evenodd" d="M20.5517 10.6378C20.4182 10.5472 20.3023 10.4333 20.2098 10.3018L18.1979 7.44143L12.8138 12.7839L14.2424 13.7647L15.3615 14.533L15.6953 14.7622C15.8284 14.8536 15.9436 14.968 16.0354 15.1L16.2661 15.4318L17.0385 16.5426L17.959 17.8664L23.3379 12.529L20.5517 10.6378Z" fill="black"/>
<path d="M5.5807 25.0927C4.80643 24.3277 4.80643 23.0874 5.5807 22.3225L13.4647 14.533L14.5776 15.3075C14.8366 15.4669 15.3615 15.9414 15.5249 16.1641L16.2661 17.3057L8.38455 25.0927C7.61029 25.8576 6.35496 25.8576 5.5807 25.0927Z" fill="black"/>
</svg>
