<svg width="32" height="32" viewBox="0 0 32 32" fill="none" xmlns="http://www.w3.org/2000/svg">
<path fill-rule="evenodd" clip-rule="evenodd" d="M26.33 10.6662C26.33 9.19372 25.1363 8 23.6637 8H7.66625C6.19372 8 5 9.19372 5 10.6662V21.3313C5 22.8038 6.19372 23.9975 7.66625 23.9975H23.6637C25.1363 23.9975 26.33 22.8038 26.33 21.3313V10.6662ZM8.38665 19.2777C8.04824 18.9393 8.04824 18.3907 8.38665 18.0523L9.57363 16.8653H6.73306V21.3313C6.73306 21.8466 7.15086 22.2644 7.66625 22.2644H10.7991V18.0907L9.6121 19.2777C9.2737 19.6161 8.72505 19.6161 8.38665 19.2777ZM12.5322 18.0907L13.7191 19.2777C14.0575 19.6161 14.6062 19.6161 14.9446 19.2777C15.283 18.9393 15.283 18.3907 14.9446 18.0523L13.7576 16.8653H24.5969V21.3313C24.5969 21.8466 24.1791 22.2644 23.6637 22.2644H12.5322V18.0907ZM13.4748 15.1322H12.5322V14.1896C12.6524 14.0717 12.8171 13.9991 12.9987 13.9991C13.3669 13.9991 13.6653 14.2975 13.6653 14.6656C13.6653 14.8473 13.5926 15.012 13.4748 15.1322ZM12.5322 12.7207V9.73306H23.6637C24.1791 9.73306 24.5969 10.1509 24.5969 10.6662V15.1322H14.9437C14.9795 14.9825 14.9984 14.8263 14.9984 14.6656C14.9984 13.5612 14.1031 12.6659 12.9987 12.6659C12.8381 12.6659 12.6819 12.6849 12.5322 12.7207ZM6.73306 15.1322H8.38754C8.35176 14.9825 8.33281 14.8263 8.33281 14.6656C8.33281 13.5612 9.2281 12.6659 10.3325 12.6659C10.4932 12.6659 10.6494 12.6849 10.7991 12.7207V9.73306H7.66625C7.15086 9.73306 6.73306 10.1509 6.73306 10.6662V15.1322ZM10.7991 15.1322V14.1896C10.6789 14.0717 10.5142 13.9991 10.3325 13.9991C9.96437 13.9991 9.66594 14.2975 9.66594 14.6656C9.66594 14.8473 9.73861 15.012 9.85648 15.1322H10.7991Z" fill="black"/>
</svg>
