<svg width="32" height="32" viewBox="0 0 32 32" fill="none" xmlns="http://www.w3.org/2000/svg">
<path fill-rule="evenodd" clip-rule="evenodd" d="M26.3333 15.6667C26.3333 21.5577 21.5577 26.3333 15.6667 26.3333C9.77563 26.3333 5 21.5577 5 15.6667C5 9.77563 9.77563 5 15.6667 5C21.5577 5 26.3333 9.77563 26.3333 15.6667ZM14.0609 24.4561C13.038 23.1549 12.3066 21.8381 11.8132 20.5333H8.17409C9.48914 22.5538 11.5993 24.0093 14.0609 24.4561ZM15.6362 23.6493C14.7817 22.6095 14.1445 21.5656 13.6864 20.5333H17.4257C16.9001 21.7392 16.2617 22.8014 15.6362 23.6493ZM13.0753 18.8H18.0626C18.2471 18.1846 18.3947 17.5451 18.4928 16.8886C18.7009 15.4961 18.6877 14.0239 18.3257 12.5333H13.197C13.0466 13.0581 12.9249 13.6026 12.8402 14.1629C12.6208 15.6147 12.6474 17.1815 13.0753 18.8ZM13.8206 10.8C14.363 9.55129 15.039 8.4712 15.698 7.63204C16.6124 8.67065 17.2783 9.73401 17.7421 10.8H13.8206ZM20.1017 12.5333C20.4278 14.1106 20.4277 15.6687 20.2071 17.1447C20.1226 17.71 20.006 18.2628 19.8636 18.8H24.0351C24.4003 17.825 24.6 16.7692 24.6 15.6667C24.6 14.5642 24.4003 13.5083 24.0351 12.5333H20.1017ZM23.1592 10.8H19.6084C19.1266 9.48202 18.3917 8.16668 17.3425 6.89028C19.7741 7.35177 21.8567 8.79874 23.1592 10.8ZM11.9494 10.8H8.17409C9.49592 8.76911 11.6211 7.30906 14.099 6.87043C13.3137 7.92684 12.5339 9.26481 11.9494 10.8ZM7.29828 12.5333H11.4022C11.2902 12.9788 11.1971 13.4361 11.1264 13.9038C10.8924 15.4517 10.9064 17.1048 11.2909 18.8H7.29828C6.93305 17.825 6.73333 16.7692 6.73333 15.6667C6.73333 14.5642 6.93305 13.5083 7.29828 12.5333ZM17.1804 24.4723C17.9449 23.401 18.7107 22.0572 19.2993 20.5333H23.1592C21.8278 22.579 19.6814 24.0454 17.1804 24.4723Z" fill="black"/>
</svg>
