<svg width="32" height="32" viewBox="0 0 32 32" fill="none" xmlns="http://www.w3.org/2000/svg">
<path d="M5.47945 4.25383C5.14101 3.91539 4.59228 3.91539 4.25383 4.25383C3.91539 4.59228 3.91539 5.14101 4.25383 5.47946L26.5205 27.7462C26.859 28.0846 27.4077 28.0846 27.7462 27.7462C28.0846 27.4077 28.0846 26.859 27.7462 26.5205L5.47945 4.25383Z" fill="black"/>
<path d="M5.3333 10.6665C5.3333 9.93014 5.63177 9.26349 6.11433 8.78093L10.7781 13.4447C10.7091 13.5136 10.6665 13.6088 10.6665 13.714V18.2853C10.6665 18.4957 10.8371 18.6663 11.0474 18.6663C11.2578 18.6663 11.4284 18.4957 11.4284 18.2853V16.3806H12.9521V18.2853C12.9521 18.4957 13.1227 18.6663 13.3331 18.6663C13.5435 18.6663 13.714 18.4957 13.714 18.2853V16.3806L14.4759 17.1425V18.2853C14.4759 18.4957 14.6465 18.6663 14.8569 18.6663C15.1248 18.6663 15.4709 18.6187 15.8255 18.4921L21.3329 23.9995H7.9999C6.52718 23.9995 5.3333 22.8056 5.3333 21.3329V10.6665Z" fill="black"/>
<path d="M11.4284 15.6187V14.095L12.9521 15.6187H11.4284Z" fill="black"/>
<path d="M10.6665 7.9999L16.5913 13.9247C16.7383 14.0401 16.8751 14.1746 16.9962 14.3296L17.9044 15.2378V13.714C17.9044 13.5036 18.0749 13.3331 18.2853 13.3331H20.19C20.4192 13.3331 20.7123 13.4317 20.9457 13.6838C21.1845 13.9416 21.3329 14.328 21.3329 14.8569C21.3329 15.3857 21.1845 15.7721 20.9457 16.0299C20.7123 16.2821 20.4192 16.3806 20.19 16.3806H19.9996L21.2567 18.0568C21.3719 18.2104 21.3535 18.4229 21.2213 18.5547L25.8851 23.2185C26.3676 22.7359 26.6661 22.0693 26.6661 21.3329V10.6665C26.6661 9.19378 25.4722 7.9999 23.9995 7.9999H10.6665Z" fill="black"/>
<path d="M18.6663 15.6187V14.095H20.19C20.2148 14.095 20.3027 14.1107 20.3867 14.2014C20.4654 14.2864 20.571 14.4714 20.571 14.8569C20.571 15.2423 20.4654 15.4273 20.3867 15.5123C20.3027 15.603 20.2148 15.6187 20.19 15.6187H18.6663Z" fill="black"/>
</svg>
