<svg width="32" height="32" viewBox="0 0 32 32" fill="none" xmlns="http://www.w3.org/2000/svg">
<path fill-rule="evenodd" clip-rule="evenodd" d="M14.5225 5.50568C15.1344 4.83144 16.1989 4.83144 16.8109 5.50568L25.7581 15.3642C27.0576 16.7961 26.0036 19.0289 24.1115 19.0289H21.2523V20.8048C21.2523 22.0292 20.249 23.0007 19.0374 23.0007H12.296C11.0843 23.0007 10.081 22.0292 10.081 20.8048V19.0289H7.22185C5.3297 19.0289 4.27575 16.7961 5.57527 15.3642L14.5225 5.50568ZM6.85886 16.5291L15.6667 6.82422L24.4745 16.5291C24.7292 16.8098 24.5502 17.2955 24.1115 17.2955H21.0598C20.2205 17.2955 19.5189 17.9695 19.5189 18.8268V20.8048C19.5189 21.0487 19.315 21.2673 19.0374 21.2673H12.296C12.0183 21.2673 11.8144 21.0487 11.8144 20.8048V18.8268C11.8144 17.9695 11.1129 17.2955 10.2736 17.2955H7.22185C6.78313 17.2955 6.60416 16.8098 6.85886 16.5291Z" fill="black"/>
<path d="M11.0003 24.6008C10.5216 24.6008 10.1336 24.9888 10.1336 25.4675C10.1336 25.9462 10.5216 26.3342 11.0003 26.3342H20.334C20.8126 26.3342 21.2007 25.9462 21.2007 25.4675C21.2007 24.9888 20.8126 24.6008 20.334 24.6008H11.0003Z" fill="black"/>
</svg>
