<svg width="32" height="32" viewBox="0 0 32 32" fill="none" xmlns="http://www.w3.org/2000/svg">
<path fill-rule="evenodd" clip-rule="evenodd" d="M7.66667 9C6.19391 9 5 10.1939 5 11.6667V21C5 22.4728 6.19391 23.6667 7.66667 23.6667H23.6667C25.1394 23.6667 26.3333 22.4728 26.3333 21V11.6667C26.3333 10.1939 25.1394 9 23.6667 9H7.66667ZM9.46667 19.6667C9.46667 19.188 9.85469 18.8 10.3333 18.8H21C21.4786 18.8 21.8667 19.188 21.8667 19.6667C21.8667 20.1453 21.4786 20.5333 21 20.5333H10.3333C9.85469 20.5333 9.46667 20.1453 9.46667 19.6667ZM13.0667 16.6C13.0667 17.0787 12.6786 17.4667 12.2 17.4667C11.7214 17.4667 11.3333 17.0787 11.3333 16.6C11.3333 16.1214 11.7214 15.7333 12.2 15.7333C12.6786 15.7333 13.0667 16.1214 13.0667 16.6ZM16.5333 16.6C16.5333 17.0787 16.1453 17.4667 15.6666 17.4667C15.188 17.4667 14.8 17.0787 14.8 16.6C14.8 16.1214 15.188 15.7333 15.6666 15.7333C16.1453 15.7333 16.5333 16.1214 16.5333 16.6ZM19.9999 16.6C19.9999 17.0787 19.6119 17.4667 19.1333 17.4667C18.6546 17.4667 18.2666 17.0787 18.2666 16.6C18.2666 16.1214 18.6546 15.7333 19.1333 15.7333C19.6119 15.7333 19.9999 16.1214 19.9999 16.6ZM17.6001 14.4667C18.0787 14.4667 18.4667 14.0787 18.4667 13.6C18.4667 13.1214 18.0787 12.7333 17.6001 12.7333C17.1214 12.7333 16.7334 13.1214 16.7334 13.6C16.7334 14.0787 17.1214 14.4667 17.6001 14.4667ZM13.7334 14.4667C14.212 14.4667 14.6 14.0787 14.6 13.6C14.6 13.1214 14.212 12.7333 13.7334 12.7333C13.2547 12.7333 12.8667 13.1214 12.8667 13.6C12.8667 14.0787 13.2547 14.4667 13.7334 14.4667ZM9.86667 14.4667C10.3453 14.4667 10.7333 14.0787 10.7333 13.6C10.7333 13.1214 10.3453 12.7333 9.86667 12.7333C9.38802 12.7333 9 13.1214 9 13.6C9 14.0787 9.38802 14.4667 9.86667 14.4667ZM21.4668 14.4667C21.9454 14.4667 22.3334 14.0787 22.3334 13.6C22.3334 13.1214 21.9454 12.7333 21.4668 12.7333C20.9881 12.7333 20.6001 13.1214 20.6001 13.6C20.6001 14.0787 20.9881 14.4667 21.4668 14.4667Z" fill="black"/>
</svg>
