<svg width="32" height="32" viewBox="0 0 32 32" fill="none" xmlns="http://www.w3.org/2000/svg">
<path d="M9 8C8.26359 8 7.66667 8.59694 7.66667 9.33333V18.6667C7.66667 19.4031 8.26359 20 9 20H22.3333C23.0697 20 23.6667 19.4031 23.6667 18.6667V9.33333C23.6667 8.59694 23.0697 8 22.3333 8H9Z" fill="black"/>
<path d="M5.8667 21.3333C5.38802 21.3333 5 21.7214 5 22.2C5 22.6786 5.38802 23.0667 5.8667 23.0667H25.4666C25.9453 23.0667 26.3333 22.6786 26.3333 22.2C26.3333 21.7214 25.9453 21.3333 25.4666 21.3333H5.8667Z" fill="black"/>
</svg>
