<svg width="32" height="32" viewBox="0 0 32 32" fill="none" xmlns="http://www.w3.org/2000/svg">
<path d="M8 13C8 15.5651 9.20722 17.8482 11.0845 19.3122C11.2995 19.4798 11.6071 20.259 11.948 21.2412C11.9947 21.3759 12.1214 21.4667 12.2639 21.4667H19.7361C19.8786 21.4667 20.0053 21.3759 20.052 21.2412C20.3929 20.259 20.7005 19.4798 20.9155 19.3122C22.7928 17.8482 24 15.5651 24 13C24 8.58172 20.4183 5 16 5C11.5817 5 8 8.58172 8 13Z" fill="black"/>
<path d="M18 26.3333C18.2922 26.3333 18.7593 25.085 19.2485 23.6385C19.3213 23.423 19.1606 23.2 18.9331 23.2H13.0669C12.8394 23.2 12.6787 23.423 12.7515 23.6385C13.2407 25.085 13.7078 26.3333 14 26.3333H18Z" fill="black"/>
</svg>
