<svg width="32" height="32" viewBox="0 0 32 32" fill="none" xmlns="http://www.w3.org/2000/svg">
<path d="M5 16.3332C5 15.5969 5.5969 15 6.33322 15H7.8888C8.62512 15 9.22202 15.5969 9.22202 16.3332C9.22202 17.0695 8.62512 17.6664 7.8888 17.6664H6.33322C5.5969 17.6664 5 17.0695 5 16.3332Z" fill="black"/>
<path d="M9.66672 16.3332C9.66672 15.5969 10.2636 15 10.9999 15H14.1111C14.8474 15 15.4443 15.5969 15.4443 16.3332C15.4443 17.0695 14.8474 17.6664 14.1111 17.6664H10.9999C10.2636 17.6664 9.66672 17.0695 9.66672 16.3332Z" fill="black"/>
<path d="M15.889 16.3332C15.889 15.5969 16.4859 15 17.2222 15H20.3334C21.0697 15 21.6666 15.5969 21.6666 16.3332C21.6666 17.0695 21.0697 17.6664 20.3334 17.6664H17.2222C16.4859 17.6664 15.889 17.0695 15.889 16.3332Z" fill="black"/>
<path d="M22.1113 16.3332C22.1113 15.5969 22.7082 15 23.4445 15H25.0001C25.7364 15 26.3333 15.5969 26.3333 16.3332C26.3333 17.0695 25.7364 17.6664 25.0001 17.6664H23.4445C22.7082 17.6664 22.1113 17.0695 22.1113 16.3332Z" fill="black"/>
</svg>
