<svg width="32" height="32" viewBox="0 0 32 32" fill="none" xmlns="http://www.w3.org/2000/svg">
<path fill-rule="evenodd" clip-rule="evenodd" d="M20.3331 13.1663C20.8599 13.1663 21.3376 13.4766 21.5516 13.958L26.2183 24.4589C26.517 25.1316 26.2139 25.9189 25.5414 26.2179C24.8687 26.517 24.0806 26.2149 23.7814 25.5422L23.0355 23.8638H17.6307L16.8848 25.5422C16.5857 26.2148 15.7975 26.517 15.1249 26.2179C14.4525 25.9188 14.1494 25.1316 14.448 24.4589L19.1147 13.958L19.2071 13.7861C19.449 13.404 19.8722 13.1664 20.3331 13.1663ZM18.8153 21.1973H21.851L20.3331 17.7821L18.8153 21.1973Z" fill="black"/>
<path d="M13.3337 5C14.0695 5.00043 14.6667 5.59719 14.6667 6.33328V7.23429H20.3344C21.0702 7.23497 21.6663 7.83282 21.6661 8.56887C21.6657 9.30491 21.069 9.90088 20.3331 9.90085H18.8348C18.1744 11.4749 17.1319 13.5261 15.7836 15.4866C15.8372 15.5008 15.8894 15.5183 15.9424 15.5295C16.6624 15.6825 17.1223 16.39 16.9695 17.1102C16.8164 17.8301 16.109 18.2902 15.3891 18.1375C14.9376 18.0416 14.4987 17.8899 14.0757 17.7013C12.6002 19.3882 10.82 20.8751 8.77373 21.5918C8.07893 21.8351 7.31826 21.469 7.07497 20.7741C6.83186 20.0792 7.1977 19.3183 7.89246 19.075C9.26349 18.5948 10.5839 17.5724 11.7938 16.2535C11.605 16.0991 11.422 15.9446 11.2496 15.7886C10.1302 14.7763 9.23024 13.6589 8.72687 12.9111C8.31599 12.3006 8.4775 11.4724 9.08745 11.061C9.69798 10.6498 10.526 10.8112 10.9372 11.4216C11.3313 12.0071 12.0925 12.9567 13.0369 13.8109C13.1749 13.9356 13.3149 14.0552 13.4548 14.1702C14.4707 12.723 15.3062 11.2001 15.9177 9.90085H6.33298C5.59679 9.90085 5 9.30392 5 8.56757C5.00026 7.83144 5.59696 7.23429 6.33298 7.23429H12.0007V6.33328C12.0007 5.59693 12.5975 5 13.3337 5Z" fill="black"/>
</svg>
