<svg width="32" height="32" viewBox="0 0 32 32" fill="none" xmlns="http://www.w3.org/2000/svg">
<path fill-rule="evenodd" clip-rule="evenodd" d="M25.6667 14.4219C25.6667 18.9443 21.6384 22.2142 17.9579 25.2017C17.5538 25.5297 17.1538 25.8544 16.7638 26.1769C16.514 26.3835 16.1526 26.3835 15.9028 26.1769C15.5129 25.8544 15.113 25.5298 14.7089 25.2018C11.0284 22.2143 7 18.9443 7 14.4219C7 9.21834 11.1787 5 16.3333 5C21.488 5 25.6667 9.21834 25.6667 14.4219ZM12.8 14.4219C12.8 12.4643 14.3742 10.8633 16.3333 10.8633C18.2924 10.8633 19.8667 12.4643 19.8667 14.4219C19.8667 16.3796 18.2924 17.9806 16.3333 17.9806C14.3742 17.9806 12.8 16.3796 12.8 14.4219Z" fill="black"/>
</svg>
