<svg width="32" height="32" viewBox="0 0 32 32" fill="none" xmlns="http://www.w3.org/2000/svg">
<path d="M8.47992 14.8001C8.00133 14.8001 7.61336 15.1881 7.61336 15.6667C7.61336 16.1453 8.00133 16.5332 8.47992 16.5332H11.7466C12.2252 16.5332 12.6132 16.1453 12.6132 15.6667C12.6132 15.1881 12.2252 14.8001 11.7466 14.8001H8.47992Z" fill="black"/>
<path fill-rule="evenodd" clip-rule="evenodd" d="M20.9066 5C20.0598 5 19.3734 5.68642 19.3734 6.53315V9.57337H9.84173C9.76162 9.57337 9.67224 9.57933 9.57546 9.59725C7.96305 9.89591 5 11.527 5 15.6667V21.5339C5 22.3814 5.68716 23.0666 6.53315 23.0666H12.8401V24.8002C12.8401 25.6469 13.5265 26.3333 14.3732 26.3333H16.9601C17.8068 26.3333 18.4932 25.6469 18.4932 24.8002V23.0666H24.8002C25.6469 23.0666 26.3333 22.3802 26.3333 21.5335V15.6667C26.3333 14.6345 25.9929 13.1246 24.9641 11.8545C24.1277 10.8219 22.8751 9.99689 21.1065 9.69613V9.34649H24.8001C25.6469 9.34649 26.3333 8.66007 26.3333 7.81334V6.53315C26.3333 5.68641 25.6469 5 24.8001 5H20.9066ZM19.3734 11.3065V16.32C19.3734 16.7986 19.7614 17.1866 20.24 17.1866C20.7186 17.1866 21.1065 16.7986 21.1065 16.32V11.4611C22.3153 11.7283 23.1022 12.3093 23.6174 12.9454C24.3527 13.8531 24.6002 14.9566 24.6002 15.6667V21.3335H15.8799V15.6667C15.8799 14.6984 15.6673 13.2391 14.9918 11.9882C14.8652 11.7537 14.7207 11.5245 14.5571 11.3065H19.3734ZM24.6001 7.61336H21.1065V6.73312H24.6001V7.61336ZM6.73312 15.6667C6.73312 12.6134 8.82125 11.5117 9.86437 11.3065H11.0933C12.2606 11.3065 12.9866 11.9223 13.4668 12.8117C13.9674 13.7386 14.1468 14.8927 14.1468 15.6667V21.3335H6.73312V15.6667ZM16.7601 23.0666V24.6002H14.5732V23.0666H16.7601Z" fill="black"/>
</svg>
