<svg width="32" height="32" viewBox="0 0 32 32" fill="none" xmlns="http://www.w3.org/2000/svg">
<path d="M13.7918 7.37526C13.571 7.21407 13.2665 7.37772 13.2665 7.65761V21.9893C13.2665 22.1016 13.3193 22.2069 13.4079 22.2716L17.5416 25.2891C17.7624 25.4503 18.0668 25.2867 18.0668 25.0068V10.6751C18.0668 10.5628 18.0141 10.4575 17.9255 10.3928L13.7918 7.37526Z" fill="black"/>
<path d="M11.3921 22.2716C11.4807 22.2069 11.5334 22.1016 11.5334 21.9893V7.65761C11.5334 7.37772 11.229 7.21407 11.0082 7.37526L5.57731 11.3397C5.21589 11.6035 5 12.0391 5 12.5044V24.248C5 25.3868 6.20453 26.0584 7.08903 25.4128L11.3921 22.2716Z" fill="black"/>
<path d="M19.9413 10.3928C19.8527 10.4575 19.7999 10.5628 19.7999 10.6751V25.0068C19.7999 25.2867 20.1044 25.4503 20.3252 25.2891L25.756 21.3247C26.1174 21.0609 26.3333 20.6253 26.3333 20.16V8.41639C26.3333 7.27756 25.1288 6.60598 24.2443 7.25165L19.9413 10.3928Z" fill="black"/>
</svg>
