<svg width="32" height="32" viewBox="0 0 32 32" fill="none" xmlns="http://www.w3.org/2000/svg">
<path d="M20 12.4667C20.4786 12.4667 20.8667 12.8547 20.8667 13.3333V15.9077L21.3872 15.3872C21.7256 15.0487 22.2744 15.0487 22.6128 15.3872C22.9513 15.7256 22.9513 16.2744 22.6128 16.6128L20.4714 18.7542C20.2111 19.0146 19.7889 19.0146 19.5286 18.7542L17.3872 16.6128C17.0487 16.2744 17.0487 15.7256 17.3872 15.3872C17.7256 15.0487 18.2744 15.0487 18.6128 15.3872L19.1333 15.9077V13.3333C19.1333 12.8547 19.5214 12.4667 20 12.4667Z" fill="black"/>
<path d="M10.5333 18.3333V15.4707L11.5525 16.7446C11.9528 17.245 12.7139 17.245 13.1142 16.7446L14.1333 15.4707V18.3333C14.1333 18.812 14.5214 19.2 15 19.2C15.4786 19.2 15.8667 18.812 15.8667 18.3333V13.3801C15.8667 12.4348 14.6763 12.0173 14.0858 12.7554L12.3333 14.946L10.5809 12.7554C9.99036 12.0173 8.8 12.4348 8.8 13.3801V18.3333C8.8 18.812 9.18802 19.2 9.66667 19.2C10.1453 19.2 10.5333 18.812 10.5333 18.3333Z" fill="black"/>
<path fill-rule="evenodd" clip-rule="evenodd" d="M7.66667 9C6.19391 9 5 10.1939 5 11.6667V19.6667C5 21.1394 6.19391 22.3333 7.66667 22.3333H23.6667C25.1394 22.3333 26.3333 21.1394 26.3333 19.6667V11.6667C26.3333 10.1939 25.1394 9 23.6667 9H7.66667ZM23.6667 10.7333H7.66667C7.1512 10.7333 6.73333 11.1512 6.73333 11.6667V19.6667C6.73333 20.1821 7.1512 20.6 7.66667 20.6H23.6667C24.1821 20.6 24.6 20.1821 24.6 19.6667V11.6667C24.6 11.1512 24.1821 10.7333 23.6667 10.7333Z" fill="black"/>
</svg>
