<svg width="32" height="32" viewBox="0 0 32 32" fill="none" xmlns="http://www.w3.org/2000/svg">
<path d="M5 9.33333C5 8.59695 5.59695 8 6.33333 8H25C25.7364 8 26.3333 8.59695 26.3333 9.33333C26.3333 10.0697 25.7364 10.6667 25 10.6667H6.33333C5.59695 10.6667 5 10.0697 5 9.33333Z" fill="black"/>
<path d="M5 16C5 15.2636 5.59695 14.6667 6.33333 14.6667H25C25.7364 14.6667 26.3333 15.2636 26.3333 16C26.3333 16.7364 25.7364 17.3333 25 17.3333H6.33333C5.59695 17.3333 5 16.7364 5 16Z" fill="black"/>
<path d="M6.33333 21.3333C5.59695 21.3333 5 21.9303 5 22.6667C5 23.403 5.59695 24 6.33333 24H25C25.7364 24 26.3333 23.403 26.3333 22.6667C26.3333 21.9303 25.7364 21.3333 25 21.3333H6.33333Z" fill="black"/>
</svg>
