<svg width="32" height="32" viewBox="0 0 32 32" fill="none" xmlns="http://www.w3.org/2000/svg">
<path fill-rule="evenodd" clip-rule="evenodd" d="M15.6667 10.8C15.2399 10.8 14.6162 10.9184 14.0734 11.3013C13.4855 11.7159 13.05 12.4052 13.05 13.381C13.05 14.0358 13.2461 14.5616 13.5528 14.9619C12.9227 15.471 12.4667 16.2666 12.4667 17.381C12.4667 18.5853 12.9994 19.4174 13.7088 19.9178C14.3732 20.3863 15.1427 20.5333 15.6667 20.5333C16.1907 20.5333 16.9602 20.3863 17.6245 19.9178C18.3339 19.4174 18.8667 18.5853 18.8667 17.381C18.8667 16.2666 18.4106 15.471 17.7805 14.9619C18.0872 14.5616 18.2833 14.0358 18.2833 13.381C18.2833 12.4052 17.8478 11.7159 17.2599 11.3013C16.7171 10.9184 16.0935 10.8 15.6667 10.8ZM16.2609 14.0442C16.0746 14.1756 15.8232 14.2286 15.6667 14.2286C15.5101 14.2286 15.2588 14.1756 15.0724 14.0442C14.9312 13.9445 14.7833 13.7766 14.7833 13.381C14.7833 12.9853 14.9312 12.8174 15.0724 12.7178C15.2588 12.5863 15.5101 12.5333 15.6667 12.5333C15.8232 12.5333 16.0746 12.5863 16.2609 12.7178C16.4022 12.8174 16.55 12.9853 16.55 13.381C16.55 13.7766 16.4022 13.9445 16.2609 14.0442ZM14.7079 16.2606C15.0157 16.0435 15.4129 15.9619 15.6667 15.9619C15.9204 15.9619 16.3176 16.0435 16.6255 16.2606C16.8883 16.446 17.1333 16.7567 17.1333 17.381C17.1333 18.0052 16.8883 18.3159 16.6255 18.5013C16.3176 18.7184 15.9204 18.8 15.6667 18.8C15.4129 18.8 15.0157 18.7184 14.7079 18.5013C14.445 18.3159 14.2 18.0052 14.2 17.381C14.2 16.7567 14.445 16.446 14.7079 16.2606Z" fill="black"/>
<path fill-rule="evenodd" clip-rule="evenodd" d="M26.3333 15.6667C26.3333 21.5577 21.5577 26.3333 15.6667 26.3333C9.77563 26.3333 5 21.5577 5 15.6667C5 9.77563 9.77563 5 15.6667 5C21.5577 5 26.3333 9.77563 26.3333 15.6667ZM24.6 15.6667C24.6 20.6004 20.6004 24.6 15.6667 24.6C10.7329 24.6 6.73333 20.6004 6.73333 15.6667C6.73333 10.7329 10.7329 6.73333 15.6667 6.73333C20.6004 6.73333 24.6 10.7329 24.6 15.6667Z" fill="black"/>
</svg>
