<svg width="32" height="32" viewBox="0 0 32 32" fill="none" xmlns="http://www.w3.org/2000/svg">
<path fill-rule="evenodd" clip-rule="evenodd" d="M15.8474 11.1816C15.9477 10.7136 15.6496 10.2529 15.1816 10.1526C14.7136 10.0523 14.2529 10.3504 14.1526 10.8184L13.663 13.1029H11C10.5214 13.1029 10.1333 13.4909 10.1333 13.9696C10.1333 14.4482 10.5214 14.8362 11 14.8362H13.2916L12.966 16.3556H11C10.5214 16.3556 10.1333 16.7436 10.1333 17.2222C10.1333 17.7009 10.5214 18.0889 11 18.0889H12.5946L12.1526 20.1517C12.0523 20.6198 12.3504 21.0805 12.8184 21.1808C13.2864 21.2811 13.7471 20.9829 13.8474 20.5149L14.3673 18.0889H15.9279L15.4859 20.1517C15.3856 20.6198 15.6837 21.0805 16.1517 21.1808C16.6198 21.2811 17.0805 20.9829 17.1808 20.5149L17.7006 18.0889H20.3333C20.812 18.0889 21.2 17.7009 21.2 17.2222C21.2 16.7436 20.812 16.3556 20.3333 16.3556H18.0721L18.3976 14.8362H20.3333C20.812 14.8362 21.2 14.4482 21.2 13.9696C21.2 13.4909 20.812 13.1029 20.3333 13.1029H18.7691L19.1808 11.1816C19.2811 10.7136 18.9829 10.2529 18.5149 10.1526C18.0469 10.0523 17.5862 10.3504 17.4859 10.8184L16.9964 13.1029H15.4357L15.8474 11.1816ZM16.2994 16.3556H14.7387L15.0643 14.8362H16.6249L16.2994 16.3556Z" fill="black"/>
<path fill-rule="evenodd" clip-rule="evenodd" d="M26.3333 15.6667C26.3333 21.5577 21.5577 26.3333 15.6667 26.3333C9.77563 26.3333 5 21.5577 5 15.6667C5 9.77563 9.77563 5 15.6667 5C21.5577 5 26.3333 9.77563 26.3333 15.6667ZM24.6 15.6667C24.6 20.6004 20.6004 24.6 15.6667 24.6C10.7329 24.6 6.73333 20.6004 6.73333 15.6667C6.73333 10.7329 10.7329 6.73333 15.6667 6.73333C20.6004 6.73333 24.6 10.7329 24.6 15.6667Z" fill="black"/>
</svg>
