<svg width="32" height="32" viewBox="0 0 32 32" fill="none" xmlns="http://www.w3.org/2000/svg">
<path d="M16.8 13.5128V14.4923H15.6667C15.121 14.4923 14.8782 14.2979 14.75 14.1336C14.5911 13.9299 14.5333 13.667 14.5333 13.5128C14.5333 13.3586 14.5911 13.0958 14.75 12.892C14.8782 12.7277 15.121 12.5333 15.6667 12.5333C16.2123 12.5333 16.4552 12.7277 16.5833 12.892C16.7422 13.0958 16.8 13.3586 16.8 13.5128Z" fill="black"/>
<path fill-rule="evenodd" clip-rule="evenodd" d="M15.6667 26.3333C21.5577 26.3333 26.3333 21.5577 26.3333 15.6667C26.3333 9.77563 21.5577 5 15.6667 5C9.77563 5 5 9.77563 5 15.6667C5 21.5577 9.77563 26.3333 15.6667 26.3333ZM15.6667 10.8C14.6123 10.8 13.8552 11.221 13.3833 11.8259C12.9422 12.3914 12.8 13.0516 12.8 13.5128C12.8 13.974 12.9422 14.6342 13.3833 15.1997C13.8552 15.8047 14.6123 16.2256 15.6667 16.2256H16.8V17.8205C16.8 17.9747 16.7422 18.2376 16.5833 18.4413C16.4552 18.6056 16.2123 18.8 15.6667 18.8C15.1189 18.8 14.8375 18.6005 14.6872 18.4463C14.6037 18.3607 14.5487 18.2754 14.5162 18.2154C14.5002 18.1859 14.4907 18.1644 14.4866 18.1546L14.4853 18.1514C14.331 17.7068 13.8484 17.4655 13.3988 17.6117C12.9436 17.7596 12.6945 18.2486 12.8424 18.7038L13.6667 18.4359C12.8424 18.7038 12.8423 18.7033 12.8424 18.7038L12.8431 18.7057L12.8438 18.7078L12.8453 18.7123L12.8488 18.7228L12.8583 18.7493C12.8657 18.7693 12.8753 18.7941 12.8873 18.8229C12.9114 18.8805 12.9456 18.9551 12.9921 19.041C13.0846 19.2117 13.2296 19.4342 13.4461 19.6563C13.8958 20.1175 14.6144 20.5333 15.6667 20.5333C16.721 20.5333 17.4782 20.1124 17.95 19.5074C18.3911 18.9419 18.5333 18.2817 18.5333 17.8205V13.5128C18.5333 13.0516 18.3911 12.3914 17.95 11.8259C17.4782 11.221 16.721 10.8 15.6667 10.8Z" fill="black"/>
</svg>
