<svg width="32" height="32" viewBox="0 0 32 32" fill="none" xmlns="http://www.w3.org/2000/svg">
<path fill-rule="evenodd" clip-rule="evenodd" d="M7.66667 9C6.19393 9 5 10.1939 5 11.6667V19.6667C5 21.1394 6.19393 22.3333 7.66667 22.3333H23.6667C25.1394 22.3333 26.3333 21.1394 26.3333 19.6667V11.6667C26.3333 10.1939 25.1394 9 23.6667 9H7.66667ZM8.05721 15.6667L7.66668 15.2762C7.40631 15.0158 7.40632 14.5937 7.66669 14.3333C7.92705 14.073 8.34915 14.073 8.60949 14.3333L9 14.7239L9.39051 14.3333C9.65085 14.073 10.073 14.073 10.3333 14.3333C10.5937 14.5937 10.5937 15.0158 10.3333 15.2762L9.94279 15.6667L10.3333 16.0572C10.5937 16.3175 10.5937 16.7397 10.3333 17C10.073 17.2604 9.65085 17.2603 9.39051 17L9 16.6095L8.60949 17C8.34915 17.2603 7.92705 17.2604 7.66669 17C7.40632 16.7397 7.40631 16.3175 7.66668 16.0572L8.05721 15.6667ZM12.4572 15.6667L12.0667 15.2762C11.8063 15.0158 11.8063 14.5937 12.0667 14.3333C12.327 14.073 12.7491 14.073 13.0095 14.3333L13.4 14.7239L13.7905 14.3333C14.0508 14.073 14.4729 14.073 14.7333 14.3333C14.9937 14.5937 14.9937 15.0158 14.7333 15.2762L14.3428 15.6667L14.7333 16.0572C14.9937 16.3175 14.9937 16.7397 14.7333 17C14.4729 17.2604 14.0508 17.2603 13.7905 17L13.4 16.6095L13.0095 17C12.7491 17.2603 12.327 17.2604 12.0667 17C11.8063 16.7397 11.8063 16.3175 12.0667 16.0572L12.4572 15.6667ZM16.4667 14.3333C16.2063 14.5937 16.2063 15.0158 16.4666 15.2762L16.8572 15.6667L16.4666 16.0572C16.2063 16.3175 16.2063 16.7397 16.4667 17C16.727 17.2604 17.1491 17.2603 17.4095 17L17.8 16.6095L18.1905 17C18.4508 17.2603 18.8729 17.2604 19.1333 17C19.3937 16.7397 19.3937 16.3175 19.1333 16.0572L18.7428 15.6667L19.1333 15.2762C19.3937 15.0158 19.3937 14.5937 19.1333 14.3333C18.8729 14.073 18.4508 14.073 18.1905 14.3333L17.8 14.7239L17.4095 14.3333C17.1491 14.073 16.727 14.073 16.4667 14.3333ZM21.2572 15.6667L20.8666 15.2762C20.6063 15.0158 20.6063 14.5937 20.8666 14.3333C21.127 14.073 21.5491 14.073 21.8094 14.3333L22.2 14.7239L22.5905 14.3333C22.8508 14.073 23.2729 14.073 23.5333 14.3333C23.7936 14.5937 23.7936 15.0158 23.5333 15.2762L23.1427 15.6667L23.5333 16.0572C23.7936 16.3175 23.7936 16.7397 23.5333 17C23.2729 17.2604 22.8508 17.2603 22.5905 17L22.2 16.6095L21.8094 17C21.5491 17.2603 21.127 17.2604 20.8666 17C20.6063 16.7397 20.6063 16.3175 20.8666 16.0572L21.2572 15.6667Z" fill="black"/>
</svg>
