<svg width="32" height="32" viewBox="0 0 32 32" fill="none" xmlns="http://www.w3.org/2000/svg">
<path d="M8.05719 15.6667L7.66667 15.2761C7.40632 15.0158 7.40632 14.5937 7.66667 14.3333C7.92702 14.073 8.34913 14.073 8.60948 14.3333L9 14.7239L9.39052 14.3333C9.65087 14.073 10.073 14.073 10.3333 14.3333C10.5937 14.5937 10.5937 15.0158 10.3333 15.2761L9.94281 15.6667L10.3333 16.0572C10.5937 16.3175 10.5937 16.7396 10.3333 17C10.073 17.2603 9.65087 17.2603 9.39052 17L9 16.6095L8.60948 17C8.34913 17.2603 7.92702 17.2603 7.66667 17C7.40632 16.7397 7.40632 16.3175 7.66667 16.0572L8.05719 15.6667Z" fill="black"/>
<path d="M12.0667 14.3333C11.8063 14.5937 11.8063 15.0158 12.0667 15.2761L12.4572 15.6667L12.0667 16.0572C11.8063 16.3175 11.8063 16.7396 12.0667 17C12.327 17.2603 12.7491 17.2603 13.0095 17L13.4 16.6095L13.7905 17C14.0509 17.2603 14.473 17.2603 14.7333 17C14.9937 16.7396 14.9937 16.3175 14.7333 16.0572L14.3428 15.6667L14.7333 15.2761C14.9937 15.0158 14.9937 14.5937 14.7333 14.3333C14.473 14.073 14.0509 14.073 13.7905 14.3333L13.4 14.7239L13.0095 14.3333C12.7491 14.073 12.327 14.073 12.0667 14.3333Z" fill="black"/>
<path d="M16.8572 15.6667L16.4666 15.2761C16.2063 15.0158 16.2063 14.5937 16.4666 14.3333C16.727 14.073 17.1491 14.073 17.4094 14.3333L17.8 14.7239L18.1905 14.3333C18.4508 14.073 18.873 14.073 19.1333 14.3333C19.3937 14.5937 19.3937 15.0158 19.1333 15.2761L18.7428 15.6667L19.1333 16.0572C19.3937 16.3175 19.3937 16.7397 19.1333 17C18.873 17.2603 18.4508 17.2603 18.1905 17L17.8 16.6095L17.4094 17C17.1491 17.2603 16.727 17.2603 16.4666 17C16.2063 16.7397 16.2063 16.3175 16.4666 16.0572L16.8572 15.6667Z" fill="black"/>
<path d="M20.8666 14.3333C20.6063 14.5937 20.6063 15.0158 20.8666 15.2761L21.2571 15.6667L20.8666 16.0572C20.6063 16.3175 20.6063 16.7397 20.8666 17C21.127 17.2603 21.5491 17.2603 21.8094 17L22.2 16.6095L22.5905 17C22.8508 17.2603 23.2729 17.2603 23.5333 17C23.7936 16.7397 23.7936 16.3175 23.5333 16.0572L23.1428 15.6667L23.5333 15.2761C23.7936 15.0158 23.7936 14.5937 23.5333 14.3333C23.2729 14.073 22.8508 14.073 22.5905 14.3333L22.2 14.7239L21.8094 14.3333C21.5491 14.073 21.127 14.073 20.8666 14.3333Z" fill="black"/>
<path fill-rule="evenodd" clip-rule="evenodd" d="M7.66667 9C6.19391 9 5 10.1939 5 11.6667V19.6667C5 21.1394 6.19391 22.3333 7.66667 22.3333H23.6667C25.1394 22.3333 26.3333 21.1394 26.3333 19.6667V11.6667C26.3333 10.1939 25.1394 9 23.6667 9H7.66667ZM23.6667 10.7333H7.66667C7.1512 10.7333 6.73333 11.1512 6.73333 11.6667V19.6667C6.73333 20.1821 7.1512 20.6 7.66667 20.6H23.6667C24.1821 20.6 24.6 20.1821 24.6 19.6667V11.6667C24.6 11.1512 24.1821 10.7333 23.6667 10.7333Z" fill="black"/>
</svg>
