<svg width="32" height="32" viewBox="0 0 32 32" fill="none" xmlns="http://www.w3.org/2000/svg">
<path fill-rule="evenodd" clip-rule="evenodd" d="M7.66667 8C6.19391 8 5 9.19391 5 10.6667V21.3333C5 22.8061 6.19391 24 7.66667 24H23.6667C25.1394 24 26.3333 22.8061 26.3333 21.3333V10.6667C26.3333 9.19391 25.1394 8 23.6667 8H7.66667ZM7.66667 12C7.66667 11.2636 8.26362 10.6667 9 10.6667H22.3333C23.0697 10.6667 23.6667 11.2636 23.6667 12V14.6667C23.6667 15.403 23.0697 16 22.3333 16H9C8.26362 16 7.66667 15.403 7.66667 14.6667V12ZM9.73333 12.4C9.54924 12.4 9.4 12.5492 9.4 12.7333V13.9333C9.4 14.1174 9.54924 14.2667 9.73333 14.2667H21.6C21.7841 14.2667 21.9333 14.1174 21.9333 13.9333V12.7333C21.9333 12.5492 21.7841 12.4 21.6 12.4H9.73333ZM8.53333 18.8667H14.1333C14.612 18.8667 15 18.4786 15 18C15 17.5214 14.612 17.1333 14.1333 17.1333H8.53333C8.05469 17.1333 7.66667 17.5214 7.66667 18C7.66667 18.4786 8.05469 18.8667 8.53333 18.8667ZM17 17C16.2636 17 15.6667 17.597 15.6667 18.3333V20.3333C15.6667 21.0697 16.2636 21.6667 17 21.6667H22.3333C23.0697 21.6667 23.6667 21.0697 23.6667 20.3333V18.3333C23.6667 17.597 23.0697 17 22.3333 17H17ZM17.6733 19.9333C17.5224 19.9333 17.4 19.811 17.4 19.66V19.0067C17.4 18.8557 17.5224 18.7333 17.6733 18.7333H21.66C21.811 18.7333 21.9333 18.8557 21.9333 19.0067V19.66C21.9333 19.811 21.811 19.9333 21.66 19.9333H17.6733ZM14.1333 21.5333H8.53333C8.05469 21.5333 7.66667 21.1453 7.66667 20.6667C7.66667 20.188 8.05469 19.8 8.53333 19.8H14.1333C14.612 19.8 15 20.188 15 20.6667C15 21.1453 14.612 21.5333 14.1333 21.5333Z" fill="black"/>
</svg>
