<svg width="32" height="32" viewBox="0 0 32 32" fill="none" xmlns="http://www.w3.org/2000/svg">
<path fill-rule="evenodd" clip-rule="evenodd" d="M22.0556 16.8087C23.9919 15.9812 26.2056 14.1551 26.2266 10.7505V5.44444C26.2266 5.19899 26.0237 5 25.7735 5H11.1955C9.13032 5.06692 5 6.31069 5 10.7505V25.8889C5 26.1343 5.20289 26.3333 5.45317 26.3333H13.0585C13.3088 26.3333 13.5117 26.1343 13.5117 25.8889V18.0798C13.5117 17.8582 13.806 17.7731 13.9286 17.9592L19.3105 26.1301C19.394 26.2568 19.5374 26.3333 19.6912 26.3333H25.8794C26.2464 26.3333 26.4612 25.9277 26.2501 25.6332L20.5038 17.6191C20.4072 17.4843 20.4877 17.2956 20.6519 17.2603C20.8258 17.2229 21.0103 17.1759 21.2022 17.1184C21.4695 17.0383 21.7513 16.938 22.0394 16.8156C22.0448 16.8133 22.0502 16.811 22.0556 16.8087ZM23.3764 24.6L19.0952 18.6291C18.2054 17.3881 19.0151 15.8392 20.2877 15.5657C22.0059 15.1964 24.4717 13.8176 24.4933 10.7448V6.73333H11.226C10.436 6.76374 9.24245 7.02901 8.29538 7.67051C7.42115 8.26268 6.73333 9.17402 6.73333 10.7505V24.6H11.7783V18.0798C11.7783 16.0605 14.3504 15.4484 15.3761 17.0057L20.3783 24.6H23.3764Z" fill="black"/>
</svg>
