<svg width="32" height="32" viewBox="0 0 32 32" fill="none" xmlns="http://www.w3.org/2000/svg">
<path d="M6.14337 5.54535C5.49289 5.99335 5 6.74422 5 7.82614C5 8.90807 5.49289 9.65894 6.14337 10.1069C6.74798 10.5233 7.444 10.6523 7.91728 10.6523H8.41449V6.73285C8.47379 6.22398 8.29994 5.18562 7.13023 5.10312C6.80658 5.18607 6.46226 5.32573 6.14337 5.54535Z" fill="black"/>
<path d="M22.9414 26.33C23.8891 26.33 24.6466 26.0056 25.2133 25.4925C25.7629 24.9948 26.0916 24.3587 26.2827 23.7773C26.2943 23.7418 26.3048 23.7064 26.3142 23.6712C26.4032 23.3363 26.1022 23.0638 25.7549 23.0638H14.0338C13.8171 23.0638 13.469 23.2825 13.1909 23.8617C13.0632 24.1277 12.9081 24.373 12.7321 24.5971C12.159 25.1739 10.8792 26.3274 10.3447 26.3274L22.9414 26.33Z" fill="black"/>
<path d="M23.81 21.331V7.19939C23.81 5.9847 22.8229 5 21.6053 5H9.00853C9.88153 5 10.1343 6.15523 10.1515 6.73285V24.4122C10.7381 24.1783 11.3279 23.7306 11.6243 23.1132C11.9837 22.3645 12.7746 21.331 14.0338 21.331H23.81Z" fill="black"/>
</svg>
