<svg width="32" height="32" viewBox="0 0 32 32" fill="none" xmlns="http://www.w3.org/2000/svg">
<path fill-rule="evenodd" clip-rule="evenodd" d="M17.6873 18.9826C17.6806 18.9877 17.674 18.9927 17.6673 18.9977C16.553 19.8347 15.1678 20.3308 13.6667 20.3308C9.98477 20.3308 7 17.3466 7 13.6654C7 9.98419 9.98477 7 13.6667 7C17.3486 7 20.3333 9.98419 20.3333 13.6654C20.3333 15.1752 19.8313 16.5677 18.9849 17.6852L23.506 22.2054C23.6084 22.3078 23.7277 22.4416 23.8433 22.5932L23.8568 22.611C24.2243 23.0983 24.5462 23.7602 24.1548 24.1515C23.7634 24.5429 23.1014 24.221 22.614 23.8536L22.5962 23.8401C22.4446 23.7245 22.3107 23.6052 22.2084 23.5028L17.6873 18.9826ZM13.6667 18.5978C10.9421 18.5978 8.73333 16.3895 8.73333 13.6654C8.73333 10.9413 10.9421 8.733 13.6667 8.733C16.3913 8.733 18.6 10.9413 18.6 13.6654C18.6 15.2777 17.828 16.7093 16.6261 17.6122C15.8017 18.2315 14.7795 18.5978 13.6667 18.5978Z" fill="black"/>
</svg>
