<svg width="32" height="32" viewBox="0 0 32 32" fill="none" xmlns="http://www.w3.org/2000/svg">
<path d="M9 10.1333C8.52132 10.1333 8.1333 10.5214 8.1333 11C8.1333 11.4786 8.52132 11.8667 9 11.8667H14.3333C14.812 11.8667 15.2 11.4786 15.2 11C15.2 10.5214 14.812 10.1333 14.3333 10.1333H9Z" fill="black"/>
<path d="M22.3333 11C22.3333 11.4787 21.9453 11.8667 21.4667 11.8667C20.988 11.8667 20.6 11.4787 20.6 11C20.6 10.5214 20.988 10.1333 21.4667 10.1333C21.9453 10.1333 22.3333 10.5214 22.3333 11Z" fill="black"/>
<path fill-rule="evenodd" clip-rule="evenodd" d="M7.66667 7C6.19393 7 5 8.19391 5 9.66667V12.3333C5 13.8061 6.19393 15 7.66667 15H23.6667C25.1394 15 26.3333 13.8061 26.3333 12.3333V9.66667C26.3333 8.19391 25.1394 7 23.6667 7H7.66667ZM23.6667 8.73334H7.66667C7.1512 8.73334 6.73332 9.1512 6.73332 9.66667V12.3333C6.73332 12.8488 7.1512 13.2667 7.66667 13.2667H23.6667C24.1821 13.2667 24.6 12.8488 24.6 12.3333V9.66667C24.6 9.1512 24.1821 8.73334 23.6667 8.73334Z" fill="black"/>
<path d="M8.1333 20.3333C8.1333 19.8547 8.52132 19.4667 9 19.4667H14.3333C14.812 19.4667 15.2 19.8547 15.2 20.3333C15.2 20.812 14.812 21.2 14.3333 21.2H9C8.52132 21.2 8.1333 20.812 8.1333 20.3333Z" fill="black"/>
<path d="M22.3333 20.3333C22.3333 20.3963 22.3267 20.4576 22.3139 20.5167C22.0331 20.7147 21.7751 20.9429 21.5448 21.1965C21.519 21.1988 21.493 21.2 21.4667 21.2C20.988 21.2 20.6 20.812 20.6 20.3333C20.6 19.8547 20.988 19.4667 21.4667 19.4667C21.9453 19.4667 22.3333 19.8547 22.3333 20.3333Z" fill="black"/>
<path d="M24.6 19V19.6836C24.7319 19.6724 24.8652 19.6667 25 19.6667C25.4633 19.6667 25.9109 19.7342 26.3333 19.8599V19C26.3333 17.5272 25.1394 16.3333 23.6667 16.3333H7.66667C6.19393 16.3333 5 17.5272 5 19V21.6667C5 23.1394 6.19393 24.3333 7.66667 24.3333H20.3333C20.3333 23.7208 20.4513 23.1359 20.6659 22.6H7.66667C7.1512 22.6 6.73332 22.1821 6.73332 21.6667V19C6.73332 18.4845 7.1512 18.0667 7.66667 18.0667H23.6667C24.1821 18.0667 24.6 18.4845 24.6 19Z" fill="black"/>
<path fill-rule="evenodd" clip-rule="evenodd" d="M29 24.3333C29 26.5425 27.2091 28.3333 25 28.3333C22.7909 28.3333 21 26.5425 21 24.3333C21 22.1242 22.7909 20.3333 25 20.3333C27.2091 20.3333 29 22.1242 29 24.3333ZM26.3877 24.1516L23.7941 22.855C23.6589 22.7875 23.5 22.8857 23.5 23.0368V25.6299C23.5 25.7809 23.6589 25.8792 23.7941 25.8116L26.3877 24.5151C26.5374 24.4402 26.5374 24.2265 26.3877 24.1516Z" fill="black"/>
</svg>
