<svg width="32" height="32" viewBox="0 0 32 32" fill="none" xmlns="http://www.w3.org/2000/svg">
<path d="M11.6667 5C15.3486 5 18.3333 7.98477 18.3333 11.6667H14.3333C12.8606 11.6667 11.6667 12.8606 11.6667 14.3333V18.3333C7.98477 18.3333 5 15.3486 5 11.6667C5 7.98477 7.98477 5 11.6667 5Z" fill="black"/>
<path d="M15.6667 13C14.1939 13 13 14.1939 13 15.6667V23.6667C13 25.1394 14.1939 26.3333 15.6667 26.3333H23.6667C25.1394 26.3333 26.3333 25.1394 26.3333 23.6667V15.6667C26.3333 14.1939 25.1394 13 23.6667 13H15.6667Z" fill="black"/>
</svg>
