<svg width="32" height="32" viewBox="0 0 32 32" fill="none" xmlns="http://www.w3.org/2000/svg">
<path d="M24.6 15.6667C24.6 17.5069 24.0436 19.2172 23.0898 20.6385L24.3351 21.8838C25.5928 20.1334 26.3333 17.9865 26.3333 15.6667C26.3333 9.77563 21.5577 5 15.6667 5C9.77563 5 5 9.77563 5 15.6667C5 17.9865 5.74058 20.1334 6.99821 21.8838L8.24357 20.6385C7.28977 19.2172 6.73333 17.5069 6.73333 15.6667C6.73333 10.7329 10.7329 6.73333 15.6667 6.73333C20.6004 6.73333 24.6 10.7329 24.6 15.6667Z" fill="black"/>
<path d="M23.5 15.6667C23.5 17.2022 23.0582 18.6345 22.2947 19.8435L21.0287 18.5774C21.4993 17.7124 21.7667 16.7207 21.7667 15.6667C21.7667 12.2977 19.0356 9.56667 15.6667 9.56667C12.2977 9.56667 9.56667 12.2977 9.56667 15.6667C9.56667 16.7207 9.83402 17.7124 10.3046 18.5774L9.03858 19.8434C8.27514 18.6345 7.83333 17.2022 7.83333 15.6667C7.83333 11.3404 11.3404 7.83333 15.6667 7.83333C19.9929 7.83333 23.5 11.3404 23.5 15.6667Z" fill="black"/>
<path d="M18.6 15.6667C18.6 15.819 18.5884 15.9686 18.566 16.1147L19.957 17.5057C20.1992 16.9414 20.3333 16.3197 20.3333 15.6667C20.3333 13.0893 18.244 11 15.6667 11C13.0893 11 11 13.0893 11 15.6667C11 16.3197 11.1341 16.9414 11.3763 17.5057L12.7673 16.1147C12.7449 15.9686 12.7333 15.819 12.7333 15.6667C12.7333 14.0466 14.0466 12.7333 15.6667 12.7333C17.2867 12.7333 18.6 14.0466 18.6 15.6667Z" fill="black"/>
<path fill-rule="evenodd" clip-rule="evenodd" d="M14.7239 15.9428C15.2446 15.4221 16.0888 15.4221 16.6095 15.9428L24.0572 23.3905C24.8971 24.2305 24.3023 25.6667 23.1144 25.6667H8.21895C7.03108 25.6667 6.43619 24.2305 7.27614 23.3905L14.7239 15.9428Z" fill="black"/>
</svg>
