<svg width="32" height="32" viewBox="0 0 32 32" fill="none" xmlns="http://www.w3.org/2000/svg">
<path fill-rule="evenodd" clip-rule="evenodd" d="M7.66667 5C6.19391 5 5 6.19391 5 7.66667V23.6667C5 25.1394 6.19391 26.3333 7.66667 26.3333H23.6667C25.1394 26.3333 26.3333 25.1394 26.3333 23.6667V7.66667C26.3333 6.19391 25.1394 5 23.6667 5H7.66667ZM23.6667 9C23.6667 8.26362 23.0697 7.66667 22.3333 7.66667H9C8.26362 7.66667 7.66667 8.26362 7.66667 9V22.3333C7.66667 23.0697 8.26362 23.6667 9 23.6667H22.3333C23.0697 23.6667 23.6667 23.0697 23.6667 22.3333V9Z" fill="black"/>
</svg>
