<svg width="32" height="32" viewBox="0 0 32 32" fill="none" xmlns="http://www.w3.org/2000/svg">
<path d="M18.6924 19.9335C18.6924 21.2591 17.6367 22.3337 16.3343 22.3337C15.032 22.3337 13.9762 21.2591 13.9762 19.9335C13.9762 19.1115 14.3822 18.3859 15.0014 17.9534V11.9332C15.0014 11.1969 15.5982 10.6 16.3345 10.6C17.0708 10.6 17.6676 11.1969 17.6676 11.9332V17.9536C18.2865 18.3862 18.6924 19.1116 18.6924 19.9335Z" fill="black"/>
<path fill-rule="evenodd" clip-rule="evenodd" d="M11.5721 9.79971C11.5721 7.19346 13.6601 5 16.3345 5C19.0088 5 21.0969 7.19346 21.0969 9.79971V15.7138C22.0775 16.8431 22.669 18.3226 22.669 19.9335C22.669 23.4235 19.8771 26.3333 16.3345 26.3333C12.7919 26.3333 10 23.4235 10 19.9335C10 18.3226 10.5915 16.8431 11.5721 15.7138V9.79971ZM14.2384 16.8692V9.79971C14.2384 8.62145 15.1768 7.66628 16.3345 7.66628C17.4921 7.66628 18.4306 8.62145 18.4306 9.79971V16.8692C19.3809 17.5439 20.0027 18.6648 20.0027 19.9335C20.0027 21.9955 18.3604 23.6671 16.3345 23.6671C14.3086 23.6671 12.6663 21.9955 12.6663 19.9335C12.6663 18.6648 13.288 17.5439 14.2384 16.8692Z" fill="black"/>
</svg>
