<svg width="32" height="32" viewBox="0 0 32 32" fill="none" xmlns="http://www.w3.org/2000/svg">
<path fill-rule="evenodd" clip-rule="evenodd" d="M5 7.66625C5 6.19372 6.19372 5 7.66625 5H23.6637C25.1363 5 26.33 6.19372 26.33 7.66625V23.6637C26.33 25.1363 25.1363 26.33 23.6637 26.33H7.66625C6.19372 26.33 5 25.1363 5 23.6637V7.66625ZM9.13269 10.6658C9.13269 10.1872 9.52065 9.79925 9.99922 9.79925H21.3308C21.8094 9.79925 22.1973 10.1872 22.1973 10.6658C22.1973 11.1444 21.8094 11.5323 21.3308 11.5323H9.99922C9.52065 11.5323 9.13269 11.1444 9.13269 10.6658ZM9.99922 14.4652C9.52065 14.4652 9.13269 14.8531 9.13269 15.3317C9.13269 15.8103 9.52065 16.1982 9.99922 16.1982H21.3308C21.8094 16.1982 22.1973 15.8103 22.1973 15.3317C22.1973 14.8531 21.8094 14.4652 21.3308 14.4652H9.99922Z" fill="black"/>
</svg>
