<svg width="32" height="32" viewBox="0 0 32 32" fill="none" xmlns="http://www.w3.org/2000/svg">
<path d="M9.13269 10.6658C9.13269 10.1872 9.52065 9.79925 9.99922 9.79925H21.3308C21.8094 9.79925 22.1973 10.1872 22.1973 10.6658C22.1973 11.1444 21.8094 11.5323 21.3308 11.5323H9.99922C9.52065 11.5323 9.13269 11.1444 9.13269 10.6658Z" fill="black"/>
<path d="M11.6656 14.4652C11.1871 14.4652 10.7991 14.8531 10.7991 15.3317C10.7991 15.8103 11.1871 16.1982 11.6656 16.1982H19.6644C20.1429 16.1982 20.5309 15.8103 20.5309 15.3317C20.5309 14.8531 20.1429 14.4652 19.6644 14.4652H11.6656Z" fill="black"/>
<path fill-rule="evenodd" clip-rule="evenodd" d="M7.66625 5C6.19372 5 5 6.19372 5 7.66625V23.6637C5 25.1363 6.19372 26.33 7.66625 26.33H23.6637C25.1363 26.33 26.33 25.1363 26.33 23.6637V7.66625C26.33 6.19372 25.1363 5 23.6637 5H7.66625ZM23.6637 6.73306H7.66625C7.15086 6.73306 6.73306 7.15086 6.73306 7.66625V23.6637C6.73306 24.1791 7.15086 24.5969 7.66625 24.5969H23.6637C24.1791 24.5969 24.5969 24.1791 24.5969 23.6637V7.66625C24.5969 7.15086 24.1791 6.73306 23.6637 6.73306Z" fill="black"/>
</svg>
