<svg width="32" height="32" viewBox="0 0 32 32" fill="none" xmlns="http://www.w3.org/2000/svg">
<path d="M8.81015 10.8461C8.81015 10.3788 9.19818 10 9.67684 10H22.323C22.8016 10 23.1897 10.3788 23.1897 10.8461C23.1897 11.3134 22.8016 11.6922 22.323 11.6922H9.67684C9.19818 11.6922 8.81015 11.3134 8.81015 10.8461Z" fill="black"/>
<path d="M6 16.5C6 16.0327 6.38803 15.6539 6.86669 15.6539H25.1333C25.612 15.6539 26 16.0327 26 16.5C26 16.9673 25.612 17.3461 25.1333 17.3461H6.86669C6.38803 17.3461 6 16.9673 6 16.5Z" fill="black"/>
<path d="M12.4872 21.3078C12.0085 21.3078 11.6205 21.6866 11.6205 22.1539C11.6205 22.6212 12.0085 23 12.4872 23H19.5128C19.9914 23 20.3795 22.6212 20.3795 22.1539C20.3795 21.6866 19.9914 21.3078 19.5128 21.3078H12.4872Z" fill="black"/>
</svg>
