<svg width="32" height="32" viewBox="0 0 32 32" fill="none" xmlns="http://www.w3.org/2000/svg">
<path d="M9.13269 10.6658C9.13269 10.1872 9.52065 9.79925 9.99922 9.79925H21.3308C21.8094 9.79925 22.1973 10.1872 22.1973 10.6658C22.1973 11.1444 21.8094 11.5323 21.3308 11.5323H9.99922C9.52065 11.5323 9.13269 11.1444 9.13269 10.6658Z" fill="black"/>
<path d="M9.99922 14.4652C9.52065 14.4652 9.13269 14.8531 9.13269 15.3317C9.13269 15.8103 9.52065 16.1982 9.99922 16.1982H21.3308C21.8094 16.1982 22.1973 15.8103 22.1973 15.3317C22.1973 14.8531 21.8094 14.4652 21.3308 14.4652H9.99922Z" fill="black"/>
<path fill-rule="evenodd" clip-rule="evenodd" d="M7.66625 5C6.19372 5 5 6.19372 5 7.66625V23.6637C5 25.1363 6.19372 26.33 7.66625 26.33H23.6637C25.1363 26.33 26.33 25.1363 26.33 23.6637V7.66625C26.33 6.19372 25.1363 5 23.6637 5H7.66625ZM23.6637 6.73306H7.66625C7.15086 6.73306 6.73306 7.15086 6.73306 7.66625V23.6637C6.73306 24.1791 7.15086 24.5969 7.66625 24.5969H23.6637C24.1791 24.5969 24.5969 24.1791 24.5969 23.6637V7.66625C24.5969 7.15086 24.1791 6.73306 23.6637 6.73306Z" fill="black"/>
</svg>
