<svg width="32" height="32" viewBox="0 0 32 32" fill="none" xmlns="http://www.w3.org/2000/svg">
<path d="M6 11.3C6 10.582 6.59695 10 7.33333 10H24.6667C25.403 10 26 10.582 26 11.3C26 12.018 25.403 12.6 24.6667 12.6H7.33333C6.59695 12.6 6 12.018 6 11.3Z" fill="black"/>
<path d="M6 16.5C6 15.782 6.59695 15.2 7.33333 15.2H24.6667C25.403 15.2 26 15.782 26 16.5C26 17.218 25.403 17.8 24.6667 17.8H7.33333C6.59695 17.8 6 17.218 6 16.5Z" fill="black"/>
<path d="M7.33333 20.4C6.59695 20.4 6 20.982 6 21.7C6 22.418 6.59695 23 7.33333 23H24.6667C25.403 23 26 22.418 26 21.7C26 20.982 25.403 20.4 24.6667 20.4H7.33333Z" fill="black"/>
</svg>
