<svg width="32" height="32" viewBox="0 0 32 32" fill="none" xmlns="http://www.w3.org/2000/svg">
<path fill-rule="evenodd" clip-rule="evenodd" d="M21 12.6667C22.4728 12.6667 23.6667 11.4728 23.6667 10C23.6667 8.52724 22.4728 7.33333 21 7.33333C19.5272 7.33333 18.3333 8.52724 18.3333 10C18.3333 11.4728 19.5272 12.6667 21 12.6667ZM21 10.9333C21.5155 10.9333 21.9333 10.5155 21.9333 10C21.9333 9.48453 21.5155 9.06667 21 9.06667C20.4845 9.06667 20.0667 9.48453 20.0667 10C20.0667 10.5155 20.4845 10.9333 21 10.9333Z" fill="black"/>
<path fill-rule="evenodd" clip-rule="evenodd" d="M5 10C5 7.23858 7.23858 5 10 5H21.3333C24.0948 5 26.3333 7.23858 26.3333 10C26.3333 12.7614 24.0948 15 21.3333 15H10C7.23858 15 5 12.7614 5 10ZM10 6.73333H21.3333C23.1375 6.73333 24.6 8.19587 24.6 10C24.6 11.8041 23.1375 13.2667 21.3333 13.2667H10C8.19587 13.2667 6.73333 11.8041 6.73333 10C6.73333 8.19587 8.19587 6.73333 10 6.73333Z" fill="black"/>
<path fill-rule="evenodd" clip-rule="evenodd" d="M13 21.3333C13 22.8061 11.8061 24 10.3333 24C8.86057 24 7.66667 22.8061 7.66667 21.3333C7.66667 19.8606 8.86057 18.6667 10.3333 18.6667C11.8061 18.6667 13 19.8606 13 21.3333ZM11.2667 21.3333C11.2667 21.8488 10.8488 22.2667 10.3333 22.2667C9.81787 22.2667 9.4 21.8488 9.4 21.3333C9.4 20.8179 9.81787 20.4 10.3333 20.4C10.8488 20.4 11.2667 20.8179 11.2667 21.3333Z" fill="black"/>
<path fill-rule="evenodd" clip-rule="evenodd" d="M5 21.3333C5 18.5719 7.23858 16.3333 10 16.3333H21.3333C24.0948 16.3333 26.3333 18.5719 26.3333 21.3333C26.3333 24.0948 24.0948 26.3333 21.3333 26.3333H10C7.23858 26.3333 5 24.0948 5 21.3333ZM10 18.0667H21.3333C23.1375 18.0667 24.6 19.5292 24.6 21.3333C24.6 23.1375 23.1375 24.6 21.3333 24.6H10C8.19587 24.6 6.73333 23.1375 6.73333 21.3333C6.73333 19.5292 8.19587 18.0667 10 18.0667Z" fill="black"/>
</svg>
