<svg width="32" height="32" viewBox="0 0 32 32" fill="none" xmlns="http://www.w3.org/2000/svg">
<path d="M15.6667 5C16.1453 5 16.5332 5.38797 16.5332 5.86656V9.24314L19.0319 7.16087C19.3996 6.85449 19.946 6.90416 20.2524 7.27182C20.5588 7.63949 20.5091 8.18591 20.1415 8.49229L16.5332 11.4992V14.8001H19.8342L22.841 11.1919C23.1474 10.8242 23.6938 10.7745 24.0615 11.0809C24.4292 11.3873 24.4788 11.9337 24.1725 12.3014L22.0902 14.8001H25.4668C25.9454 14.8001 26.3333 15.1881 26.3333 15.6667C26.3333 16.1453 25.9454 16.5332 25.4668 16.5332H22.0902L24.1725 19.0319C24.4788 19.3996 24.4292 19.946 24.0615 20.2524C23.6938 20.5588 23.1474 20.5091 22.841 20.1415L19.8342 16.5332H16.5332V19.8342L20.1415 22.841C20.5091 23.1474 20.5588 23.6938 20.2524 24.0615C19.946 24.4292 19.3996 24.4788 19.0319 24.1725L16.5332 22.0902V25.4668C16.5332 25.9454 16.1453 26.3333 15.6667 26.3333C15.1881 26.3333 14.8001 25.9454 14.8001 25.4668V22.0902L12.3014 24.1725C11.9337 24.4788 11.3873 24.4292 11.0809 24.0615C10.7745 23.6938 10.8242 23.1474 11.1919 22.841L14.8001 19.8342V16.5332H11.4992L8.49229 20.1415C8.18591 20.5091 7.63949 20.5588 7.27182 20.2524C6.90416 19.946 6.85449 19.3996 7.16087 19.0319L9.24314 16.5332H5.86656C5.38797 16.5332 5 16.1453 5 15.6667C5 15.1881 5.38797 14.8001 5.86656 14.8001H9.24314L7.16087 12.3014C6.85449 11.9337 6.90416 11.3873 7.27182 11.0809C7.63949 10.7745 8.18591 10.8242 8.49229 11.1919L11.4992 14.8001H14.8001V11.4992L11.1919 8.49229C10.8242 8.18591 10.7745 7.63949 11.0809 7.27182C11.3873 6.90416 11.9337 6.85449 12.3014 7.16087L14.8001 9.24314V5.86656C14.8001 5.38797 15.1881 5 15.6667 5Z" fill="black"/>
</svg>
