<svg width="16" height="16" viewBox="0 0 16 16" fill="none" xmlns="http://www.w3.org/2000/svg">
<path fill-rule="evenodd" clip-rule="evenodd" d="M6.33333 3C5.59695 3 5 3.59695 5 4.33333V12.3333C5 13.0697 5.59695 13.6667 6.33333 13.6667H10.3333C11.0697 13.6667 11.6667 13.0697 11.6667 12.3333V4.33333C11.6667 3.59695 11.0697 3 10.3333 3H6.33333ZM8.83333 4.33333H7.83333C7.55719 4.33333 7.33333 4.55719 7.33333 4.83333C7.33333 5.10948 7.55719 5.33333 7.83333 5.33333H8.83333C9.10948 5.33333 9.33333 5.10948 9.33333 4.83333C9.33333 4.55719 9.10948 4.33333 8.83333 4.33333Z" fill="black"/>
</svg>
