<svg width="20" height="20" viewBox="0 0 20 20" fill="none" xmlns="http://www.w3.org/2000/svg">
<path fill-rule="evenodd" clip-rule="evenodd" d="M3 6.66667C3 5.74619 3.74619 5 4.66667 5H14.6667C15.5871 5 16.3333 5.74619 16.3333 6.66667V8.33333C16.3333 9.25381 15.5871 10 14.6667 10H4.66667C3.74619 10 3 9.25381 3 8.33333V6.66667ZM4.95833 7.5C4.95833 7.20085 5.20085 6.95833 5.5 6.95833H8.83333C9.13249 6.95833 9.375 7.20085 9.375 7.5C9.375 7.79915 9.13249 8.04167 8.83333 8.04167H5.5C5.20085 8.04167 4.95833 7.79915 4.95833 7.5ZM13.8333 7.50001C13.8333 7.79916 13.5908 8.04167 13.2917 8.04167C12.9925 8.04167 12.75 7.79916 12.75 7.50001C12.75 7.20085 12.9925 6.95834 13.2917 6.95834C13.5908 6.95834 13.8333 7.20085 13.8333 7.50001Z" fill="black"/>
<path fill-rule="evenodd" clip-rule="evenodd" d="M3 12.5C3 11.5795 3.74619 10.8333 4.66667 10.8333H14.6667C15.5871 10.8333 16.3333 11.5795 16.3333 12.5V14.1667C16.3333 15.0871 15.5871 15.8333 14.6667 15.8333H4.66667C3.74619 15.8333 3 15.0871 3 14.1667V12.5ZM5.5 12.7917C5.20085 12.7917 4.95833 13.0342 4.95833 13.3333C4.95833 13.6325 5.20085 13.875 5.5 13.875H8.83333C9.13249 13.875 9.375 13.6325 9.375 13.3333C9.375 13.0342 9.13249 12.7917 8.83333 12.7917H5.5ZM13.2917 13.875C13.5908 13.875 13.8333 13.6325 13.8333 13.3333C13.8333 13.0342 13.5908 12.7917 13.2917 12.7917C12.9925 12.7917 12.75 13.0342 12.75 13.3333C12.75 13.6325 12.9925 13.875 13.2917 13.875Z" fill="black"/>
</svg>
