<svg width="32" height="32" viewBox="0 0 32 32" fill="none" xmlns="http://www.w3.org/2000/svg">
<path fill-rule="evenodd" clip-rule="evenodd" d="M12.6739 11.0708V8.83696C12.6739 7.36156 12.0412 6.36206 11.2024 5.75815C10.4045 5.18366 9.47113 5 8.83696 5C8.2028 5 7.26938 5.18366 6.47148 5.75815C5.63271 6.36206 5 7.36156 5 8.83696C5 10.3953 5.83965 11.3927 6.82433 11.9599C7.76915 12.5041 8.86624 12.6739 9.59582 12.6739H11.0708V18.6594H8.83696C7.36156 18.6594 6.36206 19.2921 5.75815 20.1309C5.18366 20.9288 5 21.8622 5 22.4964C5 23.1305 5.18366 24.0639 5.75815 24.8619C6.36206 25.7006 7.36156 26.3333 8.83696 26.3333C10.3124 26.3333 11.3119 25.7006 11.9158 24.8619C12.4903 24.0639 12.6739 23.1305 12.6739 22.4964V20.2625H18.6594V22.4964C18.6594 23.9718 19.2921 24.9713 20.1309 25.5752C20.9288 26.1497 21.8622 26.3333 22.4964 26.3333C23.1305 26.3333 24.0639 26.1497 24.8619 25.5752C25.7006 24.9713 26.3333 23.9718 26.3333 22.4964C26.3333 21.021 25.7006 20.0215 24.8619 19.4176C24.0639 18.8431 23.1305 18.6594 22.4964 18.6594H20.2625V12.6739H22.4964C23.9718 12.6739 24.9713 12.0412 25.5752 11.2024C26.1497 10.4045 26.3333 9.47113 26.3333 8.83696C26.3333 8.2028 26.1497 7.26938 25.5752 6.47148C24.9713 5.63271 23.9718 5 22.4964 5C21.021 5 20.0215 5.63271 19.4176 6.47148C18.8431 7.26938 18.6594 8.2028 18.6594 8.83696V11.0708H12.6739ZM7.40817 7.0591C6.98218 7.36581 6.60308 7.88403 6.60308 8.83696C6.60308 9.70699 7.02819 10.2273 7.62446 10.5707C8.26059 10.9372 9.06064 11.0708 9.59582 11.0708H11.0708V8.83696C11.0708 7.88403 10.6917 7.36581 10.2658 7.0591C9.7989 6.72297 9.2146 6.60308 8.83696 6.60308C8.45933 6.60308 7.87503 6.72297 7.40817 7.0591ZM12.6739 12.6739V18.6594H18.6594V12.6739H12.6739ZM20.2625 11.0708H22.4964C23.4493 11.0708 23.9675 10.6917 24.2742 10.2658C24.6104 9.7989 24.7302 9.2146 24.7302 8.83696C24.7302 8.45933 24.6104 7.87503 24.2742 7.40817C23.9675 6.98218 23.4493 6.60308 22.4964 6.60308C21.5434 6.60308 21.0252 6.98218 20.7185 7.40817C20.3824 7.87503 20.2625 8.45933 20.2625 8.83696V11.0708ZM20.2625 20.2625V22.4964C20.2625 23.4493 20.6416 23.9675 21.0676 24.2742C21.5344 24.6104 22.1187 24.7302 22.4964 24.7302C22.874 24.7302 23.4583 24.6104 23.9252 24.2742C24.3511 23.9675 24.7302 23.4493 24.7302 22.4964C24.7302 21.5434 24.3511 21.0252 23.9252 20.7185C23.4583 20.3824 22.874 20.2625 22.4964 20.2625H20.2625ZM11.0708 20.2625H8.83696C7.88403 20.2625 7.36581 20.6416 7.0591 21.0676C6.72297 21.5344 6.60308 22.1187 6.60308 22.4964C6.60308 22.874 6.72297 23.4583 7.0591 23.9252C7.36581 24.3511 7.88403 24.7302 8.83696 24.7302C9.7899 24.7302 10.3081 24.3511 10.6148 23.9252C10.951 23.4583 11.0708 22.874 11.0708 22.4964V20.2625Z" fill="black"/>
</svg>
