<svg width="32" height="32" viewBox="0 0 32 32" fill="none" xmlns="http://www.w3.org/2000/svg">
<path fill-rule="evenodd" clip-rule="evenodd" d="M24.4068 22.3276C25.3317 22.3276 25.9405 21.3062 25.5429 20.4217L24.1276 17.2733C23.9666 16.9153 23.8831 16.5237 23.8831 16.1272V12.9974C23.8831 8.58054 20.503 5 16.3333 5C12.1637 5 8.78356 8.58054 8.78356 12.9974V16.1272C8.78356 16.5237 8.70004 16.9153 8.5391 17.2733L7.12377 20.4217C6.72614 21.3062 7.33498 22.3276 8.25983 22.3276H12.5584C12.5584 22.9484 12.692 23.5362 12.9303 24.0604C13.5398 25.4011 14.8346 26.3263 16.3333 26.3263C17.8321 26.3263 19.1269 25.4011 19.7364 24.0604C19.9747 23.5362 20.1082 22.9484 20.1082 22.3276H24.4068ZM10.1749 17.6648C10.3358 17.3068 10.4193 16.9152 10.4193 16.5187V12.9974C10.4193 9.53752 13.0671 6.73276 16.3333 6.73276C19.5995 6.73276 22.2473 9.53752 22.2473 12.9974V16.5187C22.2473 16.9152 22.3308 17.3068 22.4918 17.6648L23.5519 20.0231C23.6712 20.2884 23.4886 20.5949 23.2111 20.5949H9.45555C9.1781 20.5949 8.99544 20.2884 9.11473 20.0231L10.1749 17.6648ZM18.4724 22.3276H14.1942C14.1942 23.5791 15.1519 24.5936 16.3333 24.5936C17.5147 24.5936 18.4724 23.5791 18.4724 22.3276Z" fill="black"/>
</svg>
