<svg width="16" height="16" viewBox="0 0 16 16" fill="none" xmlns="http://www.w3.org/2000/svg">
<path d="M7.6 7.66813C7.63682 7.66813 7.66667 7.63827 7.66667 7.60144V3.66688C7.66667 3.29857 7.96514 3 8.33333 3C8.70152 3 9 3.29857 9 3.66687V7.60144C9 7.63827 9.02985 7.66813 9.06667 7.66813H13C13.3682 7.66813 13.6667 7.9667 13.6667 8.335C13.6667 8.7033 13.3682 9.00187 13 9.00187H9.06667C9.02985 9.00187 9 9.03173 9 9.06856V13.0031C9 13.3714 8.70152 13.67 8.33333 13.67C7.96514 13.67 7.66667 13.3714 7.66667 13.0031V9.06856C7.66667 9.03173 7.63682 9.00187 7.6 9.00187H3.66667C3.29848 9.00187 3 8.7033 3 8.335C3 7.9667 3.29848 7.66813 3.66667 7.66813H7.6Z" fill="black"/>
</svg>
