<svg width="16" height="16" viewBox="0 0 16 16" fill="none" xmlns="http://www.w3.org/2000/svg">
<path fill-rule="evenodd" clip-rule="evenodd" d="M6.0918 3.43038C6.02644 3.21621 6.18735 3 6.4121 3H8.19677C8.49154 3 8.75164 3.19202 8.83736 3.47293L9.86042 6.8256C9.88337 6.90083 9.95598 6.94986 10.0346 6.94325L11.9689 6.78071C12.8825 6.70394 13.6667 7.42181 13.6667 8.335C13.6667 9.24819 12.8825 9.96606 11.9689 9.88929L10.0346 9.72675C9.95598 9.72014 9.88337 9.76917 9.86042 9.8444L8.83736 13.1971C8.75164 13.478 8.49154 13.67 8.19677 13.67H6.4121C6.18735 13.67 6.02644 13.4538 6.0918 13.2396L7.13876 9.80862C7.16892 9.7098 7.10251 9.60772 6.99963 9.59475L5.90724 9.45707C5.74828 9.43703 5.59735 9.53199 5.54724 9.68358L5.19109 10.7609C5.10068 11.0344 4.84424 11.2192 4.55515 11.2192H3.16746C3.05877 11.2192 2.9789 11.1176 3.00496 11.0125L3.62918 8.49487C3.65521 8.38987 3.65521 8.28013 3.62918 8.17513L3.00496 5.65745C2.9789 5.55235 3.05877 5.45077 3.16746 5.45077H4.55515C4.84424 5.45077 5.10068 5.63558 5.19109 5.90907L5.54724 6.98642C5.59735 7.13801 5.74828 7.23297 5.90724 7.21294L6.99963 7.07525C7.10251 7.06228 7.16892 6.9602 7.13876 6.86138L6.0918 3.43038ZM7.36051 3.8669C7.24814 3.8669 7.16769 3.97501 7.20036 4.08209L8.21384 7.40335C8.27415 7.60101 8.14134 7.80516 7.93557 7.8311L5.30485 8.16268C5.14589 8.18271 4.99496 8.08775 4.94485 7.93617L4.4846 6.5439C4.43998 6.4089 4.31339 6.31768 4.17069 6.31768C4.11704 6.31768 4.07761 6.36782 4.09048 6.4197L4.54552 8.25506C4.55854 8.30757 4.55854 8.36243 4.54552 8.41493L4.09048 10.2503C4.07761 10.3022 4.11704 10.3523 4.17069 10.3523C4.31339 10.3523 4.43998 10.2611 4.4846 10.1261L4.94485 8.73383C4.99496 8.58225 5.14589 8.48729 5.30485 8.50732L7.93557 8.8389C8.14134 8.86484 8.27415 9.06899 8.21384 9.26665L7.20036 12.5879C7.16769 12.695 7.24814 12.8031 7.36051 12.8031H7.79974C7.94713 12.8031 8.07718 12.7071 8.12004 12.5666L9.19295 9.05061C9.23886 8.90016 9.38406 8.8021 9.54138 8.81532L12.0421 9.02545C12.448 9.05956 12.7963 8.74066 12.7963 8.335C12.7963 7.92934 12.448 7.61044 12.0421 7.64454L9.54138 7.85468C9.38406 7.8679 9.23886 7.76984 9.19295 7.61939L8.12004 4.10337C8.07718 3.96291 7.94713 3.8669 7.79974 3.8669H7.36051Z" fill="black"/>
</svg>
