<svg width="16" height="16" viewBox="0 0 16 16" fill="none" xmlns="http://www.w3.org/2000/svg">
<path fill-rule="evenodd" clip-rule="evenodd" d="M7.66757 3C5.63797 3 4 4.66062 4 6.69998C4 8.48755 5.37359 9.90534 6.76695 10.8779C6.91237 10.9794 7.07041 11.0537 7.23429 11.1007V11.2601C7.23429 11.389 7.12984 11.4934 7.00099 11.4934H6.39358C5.78614 11.4934 5.29372 11.9859 5.29372 12.5933V13.2334C5.29372 13.4727 5.4877 13.6667 5.727 13.6667C5.96629 13.6667 6.16028 13.4727 6.16028 13.2334V12.5933C6.16028 12.4644 6.26473 12.36 6.39358 12.36H7.00099C7.60843 12.36 8.10085 11.8676 8.10085 11.2601V11.1007C8.26473 11.0537 8.42277 10.9794 8.56821 10.8779C9.96156 9.90534 11.3351 8.48755 11.3351 6.69998C11.3351 4.66062 9.69718 3 7.66757 3ZM6.00607 4.86447C6.39101 4.52428 6.89359 4.30668 7.34414 4.30668C7.58344 4.30668 7.77742 4.50067 7.77742 4.73997C7.77742 4.97926 7.58344 5.17325 7.34414 5.17325C7.14783 5.17325 6.84184 5.28232 6.57992 5.5138C6.32645 5.73781 6.16028 6.03533 6.16028 6.37332C6.16028 6.61261 5.96629 6.8066 5.727 6.8066C5.4877 6.8066 5.29372 6.61261 5.29372 6.37332C5.29372 5.73129 5.61269 5.21213 6.00607 4.86447Z" fill="black"/>
</svg>
