<svg width="16" height="16" viewBox="0 0 16 16" fill="none" xmlns="http://www.w3.org/2000/svg">
<path d="M13.6667 5.90479C13.6667 6.25545 13.379 6.53971 13.0241 6.53971C12.6692 6.53971 12.3815 6.25545 12.3815 5.90479V5.42855C12.3815 5.3409 12.3096 5.26986 12.2209 5.26986H11.7389C11.3841 5.26986 11.0964 4.9856 11.0964 4.63493C11.0964 4.28426 11.3841 4 11.7389 4H13.0241C13.379 4 13.6667 4.28426 13.6667 4.63493V5.90479Z" fill="black"/>
<path d="M3.64258 9.46029C3.28768 9.46029 3 9.74455 3 10.0952V11.3651C3 11.7157 3.28768 12 3.64258 12H4.92769C5.28259 12 5.57027 11.7157 5.57027 11.3651C5.57027 11.0144 5.28259 10.7301 4.92769 10.7301H4.4458C4.35706 10.7301 4.28516 10.6591 4.28516 10.5715V10.0952C4.28516 9.74455 3.99744 9.46029 3.64258 9.46029Z" fill="black"/>
<path d="M11.0964 11.3651C11.0964 11.7157 11.3841 12 11.7389 12H13.0241C13.379 12 13.6667 11.7157 13.6667 11.3651V10.0952C13.6667 9.74455 13.379 9.46029 13.0241 9.46029C12.6692 9.46029 12.3815 9.74455 12.3815 10.0952V10.5715C12.3815 10.6591 12.3096 10.7301 12.2209 10.7301H11.7389C11.3841 10.7301 11.0964 11.0144 11.0964 11.3651Z" fill="black"/>
<path d="M5.57027 4.63493C5.57027 4.28426 5.28259 4 4.92769 4H3.64258C3.28768 4 3 4.28426 3 4.63493V5.90479C3 6.25545 3.28768 6.53971 3.64258 6.53971C3.99744 6.53971 4.28516 6.25545 4.28516 5.90479V5.42855C4.28516 5.3409 4.35706 5.26986 4.4458 5.26986H4.92769C5.28259 5.26986 5.57027 4.9856 5.57027 4.63493Z" fill="black"/>
<path d="M5.57027 10.3492C5.21541 10.3492 4.92769 10.0649 4.92769 9.71427V6.53971C4.92769 6.18905 5.21541 5.90479 5.57027 5.90479C5.92517 5.90479 6.21285 6.18905 6.21285 6.53971V9.71427C6.21285 10.0649 5.92517 10.3492 5.57027 10.3492Z" fill="black"/>
<path d="M8.78312 8.03394C8.78312 8.3846 9.07084 8.66886 9.4257 8.66886C9.7806 8.66886 10.0683 8.3846 10.0683 8.03394V6.53971C10.0683 6.18905 9.7806 5.90479 9.4257 5.90479C9.07084 5.90479 8.78312 6.18905 8.78312 6.53971V8.03394Z" fill="black"/>
<path d="M7.49801 10.3492C7.14311 10.3492 6.85543 10.0649 6.85543 9.71427V6.53971C6.85543 6.18905 7.14311 5.90479 7.49801 5.90479C7.85286 5.90479 8.14058 6.18905 8.14058 6.53971V9.71427C8.14058 10.0649 7.85286 10.3492 7.49801 10.3492Z" fill="black"/>
<path d="M11.3534 5.90479C10.9985 5.90479 10.7109 6.18905 10.7109 6.53971V9.71427C10.7109 10.0649 10.9985 10.3492 11.3534 10.3492C11.7083 10.3492 11.996 10.0649 11.996 9.71427V6.53971C11.996 6.18905 11.7083 5.90479 11.3534 5.90479Z" fill="black"/>
<path d="M9.39998 10.3333C9.76819 10.3333 10.0667 10.0348 10.0667 9.66667C10.0667 9.2985 9.76819 9 9.39998 9C9.03178 9 8.73332 9.2985 8.73332 9.66667C8.73332 10.0348 9.03178 10.3333 9.39998 10.3333Z" fill="black"/>
</svg>
