<svg width="16" height="16" viewBox="0 0 16 16" fill="none" xmlns="http://www.w3.org/2000/svg">
<path fill-rule="evenodd" clip-rule="evenodd" d="M3 6.33333C3 5.59695 3.59695 5 4.33333 5H11.3468C12.0832 5 12.6802 5.59695 12.6802 6.33333V6.95719C13.225 6.95719 13.6667 7.39886 13.6667 7.9437V8.72297C13.6667 9.2678 13.225 9.70948 12.6802 9.70948V10.3333C12.6802 11.0697 12.0832 11.6667 11.3468 11.6667H4.33333C3.59695 11.6667 3 11.0697 3 10.3333V6.33333ZM5 6.33333C4.63181 6.33333 4.33333 6.63181 4.33333 7V9.66667C4.33333 10.0349 4.63181 10.3333 5 10.3333H7.4C7.76819 10.3333 8.06667 10.0349 8.06667 9.66667V7C8.06667 6.63181 7.76819 6.33333 7.4 6.33333H5Z" fill="black"/>
</svg>
