<svg width="16" height="16" viewBox="0 0 16 16" fill="none" xmlns="http://www.w3.org/2000/svg">
<path fill-rule="evenodd" clip-rule="evenodd" d="M7.69033 3.02182C7.84951 2.96599 8.02581 3.0197 8.12913 3.15551L10.2503 5.94376C10.3794 6.11346 10.3554 6.3569 10.1958 6.49681L8.21212 8.23509V8.48423L10.1958 10.2225C10.3565 10.3634 10.3796 10.6089 10.2481 10.7785L8.12688 13.5141C8.02275 13.6484 7.8469 13.7006 7.68861 13.6442C7.53031 13.5879 7.42424 13.4353 7.42424 13.2639V9.33198L5.6725 11.1229C5.51866 11.2802 5.26923 11.2802 5.11539 11.1229C4.96154 10.9656 4.96154 10.7106 5.11539 10.5533L7.40349 8.21405L5.13453 6.18431C4.9708 6.03784 4.95421 5.7834 5.09747 5.61601C5.24074 5.44861 5.48962 5.43165 5.65335 5.57812L7.42424 7.16229V3.40277C7.42424 3.23072 7.53115 3.07766 7.69033 3.02182ZM8.21212 7.17419L9.39782 6.13515L8.21212 4.57659V7.17419ZM8.21212 9.54513V12.1075L9.39516 10.5818L8.21212 9.54513Z" fill="black"/>
</svg>
