<svg width="16" height="16" viewBox="0 0 16 16" fill="none" xmlns="http://www.w3.org/2000/svg">
<path d="M8.33333 3C9.4093 3 10.4109 3.31862 11.2488 3.86667H8.33333C5.86646 3.86667 3.86667 5.86646 3.86667 8.33332C3.86667 10.7094 5.72194 12.6521 8.06287 12.7919C8.15619 12.7975 8.23333 12.722 8.23333 12.6285V12.5C8.23333 12.4079 8.30794 12.3333 8.39999 12.3333H11.8611C11.4621 12.6855 11.01 12.9789 10.5183 13.2C9.85148 13.4998 9.11187 13.6666 8.33333 13.6666C5.38781 13.6666 3 11.2788 3 8.33332C3 5.38781 5.38781 3 8.33333 3Z" fill="black"/>
<path d="M13.6667 8.33332C13.6667 8.62842 13.6427 8.91793 13.5966 9.19999H8.39999C8.30794 9.19999 8.23333 9.12537 8.23333 9.03332V8.49999C8.23333 8.40794 8.30794 8.33332 8.39999 8.33332L13.6667 8.33332Z" fill="black"/>
<path d="M13.4986 9.66666C13.4215 9.96657 13.3188 10.2563 13.1932 10.5333H8.39999C8.30794 10.5333 8.23333 10.4587 8.23333 10.3667V9.83332C8.23333 9.74128 8.30794 9.66666 8.39999 9.66666H13.4986Z" fill="black"/>
<path d="M12.9532 11C12.7739 11.3099 12.5643 11.6002 12.3284 11.8667H8.39999C8.30794 11.8667 8.23333 11.792 8.23333 11.7V11.1667C8.23333 11.0746 8.30794 11 8.39999 11H12.9532Z" fill="black"/>
<path d="M13.6465 7.86666C13.6208 7.57016 13.5709 7.28061 13.4986 6.99999H8.39999C8.30794 6.99999 8.23333 7.07461 8.23333 7.16666V7.69999C8.23333 7.79204 8.30794 7.86666 8.39999 7.86666H13.6465Z" fill="black"/>
<path d="M13.3553 6.53333C13.2469 6.23086 13.1119 5.94104 12.9532 5.66666H8.39999C8.30794 5.66666 8.23333 5.74128 8.23333 5.83333V6.36666C8.23333 6.45871 8.30794 6.53333 8.39999 6.53333H13.3553Z" fill="black"/>
<path d="M12.6497 5.2C12.4191 4.88293 12.1545 4.59225 11.8611 4.33333H8.39999C8.30794 4.33333 8.23333 4.40795 8.23333 4.5V5.03333C8.23333 5.12538 8.30794 5.2 8.39999 5.2H12.6497Z" fill="black"/>
</svg>
