<svg width="16" height="16" viewBox="0 0 16 16" fill="none" xmlns="http://www.w3.org/2000/svg">
<path d="M6.33333 8.33333C6.33333 8.70152 6.03486 9 5.66667 9C5.29848 9 5 8.70152 5 8.33333C5 7.96514 5.29848 7.66667 5.66667 7.66667C6.03486 7.66667 6.33333 7.96514 6.33333 8.33333Z" fill="black"/>
<path d="M7.66667 8C7.48257 8 7.33333 8.14924 7.33333 8.33333C7.33333 8.51743 7.48257 8.66667 7.66667 8.66667H11.3333C11.5174 8.66667 11.6667 8.51743 11.6667 8.33333C11.6667 8.14924 11.5174 8 11.3333 8H7.66667Z" fill="black"/>
<path fill-rule="evenodd" clip-rule="evenodd" d="M4.33333 5C3.59695 5 3 5.59695 3 6.33333V10.3333C3 11.0697 3.59695 11.6667 4.33333 11.6667H12.3333C13.0697 11.6667 13.6667 11.0697 13.6667 10.3333V6.33333C13.6667 5.59695 13.0697 5 12.3333 5H4.33333ZM12.3333 5.86667H4.33333C4.0756 5.86667 3.86667 6.0756 3.86667 6.33333V10.3333C3.86667 10.5911 4.0756 10.8 4.33333 10.8H12.3333C12.5911 10.8 12.8 10.5911 12.8 10.3333V6.33333C12.8 6.0756 12.5911 5.86667 12.3333 5.86667Z" fill="black"/>
</svg>
