<svg width="16" height="16" viewBox="0 0 16 16" fill="none" xmlns="http://www.w3.org/2000/svg">
<path fill-rule="evenodd" clip-rule="evenodd" d="M4.33333 4.33333C3.59695 4.33333 3 4.93029 3 5.66667V11C3 11.7364 3.59695 12.3333 4.33333 12.3333H12.3333C13.0697 12.3333 13.6667 11.7364 13.6667 11V5.66667C13.6667 4.93029 13.0697 4.33333 12.3333 4.33333H11.3745C11.3493 4.33333 11.3262 4.31907 11.3149 4.29648L11.0352 3.73705C10.8093 3.28534 10.3477 3 9.84262 3H6.82405C6.31902 3 5.85733 3.28534 5.63148 3.73705L5.35176 4.29648C5.34047 4.31907 5.31738 4.33333 5.29213 4.33333H4.33333ZM10.6667 8C10.6667 9.28866 9.622 10.3333 8.33333 10.3333C7.04467 10.3333 6 9.28866 6 8C6 6.71134 7.04467 5.66667 8.33333 5.66667C9.622 5.66667 10.6667 6.71134 10.6667 8Z" fill="black"/>
<path d="M8.33333 9.46667C9.14335 9.46667 9.8 8.81002 9.8 8C9.8 7.18998 9.14335 6.53333 8.33333 6.53333C7.52332 6.53333 6.86667 7.18998 6.86667 8C6.86667 8.81002 7.52332 9.46667 8.33333 9.46667Z" fill="black"/>
</svg>
