<svg width="12" height="12" viewBox="0 0 12 12" fill="none" xmlns="http://www.w3.org/2000/svg">
<path fill-rule="evenodd" clip-rule="evenodd" d="M6 4C4.85243 4 3.88801 4.7469 3.64455 5.75336C3.60952 5.89817 3.5007 5.96602 3.42362 5.96602H3.35756C2.61228 5.96602 2 6.52907 2 7.23301C2 7.93695 2.61228 8.5 3.35756 8.5H8.64244C9.38772 8.5 10 7.93695 10 7.23301C10 6.52907 9.38772 5.96602 8.64244 5.96602H8.57638C8.4993 5.96602 8.39048 5.89817 8.35545 5.75336C8.11199 4.7469 7.14757 4 6 4ZM4.2306 5.8799C4.41157 5.13176 5.13277 4.56796 6 4.56796C6.86723 4.56796 7.58843 5.13176 7.7694 5.8799C7.84818 6.20554 8.14268 6.53398 8.57638 6.53398H8.64244C9.06467 6.53398 9.39884 6.85115 9.39884 7.23301C9.39884 7.61487 9.06467 7.93204 8.64244 7.93204H3.35756C2.93533 7.93204 2.60116 7.61487 2.60116 7.23301C2.60116 6.85115 2.93533 6.53398 3.35756 6.53398H3.42362C3.85732 6.53398 4.15182 6.20554 4.2306 5.8799Z" fill="black"/>
</svg>
