<svg width="16" height="16" viewBox="0 0 16 16" fill="none" xmlns="http://www.w3.org/2000/svg">
<path fill-rule="evenodd" clip-rule="evenodd" d="M8.33333 5C6.80324 5 5.51735 5.99586 5.19273 7.33781C5.14603 7.53089 5.00094 7.62136 4.89816 7.62136H4.81007C3.81637 7.62136 3 8.37209 3 9.31068C3 10.2493 3.81637 11 4.81007 11H11.8566C12.8503 11 13.6667 10.2493 13.6667 9.31068C13.6667 8.37209 12.8503 7.62136 11.8566 7.62136H11.7685C11.6657 7.62136 11.5206 7.53089 11.4739 7.33781C11.1493 5.99586 9.86342 5 8.33333 5ZM5.97413 7.50653C6.21542 6.50902 7.17703 5.75728 8.33333 5.75728C9.48963 5.75728 10.4512 6.50902 10.6925 7.50653C10.7976 7.94071 11.1902 8.37864 11.7685 8.37864H11.8566C12.4196 8.37864 12.8651 8.80153 12.8651 9.31068C12.8651 9.81983 12.4196 10.2427 11.8566 10.2427H4.81007C4.2471 10.2427 3.80154 9.81983 3.80154 9.31068C3.80154 8.80153 4.2471 8.37864 4.81007 8.37864H4.89816C5.47642 8.37864 5.8691 7.94071 5.97413 7.50653Z" fill="black"/>
</svg>
