<svg width="16" height="16" viewBox="0 0 16 16" fill="none" xmlns="http://www.w3.org/2000/svg">
<path d="M10.1989 4.63119C10.2945 4.39522 10.1783 4.12742 9.93945 4.03303C9.70061 3.93865 9.42955 4.05342 9.33401 4.28939L6.46774 11.3688C6.37221 11.6048 6.48838 11.8726 6.72722 11.967C6.96606 12.0614 7.23712 11.9466 7.33265 11.7106L10.1989 4.63119Z" fill="black"/>
<path d="M5.79641 5.55079C5.97831 5.73049 5.97831 6.02185 5.79641 6.20156L4.10273 7.87485C4.03277 7.94397 4.03277 8.05603 4.10273 8.12515L5.79641 9.79844C5.97831 9.97815 5.97831 10.2695 5.79641 10.4492C5.61452 10.6289 5.31961 10.6289 5.13772 10.4492L3.24136 8.57568C2.91955 8.25774 2.91955 7.74226 3.24136 7.42432L5.13772 5.55079C5.31961 5.37108 5.61452 5.37108 5.79641 5.55079Z" fill="black"/>
<path d="M10.8703 10.4492C10.6884 10.2695 10.6884 9.97815 10.8703 9.79844L12.5639 8.12515C12.6339 8.05603 12.6339 7.94397 12.5639 7.87485L10.8703 6.20156C10.6884 6.02185 10.6884 5.73049 10.8703 5.55079C11.0521 5.37108 11.3471 5.37108 11.529 5.55079L13.4253 7.42432C13.7471 7.74226 13.7471 8.25774 13.4253 8.57568L11.529 10.4492C11.3471 10.6289 11.0521 10.6289 10.8703 10.4492Z" fill="black"/>
</svg>
