<svg width="16" height="16" viewBox="0 0 16 16" fill="none" xmlns="http://www.w3.org/2000/svg">
<path fill-rule="evenodd" clip-rule="evenodd" d="M5 6.24661C5 4.45356 6.49077 3 8.32972 3C10.1651 3 11.6536 4.44786 11.6594 6.23605C11.72 7.56743 11.499 9.40208 10.6042 10.9234C9.74452 12.3851 8.27179 13.5349 5.93079 13.6693C5.67417 13.684 5.46545 13.4792 5.46545 13.2286C5.46545 12.9779 5.67457 12.7766 5.93105 12.7598C7.90493 12.6304 9.08918 11.6748 9.79669 10.4718C10.1188 9.92414 10.3437 9.32098 10.4926 8.71508C9.91077 9.20023 9.15534 9.49321 8.32972 9.49321C6.49077 9.49321 5 8.03966 5 6.24661Z" fill="black"/>
</svg>
