<svg width="16" height="16" viewBox="0 0 16 16" fill="none" xmlns="http://www.w3.org/2000/svg">
<path fill-rule="evenodd" clip-rule="evenodd" d="M7.87268 3.30178C8.04727 2.89941 8.6194 2.89941 8.79398 3.30178L12.6276 12.1372C12.7319 12.3777 12.6175 12.6405 12.4013 12.7443C9.83995 13.9741 6.82672 13.9741 4.26533 12.7443C4.04917 12.6405 3.93476 12.3777 4.03908 12.1372L7.87268 3.30178ZM8.18401 4.71375C8.24084 4.58276 8.42583 4.58276 8.48266 4.71375L11.6345 11.9778C11.6706 12.0612 11.6322 12.1583 11.5483 12.1923C9.49346 13.0238 7.17321 13.0238 5.11838 12.1923C5.03443 12.1583 4.99604 12.0612 5.0322 11.9778L8.18401 4.71375Z" fill="black"/>
</svg>
