<svg width="16" height="16" viewBox="0 0 16 16" fill="none" xmlns="http://www.w3.org/2000/svg">
<path fill-rule="evenodd" clip-rule="evenodd" d="M6.40303 6.99399C6.40303 6.62582 6.70149 6.32736 7.06965 6.32736H9.69605C10.0642 6.32736 10.3627 6.62582 10.3627 6.99399V9.60717C10.3627 9.97533 10.0642 10.2738 9.69605 10.2738H7.06965C6.70148 10.2738 6.40303 9.97534 6.40303 9.60717V6.99399ZM7.60296 9.40718C7.41887 9.40718 7.26964 9.25795 7.26964 9.07386V7.52729C7.26964 7.34321 7.41887 7.19398 7.60296 7.19398H9.16274C9.34683 7.19398 9.49606 7.34321 9.49606 7.52729V9.07386C9.49606 9.25795 9.34683 9.40718 9.16274 9.40718H7.60296Z" fill="black"/>
<path fill-rule="evenodd" clip-rule="evenodd" d="M6.67135 3.43331C6.67135 3.194 6.47735 3 6.23804 3C5.99873 3 5.80473 3.194 5.80473 3.43331V4.35415H5.75642C5.06128 4.35415 4.4904 4.88613 4.42869 5.56518H3.43331C3.194 5.56518 3 5.75917 3 5.99848C3 6.23779 3.194 6.43179 3.43331 6.43179H4.42316V7.04508H3.43331C3.194 7.04508 3 7.23908 3 7.47839C3 7.7177 3.194 7.9117 3.43331 7.9117H4.42316V8.525H3.43331C3.194 8.525 3 8.719 3 8.9583C3 9.19761 3.194 9.39161 3.43331 9.39161H4.42316V10.0049H3.43331C3.194 10.0049 3 10.1989 3 10.4382C3 10.6775 3.194 10.8715 3.43331 10.8715H4.42316V10.9138C4.42316 11.6501 5.02008 12.247 5.75642 12.247H5.80467L5.80467 13.2336C5.80467 13.4729 5.99866 13.6669 6.23797 13.6669C6.47728 13.6669 6.67128 13.4729 6.67128 13.2336V12.247H7.28955L7.28955 13.2336C7.28955 13.4729 7.48355 13.6669 7.72286 13.6669C7.96217 13.6669 8.15617 13.4729 8.15617 13.2336V12.247H8.7744L8.7744 13.2336C8.7744 13.4729 8.9684 13.6669 9.20771 13.6669C9.44702 13.6669 9.64101 13.4729 9.64101 13.2336V12.247H10.2593V13.2336C10.2593 13.4729 10.4533 13.6669 10.6926 13.6669C10.9319 13.6669 11.1259 13.4729 11.1259 13.2336L11.1259 12.242C11.8076 12.1828 12.3425 11.6108 12.3425 10.9138V10.8715H13.2334C13.4727 10.8715 13.6667 10.6775 13.6667 10.4382C13.6667 10.1989 13.4727 10.0049 13.2334 10.0049H12.3425V9.39162H13.2334C13.4727 9.39162 13.6667 9.19762 13.6667 8.95831C13.6667 8.719 13.4727 8.52501 13.2334 8.52501H12.3425V7.91171H13.2334C13.4727 7.91171 13.6667 7.71771 13.6667 7.4784C13.6667 7.23909 13.4727 7.04509 13.2334 7.04509H12.3425V6.4318H13.2334C13.4727 6.4318 13.6667 6.2378 13.6667 5.99849C13.6667 5.75918 13.4727 5.56518 13.2334 5.56518H12.3369C12.2787 4.92457 11.7673 4.41484 11.126 4.35919V3.43331C11.126 3.194 10.932 3 10.6927 3C10.4534 3 10.2594 3.194 10.2594 3.43331V4.35415H9.6411V3.43331C9.6411 3.194 9.4471 3 9.20779 3C8.96848 3 8.77448 3.194 8.77448 3.43331V4.35415H8.15625V3.43331C8.15625 3.194 7.96225 3 7.72294 3C7.48363 3 7.28963 3.194 7.28963 3.43331V4.35415H6.67135V3.43331ZM5.75642 5.22076H11.0092C11.2669 5.22076 11.4758 5.42968 11.4758 5.6874V10.9138C11.4758 11.1715 11.2669 11.3804 11.0092 11.3804H5.75642C5.4987 11.3804 5.28978 11.1715 5.28978 10.9138V5.6874C5.28978 5.42968 5.4987 5.22076 5.75642 5.22076Z" fill="black"/>
</svg>
