<svg width="16" height="16" viewBox="0 0 16 16" fill="none" xmlns="http://www.w3.org/2000/svg">
<path d="M7.4598 7.19157C7.4598 6.95228 7.26581 6.75829 7.02652 6.75829C6.78722 6.75829 6.59323 6.95228 6.59323 7.19157V11.2805C6.59323 11.5198 6.78722 11.7138 7.02652 11.7138C7.26581 11.7138 7.4598 11.5198 7.4598 11.2805V7.19157Z" fill="black"/>
<path d="M9.63989 6.75829C9.87918 6.75829 10.0732 6.95228 10.0732 7.19157V11.2805C10.0732 11.5198 9.87918 11.7138 9.63989 11.7138C9.40059 11.7138 9.20661 11.5198 9.20661 11.2805V7.19157C9.20661 6.95228 9.40059 6.75829 9.63989 6.75829Z" fill="black"/>
<path fill-rule="evenodd" clip-rule="evenodd" d="M8.33333 3C7.42248 3 6.80396 3.35738 6.42391 3.84373C6.18269 4.15242 6.04887 4.49799 5.98591 4.80596H3.43328C3.19399 4.80596 3 4.99994 3 5.23924C3 5.47853 3.19399 5.67252 3.43328 5.67252H4.1504L4.64878 12.4306C4.70013 13.127 5.28009 13.6658 5.97834 13.6658H10.6881C11.3864 13.6658 11.9663 13.127 12.0177 12.4306L12.516 5.6729L13.2334 5.67252C13.4727 5.67252 13.6667 5.47853 13.6667 5.23924C13.6667 4.99994 13.4727 4.80596 13.2334 4.80596H10.6808C10.6178 4.49799 10.484 4.15242 10.2428 3.84373C9.86271 3.35738 9.24419 3 8.33333 3ZM9.55994 4.3773C9.66539 4.51223 9.73816 4.66193 9.78562 4.80596H6.88105C6.9285 4.66193 7.00128 4.51223 7.10672 4.3773C7.31468 4.11117 7.67617 3.86656 8.33333 3.86656C8.99049 3.86656 9.35198 4.11117 9.55994 4.3773ZM5.51299 12.3669L5.01934 5.6729H11.6471L11.1535 12.3669C11.1355 12.6106 10.9325 12.7992 10.6881 12.7992H5.97834C5.73395 12.7992 5.53097 12.6106 5.51299 12.3669Z" fill="black"/>
</svg>
