<svg width="16" height="16" viewBox="0 0 16 16" fill="none" xmlns="http://www.w3.org/2000/svg">
<path fill-rule="evenodd" clip-rule="evenodd" d="M6.42391 3.84373C6.80396 3.35738 7.42248 3 8.33333 3C9.24419 3 9.86271 3.35738 10.2428 3.84373C10.484 4.15242 10.6178 4.49799 10.6808 4.80596H13.2334C13.4727 4.80596 13.6667 4.99994 13.6667 5.23924C13.6667 5.47853 13.4727 5.67252 13.2334 5.67252L12.516 5.6729L12.0177 12.4306C11.9663 13.127 11.3864 13.6658 10.6881 13.6658H5.97834C5.28009 13.6658 4.70013 13.127 4.64878 12.4306L4.1504 5.67252H3.43328C3.19399 5.67252 3 5.47853 3 5.23924C3 4.99994 3.19399 4.80596 3.43328 4.80596H5.98591C6.04887 4.49799 6.18269 4.15242 6.42391 3.84373ZM9.55994 4.3773C9.66539 4.51223 9.73816 4.66193 9.78562 4.80596H6.88105C6.9285 4.66193 7.00128 4.51223 7.10672 4.3773C7.31468 4.11117 7.67617 3.86656 8.33333 3.86656C8.99049 3.86656 9.35198 4.11117 9.55994 4.3773ZM7.4598 7.19157C7.4598 6.95228 7.26581 6.75829 7.02652 6.75829C6.78722 6.75829 6.59323 6.95228 6.59323 7.19157V11.2805C6.59323 11.5198 6.78722 11.7138 7.02652 11.7138C7.26581 11.7138 7.4598 11.5198 7.4598 11.2805V7.19157ZM9.63989 6.75829C9.87918 6.75829 10.0732 6.95228 10.0732 7.19157V11.2805C10.0732 11.5198 9.87918 11.7138 9.63989 11.7138C9.40059 11.7138 9.20661 11.5198 9.20661 11.2805V7.19157C9.20661 6.95228 9.40059 6.75829 9.63989 6.75829Z" fill="black"/>
</svg>
