<svg width="16" height="16" viewBox="0 0 16 16" fill="none" xmlns="http://www.w3.org/2000/svg">
<path d="M9.5334 8.96961C9.5334 8.73031 9.72739 8.53633 9.96668 8.53633H11.6C11.8393 8.53633 12.0333 8.73031 12.0333 8.96961C12.0333 9.2089 11.8393 9.40289 11.6 9.40289H9.96668C9.72739 9.40289 9.5334 9.2089 9.5334 8.96961Z" fill="black"/>
<path fill-rule="evenodd" clip-rule="evenodd" d="M7.56676 6.47189C7.75083 6.47189 7.90005 6.62111 7.90005 6.80518V10.5674C7.90005 11.543 8.69092 12.3339 9.66651 12.3339H11.9002C12.8758 12.3339 13.6667 11.543 13.6667 10.5674V4.76645C13.6667 3.79087 12.8758 3 11.9002 3H4.76645C3.79087 3 3 3.79087 3 4.76645V11.9006C3 12.1399 3.19399 12.3339 3.43328 12.3339C3.67258 12.3339 3.86656 12.1399 3.86656 11.9006V6.80518C3.86656 6.62111 4.01578 6.47189 4.19985 6.47189H7.56676ZM4.76645 3.86656C4.26946 3.86656 3.86656 4.26946 3.86656 4.76645V5.27204C3.86656 5.45611 4.01578 5.60533 4.19985 5.60533H12.4668C12.6509 5.60533 12.8001 5.45611 12.8001 5.27204V4.76645C12.8001 4.26946 12.3972 3.86656 11.9002 3.86656H4.76645ZM12.8001 6.80518C12.8001 6.62111 12.6509 6.47189 12.4668 6.47189H9.09991C8.91583 6.47189 8.76661 6.62111 8.76661 6.80518V10.5674C8.76661 11.0644 9.16951 11.4673 9.66651 11.4673H11.9002C12.3972 11.4673 12.8001 11.0644 12.8001 10.5674V6.80518Z" fill="black"/>
</svg>
