<svg width="16" height="16" viewBox="0 0 16 16" fill="none" xmlns="http://www.w3.org/2000/svg">
<path fill-rule="evenodd" clip-rule="evenodd" d="M3.7153 11.0021C2.24279 8.45079 3.11664 5.1885 5.66711 3.71553C8.21758 2.24255 11.4789 3.11668 12.9514 5.66795C14.4239 8.21921 13.55 11.4815 10.9996 12.9545C8.44909 14.4274 5.18782 13.5533 3.7153 11.0021ZM4.08141 6.96861C3.70977 8.127 3.80973 9.43208 4.46573 10.5687C5.40443 12.195 7.2111 13.0076 8.96253 12.759L8.72323 12.3443C8.55659 12.0556 8.39649 11.3782 9.08919 10.9781L9.66667 10.6446C9.98548 10.4605 10.0945 10.0528 9.91043 9.73392L9.74379 9.44521C9.63269 9.25273 9.52596 8.8011 9.98776 8.53439L10.4208 8.28428C10.6599 8.14619 10.7417 7.84042 10.6037 7.60124C10.4656 7.36206 10.1599 7.28011 9.92079 7.4182L7.46746 8.83508C7.27504 8.9462 6.82355 9.05297 6.55693 8.59102L5.89032 7.43607C5.79829 7.27661 5.59451 7.22207 5.4351 7.31413C5.14937 7.47915 4.48277 7.63776 4.08141 6.96861ZM12.6087 7.04041C12.5112 6.71939 12.3758 6.40438 12.2009 6.10134C11.0238 4.06177 8.48158 3.30203 6.39513 4.31011L6.6223 4.70371C6.80636 5.02261 7.23943 5.11884 7.60094 5.18831C8.0576 5.27606 8.51501 5.62394 8.80492 5.91148C8.89837 6.00417 9.01111 6.07614 9.13822 6.11021L12.6087 7.04041Z" fill="black"/>
</svg>
