<svg width="16" height="16" viewBox="0 0 16 16" fill="none" xmlns="http://www.w3.org/2000/svg">
<path d="M6.33333 8.33333C6.66755 8.33333 6.94432 8.0874 6.99256 7.76663C7.12671 7.76883 7.26 7.70888 7.34667 7.59333C7.49026 7.40187 7.45146 7.13026 7.26 6.98667L5.92667 5.98667C5.73521 5.84307 5.46359 5.88187 5.32 6.07333C5.17641 6.26479 5.21521 6.53641 5.40667 6.68L5.97366 7.10525C5.78901 7.22379 5.66667 7.43094 5.66667 7.66667C5.66667 8.03486 5.96514 8.33333 6.33333 8.33333Z" fill="black"/>
<path d="M11 7.66667C11 8.03486 10.7015 8.33333 10.3333 8.33333C9.99912 8.33333 9.72235 8.0874 9.67411 7.76663C9.53995 7.76883 9.40666 7.70888 9.32 7.59333C9.17641 7.40187 9.21521 7.13026 9.40667 6.98667L10.74 5.98667C10.9315 5.84307 11.2031 5.88187 11.3467 6.07333C11.4903 6.26479 11.4515 6.53641 11.26 6.68L10.693 7.10525C10.8777 7.22379 11 7.43094 11 7.66667Z" fill="black"/>
<path d="M10.2463 11.1051C10.3043 11.3373 10.5396 11.4784 10.7718 11.4204C11.0039 11.3624 11.1451 11.1271 11.0871 10.8949C10.9245 10.2448 10.1187 9.23333 8.33333 9.23333C6.54799 9.23333 5.74214 10.2448 5.5796 10.8949C5.52156 11.1271 5.66272 11.3624 5.8949 11.4204C6.12708 11.4784 6.36235 11.3373 6.4204 11.1051C6.48008 10.8664 6.91868 10.1 8.33333 10.1C9.74799 10.1 10.1866 10.8664 10.2463 11.1051Z" fill="black"/>
<path fill-rule="evenodd" clip-rule="evenodd" d="M13.6667 8.33333C13.6667 11.2789 11.2789 13.6667 8.33333 13.6667C5.38781 13.6667 3 11.2789 3 8.33333C3 5.38781 5.38781 3 8.33333 3C11.2789 3 13.6667 5.38781 13.6667 8.33333ZM12.8 8.33333C12.8 10.8002 10.8002 12.8 8.33333 12.8C5.86646 12.8 3.86667 10.8002 3.86667 8.33333C3.86667 5.86646 5.86646 3.86667 8.33333 3.86667C10.8002 3.86667 12.8 5.86646 12.8 8.33333Z" fill="black"/>
</svg>
