<svg width="16" height="16" viewBox="0 0 16 16" fill="none" xmlns="http://www.w3.org/2000/svg">
<path d="M6.33333 8.33333C6.70152 8.33333 7 8.03486 7 7.66667C7 7.29848 6.70152 7 6.33333 7C5.96514 7 5.66667 7.29848 5.66667 7.66667C5.66667 8.03486 5.96514 8.33333 6.33333 8.33333Z" fill="black"/>
<path d="M11 7.66667C11 8.03486 10.7015 8.33333 10.3333 8.33333C9.96514 8.33333 9.66667 8.03486 9.66667 7.66667C9.66667 7.29848 9.96514 7 10.3333 7C10.7015 7 11 7.29848 11 7.66667Z" fill="black"/>
<path d="M6.52713 10.7209C7.12248 10.4232 8.7046 10.0034 10.1395 10.7209C10.3536 10.8279 10.6139 10.7412 10.7209 10.5271C10.8279 10.3131 10.7412 10.0528 10.5271 9.94575C8.76207 9.06322 6.87752 9.57676 6.13954 9.94575C5.92548 10.0528 5.83872 10.3131 5.94575 10.5271C6.05278 10.7412 6.31307 10.8279 6.52713 10.7209Z" fill="black"/>
<path fill-rule="evenodd" clip-rule="evenodd" d="M13.6667 8.33333C13.6667 11.2789 11.2789 13.6667 8.33333 13.6667C5.38781 13.6667 3 11.2789 3 8.33333C3 5.38781 5.38781 3 8.33333 3C11.2789 3 13.6667 5.38781 13.6667 8.33333ZM12.8 8.33333C12.8 10.8002 10.8002 12.8 8.33333 12.8C5.86646 12.8 3.86667 10.8002 3.86667 8.33333C3.86667 5.86646 5.86646 3.86667 8.33333 3.86667C10.8002 3.86667 12.8 5.86646 12.8 8.33333Z" fill="black"/>
</svg>
