<svg width="16" height="16" viewBox="0 0 16 16" fill="none" xmlns="http://www.w3.org/2000/svg">
<path fill-rule="evenodd" clip-rule="evenodd" d="M13.0937 3.57299C12.5898 3.06916 12.0286 2.94148 11.531 3.02248C11.067 3.09801 10.6894 3.34829 10.4705 3.56358L9.77456 4.18407L9.54423 3.95374C9.10272 3.51223 8.38268 3.52628 7.95874 3.98469L7.51823 4.46101C7.11706 4.89479 7.1302 5.56799 7.54799 5.98578L7.80851 6.2463L3.36071 11.0118C3.31597 11.0597 3.28637 11.1198 3.27559 11.1845L3.01072 12.7737C2.92423 13.2926 3.37412 13.7425 3.89305 13.656L5.48227 13.3911C5.54694 13.3804 5.60699 13.3507 5.65492 13.306L10.4204 8.85821L10.6441 9.08185C11.0856 9.52336 11.8056 9.5093 12.2296 9.0509L12.6701 8.57458C13.0712 8.1408 13.0581 7.46759 12.6403 7.0498L12.4083 6.81776L13.0849 6.21445L13.0937 6.20568C13.311 5.98832 13.5676 5.60643 13.6442 5.1357C13.7252 4.6381 13.5975 4.07683 13.0937 3.57299ZM8.42174 6.85952L9.8072 8.24499L5.32811 12.4255C5.23225 12.5149 5.11215 12.5741 4.98281 12.5957L4.34901 12.7013C4.12339 12.7389 3.92778 12.5433 3.96539 12.3177L4.07102 11.6839C4.09258 11.5546 4.15179 11.4345 4.24126 11.3386L8.42174 6.85952Z" fill="black"/>
</svg>
