<svg width="16" height="16" viewBox="0 0 16 16" fill="none" xmlns="http://www.w3.org/2000/svg">
<path d="M3 5.4334C3 5.19404 3.19407 5 3.43346 5H13.2332C13.4726 5 13.6667 5.19404 13.6667 5.4334C13.6667 5.67277 13.4726 5.86681 13.2332 5.86681H3.43346C3.19407 5.86681 3 5.67277 3 5.4334Z" fill="black"/>
<path d="M4.39992 8.33334C4.39992 8.09398 4.59399 7.89994 4.83339 7.89994H11.8332C12.0726 7.89994 12.2667 8.09398 12.2667 8.33334C12.2667 8.57271 12.0726 8.76675 11.8332 8.76675H4.83339C4.59399 8.76675 4.39992 8.57271 4.39992 8.33334Z" fill="black"/>
<path d="M6.23339 10.7999C5.99399 10.7999 5.79992 10.9939 5.79992 11.2333C5.79992 11.4726 5.99399 11.6667 6.23339 11.6667H10.4333C10.6727 11.6667 10.8667 11.4726 10.8667 11.2333C10.8667 10.9939 10.6727 10.7999 10.4333 10.7999H6.23339Z" fill="black"/>
</svg>
