<svg width="16" height="16" viewBox="0 0 16 16" fill="none" xmlns="http://www.w3.org/2000/svg">
<path fill-rule="evenodd" clip-rule="evenodd" d="M3.86687 11.3896C3.86687 11.2054 4.01614 11.0562 4.20028 11.0562H12.5282C13.4024 11.0562 14.0252 10.0794 13.4348 9.31894L11.7485 7.1467C11.692 7.07392 11.692 6.98224 11.7485 6.90946L13.4348 4.73721C14.0252 3.97675 13.4024 3 12.5282 3H4.13109C3.53349 3 3 3.46045 3 4.08701V13.237C3 13.4764 3.19406 13.6704 3.43343 13.6704C3.67281 13.6704 3.86687 13.4764 3.86687 13.237V11.3896ZM4.13109 3.86687C3.95808 3.86687 3.86687 3.99164 3.86687 4.08701V9.85588C3.86687 10.04 4.01614 10.1893 4.20028 10.1893H12.5282C12.6515 10.1893 12.7318 10.1273 12.7691 10.0587C12.8048 9.99309 12.8045 9.92059 12.7501 9.85053L11.0637 7.67828C10.7644 7.29271 10.7644 6.76344 11.0637 6.37787L12.7501 4.20562C12.8045 4.13556 12.8048 4.06306 12.7691 3.99743C12.7318 3.92885 12.6515 3.86687 12.5282 3.86687H4.13109Z" fill="black"/>
</svg>
