<svg width="16" height="16" viewBox="0 0 16 16" fill="none" xmlns="http://www.w3.org/2000/svg">
<path d="M2.73973 2.12692C2.5705 1.95769 2.29614 1.95769 2.12692 2.12692C1.95769 2.29614 1.95769 2.5705 2.12692 2.73973L13.2603 13.8731C13.4295 14.0423 13.7039 14.0423 13.8731 13.8731C14.0423 13.7039 14.0423 13.4295 13.8731 13.2603L2.73973 2.12692Z" fill="black"/>
<path d="M2.66665 12.901V3.99995L9.38743 10.7207H3.86662C3.68253 10.7207 3.53329 10.87 3.53329 11.0541V12.901C3.53329 13.1403 3.33929 13.3343 3.09997 13.3343C2.86065 13.3343 2.66665 13.1403 2.66665 12.901Z" fill="black"/>
<path d="M3.99995 2.66665L12.054 10.7207H12.1924C13.0664 10.7207 13.689 9.74423 13.0988 8.98396L11.4128 6.81228C11.3564 6.73952 11.3564 6.64786 11.4128 6.5751L13.0988 4.40341C13.689 3.64314 13.0664 2.66665 12.1924 2.66665H3.99995Z" fill="black"/>
</svg>
