<svg width="16" height="16" viewBox="0 0 16 16" fill="none" xmlns="http://www.w3.org/2000/svg">
<path fill-rule="evenodd" clip-rule="evenodd" d="M8.91385 8.78906C8.60678 8.52802 8.60678 8.06043 8.91385 7.7994L11.8964 5.26394C12.3283 4.89679 12.9999 5.19795 12.9999 5.75878L12.9999 10.8297C12.9999 11.3905 12.3283 11.6917 11.8964 11.3245L8.91385 8.78906ZM12.1329 10.3998L9.65602 8.29423L12.1329 6.18863L12.1329 10.3998Z" fill="black"/>
<path fill-rule="evenodd" clip-rule="evenodd" d="M6.41595 7.7994C6.72302 8.06043 6.72302 8.52802 6.41595 8.78906L3.43336 11.3245C3.00147 11.6917 2.32992 11.3905 2.32992 10.8297L2.32992 5.75878C2.32992 5.19795 3.00147 4.89679 3.43336 5.26394L6.41595 7.7994ZM3.19685 6.18863L5.67377 8.29423L3.19685 10.3998L3.19685 6.18863Z" fill="black"/>
<path d="M7.23141 13.2445C7.23141 13.4795 7.42548 13.67 7.66488 13.67C7.90428 13.67 8.09835 13.4795 8.09835 13.2445L8.09835 3.42549C8.09835 3.1905 7.90428 3 7.66488 3C7.42548 3 7.23141 3.1905 7.23141 3.42549L7.23141 13.2445Z" fill="black"/>
</svg>
