<svg width="16" height="16" viewBox="0 0 16 16" fill="none" xmlns="http://www.w3.org/2000/svg">
<path fill-rule="evenodd" clip-rule="evenodd" d="M8.78906 6.08603C8.52802 6.3931 8.06043 6.3931 7.7994 6.08603L5.26394 3.10345C4.89679 2.67155 5.19795 2 5.75878 2H10.8297C11.3905 2 11.6917 2.67155 11.3245 3.10345L8.78906 6.08603Z" fill="black"/>
<path fill-rule="evenodd" clip-rule="evenodd" d="M7.7994 8.58393C8.06043 8.27686 8.52802 8.27686 8.78906 8.58393L11.3245 11.5665C11.6917 11.9984 11.3905 12.67 10.8297 12.67H5.75878C5.19795 12.67 4.8968 11.9984 5.26395 11.5665L7.7994 8.58393Z" fill="black"/>
<path d="M13.2445 7.76847C13.4795 7.76847 13.67 7.5744 13.67 7.335C13.67 7.0956 13.4795 6.90153 13.2445 6.90153L3.42549 6.90153C3.1905 6.90153 3 7.0956 3 7.335C3 7.5744 3.1905 7.76847 3.42549 7.76847H13.2445Z" fill="black"/>
</svg>
