<svg width="16" height="16" viewBox="0 0 16 16" fill="none" xmlns="http://www.w3.org/2000/svg">
<path fill-rule="evenodd" clip-rule="evenodd" d="M4.33333 3C3.59695 3 3 3.59695 3 4.33333V12.3333C3 13.0697 3.59695 13.6667 4.33333 13.6667H12.3333C13.0697 13.6667 13.6667 13.0697 13.6667 12.3333V4.33333C13.6667 3.59695 13.0697 3 12.3333 3H4.33333ZM5 4.73333C4.76068 4.73333 4.56667 4.92734 4.56667 5.16667C4.56667 5.40599 4.76068 5.6 5 5.6H11.6667C11.906 5.6 12.1 5.40599 12.1 5.16667C12.1 4.92734 11.906 4.73333 11.6667 4.73333H5ZM8.33333 7.23333C8.09401 7.23333 7.9 7.42734 7.9 7.66667C7.9 7.90599 8.09401 8.1 8.33333 8.1H11.6667C11.906 8.1 12.1 7.90599 12.1 7.66667C12.1 7.42734 11.906 7.23333 11.6667 7.23333H8.33333ZM8.33333 10.2333C8.09401 10.2333 7.9 10.4273 7.9 10.6667C7.9 10.906 8.09401 11.1 8.33333 11.1H11.6667C11.906 11.1 12.1 10.906 12.1 10.6667C12.1 10.4273 11.906 10.2333 11.6667 10.2333H8.33333ZM6 12C6.73638 12 7.33333 11.403 7.33333 10.6667C7.33333 9.93029 6.73638 9.33333 6 9.33333C5.26362 9.33333 4.66667 9.93029 4.66667 10.6667C4.66667 11.403 5.26362 12 6 12ZM6.46667 10.6667C6.46667 10.9244 6.25773 11.1333 6 11.1333C5.74227 11.1333 5.53333 10.9244 5.53333 10.6667C5.53333 10.4089 5.74227 10.2 6 10.2C6.25773 10.2 6.46667 10.4089 6.46667 10.6667ZM6 9C6.73638 9 7.33333 8.40305 7.33333 7.66667C7.33333 6.93029 6.73638 6.33333 6 6.33333C5.26362 6.33333 4.66667 6.93029 4.66667 7.66667C4.66667 8.40305 5.26362 9 6 9ZM6.46667 7.66667C6.46667 7.9244 6.25773 8.13333 6 8.13333C5.74227 8.13333 5.53333 7.9244 5.53333 7.66667C5.53333 7.40893 5.74227 7.2 6 7.2C6.25773 7.2 6.46667 7.40893 6.46667 7.66667Z" fill="black"/>
</svg>
