<svg width="16" height="16" viewBox="0 0 16 16" fill="none" xmlns="http://www.w3.org/2000/svg">
<path fill-rule="evenodd" clip-rule="evenodd" d="M12.9803 3.97703C11.8794 2.67811 9.92416 2.67365 8.81774 3.96773L8.96749 4.0979C9.24201 4.33652 9.2746 4.75113 9.04074 5.0297L8.82612 5.28535L8.0855 6.13178C8.02163 6.20477 8.03333 6.31667 8.11093 6.37486L8.71144 6.82525C9.036 7.06867 9.06972 7.54311 8.78284 7.82998L7.63975 8.97308C7.47052 9.14231 7.19615 9.14231 7.02692 8.97308C6.85769 8.80385 6.85769 8.52948 7.02692 8.36025L7.87107 7.5161C7.94279 7.44438 7.93436 7.32577 7.85322 7.26492L7.27462 6.83096C6.96425 6.59819 6.91743 6.1506 7.1729 5.85863L7.76463 5.18236L8.23808 4.64285C8.29273 4.58056 8.29333 4.48759 8.23948 4.42461L7.84888 3.96775C6.74246 2.67367 4.78723 2.67814 3.68634 3.97708C2.73023 5.10519 2.77819 6.80527 3.79809 7.87376L7.86181 12.1311C8.11924 12.4008 8.54737 12.4008 8.80481 12.1311L12.8686 7.87383C13.8885 6.8053 13.9364 5.10516 12.9803 3.97703Z" fill="black"/>
</svg>
