<svg width="16" height="16" viewBox="0 0 16 16" fill="none" xmlns="http://www.w3.org/2000/svg">
<path d="M13.0887 5.98407L9.08871 3.23457C8.6337 2.92181 8.03297 2.92181 7.57796 3.23457L3.57796 5.98407C3.21616 6.23276 3 6.6436 3 7.08259V11.7137C3 12.8181 3.89543 13.7133 5 13.7133H6.66667C7.03486 13.7133 7.33333 13.4149 7.33333 13.0468V11.0472C7.33333 10.679 7.63181 10.3806 8 10.3806H8.66667C9.03486 10.3806 9.33333 10.679 9.33333 11.0472V13.0468C9.33333 13.4149 9.63181 13.7133 10 13.7133H11.6667C12.7712 13.7133 13.6667 12.8181 13.6667 11.7137V7.08259C13.6667 6.6436 13.4505 6.23276 13.0887 5.98407Z" fill="black"/>
</svg>
