<svg width="16" height="16" viewBox="0 0 16 16" fill="none" xmlns="http://www.w3.org/2000/svg">
<path d="M12.5977 6.6981L8.59771 3.94861C8.43846 3.83914 8.2282 3.83914 8.06895 3.94861L4.06895 6.6981L3.57796 5.98407L7.57796 3.23457C8.03297 2.92181 8.6337 2.92181 9.08871 3.23457L13.0887 5.98407C13.4505 6.23276 13.6667 6.6436 13.6667 7.08259V11.7137C13.6667 12.8181 12.7712 13.7133 11.6667 13.7133H10C9.63181 13.7133 9.33333 13.4149 9.33333 13.0468V11.0472C9.33333 10.679 9.03486 10.3806 8.66667 10.3806H8C7.63181 10.3806 7.33333 10.679 7.33333 11.0472V13.0468C7.33333 13.4149 7.03486 13.7133 6.66667 13.7133H5C3.89543 13.7133 3 12.8181 3 11.7137V7.08259C3 6.6436 3.21616 6.23276 3.57796 5.98407L4.06895 6.6981C3.94232 6.78515 3.86667 6.92894 3.86667 7.08259V11.7137C3.86667 12.3395 4.37408 12.8468 5 12.8468H6.46667V11.0472C6.46667 10.2005 7.15316 9.5141 8 9.5141H8.66667C9.5135 9.5141 10.2 10.2005 10.2 11.0472V12.8468H11.6667C12.2926 12.8468 12.8 12.3395 12.8 11.7137V7.08259C12.8 6.92894 12.7243 6.78515 12.5977 6.6981Z" fill="black"/>
</svg>
