<svg width="16" height="16" viewBox="0 0 16 16" fill="none" xmlns="http://www.w3.org/2000/svg">
<path fill-rule="evenodd" clip-rule="evenodd" d="M9.09061 3.2345L13.0919 5.98314C13.4538 6.23176 13.67 6.64247 13.67 7.08132V11.711C13.67 12.815 12.7743 13.71 11.6694 13.71H5.00062C3.89571 13.71 3 12.815 3 11.711V7.08132C3 6.64247 3.21622 6.23176 3.57814 5.98314L7.57939 3.23449C8.03454 2.92183 8.63546 2.92184 9.09061 3.2345ZM6.40343 9.44781C6.35922 9.40363 6.33437 9.34371 6.33437 9.28122C6.33437 9.15111 6.43994 9.04564 6.57015 9.04564C6.63268 9.04564 6.69265 9.07046 6.73687 9.11464L7.66813 10.0451L10.2689 8.09611C10.2899 8.08043 10.313 8.06823 10.3374 8.05981C10.3635 8.05081 10.391 8.04613 10.419 8.04613C10.5571 8.04613 10.6691 8.15801 10.6691 8.29601V8.31384C10.6691 8.35514 10.65 8.39413 10.6173 8.41949L7.90047 10.5309C7.76774 10.6341 7.57889 10.6223 7.45999 10.5035L6.40343 9.44781Z" fill="black"/>
</svg>
