<svg width="16" height="16" viewBox="0 0 16 16" fill="none" xmlns="http://www.w3.org/2000/svg">
<path fill-rule="evenodd" clip-rule="evenodd" d="M4.05427 3C3.20686 3 2.7069 3.90303 3.187 4.56653L5.50264 7.76681C5.74955 8.10806 5.74955 8.55862 5.50264 8.89987L3.187 12.1002C2.7069 12.7637 3.20686 13.6667 4.05427 13.6667H11.2791C12.1265 13.6667 12.6264 12.7637 12.1463 12.1002L9.83069 8.89987C9.58378 8.55862 9.58378 8.10806 9.83069 7.76681L12.1463 4.56653C12.6264 3.90303 12.1265 3 11.2791 3H4.05427ZM8.39673 10.6777C7.95329 10.3876 7.38004 10.3876 6.9366 10.6777L4.6704 12.1605C4.53181 12.2512 4.59602 12.4667 4.76167 12.4667H10.5717C10.7373 12.4667 10.8015 12.2512 10.6629 12.1605L8.39673 10.6777Z" fill="black"/>
</svg>
