<svg width="16" height="16" viewBox="0 0 16 16" fill="none" xmlns="http://www.w3.org/2000/svg">
<path d="M8.86857 9.50286C8.35091 8.80583 8.34208 7.85443 8.84672 7.14792L9.2902 6.52709C9.44776 6.30646 9.29008 6.00001 9.01892 6.00001H6.31441C6.04329 6.00001 5.88558 6.30646 6.04317 6.52709L6.48661 7.14792C6.99125 7.85443 6.98242 8.80584 6.46476 9.50286L4.61193 11.9977C4.44429 12.217 4.6007 12.5334 4.87679 12.5334H10.4565C10.7326 12.5334 10.889 12.217 10.7214 11.9977L8.86857 9.50286Z" fill="black"/>
<path fill-rule="evenodd" clip-rule="evenodd" d="M3.187 4.56653C2.7069 3.90303 3.20686 3 4.05427 3H11.2791C12.1265 3 12.6264 3.90303 12.1463 4.56653L9.83069 7.76681C9.58378 8.10806 9.58378 8.55862 9.83069 8.89987L12.1463 12.1002C12.6264 12.7637 12.1265 13.6667 11.2791 13.6667H4.05427C3.20686 13.6667 2.7069 12.7637 3.187 12.1002L5.50264 8.89987C5.74955 8.55862 5.74955 8.10806 5.50264 7.76681L3.187 4.56653ZM4.05427 3.86667H11.2791C11.3777 3.86667 11.4292 3.91257 11.4523 3.95423C11.4646 3.97636 11.4671 3.99456 11.4666 4.00583C11.4663 4.01352 11.4646 4.03025 11.4442 4.05848L9.12858 7.25877C8.66227 7.9032 8.66227 8.76349 9.12858 9.40792L11.4442 12.6082C11.4533 12.6207 11.4587 12.631 11.4619 12.6392C11.4659 12.6495 11.4664 12.6566 11.4666 12.6609C11.4669 12.6671 11.4662 12.6754 11.4635 12.6854C11.4614 12.6934 11.4578 12.7025 11.4523 12.7125C11.4292 12.7541 11.3777 12.8 11.2791 12.8H4.05427C3.9556 12.8 3.90409 12.7541 3.88102 12.7125C3.86877 12.6903 3.86625 12.6721 3.86673 12.6609C3.86702 12.6532 3.86869 12.6364 3.88911 12.6082L6.20475 9.40792C6.67106 8.76349 6.67106 7.9032 6.20475 7.25877L3.88911 4.05848C3.86869 4.03025 3.86702 4.01352 3.86673 4.00583C3.86625 3.99456 3.86877 3.97636 3.88102 3.95423C3.90409 3.91257 3.9556 3.86667 4.05427 3.86667Z" fill="black"/>
</svg>
