<svg width="16" height="16" viewBox="0 0 16 16" fill="none" xmlns="http://www.w3.org/2000/svg">
<path fill-rule="evenodd" clip-rule="evenodd" d="M8.04092 8.52001L3.36145 6.33768C2.87952 6.11293 2.87952 5.47146 3.36145 5.24671L8.04092 3.06439C8.225 2.97854 8.44167 2.97854 8.62575 3.06439L13.3052 5.24671C13.7871 5.47146 13.7871 6.11293 13.3052 6.33768L8.62575 8.52001C8.44167 8.60585 8.225 8.60585 8.04092 8.52001ZM8.30084 7.65632C8.3213 7.66586 8.34537 7.66586 8.36582 7.65632L12.233 5.85281C12.2866 5.82783 12.2866 5.75656 12.233 5.73159L8.36582 3.92807C8.34537 3.91854 8.3213 3.91854 8.30084 3.92807L4.43364 5.73159C4.38009 5.75656 4.38009 5.82783 4.43364 5.85281L8.30084 7.65632Z" fill="black"/>
<path d="M4.28557 7.52628L3.36145 7.95725C2.87952 8.18201 2.87952 8.82348 3.36145 9.04823L8.04092 11.2306C8.225 11.3164 8.44167 11.3164 8.62575 11.2306L13.3052 9.04823C13.7871 8.82348 13.7871 8.18201 13.3052 7.95725L12.3811 7.52628L11.3251 8.01873L12.233 8.44213C12.2866 8.4671 12.2866 8.53838 12.233 8.56335L8.36582 10.3669C8.34537 10.3764 8.3213 10.3764 8.30084 10.3669L4.43364 8.56335C4.38009 8.53838 4.38009 8.4671 4.43364 8.44213L5.34152 8.01873L4.28557 7.52628Z" fill="black"/>
<path d="M3.92231 10.0674L4.97826 10.5599L4.43364 10.8139C4.38009 10.8388 4.38009 10.9101 4.43364 10.9351L8.30084 12.7386C8.3213 12.7481 8.34537 12.7481 8.36582 12.7386L12.233 10.9351C12.2866 10.9101 12.2866 10.8388 12.233 10.8139L11.6884 10.5599L12.7444 10.0674L13.3052 10.329C13.7871 10.5537 13.7871 11.1952 13.3052 11.42L8.62575 13.6023C8.44167 13.6881 8.225 13.6881 8.04092 13.6023L3.36145 11.42C2.87952 11.1952 2.87952 10.5537 3.36145 10.329L3.92231 10.0674Z" fill="black"/>
</svg>
