<svg width="16" height="16" viewBox="0 0 16 16" fill="none" xmlns="http://www.w3.org/2000/svg">
<path d="M13.0195 11.333C13.0195 11.3365 13.019 11.3388 13.0186 11.3398C13.0179 11.3413 13.0165 11.3429 13.0146 11.3447C13.0128 11.3466 13.0113 11.348 13.0098 11.3486C13.0086 11.3491 13.0065 11.3496 13.0029 11.3496H3.66699C3.66343 11.3496 3.66129 11.3491 3.66016 11.3486C3.65866 11.3479 3.6571 11.3465 3.65527 11.3447C3.65344 11.3429 3.65204 11.3413 3.65137 11.3398C3.65091 11.3388 3.65039 11.3365 3.65039 11.333V5.8418L7.28516 8.56641C7.90744 9.03295 8.76247 9.03293 9.38477 8.56641L13.0195 5.8418V11.333ZM10.9961 4.65039L8.33496 6.64551L5.67383 4.65039H10.9961Z" fill="black" stroke="black" stroke-width="1.3"/>
</svg>
