<svg width="16" height="16" viewBox="0 0 16 16" fill="none" xmlns="http://www.w3.org/2000/svg">
<path fill-rule="evenodd" clip-rule="evenodd" d="M3 4.66667C3 4.29848 3.29848 4 3.66667 4H13C13.3682 4 13.6667 4.29848 13.6667 4.66667V11.3333C13.6667 11.7015 13.3682 12 13 12H3.66667C3.29848 12 3 11.7015 3 11.3333V4.66667ZM3.86667 5.34205V11.1333H12.8V5.34205L8.9727 8.07584C8.59023 8.34903 8.07644 8.34903 7.69397 8.07584L3.86667 5.34205ZM11.9745 4.86667H4.6922L8.19771 7.3706C8.27884 7.42855 8.38783 7.42855 8.46896 7.3706L11.9745 4.86667Z" fill="black"/>
</svg>
