<svg width="16" height="16" viewBox="0 0 16 16" fill="none" xmlns="http://www.w3.org/2000/svg">
<path fill-rule="evenodd" clip-rule="evenodd" d="M12.6582 9.86794C12.0903 10.1351 11.4561 10.2844 10.7869 10.2844C8.35617 10.2844 6.38563 8.31384 6.38563 5.88306C6.38563 5.21394 6.53494 4.5797 6.80206 4.01183C6.82847 3.9557 6.85602 3.90022 6.8847 3.84541C6.96854 3.68518 7.06196 3.53076 7.16419 3.3829C7.18748 3.34922 7.21123 3.31587 7.23543 3.28288C7.33044 3.15333 7.22302 2.96555 7.0674 3.00546C7.01599 3.01864 6.96488 3.03256 6.91407 3.0472C6.73651 3.09837 6.56271 3.15838 6.39315 3.22671C6.31638 3.25766 6.24047 3.29031 6.16549 3.32462C4.29767 4.17932 3 6.06461 3 8.253C3 11.2447 5.42528 13.67 8.41701 13.67C10.6054 13.67 12.4907 12.3723 13.3454 10.5045C13.3797 10.4295 13.4123 10.3536 13.4433 10.2769C13.5116 10.1073 13.5716 9.93349 13.6228 9.75594C13.6374 9.70513 13.6514 9.65401 13.6645 9.6026C13.7045 9.44698 13.5167 9.33957 13.3871 9.43458C13.3541 9.45877 13.3208 9.48252 13.2871 9.50581C13.1392 9.60805 12.9848 9.70146 12.8246 9.7853C12.7698 9.81398 12.7143 9.84153 12.6582 9.86794ZM12.0114 11.0218C11.6182 11.1152 11.2082 11.1646 10.7869 11.1646C7.87001 11.1646 5.50537 8.79999 5.50537 5.88306C5.50537 5.46182 5.55481 5.05179 5.64821 4.65862C4.57277 5.48849 3.88026 6.7904 3.88026 8.253C3.88026 10.7586 5.91143 12.7897 8.41701 12.7897C9.8796 12.7897 11.1815 12.0972 12.0114 11.0218Z" fill="black"/>
</svg>
