<svg width="16" height="16" viewBox="0 0 16 16" fill="none" xmlns="http://www.w3.org/2000/svg">
<path fill-rule="evenodd" clip-rule="evenodd" d="M13.6667 8.33333C13.6667 11.2789 11.2789 13.6667 8.33333 13.6667C5.38781 13.6667 3 11.2789 3 8.33333C3 5.38781 5.38781 3 8.33333 3C11.2789 3 13.6667 5.38781 13.6667 8.33333ZM12.8 8.33333C12.8 10.8002 10.8002 12.8 8.33333 12.8C5.86646 12.8 3.86667 10.8002 3.86667 8.33333C3.86667 5.86646 5.86646 3.86667 8.33333 3.86667C10.8002 3.86667 12.8 5.86646 12.8 8.33333Z" fill="black"/>
<path d="M7.76918 6.98077C7.67398 7.09852 7.64096 7.247 7.64096 7.33333C7.64096 7.57266 7.44695 7.76667 7.20763 7.76667C6.9683 7.76667 6.77429 7.57266 6.77429 7.33333C6.77429 7.08633 6.85356 6.73481 7.09522 6.4359C7.35179 6.11855 7.76011 5.9 8.3305 5.9C8.90059 5.9 9.289 6.11661 9.5336 6.35864C9.65179 6.47559 9.73124 6.59309 9.78211 6.68369C9.80766 6.7292 9.82644 6.76871 9.83961 6.79913C9.84622 6.81438 9.85146 6.82744 9.85547 6.83796L9.86061 6.85182L9.86253 6.85726L9.86333 6.85959L9.8637 6.86066L9.86404 6.86166C9.86884 6.87591 9.87289 6.89039 9.87618 6.90505C9.95008 7.23409 9.98112 7.75065 9.78709 8.21021C9.68649 8.4485 9.52182 8.67836 9.26731 8.84615C9.01283 9.01394 8.69837 9.1 8.3305 9.1C7.89343 9.1 7.64973 9.29029 7.49663 9.527C7.42163 9.64297 7.36779 9.77264 7.33116 9.9H9.45338C9.6927 9.9 9.88671 10.094 9.88671 10.3333C9.88671 10.5727 9.6927 10.7667 9.45338 10.7667H6.83333C6.59401 10.7667 6.4 10.5727 6.4 10.3333C6.4 9.99494 6.48798 9.49068 6.76891 9.05633C7.06496 8.5986 7.56984 8.23333 8.3305 8.23333C8.5615 8.23333 8.70243 8.18051 8.79027 8.1226C8.87809 8.06469 8.94267 7.98206 8.98867 7.87312C9.08285 7.65004 9.08182 7.35308 9.0379 7.12975C9.03494 7.12375 9.03113 7.11641 9.0264 7.10798C9.00708 7.07357 8.97425 7.02441 8.92401 6.97469C8.83175 6.88339 8.65872 6.76667 8.3305 6.76667C8.00259 6.76667 7.84948 6.88145 7.76918 6.98077Z" fill="black"/>
</svg>
