<svg width="16" height="16" viewBox="0 0 16 16" fill="none" xmlns="http://www.w3.org/2000/svg">
<path fill-rule="evenodd" clip-rule="evenodd" d="M8.42371 6.0908C8.47386 5.85678 8.32481 5.62643 8.0908 5.57629C7.85678 5.52614 7.62643 5.67519 7.57629 5.9092L7.33152 7.05145H6C5.76068 7.05145 5.56667 7.24546 5.56667 7.48479C5.56667 7.72411 5.76068 7.91812 6 7.91812H7.1458L6.98302 8.67778H6C5.76068 8.67778 5.56667 8.87179 5.56667 9.11111C5.56667 9.35043 5.76068 9.54444 6 9.54444H6.79731L6.57629 10.5759C6.52614 10.8099 6.67519 11.0402 6.9092 11.0904C7.14322 11.1405 7.37357 10.9915 7.42371 10.7575L7.68365 9.54444H8.46397L8.24295 10.5759C8.19281 10.8099 8.34186 11.0402 8.57587 11.0904C8.80988 11.1405 9.04024 10.9915 9.09038 10.7575L9.35031 9.54444H10.6667C10.906 9.54444 11.1 9.35043 11.1 9.11111C11.1 8.87179 10.906 8.67778 10.6667 8.67778H9.53603L9.69881 7.91812H10.6667C10.906 7.91812 11.1 7.72411 11.1 7.48479C11.1 7.24546 10.906 7.05145 10.6667 7.05145H9.88453L10.0904 6.0908C10.1405 5.85678 9.99147 5.62643 9.75746 5.57629C9.52345 5.52614 9.2931 5.67519 9.24295 5.9092L8.99819 7.05145H8.21786L8.42371 6.0908ZM8.64969 8.67778H7.86936L8.03215 7.91812H8.81247L8.64969 8.67778Z" fill="black"/>
<path fill-rule="evenodd" clip-rule="evenodd" d="M3 4.33333C3 3.59695 3.59695 3 4.33333 3H12.3333C13.0697 3 13.6667 3.59695 13.6667 4.33333V12.3333C13.6667 13.0697 13.0697 13.6667 12.3333 13.6667H4.33333C3.59695 13.6667 3 13.0697 3 12.3333V4.33333ZM4.33333 3.86667H12.3333C12.5911 3.86667 12.8 4.0756 12.8 4.33333V12.3333C12.8 12.5911 12.5911 12.8 12.3333 12.8H4.33333C4.0756 12.8 3.86667 12.5911 3.86667 12.3333V4.33333C3.86667 4.0756 4.0756 3.86667 4.33333 3.86667Z" fill="black"/>
</svg>
