<svg width="16" height="16" viewBox="0 0 16 16" fill="none" xmlns="http://www.w3.org/2000/svg">
<path d="M3.43335 3C3.19401 3 3 3.19401 3 3.43333V5.23334C3 5.47266 3.19401 5.66667 3.43335 5.66667C3.67265 5.66667 3.86666 5.47266 3.86666 5.23334V3.43333C3.86666 3.19401 3.67265 3 3.43335 3Z" fill="black"/>
<path d="M12.8 3.43333C12.8 3.19401 12.994 3 13.2334 3C13.4727 3 13.6667 3.19401 13.6667 3.43333V13.2333C13.6667 13.4727 13.4727 13.6667 13.2334 13.6667C12.994 13.6667 12.8 13.4727 12.8 13.2333V3.43333Z" fill="black"/>
<path d="M6.20711 8.76666C6.14771 8.76666 6.11796 8.83847 6.15995 8.88047L8.33333 11.0538C8.50256 11.2231 8.50256 11.4974 8.33333 11.6667C8.1641 11.8359 7.88973 11.8359 7.7205 11.6667L4.85856 8.80474C4.59823 8.54438 4.59823 8.12227 4.85856 7.86193L7.7205 5C7.88973 4.83077 8.1641 4.83077 8.33333 5C8.50256 5.16922 8.50256 5.44359 8.33333 5.61282L6.15995 7.78619C6.11796 7.82819 6.14771 7.89999 6.20711 7.89999H11.2333C11.4727 7.89999 11.6667 8.094 11.6667 8.33333C11.6667 8.57265 11.4727 8.76666 11.2333 8.76666H6.20711Z" fill="black"/>
<path d="M3 11.4333C3 11.194 3.19401 11 3.43335 11C3.67265 11 3.86666 11.194 3.86666 11.4333V13.2333C3.86666 13.4727 3.67265 13.6667 3.43335 13.6667C3.19401 13.6667 3 13.4727 3 13.2333V11.4333Z" fill="black"/>
<path d="M3.43335 6.33333C3.19401 6.33333 3 6.52734 3 6.76666V9.9C3 10.1393 3.19401 10.3333 3.43335 10.3333C3.67265 10.3333 3.86666 10.1393 3.86666 9.9V6.76666C3.86666 6.52734 3.67265 6.33333 3.43335 6.33333Z" fill="black"/>
</svg>
