<svg width="16" height="16" viewBox="0 0 16 16" fill="none" xmlns="http://www.w3.org/2000/svg">
<path d="M2.73973 2.12692C2.5705 1.95769 2.29614 1.95769 2.12692 2.12692C1.95769 2.29614 1.95769 2.5705 2.12692 2.73973L13.2603 13.8731C13.4295 14.0423 13.7039 14.0423 13.8731 13.8731C14.0423 13.7039 14.0423 13.4295 13.8731 13.2603L2.73973 2.12692Z" fill="black"/>
<path d="M3.23711 10.2983L6.10107 7.43438L6.74379 8.07709L3.87982 10.9411C3.84238 10.9785 3.8181 11.0271 3.81061 11.0795L3.65863 12.1433C3.64215 12.2587 3.74103 12.3575 3.85639 12.3411L4.92021 12.1891C4.97263 12.1816 5.0212 12.1573 5.05864 12.1199L7.92261 9.25591L8.56532 9.89862L5.70136 12.7626C5.52485 12.9391 5.29586 13.0536 5.04876 13.0889L3.38507 13.3266C2.96978 13.3859 2.61382 13.0299 2.67314 12.6146L2.91081 10.9509C2.94611 10.7038 3.06061 10.4748 3.23711 10.2983Z" fill="black"/>
<path d="M7.43437 6.10108L8.07709 6.74379L11.0012 3.81972C11.3267 3.4942 11.8545 3.4942 12.18 3.81972C12.5055 4.14525 12.5055 4.67302 12.18 4.99854L9.25591 7.92261L9.89862 8.56532L11.3857 7.07827C11.4545 7.00947 11.5662 7.01009 11.6342 7.07964L11.7413 7.18907C11.8082 7.25754 11.8076 7.36717 11.7399 7.43489L10.4038 8.77101C10.3497 8.82508 10.3121 8.88939 10.291 8.9577L10.8598 9.52652C10.9281 9.50539 10.9924 9.4678 11.0465 9.41372L12.8227 7.63754C12.9988 7.46145 13.0004 7.17643 12.8262 6.9984L12.1534 6.31054L12.8227 5.64126C13.5032 4.96077 13.5032 3.85749 12.8227 3.17701C12.1422 2.49653 11.0389 2.49653 10.3584 3.17701L7.43437 6.10108Z" fill="black"/>
</svg>
