<svg width="16" height="16" viewBox="0 0 16 16" fill="none" xmlns="http://www.w3.org/2000/svg">
<path fill-rule="evenodd" clip-rule="evenodd" d="M4.75648 6.239C4.89015 6.08835 5.08221 6 5.28638 6H10.047C10.2511 6 10.4432 6.08835 10.5769 6.239L12.0067 7.85049C12.728 8.66339 12.1842 10.0014 11.0652 10.0014H4.26817C3.1491 10.0014 2.60536 8.66339 3.32664 7.85049L4.75648 6.239ZM5.65784 6.86655C5.46723 6.86655 5.28574 6.94815 5.15924 7.09073L3.97482 8.42561C3.72151 8.71111 3.93841 9.13483 4.26817 9.13483H11.0652C11.3949 9.13483 11.6118 8.71111 11.3585 8.42561L10.1741 7.09073C10.0476 6.94815 9.8661 6.86655 9.67549 6.86655H5.65784Z" fill="black"/>
</svg>
