<svg width="16" height="16" viewBox="0 0 16 16" fill="none" xmlns="http://www.w3.org/2000/svg">
<path fill-rule="evenodd" clip-rule="evenodd" d="M5.32141 6.21622C5.46443 6.07755 5.65581 6 5.85502 6H10.8116C11.0109 6 11.2022 6.07755 11.3453 6.21622L13.4337 8.24111C13.5826 8.38549 13.6667 8.58405 13.6667 8.79147V9.90075C13.6667 10.3241 13.3235 10.6673 12.9001 10.6673H3.76657C3.34321 10.6673 3 10.3241 3 9.90075V8.79147C3 8.58405 3.08405 8.38549 3.23296 8.24111L5.32141 6.21622ZM6.04666 7.90038C5.80736 7.90038 5.61338 8.09437 5.61338 8.33367C5.61338 8.57296 5.80736 8.76695 6.04666 8.76695H10.62C10.8593 8.76695 11.0533 8.57296 11.0533 8.33367C11.0533 8.09437 10.8593 7.90038 10.62 7.90038H6.04666Z" fill="black"/>
</svg>
