<svg width="16" height="16" viewBox="0 0 16 16" fill="none" xmlns="http://www.w3.org/2000/svg">
<path d="M7.41003 6.86762C7.42236 6.78498 7.44572 6.70398 7.4797 6.62687C7.54846 6.47105 7.65828 6.3367 7.79716 6.23883C7.93616 6.14094 8.09941 6.08276 8.26872 6.07099C8.43803 6.05922 8.60742 6.09409 8.7585 6.17182C8.90946 6.24956 9.03682 6.36733 9.12626 6.51219C9.21566 6.65706 9.26428 6.824 9.26652 6.99445C9.2688 7.16491 9.22481 7.33276 9.13928 7.47997C9.06458 7.60848 8.96049 7.71733 8.83626 7.79722L8.83386 7.79807C8.81694 7.80787 8.80025 7.81804 8.78381 7.82856L8.78198 7.82957L8.78052 7.83038C8.67432 7.89876 8.57874 7.98197 8.49613 8.07688C8.43815 8.14355 8.3866 8.21611 8.34249 8.29361C8.29838 8.37113 8.26213 8.45288 8.23438 8.53693C8.19185 8.66568 8.16886 8.80059 8.16667 8.93711L8.16646 8.95894V9.74214C8.16646 9.85329 8.25602 9.9434 8.3665 9.9434C8.47697 9.9434 8.56653 9.85329 8.56653 9.74214V8.96938C8.56474 8.80272 8.60718 8.63855 8.68941 8.49383C8.76298 8.36449 8.86621 8.25453 8.98991 8.1734C9.11287 8.10348 9.22347 8.01465 9.31799 7.91059C9.38094 7.84129 9.43677 7.76522 9.48429 7.68349C9.60665 7.47307 9.66976 7.23278 9.66654 6.9891C9.66333 6.7454 9.59404 6.5072 9.46615 6.30014C9.3383 6.09323 9.15654 5.92491 8.9408 5.81391C8.72506 5.70298 8.48299 5.65307 8.24125 5.66985C7.99947 5.68666 7.76676 5.76936 7.56824 5.90907C7.36975 6.04886 7.21261 6.24061 7.11426 6.46327C7.06889 6.56612 7.03666 6.67412 7.01819 6.78407C7.01249 6.81805 7.0081 6.85226 7.005 6.8866C7.00244 6.91528 7.00077 6.94407 7.00004 6.9729C6.99723 7.08399 7.0988 7.16248 7.20842 7.14867C7.29769 7.13742 7.36434 7.06808 7.39136 6.98292C7.39453 6.97294 7.39714 6.96275 7.39917 6.95241C7.40112 6.94265 7.40255 6.93274 7.40344 6.92276C7.40511 6.90432 7.40731 6.88594 7.41003 6.86762Z" fill="black"/>
<path d="M8.66654 10.7065C8.66654 10.8686 8.53593 11 8.37484 11C8.21375 11 8.08313 10.8686 8.08313 10.7065C8.08313 10.5444 8.21375 10.413 8.37484 10.413C8.53593 10.413 8.66654 10.5444 8.66654 10.7065Z" fill="black"/>
<path fill-rule="evenodd" clip-rule="evenodd" d="M13.6667 8.33333C13.6667 11.2788 11.2788 13.6667 8.33333 13.6667C5.38782 13.6667 3 11.2788 3 8.33333C3 5.38782 5.38782 3 8.33333 3C11.2788 3 13.6667 5.38782 13.6667 8.33333ZM12.8 8.33333C12.8 10.8002 10.8002 12.8 8.33333 12.8C5.86646 12.8 3.86666 10.8002 3.86666 8.33333C3.86666 5.86647 5.86646 3.86667 8.33333 3.86667C10.8002 3.86667 12.8 5.86647 12.8 8.33333Z" fill="black"/>
</svg>
