<svg width="16" height="16" viewBox="0 0 16 16" fill="none" xmlns="http://www.w3.org/2000/svg">
<path fill-rule="evenodd" clip-rule="evenodd" d="M4.33333 4C3.59695 4 3 4.58919 3 5.31599V9.26397C3 9.84105 3.37634 10.3314 3.9 10.5089V11.4003C3.9 11.7317 4.16863 12.0003 4.5 12.0003H7.53695C7.81158 12.0003 8.05115 11.8138 8.11858 11.5476L8.33333 10.6998L8.54808 11.5476C8.61551 11.8138 8.85509 12.0003 9.12971 12.0003H12.1667C12.498 12.0003 12.7667 11.7317 12.7667 11.4003V10.5089C13.2903 10.3314 13.6667 9.84105 13.6667 9.26397V5.31599C13.6667 4.58919 13.0697 4 12.3333 4H4.33333ZM11.9 10.58H9.19702L9.33726 11.1336H11.9V10.58ZM4.76667 11.1336V10.58H7.46965L7.32941 11.1336H4.76667ZM5.66667 5.54066C5.05915 5.54066 4.56667 6.03314 4.56667 6.64066V7.93931C4.56667 8.54682 5.05915 9.03931 5.66667 9.03931H11C11.6075 9.03931 12.1 8.54682 12.1 7.93931V6.64066C12.1 6.03314 11.6075 5.54066 11 5.54066H5.66667ZM5.66667 6.40732C5.5378 6.40732 5.43333 6.51179 5.43333 6.64066V7.93931C5.43333 8.06818 5.5378 8.17264 5.66667 8.17264H6.23333V6.40732H5.66667ZM7.1 6.40732V8.17264H7.9V6.40732H7.1ZM8.76667 6.40732V8.17264H9.56667V6.40732H8.76667ZM10.4333 6.40732V8.17264H11C11.1289 8.17264 11.2333 8.06818 11.2333 7.93931V6.64066C11.2333 6.51179 11.1289 6.40732 11 6.40732H10.4333Z" fill="black"/>
</svg>
