<svg width="16" height="16" viewBox="0 0 16 16" fill="none" xmlns="http://www.w3.org/2000/svg">
<path fill-rule="evenodd" clip-rule="evenodd" d="M4.33333 3C3.59695 3 3 3.59695 3 4.33333V12.3333C3 13.0697 3.59695 13.6667 4.33333 13.6667H12.3333C13.0697 13.6667 13.6667 13.0697 13.6667 12.3333V4.33333C13.6667 3.59695 13.0697 3 12.3333 3H4.33333ZM5.33334 4.9C5.09402 4.9 4.90001 5.09401 4.90001 5.33334C4.90001 5.57266 5.09402 5.76667 5.33334 5.76667C6.2026 5.76667 7.54205 6.04654 8.68586 6.88311C9.81159 7.70644 10.7745 9.08687 10.9007 11.3574C10.9139 11.5963 11.1184 11.7793 11.3574 11.766C11.5963 11.7527 11.7793 11.5483 11.766 11.3093C11.6255 8.7798 10.5329 7.16024 9.19749 6.18357C7.88019 5.22013 6.35297 4.9 5.33334 4.9ZM7.2523 8.68056C6.5209 8.17102 5.62809 8.04917 5.03599 8.09851C4.7975 8.11838 4.58805 7.94116 4.56817 7.70266C4.5483 7.46416 4.72552 7.25471 4.96402 7.23484C5.70526 7.17307 6.81245 7.31788 7.74771 7.96945C8.70826 8.63863 9.43334 9.80543 9.43334 11.6667C9.43334 11.906 9.23933 12.1 9.00001 12.1C8.76068 12.1 8.56667 11.906 8.56667 11.6667C8.56667 10.0612 7.95842 9.17249 7.2523 8.68056ZM5.83334 11.6667C6.29358 11.6667 6.66667 11.2936 6.66667 10.8333C6.66667 10.3731 6.29358 10 5.83334 10C5.3731 10 5.00001 10.3731 5.00001 10.8333C5.00001 11.2936 5.3731 11.6667 5.83334 11.6667Z" fill="black"/>
</svg>
