<svg width="16" height="16" viewBox="0 0 16 16" fill="none" xmlns="http://www.w3.org/2000/svg">
<path fill-rule="evenodd" clip-rule="evenodd" d="M10.45 3C10.5585 3 10.6655 3.0132 10.7691 3.03872C11.0034 3.09644 11.2197 3.21719 11.3931 3.39065L13.2794 5.27685C13.5295 5.52698 13.67 5.86622 13.67 6.21996V12.3363C13.67 13.0729 13.0729 13.67 12.3363 13.67H4.33375C3.59714 13.67 3 13.0729 3 12.3363V4.33375C3 3.59714 3.59714 3 4.33375 3H10.45ZM5.56747 5.00063V3.86694H4.33375C4.07594 3.86694 3.86694 4.07594 3.86694 4.33375V12.3363C3.86694 12.5941 4.07594 12.8031 4.33375 12.8031H4.56716V10.0022C4.56716 9.02618 5.35837 8.23497 6.33437 8.23497H10.3356C11.3116 8.23497 12.1028 9.02618 12.1028 10.0022V12.8031H12.3363C12.5941 12.8031 12.8031 12.5941 12.8031 12.3363V6.21996C12.8031 6.09615 12.7539 5.97742 12.6663 5.88987L10.7801 4.00366C10.7765 4.00004 10.7728 3.99648 10.7691 3.99298V5.00063C10.7691 5.97663 9.97788 6.76784 9.00187 6.76784H7.33469C6.35868 6.76784 5.56747 5.97663 5.56747 5.00063ZM6.43441 3.86694H9.90216V5.00063C9.90216 5.49784 9.49909 5.90091 9.00187 5.90091H7.33469C6.83748 5.90091 6.43441 5.49784 6.43441 5.00063V3.86694ZM5.43409 12.8031H11.2359V10.0022C11.2359 9.50498 10.8328 9.10191 10.3356 9.10191H6.33437C5.83716 9.10191 5.43409 9.50498 5.43409 10.0022V12.8031Z" fill="black"/>
</svg>
