<svg width="16" height="16" viewBox="0 0 16 16" fill="none" xmlns="http://www.w3.org/2000/svg">
<path fill-rule="evenodd" clip-rule="evenodd" d="M8.11096 6.69942C7.20802 6.69942 6.47605 7.43095 6.47605 8.33333C6.47605 9.23572 7.20802 9.96724 8.11096 9.96724C9.0139 9.96724 9.74588 9.23572 9.74588 8.33333C9.74588 7.43095 9.0139 6.69942 8.11096 6.69942ZM7.27808 8.33333C7.27808 7.87363 7.65097 7.50096 8.11096 7.50096C8.57095 7.50096 8.94384 7.87363 8.94384 8.33333C8.94384 8.79304 8.57095 9.1657 8.11096 9.1657C7.65097 9.1657 7.27808 8.79304 7.27808 8.33333Z" fill="black"/>
<path fill-rule="evenodd" clip-rule="evenodd" d="M8.68363 3L7.44973 3C6.88752 3 6.43176 3.45548 6.43176 4.01734V4.59558C6.43176 4.99902 5.99476 5.25117 5.64515 5.04945L5.14407 4.76033C4.65718 4.47939 4.0346 4.64611 3.7535 5.1327L3.13655 6.20063C2.85545 6.68722 3.02227 7.30941 3.50915 7.59034L4.01023 7.87946C4.35983 8.08118 4.35983 8.58548 4.01023 8.7872L3.50915 9.07632C3.02227 9.35725 2.85545 9.97944 3.13655 10.466L3.7535 11.534C4.0346 12.0205 4.65718 12.1873 5.14407 11.9063L5.64515 11.6172C5.99476 11.4155 6.43176 11.6676 6.43176 12.0711V12.6493C6.43176 13.2112 6.88752 13.6667 7.44973 13.6667H8.68363C9.24584 13.6667 9.70159 13.2112 9.70159 12.6493V12.0711C9.70159 11.6677 10.1386 11.4155 10.4882 11.6172L10.9893 11.9063C11.4762 12.1873 12.0987 12.0205 12.3798 11.534L12.9968 10.466C13.2779 9.97944 13.1111 9.35725 12.6242 9.07632L12.1231 8.7872C11.7735 8.58548 11.7735 8.08118 12.1231 7.87946L12.6242 7.59034C13.1111 7.30941 13.2779 6.68722 12.9968 6.20063L12.3798 5.1327C12.0987 4.64611 11.4762 4.47939 10.9893 4.76033L10.4882 5.04944C10.1386 5.25116 9.70159 4.99901 9.70159 4.59556V4.01734C9.70159 3.45548 9.24583 3 8.68363 3ZM7.44973 3.80154H8.68363C8.80288 3.80154 8.89956 3.89816 8.89956 4.01734V4.59556C8.89956 5.61603 10.0049 6.25383 10.8892 5.74359L11.3903 5.45448C11.4936 5.39489 11.6256 5.43025 11.6853 5.53347L12.3022 6.6014C12.3618 6.70462 12.3264 6.8366 12.2232 6.89619L11.7221 7.1853C10.8378 7.69554 10.8378 8.97112 11.7221 9.48136L12.2232 9.77047C12.3264 9.83006 12.3618 9.96205 12.3022 10.0653L11.6853 11.1332C11.6256 11.2364 11.4936 11.2718 11.3903 11.2122L10.8892 10.9231C10.0049 10.4128 8.89956 11.0506 8.89956 12.0711V12.6493C8.89956 12.7685 8.80288 12.8651 8.68363 12.8651H7.44973C7.33047 12.8651 7.2338 12.7685 7.2338 12.6493V12.0711C7.2338 11.0506 6.12843 10.4128 5.24414 10.9231L4.74305 11.2122C4.63977 11.2718 4.50771 11.2364 4.44808 11.1332L3.83113 10.0653C3.77151 9.96205 3.80689 9.83006 3.91017 9.77047L4.41124 9.48136C5.29554 8.97112 5.29554 7.69554 4.41124 7.18531L3.91017 6.89619C3.80689 6.8366 3.77151 6.70462 3.83113 6.6014L4.44808 5.53347C4.50771 5.43025 4.63977 5.39489 4.74305 5.45448L5.24414 5.7436C6.12843 6.25384 7.2338 5.61605 7.2338 4.59558V4.01734C7.2338 3.89816 7.33047 3.80154 7.44973 3.80154Z" fill="black"/>
</svg>
