<svg width="16" height="16" viewBox="0 0 16 16" fill="none" xmlns="http://www.w3.org/2000/svg">
<path d="M3.86694 6.33437C3.86694 7.6971 4.97165 8.80181 6.33437 8.80181V9.66875C4.49285 9.66875 3 8.1759 3 6.33437C3 4.49285 4.49285 3 6.33437 3C8.1759 3 9.66875 4.49285 9.66875 6.33437H8.80181C8.80181 4.97165 7.6971 3.86694 6.33437 3.86694C4.97165 3.86694 3.86694 4.97165 3.86694 6.33437Z" fill="black"/>
<path fill-rule="evenodd" clip-rule="evenodd" d="M7.00125 8.335C7.00125 7.59839 7.59839 7.00125 8.335 7.00125H12.3363C13.0729 7.00125 13.67 7.59839 13.67 8.335V12.3363C13.67 13.0729 13.0729 13.67 12.3363 13.67H8.335C7.59839 13.67 7.00125 13.0729 7.00125 12.3363V8.335ZM8.335 7.86819H12.3363C12.5941 7.86819 12.8031 8.07719 12.8031 8.335V12.3363C12.8031 12.5941 12.5941 12.8031 12.3363 12.8031H8.335C8.07719 12.8031 7.86819 12.5941 7.86819 12.3363V8.335C7.86819 8.07719 8.07719 7.86819 8.335 7.86819Z" fill="black"/>
</svg>
