<svg width="16" height="16" viewBox="0 0 16 16" fill="none" xmlns="http://www.w3.org/2000/svg">
<g clip-path="url(#clip0_238_887)">
<path d="M5 0C7.76142 0 10 2.23858 10 5H7C5.89543 5 5 5.89543 5 7V10C2.23858 10 0 7.76142 0 5C0 2.23858 2.23858 0 5 0Z" fill="black"/>
<path d="M8 6C6.89543 6 6 6.89543 6 8V14C6 15.1046 6.89543 16 8 16H14C15.1046 16 16 15.1046 16 14V8C16 6.89543 15.1046 6 14 6H8Z" fill="black"/>
</g>
<defs>
<clipPath id="clip0_238_887">
<rect width="16" height="16" fill="white"/>
</clipPath>
</defs>
</svg>
