<svg width="16" height="16" viewBox="0 0 16 16" fill="none" xmlns="http://www.w3.org/2000/svg">
<path d="M4.33333 4C3.59695 4 3 4.59695 3 5.33333V10.6667C3 11.403 3.59695 12 4.33333 12H9.75078C9.58173 11.5797 9.66749 11.0808 10.0081 10.7402L12.4069 8.34139C12.7475 8.00083 13.2464 7.91507 13.6667 8.08411V5.33333C13.6667 4.59695 13.0697 4 12.3333 4H4.33333Z" fill="black"/>
<path d="M10.4795 11.2117C10.2846 11.4065 10.2846 11.7224 10.4795 11.9172L11.7494 13.1872C11.9443 13.382 12.2602 13.382 12.455 13.1872L12.712 12.9302L10.7365 10.9546L10.4795 11.2117Z" fill="black"/>
<path d="M11.0893 10.6018L13.0648 12.5774L14.8539 10.7883C15.0487 10.5935 15.0487 10.2776 14.8539 10.0828L13.5839 8.8128C13.3891 8.61796 13.0732 8.61796 12.8783 8.8128L11.0893 10.6018Z" fill="black"/>
</svg>
