<svg width="16" height="16" viewBox="0 0 16 16" fill="none" xmlns="http://www.w3.org/2000/svg">
<path d="M8.87342 12.3333C5.6585 12.3333 3.61825 10.1254 3 9.0215C5.47302 10.7075 7.94604 10.1254 8.87342 9.62366C8.16118 9.39243 5.4926 6.36788 4.09513 4.70566C4.02652 4.63461 3.96994 4.56754 3.92738 4.50538C3.98094 4.56958 4.03693 4.63644 4.09513 4.70566C4.82402 5.46047 6.91009 6.66471 7.94604 7.21505C7.70795 6.98317 6.30467 5.05832 5.55679 4.01967C5.51743 3.97362 5.48909 3.93453 5.47302 3.90323C5.49989 3.94061 5.52785 3.97948 5.55679 4.01967C6.12329 4.68235 8.97385 6.78499 10.4191 7.8172C11.4083 6.6129 10.213 4.10394 9.49168 3C12.7066 4.68602 13.0982 8.11828 12.8921 9.62366C13.8813 10.1054 13.7164 11.6308 13.5103 12.3333C13.0157 11.129 12.0677 11.2294 11.6556 11.4301C10.9137 12.1527 9.49168 12.3333 8.87342 12.3333Z" fill="black"/>
</svg>
