<svg width="16" height="16" viewBox="0 0 16 16" fill="none" xmlns="http://www.w3.org/2000/svg">
<path d="M4.33333 5.7C4.33333 5.3134 4.63181 5 5 5H11C11.3682 5 11.6667 5.3134 11.6667 5.7C11.6667 6.0866 11.3682 6.4 11 6.4H5C4.63181 6.4 4.33333 6.0866 4.33333 5.7Z" fill="black"/>
<path d="M3 8.5C3 8.1134 3.29848 7.8 3.66667 7.8H12.3333C12.7015 7.8 13 8.1134 13 8.5C13 8.8866 12.7015 9.2 12.3333 9.2H3.66667C3.29848 9.2 3 8.8866 3 8.5Z" fill="black"/>
<path d="M6.33333 10.6C5.96514 10.6 5.66667 10.9134 5.66667 11.3C5.66667 11.6866 5.96514 12 6.33333 12H9.66667C10.0349 12 10.3333 11.6866 10.3333 11.3C10.3333 10.9134 10.0349 10.6 9.66667 10.6H6.33333Z" fill="black"/>
</svg>
