<svg width="16" height="16" viewBox="0 0 16 16" fill="none" xmlns="http://www.w3.org/2000/svg">
<path d="M4.33333 5.56667C4.09401 5.56667 3.9 5.76068 3.9 6C3.9 6.23932 4.09401 6.43333 4.33333 6.43333H10.3333C10.5727 6.43333 10.7667 6.23932 10.7667 6C10.7667 5.76068 10.5727 5.56667 10.3333 5.56667H4.33333Z" fill="black"/>
<path d="M3.9 8.33333C3.9 8.09401 4.09401 7.9 4.33333 7.9H7.66667C7.90599 7.9 8.1 8.09401 8.1 8.33333C8.1 8.57266 7.90599 8.76667 7.66667 8.76667H4.33333C4.09401 8.76667 3.9 8.57266 3.9 8.33333Z" fill="black"/>
<path d="M4.33333 10.2333C4.09401 10.2333 3.9 10.4273 3.9 10.6667C3.9 10.906 4.09401 11.1 4.33333 11.1H9.66667C9.90599 11.1 10.1 10.906 10.1 10.6667C10.1 10.4273 9.90599 10.2333 9.66667 10.2333H4.33333Z" fill="black"/>
<path fill-rule="evenodd" clip-rule="evenodd" d="M2 4.33333C2 3.59695 2.59695 3 3.33333 3H11.3333C12.0697 3 12.6667 3.59695 12.6667 4.33333V12.3333C12.6667 13.0697 12.0697 13.6667 11.3333 13.6667H3.33333C2.59695 13.6667 2 13.0697 2 12.3333V4.33333ZM3.33333 3.86667H11.3333C11.5911 3.86667 11.8 4.0756 11.8 4.33333V12.3333C11.8 12.5911 11.5911 12.8 11.3333 12.8H3.33333C3.0756 12.8 2.86667 12.5911 2.86667 12.3333V4.33333C2.86667 4.0756 3.0756 3.86667 3.33333 3.86667Z" fill="black"/>
</svg>
