<svg width="16" height="16" viewBox="0 0 16 16" fill="none" xmlns="http://www.w3.org/2000/svg">
<path d="M5.86386 3.43346C5.86386 3.19406 6.05792 3 6.29731 3H8.93515C9.17454 3 9.36861 3.19406 9.36861 3.43346C9.36861 3.67285 9.17454 3.86691 8.93515 3.86691H6.29731C6.05792 3.86691 5.86386 3.67285 5.86386 3.43346Z" fill="black"/>
<path d="M8.04966 6.07511C8.04966 5.83572 7.8556 5.64165 7.61621 5.64165C7.37681 5.64165 7.18275 5.83572 7.18275 6.07511V9.37716C7.18275 9.61655 7.37681 9.81062 7.61621 9.81062C7.8556 9.81062 8.04966 9.61655 8.04966 9.37716V6.07511Z" fill="black"/>
<path fill-rule="evenodd" clip-rule="evenodd" d="M12.2426 9.04537C12.2426 11.5976 10.1736 13.6667 7.6213 13.6667C5.06903 13.6667 3 11.5976 3 9.04537C3 6.4931 5.06903 4.42407 7.6213 4.42407C10.1736 4.42407 12.2426 6.4931 12.2426 9.04537ZM11.3757 9.04537C11.3757 11.1189 9.69479 12.7998 7.6213 12.7998C5.54781 12.7998 3.86691 11.1189 3.86691 9.04537C3.86691 6.97188 5.54781 5.29098 7.6213 5.29098C9.69479 5.29098 11.3757 6.97188 11.3757 9.04537Z" fill="black"/>
<path d="M11.5499 4.44798C11.3808 4.2786 11.1063 4.27842 10.9369 4.44758C10.7676 4.61674 10.7674 4.89119 10.9365 5.06058L11.5963 5.72124C11.7655 5.89062 12.0399 5.89081 12.2093 5.72164C12.3787 5.55248 12.3789 5.27803 12.2097 5.10865L11.5499 4.44798Z" fill="black"/>
</svg>
