<svg width="16" height="16" viewBox="0 0 16 16" fill="none" xmlns="http://www.w3.org/2000/svg">
<path fill-rule="evenodd" clip-rule="evenodd" d="M8.33333 8.33333C8.33333 7.22876 9.22876 6.33333 10.3333 6.33333C11.4379 6.33333 12.3333 7.22876 12.3333 8.33333C12.3333 9.4379 11.4379 10.3333 10.3333 10.3333C9.22876 10.3333 8.33333 9.4379 8.33333 8.33333ZM9.2 8.33333C9.2 7.70741 9.70741 7.2 10.3333 7.2C10.9593 7.2 11.4667 7.70741 11.4667 8.33333C11.4667 8.95926 10.9593 9.46667 10.3333 9.46667C9.70741 9.46667 9.2 8.95926 9.2 8.33333Z" fill="black"/>
<path fill-rule="evenodd" clip-rule="evenodd" d="M13.6667 8.33333C13.6667 10.1743 12.1743 11.6667 10.3333 11.6667L6.33333 11.6667C4.49238 11.6667 3 10.1743 3 8.33333C3 6.49238 4.49238 5 6.33333 5H10.3333C12.1743 5 13.6667 6.49238 13.6667 8.33333ZM12.8 8.33333C12.8 9.69564 11.6956 10.8 10.3333 10.8L6.33333 10.8C4.97103 10.8 3.86667 9.69563 3.86667 8.33333C3.86667 6.97103 4.97103 5.86667 6.33333 5.86667L10.3333 5.86667C11.6956 5.86667 12.8 6.97103 12.8 8.33333Z" fill="black"/>
</svg>
