<svg width="16" height="16" viewBox="0 0 16 16" fill="none" xmlns="http://www.w3.org/2000/svg">
<path d="M8.33333 5.56667C8.57266 5.56667 8.76667 5.76068 8.76667 6V8.66667C8.76667 8.90599 8.57266 9.1 8.33333 9.1C8.09401 9.1 7.9 8.90599 7.9 8.66667V6C7.9 5.76068 8.09401 5.56667 8.33333 5.56667Z" fill="black"/>
<path d="M8.33333 10.6667C8.60948 10.6667 8.83333 10.4428 8.83333 10.1667C8.83333 9.89052 8.60948 9.66667 8.33333 9.66667C8.05719 9.66667 7.83333 9.89052 7.83333 10.1667C7.83333 10.4428 8.05719 10.6667 8.33333 10.6667Z" fill="black"/>
<path fill-rule="evenodd" clip-rule="evenodd" d="M8.96956 3.36218C8.68825 2.87927 7.97842 2.87927 7.69711 3.36218L3.09763 11.2579C2.81848 11.7371 3.17122 12.3333 3.73386 12.3333H12.9328C13.4955 12.3333 13.8482 11.7371 13.569 11.2579L8.96956 3.36218ZM8.62136 4.48624C8.49278 4.2655 8.17389 4.2655 8.04531 4.48624L4.27092 10.9655C4.14147 11.1878 4.30177 11.4667 4.55895 11.4667H12.1077C12.3649 11.4667 12.5252 11.1878 12.3957 10.9655L8.62136 4.48624Z" fill="black"/>
</svg>
