<svg width="16" height="16" viewBox="0 0 16 16" fill="none" xmlns="http://www.w3.org/2000/svg">
<path fill-rule="evenodd" clip-rule="evenodd" d="M3 4.33333C3 3.59695 3.59695 3 4.33333 3H12.3333C13.0697 3 13.6667 3.59695 13.6667 4.33333V12.3333C13.6667 13.0697 13.0697 13.6667 12.3333 13.6667H4.33333C3.59695 13.6667 3 13.0697 3 12.3333V4.33333ZM5.66667 5.16667C5.66667 5.44281 5.44281 5.66667 5.16667 5.66667C4.89052 5.66667 4.66667 5.44281 4.66667 5.16667C4.66667 4.89052 4.89052 4.66667 5.16667 4.66667C5.44281 4.66667 5.66667 4.89052 5.66667 5.16667ZM6.83333 5.66667C7.10948 5.66667 7.33333 5.44281 7.33333 5.16667C7.33333 4.89052 7.10948 4.66667 6.83333 4.66667C6.55719 4.66667 6.33333 4.89052 6.33333 5.16667C6.33333 5.44281 6.55719 5.66667 6.83333 5.66667ZM9 5.16667C9 5.44281 8.77614 5.66667 8.5 5.66667C8.22386 5.66667 8 5.44281 8 5.16667C8 4.89052 8.22386 4.66667 8.5 4.66667C8.77614 4.66667 9 4.89052 9 5.16667ZM8.33333 11.6667C9.80609 11.6667 11 10.4728 11 9C11 7.52724 9.80609 6.33333 8.33333 6.33333C6.86057 6.33333 5.66667 7.52724 5.66667 9C5.66667 10.4728 6.86057 11.6667 8.33333 11.6667Z" fill="black"/>
<path fill-rule="evenodd" clip-rule="evenodd" d="M10.1247 8.82293C9.9653 8.90084 9.77426 8.96843 9.57478 8.99563C9.25072 9.03982 8.92415 8.97798 8.63975 8.69358C8.12415 8.17798 7.50627 8.07315 6.97478 8.14563C6.88913 8.15731 6.80525 8.17357 6.72369 8.1935C7.01946 7.60434 7.62918 7.2 8.33333 7.2C9.2677 7.2 10.0358 7.91193 10.1247 8.82293Z" fill="black"/>
</svg>
