<svg width="16" height="16" viewBox="0 0 16 16" fill="none" xmlns="http://www.w3.org/2000/svg">
<path fill-rule="evenodd" clip-rule="evenodd" d="M5.19273 6.50468C5.51735 5.06695 6.80324 4 8.33333 4C9.86342 4 11.1493 5.06695 11.4739 6.50468C11.5206 6.71154 11.6657 6.80847 11.7685 6.80847H11.8566C12.8503 6.80847 13.6667 7.61279 13.6667 8.61837C13.6667 9.62395 12.8503 10.4283 11.8566 10.4283H11.8199L10.8927 12.415C10.7915 12.6319 10.5336 12.7257 10.3167 12.6244C10.0999 12.5232 10.0061 12.2654 10.1073 12.0485L10.8635 10.4283H9.46593L8.20125 12.4607C8.07481 12.6639 7.80759 12.7261 7.60439 12.5997C7.4012 12.4732 7.33897 12.206 7.46541 12.0028L8.44518 10.4283H6.79927L5.53459 12.4607C5.40815 12.6639 5.14092 12.7261 4.93773 12.5997C4.73453 12.4732 4.67231 12.206 4.79875 12.0028L5.77851 10.4283H4.81007C3.81637 10.4283 3 9.62395 3 8.61837C3 7.61279 3.81637 6.80847 4.81007 6.80847H4.89816C5.00094 6.80847 5.14603 6.71154 5.19273 6.50468ZM8.33333 4.81134C7.17703 4.81134 6.21542 5.61673 5.97413 6.68544C5.8691 7.15062 5.47642 7.6198 4.89816 7.6198H4.81007C4.2471 7.6198 3.80154 8.07288 3.80154 8.61837C3.80154 9.16387 4.2471 9.61694 4.81007 9.61694H11.8566C12.4196 9.61694 12.8651 9.16387 12.8651 8.61837C12.8651 8.07288 12.4196 7.6198 11.8566 7.6198H11.7685C11.1902 7.6198 10.7976 7.15062 10.6925 6.68544C10.4512 5.61673 9.48963 4.81134 8.33333 4.81134Z" fill="black"/>
</svg>
