<svg width="16" height="16" viewBox="0 0 16 16" fill="none" xmlns="http://www.w3.org/2000/svg">
<path fill-rule="evenodd" clip-rule="evenodd" d="M7.28205 4.18696C7.28175 4.02969 7.14345 3.90904 6.98904 3.9315L3.21981 4.47983C3.09364 4.49818 3 4.60723 3 4.7358V7.79631C3 7.939 3.11456 8.05469 3.25596 8.05493L7.02564 8.05494C7.1669 8.05469 7.28181 7.93924 7.28205 7.79676V4.18696ZM3.77657 5.07821C3.71349 5.08739 3.66667 5.14191 3.66667 5.2062V7.25321C3.66667 7.32462 3.72407 7.38252 3.79487 7.38252H6.48718C6.55799 7.38252 6.61538 7.32462 6.61538 7.25321V4.81453C6.61538 4.73577 6.54617 4.6753 6.46888 4.68655L3.77657 5.07821Z" fill="black"/>
<path fill-rule="evenodd" clip-rule="evenodd" d="M7.02564 8.72735H3.25641C3.115 8.7276 3 8.84329 3 8.98598V12.044C3 12.1737 3.09516 12.2833 3.22256 12.3004L6.99179 12.8067C7.14533 12.8273 7.28175 12.707 7.28205 12.5509V8.98598C7.28181 8.8435 7.1669 8.7276 7.02564 8.72735ZM6.61538 9.52908C6.61538 9.45767 6.55799 9.39977 6.48718 9.39977H3.79487C3.72407 9.39977 3.66667 9.45767 3.66667 9.52908V11.5684C3.66667 11.6333 3.71425 11.6881 3.77795 11.6966L6.47025 12.0583C6.54711 12.0686 6.61538 12.0083 6.61538 11.9301V9.52908Z" fill="black"/>
<path fill-rule="evenodd" clip-rule="evenodd" d="M7.94872 12.7088C7.94872 12.8384 8.04387 12.948 8.17128 12.9651L13.3764 13.6644C13.5301 13.685 13.6667 13.5644 13.6667 13.408V8.98598C13.6667 8.84329 13.5521 8.7276 13.4107 8.72735H8.20513C8.06367 8.72735 7.94896 8.8429 7.94872 8.98552L7.94872 12.7088ZM8.74359 9.39977C8.67278 9.39977 8.61539 9.45767 8.61539 9.52908V12.2332C8.61539 12.298 8.66296 12.3528 8.72667 12.3614L12.8549 12.9159C12.9317 12.9263 13 12.866 13 12.7878V9.52908C13 9.45767 12.9426 9.39977 12.8718 9.39977H8.74359Z" fill="black"/>
<path fill-rule="evenodd" clip-rule="evenodd" d="M8.20513 8.05494H13.4103C13.5517 8.05469 13.6667 7.939 13.6667 7.79631V3.25867C13.6667 3.10115 13.5282 2.98021 13.3737 3.0027L8.16852 3.75991C8.04236 3.77827 7.94872 3.88732 7.94872 4.01589L7.94872 7.79631C7.94896 7.93879 8.06387 8.05469 8.20513 8.05494ZM8.61539 7.25321C8.61539 7.32462 8.67278 7.38252 8.74359 7.38252H12.8718C12.9426 7.38252 13 7.32462 13 7.25321V3.88573C13 3.80697 12.9308 3.7465 12.8535 3.75774L8.72529 4.35829C8.66221 4.36747 8.61539 4.422 8.61539 4.48628V7.25321Z" fill="black"/>
</svg>
