<svg width="16" height="16" viewBox="0 0 16 16" fill="none" xmlns="http://www.w3.org/2000/svg">
<path fill-rule="evenodd" clip-rule="evenodd" d="M7.70215 5.93066C7.70215 4.30379 9.04575 3 10.6844 3C11.0287 3 11.3603 3.0575 11.6692 3.16368L12.3328 3.39175L10.5878 5.10143C10.35 5.33446 10.35 5.70852 10.5878 5.94154C10.8306 6.1794 11.2278 6.1794 11.4706 5.94154L13.2072 4.24011L13.4514 4.83565C13.5903 5.17438 13.6667 5.54423 13.6667 5.93066C13.6667 7.55753 12.3231 8.86132 10.6844 8.86132C10.433 8.86132 10.1883 8.83066 9.95434 8.77276L5.36821 13.2661C4.82647 13.7968 3.95174 13.7968 3.41001 13.2661C2.86333 12.7305 2.86333 11.8583 3.41001 11.3227L7.8837 6.93957C7.76625 6.62477 7.70215 6.28479 7.70215 5.93066Z" fill="black"/>
</svg>
