<svg width="16" height="16" viewBox="0 0 16 16" fill="none" xmlns="http://www.w3.org/2000/svg">
<path d="M6.10021 7.00116C6.04487 7.00116 6.00001 7.15045 6.00001 7.33462C6.00001 7.51878 6.04487 7.66808 6.10021 7.66808H8.56649C8.62182 7.66808 8.66668 7.51878 8.66668 7.33462C8.66668 7.15045 8.62182 7.00116 8.56649 7.00116H6.10021Z" fill="black"/>
<path fill-rule="evenodd" clip-rule="evenodd" d="M9.33366 10.0023L9.34365 9.99477L11.6042 12.2562C11.6554 12.3074 11.7223 12.3671 11.7981 12.4249L11.807 12.4317C12.0507 12.6155 12.3817 12.7765 12.5774 12.5807C12.7731 12.3849 12.6122 12.0538 12.4284 11.81L12.4217 11.8011C12.3638 11.7253 12.3042 11.6583 12.253 11.6071L9.99246 9.34571C10.4156 8.78663 10.6667 8.08995 10.6667 7.33462C10.6667 5.49296 9.17428 4 7.33333 4C5.49238 4 4 5.49296 4 7.33462C4 9.17627 5.49238 10.6692 7.33333 10.6692C8.08388 10.6692 8.7765 10.4211 9.33366 10.0023ZM4.86667 7.33462C4.86667 8.69744 5.97103 9.80223 7.33333 9.80223C7.88974 9.80223 8.40085 9.61897 8.81307 9.30915C9.41402 8.85747 9.8 8.14126 9.8 7.33462C9.8 5.97179 8.69564 4.867 7.33333 4.867C5.97103 4.867 4.86667 5.97179 4.86667 7.33462Z" fill="black"/>
</svg>
