<svg width="28" height="28" viewBox="0 0 28 28" fill="none" xmlns="http://www.w3.org/2000/svg">
<path fill-rule="evenodd" clip-rule="evenodd" d="M14.3333 23.6667C19.488 23.6667 23.6667 19.488 23.6667 14.3333C23.6667 9.17868 19.488 5 14.3333 5C9.17868 5 5 9.17868 5 14.3333C5 19.488 9.17868 23.6667 14.3333 23.6667ZM14.3333 17.8333C16.2663 17.8333 17.8333 16.2663 17.8333 14.3333C17.8333 12.4003 16.2663 10.8333 14.3333 10.8333C12.4003 10.8333 10.8333 12.4003 10.8333 14.3333C10.8333 16.2663 12.4003 17.8333 14.3333 17.8333Z" fill="black"/>
<path d="M16.6667 14.3333C16.6667 15.622 15.622 16.6667 14.3333 16.6667C13.0447 16.6667 12 15.622 12 14.3333C12 13.0447 13.0447 12 14.3333 12C15.622 12 16.6667 13.0447 16.6667 14.3333Z" fill="black"/>
</svg>
