<svg width="28" height="28" viewBox="0 0 28 28" fill="none" xmlns="http://www.w3.org/2000/svg">
<path d="M7.89754 4.39795C5.9647 4.39795 4.39783 5.96482 4.39783 7.89766V9.92012C4.39783 10.5644 4.92012 11.0867 5.5644 11.0867C6.20868 11.0867 6.73097 10.5644 6.73097 9.92012V7.89766C6.73097 7.25338 7.25326 6.73109 7.89754 6.73109H9.92C10.5643 6.73109 11.0866 6.2088 11.0866 5.56452C11.0866 4.92024 10.5643 4.39795 9.92 4.39795H7.89754Z" fill="black"/>
<path d="M6.73097 17.5424C6.73097 16.8982 6.20868 16.3759 5.5644 16.3759C4.92012 16.3759 4.39783 16.8982 4.39783 17.5424V19.5649C4.39783 21.4977 5.9647 23.0646 7.89754 23.0646H9.92C10.5643 23.0646 11.0866 22.5423 11.0866 21.898C11.0866 21.2538 10.5643 20.7315 9.92 20.7315H7.89754C7.25326 20.7315 6.73097 20.2092 6.73097 19.5649V17.5424Z" fill="black"/>
<path d="M21.8979 16.3759C22.5421 16.3759 23.0644 16.8982 23.0644 17.5424V19.5649C23.0644 21.4977 21.4976 23.0646 19.5647 23.0646H17.5423C16.898 23.0646 16.3757 22.5423 16.3757 21.898C16.3757 21.2538 16.898 20.7315 17.5423 20.7315H19.5647C20.209 20.7315 20.7313 20.2092 20.7313 19.5649V17.5424C20.7313 16.8982 21.2536 16.3759 21.8979 16.3759Z" fill="black"/>
<path d="M17.5423 4.39795C16.898 4.39795 16.3757 4.92024 16.3757 5.56452C16.3757 6.2088 16.898 6.73109 17.5423 6.73109H19.5647C20.209 6.73109 20.7313 7.25338 20.7313 7.89766V9.92012C20.7313 10.5644 21.2536 11.0867 21.8979 11.0867C22.5421 11.0867 23.0644 10.5644 23.0644 9.92012V7.89766C23.0644 5.96482 21.4976 4.39795 19.5647 4.39795H17.5423Z" fill="black"/>
</svg>
