<svg width="20" height="20" viewBox="0 0 20 20" fill="none" xmlns="http://www.w3.org/2000/svg">
<path fill-rule="evenodd" clip-rule="evenodd" d="M3.54147 3C3.84051 3 4.08293 3.24242 4.08293 3.54147V9.11518C5.14701 9.14737 6.50536 9.44937 7.67958 10.2729C9.01502 11.2095 10.0588 12.7844 10.1921 15.2471H15.7885C16.0876 15.2471 16.33 15.4895 16.33 15.7885C16.33 16.0876 16.0876 16.33 15.7885 16.33H4.37449C3.61538 16.33 3 15.7146 3 14.9555V3.54147C3 3.24242 3.24242 3 3.54147 3ZM9.10743 15.2471C8.97856 13.1303 8.09305 11.8856 7.05777 11.1595C6.09999 10.4878 4.97025 10.2305 4.08293 10.1986V14.9555C4.08293 15.1165 4.21347 15.2471 4.37449 15.2471H9.10743Z" fill="black"/>
</svg>
