<svg width="20" height="20" viewBox="0 0 20 20" fill="none" xmlns="http://www.w3.org/2000/svg">
<path d="M16.3333 7.52101C16.3333 7.82267 16.0893 8.06723 15.7883 8.06723C15.4872 8.06723 15.2432 7.82267 15.2432 7.52101L15.2432 6.30252C15.2432 6.18649 15.1493 6.09244 15.0335 6.09244L13.8176 6.09244C13.5166 6.09244 13.2725 5.84789 13.2725 5.54622C13.2725 5.24455 13.5166 5 13.8176 5L15.4948 5C15.9579 5 16.3333 5.37623 16.3333 5.84034V7.52101Z" fill="black"/>
<path d="M3.54507 11.9328C3.24404 11.9328 3 12.1773 3 12.479V14.1597C3 14.6238 3.37544 15 3.83858 15H5.51573C5.81676 15 6.0608 14.7554 6.0608 14.4538C6.0608 14.1521 5.81676 13.9076 5.51573 13.9076H4.29979C4.18401 13.9076 4.09015 13.8135 4.09015 13.6975V12.479C4.09015 12.1773 3.84611 11.9328 3.54507 11.9328Z" fill="black"/>
<path d="M13.2725 14.4538C13.2725 14.7554 13.5166 15 13.8176 15H15.4948C15.9579 15 16.3333 14.6238 16.3333 14.1597L16.3333 12.479C16.3333 12.1773 16.0893 11.9328 15.7883 11.9328C15.4872 11.9328 15.2432 12.1773 15.2432 12.479V13.6975C15.2432 13.8135 15.1493 13.9076 15.0335 13.9076H13.8176C13.5166 13.9076 13.2725 14.1521 13.2725 14.4538Z" fill="black"/>
<path d="M6.0608 5.54622C6.0608 5.24455 5.81676 5 5.51573 5L3.83858 5C3.37544 5 3 5.37623 3 5.84034L3 7.52101C3 7.82267 3.24404 8.06722 3.54507 8.06722C3.84611 8.06723 4.09015 7.82267 4.09015 7.52101L4.09015 6.30252C4.09015 6.18649 4.18401 6.09244 4.29979 6.09244H5.51573C5.81676 6.09244 6.0608 5.84789 6.0608 5.54622Z" fill="black"/>
<path d="M6.0608 12.9832C5.75976 12.9832 5.51573 12.7386 5.51573 12.437V7.64706C5.51573 7.34539 5.75976 7.10084 6.0608 7.10084C6.36184 7.10084 6.60587 7.34539 6.60587 7.64706V12.437C6.60587 12.7386 6.36184 12.9832 6.0608 12.9832Z" fill="black"/>
<path d="M11.0923 11.3025C10.7912 11.3025 10.5472 11.058 10.5472 10.7563V7.64706C10.5472 7.34539 10.7912 7.10084 11.0923 7.10084C11.3933 7.10084 11.6373 7.34539 11.6373 7.64706V10.7563C11.6373 11.058 11.3933 11.3025 11.0923 11.3025Z" fill="black"/>
<path d="M10.9665 12.1429C10.7349 12.1429 10.5472 12.331 10.5472 12.563C10.5472 12.7951 10.7349 12.9832 10.9665 12.9832H11.218C11.4496 12.9832 11.6373 12.7951 11.6373 12.563C11.6373 12.331 11.4496 12.1429 11.218 12.1429H10.9665Z" fill="black"/>
<path d="M8.57653 12.9832C8.27549 12.9832 8.03145 12.7386 8.03145 12.437V7.64706C8.03145 7.34539 8.27549 7.10084 8.57653 7.10084C8.87756 7.10084 9.1216 7.34539 9.1216 7.64706V12.437C9.1216 12.7386 8.87756 12.9832 8.57653 12.9832Z" fill="black"/>
<path d="M13.608 7.10084C13.3069 7.10084 13.0629 7.34539 13.0629 7.64706V12.437C13.0629 12.7386 13.3069 12.9832 13.608 12.9832C13.909 12.9832 14.1531 12.7386 14.1531 12.437V7.64706C14.1531 7.34539 13.909 7.10084 13.608 7.10084Z" fill="black"/>
</svg>
