<svg width="16" height="16" viewBox="0 0 16 16" fill="none" xmlns="http://www.w3.org/2000/svg">
<path d="M2.73973 2.12692C2.5705 1.95769 2.29614 1.95769 2.12692 2.12692C1.95769 2.29614 1.95769 2.5705 2.12692 2.73973L13.2603 13.8731C13.4295 14.0423 13.7039 14.0423 13.8731 13.8731C14.0423 13.7039 14.0423 13.4295 13.8731 13.2603L2.73973 2.12692Z" fill="black"/>
<path d="M4.17696 6.66655C4.17696 6.31091 4.22132 5.9661 4.30457 5.63787L9.66647 10.9998H3.97136C3.48879 10.9998 3.18138 10.4603 3.41082 10.0161L4.02366 8.82988C4.12427 8.63514 4.17696 8.41725 4.17696 8.19588V6.66655Z" fill="black"/>
<path d="M5.23619 3.90289L12.2799 10.9466C12.6076 10.8 12.7751 10.3766 12.5889 10.0161L11.976 8.82988C11.8754 8.63514 11.8227 8.41725 11.8227 8.19588V6.66655C11.8227 4.45747 10.1112 2.66665 7.99985 2.66665C6.91308 2.66665 5.93223 3.14113 5.23619 3.90289Z" fill="black"/>
<path d="M9.35145 12.7473C9.70993 12.3722 9.91129 11.8635 9.91129 11.3331H6.0884C6.0884 11.8635 6.28981 12.3722 6.64824 12.7473C7.00672 13.1223 7.4929 13.333 7.99985 13.333C8.5068 13.333 8.99298 13.1223 9.35145 12.7473Z" fill="black"/>
</svg>
