<svg width="24" height="24" viewBox="0 0 24 24" fill="none" xmlns="http://www.w3.org/2000/svg">
<path fill-rule="evenodd" clip-rule="evenodd" d="M12 20C16.4183 20 20 16.4183 20 12C20 7.58172 16.4183 4 12 4C7.58172 4 4 7.58172 4 12C4 16.4183 7.58172 20 12 20ZM13.928 7.51083C13.6579 7.27443 13.2472 7.30181 13.0108 7.57197C12.7744 7.84214 12.8018 8.25278 13.072 8.48917C13.647 8.99235 14.3544 9.96426 14.5588 11.1941C14.7573 12.3887 14.4947 13.9025 13.0142 15.5682C12.7757 15.8365 12.7999 16.2473 13.0682 16.4858C13.3365 16.7243 13.7473 16.7001 13.9858 16.4318C15.7053 14.4975 16.1094 12.5946 15.8412 10.9809C15.5789 9.4024 14.6863 8.17431 13.928 7.51083ZM11.4596 8.54038C11.2058 8.28654 10.7942 8.28654 10.5404 8.54038C10.2865 8.79422 10.2865 9.20578 10.5404 9.45962C11.1955 10.1147 12.2507 12.1308 10.4711 14.6222C10.2624 14.9143 10.3301 15.3203 10.6222 15.5289C10.9143 15.7376 11.3203 15.6699 11.5289 15.3778C13.7493 12.2692 12.4712 9.55198 11.4596 8.54038ZM8.95962 9.54038C8.70578 9.28654 8.29422 9.28654 8.04038 9.54038C7.78654 9.79422 7.78654 10.2058 8.04038 10.4596C8.30016 10.7194 8.61835 11.201 8.70845 11.7544C8.79197 12.2675 8.69058 12.8902 8.04038 13.5404C7.78654 13.7942 7.78654 14.2058 8.04038 14.4596C8.29422 14.7135 8.70578 14.7135 8.95962 14.4596C9.90942 13.5098 10.1414 12.4658 9.99155 11.5456C9.84831 10.6656 9.3665 9.94726 8.95962 9.54038Z" fill="black"/>
</svg>
