<svg width="28" height="28" viewBox="0 0 28 28" fill="none" xmlns="http://www.w3.org/2000/svg">
<path d="M8.5 7C7.85564 7 7.33333 7.52233 7.33333 8.16667V16.3333C7.33333 16.9777 7.85564 17.5 8.5 17.5H20.1667C20.811 17.5 21.3333 16.9777 21.3333 16.3333V8.16667C21.3333 7.52233 20.811 7 20.1667 7H8.5Z" fill="black"/>
<path d="M5.75836 18.6667C5.33952 18.6667 5 19.0062 5 19.425C5 19.8438 5.33952 20.1833 5.75836 20.1833H22.9083C23.3271 20.1833 23.6667 19.8438 23.6667 19.425C23.6667 19.0062 23.3271 18.6667 22.9083 18.6667H5.75836Z" fill="black"/>
</svg>
