<svg width="48" height="48" viewBox="0 0 48 48" fill="none" xmlns="http://www.w3.org/2000/svg">
<path fill-rule="evenodd" clip-rule="evenodd" d="M10.344 32.9105C9.6993 31.4023 9.94179 29.6053 11.0714 28.3143C9.56863 26.5967 9.6359 23.9838 11.2733 22.3464C12.9808 20.6389 15.7493 20.6389 17.4568 22.3464L19.1824 24.0721L24.5031 18.7514L22.7775 17.0257C21.07 15.3182 21.07 12.5497 22.7775 10.8422C24.4149 9.20484 27.0278 9.13757 28.7453 10.6404C30.0364 9.51074 31.8333 9.26824 33.3416 9.91291L34.5695 8.685C35.4828 7.77167 36.9636 7.77167 37.877 8.685L39.315 10.123C40.2283 11.0364 40.2283 12.5172 39.315 13.4305L38.2242 14.5213C39.211 16.1252 39.0666 18.2282 37.791 19.6861C39.2938 21.4036 39.2266 24.0165 37.5892 25.6539C35.8817 27.3614 33.1132 27.3614 31.4057 25.6539L29.2486 23.4969L23.9279 28.8176L26.085 30.9746C27.7925 32.6821 27.7925 35.4506 26.085 37.1581C24.4476 38.7955 21.8347 38.8628 20.1171 37.36C18.6593 38.6356 16.5563 38.78 14.9524 37.7931L13.4305 39.315C12.5172 40.2283 11.0364 40.2283 10.123 39.315L8.685 37.877C7.77167 36.9636 7.77167 35.4828 8.685 34.5695L10.344 32.9105ZM12.9989 36.0077L11.9923 35.0011L10.7701 36.2232L11.7768 37.2299L12.9989 36.0077ZM22.0585 26.9481L27.3792 21.6274L26.3726 20.6208L21.0519 25.9415L22.0585 26.9481ZM36.4388 12.5679L37.2299 11.7768L36.2232 10.7701L35.4321 11.5612L36.4388 12.5679ZM12.946 30.2027C12.4757 30.8767 12.5412 31.8112 13.1427 32.4126L16.0188 35.2887C16.6202 35.8902 17.5547 35.9557 18.2287 35.4854L12.946 30.2027ZM24.2155 35.2887C23.5405 35.9638 22.446 35.9638 21.7709 35.2887L13.1427 26.6605C12.4676 25.9855 12.4676 24.891 13.1427 24.2159C13.8178 23.5408 14.9123 23.5408 15.5874 24.2159L24.2155 32.844C24.8906 33.5191 24.8906 34.6136 24.2155 35.2887ZM35.9165 17.7977C36.3868 17.1236 36.3212 16.1892 35.7198 15.5877L32.8437 12.7117C32.2422 12.1102 31.3078 12.0446 30.6337 12.5149L35.9165 17.7977ZM35.7198 23.7845C36.3948 23.1094 36.3948 22.0149 35.7198 21.3398L27.0916 12.7117C26.4165 12.0366 25.322 12.0366 24.6469 12.7117C23.9719 13.3867 23.9719 14.4812 24.6469 15.1563L33.2751 23.7845C33.9502 24.4595 35.0447 24.4595 35.7198 23.7845Z" fill="black"/>
</svg>
