<svg width="20" height="20" viewBox="0 0 20 20" fill="none" xmlns="http://www.w3.org/2000/svg">
<path fill-rule="evenodd" clip-rule="evenodd" d="M3.97665 13.3794C3.70804 12.751 3.80908 12.0022 4.27977 11.4643C3.65359 10.7486 3.68163 9.65992 4.36386 8.97768C5.07534 8.26621 6.22886 8.26621 6.94033 8.97768L7.65935 9.6967L9.87631 7.47974L9.15729 6.76072C8.44582 6.04925 8.44582 4.89573 9.15729 4.18426C9.83953 3.50202 10.9282 3.47399 11.6439 4.10016C12.1818 3.62947 12.9306 3.52843 13.559 3.79705L14.0706 3.28542C14.4512 2.90486 15.0682 2.90486 15.4487 3.28542L16.0479 3.88459C16.4285 4.26515 16.4285 4.88215 16.0479 5.26271L15.5934 5.71722C16.0046 6.38552 15.9444 7.26176 15.4129 7.8692C16.0391 8.58485 16.0111 9.67356 15.3288 10.3558C14.6174 11.0673 13.4638 11.0673 12.7524 10.3558L11.8536 9.45703L9.63664 11.674L10.5354 12.5728C11.2469 13.2842 11.2469 14.4378 10.5354 15.1492C9.85316 15.8315 8.76445 15.8595 8.04881 15.2333C7.44136 15.7648 6.56512 15.825 5.89683 15.4138L5.26271 16.0479C4.88215 16.4285 4.26515 16.4285 3.88459 16.0479L3.28542 15.4487C2.90486 15.0682 2.90486 14.4512 3.28542 14.0706L3.97665 13.3794ZM5.08288 14.6699L4.66345 14.2505L4.15422 14.7597L4.57365 15.1791L5.08288 14.6699ZM8.8577 10.8951L11.0747 8.6781L10.6552 8.25867L8.43828 10.4756L8.8577 10.8951ZM14.8495 4.90327L15.1791 4.57365L14.7597 4.15422L14.4301 4.48385L14.8495 4.90327ZM5.06082 12.2511C4.86486 12.532 4.89218 12.9213 5.1428 13.1719L6.34115 14.3703C6.59177 14.6209 6.98111 14.6482 7.26197 14.4523L5.06082 12.2511ZM9.75647 14.3703C9.47519 14.6516 9.01915 14.6516 8.73787 14.3703L5.1428 10.7752C4.86152 10.4939 4.86152 10.0379 5.1428 9.75662C5.42408 9.47534 5.88012 9.47534 6.1614 9.75662L9.75647 13.3517C10.0377 13.633 10.0377 14.089 9.75647 14.3703ZM14.6319 7.08237C14.8278 6.8015 14.8005 6.41216 14.5499 6.16155L13.3515 4.96319C13.1009 4.71258 12.7116 4.68525 12.4307 4.88122L14.6319 7.08237ZM14.5499 9.57686C14.8312 9.29558 14.8312 8.83954 14.5499 8.55826L10.9548 4.96319C10.6735 4.68191 10.2175 4.68191 9.93622 4.96319C9.65494 5.24447 9.65494 5.70051 9.93622 5.98179L13.5313 9.57686C13.8126 9.85814 14.2686 9.85814 14.5499 9.57686Z" fill="black"/>
</svg>
