<svg width="24" height="24" viewBox="0 0 24 24" fill="none" xmlns="http://www.w3.org/2000/svg">
<path fill-rule="evenodd" clip-rule="evenodd" d="M6 4C4.89543 4 4 4.89543 4 6V18C4 19.1046 4.89543 20 6 20H18C19.1046 20 20 19.1046 20 18V6C20 4.89543 19.1046 4 18 4H6ZM10.8512 8.07331C11.112 7.92239 11.4453 8.01196 11.5959 8.27336L11.9044 8.80907L12.2076 8.28236C12.3581 8.02094 12.6916 7.93138 12.9522 8.08231C13.213 8.23323 13.3023 8.5675 13.1518 8.8289L10.7275 13.0389H12.4383L13.0811 14.132H8.83918L8.04513 14.1382C7.74406 14.1382 7.5 13.8935 7.5 13.5916C7.5 13.2898 7.74406 13.0451 8.04513 13.0451L9.46862 13.0389L11.2749 9.90219L10.6517 8.81992C10.5011 8.55851 10.5905 8.22424 10.8512 8.07331ZM14.5994 15.6755L12.4383 11.9226L13.0179 10.743L14.34 13.0389H15.9549C16.2559 13.0389 16.5 13.2836 16.5 13.5855C16.5 13.8873 16.2559 14.132 15.9549 14.132H14.9694L15.5435 15.129C15.694 15.3904 15.6047 15.7247 15.344 15.8756C15.0833 16.0265 14.7499 15.937 14.5994 15.6755ZM8.53744 14.6561L8.2357 15.1801C8.08516 15.4415 8.17453 15.7758 8.43522 15.9267C8.69596 16.0776 9.02934 15.988 9.17988 15.7266L9.79632 14.6561H8.53744Z" fill="black"/>
</svg>
