<svg width="20" height="20" viewBox="0 0 20 20" fill="none" xmlns="http://www.w3.org/2000/svg">
<path fill-rule="evenodd" clip-rule="evenodd" d="M8.48719 7.94046C8.48719 8.5766 8.83509 9.12643 9.3398 9.3869C9.53929 9.48987 9.76329 9.54762 10 9.54762C10.2367 9.54762 10.4607 9.48987 10.6602 9.3869C11.1649 9.12643 11.5128 8.5766 11.5128 7.94046C11.5128 7.05289 10.8355 6.33333 10 6.33333C9.16448 6.33333 8.48719 7.05289 8.48719 7.94046ZM10.8572 7.94046C10.8572 8.44345 10.4734 8.85119 10 8.85119C9.52657 8.85119 9.14276 8.44345 9.14276 7.94046C9.14276 7.43751 9.52657 7.02977 10 7.02977C10.4734 7.02977 10.8572 7.43751 10.8572 7.94046Z" fill="black"/>
<path fill-rule="evenodd" clip-rule="evenodd" d="M13.2612 11.5184C13.5542 10.767 12.9093 10.0833 12.1437 10.0833H7.85629C7.09071 10.0833 6.44582 10.767 6.73879 11.5184C6.9162 11.9734 7.17621 12.3868 7.50397 12.735C7.83178 13.0832 8.22088 13.3594 8.64914 13.5479C9.07745 13.7363 9.53644 13.8333 10 13.8333C10.4636 13.8333 10.9225 13.7363 11.3509 13.5479C11.7791 13.3594 12.1682 13.0832 12.496 12.735C12.8238 12.3868 13.0838 11.9734 13.2612 11.5184ZM12.6555 11.2519C12.5111 11.6224 12.2994 11.959 12.0325 12.2425C11.7655 12.5261 11.4487 12.751 11.1 12.9045C10.7512 13.0579 10.3775 13.1369 10 13.1369C9.62255 13.1369 9.24876 13.0579 8.90004 12.9045C8.55128 12.751 8.23446 12.5261 7.96753 12.2425C7.7006 11.959 7.48891 11.6224 7.34446 11.2519C7.33673 11.232 7.33139 11.2141 7.32788 11.1979C7.32534 11.1861 7.32376 11.1751 7.32295 11.165C7.32224 11.1561 7.32208 11.1479 7.32234 11.1402C7.32269 11.1292 7.32391 11.1195 7.32554 11.1107C7.33195 11.0758 7.35011 11.0304 7.39182 10.9802C7.48016 10.874 7.64979 10.7798 7.85629 10.7798H12.1437C12.3502 10.7798 12.5198 10.874 12.6082 10.9802C12.6499 11.0304 12.668 11.0758 12.6745 11.1107C12.6803 11.1421 12.681 11.1867 12.6555 11.2519Z" fill="black"/>
<path fill-rule="evenodd" clip-rule="evenodd" d="M13.7594 3.79366H12.6444C12.4547 3.32692 12.0154 3 11.5038 3H8.49625C7.98462 3 7.54532 3.32692 7.35565 3.79366H6.24059C5.55542 3.79366 5 4.37995 5 5.10317V15.0238C5 15.747 5.55542 16.3333 6.24059 16.3333H13.7594C14.4446 16.3333 15 15.747 15 15.0238V5.10317C15 4.37995 14.4446 3.79366 13.7594 3.79366ZM6.24059 4.82541H7.35565C7.54532 5.29212 7.98462 5.61904 8.49625 5.61904H11.5038C12.0154 5.61904 12.4547 5.29212 12.6444 4.82541H13.7594C13.9047 4.82541 14.0226 4.94977 14.0226 5.10317V15.0238C14.0226 15.1772 13.9047 15.3016 13.7594 15.3016H6.24059C6.09528 15.3016 5.97743 15.1772 5.97743 15.0238V5.10317C5.97743 4.94977 6.09528 4.82541 6.24059 4.82541ZM8.49625 4.03175C8.35093 4.03175 8.23308 4.15611 8.23308 4.30953C8.23308 4.46294 8.35093 4.5873 8.49625 4.5873H11.5038C11.6491 4.5873 11.7669 4.46294 11.7669 4.30953C11.7669 4.15611 11.6491 4.03175 11.5038 4.03175H8.49625Z" fill="black"/>
</svg>
