<svg width="28" height="28" viewBox="0 0 28 28" fill="none" xmlns="http://www.w3.org/2000/svg">
<path d="M9.08333 11.825C8.66452 11.825 8.325 12.1645 8.325 12.5833C8.325 13.0021 8.66452 13.3417 9.08333 13.3417H14.3333C14.7521 13.3417 15.0917 13.0021 15.0917 12.5833C15.0917 12.1645 14.7521 11.825 14.3333 11.825H9.08333Z" fill="black"/>
<path d="M12.4083 15.5C12.4083 15.0812 12.7479 14.7417 13.1667 14.7417H19.5833C20.0021 14.7417 20.3417 15.0812 20.3417 15.5C20.3417 15.9188 20.0021 16.2583 19.5833 16.2583H13.1667C12.7479 16.2583 12.4083 15.9188 12.4083 15.5Z" fill="black"/>
<path d="M10.8333 17.6583C10.4145 17.6583 10.075 17.9979 10.075 18.4167C10.075 18.8355 10.4145 19.175 10.8333 19.175H16.0833C16.5021 19.175 16.8417 18.8355 16.8417 18.4167C16.8417 17.9979 16.5021 17.6583 16.0833 17.6583H10.8333Z" fill="black"/>
<path fill-rule="evenodd" clip-rule="evenodd" d="M7.33333 5C6.04467 5 5 6.04467 5 7.33333V21.3333C5 22.622 6.04467 23.6667 7.33333 23.6667H21.3333C22.622 23.6667 23.6667 22.622 23.6667 21.3333V7.33333C23.6667 6.04467 22.622 5 21.3333 5H7.33333ZM7.50833 6.51667C6.96065 6.51667 6.51667 6.96065 6.51667 7.50833C6.51667 8.05602 6.96065 8.5 7.50833 8.5H21.1583C21.706 8.5 22.15 8.05602 22.15 7.50833C22.15 6.96065 21.706 6.51667 21.1583 6.51667H7.50833ZM6.51667 11.1833C6.51667 10.539 7.039 10.0167 7.68333 10.0167H20.9833C21.6277 10.0167 22.15 10.539 22.15 11.1833V20.9833C22.15 21.6277 21.6277 22.15 20.9833 22.15H7.68333C7.039 22.15 6.51667 21.6277 6.51667 20.9833V11.1833Z" fill="black"/>
</svg>
