<svg width="32" height="32" viewBox="0 0 32 32" fill="none" xmlns="http://www.w3.org/2000/svg">
<path fill-rule="evenodd" clip-rule="evenodd" d="M17.521 6.24411C18.5984 6.52173 19.5819 7.00368 20.1762 7.48048L20.213 7.51L26.0403 13.3314C26.4305 13.7212 26.4311 14.3535 26.0416 14.7441L23.7725 17.0197C23.3822 17.411 22.7485 17.411 22.3582 17.0197L20.3161 14.9718C20.1385 14.7936 19.8515 14.7936 19.6738 14.9718L14.0055 20.6562C13.9708 20.691 13.9418 20.7312 13.9197 20.7755L13.4976 21.6222C13.3925 21.8329 13.2542 22.0253 13.088 22.192L10.271 25.017L10.2669 25.0227C9.73262 26.0943 8.30545 26.3281 7.45865 25.4789L5.51273 23.5275C4.66888 22.6812 4.89831 21.2542 5.96822 20.7178L5.97329 20.7141L8.72132 17.9583C8.96145 17.7175 9.25437 17.5359 9.57698 17.428L10.8271 17.0102C10.8939 16.9878 10.9548 16.9501 11.0049 16.8999L16.7331 11.1555C16.7859 11.1026 16.8016 11.0663 16.805 11.0556C16.9245 10.6798 16.9153 10.4194 16.8681 10.2441C16.8221 10.0729 16.7236 9.92128 16.5554 9.784C16.1917 9.48722 15.5217 9.28305 14.6659 9.29693C13.8328 9.31044 12.9876 8.67019 12.9876 7.693C12.9876 7.12867 13.3073 6.51058 13.9587 6.2802C15.1446 5.86073 16.4424 5.96621 17.521 6.24411Z" fill="black"/>
</svg>
