<svg width="16" height="16" viewBox="0 0 16 16" fill="none" xmlns="http://www.w3.org/2000/svg">
<path d="M9.95492 12.8052C9.71552 12.8052 9.52144 12.9993 9.52144 13.2387C9.52144 13.4781 9.71552 13.6722 9.95492 13.6722H13.2365C13.4759 13.6722 13.67 13.4781 13.67 13.2387C13.67 12.9993 13.4759 12.8052 13.2365 12.8052H12.9567C12.993 12.7418 13.0137 12.6684 13.0137 12.5902C13.0137 12.3508 12.8196 12.1567 12.5802 12.1567H10.6113C10.3719 12.1567 10.1778 12.3508 10.1778 12.5902C10.1778 12.6684 10.1985 12.7418 10.2347 12.8052H9.95492Z" fill="black"/>
<path d="M8.64679 3.19415C8.38479 2.93528 7.95999 2.93528 7.69798 3.19415L5.86227 5.00782C5.60026 5.26668 5.60026 5.68639 5.86227 5.94525L6.39109 6.46772L9.16988 3.71095L8.64679 3.19415Z" fill="black"/>
<path d="M10.4825 10.51C10.7445 10.7689 11.1693 10.7689 11.4313 10.51L13.267 8.69635C13.529 8.43749 13.529 8.01779 13.267 7.75892L12.6922 7.19103L9.91344 9.9478L10.4825 10.51Z" fill="black"/>
<path fill-rule="evenodd" clip-rule="evenodd" d="M10.7795 5.82024C10.7127 5.77489 10.6547 5.71794 10.6085 5.65217L9.60207 4.22129L6.90876 6.89377L7.62337 7.38441L8.18317 7.76876L8.35015 7.8834C8.41672 7.92911 8.47436 7.98636 8.52027 8.05237L8.63567 8.21833L9.02207 8.774L9.48255 9.43619L12.1732 6.76628L10.7795 5.82024Z" fill="black"/>
<path d="M3.29048 13.051C2.90317 12.6684 2.90317 12.048 3.29048 11.6653L7.23436 7.76876L7.79106 8.15616C7.92059 8.23588 8.18317 8.47327 8.26489 8.58466L8.63567 9.15576L4.69307 13.051C4.30575 13.4337 3.6778 13.4337 3.29048 13.051Z" fill="black"/>
</svg>
