<svg width="48" height="48" viewBox="0 0 48 48" fill="none" xmlns="http://www.w3.org/2000/svg">
<path d="M8.21918 6.38075C7.71151 5.87308 6.88842 5.87308 6.38075 6.38075C5.87308 6.88842 5.87308 7.71151 6.38075 8.21918L39.7808 41.6192C40.2885 42.1269 41.1116 42.1269 41.6192 41.6192C42.1269 41.1116 42.1269 40.2885 41.6192 39.7808L8.21918 6.38075Z" fill="black"/>
<path d="M7.99995 38.7031V11.9998L10.5999 14.5998V28.5623C10.5999 29.1145 11.0476 29.5623 11.5999 29.5623H25.5624L28.1623 32.1622H11.5999C11.0476 32.1622 10.5999 32.6099 10.5999 33.1622V38.7031C10.5999 39.421 10.0179 40.003 9.29992 40.003C8.58196 40.003 7.99995 39.421 7.99995 38.7031Z" fill="black"/>
<path d="M11.9998 7.99995L14.5998 10.5999H36.5773C36.947 10.5999 37.1879 10.7858 37.2997 10.9915C37.4068 11.1883 37.4058 11.4058 37.2427 11.6159L32.1848 18.131C31.2871 19.2874 31.2871 20.8748 32.1848 22.0312L37.2427 28.5462C37.4058 28.7564 37.4068 28.9738 37.2997 29.1707C37.188 29.3763 36.947 29.5623 36.5773 29.5623H33.5621L36.1621 32.1622H36.5773C39.1992 32.1622 41.067 29.2327 39.2964 26.9519L34.2385 20.4368C34.0691 20.2186 34.0691 19.9436 34.2385 19.7253L39.2964 13.2102C41.067 10.9294 39.1992 7.99995 36.5773 7.99995H11.9998Z" fill="black"/>
</svg>
