<svg width="20" height="20" viewBox="0 0 20 20" fill="none" xmlns="http://www.w3.org/2000/svg">
<path fill-rule="evenodd" clip-rule="evenodd" d="M13.8333 8C15.214 8 16.3333 6.88071 16.3333 5.5C16.3333 4.11929 15.214 3 13.8333 3C12.4526 3 11.3333 4.11929 11.3333 5.5C11.3333 5.70943 11.3591 5.91285 11.4076 6.10727L7.44078 8.09067C6.9824 7.52687 6.28326 7.16667 5.5 7.16667C4.11929 7.16667 3 8.28595 3 9.66667C3 11.0474 4.11929 12.1667 5.5 12.1667C6.28326 12.1667 6.9824 11.8065 7.44078 11.2427L11.4076 13.2261C11.3591 13.4205 11.3333 13.6239 11.3333 13.8333C11.3333 15.214 12.4526 16.3333 13.8333 16.3333C15.214 16.3333 16.3333 15.214 16.3333 13.8333C16.3333 12.4526 15.214 11.3333 13.8333 11.3333C13.0501 11.3333 12.3509 11.6935 11.8925 12.2573L7.92573 10.2739C7.97425 10.0795 8 9.8761 8 9.66667C8 9.45723 7.97425 9.25381 7.92573 9.0594L11.8925 7.07599C12.3509 7.63979 13.0501 8 13.8333 8Z" fill="black"/>
</svg>
