<svg width="24" height="24" viewBox="0 0 24 24" fill="none" xmlns="http://www.w3.org/2000/svg">
<path d="M4 5C4 4.77484 4.07442 4.56705 4.2 4.3999C4.25686 4.32422 4.32422 4.25686 4.3999 4.2C4.56705 4.07442 4.77483 4 5 4H7.75C7.88807 4 8 4.11193 8 4.25V5.25C8 5.38807 7.88807 5.5 7.75 5.5H6.41924L9.45962 8.54038C9.71346 8.79422 9.71346 9.20578 9.45962 9.45962C9.20578 9.71346 8.79422 9.71346 8.54038 9.45962L5.5 6.41924V7.75C5.5 7.88807 5.38807 8 5.25 8H4.25C4.11193 8 4 7.88807 4 7.75V5Z" fill="black"/>
<path d="M20 19C20 19.2252 19.9256 19.4329 19.8 19.6001C19.7431 19.6758 19.6758 19.7431 19.6001 19.8C19.4329 19.9256 19.2252 20 19 20H16.25C16.1119 20 16 19.8881 16 19.75V18.75C16 18.6119 16.1119 18.5 16.25 18.5H17.5808L14.5404 15.4596C14.2865 15.2058 14.2865 14.7942 14.5404 14.5404C14.7942 14.2865 15.2058 14.2865 15.4596 14.5404L18.5 17.5808V16.25C18.5 16.1119 18.6119 16 18.75 16H19.75C19.8881 16 20 16.1119 20 16.25V19Z" fill="black"/>
<path d="M4.3999 19.8C4.56705 19.9256 4.77484 20 5 20H7.75C7.88807 20 8 19.8881 8 19.75V18.75C8 18.6119 7.88807 18.5 7.75 18.5H6.41924L9.45962 15.4596C9.71346 15.2058 9.71346 14.7942 9.45962 14.5404C9.20578 14.2865 8.79422 14.2865 8.54038 14.5404L5.5 17.5808L5.5 16.25C5.5 16.1119 5.38807 16 5.25 16H4.25C4.11193 16 4 16.1119 4 16.25V19C4 19.2252 4.07442 19.4329 4.2 19.6001C4.25686 19.6758 4.32422 19.7431 4.3999 19.8Z" fill="black"/>
<path d="M19 4C19.2252 4 19.4329 4.07442 19.6001 4.2C19.6758 4.25686 19.7431 4.32422 19.8 4.3999C19.9256 4.56705 20 4.77483 20 5V7.75C20 7.88807 19.8881 8 19.75 8H18.75C18.6119 8 18.5 7.88807 18.5 7.75V6.41924L15.4596 9.45962C15.2058 9.71346 14.7942 9.71346 14.5404 9.45962C14.2865 9.20578 14.2865 8.79422 14.5404 8.54038L17.5808 5.5H16.25C16.1119 5.5 16 5.38807 16 5.25V4.25C16 4.11193 16.1119 4 16.25 4H19Z" fill="black"/>
</svg>
