<svg width="16" height="16" viewBox="0 0 16 16" fill="none" xmlns="http://www.w3.org/2000/svg">
<path d="M13.6651 7.91436C13.6894 8.1622 13.429 8.3238 13.2073 8.21088L12.6543 7.9293C12.4644 7.83258 12.2398 7.83258 12.0498 7.9293L11.1636 8.38061C11.0687 8.42897 10.9563 8.42897 10.8614 8.38061L9.97517 7.9293C9.78525 7.83258 9.56059 7.83258 9.37067 7.9293L8.76647 8.23699V12.2096C8.76647 12.4782 8.66551 12.8444 8.38042 13.1469C8.08424 13.4611 7.62771 13.6667 6.9936 13.6667C6.31336 13.6667 5.84819 13.3678 5.56825 12.9718C5.30421 12.5983 5.22074 12.1639 5.22074 11.8685C5.22074 11.629 5.41472 11.4348 5.65402 11.4348C5.89331 11.4348 6.0873 11.629 6.0873 11.8685C6.0873 12.028 6.13778 12.2758 6.27562 12.4708C6.39756 12.6433 6.60217 12.7992 6.9936 12.7992C7.43116 12.7992 7.64442 12.6637 7.75012 12.5516C7.86691 12.4276 7.89991 12.2822 7.89991 12.2096V8.23684L7.296 7.9293C7.10608 7.83258 6.88142 7.83258 6.6915 7.9293L5.80529 8.38061C5.71033 8.42897 5.598 8.42897 5.50304 8.38061L4.61683 7.9293C4.42691 7.83258 4.20225 7.83258 4.01233 7.9293L3.45941 8.21088C3.23768 8.3238 2.97725 8.1622 3.00159 7.91436C3.12411 6.66641 3.66603 5.49313 4.54442 4.59848C5.5493 3.57499 6.91221 3 8.33333 3C9.75446 3 11.1174 3.57499 12.1223 4.59849C13.0006 5.49313 13.5426 6.66641 13.6651 7.91436Z" fill="black"/>
</svg>
