<svg width="28" height="28" viewBox="0 0 28 28" fill="none" xmlns="http://www.w3.org/2000/svg">
<path fill-rule="evenodd" clip-rule="evenodd" d="M7.33333 23.6667C6.04467 23.6667 5 22.622 5 21.3333C5 20.0447 6.04467 19 7.33333 19H13.1667C14.4553 19 15.5 20.0447 15.5 21.3333C15.5 22.622 14.4553 23.6667 13.1667 23.6667H7.33333Z" fill="black"/>
<path fill-rule="evenodd" clip-rule="evenodd" d="M7.33333 16.6667C6.04467 16.6667 5 15.622 5 14.3333C5 13.0447 6.04467 12 7.33333 12L16.6667 12C17.9553 12 19 13.0447 19 14.3333C19 15.622 17.9553 16.6667 16.6667 16.6667L7.33333 16.6667Z" fill="black"/>
<path fill-rule="evenodd" clip-rule="evenodd" d="M5 7.33333C5 8.622 6.04467 9.66667 7.33333 9.66667L21.3333 9.66667C22.622 9.66667 23.6667 8.622 23.6667 7.33334C23.6667 6.04467 22.622 5 21.3333 5L7.33334 5C6.04467 5 5 6.04467 5 7.33333Z" fill="black"/>
</svg>
