<svg width="48" height="48" viewBox="0 0 48 48" fill="none" xmlns="http://www.w3.org/2000/svg">
<path d="M20.4818 24.8706L21.2522 23.1085L23.5517 29.4534C24.1169 31.0129 26.3116 31.0428 26.919 29.4992L28.3157 25.9495H31.8412C32.5592 25.9495 33.1412 25.3675 33.1412 24.6495C33.1412 23.9315 32.5592 23.3495 31.8412 23.3495H27.7708C27.0311 23.3495 26.3667 23.802 26.0958 24.4904L25.2747 26.5771L23.014 20.3392C22.46 18.8106 20.3237 18.7417 19.6724 20.2314L18.3092 23.3495H15.3C14.582 23.3495 14 23.9315 14 24.6495C14 25.3675 14.582 25.9495 15.3 25.9495H18.8325C19.5478 25.9495 20.1952 25.526 20.4818 24.8706Z" fill="black"/>
<path fill-rule="evenodd" clip-rule="evenodd" d="M8 12C8 9.79086 9.79086 8 12 8H36C38.2091 8 40 9.79086 40 12V36C40 38.2091 38.2091 40 36 40H12C9.79086 40 8 38.2091 8 36V12ZM12 10.6H36C36.7732 10.6 37.4 11.2268 37.4 12V36C37.4 36.7732 36.7732 37.4 36 37.4H12C11.2268 37.4 10.6 36.7732 10.6 36V12C10.6 11.2268 11.2268 10.6 12 10.6Z" fill="black"/>
</svg>
