<svg width="16" height="16" viewBox="0 0 16 16" fill="none" xmlns="http://www.w3.org/2000/svg">
<path fill-rule="evenodd" clip-rule="evenodd" d="M5.19273 5.57774C5.51735 4.09807 6.80324 3 8.33333 3C9.86342 3 11.1493 4.09807 11.4739 5.57774C11.5206 5.79064 11.6657 5.89039 11.7685 5.89039H11.8566C12.8503 5.89039 13.6667 6.71818 13.6667 7.75309C13.6667 8.788 12.8503 9.61579 11.8566 9.61579H4.81007C3.81637 9.61579 3 8.788 3 7.75309C3 6.71818 3.81637 5.89039 4.81007 5.89039H4.89816C5.00094 5.89039 5.14603 5.79064 5.19273 5.57774ZM8.33333 3.835C7.17703 3.835 6.21542 4.66389 5.97413 5.76378C5.8691 6.24252 5.47642 6.7254 4.89816 6.7254H4.81007C4.2471 6.7254 3.80154 7.19168 3.80154 7.75309C3.80154 8.3145 4.2471 8.78079 4.81007 8.78079H11.8566C12.4196 8.78079 12.8651 8.3145 12.8651 7.75309C12.8651 7.19168 12.4196 6.7254 11.8566 6.7254H11.7685C11.1902 6.7254 10.7976 6.24252 10.6925 5.76378C10.4512 4.66389 9.48963 3.835 8.33333 3.835Z" fill="black"/>
<path d="M5.43333 10.8067C5.67266 10.8067 5.86667 10.6127 5.86667 10.3733C5.86667 10.134 5.67266 9.94 5.43333 9.94C5.19401 9.94 5 10.134 5 10.3733C5 10.6127 5.19401 10.8067 5.43333 10.8067Z" fill="black"/>
<path d="M8.86667 10.3733C8.86667 10.6127 8.67266 10.8067 8.43333 10.8067C8.19401 10.8067 8 10.6127 8 10.3733C8 10.134 8.19401 9.94 8.43333 9.94C8.67266 9.94 8.86667 10.134 8.86667 10.3733Z" fill="black"/>
<path d="M11.4333 10.8067C11.6727 10.8067 11.8667 10.6127 11.8667 10.3733C11.8667 10.134 11.6727 9.94 11.4333 9.94C11.194 9.94 11 10.134 11 10.3733C11 10.6127 11.194 10.8067 11.4333 10.8067Z" fill="black"/>
<path d="M10.3667 11.2333C10.3667 11.4727 10.1727 11.6667 9.93333 11.6667C9.69401 11.6667 9.5 11.4727 9.5 11.2333C9.5 10.994 9.69401 10.8 9.93333 10.8C10.1727 10.8 10.3667 10.994 10.3667 11.2333Z" fill="black"/>
<path d="M6.93333 11.6667C7.17266 11.6667 7.36667 11.4727 7.36667 11.2333C7.36667 10.994 7.17266 10.8 6.93333 10.8C6.69401 10.8 6.5 10.994 6.5 11.2333C6.5 11.4727 6.69401 11.6667 6.93333 11.6667Z" fill="black"/>
</svg>
