<svg width="28" height="28" viewBox="0 0 28 28" fill="none" xmlns="http://www.w3.org/2000/svg">
<path fill-rule="evenodd" clip-rule="evenodd" d="M14 4C12.067 4 10.5 5.567 10.5 7.5V13.3333C10.5 15.2663 12.067 16.8333 14 16.8333C15.933 16.8333 17.5 15.2663 17.5 13.3333V7.5C17.5 5.567 15.933 4 14 4ZM15.9833 7.5C15.9833 6.40464 15.0954 5.51667 14 5.51667C12.9046 5.51667 12.0167 6.40464 12.0167 7.5V13.3333C12.0167 14.4287 12.9046 15.3167 14 15.3167C15.0954 15.3167 15.9833 14.4287 15.9833 13.3333V7.5Z" fill="black"/>
<path d="M13.3 20.2981C12.5207 20.2193 11.7584 20.0094 11.0454 19.6756L11.0398 19.6729C10.1248 19.2435 9.31295 18.6201 8.66005 17.8455L8.65486 17.8393C8.00327 17.0644 7.52596 16.157 7.25569 15.1792L7.25457 15.1752C7.09079 14.5813 7.00574 13.97 7.00028 13.3571C6.99946 13.2647 7.00044 13.1723 7.00324 13.08C7.00514 13.0171 7.00788 12.9542 7.01146 12.8914C7.03436 12.4895 7.41284 12.2193 7.81017 12.2841C8.15627 12.3406 8.40153 12.6329 8.45004 12.9734C8.45709 13.0228 8.45998 13.0732 8.45844 13.1241C8.45682 13.1774 8.45597 13.2308 8.45587 13.2841C8.45497 13.7907 8.52273 14.2964 8.65838 14.7872L8.6595 14.7912C8.87432 15.5661 9.25338 16.2852 9.77065 16.8989L9.77585 16.905C10.2931 17.517 10.9358 18.0093 11.6599 18.3483L11.6656 18.351C12.3906 18.6894 13.1798 18.8662 13.9791 18.8693C14.7784 18.8723 15.569 18.7015 16.2965 18.3685L16.3021 18.3659C17.0287 18.0324 17.6751 17.545 18.1969 16.937L18.2022 16.9309C18.724 16.3211 19.1085 15.605 19.3291 14.8318L19.3303 14.8276C19.4696 14.338 19.5411 13.8328 19.544 13.3262C19.5444 13.2729 19.5439 13.2195 19.5427 13.1662C19.5415 13.1153 19.5448 13.0649 19.5522 13.0155C19.6033 12.6754 19.8507 12.3849 20.1973 12.3311C20.5951 12.2693 20.9715 12.5423 20.9914 12.9443C20.9945 13.0072 20.9967 13.0701 20.9982 13.133C21.0003 13.2254 21.0006 13.3178 20.999 13.4101C20.989 14.0229 20.8994 14.6335 20.7312 15.2262L20.73 15.2303C20.4524 16.206 19.9683 17.1098 19.3109 17.8797L19.3057 17.8859C18.647 18.6555 17.8305 19.2728 16.9122 19.6952L16.9066 19.6978C16.243 20.0024 15.5378 20.2001 14.8167 20.2853V23.075C14.8167 23.4938 14.4772 23.8333 14.0584 23.8333C13.6395 23.8333 13.3 23.4938 13.3 23.075V20.2981Z" fill="black"/>
</svg>
