<svg width="32" height="32" viewBox="0 0 32 32" fill="none" xmlns="http://www.w3.org/2000/svg">
<path fill-rule="evenodd" clip-rule="evenodd" d="M19.107 6.45563C19.8582 5.56544 20.9822 5 22.2383 5C24.4999 5 26.3333 6.83314 26.3333 9.09443C26.3333 10.3503 25.7678 11.4741 24.8775 12.2252L24.8863 12.234L12.1535 24.9647C11.9642 25.1541 11.723 25.2832 11.4603 25.3357L6.62338 26.3029C5.67415 26.4927 4.83725 25.656 5.0271 24.7069L5.99449 19.8706C6.04702 19.6081 6.1761 19.3669 6.36548 19.1776L19.0982 6.44681L19.107 6.45563ZM20.6312 7.57168C20.5163 7.69273 20.5328 7.8812 20.6508 7.99921L23.3337 10.6816C23.4517 10.7996 23.6402 10.8162 23.7613 10.7013C24.1867 10.2975 24.4522 9.72638 24.4522 9.09443C24.4522 7.87189 23.461 6.88083 22.2383 6.88083C21.6062 6.88083 21.035 7.14626 20.6312 7.57168ZM19.2211 9.46334C19.0887 9.33091 18.874 9.33091 18.7415 9.46334L7.88055 20.3226C7.8332 20.37 7.80093 20.4302 7.7878 20.4959L7.12576 23.8056C7.0783 24.0428 7.28753 24.252 7.52484 24.2046L10.835 23.5426C10.9007 23.5295 10.961 23.4972 11.0083 23.4499L21.8693 12.5906C22.0017 12.4582 22.0017 12.2435 21.8693 12.1111L19.2211 9.46334Z" fill="black"/>
</svg>
