<svg width="28" height="28" viewBox="0 0 28 28" fill="none" xmlns="http://www.w3.org/2000/svg">
<path d="M16.5 7.33333C16.5 8.622 15.4553 9.66667 14.1667 9.66667C12.878 9.66667 11.8333 8.622 11.8333 7.33333C11.8333 6.04467 12.878 5 14.1667 5C15.4553 5 16.5 6.04467 16.5 7.33333Z" fill="black"/>
<path d="M12.4167 10.25L7.16667 8.5C6.58333 8.5 6 8.90477 6 9.66667C6 10.4286 7.16667 10.8333 7.16667 10.8333L11.8333 12V16.6667L9.5 22.5C9.5 23.0833 10.0833 23.6667 10.6667 23.6667C11.8333 23.6667 11.7589 23.3439 11.8333 23.0833C12.2222 21.7222 13.1167 18.7667 13.5833 17.8333C14.05 16.9 14.5556 17.4444 14.75 17.8333L16.5 23.0833C16.5 23.2778 16.7333 23.6667 17.6667 23.6667C18.6 23.6667 18.8333 22.8889 18.8333 22.5L16.5 16.6667V12L21.1667 10.8333C21.1667 10.8333 22.3333 10.6 22.3333 9.66667C22.3333 8.73333 21.75 8.5 21.1667 8.5L15.9167 10.25C14.75 10.8333 13.5833 10.8333 12.4167 10.25Z" fill="black"/>
</svg>
