<svg width="24" height="24" viewBox="0 0 24 24" fill="none" xmlns="http://www.w3.org/2000/svg">
<path fill-rule="evenodd" clip-rule="evenodd" d="M7 7V6C7 4.89543 7.89543 4 9 4H15C16.1046 4 17 4.89543 17 6V7H18C19.1046 7 20 7.89543 20 9V15C20 16.1046 19.1046 17 18 17H17.25C17.1119 17 17 17.1119 17 17.25V19C17 19.5523 16.5523 20 16 20H8C7.44772 20 7 19.5523 7 19V17.25C7 17.1119 6.88807 17 6.75 17H6C4.89543 17 4 16.1046 4 15V9C4 7.89543 4.89543 7 6 7H7ZM8.3 6.3C8.3 5.74771 8.74772 5.3 9.3 5.3H14.7C15.2523 5.3 15.7 5.74771 15.7 6.3V6.75C15.7 6.88807 15.5881 7 15.45 7H8.55C8.41193 7 8.3 6.88807 8.3 6.75V6.3ZM15.2 18.7C15.4761 18.7 15.7 18.4761 15.7 18.2V13.8C15.7 13.5239 15.4761 13.3 15.2 13.3H8.8C8.52386 13.3 8.3 13.5239 8.3 13.8V18.2C8.3 18.4761 8.52386 18.7 8.8 18.7H15.2Z" fill="black"/>
</svg>
