<svg width="24" height="24" viewBox="0 0 24 24" fill="none" xmlns="http://www.w3.org/2000/svg">
<path fill-rule="evenodd" clip-rule="evenodd" d="M9.13649 5.26575C9.70662 4.53613 10.6345 4 12.001 4C13.3674 4 14.2953 4.53613 14.8655 5.26575C15.2273 5.72885 15.4281 6.24726 15.5225 6.70926H19.3519C19.7109 6.70926 20.0019 7.00028 20.0019 7.35926C20.0019 7.71825 19.7109 8.00926 19.3519 8.00926L18.2758 8.00984L17.5282 18.1477C17.4511 19.1923 16.5811 20.0006 15.5336 20.0006H8.46805C7.42054 20.0006 6.55051 19.1923 6.47347 18.1477L5.72581 8.00926H4.65C4.29101 8.00926 4 7.71825 4 7.35926C4 7.00028 4.29101 6.70926 4.65 6.70926H8.47941C8.57386 6.24726 8.77461 5.72885 9.13649 5.26575ZM13.8411 6.0662C13.9993 6.26863 14.1085 6.4932 14.1797 6.70926H9.82228C9.89347 6.4932 10.0026 6.26863 10.1608 6.0662C10.4728 5.66695 11.0151 5.3 12.001 5.3C12.9868 5.3 13.5291 5.66695 13.8411 6.0662ZM10.6905 10.2881C10.6905 9.92913 10.3995 9.63812 10.0405 9.63812C9.68152 9.63812 9.3905 9.92913 9.3905 10.2881V16.4223C9.3905 16.7813 9.68152 17.0723 10.0405 17.0723C10.3995 17.0723 10.6905 16.7813 10.6905 16.4223V10.2881ZM13.961 9.63812C14.32 9.63812 14.611 9.92913 14.611 10.2881V16.4223C14.611 16.7813 14.32 17.0723 13.961 17.0723C13.602 17.0723 13.311 16.7813 13.311 16.4223V10.2881C13.311 9.92913 13.602 9.63812 13.961 9.63812Z" fill="black"/>
</svg>
