<svg width="32" height="32" viewBox="0 0 32 32" fill="none" xmlns="http://www.w3.org/2000/svg">
<path fill-rule="evenodd" clip-rule="evenodd" d="M7.66667 8C6.19391 8 5 9.19391 5 10.6667V21.3333C5 22.8061 6.19391 24 7.66667 24H23.6667C25.1394 24 26.3333 22.8061 26.3333 21.3333V10.6667C26.3333 9.19391 25.1394 8 23.6667 8H7.66667ZM11.6667 12L11.5903 11.9999C10.9824 11.9988 10.0953 11.9972 9.40655 12.5712C8.66696 13.1875 8.33333 14.2884 8.33333 16C8.33333 17.7116 8.66696 18.8125 9.40654 19.4288C10.0953 20.0028 10.9824 20.0012 11.5903 20.0001L11.6667 20C12.0349 20 12.3333 19.7015 12.3333 19.3333C12.3333 18.9652 12.0349 18.6667 11.6667 18.6667C10.9414 18.6667 10.5419 18.6394 10.2601 18.4045C9.9997 18.1875 9.66667 17.6218 9.66667 16C9.66667 14.3782 9.9997 13.8125 10.2601 13.5955C10.5419 13.3607 10.9414 13.3333 11.6667 13.3333C12.0349 13.3333 12.3333 13.0349 12.3333 12.6667C12.3333 12.2985 12.0349 12 11.6667 12ZM14.3325 12.0118C14.7007 12.0118 14.9992 12.3103 14.9992 12.6785V15.0612H15.4434C15.8116 15.0612 16.1101 15.3597 16.1101 15.7279C16.1101 16.0961 15.8116 16.3945 15.4434 16.3945H14.9992V17.2889L14.9952 17.325C14.9676 17.5783 14.9992 17.9437 15.1406 18.2155C15.2063 18.3418 15.2888 18.4353 15.3901 18.4992C15.4892 18.5618 15.6423 18.6188 15.8878 18.6188C16.256 18.6188 16.5545 18.9173 16.5545 19.2855C16.5545 19.6537 16.256 19.9522 15.8878 19.9522C15.4223 19.9522 15.0162 19.8398 14.6789 19.627C14.3437 19.4157 14.1123 19.128 13.9577 18.8308C13.6674 18.2728 13.6258 17.6434 13.6659 17.2189V16.3945H13.2216C12.8534 16.3945 12.5549 16.0961 12.5549 15.7279C12.5549 15.3597 12.8534 15.0612 13.2216 15.0612H13.6659V12.6785C13.6659 12.3103 13.9643 12.0118 14.3325 12.0118ZM21.6646 12.0211C22.0327 12.0211 22.3312 12.3196 22.3312 12.6878V19.3418C22.3312 19.71 22.0327 20.0084 21.6646 20.0084C21.2964 20.0084 20.9979 19.71 20.9979 19.3418V12.6878C20.9979 12.3196 21.2964 12.0211 21.6646 12.0211ZM19.607 14.6667L19.6667 14.6667C20.0349 14.6667 20.3333 14.9652 20.3333 15.3333C20.3333 15.7015 20.0349 16 19.6667 16C19.1349 16 18.8477 16.0038 18.655 16.0466C18.5747 16.0645 18.5486 16.0823 18.5445 16.0853C18.5422 16.0869 18.54 16.0888 18.5365 16.093C18.5326 16.0977 18.5242 16.109 18.513 16.1315C18.4552 16.247 18.3947 16.4979 18.3636 17.0578C18.3336 17.5974 18.3333 18.3251 18.3333 19.3333C18.3333 19.7015 18.0349 20 17.6667 20C17.2985 20 17 19.7015 17 19.3333V19.3109C17 18.3299 17 17.5649 17.0323 16.9839C17.0637 16.4188 17.1281 15.9197 17.3204 15.5352C17.425 15.3259 17.5697 15.1441 17.7654 15.0033C17.9566 14.8656 18.1649 14.7897 18.3658 14.745C18.7199 14.6663 19.1592 14.6665 19.607 14.6667Z" fill="black"/>
</svg>
