<svg width="48" height="48" viewBox="0 0 48 48" fill="none" xmlns="http://www.w3.org/2000/svg">
<path fill-rule="evenodd" clip-rule="evenodd" d="M16 8C13.7909 8 12 9.79086 12 12V36C12 38.2091 13.7909 40 16 40H32C34.2091 40 36 38.2091 36 36V12C36 9.79086 34.2091 8 32 8H16ZM20 12.7C18.1775 12.7 16.7 14.1775 16.7 16V18C16.7 19.8225 18.1775 21.3 20 21.3H28C29.8225 21.3 31.3 19.8225 31.3 18V16C31.3 14.1775 29.8225 12.7 28 12.7H20ZM18 28C19.1046 28 20 27.1046 20 26C20 24.8954 19.1046 24 18 24C16.8954 24 16 24.8954 16 26C16 27.1046 16.8954 28 18 28ZM24 28C25.1046 28 26 27.1046 26 26C26 24.8954 25.1046 24 24 24C22.8954 24 22 24.8954 22 26C22 27.1046 22.8954 28 24 28ZM30 28C31.1046 28 32 27.1046 32 26C32 24.8954 31.1046 24 30 24C28.8954 24 28 24.8954 28 26C28 27.1046 28.8954 28 30 28ZM30 34C31.1046 34 32 33.1046 32 32C32 30.8954 31.1046 30 30 30C28.8954 30 28 30.8954 28 32C28 33.1046 28.8954 34 30 34ZM24 34C25.1046 34 26 33.1046 26 32C26 30.8954 25.1046 30 24 30C22.8954 30 22 30.8954 22 32C22 33.1046 22.8954 34 24 34ZM18 34C19.1046 34 20 33.1046 20 32C20 30.8954 19.1046 30 18 30C16.8954 30 16 30.8954 16 32C16 33.1046 16.8954 34 18 34Z" fill="black"/>
</svg>
