<svg width="16" height="16" viewBox="0 0 16 16" fill="none" xmlns="http://www.w3.org/2000/svg">
<path fill-rule="evenodd" clip-rule="evenodd" d="M6.33176 7.86667C7.17819 7.86667 7.86437 7.18017 7.86437 6.33333C7.86437 5.4865 7.17819 4.8 6.33176 4.8C5.48532 4.8 4.79915 5.4865 4.79915 6.33333C4.79915 7.18017 5.48532 7.86667 6.33176 7.86667ZM6.99811 6.33333C6.99811 6.70152 6.69977 7 6.33176 7C5.96374 7 5.66541 6.70152 5.66541 6.33333C5.66541 5.96514 5.96374 5.66667 6.33176 5.66667C6.69977 5.66667 6.99811 5.96514 6.99811 6.33333Z" fill="black"/>
<path fill-rule="evenodd" clip-rule="evenodd" d="M13.6616 12.3333V10.7333L13.6667 10.7293L13.6616 10.723V4.33333C13.6616 3.59695 13.065 3 12.3289 3H4.3327C3.59667 3 3 3.59695 3 4.33333V12.3333C3 13.0697 3.59667 13.6667 4.3327 13.6667H12.3289C13.065 13.6667 13.6616 13.0697 13.6616 12.3333ZM12.3289 3.86667H4.3327C4.07509 3.86667 3.86626 4.0756 3.86626 4.33333V10.1236L5.63697 8.94261C6.07305 8.65175 6.65371 8.70928 7.0243 9.08005L8.07547 10.1317C8.17801 10.2343 8.34828 10.2194 8.43145 10.1005L9.79789 8.14754C10.2186 7.54619 11.0988 7.51799 11.5572 8.09118L12.7954 9.63966V4.33333C12.7954 4.0756 12.5865 3.86667 12.3289 3.86667ZM3.86626 12.3333V11.1652L6.11748 9.66372C6.20999 9.60202 6.33316 9.61422 6.41177 9.69287L7.46293 10.7445C7.94635 11.2282 8.74906 11.1579 9.14111 10.5975L10.5076 8.64454C10.5968 8.51698 10.7835 8.511 10.8807 8.63259L12.7954 11.027V12.3333C12.7954 12.5911 12.5865 12.8 12.3289 12.8H4.3327C4.07509 12.8 3.86626 12.5911 3.86626 12.3333Z" fill="black"/>
</svg>
