<svg width="32" height="32" viewBox="0 0 32 32" fill="none" xmlns="http://www.w3.org/2000/svg">
<path d="M19.2 11.4C19.6786 11.4 20.0667 11.012 20.0667 10.5333C20.0667 10.0547 19.6786 9.66667 19.2 9.66667C18.7214 9.66667 18.3333 10.0547 18.3333 10.5333C18.3333 11.012 18.7214 11.4 19.2 11.4Z" fill="black"/>
<path d="M22.0667 10.5333C22.0667 11.012 21.6786 11.4 21.2 11.4C20.7214 11.4 20.3333 11.012 20.3333 10.5333C20.3333 10.0547 20.7214 9.66667 21.2 9.66667C21.6786 9.66667 22.0667 10.0547 22.0667 10.5333Z" fill="black"/>
<path d="M23.2 11.4C23.6786 11.4 24.0667 11.012 24.0667 10.5333C24.0667 10.0547 23.6786 9.66667 23.2 9.66667C22.7214 9.66667 22.3333 10.0547 22.3333 10.5333C22.3333 11.012 22.7214 11.4 23.2 11.4Z" fill="black"/>
<path d="M8.13333 17C8.13333 16.5214 8.52135 16.1333 9 16.1333H19.6667C20.1453 16.1333 20.5333 16.5214 20.5333 17C20.5333 17.4786 20.1453 17.8667 19.6667 17.8667H9C8.52135 17.8667 8.13333 17.4786 8.13333 17Z" fill="black"/>
<path d="M9 19.4667C8.52135 19.4667 8.13333 19.8547 8.13333 20.3333C8.13333 20.812 8.52135 21.2 9 21.2H15.6667C16.1453 21.2 16.5333 20.812 16.5333 20.3333C16.5333 19.8547 16.1453 19.4667 15.6667 19.4667H9Z" fill="black"/>
<path fill-rule="evenodd" clip-rule="evenodd" d="M7.66667 7C6.19391 7 5 8.19391 5 9.66667V23C5 24.4728 6.19391 25.6667 7.66667 25.6667H23.6667C25.1394 25.6667 26.3333 24.4728 26.3333 23V9.66667C26.3333 8.19391 25.1394 7 23.6667 7H7.66667ZM23.6667 8.73333H7.66667C7.1512 8.73333 6.73333 9.1512 6.73333 9.66667V11.8C6.73333 11.9841 6.88257 12.1333 7.06667 12.1333H24.2667C24.4508 12.1333 24.6 11.9841 24.6 11.8V9.66667C24.6 9.1512 24.1821 8.73333 23.6667 8.73333ZM6.73333 23V14.2C6.73333 14.0159 6.88257 13.8667 7.06667 13.8667H24.2667C24.4508 13.8667 24.6 14.0159 24.6 14.2V23C24.6 23.5155 24.1821 23.9333 23.6667 23.9333H7.66667C7.1512 23.9333 6.73333 23.5155 6.73333 23Z" fill="black"/>
</svg>
