<svg width="24" height="24" viewBox="0 0 24 24" fill="none" xmlns="http://www.w3.org/2000/svg">
<path fill-rule="evenodd" clip-rule="evenodd" d="M4.25 10.15C4.11193 10.15 4 10.2619 4 10.4V17C4 18.1046 4.89543 19 6 19H18C19.1046 19 20 18.1046 20 17V10.4C20 10.2619 19.8881 10.15 19.75 10.15H4.25ZM6.35 12.5C6.35 12.141 6.64102 11.85 7 11.85H15C15.359 11.85 15.65 12.141 15.65 12.5C15.65 12.859 15.359 13.15 15 13.15H7C6.64102 13.15 6.35 12.859 6.35 12.5ZM7 14.35C6.64102 14.35 6.35 14.641 6.35 15C6.35 15.359 6.64102 15.65 7 15.65H12C12.359 15.65 12.65 15.359 12.65 15C12.65 14.641 12.359 14.35 12 14.35H7Z" fill="black"/>
<path fill-rule="evenodd" clip-rule="evenodd" d="M6 5C4.89543 5 4 5.89543 4 7V8.6C4 8.73807 4.11193 8.85 4.25 8.85H19.75C19.8881 8.85 20 8.73807 20 8.6V7C20 5.89543 19.1046 5 18 5H6ZM14.65 8.3C15.009 8.3 15.3 8.00899 15.3 7.65C15.3 7.29101 15.009 7 14.65 7C14.291 7 14 7.29101 14 7.65C14 8.00899 14.291 8.3 14.65 8.3ZM16.15 8.3C16.509 8.3 16.8 8.00899 16.8 7.65C16.8 7.29101 16.509 7 16.15 7C15.791 7 15.5 7.29101 15.5 7.65C15.5 8.00899 15.791 8.3 16.15 8.3ZM17.65 8.3C18.009 8.3 18.3 8.00899 18.3 7.65C18.3 7.29101 18.009 7 17.65 7C17.291 7 17 7.29101 17 7.65C17 8.00899 17.291 8.3 17.65 8.3Z" fill="black"/>
</svg>
