<svg width="28" height="28" viewBox="0 0 28 28" fill="none" xmlns="http://www.w3.org/2000/svg">
<path fill-rule="evenodd" clip-rule="evenodd" d="M5.29167 12.0083C5.13058 12.0083 5 12.1389 5 12.3V20C5 21.2887 6.04467 22.3333 7.33333 22.3333H21.3333C22.622 22.3333 23.6667 21.2887 23.6667 20V12.3C23.6667 12.1389 23.5361 12.0083 23.375 12.0083H5.29167ZM7.74167 14.75C7.74167 14.3312 8.08118 13.9917 8.5 13.9917H17.8333C18.2521 13.9917 18.5917 14.3312 18.5917 14.75C18.5917 15.1688 18.2521 15.5083 17.8333 15.5083H8.5C8.08118 15.5083 7.74167 15.1688 7.74167 14.75ZM8.5 16.9083C8.08118 16.9083 7.74167 17.2479 7.74167 17.6667C7.74167 18.0855 8.08118 18.425 8.5 18.425H14.3333C14.7521 18.425 15.0917 18.0855 15.0917 17.6667C15.0917 17.2479 14.7521 16.9083 14.3333 16.9083H8.5Z" fill="black"/>
<path fill-rule="evenodd" clip-rule="evenodd" d="M7.33333 6C6.04467 6 5 7.04467 5 8.33333V10.2C5 10.3611 5.13058 10.4917 5.29167 10.4917H23.375C23.5361 10.4917 23.6667 10.3611 23.6667 10.2V8.33333C23.6667 7.04467 22.622 6 21.3333 6H7.33333ZM17.425 9.85C17.8438 9.85 18.1833 9.51048 18.1833 9.09167C18.1833 8.67285 17.8438 8.33333 17.425 8.33333C17.0062 8.33333 16.6667 8.67285 16.6667 9.09167C16.6667 9.51048 17.0062 9.85 17.425 9.85ZM19.175 9.85C19.5938 9.85 19.9333 9.51048 19.9333 9.09167C19.9333 8.67285 19.5938 8.33333 19.175 8.33333C18.7562 8.33333 18.4167 8.67285 18.4167 9.09167C18.4167 9.51048 18.7562 9.85 19.175 9.85ZM20.925 9.85C21.3438 9.85 21.6833 9.51048 21.6833 9.09167C21.6833 8.67285 21.3438 8.33333 20.925 8.33333C20.5062 8.33333 20.1667 8.67285 20.1667 9.09167C20.1667 9.51048 20.5062 9.85 20.925 9.85Z" fill="black"/>
</svg>
