<svg width="24" height="24" viewBox="0 0 24 24" fill="none" xmlns="http://www.w3.org/2000/svg">
<path fill-rule="evenodd" clip-rule="evenodd" d="M4 8C4 6.89543 4.89543 6 6 6H18C19.1046 6 20 6.89543 20 8V16C20 17.1046 19.1046 18 18 18H6C4.89543 18 4 17.1046 4 16V8ZM8 8.35C7.08873 8.35 6.35 9.08873 6.35 10V14C6.35 14.9113 7.08873 15.65 8 15.65H16C16.9113 15.65 17.65 14.9113 17.65 14V10C17.65 9.08873 16.9113 8.35 16 8.35H8Z" fill="black"/>
<path d="M16.35 12.65H10.65V14.35H16C16.1933 14.35 16.35 14.1933 16.35 14V12.65Z" fill="black"/>
<path d="M9.35 14.35V12.65H7.65V14C7.65 14.1933 7.8067 14.35 8 14.35H9.35Z" fill="black"/>
<path d="M8 9.65C7.8067 9.65 7.65 9.8067 7.65 10V11.35H16.35V10C16.35 9.8067 16.1933 9.65 16 9.65H8Z" fill="black"/>
</svg>
