<svg width="20" height="20" viewBox="0 0 20 20" fill="none" xmlns="http://www.w3.org/2000/svg">
<path d="M13.287 4.17633C13.4579 3.96749 13.7681 3.93491 13.9561 4.12847C14.2558 4.43689 14.5078 4.78936 14.7032 5.17446C14.9725 5.70515 15.1282 6.28615 15.1604 6.88039C15.1926 7.47463 15.1005 8.06906 14.8901 8.62571C14.7374 9.02966 14.5248 9.40728 14.2602 9.74624C14.0942 9.95896 13.7823 9.96008 13.5899 9.7709C13.3974 9.58171 13.3982 9.2741 13.557 9.05589C13.7303 8.81779 13.8714 8.55698 13.976 8.28018C14.1384 7.85057 14.2094 7.39183 14.1846 6.93322C14.1598 6.47461 14.0396 6.02623 13.8318 5.61666C13.6979 5.35277 13.5295 5.10873 13.3316 4.89072C13.1501 4.69092 13.1161 4.38519 13.287 4.17633Z" fill="black"/>
<path fill-rule="evenodd" clip-rule="evenodd" d="M8.34474 9.36733C7.52441 8.96208 6.95895 8.10662 6.95895 7.11686C6.95895 5.73586 8.05985 4.61634 9.41781 4.61634C10.7758 4.61634 11.8767 5.73586 11.8767 7.11686C11.8767 8.10662 11.3112 8.96208 10.4909 9.36733C10.1666 9.52753 9.80252 9.61739 9.41781 9.61739C9.03311 9.61739 8.66901 9.52753 8.34474 9.36733ZM9.41781 8.53382C10.1873 8.53382 10.8112 7.89943 10.8112 7.11686C10.8112 6.33429 10.1873 5.6999 9.41781 5.6999C8.6483 5.6999 8.02444 6.33429 8.02444 7.11686C8.02444 7.89943 8.6483 8.53382 9.41781 8.53382Z" fill="black"/>
<path fill-rule="evenodd" clip-rule="evenodd" d="M12.9021 10.4509C14.1464 10.4509 15.1946 11.5146 14.7184 12.6837C14.4301 13.3916 14.0075 14.0348 13.4747 14.5766C12.942 15.1183 12.3095 15.5481 11.6134 15.8413C10.9173 16.1345 10.1712 16.2855 9.41781 16.2855C8.66438 16.2855 7.91832 16.1345 7.22222 15.8413C6.52617 15.5481 5.89367 15.1183 5.36092 14.5766C4.82817 14.0348 4.40557 13.3916 4.11722 12.6837C3.64105 11.5146 4.68924 10.4509 5.93355 10.4509H12.9021ZM12.7213 13.8104C13.1551 13.3692 13.4992 12.8454 13.734 12.269C13.7753 12.1677 13.7741 12.0982 13.7647 12.0494C13.7543 11.995 13.7248 11.9244 13.657 11.8464C13.5134 11.6811 13.2377 11.5345 12.9021 11.5345H5.93355C5.59789 11.5345 5.32226 11.6811 5.17864 11.8464C5.11083 11.9244 5.08132 11.995 5.07089 12.0494C5.06148 12.0982 5.06036 12.1677 5.10162 12.269C5.3364 12.8454 5.68051 13.3692 6.11435 13.8104C6.54815 14.2515 7.06319 14.6015 7.62997 14.8402C8.1968 15.079 8.80428 15.2019 9.41781 15.2019C10.0313 15.2019 10.6388 15.079 11.2057 14.8402C11.7724 14.6015 12.2875 14.2515 12.7213 13.8104Z" fill="black"/>
<path d="M12.9742 5.34358C12.8307 5.14907 12.5505 5.15068 12.3796 5.32158C12.2087 5.49246 12.2136 5.76777 12.3442 5.97109C12.4098 6.07308 12.4662 6.18096 12.5128 6.2935C12.6155 6.54127 12.6683 6.80682 12.6683 7.07498C12.6683 7.34315 12.6155 7.60869 12.5128 7.85646C12.4662 7.969 12.4098 8.07688 12.3442 8.17887C12.2136 8.3822 12.2087 8.6575 12.3796 8.82838C12.5505 8.99928 12.8307 9.00089 12.9742 8.80638C13.1141 8.61663 13.2308 8.41018 13.3214 8.19137C13.468 7.83743 13.5435 7.45808 13.5435 7.07498C13.5435 6.69188 13.468 6.31253 13.3214 5.95859C13.2308 5.73979 13.1141 5.53333 12.9742 5.34358Z" fill="black"/>
</svg>
