<svg width="24" height="24" viewBox="0 0 24 24" fill="none" xmlns="http://www.w3.org/2000/svg">
<path fill-rule="evenodd" clip-rule="evenodd" d="M14.5803 5.09189C15.1436 4.42415 15.9866 4 16.9287 4C18.6249 4 20 5.37507 20 7.0713C20 8.01337 19.5759 8.85637 18.9081 9.41976L18.9147 9.42634L9.36515 18.9759C9.22312 19.1179 9.04222 19.2147 8.84525 19.2541L5.21754 19.9797C4.50562 20.1221 3.87794 19.4944 4.02032 18.7825L4.74587 15.1547C4.78526 14.9578 4.88208 14.7769 5.02411 14.6348L14.5736 5.08528L14.5803 5.09189ZM15.7234 5.92906C15.6372 6.01986 15.6496 6.16124 15.7381 6.24976L17.7503 8.26189C17.8388 8.35041 17.9801 8.3628 18.0709 8.27662C18.3901 7.97375 18.5892 7.54534 18.5892 7.0713C18.5892 6.15426 17.8457 5.41084 16.9287 5.41084C16.4547 5.41084 16.0263 5.60994 15.7234 5.92906ZM14.6659 7.34803C14.5665 7.24869 14.4055 7.24869 14.3061 7.34803L6.16041 15.4938C6.1249 15.5293 6.1007 15.5745 6.09085 15.6237L5.59432 18.1064C5.55873 18.2844 5.71565 18.4413 5.89363 18.4057L8.37625 17.9092C8.42549 17.8993 8.47071 17.8751 8.50622 17.8396L16.652 9.69385C16.7513 9.59452 16.7513 9.43347 16.652 9.33413L14.6659 7.34803Z" fill="black"/>
</svg>
