<svg width="48" height="48" viewBox="0 0 48 48" fill="none" xmlns="http://www.w3.org/2000/svg">
<path fill-rule="evenodd" clip-rule="evenodd" d="M14.7605 14.1974C13.1166 16.174 12.5993 18.5692 12.5993 20.143V25.9816H18.3656C19.4698 25.9816 20.365 26.877 20.365 27.9815V33.9907C20.365 35.0952 19.4698 35.9906 18.3656 35.9906H13.9989C11.7903 35.9906 10 34.1998 10 31.9908V20.143C10 18.1024 10.6487 15.0761 12.7622 12.5348C14.9184 9.94206 18.4788 8 23.9968 8C29.5148 8 33.0752 9.94206 35.2314 12.5348C37.3448 15.0761 37.9935 18.1024 37.9935 20.143V25.9992H38V32.0083C38 32.0938 37.9973 32.1787 37.992 32.2628V34.7003C37.992 37.6272 35.6198 40 32.6935 40H25.9954C25.2776 40 24.6958 39.418 24.6958 38.7001C24.6958 37.9821 25.2776 37.4001 25.9954 37.4001H32.6935C33.7756 37.4001 34.709 36.7632 35.1394 35.8438C34.7786 35.9507 34.3966 36.0082 34.0011 36.0082H29.6344C28.5302 36.0082 27.635 35.1128 27.635 34.0082V27.9991C27.635 26.8946 28.5302 25.9992 29.6344 25.9992H35.3943V20.143C35.3943 18.5692 34.8769 16.174 33.2331 14.1974C31.632 12.2722 28.8438 10.5999 23.9968 10.5999C19.1498 10.5999 16.3616 12.2722 14.7605 14.1974ZM35.4007 31.8541C35.3955 31.9017 35.3928 31.95 35.3928 31.9989V32.1586C35.3178 32.8611 34.7234 33.4083 34.0011 33.4083H30.2342V28.599H35.4007V31.8541ZM12.5993 28.5815H17.7658V33.3907H13.9989C13.2259 33.3907 12.5993 32.764 12.5993 31.9908V28.5815Z" fill="black"/>
</svg>
