<svg width="24" height="24" viewBox="0 0 24 24" fill="none" xmlns="http://www.w3.org/2000/svg">
<path fill-rule="evenodd" clip-rule="evenodd" d="M14.7814 5.15C14.7814 4.51487 15.2962 4 15.9314 4H18.8519C19.487 4 20.0019 4.51487 20.0019 5.15V6.11026C20.0019 6.74539 19.487 7.26026 18.8519 7.26026H16.0814V7.52253C17.408 7.74812 18.3475 8.36699 18.9749 9.14152C19.7466 10.0942 20.0019 11.2268 20.0019 12.001V16.4016C20.0019 17.0367 19.4871 17.5516 18.8519 17.5516H14.1212V18.8519C14.1212 19.4871 13.6063 20.0019 12.9712 20.0019H11.0308C10.3956 20.0019 9.88078 19.4871 9.88078 18.8519V17.5516H5.15C4.51543 17.5516 4 17.0376 4 16.4019V12.001C4 8.89587 6.22256 7.67238 7.43201 7.44836C7.5046 7.43491 7.57165 7.43045 7.63174 7.43045H14.7814V5.15ZM14.7814 12.491V8.73045H11.1687C11.2914 8.89396 11.3998 9.06586 11.4948 9.2418C12.0014 10.1801 12.1609 11.2747 12.1609 12.001V16.2516H18.7019V12.001C18.7019 11.4683 18.5163 10.6407 17.9647 9.95977C17.5783 9.48265 16.9881 9.04681 16.0814 8.84639V12.491C16.0814 12.85 15.7904 13.141 15.4314 13.141C15.0724 13.141 14.7814 12.85 14.7814 12.491ZM12.8212 18.7019V17.5516H11.1808V18.7019H12.8212ZM6.61026 11.351C6.25127 11.351 5.96026 11.642 5.96026 12.001C5.96026 12.36 6.25127 12.651 6.61026 12.651H9.06058C9.41957 12.651 9.71058 12.36 9.71058 12.001C9.71058 11.642 9.41957 11.351 9.06058 11.351H6.61026Z" fill="black"/>
</svg>
