<svg width="24" height="24" viewBox="0 0 24 24" fill="none" xmlns="http://www.w3.org/2000/svg">
<path d="M12.85 10.3846V11.1192H12C11.5908 11.1192 11.4086 10.9734 11.3125 10.8502C11.1933 10.6974 11.15 10.5003 11.15 10.3846C11.15 10.269 11.1933 10.0718 11.3125 9.919C11.4086 9.7958 11.5908 9.65 12 9.65C12.4092 9.65 12.5914 9.7958 12.6875 9.919C12.8067 10.0718 12.85 10.269 12.85 10.3846Z" fill="black"/>
<path fill-rule="evenodd" clip-rule="evenodd" d="M12 20C16.4183 20 20 16.4183 20 12C20 7.58172 16.4183 4 12 4C7.58172 4 4 7.58172 4 12C4 16.4183 7.58172 20 12 20ZM12 8.35C11.2092 8.35 10.6414 8.66573 10.2875 9.11946C9.95668 9.54355 9.85 10.0387 9.85 10.3846C9.85 10.7305 9.95668 11.2257 10.2875 11.6498C10.6414 12.1035 11.2092 12.4192 12 12.4192H12.85V13.6154C12.85 13.731 12.8067 13.9282 12.6875 14.081C12.5914 14.2042 12.4092 14.35 12 14.35C11.5892 14.35 11.3782 14.2003 11.2654 14.0847C11.2028 14.0205 11.1615 13.9566 11.1372 13.9116C11.1252 13.8895 11.118 13.8733 11.115 13.866L11.114 13.8636C10.9983 13.5301 10.6363 13.3491 10.2991 13.4588C9.95769 13.5697 9.77087 13.9364 9.88183 14.2778L10.5 14.0769C9.88183 14.2778 9.88171 14.2775 9.88183 14.2778L9.88231 14.2793L9.88282 14.2809L9.88395 14.2842L9.88662 14.2921L9.89372 14.312C9.89925 14.327 9.90645 14.3456 9.91549 14.3672C9.93353 14.4104 9.95919 14.4663 9.99409 14.5307C10.0635 14.6588 10.1722 14.8257 10.3346 14.9922C10.6718 15.3381 11.2108 15.65 12 15.65C12.7908 15.65 13.3586 15.3343 13.7125 14.8805C14.0433 14.4564 14.15 13.9613 14.15 13.6154V10.3846C14.15 10.0387 14.0433 9.54355 13.7125 9.11946C13.3586 8.66573 12.7908 8.35 12 8.35Z" fill="black"/>
</svg>
