<svg width="32" height="32" viewBox="0 0 32 32" fill="none" xmlns="http://www.w3.org/2000/svg">
<path d="M17.096 9.6811C17.4562 9.36591 18.0037 9.40241 18.3189 9.76263L22.2173 14.218C22.9431 15.0474 22.9431 16.2859 22.2173 17.1154L18.3189 21.5707C18.0037 21.9309 17.4562 21.9674 17.096 21.6522C16.7357 21.337 16.6992 20.7895 17.0144 20.4293L20.9128 15.974C21.0668 15.798 21.0668 15.5353 20.9128 15.3594L17.0144 10.904C16.6992 10.5438 16.7357 9.99629 17.096 9.6811Z" fill="black"/>
<path d="M13.0144 21.5707C13.3296 21.9309 13.8772 21.9674 14.2374 21.6522C14.5976 21.337 14.6341 20.7895 14.3189 20.4293L10.4205 15.974C10.2665 15.798 10.2665 15.5353 10.4205 15.3594L14.3189 10.904C14.6341 10.5438 14.5976 9.99629 14.2374 9.6811C13.8772 9.36591 13.3296 9.40241 13.0144 9.76263L9.11602 14.218C8.39025 15.0474 8.39025 16.2859 9.11602 17.1154L13.0144 21.5707Z" fill="black"/>
<path fill-rule="evenodd" clip-rule="evenodd" d="M7.66667 5C6.19391 5 5 6.19391 5 7.66667V23.6667C5 25.1394 6.19391 26.3333 7.66667 26.3333H23.6667C25.1394 26.3333 26.3333 25.1394 26.3333 23.6667V7.66667C26.3333 6.19391 25.1394 5 23.6667 5H7.66667ZM23.6667 6.73333H7.66667C7.1512 6.73333 6.73333 7.1512 6.73333 7.66667V23.6667C6.73333 24.1821 7.1512 24.6 7.66667 24.6H23.6667C24.1821 24.6 24.6 24.1821 24.6 23.6667V7.66667C24.6 7.1512 24.1821 6.73333 23.6667 6.73333Z" fill="black"/>
</svg>
