<svg width="16" height="16" viewBox="0 0 16 16" fill="none" xmlns="http://www.w3.org/2000/svg">
<path fill-rule="evenodd" clip-rule="evenodd" d="M5.56667 8.33333C5.56667 7.72582 6.05915 7.23333 6.66667 7.23333H9.33333C9.94085 7.23333 10.4333 7.72582 10.4333 8.33333V11C10.4333 11.6075 9.94085 12.1 9.33333 12.1H6.66667C6.05915 12.1 5.56667 11.6075 5.56667 11V8.33333ZM8.43333 11.2333H9.33333C9.4622 11.2333 9.56667 11.1289 9.56667 11V10.1H8.43333V11.2333ZM9.56667 9.23333V8.33333C9.56667 8.20447 9.4622 8.1 9.33333 8.1H8.43333V9.23333H9.56667ZM7.56667 8.1V11.2333H6.66667C6.5378 11.2333 6.43333 11.1289 6.43333 11V8.33333C6.43333 8.20447 6.5378 8.1 6.66667 8.1H7.56667Z" fill="black"/>
<path fill-rule="evenodd" clip-rule="evenodd" d="M11.8047 6.13807C11.9298 6.2631 12 6.43266 12 6.60948V13C12 13.3682 11.7015 13.6667 11.3333 13.6667H4.66667C4.29848 13.6667 4 13.3682 4 13V3.66667C4 3.29848 4.29848 3 4.66667 3H8.39052C8.56734 3 8.7369 3.07024 8.86193 3.19526L11.8047 6.13807ZM11.1333 6.69232L8.30768 3.86667H4.86667V12.8H11.1333V6.69232Z" fill="black"/>
</svg>
