<svg width="32" height="32" viewBox="0 0 32 32" fill="none" xmlns="http://www.w3.org/2000/svg">
<path fill-rule="evenodd" clip-rule="evenodd" d="M7.66667 19.6667H11.6667V23.6667C11.6667 25.1394 12.8606 26.3333 14.3333 26.3333H23.6667C25.1394 26.3333 26.3333 25.1394 26.3333 23.6667V14.3333C26.3333 12.8606 25.1394 11.6667 23.6667 11.6667H19.6667V7.66667C19.6667 6.19391 18.4728 5 17 5H7.66667C6.19391 5 5 6.19391 5 7.66667V17C5 18.4728 6.19391 19.6667 7.66667 19.6667ZM17 6.73333H7.66667C7.1512 6.73333 6.73333 7.1512 6.73333 7.66667V17C6.73333 17.5155 7.1512 17.9333 7.66667 17.9333H11.6667V14.3333C11.6667 12.8606 12.8606 11.6667 14.3333 11.6667H17.9333V7.66667C17.9333 7.1512 17.5155 6.73333 17 6.73333ZM23.6667 13.4H19.6667V17C19.6667 18.4728 18.4728 19.6667 17 19.6667H13.4V23.6667C13.4 24.1821 13.8179 24.6 14.3333 24.6H23.6667C24.1821 24.6 24.6 24.1821 24.6 23.6667V14.3333C24.6 13.8179 24.1821 13.4 23.6667 13.4ZM16.9905 13.4L13.4 16.9905V16.2095L16.2095 13.4H16.9905ZM13.4 14.3238L14.3238 13.4C13.8159 13.4051 13.4051 13.8159 13.4 14.3238ZM17.9333 14.3428L14.3428 17.9333H15.1239L17.9333 15.1239V14.3428ZM17.9333 17.0095L17.0095 17.9333C17.5174 17.9282 17.9282 17.5174 17.9333 17.0095Z" fill="black"/>
</svg>
