<svg width="20" height="20" viewBox="0 0 20 20" fill="none" xmlns="http://www.w3.org/2000/svg">
<path fill-rule="evenodd" clip-rule="evenodd" d="M4.90905 4.10576C5.31584 4.04833 5.91452 4.08906 6.3879 4.35904C6.75132 4.56631 7.0874 4.93254 7.18198 5.62816H5.66667C4.74619 5.62816 4 6.37435 4 7.29482V14.6669C4 15.5874 4.74619 16.3336 5.66667 16.3336H14C14.9205 16.3336 15.6667 15.5874 15.6667 14.6669V7.29482C15.6667 6.56397 15.1962 5.94298 14.5417 5.71815V4.27283C14.5417 3.81259 14.1686 3.43949 13.7083 3.43949H10.5417C10.0814 3.43949 9.70833 3.81259 9.70833 4.27282V5.62816H8.27219C8.16505 4.52887 7.62653 3.81833 6.9246 3.418C6.1827 2.99487 5.32305 2.95324 4.75762 3.03306C4.4614 3.07488 4.25517 3.34891 4.29698 3.64513C4.3388 3.94135 4.61283 4.14758 4.90905 4.10576ZM13.4583 4.98949V5.62816H10.7917V4.98949C10.7917 4.73176 11.0006 4.52282 11.2583 4.52282H12.9917C13.2494 4.52282 13.4583 4.73176 13.4583 4.98949ZM7.67767 8.47616C7.44674 8.28599 7.10537 8.31903 6.9152 8.54996C6.72503 8.78089 6.75807 9.12226 6.989 9.31243L8.98124 10.953L6.989 12.5936C6.75807 12.7838 6.72503 13.1252 6.9152 13.3561C7.10537 13.587 7.44674 13.6201 7.67767 13.4299L9.83333 11.6547L11.989 13.4299C12.2199 13.6201 12.5613 13.587 12.7515 13.3561C12.9416 13.1252 12.9086 12.7838 12.6777 12.5936L10.6854 10.953L12.6777 9.31243C12.9086 9.12226 12.9416 8.78089 12.7515 8.54996C12.5613 8.31903 12.2199 8.28599 11.989 8.47616L9.83333 10.2513L7.67767 8.47616Z" fill="black"/>
</svg>
