<svg width="32" height="32" viewBox="0 0 32 32" fill="none" xmlns="http://www.w3.org/2000/svg">
<path fill-rule="evenodd" clip-rule="evenodd" d="M15.6667 26.33C21.5577 26.33 26.3333 21.5551 26.3333 15.665C26.3333 9.77489 21.5577 5 15.6667 5C9.77563 5 5 9.77489 5 15.665C5 21.5551 9.77563 26.33 15.6667 26.33ZM16.5334 9.66594C16.5334 9.18737 16.1453 8.79941 15.6667 8.79941C15.188 8.79941 14.8 9.18737 14.8 9.66594V15.7478C14.8 15.9246 14.8702 16.0942 14.9952 16.2192L19.0539 20.2771C19.3923 20.6155 19.941 20.6155 20.2795 20.2771C20.6179 19.9387 20.6179 19.39 20.2795 19.0516L16.7286 15.5013C16.6036 15.3763 16.5334 15.2068 16.5334 15.03V9.66594Z" fill="black"/>
</svg>
