<svg width="32" height="32" viewBox="0 0 32 32" fill="none" xmlns="http://www.w3.org/2000/svg">
<path fill-rule="evenodd" clip-rule="evenodd" d="M7 7.10262C7 5.94292 7.93754 5 9.09749 5C10.2574 5 11.195 5.94292 11.195 7.10262C11.195 8.26233 10.2574 9.20524 9.09749 9.20524C7.93754 9.20524 7 8.26233 7 7.10262Z" fill="black"/>
<path fill-rule="evenodd" clip-rule="evenodd" d="M13.3466 7.10262C13.3466 5.94292 14.2842 5 15.4441 5C16.6041 5 17.5416 5.94292 17.5416 7.10262C17.5416 8.26233 16.6041 9.20524 15.4441 9.20524C14.2842 9.20524 13.3466 8.26233 13.3466 7.10262Z" fill="black"/>
<path fill-rule="evenodd" clip-rule="evenodd" d="M19.6933 7.10262C19.6933 5.94292 20.6308 5 21.7907 5C22.9507 5 23.8882 5.94292 23.8882 7.10262C23.8882 8.26233 22.9507 9.20524 21.7907 9.20524C20.6308 9.20524 19.6933 8.26233 19.6933 7.10262Z" fill="black"/>
<path fill-rule="evenodd" clip-rule="evenodd" d="M7 12.8348C7 11.6751 7.93754 10.7322 9.09749 10.7322C10.2574 10.7322 11.195 11.6751 11.195 12.8348C11.195 13.9945 10.2574 14.9374 9.09749 14.9374C7.93754 14.9374 7 13.9945 7 12.8348Z" fill="black"/>
<path fill-rule="evenodd" clip-rule="evenodd" d="M13.3466 12.8348C13.3466 11.6751 14.2842 10.7322 15.4441 10.7322C16.6041 10.7322 17.5416 11.6751 17.5416 12.8348C17.5416 13.9945 16.6041 14.9374 15.4441 14.9374C14.2842 14.9374 13.3466 13.9945 13.3466 12.8348Z" fill="black"/>
<path fill-rule="evenodd" clip-rule="evenodd" d="M19.6933 12.8348C19.6933 11.6751 20.6308 10.7322 21.7907 10.7322C22.9507 10.7322 23.8882 11.6751 23.8882 12.8348C23.8882 13.9945 22.9507 14.9374 21.7907 14.9374C20.6308 14.9374 19.6933 13.9945 19.6933 12.8348Z" fill="black"/>
<path fill-rule="evenodd" clip-rule="evenodd" d="M7 18.567C7 17.4073 7.93754 16.4644 9.09749 16.4644C10.2574 16.4644 11.195 17.4073 11.195 18.567C11.195 19.7267 10.2574 20.6696 9.09749 20.6696C7.93754 20.6696 7 19.7267 7 18.567Z" fill="black"/>
<path fill-rule="evenodd" clip-rule="evenodd" d="M13.3466 18.567C13.3466 17.4073 14.2842 16.4644 15.4441 16.4644C16.6041 16.4644 17.5416 17.4073 17.5416 18.567C17.5416 19.7267 16.6041 20.6696 15.4441 20.6696C14.2842 20.6696 13.3466 19.7267 13.3466 18.567Z" fill="black"/>
<path fill-rule="evenodd" clip-rule="evenodd" d="M19.6933 18.567C19.6933 17.4073 20.6308 16.4644 21.7907 16.4644C22.9507 16.4644 23.8882 17.4073 23.8882 18.567C23.8882 19.7267 22.9507 20.6696 21.7907 20.6696C20.6308 20.6696 19.6933 19.7267 19.6933 18.567Z" fill="black"/>
<path fill-rule="evenodd" clip-rule="evenodd" d="M13.3501 24.2307C13.3501 23.071 14.2876 22.1281 15.4475 22.1281C16.6075 22.1281 17.545 23.071 17.545 24.2307C17.545 25.3904 16.6075 26.3333 15.4475 26.3333C14.2876 26.3333 13.3501 25.3904 13.3501 24.2307Z" fill="black"/>
</svg>
