<svg width="32" height="32" viewBox="0 0 32 32" fill="none" xmlns="http://www.w3.org/2000/svg">
<path fill-rule="evenodd" clip-rule="evenodd" d="M9.10855 5C7.4137 5 6.41382 6.80605 7.374 8.13306L12.0053 14.5336C12.4991 15.2161 12.4991 16.1172 12.0053 16.7997L7.374 23.2003C6.41382 24.5273 7.4137 26.3333 9.10855 26.3333H23.5581C25.253 26.3333 26.2528 24.5273 25.2927 23.2003L20.6614 16.7997C20.1676 16.1172 20.1676 15.2161 20.6614 14.5336L25.2927 8.13306C26.2528 6.80605 25.253 5 23.5581 5H9.10855ZM23.5581 6.73333H9.10855C8.91122 6.73333 8.80821 6.82514 8.76208 6.90845C8.73758 6.95272 8.73251 6.98911 8.73344 7.01166C8.73408 7.02704 8.73742 7.0605 8.77828 7.11696L13.4095 13.5175C14.3421 14.8064 14.3421 16.527 13.4095 17.8158L8.77828 24.2164C8.73742 24.2728 8.73408 24.3063 8.73344 24.3217C8.73251 24.3442 8.73758 24.3806 8.76208 24.4249C8.80821 24.5082 8.91122 24.6 9.10855 24.6H23.5581C23.7554 24.6 23.8585 24.5082 23.9046 24.4249C23.9291 24.3806 23.9342 24.3442 23.9332 24.3217C23.9326 24.3063 23.9292 24.2728 23.8884 24.2164L19.2571 17.8158C18.3246 16.527 18.3245 14.8064 19.2571 13.5175L23.8884 7.11696C23.9292 7.0605 23.9326 7.02704 23.9332 7.01166C23.9342 6.98911 23.9291 6.95272 23.9046 6.90845C23.8585 6.82514 23.7554 6.73333 23.5581 6.73333Z" fill="black"/>
</svg>
