<svg width="28" height="28" viewBox="0 0 28 28" fill="none" xmlns="http://www.w3.org/2000/svg">
<path fill-rule="evenodd" clip-rule="evenodd" d="M10.9553 11.9895C10.9553 11.3452 11.4776 10.8229 12.1219 10.8229H16.7181C17.3624 10.8229 17.8847 11.3452 17.8847 11.9895V16.5625C17.8847 17.2068 17.3624 17.7291 16.7181 17.7291H12.1219C11.4776 17.7291 10.9553 17.2068 10.9553 16.5625V11.9895ZM13.0552 16.2126C12.733 16.2126 12.4719 15.9514 12.4719 15.6293V12.9228C12.4719 12.6006 12.733 12.3395 13.0552 12.3395H15.7848C16.1069 12.3395 16.3681 12.6006 16.3681 12.9228V15.6293C16.3681 15.9514 16.107 16.2126 15.7848 16.2126H13.0552Z" fill="black"/>
<path fill-rule="evenodd" clip-rule="evenodd" d="M11.4249 5.75829C11.4249 5.3395 11.0854 5 10.6666 5C10.2478 5 9.90827 5.3395 9.90827 5.75829V7.36975H9.82373C8.60725 7.36975 7.60821 8.30072 7.5002 9.48906H5.75829C5.3395 9.48906 5 9.82856 5 10.2473C5 10.6661 5.3395 11.0056 5.75829 11.0056H7.49053V12.0789H5.75829C5.3395 12.0789 5 12.4184 5 12.8372C5 13.256 5.3395 13.5955 5.75829 13.5955H7.49053V14.6687H5.75829C5.3395 14.6687 5 15.0082 5 15.427C5 15.8458 5.3395 16.1853 5.75829 16.1853H7.49053V17.2586H5.75829C5.3395 17.2586 5 17.5981 5 18.0169C5 18.4357 5.3395 18.7752 5.75829 18.7752H7.49053V18.8491C7.49053 20.1377 8.53514 21.1823 9.82373 21.1823H9.90816L9.90816 22.9088C9.90816 23.3276 10.2477 23.6671 10.6665 23.6671C11.0852 23.6671 11.4247 23.3276 11.4247 22.9088V21.1823H12.5067L12.5067 22.9088C12.5067 23.3276 12.8462 23.6671 13.265 23.6671C13.6838 23.6671 14.0233 23.3276 14.0233 22.9088V21.1823H15.1052L15.1052 22.9088C15.1052 23.3276 15.4447 23.6671 15.8635 23.6671C16.2823 23.6671 16.6218 23.3276 16.6218 22.9088V21.1823H17.7038V22.9088C17.7038 23.3276 18.0433 23.6671 18.4621 23.6671C18.8809 23.6671 19.2204 23.3276 19.2204 22.9088L19.2204 21.1734C20.4133 21.07 21.3493 20.0688 21.3493 18.8491V18.7752H22.9084C23.3272 18.7752 23.6667 18.4357 23.6667 18.0169C23.6667 17.5981 23.3272 17.2586 22.9084 17.2586H21.3493V16.1853H22.9084C23.3272 16.1853 23.6667 15.8458 23.6667 15.427C23.6667 15.0083 23.3272 14.6688 22.9084 14.6688H21.3493V13.5955H22.9084C23.3272 13.5955 23.6667 13.256 23.6667 12.8372C23.6667 12.4184 23.3272 12.0789 22.9084 12.0789H21.3493V11.0056H22.9084C23.3272 11.0056 23.6667 10.6661 23.6667 10.2474C23.6667 9.82856 23.3272 9.48906 22.9084 9.48906H21.3396C21.2377 8.36799 20.3428 7.47597 19.2205 7.37858V5.75829C19.2205 5.3395 18.881 5 18.4622 5C18.0434 5 17.7039 5.3395 17.7039 5.75829V7.36975H16.6219V5.75829C16.6219 5.3395 16.2824 5 15.8636 5C15.4448 5 15.1053 5.3395 15.1053 5.75829V7.36975H14.0234V5.75829C14.0234 5.3395 13.6839 5 13.2651 5C12.8464 5 12.5069 5.3395 12.5069 5.75829V7.36975H11.4249V5.75829ZM9.82373 8.88633H19.0161C19.4671 8.88633 19.8327 9.25195 19.8327 9.70295V18.8491C19.8327 19.3001 19.4671 19.6657 19.0161 19.6657H9.82373C9.37272 19.6657 9.00711 19.3001 9.00711 18.8491V9.70296C9.00711 9.25195 9.37272 8.88633 9.82373 8.88633Z" fill="black"/>
</svg>
