<svg width="28" height="28" viewBox="0 0 28 28" fill="none" xmlns="http://www.w3.org/2000/svg">
<path fill-rule="evenodd" clip-rule="evenodd" d="M13.5934 5.05646C13.9904 4.912 14.4301 5.05096 14.6878 5.40232L18.1264 10.0911C18.4483 10.5301 18.3884 11.1599 17.9902 11.5219L14.8947 14.3359V14.4194L17.9902 17.2333C18.3911 17.5977 18.4487 18.2329 18.1207 18.6717L14.6822 23.2719C14.4225 23.6194 13.9839 23.7545 13.5891 23.6086C13.1944 23.4628 12.9298 23.068 12.9298 22.6247V16.8931L10.6772 19.2822C10.2935 19.6891 9.67144 19.6891 9.28777 19.2822C8.9041 18.8753 8.9041 18.2155 9.28777 17.8086L12.737 14.1505L9.33552 10.994C8.92717 10.615 8.88579 9.95675 9.24309 9.52368C9.6004 9.09061 10.2211 9.04672 10.6294 9.42566L12.9298 11.5604V6.04201C12.9298 5.59689 13.1964 5.20092 13.5934 5.05646ZM14.8947 17.164V19.6331L15.9936 18.1629L14.8947 17.164ZM14.8947 11.5912L16.0002 10.5862L14.8947 9.07881V11.5912Z" fill="black"/>
</svg>
