<svg width="16" height="16" viewBox="0 0 16 16" fill="none" xmlns="http://www.w3.org/2000/svg">
<path fill-rule="evenodd" clip-rule="evenodd" d="M5.23333 5.76667H3.94281C3.766 5.76667 3.59643 5.8369 3.4714 5.96193L2.19526 7.23807C2.07024 7.3631 2 7.53267 2 7.70948V12.1C2 12.4682 2.29848 12.7667 2.66667 12.7667H12C12.3682 12.7667 12.6667 12.4682 12.6667 12.1V7.70948C12.6667 7.53266 12.5964 7.3631 12.4714 7.23807L11.1953 5.96193C11.0702 5.8369 10.9007 5.76667 10.7239 5.76667H9.43333V4.66667C9.43333 4.29848 9.13486 4 8.76667 4H5.9C5.53181 4 5.23333 4.29848 5.23333 4.66667V5.76667ZM8.23333 4.86667C8.41743 4.86667 8.56667 5.01591 8.56667 5.2V5.76667H6.1V5.2C6.1 5.01591 6.24924 4.86667 6.43333 4.86667H8.23333ZM2.86667 11.9H11.8V9.53333H9.76667V9.76667C9.76667 10.006 9.57266 10.2 9.33333 10.2C9.09401 10.2 8.9 10.006 8.9 9.76667V9.53333H5.76667V9.76667C5.76667 10.006 5.57266 10.2 5.33333 10.2C5.09401 10.2 4.9 10.006 4.9 9.76667V9.53333H2.86667V11.9ZM9.76667 8.66667H11.8V7.79232L10.641 6.63333H4.02565L2.86667 7.79232V8.66667H4.9V8.43333C4.9 8.19401 5.09401 8 5.33333 8C5.57266 8 5.76667 8.19401 5.76667 8.43333V8.66667H8.9V8.43333C8.9 8.19401 9.09401 8 9.33333 8C9.57266 8 9.76667 8.19401 9.76667 8.43333V8.66667Z" fill="black"/>
</svg>
