<svg width="48" height="48" viewBox="0 0 48 48" fill="none" xmlns="http://www.w3.org/2000/svg">
<path fill-rule="evenodd" clip-rule="evenodd" d="M35.4142 17.4142C35.7893 17.7893 36 18.298 36 18.8284V38C36 39.1046 35.1046 40 34 40H14C12.8954 40 12 39.1046 12 38V10C12 8.89543 12.8954 8 14 8H25.1716C25.702 8 26.2107 8.21071 26.5858 8.58579L35.4142 17.4142ZM22.7 35.3V20.7H20C18.1775 20.7 16.7 22.1775 16.7 24V32C16.7 33.8225 18.1775 35.3 20 35.3H22.7ZM25.3 29.3V35.3H28C29.8225 35.3 31.3 33.8225 31.3 32V29.3H25.3ZM31.3 26.7V24C31.3 22.1775 29.8225 20.7 28 20.7H25.3V26.7H31.3Z" fill="black"/>
</svg>
