<svg width="16" height="16" viewBox="0 0 16 16" fill="none" xmlns="http://www.w3.org/2000/svg">
<path d="M7 5.66667C7 6.03486 6.70152 6.33333 6.33333 6.33333C5.96514 6.33333 5.66667 6.03486 5.66667 5.66667C5.66667 5.29848 5.96514 5 6.33333 5C6.70152 5 7 5.29848 7 5.66667Z" fill="black"/>
<path d="M8.33333 6.33333C8.70152 6.33333 9 6.03486 9 5.66667C9 5.29848 8.70152 5 8.33333 5C7.96514 5 7.66667 5.29848 7.66667 5.66667C7.66667 6.03486 7.96514 6.33333 8.33333 6.33333Z" fill="black"/>
<path d="M11 5.66667C11 6.03486 10.7015 6.33333 10.3333 6.33333C9.96514 6.33333 9.66667 6.03486 9.66667 5.66667C9.66667 5.29848 9.96514 5 10.3333 5C10.7015 5 11 5.29848 11 5.66667Z" fill="black"/>
<path d="M6.66667 8.23333C6.42734 8.23333 6.23333 8.42734 6.23333 8.66667C6.23333 8.90599 6.42734 9.1 6.66667 9.1H10C10.2393 9.1 10.4333 8.90599 10.4333 8.66667C10.4333 8.42734 10.2393 8.23333 10 8.23333H6.66667Z" fill="black"/>
<path fill-rule="evenodd" clip-rule="evenodd" d="M5 7.66667C5 7.29848 5.29848 7 5.66667 7H11C11.3682 7 11.6667 7.29848 11.6667 7.66667V11C11.6667 11.3682 11.3682 11.6667 11 11.6667H5.66667C5.29848 11.6667 5 11.3682 5 11V7.66667ZM6.2 10.8C6.01591 10.8 5.86667 10.6508 5.86667 10.4667V8.2C5.86667 8.01591 6.01591 7.86667 6.2 7.86667H10.4667C10.6508 7.86667 10.8 8.01591 10.8 8.2V10.4667C10.8 10.6508 10.6508 10.8 10.4667 10.8H6.2Z" fill="black"/>
<path fill-rule="evenodd" clip-rule="evenodd" d="M3 4.33333C3 3.59695 3.59695 3 4.33333 3H12.3333C13.0697 3 13.6667 3.59695 13.6667 4.33333V12.3333C13.6667 13.0697 13.0697 13.6667 12.3333 13.6667H4.33333C3.59695 13.6667 3 13.0697 3 12.3333V4.33333ZM4.33333 3.86667H12.3333C12.5911 3.86667 12.8 4.0756 12.8 4.33333V12.3333C12.8 12.5911 12.5911 12.8 12.3333 12.8H4.33333C4.0756 12.8 3.86667 12.5911 3.86667 12.3333V4.33333C3.86667 4.0756 4.0756 3.86667 4.33333 3.86667Z" fill="black"/>
</svg>
