<svg width="32" height="32" viewBox="0 0 32 32" fill="none" xmlns="http://www.w3.org/2000/svg">
<path d="M5.90406 20.3228C5.95658 20.0602 6.08567 19.819 6.27505 19.6297L17.954 7.95252C18.0865 7.82009 18.3012 7.82009 18.4337 7.95252L23.3804 12.8985C23.5128 13.0309 23.5128 13.2456 23.3804 13.378L11.7014 25.0552C11.512 25.2445 11.2708 25.3736 11.0082 25.4261L6.62338 26.3029C5.67415 26.4927 4.83725 25.6559 5.0271 24.7069L5.90406 20.3228Z" fill="black"/>
<path d="M24.5077 12.1075C24.6275 12.2272 24.8182 12.2414 24.9455 12.1298C25.7962 11.384 26.3333 10.2893 26.3333 9.06911C26.3333 6.8218 24.5113 5 22.2636 5C21.0433 5 19.9483 5.53702 19.2024 6.38761C19.0908 6.51489 19.105 6.70563 19.2247 6.82533L24.5077 12.1075Z" fill="black"/>
</svg>
