<svg width="32" height="32" viewBox="0 0 32 32" fill="none" xmlns="http://www.w3.org/2000/svg">
<path fill-rule="evenodd" clip-rule="evenodd" d="M6.30665 6.86656C6.30665 6.38797 6.69462 6 7.17321 6H24.1601C24.6387 6 25.0266 6.38797 25.0266 6.86656C25.0266 7.34515 24.6387 7.73312 24.1601 7.73312H23.4999L26.3333 14.5333V14.7066C26.3333 15.3898 26.1355 16.3952 25.5167 17.2547C24.866 18.1584 23.7892 18.8399 22.2001 18.8399C20.611 18.8399 19.5341 18.1584 18.8835 17.2547C18.2646 16.3952 18.0668 15.3898 18.0668 14.7066V14.5333L20.9002 7.73312H16.5332V20.5867H20.8933C22.3367 20.5867 23.5067 21.7568 23.5067 23.2001C23.5067 24.6434 22.3367 25.8135 20.8933 25.8135H10.4399C8.99658 25.8135 7.82653 24.6434 7.82653 23.2001C7.82653 21.7568 8.99658 20.5867 10.4399 20.5867H14.8001V7.73312H10.4331L13.2665 14.5333V14.7066C13.2665 15.3898 13.0687 16.3952 12.4499 17.2547C11.7992 18.1584 10.7224 18.8399 9.13326 18.8399C7.54415 18.8399 6.46732 18.1584 5.81666 17.2547C5.19781 16.3952 5 15.3898 5 14.7066V14.5333L7.83342 7.73312H7.17321C6.69462 7.73312 6.30665 7.34515 6.30665 6.86656ZM10.4399 22.3199H20.8933C21.3795 22.3199 21.7736 22.714 21.7736 23.2001C21.7736 23.6862 21.3795 24.0803 20.8933 24.0803H10.4399C9.95375 24.0803 9.55966 23.6862 9.55966 23.2001C9.55966 22.714 9.95375 22.3199 10.4399 22.3199ZM9.13326 9.11962L7.1664 13.8401H11.1001L9.13326 9.11962ZM11.3817 15.5732H6.8848C6.96213 15.8013 7.0724 16.0326 7.22315 16.242C7.55249 16.6994 8.10901 17.1068 9.13326 17.1068C10.1575 17.1068 10.714 16.6994 11.0434 16.242C11.1941 16.0326 11.3044 15.8013 11.3817 15.5732ZM20.2332 13.8401L22.2001 9.11962L24.1669 13.8401H20.2332ZM19.9516 15.5732H24.4485C24.3712 15.8013 24.2609 16.0326 24.1102 16.242C23.7808 16.6994 23.2243 17.1068 22.2001 17.1068C21.1758 17.1068 20.6193 16.6994 20.29 16.242C20.1392 16.0326 20.0289 15.8013 19.9516 15.5732Z" fill="black"/>
</svg>
