<svg width="20" height="20" viewBox="0 0 20 20" fill="none" xmlns="http://www.w3.org/2000/svg">
<path fill-rule="evenodd" clip-rule="evenodd" d="M15.6171 3.71624C14.9873 3.08644 14.2857 2.92685 13.6637 3.0281C13.0838 3.12251 12.6117 3.43536 12.3381 3.70447L11.4682 4.48008L11.1803 4.19217C10.6284 3.64028 9.72835 3.65785 9.19842 4.23086L8.64779 4.82626C8.14633 5.36848 8.16276 6.20999 8.68499 6.73223L9.01063 7.05787L3.45088 13.0148C3.39497 13.0747 3.35796 13.1497 3.34449 13.2306L3.0134 15.2171C2.90529 15.8658 3.46765 16.4281 4.11631 16.32L6.10284 15.9889C6.18367 15.9754 6.25874 15.9384 6.31865 15.8825L12.2755 10.3228L12.5551 10.6023C13.107 11.1542 14.007 11.1366 14.5369 10.5636L15.0876 9.96822C15.589 9.426 15.5726 8.58449 15.0504 8.06225L14.7603 7.7722L15.6061 7.01806L15.6171 7.0071C15.8888 6.73541 16.2094 6.25803 16.3052 5.66963C16.4065 5.04762 16.2469 4.34604 15.6171 3.71624ZM9.77717 7.82441L11.509 9.55623L5.91014 14.7818C5.79032 14.8937 5.64018 14.9677 5.47851 14.9946L4.68626 15.1267C4.40423 15.1737 4.15973 14.9292 4.20673 14.6471L4.33877 13.8549C4.36572 13.6932 4.43974 13.5431 4.55157 13.4233L9.77717 7.82441ZM13.3212 9.83623C13.4382 9.9533 13.6291 9.94957 13.7415 9.82802L14.2922 9.23262C14.3986 9.11761 14.3951 8.93911 14.2843 8.82833L13.7446 8.28867C13.4398 7.98383 13.4541 7.48537 13.7758 7.19847L14.8607 6.23117C15.008 6.07979 15.1855 5.80502 15.2359 5.49555C15.2819 5.21284 15.2311 4.86244 14.851 4.48232C14.4709 4.1022 14.1205 4.0514 13.8378 4.09743C13.5215 4.14892 13.2414 4.33322 13.0923 4.48232L11.9542 5.49823C11.6575 5.76281 11.2058 5.74988 10.9247 5.46876L10.4142 4.95825C10.2971 4.84118 10.1062 4.84491 9.99382 4.96646L9.44318 5.56186C9.33681 5.67687 9.34029 5.85537 9.45107 5.96615L13.3212 9.83623Z" fill="black"/>
</svg>
