<svg width="24" height="24" viewBox="0 0 24 24" fill="none" xmlns="http://www.w3.org/2000/svg">
<path fill-rule="evenodd" clip-rule="evenodd" d="M19.1396 4.85944C18.3839 4.10373 17.542 3.91222 16.7957 4.03372C16.0998 4.147 15.5333 4.5224 15.205 4.84532L14.1612 5.77599L13.8158 5.43052C13.1535 4.76829 12.0735 4.78938 11.4377 5.47694L10.7769 6.19138C10.1752 6.84201 10.1949 7.85176 10.8216 8.47841L11.2123 8.86915L4.54103 16.017C4.47393 16.0889 4.42952 16.1789 4.41336 16.2759L4.01608 18.6596C3.88635 19.438 4.56114 20.1128 5.33949 19.983L7.72318 19.5858C7.82018 19.5696 7.91025 19.5252 7.98214 19.4581L15.13 12.7868L15.4654 13.1222C16.1276 13.7844 17.2076 13.7634 17.8435 13.0758L18.5042 12.3614C19.1059 11.7107 19.0862 10.701 18.4596 10.0743L18.1115 9.72629L19.1264 8.82139L19.1396 8.80823C19.4656 8.48222 19.8504 7.90941 19.9653 7.20336C20.0868 6.457 19.8953 5.61515 19.1396 4.85944ZM12.1321 9.78894L14.2102 11.867L7.49196 18.1374C7.34818 18.2715 7.16803 18.3604 6.97404 18.3927L6.02339 18.5511C5.68498 18.6075 5.39159 18.3141 5.44799 17.9757L5.60643 17.0251C5.63876 16.8311 5.72758 16.6509 5.86177 16.5072L12.1321 9.78894Z" fill="black"/>
</svg>
