<svg width="20" height="20" viewBox="0 0 20 20" fill="none" xmlns="http://www.w3.org/2000/svg">
<path fill-rule="evenodd" clip-rule="evenodd" d="M3 5.83313C3 5.373 3.373 5 3.83312 5H15.4969C15.957 5 16.33 5.373 16.33 5.83312V12.4981C16.33 12.9582 15.957 13.3313 15.4969 13.3313H3.83312C3.373 13.3313 3 12.9582 3 12.4981V5.83313ZM4.33306 12.2482C4.19499 12.2482 4.08306 12.1363 4.08306 11.9982V6.33306C4.08306 6.19499 4.19499 6.08306 4.33306 6.08306H14.9969C15.135 6.08306 15.2469 6.19499 15.2469 6.33306V11.9982C15.2469 12.1363 15.135 12.2482 14.9969 12.2482H4.33306Z" fill="black"/>
<path d="M5.20778 14.1644C4.9087 14.1644 4.66625 14.4068 4.66625 14.7059C4.66625 15.005 4.9087 15.2474 5.20778 15.2474H14.1222C14.4213 15.2474 14.6637 15.005 14.6637 14.7059C14.6637 14.4068 14.4213 14.1644 14.1222 14.1644H5.20778Z" fill="black"/>
</svg>
