<svg width="20" height="20" viewBox="0 0 20 20" fill="none" xmlns="http://www.w3.org/2000/svg">
<path fill-rule="evenodd" clip-rule="evenodd" d="M3 4.66625C3 3.74601 3.74601 3 4.66625 3H14.6637C15.584 3 16.33 3.74601 16.33 4.66625V14.6637C16.33 15.584 15.584 16.33 14.6637 16.33H4.66625C3.74601 16.33 3 15.584 3 14.6637V4.66625ZM5.58269 6.54078C5.58269 6.2417 5.82514 5.99925 6.12422 5.99925H13.2058C13.5049 5.99925 13.7473 6.2417 13.7473 6.54078C13.7473 6.83986 13.5049 7.08231 13.2058 7.08231H6.12422C5.82514 7.08231 5.58269 6.83986 5.58269 6.54078ZM7.16563 8.91519C6.86655 8.91519 6.62409 9.15764 6.62409 9.45672C6.62409 9.7558 6.86655 9.99825 7.16563 9.99825H12.1644C12.4635 9.99825 12.7059 9.7558 12.7059 9.45672C12.7059 9.15764 12.4635 8.91519 12.1644 8.91519H7.16563Z" fill="black"/>
</svg>
