<svg width="32" height="32" viewBox="0 0 32 32" fill="none" xmlns="http://www.w3.org/2000/svg">
<path d="M16.3374 12.4826C20.1829 12.4826 23.5863 11.6942 25.6667 10.4843V15.6984C25.663 15.7084 25.6577 15.7214 25.6498 15.7375C25.6177 15.8027 25.5443 15.9177 25.3876 16.072C25.0626 16.392 24.4867 16.7752 23.607 17.1416C21.8551 17.8713 19.2864 18.3731 16.3374 18.3731C13.3885 18.3731 10.8198 17.8713 9.06788 17.1416C8.18813 16.7752 7.61225 16.392 7.28724 16.072C7.13057 15.9177 7.05714 15.8027 7.02511 15.7375C7.00961 15.7059 7.00386 15.6863 7.00178 15.6778C7.00047 15.6724 7 15.6676 7 15.6676V10.4795C9.07959 11.6921 12.4869 12.4826 16.3374 12.4826Z" fill="black"/>
<path d="M7.00178 23.638C7.00047 23.6326 7 23.6278 7 23.6278V18.4397C9.07959 19.6523 12.4869 20.4428 16.3374 20.4428C20.1829 20.4428 23.5863 19.6544 25.6667 18.4445V23.6586C25.663 23.6686 25.6577 23.6816 25.6498 23.6977C25.6177 23.7629 25.5443 23.8779 25.3876 24.0322C25.0626 24.3522 24.4867 24.7354 23.607 25.1018C21.8551 25.8315 19.2864 26.3333 16.3374 26.3333C13.3885 26.3333 10.8198 25.8315 9.06788 25.1018C8.18813 24.7354 7.61225 24.3522 7.28724 24.0322C7.13057 23.8779 7.05714 23.7629 7.02511 23.6977C7.00961 23.6661 7.00386 23.6465 7.00178 23.638Z" fill="black"/>
<path d="M25.6498 7.63567C25.6177 7.57047 25.5443 7.45546 25.3876 7.30118C25.0626 6.98113 24.4867 6.59797 23.607 6.23155C21.8551 5.50187 19.2864 5 16.3374 5C13.3885 5 10.8198 5.50187 9.06788 6.23155C8.18813 6.59797 7.61225 6.98113 7.28724 7.30118C7.13057 7.45546 7.05714 7.57047 7.02511 7.63567C7.01351 7.66225 6.99727 7.72778 7.02511 7.77726C7.05714 7.84247 7.13057 7.95748 7.28724 8.11175C7.61225 8.4318 8.18813 8.81496 9.06788 9.18138C10.8198 9.91107 13.3885 10.4129 16.3374 10.4129C19.2864 10.4129 21.8551 9.91107 23.607 9.18138C24.4867 8.81496 25.0626 8.4318 25.3876 8.11175C25.5443 7.95748 25.6177 7.84247 25.6498 7.77726C25.6792 7.72516 25.662 7.66116 25.6498 7.63567Z" fill="black"/>
</svg>
