<svg width="28" height="28" viewBox="0 0 28 28" fill="none" xmlns="http://www.w3.org/2000/svg">
<path fill-rule="evenodd" clip-rule="evenodd" d="M6.51661 5.7583C6.51661 5.3395 6.1771 5 5.7583 5C5.3395 5 5 5.3395 5 5.7583V21.7417C5 22.8048 5.86181 23.6667 6.92492 23.6667H22.9084C23.3272 23.6667 23.6667 23.3272 23.6667 22.9084C23.6667 22.5669 23.441 22.2782 23.1307 22.1832V8.57477C23.1307 6.85985 21.0573 6.00101 19.8447 7.21365L14.6221 12.4363C14.4626 12.5957 14.2041 12.5957 14.0446 12.4363L12.298 10.6896C11.6734 10.0651 10.7039 9.94571 9.94649 10.4002L6.51661 12.4581V5.7583ZM6.51661 14.2267V21.7417C6.51661 21.9673 6.69941 22.1501 6.92492 22.1501H21.6141V8.57477C21.6141 8.211 21.1743 8.02882 20.9171 8.28605L15.6945 13.5087C14.9427 14.2604 13.7239 14.2604 12.9722 13.5087L11.2256 11.762C11.0931 11.6296 10.8874 11.6042 10.7268 11.7006L6.51661 14.2267Z" fill="black"/>
</svg>
