<svg width="48" height="48" viewBox="0 0 48 48" fill="none" xmlns="http://www.w3.org/2000/svg">
<path fill-rule="evenodd" clip-rule="evenodd" d="M12 12C9.79086 12 8 13.7909 8 16L8.0001 18.2C8.00011 18.4762 8.22397 18.7 8.5001 18.7H39.5C39.7761 18.7 40 18.4761 40 18.2V16C40 13.7909 38.2091 12 36 12H12ZM40 32V21.8C40 21.5239 39.7761 21.3 39.5 21.3H8.5C8.22386 21.3 8 21.5239 8 21.8V32C8 34.2091 9.79086 36 12 36H36C38.2091 36 40 34.2091 40 32ZM14 28.7C14 27.982 14.582 27.4 15.3 27.4H18.7C19.418 27.4 20 27.982 20 28.7C20 29.418 19.418 30 18.7 30H15.3C14.582 30 14 29.418 14 28.7Z" fill="black"/>
</svg>
