<svg width="20" height="20" viewBox="0 0 20 20" fill="none" xmlns="http://www.w3.org/2000/svg">
<path fill-rule="evenodd" clip-rule="evenodd" d="M5.74092 8.13085C6.14668 6.33368 7.75405 5 9.66667 5C11.5793 5 13.1866 6.33368 13.5924 8.13085C13.6508 8.38943 13.8322 8.51059 13.9606 8.51059H14.0707C15.3129 8.51059 16.3333 9.51599 16.3333 10.773C16.3333 12.0299 15.3129 13.0353 14.0707 13.0353H14.0248L12.8658 15.5188C12.7393 15.7899 12.417 15.9071 12.1459 15.7806C11.8748 15.654 11.7576 15.3317 11.8842 15.0606L12.8293 13.0353H11.0824L9.50157 15.5759C9.34352 15.8299 9.00949 15.9077 8.75549 15.7496C8.5015 15.5916 8.42372 15.2575 8.58177 15.0035L9.80648 13.0353H7.74908L6.16823 15.5759C6.01018 15.8299 5.67616 15.9077 5.42216 15.7496C5.16816 15.5916 5.09038 15.2575 5.24843 15.0035L6.47314 13.0353H5.26259C4.02046 13.0353 3 12.0299 3 10.773C3 9.51599 4.02046 8.51059 5.26259 8.51059H5.37269C5.50117 8.51059 5.68253 8.38943 5.74092 8.13085ZM9.66667 6.01417C8.22129 6.01417 7.01928 7.02091 6.71766 8.3568C6.58637 8.93827 6.09553 9.52476 5.37269 9.52476H5.26259C4.55888 9.52476 4.00193 10.0911 4.00193 10.773C4.00193 11.4548 4.55888 12.0212 5.26259 12.0212H14.0707C14.7745 12.0212 15.3314 11.4548 15.3314 10.773C15.3314 10.0911 14.7745 9.52476 14.0707 9.52476H13.9606C13.2378 9.52476 12.747 8.93827 12.6157 8.3568C12.3141 7.02091 11.112 6.01417 9.66667 6.01417Z" fill="black"/>
</svg>
