<svg width="24" height="24" viewBox="0 0 24 24" fill="none" xmlns="http://www.w3.org/2000/svg">
<path fill-rule="evenodd" clip-rule="evenodd" d="M4 11.8807C4 11.5218 4.29101 11.2307 4.65 11.2307H5.69966L5.69966 7C5.69966 5.89543 6.59509 5 7.69966 5L9.47276 5C10.5773 5 11.4728 5.89543 11.4728 7V11.2307H12.5224V8.58077C12.5224 7.4762 13.4178 6.58077 14.5224 6.58077L16.2955 6.58077C17.4001 6.58077 18.2955 7.4762 18.2955 8.58077V11.2307H19.3452C19.7041 11.2307 19.9952 11.5218 19.9952 11.8807C19.9952 12.2397 19.7041 12.5307 19.3452 12.5307H18.2955V15.1808C18.2955 16.2853 17.4001 17.1808 16.2955 17.1808L14.5224 17.1808C13.4178 17.1808 12.5224 16.2853 12.5224 15.1808V12.5307H11.4728V16.7608C11.4728 17.8653 10.5773 18.7608 9.47276 18.7608H7.69966C6.59509 18.7608 5.69966 17.8653 5.69966 16.7608L5.69966 12.5307H4.65C4.29101 12.5307 4 12.2397 4 11.8807ZM13.8224 15.1808C13.8224 15.5674 14.1358 15.8808 14.5224 15.8808H16.2955C16.6821 15.8808 16.9955 15.5674 16.9955 15.1808V8.58077C16.9955 8.19417 16.6821 7.88077 16.2955 7.88077H14.5224C14.1358 7.88077 13.8224 8.19417 13.8224 8.58077V15.1808ZM6.99966 16.7608L6.99966 7C6.99966 6.6134 7.31306 6.3 7.69966 6.3L9.47276 6.3C9.85935 6.3 10.1728 6.6134 10.1728 7V16.7608C10.1728 17.1474 9.85935 17.4608 9.47276 17.4608H7.69966C7.31306 17.4608 6.99966 17.1474 6.99966 16.7608Z" fill="black"/>
</svg>
