<svg width="16" height="16" viewBox="0 0 16 16" fill="none" xmlns="http://www.w3.org/2000/svg">
<path d="M2.66661 2C3.03477 2 3.33322 2.29845 3.33322 2.66661V12C3.33322 12.3682 3.03477 12.6667 2.66661 12.6667C2.29845 12.6667 2 12.3682 2 12V2.66661C2 2.29845 2.29845 2 2.66661 2Z" fill="black"/>
<path d="M12.0001 2C12.3682 2 12.6667 2.29845 12.6667 2.66661V12C12.6667 12.3682 12.3682 12.6667 12.0001 12.6667C11.6319 12.6667 11.3334 12.3682 11.3334 12V2.66661C11.3334 2.29845 11.6319 2 12.0001 2Z" fill="black"/>
<path d="M7.9999 2.66661C7.9999 2.29845 7.70145 2 7.33329 2C6.96513 2 6.66668 2.29845 6.66668 2.66661V4.5333C6.66668 4.90146 6.96513 5.19991 7.33329 5.19991C7.70145 5.19991 7.9999 4.90146 7.9999 4.5333V2.66661Z" fill="black"/>
<path d="M7.33329 5.73338C7.70145 5.73338 7.9999 6.03183 7.9999 6.39999V8.26668C7.9999 8.63484 7.70145 8.93329 7.33329 8.93329C6.96513 8.93329 6.66668 8.63484 6.66668 8.26668V6.39999C6.66668 6.03183 6.96513 5.73338 7.33329 5.73338Z" fill="black"/>
<path d="M7.9999 10.1334C7.9999 9.76521 7.70145 9.46676 7.33329 9.46676C6.96513 9.46676 6.66668 9.76521 6.66668 10.1334V12.0001C6.66668 12.3682 6.96513 12.6667 7.33329 12.6667C7.70145 12.6667 7.9999 12.3682 7.9999 12.0001V10.1334Z" fill="black"/>
</svg>
