<svg width="24" height="24" viewBox="0 0 24 24" fill="none" xmlns="http://www.w3.org/2000/svg">
<path d="M6.84998 10.5C6.84998 10.141 7.14099 9.85001 7.5 9.85001H8.09998V9.25C8.09998 8.89102 8.39099 8.60001 8.75 8.60001C9.10901 8.60001 9.40002 8.89102 9.40002 9.25V9.85001H10C10.359 9.85001 10.65 10.141 10.65 10.5C10.65 10.859 10.359 11.15 10 11.15H9.40002V11.75C9.40002 12.109 9.10901 12.4 8.75 12.4C8.39099 12.4 8.09998 12.109 8.09998 11.75V11.15H7.5C7.14099 11.15 6.84998 10.859 6.84998 10.5Z" fill="black"/>
<path d="M14.3 10.4C14.3 10.759 14.009 11.05 13.65 11.05C13.291 11.05 13 10.759 13 10.4C13 10.041 13.291 9.75 13.65 9.75C14.009 9.75 14.3 10.041 14.3 10.4Z" fill="black"/>
<path d="M14.9 12.3C15.259 12.3 15.55 12.009 15.55 11.65C15.55 11.291 15.259 11 14.9 11C14.541 11 14.25 11.291 14.25 11.65C14.25 12.009 14.541 12.3 14.9 12.3Z" fill="black"/>
<path d="M16.8 10.4C16.8 10.759 16.509 11.05 16.15 11.05C15.791 11.05 15.5 10.759 15.5 10.4C15.5 10.041 15.791 9.75 16.15 9.75C16.509 9.75 16.8 10.041 16.8 10.4Z" fill="black"/>
<path d="M14.9 9.8C15.259 9.8 15.55 9.50899 15.55 9.14999C15.55 8.79102 15.259 8.5 14.9 8.5C14.541 8.5 14.25 8.79102 14.25 9.14999C14.25 9.50899 14.541 9.8 14.9 9.8Z" fill="black"/>
<path fill-rule="evenodd" clip-rule="evenodd" d="M9.89471 6C6.63916 6 4 8.68629 4 12V16.2857C4 17.2325 4.75403 18 5.6842 18H7.01501C7.62347 18 8.18463 17.666 8.48291 17.1262L9.65326 15.0083C9.80243 14.7384 10.083 14.5714 10.3873 14.5714H13.6127C13.917 14.5714 14.1976 14.7384 14.3467 15.0083L15.5171 17.1262C15.8154 17.666 16.3765 18 16.985 18H18.3158C19.246 18 20 17.2325 20 16.2857V12C20 8.68629 17.3608 6 14.1053 6H9.89471ZM14.1053 7.3H9.89471C7.37872 7.3 5.29999 9.38248 5.29999 12V16.2857C5.29999 16.5363 5.49359 16.7 5.6842 16.7H7.01501C7.14233 16.7 7.27179 16.6301 7.34509 16.4974L8.51544 14.3796C8.88959 13.7026 9.60187 13.2714 10.3873 13.2714H13.6127C14.3981 13.2714 15.1104 13.7026 15.4846 14.3796L16.6549 16.4974C16.7282 16.6301 16.8577 16.7 16.985 16.7H18.3158C18.5064 16.7 18.7 16.5363 18.7 16.2857V12C18.7 9.38248 16.6213 7.3 14.1053 7.3Z" fill="black"/>
</svg>
