<svg width="48" height="48" viewBox="0 0 48 48" fill="none" xmlns="http://www.w3.org/2000/svg">
<path d="M13.7 21C13.7 20.282 14.282 19.7 15 19.7H16.2V18.5C16.2 17.782 16.782 17.2 17.5 17.2C18.218 17.2 18.8 17.782 18.8 18.5V19.7H20C20.718 19.7 21.3 20.282 21.3 21C21.3 21.718 20.718 22.3 20 22.3H18.8V23.5C18.8 24.218 18.218 24.8 17.5 24.8C16.782 24.8 16.2 24.218 16.2 23.5V22.3H15C14.282 22.3 13.7 21.718 13.7 21Z" fill="black"/>
<path d="M28.6 20.8C28.6 21.518 28.0179 22.1 27.3 22.1C26.582 22.1 26 21.518 26 20.8C26 20.082 26.582 19.5 27.3 19.5C28.0179 19.5 28.6 20.082 28.6 20.8Z" fill="black"/>
<path d="M29.8 24.6C30.5179 24.6 31.1 24.018 31.1 23.3C31.1 22.582 30.5179 22 29.8 22C29.082 22 28.5 22.582 28.5 23.3C28.5 24.018 29.082 24.6 29.8 24.6Z" fill="black"/>
<path d="M33.6 20.8C33.6 21.518 33.0179 22.1 32.3 22.1C31.582 22.1 31 21.518 31 20.8C31 20.082 31.582 19.5 32.3 19.5C33.0179 19.5 33.6 20.082 33.6 20.8Z" fill="black"/>
<path d="M29.8 19.6C30.5179 19.6 31.1 19.018 31.1 18.3C31.1 17.582 30.5179 17 29.8 17C29.082 17 28.5 17.582 28.5 18.3C28.5 19.018 29.082 19.6 29.8 19.6Z" fill="black"/>
<path fill-rule="evenodd" clip-rule="evenodd" d="M19.7894 12C13.2783 12 8 17.3726 8 24V32.5714C8 34.465 9.50806 36 11.3684 36H14.03C15.2469 36 16.3693 35.3319 16.9658 34.2523L19.3065 30.0167C19.6049 29.4769 20.166 29.1429 20.7745 29.1429H27.2255C27.834 29.1429 28.3951 29.4769 28.6935 30.0167L31.0342 34.2523C31.6307 35.3319 32.7531 36 33.97 36H36.6316C38.4919 36 40 34.465 40 32.5714V24C40 17.3726 34.7217 12 28.2106 12H19.7894ZM28.2106 14.6H19.7894C14.7574 14.6 10.6 18.765 10.6 24V32.5714C10.6 33.0726 10.9872 33.4 11.3684 33.4H14.03C14.2847 33.4 14.5436 33.2601 14.6902 32.9948L17.0309 28.7591C17.7792 27.4052 19.2037 26.5428 20.7745 26.5428H27.2255C28.7963 26.5428 30.2208 27.4052 30.9691 28.7591L33.3098 32.9948C33.4564 33.2601 33.7153 33.4 33.97 33.4H36.6316C37.0128 33.4 37.4 33.0726 37.4 32.5714V24C37.4 18.765 33.2426 14.6 28.2106 14.6Z" fill="black"/>
</svg>
