<svg width="16" height="16" viewBox="0 0 16 16" fill="none" xmlns="http://www.w3.org/2000/svg">
<path d="M6.15932 3.01474C6.3906 3.07642 6.5281 3.31391 6.46642 3.5452L3.8523 13.3481C3.79063 13.5794 3.55313 13.7169 3.32185 13.6553C3.09056 13.5936 2.95307 13.3561 3.01474 13.1248L5.62886 3.32185C5.69054 3.09056 5.92803 2.95307 6.15932 3.01474Z" fill="black"/>
<path d="M8.33503 3.10678C8.56961 3.10678 8.75978 3.29694 8.75978 3.53152V5.45292C8.75978 5.6875 8.56961 5.87767 8.33503 5.87767C8.10046 5.87767 7.91029 5.6875 7.91029 5.45292V3.53152C7.91029 3.29694 8.10046 3.10678 8.33503 3.10678Z" fill="black"/>
<path d="M8.75978 7.37433C8.75978 7.13975 8.56961 6.94959 8.33503 6.94959C8.10046 6.94959 7.91029 7.13975 7.91029 7.37433V9.29573C7.91029 9.53031 8.10046 9.72047 8.33503 9.72047C8.56961 9.72047 8.75978 9.53031 8.75978 9.29573V7.37433Z" fill="black"/>
<path d="M8.75978 11.2171C8.75978 10.9825 8.56961 10.7924 8.33503 10.7924C8.10046 10.7924 7.91029 10.9825 7.91029 11.2171V13.1385C7.91029 13.3731 8.10046 13.5633 8.33503 13.5633C8.56961 13.5633 8.75978 13.3731 8.75978 13.1385V11.2171Z" fill="black"/>
<path d="M11.0411 3.32185C10.9795 3.09056 10.742 2.95307 10.5107 3.01474C10.2794 3.07642 10.1419 3.31391 10.2036 3.5452L12.8177 13.3481C12.8794 13.5794 13.1169 13.7169 13.3482 13.6553C13.5794 13.5936 13.7169 13.3561 13.6553 13.1248L11.0411 3.32185Z" fill="black"/>
</svg>
