<svg width="28" height="28" viewBox="0 0 28 28" fill="none" xmlns="http://www.w3.org/2000/svg">
<path fill-rule="evenodd" clip-rule="evenodd" d="M12.4999 12.1129C11.8556 12.1129 11.3333 12.6352 11.3333 13.2795V14.4124C11.3333 15.0567 11.8556 15.579 12.4999 15.579H14.8332C15.4776 15.579 15.9999 15.0567 15.9999 14.4124V13.2795C15.9999 12.6352 15.4776 12.1129 14.8332 12.1129H12.4999ZM14.8332 13.2795H12.4999V14.4123L14.8332 14.4124V13.2795Z" fill="black"/>
<path d="M11.1583 17.8897C11.1583 17.4709 11.4978 17.1314 11.9166 17.1314H15.4166C15.8354 17.1314 16.1749 17.4709 16.1749 17.8897C16.1749 18.3085 15.8354 18.6481 15.4166 18.6481H11.9166C11.4978 18.6481 11.1583 18.3085 11.1583 17.8897Z" fill="black"/>
<path d="M13.0833 19.4422C12.6645 19.4422 12.3249 19.7817 12.3249 20.2005C12.3249 20.6193 12.6645 20.9588 13.0833 20.9588H14.2499C14.6687 20.9588 15.0082 20.6193 15.0082 20.2005C15.0082 19.7817 14.6687 19.4422 14.2499 19.4422H13.0833Z" fill="black"/>
<path fill-rule="evenodd" clip-rule="evenodd" d="M16.7582 5.75832C16.7582 5.33951 16.4187 5 15.9999 5C15.5811 5 15.2416 5.33951 15.2416 5.75832V9.80217H13.8416V8.64679C13.8416 8.22798 13.5021 7.88847 13.0833 7.88847C12.6645 7.88847 12.3249 8.22798 12.3249 8.64679V9.80217H11.5083V8.64679C11.5083 8.22798 11.1688 7.88847 10.75 7.88847C10.3312 7.88847 9.99165 8.22798 9.99165 8.64679V9.81521C9.43035 9.89964 9 10.384 9 10.9688V22.5C9 23.1443 9.52233 23.6667 10.1666 23.6667H17.1665C17.8108 23.6667 18.3332 23.1443 18.3332 22.5V10.9688C18.3332 10.3245 17.8108 9.80217 17.1665 9.80217H16.7582V5.75832ZM11.1 11.3188C10.7778 11.3188 10.5166 11.58 10.5166 11.9021V21.5667C10.5166 21.8889 10.7778 22.15 11.1 22.15H16.2332C16.5554 22.15 16.8165 21.8889 16.8165 21.5667V11.9021C16.8165 11.58 16.5554 11.3188 16.2332 11.3188H11.1Z" fill="black"/>
</svg>
