<svg width="24" height="24" viewBox="0 0 24 24" fill="none" xmlns="http://www.w3.org/2000/svg">
<path fill-rule="evenodd" clip-rule="evenodd" d="M4 7C4 6.44772 4.44772 6 5 6H19C19.5523 6 20 6.44772 20 7V15C20 15.5523 19.5523 16 19 16H5C4.44772 16 4 15.5523 4 15V7ZM5.55 14.7C5.41193 14.7 5.3 14.5881 5.3 14.45V7.55C5.3 7.41193 5.41193 7.3 5.55 7.3H18.45C18.5881 7.3 18.7 7.41193 18.7 7.55V14.45C18.7 14.5881 18.5881 14.7 18.45 14.7H5.55Z" fill="black"/>
<path d="M6.65 17C6.29101 17 6 17.291 6 17.65C6 18.009 6.29101 18.3 6.65 18.3H17.35C17.709 18.3 18 18.009 18 17.65C18 17.291 17.709 17 17.35 17H6.65Z" fill="black"/>
</svg>
