<svg width="20" height="20" viewBox="0 0 20 20" fill="none" xmlns="http://www.w3.org/2000/svg">
<path fill-rule="evenodd" clip-rule="evenodd" d="M3.81645 4.54147C3.81645 4.24242 4.05887 4 4.35792 4H14.972C15.2711 4 15.5135 4.24242 15.5135 4.54147C15.5135 4.84051 15.2711 5.08293 14.972 5.08293H14.5596L16.33 9.332V9.44029C16.33 9.86714 16.2064 10.4953 15.8197 11.0324C15.4132 11.5971 14.7403 12.0229 13.7474 12.0229C12.7544 12.0229 12.0816 11.5971 11.675 11.0324C11.2883 10.4953 11.1647 9.86714 11.1647 9.44029V9.332L12.9352 5.08293H10.2065V13.1144H12.9309C13.8327 13.1144 14.5638 13.8455 14.5638 14.7474C14.5638 15.6492 13.8327 16.3803 12.9309 16.3803H6.39909C5.49724 16.3803 4.76614 15.6492 4.76614 14.7474C4.76614 13.8455 5.49724 13.1144 6.39908 13.1144H9.12353V5.08293H6.39484L8.16529 9.332V9.44029C8.16529 9.86714 8.04169 10.4953 7.65501 11.0324C7.24844 11.5971 6.57559 12.0229 5.58264 12.0229C4.5897 12.0229 3.91685 11.5971 3.51028 11.0324C3.1236 10.4953 3 9.86714 3 9.44029V9.332L4.77045 5.08293H4.35792C4.05887 5.08293 3.81645 4.84051 3.81645 4.54147ZM6.39908 14.1974H12.9309C13.2346 14.1974 13.4809 14.4436 13.4809 14.7474C13.4809 15.0511 13.2346 15.2974 12.9309 15.2974H6.39909C6.09532 15.2974 5.84907 15.0511 5.84907 14.7474C5.84907 14.4436 6.09532 14.1974 6.39908 14.1974ZM5.58264 5.94928L4.35366 8.89883H6.81162L5.58264 5.94928ZM6.98758 9.98176H4.17771C4.22602 10.1243 4.29493 10.2688 4.38912 10.3996C4.59491 10.6855 4.94265 10.94 5.58264 10.94C6.22264 10.94 6.57038 10.6855 6.77617 10.3996C6.87036 10.2688 6.93927 10.1243 6.98758 9.98176ZM12.5184 8.89883L13.7474 5.94928L14.9763 8.89883H12.5184ZM12.3424 9.98176H15.1523C15.104 10.1243 15.0351 10.2688 14.9409 10.3996C14.7351 10.6855 14.3874 10.94 13.7474 10.94C13.1074 10.94 12.7596 10.6855 12.5538 10.3996C12.4596 10.2688 12.3907 10.1243 12.3424 9.98176Z" fill="black"/>
</svg>
