<svg width="48" height="48" viewBox="0 0 48 48" fill="none" xmlns="http://www.w3.org/2000/svg">
<path d="M23.7 30V20.9029L21.9301 22.7154C21.4285 23.2291 20.6055 23.2389 20.0918 22.7373C19.5781 22.2357 19.5683 21.4126 20.0699 20.8989L23.7285 17.1522C24.7151 16.1418 26.3 16.9237 26.3 18.2052V30C26.3 30.718 25.718 31.3 25 31.3C24.282 31.3 23.7 30.718 23.7 30Z" fill="black"/>
<path fill-rule="evenodd" clip-rule="evenodd" d="M40 24C40 32.8366 32.8366 40 24 40C15.1634 40 8 32.8366 8 24C8 15.1634 15.1634 8 24 8C32.8366 8 40 15.1634 40 24ZM37.4 24C37.4 31.4006 31.4006 37.4 24 37.4C16.5994 37.4 10.6 31.4006 10.6 24C10.6 16.5994 16.5994 10.6 24 10.6C31.4006 10.6 37.4 16.5994 37.4 24Z" fill="black"/>
</svg>
