<svg width="32" height="32" viewBox="0 0 32 32" fill="none" xmlns="http://www.w3.org/2000/svg">
<path fill-rule="evenodd" clip-rule="evenodd" d="M6.4306 20.9966C3.48558 15.8965 5.23329 9.37495 10.3342 6.43038C15.4352 3.48581 21.9577 5.23325 24.9027 10.3334C27.8478 15.4335 26.1 21.9551 20.9991 24.8996C15.8982 27.8442 9.37563 26.0968 6.4306 20.9966ZM7.16281 12.9335C6.41953 15.2492 6.61946 17.8581 7.93147 20.1302C9.80887 23.3815 13.4222 25.0059 16.9251 24.5088L16.4465 23.6799C16.1132 23.1028 15.793 21.7485 17.1784 20.9488L18.3333 20.2821C18.971 19.914 19.189 19.0991 18.8209 18.4615L18.4876 17.8844C18.2654 17.4996 18.0519 16.5968 18.9755 16.0636L19.8417 15.5636C20.3199 15.2876 20.4835 14.6763 20.2074 14.1982C19.9313 13.72 19.3198 13.5562 18.8416 13.8323L13.9349 16.6647C13.5501 16.8868 12.6471 17.1003 12.1139 16.1768L10.7806 13.868C10.5966 13.5492 10.189 13.4402 9.87021 13.6242C9.29874 13.9541 7.96553 14.2712 7.16281 12.9335ZM24.2173 13.077C24.0224 12.4353 23.7517 11.8056 23.4019 11.1998C21.0475 7.12255 15.9632 5.60377 11.7903 7.61899L12.2446 8.40582C12.6127 9.04333 13.4789 9.23569 14.2019 9.37457C15.1152 9.54999 16.03 10.2454 16.6098 10.8202C16.7967 11.0055 17.0222 11.1494 17.2764 11.2175L24.2173 13.077Z" fill="black"/>
</svg>
