<svg width="16" height="16" viewBox="0 0 16 16" fill="none" xmlns="http://www.w3.org/2000/svg">
<path d="M7.33333 4C5.80324 4 4.51735 4.99586 4.19273 6.33781C4.14603 6.53089 4.00094 6.62136 3.89816 6.62136H3.81007C2.81637 6.62136 2 7.37209 2 8.31068C2 8.8782 2.29847 9.37704 2.75414 9.68277C2.82837 9.42402 2.94735 9.18567 3.10152 8.97393C2.91573 8.80407 2.80154 8.56843 2.80154 8.31068C2.80154 7.80153 3.2471 7.37864 3.81007 7.37864H3.89816C4.47642 7.37864 4.8691 6.94071 4.97413 6.50653C5.21542 5.50902 6.17703 4.75728 7.33333 4.75728C7.96279 4.75728 8.53456 4.98005 8.96384 5.34398C9.39682 5.37508 9.81259 5.47361 10.1979 5.62952C9.66283 4.66004 8.579 4 7.33333 4Z" fill="black"/>
<path fill-rule="evenodd" clip-rule="evenodd" d="M5.52607 8.33781C5.85068 6.99586 7.13658 6 8.66667 6C10.1968 6 11.4827 6.99586 11.8073 8.33781C11.854 8.53089 11.9991 8.62136 12.1018 8.62136H12.1899C13.1836 8.62136 14 9.37209 14 10.3107C14 11.2493 13.1836 12 12.1899 12H5.14341C4.1497 12 3.33333 11.2493 3.33333 10.3107C3.33333 9.37209 4.1497 8.62136 5.14341 8.62136H5.23149C5.33427 8.62136 5.47936 8.53089 5.52607 8.33781ZM8.66667 6.75728C7.51037 6.75728 6.54876 7.50902 6.30746 8.50653C6.20243 8.94071 5.80975 9.37864 5.23149 9.37864H5.14341C4.58044 9.37864 4.13487 9.80153 4.13487 10.3107C4.13487 10.8198 4.58044 11.2427 5.14341 11.2427H12.1899C12.7529 11.2427 13.1985 10.8198 13.1985 10.3107C13.1985 9.80153 12.7529 9.37864 12.1899 9.37864H12.1018C11.5236 9.37864 11.1309 8.94071 11.0259 8.50653C10.7846 7.50902 9.82297 6.75728 8.66667 6.75728Z" fill="black"/>
</svg>
