<svg width="20" height="20" viewBox="0 0 20 20" fill="none" xmlns="http://www.w3.org/2000/svg">
<path fill-rule="evenodd" clip-rule="evenodd" d="M9.75159 6.03797H6.50318V4.32911C6.50318 3.18987 8.79618 3 9.36943 3C10.0013 3 10.782 3.12396 11.3398 3.21253C11.4329 3.2273 11.5198 3.2411 11.5987 3.25316C12.6688 3.50633 12.9788 4.32911 13 4.70886V7.68354C13 9 11.9384 9.4135 11.4076 9.4557H7.96815C6.43949 9.4557 6.05732 10.6371 6.05732 11.2278V13H4.84713C3.50955 13 3.12739 11.2911 3.06369 10.9114C3.0372 10.7535 3 9.62447 3 9.07595C3.10191 7.05063 4.27389 6.50211 4.84713 6.48101H9.75159V6.03797ZM8.83333 4.66667C8.83333 5.01184 8.55351 5.29167 8.20833 5.29167C7.86316 5.29167 7.58333 5.01184 7.58333 4.66667C7.58333 4.32149 7.86316 4.04167 8.20833 4.04167C8.55351 4.04167 8.83333 4.32149 8.83333 4.66667Z" fill="black"/>
<path fill-rule="evenodd" clip-rule="evenodd" d="M9.58174 13.2954H12.8301V15.0042C12.8301 16.1435 10.5372 16.3333 9.96391 16.3333C9.33201 16.3333 8.5513 16.2094 7.99349 16.1208C7.90042 16.106 7.81354 16.0922 7.73461 16.0802C6.66454 15.827 6.35456 15.0042 6.33333 14.6245V11.6498C6.33333 10.3333 7.3949 9.91983 7.92569 9.87764H11.3652C12.8938 9.87764 13.276 8.6962 13.276 8.10549V6.33333L14.4862 6.33333C15.8238 6.33333 16.2059 8.04219 16.2696 8.42194C16.2961 8.57988 16.3333 9.70886 16.3333 10.2574C16.2314 12.2827 15.0594 12.8312 14.4862 12.8523H9.58174V13.2954ZM11.75 14.6667C11.75 15.0118 11.4702 15.2917 11.125 15.2917C10.7798 15.2917 10.5 15.0118 10.5 14.6667C10.5 14.3215 10.7798 14.0417 11.125 14.0417C11.4702 14.0417 11.75 14.3215 11.75 14.6667Z" fill="black"/>
</svg>
