<svg width="32" height="32" viewBox="0 0 32 32" fill="none" xmlns="http://www.w3.org/2000/svg">
<path d="M17.3333 18.6456C17.3333 19.3533 16.7364 19.9269 16 19.9269C15.2636 19.9269 14.6667 19.3533 14.6667 18.6456C14.6667 17.938 15.2636 17.3644 16 17.3644C16.7364 17.3644 17.3333 17.938 17.3333 18.6456Z" fill="black"/>
<path fill-rule="evenodd" clip-rule="evenodd" d="M16 5C13.6186 5 11.6366 6.64374 11.2158 8.81498C11.1247 9.28488 11.5214 9.67668 12 9.67668C12.4786 9.67668 12.8539 9.2801 12.9945 8.82257C13.3777 7.57564 14.5782 6.66567 16 6.66567C17.7305 6.66567 19.1333 8.01374 19.1333 9.67668V10.958H10.6667C9.19391 10.958 8 12.1053 8 13.5205V23.7708C8 25.186 9.19391 26.3333 10.6667 26.3333H21.3333C22.8061 26.3333 24 25.186 24 23.7708V13.5205C24 12.1053 22.8061 10.958 21.3333 10.958H20.8667V9.67668C20.8667 7.09382 18.6878 5 16 5ZM21.3333 12.6236C21.8488 12.6236 22.2667 13.0252 22.2667 13.5205V23.7708C22.2667 24.2661 21.8488 24.6677 21.3333 24.6677H10.6667C10.1512 24.6677 9.73333 24.2661 9.73333 23.7708V13.5205C9.73333 13.0252 10.1512 12.6236 10.6667 12.6236H21.3333Z" fill="black"/>
</svg>
