<svg width="24" height="24" viewBox="0 0 24 24" fill="none" xmlns="http://www.w3.org/2000/svg">
<path fill-rule="evenodd" clip-rule="evenodd" d="M5.3 4.65C5.3 4.29101 5.00899 4 4.65 4C4.29101 4 4 4.29101 4 4.65V18.3506C4 19.2619 4.73873 20.0006 5.65 20.0006H19.3506C19.7096 20.0006 20.0006 19.7096 20.0006 19.3506C20.0006 19.058 19.8072 18.8105 19.5412 18.729V7.06421C19.5412 5.59422 17.764 4.85805 16.7245 5.89749L12.2478 10.3742C12.1111 10.5109 11.8895 10.5109 11.7528 10.3742L10.2557 8.87703C9.72029 8.34166 8.88925 8.23935 8.24002 8.62889L5.3 10.3929V4.65ZM5.3 11.9089V18.3506C5.3 18.5439 5.4567 18.7006 5.65 18.7006H18.2412V7.06421C18.2412 6.7524 17.8642 6.59624 17.6438 6.81673L13.167 11.2934C12.5227 11.9378 11.478 11.9378 10.8336 11.2934L9.33642 9.79627C9.22286 9.6827 9.04658 9.661 8.90886 9.74363L5.3 11.9089Z" fill="black"/>
</svg>
