<svg width="24" height="24" viewBox="0 0 24 24" fill="none" xmlns="http://www.w3.org/2000/svg">
<path d="M4.65 4C5.00899 4 5.3 4.29101 5.3 4.65V19.3452C5.3 19.7041 5.00899 19.9952 4.65 19.9952C4.29101 19.9952 4 19.7041 4 19.3452V4.65C4 4.29101 4.29101 4 4.65 4Z" fill="black"/>
<path fill-rule="evenodd" clip-rule="evenodd" d="M8.23773 5.69967C7.13316 5.69967 6.23773 6.5951 6.23773 7.69966V9.47276C6.23773 10.5773 7.13316 11.4728 8.23773 11.4728H17.9985C19.1031 11.4728 19.9985 10.5773 19.9985 9.47276V7.69967C19.9985 6.5951 19.1031 5.69967 17.9985 5.69967H8.23773ZM17.9985 6.99967H8.23773C7.85113 6.99967 7.53773 7.31307 7.53773 7.69966V9.47276C7.53773 9.85936 7.85113 10.1728 8.23773 10.1728H17.9985C18.3851 10.1728 18.6985 9.85936 18.6985 9.47276V7.69967C18.6985 7.31307 18.3851 6.99967 17.9985 6.99967Z" fill="black"/>
<path fill-rule="evenodd" clip-rule="evenodd" d="M6.23773 14.5224C6.23773 13.4178 7.13316 12.5224 8.23773 12.5224H14.8229C15.9275 12.5224 16.8229 13.4178 16.8229 14.5224V16.2955C16.8229 17.4001 15.9275 18.2955 14.8229 18.2955H8.23773C7.13317 18.2955 6.23773 17.4001 6.23773 16.2955V14.5224ZM8.23773 13.8224H14.8229C15.2095 13.8224 15.5229 14.1358 15.5229 14.5224V16.2955C15.5229 16.6821 15.2095 16.9955 14.8229 16.9955H8.23773C7.85113 16.9955 7.53773 16.6821 7.53773 16.2955V14.5224C7.53773 14.1358 7.85113 13.8224 8.23773 13.8224Z" fill="black"/>
</svg>
