<svg width="28" height="28" viewBox="0 0 28 28" fill="none" xmlns="http://www.w3.org/2000/svg">
<path fill-rule="evenodd" clip-rule="evenodd" d="M14.3333 23.6667C19.488 23.6667 23.6667 19.488 23.6667 14.3333C23.6667 9.17868 19.488 5 14.3333 5C9.17868 5 5 9.17868 5 14.3333C5 19.488 9.17868 23.6667 14.3333 23.6667ZM14.4915 10.4089C14.5793 9.99937 14.3184 9.59625 13.9089 9.5085C13.4994 9.42075 13.0963 9.68159 13.0085 10.0911L12.5802 12.09H10.25C9.83118 12.09 9.49167 12.4296 9.49167 12.8484C9.49167 13.2672 9.83118 13.6067 10.25 13.6067H12.2552L11.9703 14.9361H10.25C9.83118 14.9361 9.49167 15.2756 9.49167 15.6944C9.49167 16.1133 9.83118 16.4528 10.25 16.4528H11.6453L11.2585 18.2578C11.1707 18.6673 11.4316 19.0704 11.8411 19.1582C12.2506 19.2459 12.6537 18.9851 12.7415 18.5756L13.1964 16.4528H14.562L14.1752 18.2578C14.0874 18.6673 14.3483 19.0704 14.7578 19.1582C15.1673 19.2459 15.5704 18.9851 15.6582 18.5756L16.113 16.4528H18.4167C18.8355 16.4528 19.175 16.1133 19.175 15.6944C19.175 15.2756 18.8355 14.9361 18.4167 14.9361H16.438L16.7229 13.6067H18.4167C18.8355 13.6067 19.175 13.2672 19.175 12.8484C19.175 12.4296 18.8355 12.09 18.4167 12.09H17.0479L17.4082 10.4089C17.4959 9.99937 17.2351 9.59625 16.8256 9.5085C16.416 9.42075 16.0129 9.68159 15.9252 10.0911L15.4968 12.09H14.1313L14.4915 10.4089ZM13.5214 14.9361H14.887L15.1718 13.6067H13.8063L13.5214 14.9361Z" fill="black"/>
</svg>
