<svg width="28" height="28" viewBox="0 0 28 28" fill="none" xmlns="http://www.w3.org/2000/svg">
<path d="M19.0018 5.24687C19.241 4.95447 19.6753 4.90888 19.9386 5.17987C20.358 5.61164 20.711 6.1051 20.9846 6.64423C21.3616 7.38721 21.5795 8.20062 21.6246 9.03256C21.6696 9.86449 21.5407 10.6967 21.2461 11.476C21.0324 12.0415 20.7348 12.5702 20.3644 13.0447C20.1319 13.3426 19.6952 13.3441 19.4258 13.0793C19.1564 12.8144 19.1576 12.3837 19.3798 12.0782C19.6224 11.7449 19.8199 11.3798 19.9664 10.9923C20.1937 10.3908 20.2932 9.74856 20.2584 9.10652C20.2237 8.46447 20.0554 7.83671 19.7645 7.26332C19.577 6.89387 19.3413 6.55222 19.0641 6.247C18.8102 5.96729 18.7626 5.53927 19.0018 5.24687Z" fill="black"/>
<path d="M17.7315 6.85021C17.9707 6.61096 18.363 6.6087 18.5638 6.88102C18.7597 7.14666 18.9231 7.43569 19.05 7.74202C19.2553 8.23754 19.3609 8.76863 19.3609 9.30498C19.3609 9.84132 19.2553 10.3724 19.05 10.8679C18.9231 11.1743 18.7597 11.4633 18.5638 11.7289C18.363 12.0013 17.9707 11.999 17.7315 11.7597C17.4922 11.5205 17.499 11.1351 17.6819 10.8504C17.7737 10.7076 17.8528 10.5566 17.918 10.399C18.0617 10.0522 18.1356 9.68042 18.1356 9.30498C18.1356 8.92954 18.0617 8.55777 17.918 8.21091C17.8528 8.05335 17.7737 7.90232 17.6819 7.75953C17.499 7.47488 17.4922 7.08945 17.7315 6.85021Z" fill="black"/>
<path d="M13.7135 12.8643C15.6469 12.8643 17.2143 11.297 17.2143 9.36361C17.2143 7.4302 15.6469 5.86286 13.7135 5.86286C11.7801 5.86286 10.2128 7.4302 10.2128 9.36361C10.2128 11.297 11.7801 12.8643 13.7135 12.8643Z" fill="black"/>
<path d="M21.2601 17.1572C21.9381 15.5205 20.4458 14.0313 18.6742 14.0313L8.75281 14.0313C6.98125 14.0313 5.48895 15.5205 6.16689 17.1572C6.5774 18.1482 7.17907 19.0487 7.93758 19.8072C8.69609 20.5657 9.59656 21.1674 10.5876 21.5779C11.5786 21.9884 12.6408 22.1997 13.7135 22.1997C14.7862 22.1997 15.8484 21.9884 16.8394 21.5779C17.8305 21.1674 18.7309 20.5657 19.4894 19.8072C20.2479 19.0487 20.8496 18.1482 21.2601 17.1572Z" fill="black"/>
</svg>
