<svg width="20" height="20" viewBox="0 0 20 20" fill="none" xmlns="http://www.w3.org/2000/svg">
<path fill-rule="evenodd" clip-rule="evenodd" d="M10.6109 3.29321L15.6109 6.73008C16.0631 7.04095 16.3333 7.55451 16.3333 8.10323V13.8921C16.3333 15.2726 15.214 16.3917 13.8333 16.3917H5.5C4.11929 16.3917 3 15.2726 3 13.8921V8.10323C3 7.55451 3.27019 7.04095 3.72245 6.73008L8.72245 3.29321C9.29121 2.90226 10.0421 2.90226 10.6109 3.29321ZM7.25296 11.0623C7.19771 11.007 7.16667 10.9321 7.16667 10.854C7.16667 10.6913 7.29858 10.5594 7.46129 10.5594C7.53943 10.5594 7.61437 10.5904 7.66963 10.6457L8.83333 11.8092L12.0833 9.37212C12.1095 9.35251 12.1384 9.33726 12.1688 9.32674C12.2014 9.31548 12.2359 9.30963 12.2708 9.30963C12.4434 9.30963 12.5833 9.44951 12.5833 9.62207V9.64436C12.5833 9.69601 12.5595 9.74477 12.5187 9.77647L9.12368 12.4166C8.95781 12.5456 8.72183 12.5309 8.57324 12.3823L7.25296 11.0623Z" fill="black"/>
</svg>
