<svg width="28" height="28" viewBox="0 0 28 28" fill="none" xmlns="http://www.w3.org/2000/svg">
<path fill-rule="evenodd" clip-rule="evenodd" d="M18.461 5.89316C19.6518 4.70228 21.5826 4.70228 22.7735 5.89316C23.9644 7.08403 23.9644 9.01482 22.7735 10.2057L21.6022 11.377L22.7797 12.5808C23.0844 12.8923 23.0817 13.3911 22.7735 13.6993L19.6651 16.8077C19.3545 17.1183 18.8509 17.1183 18.5403 16.8077C18.2297 16.4971 18.2297 15.9935 18.5403 15.6829L20.8786 13.3446C20.9971 13.2261 20.9982 13.0343 20.881 12.9144L20.6937 12.7229C20.5746 12.6012 20.3791 12.6001 20.2587 12.7205L10.3109 22.6683C10.002 22.9772 9.60124 23.1776 9.16879 23.2394L6.25727 23.6553C5.53049 23.7591 4.90754 23.1362 5.01136 22.4094L5.42729 19.4979C5.48907 19.0654 5.68944 18.6647 5.99833 18.3558L18.461 5.89316ZM21.6487 7.01793C21.0791 6.44825 20.1554 6.44825 19.5857 7.01793L7.12311 19.4806C7.05759 19.5461 7.01508 19.6311 7.00198 19.7228L6.73602 21.5846C6.70718 21.7864 6.88022 21.9595 7.0821 21.9307L8.94384 21.6647C9.03557 21.6516 9.12057 21.6091 9.18609 21.5436L21.6487 9.08092C22.2184 8.51124 22.2184 7.58761 21.6487 7.01793Z" fill="black"/>
</svg>
