<svg width="48" height="48" viewBox="0 0 48 48" fill="none" xmlns="http://www.w3.org/2000/svg">
<path fill-rule="evenodd" clip-rule="evenodd" d="M27.9998 8C28.7177 8 29.2998 8.58202 29.2998 9.29998V16.2323H29.9998C31.1043 16.2323 31.9997 17.1277 31.9997 18.2323V38C31.9997 39.1046 31.1043 40 29.9998 40H18C16.8954 40 16 39.1046 16 38V18.2323C16 17.2297 16.7377 16.3994 17.7 16.2546V14.2516C17.7 13.5337 18.282 12.9517 18.9999 12.9517C19.7179 12.9517 20.2999 13.5337 20.2999 14.2516V16.2323H21.6999V14.2516C21.6999 13.5337 22.2819 12.9517 22.9999 12.9517C23.7178 12.9517 24.2999 13.5337 24.2999 14.2516V16.2323H26.6998V9.29998C26.6998 8.58202 27.2818 8 27.9998 8ZM22.9999 32.758C22.2819 32.758 21.6999 33.3401 21.6999 34.058C21.6999 34.776 22.2819 35.358 22.9999 35.358H24.9998C25.7178 35.358 26.2998 34.776 26.2998 34.058C26.2998 33.3401 25.7178 32.758 24.9998 32.758H22.9999ZM20.9999 28.7967C20.282 28.7967 19.6999 29.3787 19.6999 30.0967C19.6999 30.8146 20.282 31.3967 20.9999 31.3967H26.9998C27.7178 31.3967 28.2998 30.8146 28.2998 30.0967C28.2998 29.3787 27.7178 28.7967 26.9998 28.7967H20.9999ZM21.9999 20.1935C20.8953 20.1935 19.9999 21.0889 19.9999 22.1935V24.1355C19.9999 25.24 20.8953 26.1354 21.9999 26.1354H25.9998C27.1044 26.1354 27.9998 25.24 27.9998 24.1355V22.1935C27.9998 21.0889 27.1044 20.1935 25.9998 20.1935H21.9999ZM21.9999 22.1935H25.9998V24.1355L21.9999 24.1355V22.1935Z" fill="black"/>
</svg>
