<svg width="20" height="20" viewBox="0 0 20 20" fill="none" xmlns="http://www.w3.org/2000/svg">
<path d="M3.56504 12.5758C3.59786 12.4117 3.67854 12.261 3.7969 12.1427L11.0963 4.84515C11.179 4.76239 11.3133 4.76239 11.396 4.84515L14.4877 7.93607C14.5705 8.01883 14.5705 8.153 14.4877 8.23576L7.18835 15.5333C7.06999 15.6516 6.91924 15.7323 6.7551 15.7651L4.01461 16.3131C3.42134 16.4317 2.89828 15.9088 3.01694 15.3156L3.56504 12.5758Z" fill="black"/>
<path d="M15.1923 7.44176C15.2672 7.51656 15.3864 7.52544 15.466 7.45569C15.9977 6.98961 16.3333 6.30547 16.3333 5.54296C16.3333 4.13852 15.1945 3 13.7897 3C13.027 3 12.3427 3.33561 11.8765 3.86717C11.8068 3.94672 11.8156 4.06592 11.8905 4.14072L15.1923 7.44176Z" fill="black"/>
</svg>
