<svg width="16" height="16" viewBox="0 0 16 16" fill="none" xmlns="http://www.w3.org/2000/svg">
<path d="M11.6667 8.33366H12.3334C12.5141 8.33366 12.6865 8.36964 12.8437 8.43483L12.5884 9.05065C12.5107 9.01844 12.425 9.00033 12.3334 9.00033H11.6667V8.33366Z" fill="black"/>
<path d="M13.6667 12.3337V11.667H13V12.3337C13 12.4253 12.9819 12.511 12.9497 12.5887L13.5655 12.844C13.6307 12.6868 13.6667 12.5144 13.6667 12.3337Z" fill="black"/>
<path d="M9.00002 13.667H10.3334V13.0003H9.00002V13.667Z" fill="black"/>
<path d="M11.6667 13.667H12.3334C12.5141 13.667 12.6865 13.631 12.8437 13.5658L12.5884 12.95C12.5107 12.9822 12.425 13.0003 12.3334 13.0003H11.6667V13.667Z" fill="black"/>
<path d="M13.6667 10.3337V9.66699C13.6667 9.4862 13.6307 9.31382 13.5655 9.15661L12.9497 9.41198C12.9819 9.48966 13 9.57537 13 9.66699V10.3337H13.6667Z" fill="black"/>
<path d="M10.3334 8.33366H9.00002V9.00033H10.3334V8.33366Z" fill="black"/>
<path fill-rule="evenodd" clip-rule="evenodd" d="M7.00002 3.00033C7.7364 3.00033 8.33335 3.59728 8.33335 4.33366L8.33335 12.3337C8.33335 13.07 7.7364 13.667 7.00002 13.667H4.33335C3.59697 13.667 3.00002 13.07 3.00002 12.3337V4.33366C3.00002 3.59728 3.59697 3.00033 4.33335 3.00033H7.00002ZM4.33335 3.86699H7.00002C7.25775 3.86699 7.46669 4.07593 7.46669 4.33366L7.46669 12.3337C7.46669 12.5914 7.25775 12.8003 7.00002 12.8003L4.33335 12.8003C4.07562 12.8003 3.86669 12.5914 3.86669 12.3337L3.86669 4.33366C3.86669 4.07593 4.07562 3.86699 4.33335 3.86699Z" fill="black"/>
<path d="M11.2075 6.13506L11.3448 6.20995C11.2842 5.98766 11.1958 5.76142 11.0729 5.55661C10.804 5.10854 10.3783 4.76699 9.66669 4.76699C9.42736 4.76699 9.23335 4.57298 9.23335 4.33366C9.23335 4.09433 9.42736 3.90033 9.66669 3.90033C10.7329 3.90033 11.4182 4.44767 11.816 5.11071C11.9255 5.29314 12.0137 5.48443 12.0838 5.67627C12.2057 5.59058 12.3687 5.57013 12.5139 5.6367C12.7315 5.73642 12.827 5.99362 12.7273 6.21118L12.2382 7.27834C12.1577 7.45399 11.9452 7.52461 11.7755 7.43209L10.7925 6.8959C10.5824 6.7813 10.505 6.51807 10.6196 6.30797C10.7342 6.09787 10.9974 6.02045 11.2075 6.13506Z" fill="black"/>
</svg>
