<svg width="48" height="48" viewBox="0 0 48 48" fill="none" xmlns="http://www.w3.org/2000/svg">
<path d="M17.475 8.04421C18.1686 8.22918 18.581 8.94144 18.396 9.63508L10.5561 39.0347C10.3711 39.7284 9.65889 40.1408 8.96524 39.9558C8.2716 39.7708 7.85924 39.0586 8.04421 38.3649L15.8841 8.96524C16.0691 8.2716 16.7813 7.85924 17.475 8.04421Z" fill="black"/>
<path d="M24.0001 8.32024C24.7036 8.32024 25.2739 8.89055 25.2739 9.59407V15.3565C25.2739 16.06 24.7036 16.6303 24.0001 16.6303C23.2966 16.6303 22.7263 16.06 22.7263 15.3565V9.59407C22.7263 8.89055 23.2966 8.32024 24.0001 8.32024Z" fill="black"/>
<path d="M25.2739 21.1189C25.2739 20.4154 24.7036 19.8451 24.0001 19.8451C23.2966 19.8451 22.7263 20.4154 22.7263 21.1189V26.8813C22.7263 27.5848 23.2966 28.1551 24.0001 28.1551C24.7036 28.1551 25.2739 27.5848 25.2739 26.8813V21.1189Z" fill="black"/>
<path d="M25.2739 32.6436C25.2739 31.9401 24.7036 31.3698 24.0001 31.3698C23.2966 31.3698 22.7263 31.9401 22.7263 32.6436V38.406C22.7263 39.1096 23.2966 39.6799 24.0001 39.6799C24.7036 39.6799 25.2739 39.1096 25.2739 38.406V32.6436Z" fill="black"/>
<path d="M32.1159 8.96524C31.9309 8.2716 31.2187 7.85924 30.525 8.04421C29.8314 8.22918 29.419 8.94144 29.604 9.63508L37.4439 39.0347C37.6289 39.7284 38.3411 40.1408 39.0348 39.9558C39.7284 39.7708 40.1408 39.0586 39.9558 38.3649L32.1159 8.96524Z" fill="black"/>
</svg>
