<svg width="24" height="24" viewBox="0 0 24 24" fill="none" xmlns="http://www.w3.org/2000/svg">
<path d="M6 6C4.89543 6 4 6.89543 4 8V16C4 17.1046 4.89543 18 6 18H15.3368C15.1208 17.5454 15 17.0368 15 16.5C15 14.567 16.567 13 18.5 13C19.0368 13 19.5454 13.1208 20 13.3368V8C20 6.89543 19.1046 6 18 6H6Z" fill="black"/>
<path fill-rule="evenodd" clip-rule="evenodd" d="M18.5 19.5C20.1569 19.5 21.5 18.1568 21.5 16.5C21.5 14.8431 20.1569 13.5 18.5 13.5C16.8432 13.5 15.5 14.8431 15.5 16.5C15.5 18.1568 16.8432 19.5 18.5 19.5ZM18.6875 15.1875C18.6875 15.0839 18.6036 15 18.5 15C18.3965 15 18.3125 15.0839 18.3125 15.1875V16.3125H17.1875C17.084 16.3125 17 16.3964 17 16.5C17 16.6035 17.084 16.6875 17.1875 16.6875H18.3125V17.8125C18.3125 17.916 18.3965 18 18.5 18C18.6036 18 18.6875 17.916 18.6875 17.8125V16.6875H19.8125C19.9161 16.6875 20 16.6035 20 16.5C20 16.3964 19.9161 16.3125 19.8125 16.3125H18.6875V15.1875Z" fill="black"/>
</svg>
