<svg width="20" height="20" viewBox="0 0 20 20" fill="none" xmlns="http://www.w3.org/2000/svg">
<path fill-rule="evenodd" clip-rule="evenodd" d="M4.05743 10.2786C3.63444 9.84747 3.79398 9.11452 4.35617 8.90616L7.34047 7.80014C7.53708 7.72728 7.6988 7.58037 7.79237 7.38966L9.49376 3.92159C9.99293 2.90409 11.3235 2.68403 12.1127 3.48843L15.8541 7.30157C16.6434 8.10597 16.4274 9.46204 15.4291 9.97079L12.0263 11.7048C11.8392 11.8002 11.695 11.965 11.6235 12.1654L10.5383 15.207C10.3339 15.7799 9.61476 15.9425 9.19177 15.5114L6.90793 13.1838L3.81765 16.3333H3V15.5L6.09028 12.3504L4.05743 10.2786Z" fill="black"/>
</svg>
