<svg width="28" height="28" viewBox="0 0 28 28" fill="none" xmlns="http://www.w3.org/2000/svg">
<path d="M13.75 10.2509C13.75 9.92871 14.0112 9.6675 14.3333 9.6675C14.6555 9.6675 14.9167 9.92871 14.9167 10.2509V13.7516H18.4167C18.7388 13.7516 19 14.0128 19 14.335C19 14.6572 18.7388 14.9184 18.4167 14.9184H14.9167V18.4191C14.9167 18.7413 14.6555 19.0025 14.3333 19.0025C14.0112 19.0025 13.75 18.7413 13.75 18.4191V14.9184H10.25C9.92783 14.9184 9.66667 14.6572 9.66667 14.335C9.66667 14.0128 9.92783 13.7516 10.25 13.7516H13.75V10.2509Z" fill="black"/>
<path fill-rule="evenodd" clip-rule="evenodd" d="M23.6667 14.335C23.6667 19.4906 19.488 23.67 14.3333 23.67C9.17868 23.67 5 19.4906 5 14.335C5 9.17942 9.17868 5 14.3333 5C19.488 5 23.6667 9.17942 23.6667 14.335ZM22.15 14.335C22.15 18.6528 18.6504 22.1531 14.3333 22.1531C10.0163 22.1531 6.51667 18.6528 6.51667 14.335C6.51667 10.0172 10.0163 6.51694 14.3333 6.51694C18.6504 6.51694 22.15 10.0172 22.15 14.335Z" fill="black"/>
</svg>
