<svg width="28" height="28" viewBox="0 0 28 28" fill="none" xmlns="http://www.w3.org/2000/svg">
<path fill-rule="evenodd" clip-rule="evenodd" d="M14.3333 23.6667C19.488 23.6667 23.6667 19.488 23.6667 14.3333C23.6667 9.17868 19.488 5 14.3333 5C9.17868 5 5 9.17868 5 14.3333C5 19.488 9.17868 23.6667 14.3333 23.6667ZM10.8333 14.3333C11.4777 14.3333 12 13.811 12 13.1667C12 12.5223 11.4777 12 10.8333 12C10.189 12 9.66667 12.5223 9.66667 13.1667C9.66667 13.811 10.189 14.3333 10.8333 14.3333ZM17.8333 14.3333C18.4777 14.3333 19 13.811 19 13.1667C19 12.5223 18.4777 12 17.8333 12C17.189 12 16.6667 12.5223 16.6667 13.1667C16.6667 13.811 17.189 14.3333 17.8333 14.3333ZM11.1725 18.5116C12.2143 17.9907 14.983 17.256 17.4942 18.5116C17.8688 18.6989 18.3243 18.5471 18.5116 18.1725C18.6989 17.7979 18.5471 17.3424 18.1725 17.1551C15.0836 15.6106 11.7857 16.5093 10.4942 17.1551C10.1196 17.3424 9.96776 17.7979 10.1551 18.1725C10.3424 18.5471 10.7979 18.6989 11.1725 18.5116Z" fill="black"/>
</svg>
