<svg width="16" height="16" viewBox="0 0 16 16" fill="none" xmlns="http://www.w3.org/2000/svg">
<path fill-rule="evenodd" clip-rule="evenodd" d="M4.15033 9.86629C3.51502 9.86629 3 10.3812 3 11.0165C3 11.6517 3.51502 12.1667 4.15033 12.1667H12.5163C13.1516 12.1667 13.6667 11.6517 13.6667 11.0165C13.6667 10.3812 13.1516 9.86629 12.5163 9.86629H4.15033Z" fill="black"/>
<path fill-rule="evenodd" clip-rule="evenodd" d="M4.88253 5.82337C5.51198 5.194 6.10403 4.80659 6.95312 4.59337C6.94381 4.52831 6.939 4.4618 6.939 4.39417C6.939 3.62419 7.56326 3 8.33333 3C9.1034 3 9.72767 3.62419 9.72767 4.39417C9.72767 4.46181 9.72285 4.52832 9.71354 4.59338C10.4887 4.82196 11.2023 5.24163 11.7841 5.82337C12.534 6.57311 13.0146 7.54172 13.1638 8.57901C13.2186 8.96008 12.9014 9.27376 12.5163 9.27376L4.15033 9.27376C3.76529 9.27376 3.44804 8.96008 3.50286 8.57901C3.65207 7.54171 4.1327 6.57311 4.88253 5.82337ZM8.33333 5.78834C8.14082 5.78834 7.98475 5.94439 7.98475 6.13688C7.98475 6.32938 8.14082 6.48542 8.33333 6.48542C8.70445 6.48542 9.62977 6.72047 10.1131 7.68693C10.1992 7.8591 10.4085 7.92888 10.5807 7.8428C10.7529 7.75671 10.8227 7.54735 10.7366 7.37518C10.1044 6.11096 8.89178 5.78834 8.33333 5.78834Z" fill="black"/>
</svg>
