<svg width="24" height="24" viewBox="0 0 24 24" fill="none" xmlns="http://www.w3.org/2000/svg">
<path d="M8.34235 13.3694C8.69062 13.2823 9.04353 13.4941 9.13059 13.8424C9.22012 14.2005 9.87801 15.35 12 15.35C14.122 15.35 14.7799 14.2005 14.8694 13.8424C14.9565 13.4941 15.3094 13.2823 15.6576 13.3694C16.0059 13.4565 16.2177 13.8094 16.1306 14.1576C15.8868 15.1329 14.678 16.65 12 16.65C9.32199 16.65 8.11321 15.1329 7.86941 14.1576C7.78234 13.8094 7.99409 13.4565 8.34235 13.3694Z" fill="black"/>
<path d="M6.29999 10.15C6.29999 9.51487 6.81486 9 7.44999 9H16.45C17.0851 9 17.6 9.51487 17.6 10.15V11.65C17.6 12.2851 17.0851 12.8 16.45 12.8H13.7C13.0649 12.8 12.55 12.2851 12.55 11.65V10.3H11.35V11.65C11.35 12.2851 10.8351 12.8 10.2 12.8H7.44999C6.81486 12.8 6.29999 12.2851 6.29999 11.65V10.15Z" fill="black"/>
<path fill-rule="evenodd" clip-rule="evenodd" d="M12 20C16.4183 20 20 16.4183 20 12C20 7.58172 16.4183 4 12 4C7.58172 4 4 7.58172 4 12C4 16.4183 7.58172 20 12 20ZM12 18.7C15.7003 18.7 18.7 15.7003 18.7 12C18.7 8.29969 15.7003 5.3 12 5.3C8.29969 5.3 5.3 8.29969 5.3 12C5.3 15.7003 8.29969 18.7 12 18.7Z" fill="black"/>
</svg>
