<svg width="28" height="28" viewBox="0 0 28 28" fill="none" xmlns="http://www.w3.org/2000/svg">
<path d="M23.325 5.34167C23.7806 5.79723 23.7806 6.53584 23.325 6.9914L22.3041 8.01225C21.8486 8.46781 21.11 8.46781 20.6544 8.01225C20.1989 7.55669 20.1989 6.81808 20.6544 6.36252L21.6753 5.34167C22.1308 4.88611 22.8694 4.88611 23.325 5.34167Z" fill="black"/>
<path d="M20.2624 8.40422C20.718 8.85978 20.718 9.59839 20.2624 10.0539L18.2207 12.0956C17.7652 12.5512 17.0266 12.5512 16.571 12.0956C16.1155 11.6401 16.1155 10.9015 16.571 10.4459L18.6127 8.40422C19.0683 7.94866 19.8069 7.94866 20.2624 8.40422Z" fill="black"/>
<path d="M16.179 12.4876C16.6346 12.9432 16.6346 13.6818 16.179 14.1373L14.1373 16.179C13.6818 16.6346 12.9432 16.6346 12.4876 16.179C12.0321 15.7235 12.0321 14.9849 12.4876 14.5293L14.5293 12.4876C14.9849 12.0321 15.7235 12.0321 16.179 12.4876Z" fill="black"/>
<path d="M12.0956 16.571C12.5512 17.0266 12.5512 17.7652 12.0956 18.2207L10.0539 20.2624C9.59839 20.718 8.85978 20.718 8.40422 20.2624C7.94866 19.8069 7.94866 19.0683 8.40422 18.6127L10.4459 16.571C10.9015 16.1155 11.6401 16.1155 12.0956 16.571Z" fill="black"/>
<path d="M8.01225 20.6544C8.46781 21.11 8.46781 21.8486 8.01225 22.3041L6.9914 23.325C6.53584 23.7806 5.79723 23.7806 5.34167 23.325C4.88611 22.8694 4.88611 22.1308 5.34167 21.6753L6.36252 20.6544C6.81808 20.1989 7.55669 20.1989 8.01225 20.6544Z" fill="black"/>
</svg>
