<svg width="20" height="20" viewBox="0 0 20 20" fill="none" xmlns="http://www.w3.org/2000/svg">
<path d="M5.79167 8.83333C5.79167 8.53418 6.03418 8.29167 6.33333 8.29167H13C13.2992 8.29167 13.5417 8.53418 13.5417 8.83333C13.5417 9.13249 13.2992 9.375 13 9.375H6.33333C6.03418 9.375 5.79167 9.13249 5.79167 8.83333Z" fill="black"/>
<path d="M6.33333 10.7917C6.03418 10.7917 5.79167 11.0342 5.79167 11.3333C5.79167 11.6325 6.03418 11.875 6.33333 11.875H9.66667C9.96582 11.875 10.2083 11.6325 10.2083 11.3333C10.2083 11.0342 9.96582 10.7917 9.66667 10.7917H6.33333Z" fill="black"/>
<path fill-rule="evenodd" clip-rule="evenodd" d="M9.66667 16.3333C13.3486 16.3333 16.3333 13.3486 16.3333 9.66667C16.3333 5.98477 13.3486 3 9.66667 3C5.98477 3 3 5.98477 3 9.66667L3 15.5012C3 15.9614 3.37252 16.3333 3.83275 16.3333H9.66667ZM9.66667 15.25C12.7503 15.25 15.25 12.7503 15.25 9.66667C15.25 6.58308 12.7503 4.08333 9.66667 4.08333C6.58308 4.08333 4.08333 6.58308 4.08333 9.66667L4.08334 15.25H9.66667Z" fill="black"/>
</svg>
