<svg width="20" height="20" viewBox="0 0 20 20" fill="none" xmlns="http://www.w3.org/2000/svg">
<path d="M5.89701 3.39795C4.51675 3.39795 3.39783 4.51687 3.39783 5.89713V7.34138C3.39783 7.80147 3.7708 8.17444 4.23089 8.17444C4.69097 8.17444 5.06395 7.80147 5.06395 7.34138V5.89713C5.06395 5.43704 5.43692 5.06407 5.89701 5.06407H7.34127C7.80135 5.06407 8.17432 4.69109 8.17432 4.23101C8.17432 3.77092 7.80135 3.39795 7.34127 3.39795H5.89701Z" fill="black"/>
<path d="M5.06395 12.7846C5.06395 12.3245 4.69097 11.9515 4.23089 11.9515C3.7708 11.9515 3.39783 12.3245 3.39783 12.7846V14.2288C3.39783 15.6091 4.51675 16.728 5.897 16.728H7.34127C7.80135 16.728 8.17432 16.355 8.17432 15.8949C8.17432 15.4348 7.80135 15.0619 7.34127 15.0619H5.897C5.43692 15.0619 5.06395 14.6889 5.06395 14.2288V12.7846Z" fill="black"/>
<path d="M15.8948 11.9515C16.3549 11.9515 16.7278 12.3245 16.7278 12.7846V14.2288C16.7278 15.6091 15.6089 16.728 14.2286 16.728H12.7844C12.3243 16.728 11.9513 16.355 11.9513 15.8949C11.9513 15.4348 12.3243 15.0619 12.7844 15.0619H14.2286C14.6887 15.0619 15.0617 14.6889 15.0617 14.2288V12.7846C15.0617 12.3245 15.4347 11.9515 15.8948 11.9515Z" fill="black"/>
<path d="M12.7844 3.39795C12.3243 3.39795 11.9513 3.77092 11.9513 4.23101C11.9513 4.69109 12.3243 5.06407 12.7844 5.06407H14.2286C14.6887 5.06407 15.0617 5.43704 15.0617 5.89713V7.34138C15.0617 7.80147 15.4347 8.17444 15.8948 8.17444C16.3549 8.17444 16.7278 7.80147 16.7278 7.34138V5.89713C16.7278 4.51687 15.6089 3.39795 14.2286 3.39795H12.7844Z" fill="black"/>
</svg>
