<svg width="24" height="24" viewBox="0 0 24 24" fill="none" xmlns="http://www.w3.org/2000/svg">
<path d="M14.2442 12.8825C14.3737 12.8654 14.4934 12.9649 14.5115 13.1048L14.5432 13.3502C14.5494 13.3975 14.589 13.4313 14.6319 13.4256L14.7671 13.4183C14.8967 13.4013 15.0163 13.5008 15.0344 13.6407C15.0525 13.7805 14.9621 13.9077 14.8327 13.9247L14.3366 13.9796C14.2938 13.9852 14.264 14.0282 14.2701 14.0755L14.3085 14.3716C14.3146 14.4189 14.3543 14.4527 14.3971 14.4471L14.8472 14.3877C14.9543 14.3736 15.0536 14.4581 15.0689 14.5764L15.1798 15.4335C15.1951 15.5518 15.1207 15.6591 15.0136 15.6732L14.9243 15.685C14.8814 15.6907 14.8517 15.7336 14.8578 15.7809L14.8895 16.0263C14.9077 16.1662 14.8174 16.2933 14.6878 16.3104C14.5583 16.3275 14.4386 16.2279 14.4205 16.0881L14.3888 15.8427C14.3827 15.7954 14.343 15.7616 14.3001 15.7672L14.071 15.7974C13.9415 15.8145 13.8219 15.715 13.8037 15.5751C13.7856 15.4353 13.876 15.3081 14.0055 15.291L14.5954 15.2133C14.6382 15.2076 14.668 15.1647 14.6618 15.1174L14.6487 15.0161C14.6426 14.9688 14.6029 14.935 14.5601 14.9406L14.11 14.9999C14.0029 15.014 13.9037 14.9295 13.8884 14.8112L13.7522 13.7594C13.7452 13.7052 13.757 13.6534 13.7822 13.6117C13.8119 13.5624 13.8604 13.5273 13.9184 13.5196L14.0078 13.5079C14.0506 13.5023 14.0804 13.4593 14.0742 13.4119L14.0425 13.1665C14.0244 13.0267 14.1147 12.8995 14.2442 12.8825Z" fill="black"/>
<path d="M15.4789 15.9497C15.4203 15.8267 15.4716 15.6791 15.5935 15.6201L16.2552 15.2991C16.377 15.24 16.5232 15.2917 16.5818 15.4147C16.6404 15.5376 16.5891 15.6851 16.4673 15.7442L15.8055 16.0652C15.6837 16.1242 15.5375 16.0725 15.4789 15.9497Z" fill="black"/>
<path fill-rule="evenodd" clip-rule="evenodd" d="M11.4983 4.14652C11.7957 3.96187 12.1681 3.95103 12.4755 4.11806L18.4851 7.38277C18.8022 7.55505 19 7.88907 19 8.25245V15.7414C19 16.1047 18.8022 16.4388 18.4851 16.611L12.4641 19.8819C12.1744 20.0394 11.8256 20.0394 11.5359 19.8819L5.51487 16.611C5.19775 16.4388 5 16.1047 5 15.7414V8.733C5 8.39 5.17638 8.07156 5.46592 7.89179L11.4983 4.14652ZM12.1255 5.38624C12.061 5.35116 11.9828 5.35344 11.9203 5.39221L6.37061 8.83784C6.30981 8.8756 6.27277 8.94247 6.27277 9.0145V15.4405C6.27277 15.5168 6.3143 15.5869 6.38089 15.6231L11.5501 18.4313C11.687 18.5057 11.8531 18.4056 11.8531 18.2487V12.1955C11.8531 11.8442 12.0381 11.5193 12.3388 11.3423L17.1822 8.49184C17.3209 8.41021 17.3175 8.20684 17.1761 8.13004L12.1255 5.38624ZM17.7272 15.4405C17.7272 15.5168 17.6857 15.5869 17.6191 15.6231L13.429 17.8994C13.292 17.9739 13.1259 17.8738 13.1259 17.7168V12.4848C13.1259 12.411 13.1647 12.3428 13.2279 12.3056L17.418 9.83963C17.5551 9.75896 17.7272 9.85871 17.7272 10.0188V15.4405Z" fill="black"/>
</svg>
