<svg width="28" height="28" viewBox="0 0 28 28" fill="none" xmlns="http://www.w3.org/2000/svg">
<path d="M9.25833 15.9833C8.83952 15.9833 8.5 16.3228 8.5 16.7417C8.5 17.1605 8.83952 17.5 9.25833 17.5H11.2417C11.6605 17.5 12 17.1605 12 16.7417C12 16.3228 11.6605 15.9833 11.2417 15.9833H9.25833Z" fill="black"/>
<path fill-rule="evenodd" clip-rule="evenodd" d="M7.33333 7C6.04467 7 5 8.04467 5 9.33333V18.6667C5 19.9553 6.04467 21 7.33333 21H21.3333C22.622 21 23.6667 19.9553 23.6667 18.6667V9.33333C23.6667 8.04467 22.622 7 21.3333 7H7.33333ZM21.3333 8.51667H7.33333C6.8823 8.51667 6.51667 8.8823 6.51667 9.33333V10.9083H22.15V9.33333C22.15 8.8823 21.7844 8.51667 21.3333 8.51667ZM6.51667 18.6667V12.425H22.15V18.6667C22.15 19.1177 21.7844 19.4833 21.3333 19.4833H7.33333C6.8823 19.4833 6.51667 19.1177 6.51667 18.6667Z" fill="black"/>
</svg>
