<svg width="28" height="28" viewBox="0 0 28 28" fill="none" xmlns="http://www.w3.org/2000/svg">
<path fill-rule="evenodd" clip-rule="evenodd" d="M6.48041 15.19C5.88821 14.5865 6.11157 13.5603 6.89864 13.2686L11.0767 11.7202C11.3519 11.6182 11.5783 11.4125 11.7093 11.1455L14.0913 6.29022C14.7901 4.86572 16.6529 4.55764 17.7578 5.6838L22.9957 11.0222C24.1007 12.1484 23.7984 14.0469 22.4007 14.7591L17.6368 17.1868C17.3749 17.3203 17.1731 17.551 17.073 17.8316L15.5537 22.0897C15.2675 22.8919 14.2607 23.1195 13.6685 22.516L10.4711 19.2573L6.1447 23.6667H5V22.5L9.3264 18.0906L6.48041 15.19Z" fill="black"/>
</svg>
