<svg width="16" height="16" viewBox="0 0 16 16" fill="none" xmlns="http://www.w3.org/2000/svg">
<path d="M12.5667 3C12.3274 3 12.1335 3.19398 12.1335 3.43327L12.1335 13.2334C12.1335 13.4727 12.3274 13.6667 12.5667 13.6667C12.806 13.6667 13 13.4727 13 13.2334L13 3.43327C13 3.19398 12.806 3 12.5667 3Z" fill="black"/>
<path fill-rule="evenodd" clip-rule="evenodd" d="M10.1752 4.13327C10.9114 4.13327 11.5083 4.73013 11.5083 5.46639L11.5083 6.6502C11.5083 7.38646 10.9114 7.98332 10.1752 7.98332L3.66796 7.98332C2.9317 7.98332 2.33484 7.38646 2.33484 6.6502L2.33484 5.46639C2.33484 4.73013 2.9317 4.13327 3.66796 4.13327L10.1752 4.13327Z" fill="black"/>
<path fill-rule="evenodd" clip-rule="evenodd" d="M11.5083 10.0165C11.5083 9.28019 10.9114 8.68333 10.1752 8.68333L5.78491 8.68333C5.04864 8.68333 4.45179 9.28019 4.45179 10.0165L4.45179 11.2003C4.45179 11.9365 5.04864 12.5334 5.78491 12.5334L10.1752 12.5334C10.9114 12.5334 11.5083 11.9365 11.5083 11.2003L11.5083 10.0165Z" fill="black"/>
</svg>
