<svg width="20" height="20" viewBox="0 0 20 20" fill="none" xmlns="http://www.w3.org/2000/svg">
<path d="M10.3418 15.6667C6.32312 15.6667 3.77282 12.9068 3 11.5269C6.09127 13.6344 9.18255 12.9068 10.3418 12.2796C9.45147 11.9905 6.11575 8.20985 4.36892 6.13208C4.28315 6.04327 4.21242 5.95943 4.15923 5.88172C4.22617 5.96197 4.29617 6.04555 4.36892 6.13208C5.28003 7.07558 7.88761 8.58089 9.18255 9.26882C8.88494 8.97896 7.13084 6.5729 6.19599 5.27459C6.14678 5.21703 6.11136 5.16816 6.09127 5.12903C6.12487 5.17577 6.15981 5.22435 6.19599 5.27459C6.90411 6.10293 10.4673 8.73124 12.2738 10.0215C13.5103 8.51613 12.0162 5.37993 11.1146 4C15.1333 6.10753 15.6227 10.3978 15.3651 12.2796C16.6016 12.8817 16.3955 14.7885 16.1379 15.6667C15.5197 14.1613 14.3347 14.2867 13.8195 14.5376C12.8921 15.4409 11.1146 15.6667 10.3418 15.6667Z" fill="black"/>
</svg>
