<svg width="48" height="48" viewBox="0 0 48 48" fill="none" xmlns="http://www.w3.org/2000/svg">
<path d="M19.1198 8C17.8497 8 16.8201 9.02962 16.8201 10.2997V16.3202C16.8201 16.5963 16.5963 16.8201 16.3202 16.8201H10.2997C9.02962 16.8201 8 17.8497 8 19.1198V28.8802C8 30.1503 9.02962 31.1799 10.2997 31.1799H16.3202C16.5963 31.1799 16.8201 31.4037 16.8201 31.6798V37.7003C16.8201 38.9704 17.8497 40 19.1198 40H28.8802C30.1503 40 31.1799 38.9704 31.1799 37.7003V31.6798C31.1799 31.4037 31.4037 31.1799 31.6798 31.1799H37.7003C38.9704 31.1799 40 30.1503 40 28.8802V19.1198C40 17.8497 38.9704 16.8201 37.7003 16.8201H31.6798C31.4037 16.8201 31.1799 16.5963 31.1799 16.3202V10.2997C31.1799 9.02962 30.1503 8 28.8802 8H19.1198Z" fill="black"/>
</svg>
