<svg width="28" height="28" viewBox="0 0 28 28" fill="none" xmlns="http://www.w3.org/2000/svg">
<path fill-rule="evenodd" clip-rule="evenodd" d="M23.6667 21.3333C23.6667 22.622 22.622 23.6667 21.3333 23.6667C20.0447 23.6667 19 22.622 19 21.3333V15.5C19 14.2113 20.0447 13.1667 21.3333 13.1667C22.622 13.1667 23.6667 14.2113 23.6667 15.5V21.3333ZM22.15 15.5V21.3333C22.15 21.7844 21.7844 22.15 21.3333 22.15C20.8823 22.15 20.5167 21.7844 20.5167 21.3333L20.5167 15.5C20.5167 15.049 20.8823 14.6833 21.3333 14.6833C21.7844 14.6833 22.15 15.049 22.15 15.5Z" fill="black"/>
<path fill-rule="evenodd" clip-rule="evenodd" d="M16.6667 21.3333C16.6667 22.622 15.622 23.6667 14.3333 23.6667C13.0447 23.6667 12 22.622 12 21.3333L12 12C12 10.7113 13.0447 9.66667 14.3333 9.66667C15.622 9.66667 16.6667 10.7113 16.6667 12L16.6667 21.3333ZM15.15 12L15.15 21.3333C15.15 21.7844 14.7844 22.15 14.3333 22.15C13.8823 22.15 13.5167 21.7844 13.5167 21.3333L13.5167 12C13.5167 11.549 13.8823 11.1833 14.3333 11.1833C14.7844 11.1833 15.15 11.549 15.15 12Z" fill="black"/>
<path fill-rule="evenodd" clip-rule="evenodd" d="M7.33333 23.6667C8.622 23.6667 9.66667 22.622 9.66667 21.3333L9.66667 7.33333C9.66667 6.04467 8.622 5 7.33333 5C6.04467 5 5 6.04467 5 7.33333L5 21.3333C5 22.622 6.04467 23.6667 7.33333 23.6667ZM8.15 21.3333L8.15 7.33333C8.15 6.8823 7.78437 6.51667 7.33333 6.51667C6.8823 6.51667 6.51667 6.8823 6.51667 7.33333L6.51667 21.3333C6.51667 21.7844 6.8823 22.15 7.33333 22.15C7.78437 22.15 8.15 21.7844 8.15 21.3333Z" fill="black"/>
</svg>
