<svg width="28" height="28" viewBox="0 0 28 28" fill="none" xmlns="http://www.w3.org/2000/svg">
<path fill-rule="evenodd" clip-rule="evenodd" d="M11.8821 11.9167C11.8821 12.8072 12.3691 13.577 13.0757 13.9417C13.355 14.0858 13.6686 14.1667 14 14.1667C14.3314 14.1667 14.645 14.0858 14.9243 13.9417C15.6309 13.577 16.1179 12.8072 16.1179 11.9167C16.1179 10.674 15.1697 9.66667 14 9.66667C12.8303 9.66667 11.8821 10.674 11.8821 11.9167ZM15.2001 11.9167C15.2001 12.6208 14.6628 13.1917 14 13.1917C13.3372 13.1917 12.7999 12.6208 12.7999 11.9167C12.7999 11.2125 13.3372 10.6417 14 10.6417C14.6628 10.6417 15.2001 11.2125 15.2001 11.9167Z" fill="black"/>
<path fill-rule="evenodd" clip-rule="evenodd" d="M18.5657 16.9258C18.9759 15.8738 18.073 14.9167 17.0012 14.9167H10.9988C9.92699 14.9167 9.02415 15.8738 9.43431 16.9258C9.68268 17.5627 10.0467 18.1415 10.5056 18.629C10.9645 19.1165 11.5092 19.5032 12.1088 19.767C12.7084 20.0309 13.351 20.1667 14 20.1667C14.649 20.1667 15.2916 20.0309 15.8912 19.767C16.4908 19.5032 17.0355 19.1165 17.4944 18.629C17.9533 18.1415 18.3173 17.5627 18.5657 16.9258ZM17.7178 16.5526C17.5155 17.0713 17.2192 17.5426 16.8455 17.9395C16.4718 18.3365 16.0282 18.6514 15.5399 18.8662C15.0517 19.0811 14.5284 19.1917 14 19.1917C13.4716 19.1917 12.9483 19.0811 12.4601 18.8662C11.9718 18.6514 11.5282 18.3365 11.1545 17.9395C10.7808 17.5426 10.4845 17.0713 10.2822 16.5526C10.2714 16.5249 10.2639 16.4998 10.259 16.477C10.2555 16.4605 10.2533 16.4452 10.2521 16.431C10.2511 16.4185 10.2509 16.407 10.2513 16.3963C10.2518 16.3809 10.2535 16.3672 10.2558 16.355C10.2647 16.3061 10.2902 16.2426 10.3485 16.1723C10.4722 16.0236 10.7097 15.8917 10.9988 15.8917H17.0012C17.2903 15.8917 17.5278 16.0236 17.6515 16.1723C17.7098 16.2426 17.7353 16.3061 17.7442 16.355C17.7524 16.399 17.7534 16.4614 17.7178 16.5526Z" fill="black"/>
<path fill-rule="evenodd" clip-rule="evenodd" d="M19.2632 6.11112H17.7022C17.4366 5.45769 16.8216 5 16.1053 5H11.8947C11.1785 5 10.5634 5.45769 10.2979 6.11112H8.73683C7.77759 6.11112 7 6.93194 7 7.94444V21.8333C7 22.8459 7.77759 23.6667 8.73683 23.6667H19.2632C20.2224 23.6667 21 22.8459 21 21.8333V7.94444C21 6.93194 20.2224 6.11112 19.2632 6.11112ZM8.73683 7.55557H10.2979C10.5634 8.20897 11.1785 8.66666 11.8947 8.66666H16.1053C16.8216 8.66666 17.4366 8.20897 17.7022 7.55557H19.2632C19.4666 7.55557 19.6316 7.72968 19.6316 7.94444V21.8333C19.6316 22.0481 19.4666 22.2222 19.2632 22.2222H8.73683C8.53339 22.2222 8.3684 22.0481 8.3684 21.8333V7.94444C8.3684 7.72968 8.53339 7.55557 8.73683 7.55557ZM11.8947 6.44445C11.6913 6.44445 11.5263 6.61855 11.5263 6.83335C11.5263 7.04811 11.6913 7.22221 11.8947 7.22221H16.1053C16.3088 7.22221 16.4737 7.04811 16.4737 6.83335C16.4737 6.61855 16.3088 6.44445 16.1053 6.44445H11.8947Z" fill="black"/>
</svg>
