<svg width="32" height="32" viewBox="0 0 32 32" fill="none" xmlns="http://www.w3.org/2000/svg">
<path d="M8.60781 5C6.61527 5 5 6.60195 5 8.57806V22.7553C5 24.7314 6.61527 26.3333 8.60781 26.3333H21.5414C23.534 26.3333 25.1493 24.7314 25.1493 22.7553V20.73C25.1493 20.2453 24.7531 19.8523 24.2643 19.8523C23.7756 19.8523 23.3794 20.2453 23.3794 20.73V22.7553C23.3794 23.762 22.5565 24.5781 21.5414 24.5781H8.60781C7.59274 24.5781 6.76987 23.762 6.76987 22.7553V8.57806C6.76987 7.57136 7.59274 6.75527 8.60781 6.75527H14.0536C14.5423 6.75527 14.9385 6.36234 14.9385 5.87764C14.9385 5.39293 14.5423 5 14.0536 5H8.60781Z" fill="black"/>
<path d="M17.0487 14.8192C17.6768 14.7324 18.2752 14.681 18.8186 14.654V16.2157C18.8186 17.4048 20.2563 18.0133 21.122 17.1905L25.9139 12.6361C26.4908 12.0878 26.4697 11.167 25.8684 10.6452L21.0765 6.48684C20.1962 5.72294 18.8186 6.34293 18.8186 7.50298V9.25317C12.1071 9.25317 9.38122 13.0661 8.39433 17.099C8.27215 18.0164 8.42614 19.4665 10.0196 17.9277C11.8741 15.9834 14.6736 15.1477 17.0487 14.8192Z" fill="black"/>
</svg>
