<svg width="48" height="48" viewBox="0 0 48 48" fill="none" xmlns="http://www.w3.org/2000/svg">
<path d="M21.8 22C21.9105 22 22 21.9105 22 21.8V10C22 8.89543 22.8954 8 24 8C25.1046 8 26 8.89543 26 10V21.8C26 21.9105 26.0895 22 26.2 22H38C39.1046 22 40 22.8954 40 24C40 25.1046 39.1046 26 38 26H26.2C26.0895 26 26 26.0895 26 26.2V38C26 39.1046 25.1046 40 24 40C22.8954 40 22 39.1046 22 38V26.2C22 26.0895 21.9105 26 21.8 26H10C8.89543 26 8 25.1046 8 24C8 22.8954 8.89543 22 10 22H21.8Z" fill="black"/>
</svg>
