<svg width="48" height="48" viewBox="0 0 48 48" fill="none" xmlns="http://www.w3.org/2000/svg">
<path d="M8 38.7063C8 37.9881 8.58221 37.4059 9.30039 37.4059H38.6996C39.4178 37.4059 40 37.9881 40 38.7063C40 39.4245 39.4178 40.0067 38.6996 40.0067H9.30039C8.58221 40.0067 8 39.4245 8 38.7063Z" fill="black"/>
<path fill-rule="evenodd" clip-rule="evenodd" d="M29.0512 35.5299C26.8414 35.5299 25.05 33.7385 25.05 31.5287V18.3543C25.05 16.1445 26.8414 14.3531 29.0512 14.3531H32.5985C34.8083 14.3531 36.5997 16.1445 36.5997 18.3543V31.5287C36.5997 33.7385 34.8083 35.5299 32.5985 35.5299H29.0512Z" fill="black"/>
<path d="M15.4016 35.5299C13.1918 35.5299 11.4004 33.7385 11.4004 31.5287L11.4004 12.0012C11.4004 9.79141 13.1918 8 15.4016 8L18.9488 8C21.1587 8 22.9501 9.7914 22.9501 12.0012L22.9501 31.5287C22.9501 33.7385 21.1587 35.5299 18.9488 35.5299H15.4016Z" fill="black"/>
</svg>
