<svg width="48" height="48" viewBox="0 0 48 48" fill="none" xmlns="http://www.w3.org/2000/svg">
<path d="M8 38.7063C8 37.9881 8.58221 37.4059 9.30039 37.4059H38.6996C39.4178 37.4059 40 37.9881 40 38.7063C40 39.4245 39.4178 40.0067 38.6996 40.0067H9.30039C8.58221 40.0067 8 39.4245 8 38.7063Z" fill="black"/>
<path fill-rule="evenodd" clip-rule="evenodd" d="M11.4004 31.5287C11.4004 33.7385 13.1918 35.5299 15.4016 35.5299H18.9488C21.1587 35.5299 22.9501 33.7385 22.9501 31.5287L22.9501 12.0012C22.9501 9.7914 21.1587 8 18.9488 8L15.4016 8C13.1918 8 11.4004 9.79141 11.4004 12.0012L11.4004 31.5287ZM14.0012 12.0012L14.0012 31.5287C14.0012 32.3021 14.6281 32.9291 15.4016 32.9291H18.9488C19.7223 32.9291 20.3493 32.3021 20.3493 31.5287L20.3493 12.0012C20.3493 11.2278 19.7223 10.6008 18.9488 10.6008L15.4016 10.6008C14.6281 10.6008 14.0012 11.2278 14.0012 12.0012Z" fill="black"/>
<path fill-rule="evenodd" clip-rule="evenodd" d="M29.0512 35.5299C26.8414 35.5299 25.05 33.7385 25.05 31.5287V18.3543C25.05 16.1445 26.8414 14.3531 29.0512 14.3531H32.5985C34.8083 14.3531 36.5997 16.1445 36.5997 18.3543V31.5287C36.5997 33.7385 34.8083 35.5299 32.5985 35.5299H29.0512ZM27.6508 31.5287V18.3543C27.6508 17.5808 28.2778 16.9538 29.0512 16.9538L32.5985 16.9538C33.3719 16.9538 33.9989 17.5808 33.9989 18.3543V31.5287C33.9989 32.3021 33.3719 32.9291 32.5985 32.9291H29.0512C28.2778 32.9291 27.6508 32.3021 27.6508 31.5287Z" fill="black"/>
</svg>
