<svg width="48" height="48" viewBox="0 0 48 48" fill="none" xmlns="http://www.w3.org/2000/svg">
<path fill-rule="evenodd" clip-rule="evenodd" d="M24.0027 8C17.9139 8 13 12.9819 13 19.0999C13 24.4627 17.1208 28.716 21.3008 31.6336C21.7371 31.9381 22.2112 32.161 22.7029 32.3021V32.7804C22.7029 33.1669 22.3895 33.4803 22.003 33.4803H20.1807C18.3584 33.4803 16.8811 34.9576 16.8811 36.7799V38.7002C16.8811 39.418 17.4631 40 18.181 40C18.8989 40 19.4808 39.418 19.4808 38.7002V36.7799C19.4808 36.3933 19.7942 36.08 20.1807 36.08H22.003C23.8253 36.08 25.3026 34.6027 25.3026 32.7804V32.3021C25.7942 32.161 26.2683 31.9381 26.7046 31.6336C30.8847 28.716 35.0054 24.4627 35.0054 19.0999C35.0054 12.9819 30.0915 8 24.0027 8ZM19.0182 13.5934C20.173 12.5728 21.6808 11.9201 23.0324 11.9201C23.7503 11.9201 24.3323 12.502 24.3323 13.2199C24.3323 13.9378 23.7503 14.5197 23.0324 14.5197C22.4435 14.5197 21.5255 14.847 20.7398 15.5414C19.9793 16.2134 19.4808 17.106 19.4808 18.1199C19.4808 18.8378 18.8989 19.4198 18.181 19.4198C17.4631 19.4198 16.8811 18.8378 16.8811 18.1199C16.8811 16.1939 17.8381 14.6364 19.0182 13.5934Z" fill="black"/>
</svg>
