<svg width="48" height="48" viewBox="0 0 48 48" fill="none" xmlns="http://www.w3.org/2000/svg">
<path fill-rule="evenodd" clip-rule="evenodd" d="M40 36C40 38.2091 38.2091 40 36 40C33.7909 40 32 38.2091 32 36V26C32 23.7909 33.7909 22 36 22C38.2091 22 40 23.7909 40 26V36Z" fill="black"/>
<path fill-rule="evenodd" clip-rule="evenodd" d="M28 36C28 38.2091 26.2091 40 24 40C21.7909 40 20 38.2091 20 36L20 20C20 17.7909 21.7909 16 24 16C26.2091 16 28 17.7909 28 20L28 36Z" fill="black"/>
<path fill-rule="evenodd" clip-rule="evenodd" d="M12 40C14.2091 40 16 38.2091 16 36L16 12C16 9.79086 14.2091 8 12 8C9.79086 8 8 9.79086 8 12L8 36C8 38.2091 9.79086 40 12 40Z" fill="black"/>
</svg>
