<svg width="48" height="48" viewBox="0 0 48 48" fill="none" xmlns="http://www.w3.org/2000/svg">
<path fill-rule="evenodd" clip-rule="evenodd" d="M40 24C40 32.8366 32.8366 40 24 40C15.1634 40 8 32.8366 8 24C8 15.1634 15.1634 8 24 8C32.8366 8 40 15.1634 40 24ZM32.1221 33.9606C32.3308 34.1693 32.3147 34.5132 32.0793 34.6913C29.833 36.3915 27.0343 37.4 24 37.4C16.5994 37.4 10.6 31.4006 10.6 24C10.6 20.9657 11.6085 18.167 13.3087 15.9207C13.4868 15.6853 13.8307 15.6692 14.0394 15.8779L32.1221 33.9606ZM34.6913 32.0793C34.5132 32.3147 34.1693 32.3308 33.9606 32.1221L15.8779 14.0394C15.6692 13.8307 15.6853 13.4868 15.9207 13.3087C18.167 11.6085 20.9657 10.6 24 10.6C31.4006 10.6 37.4 16.5994 37.4 24C37.4 27.0343 36.3915 29.833 34.6913 32.0793Z" fill="black"/>
</svg>
