<svg width="48" height="48" viewBox="0 0 48 48" fill="none" xmlns="http://www.w3.org/2000/svg">
<path fill-rule="evenodd" clip-rule="evenodd" d="M12 14C9.79086 14 8 15.7909 8 18V30C8 32.2091 9.79086 34 12 34H36C38.2091 34 40 32.2091 40 30V18C40 15.7909 38.2091 14 36 14H12ZM16 26C17.1046 26 18 25.1046 18 24C18 22.8954 17.1046 22 16 22C14.8954 22 14 22.8954 14 24C14 25.1046 14.8954 26 16 26ZM22 23C21.4477 23 21 23.4477 21 24C21 24.5523 21.4477 25 22 25H33C33.5523 25 34 24.5523 34 24C34 23.4477 33.5523 23 33 23H22Z" fill="black"/>
</svg>
