<svg width="48" height="48" viewBox="0 0 48 48" fill="none" xmlns="http://www.w3.org/2000/svg">
<path fill-rule="evenodd" clip-rule="evenodd" d="M31 25C31 28.866 27.866 32 24 32C20.134 32 17 28.866 17 25C17 21.134 20.134 18 24 18C27.866 18 31 21.134 31 25ZM28.4 25C28.4 27.4301 26.4301 29.4 24 29.4C21.5699 29.4 19.6 27.4301 19.6 25C19.6 22.5699 21.5699 20.6 24 20.6C26.4301 20.6 28.4 22.5699 28.4 25Z" fill="black"/>
<path fill-rule="evenodd" clip-rule="evenodd" d="M8 18C8 15.7909 9.79086 14 12 14H14.8764C14.9521 14 15.0214 13.9572 15.0553 13.8894L15.8944 12.2111C16.572 10.856 17.957 10 19.4721 10H28.5279C30.043 10 31.428 10.856 32.1056 12.2111L32.9447 13.8894C32.9786 13.9572 33.0479 14 33.1236 14H36C38.2091 14 40 15.7909 40 18V34C40 36.2091 38.2091 38 36 38H12C9.79086 38 8 36.2091 8 34V18ZM37.4 18V34C37.4 34.7732 36.7732 35.4 36 35.4H12C11.2268 35.4 10.6 34.7732 10.6 34V18C10.6 17.2268 11.2268 16.6 12 16.6H14.8764C15.937 16.6 16.9065 16.0008 17.3808 15.0522L18.2199 13.3739C18.4571 12.8996 18.9419 12.6 19.4721 12.6H28.5279C29.0581 12.6 29.5429 12.8996 29.7801 13.3739L30.6192 15.0522C31.0935 16.0008 32.063 16.6 33.1236 16.6H36C36.7732 16.6 37.4 17.2268 37.4 18Z" fill="black"/>
</svg>
