<svg width="48" height="48" viewBox="0 0 48 48" fill="none" xmlns="http://www.w3.org/2000/svg">
<path fill-rule="evenodd" clip-rule="evenodd" d="M12 14C9.79086 14 8 15.7909 8 18V34C8 36.2091 9.79086 38 12 38H36C38.2091 38 40 36.2091 40 34V18C40 15.7909 38.2091 14 36 14H33.1236C33.0479 14 32.9786 13.9572 32.9447 13.8894L32.1056 12.2111C31.428 10.856 30.043 10 28.5279 10H19.4721C17.957 10 16.572 10.856 15.8944 12.2111L15.0553 13.8894C15.0214 13.9572 14.9521 14 14.8764 14H12ZM31 25C31 28.866 27.866 32 24 32C20.134 32 17 28.866 17 25C17 21.134 20.134 18 24 18C27.866 18 31 21.134 31 25Z" fill="black"/>
<path d="M24 29.4C26.4301 29.4 28.4 27.4301 28.4 25C28.4 22.5699 26.4301 20.6 24 20.6C21.5699 20.6 19.6 22.5699 19.6 25C19.6 27.4301 21.5699 29.4 24 29.4Z" fill="black"/>
</svg>
