<svg width="48" height="48" viewBox="0 0 48 48" fill="none" xmlns="http://www.w3.org/2000/svg">
<path fill-rule="evenodd" clip-rule="evenodd" d="M24 40C32.8365 40 40 32.8365 40 24C40 15.1635 32.8365 8 24 8C15.1635 8 8 15.1635 8 24C8 32.8365 15.1635 40 24 40ZM25.3 15C25.3 14.282 24.718 13.7 24 13.7C23.282 13.7 22.7 14.282 22.7 15V24.1243C22.7 24.3895 22.8053 24.6438 22.9928 24.8314L29.0808 30.9193C29.5885 31.4269 30.4115 31.4269 30.9192 30.9193C31.4269 30.4116 31.4269 29.5884 30.9192 29.0807L25.5929 23.7544C25.4054 23.5669 25.3 23.3125 25.3 23.0473V15Z" fill="black"/>
</svg>
