<svg width="48" height="48" viewBox="0 0 48 48" fill="none" xmlns="http://www.w3.org/2000/svg">
<path fill-rule="evenodd" clip-rule="evenodd" d="M14 37.9608C14 38.8305 14.9699 39.3141 15.6247 38.7708L23.9452 31.866C23.9807 31.8366 24.0247 31.8206 24.0702 31.8206H36C38.2091 31.8206 40 29.9629 40 27.6714V13.1492C40 10.8577 38.2091 9 36 9H12C9.79086 9 8 10.8577 8 13.1492V27.6714C8 29.9629 9.79086 31.8206 12 31.8206H13.8C13.9105 31.8206 14 31.9135 14 32.028V37.9608ZM36 11.6H12C11.3157 11.6 10.6 12.203 10.6 13.1492V27.6714C10.6 28.6176 11.3157 29.2206 12 29.2206H13.8C15.4353 29.2206 16.6 30.5681 16.6 32.028V34.5828L22.2849 29.8652C22.7795 29.4548 23.4087 29.2206 24.0702 29.2206H36C36.6843 29.2206 37.4 28.6176 37.4 27.6714V13.1492C37.4 12.203 36.6843 11.6 36 11.6Z" fill="black"/>
</svg>
