<svg width="48" height="48" viewBox="0 0 48 48" fill="none" xmlns="http://www.w3.org/2000/svg">
<path d="M24.0061 19.2239C29.7744 19.2239 34.8795 18.0413 38 16.2264V24.0476C37.9945 24.0626 37.9865 24.0821 37.9746 24.1062C37.9266 24.204 37.8164 24.3765 37.5814 24.6079C37.0939 25.088 36.2301 25.6627 34.9105 26.2124C32.2826 27.3069 28.4295 28.0597 24.0061 28.0597C19.5827 28.0597 15.7297 27.3069 13.1018 26.2124C11.7822 25.6627 10.9184 25.088 10.4309 24.6079C10.1959 24.3765 10.0857 24.204 10.0377 24.1062C10.0144 24.0589 10.0058 24.0294 10.0027 24.0167C10.0007 24.0086 10 24.0014 10 24.0014V16.2193C13.1194 18.0382 18.2303 19.2239 24.0061 19.2239Z" fill="black"/>
<path d="M10.0027 35.957C10.0007 35.9489 10 35.9417 10 35.9417V28.1595C13.1194 29.9785 18.2303 31.1642 24.0061 31.1642C29.7744 31.1642 34.8795 29.9816 38 28.1667V35.9879C37.9945 36.0029 37.9865 36.0224 37.9746 36.0465C37.9266 36.1443 37.8164 36.3168 37.5814 36.5482C37.0939 37.0283 36.2301 37.603 34.9105 38.1527C32.2826 39.2472 28.4295 40 24.0061 40C19.5827 40 15.7297 39.2472 13.1018 38.1527C11.7822 37.603 10.9184 37.0283 10.4309 36.5482C10.1959 36.3168 10.0857 36.1443 10.0377 36.0465C10.0144 35.9992 10.0058 35.9697 10.0027 35.957Z" fill="black"/>
<path d="M37.9746 11.9535C37.9266 11.8557 37.8164 11.6832 37.5814 11.4518C37.0939 10.9717 36.2301 10.397 34.9105 9.84733C32.2826 8.7528 28.4295 8 24.0061 8C19.5827 8 15.7297 8.7528 13.1018 9.84733C11.7822 10.397 10.9184 10.9717 10.4309 11.4518C10.1959 11.6832 10.0857 11.8557 10.0377 11.9535C10.0203 11.9934 9.99591 12.0917 10.0377 12.1659C10.0857 12.2637 10.1959 12.4362 10.4309 12.6676C10.9184 13.1477 11.7822 13.7224 13.1018 14.2721C15.7297 15.3666 19.5827 16.1194 24.0061 16.1194C28.4295 16.1194 32.2826 15.3666 34.9105 14.2721C36.2301 13.7224 37.0939 13.1477 37.5814 12.6676C37.8164 12.4362 37.9266 12.2637 37.9746 12.1659C38.0189 12.0877 37.9931 11.9917 37.9746 11.9535Z" fill="black"/>
</svg>
