<svg width="48" height="48" viewBox="0 0 48 48" fill="none" xmlns="http://www.w3.org/2000/svg">
<path d="M21.3794 20.5747C21.3794 19.8568 20.7974 19.2749 20.0795 19.2749C19.3617 19.2749 18.7797 19.8568 18.7797 20.5747V32.8416C18.7797 33.5595 19.3617 34.1415 20.0795 34.1415C20.7974 34.1415 21.3794 33.5595 21.3794 32.8416V20.5747Z" fill="black"/>
<path d="M27.9197 19.2749C28.6375 19.2749 29.2195 19.8568 29.2195 20.5747V32.8416C29.2195 33.5595 28.6375 34.1415 27.9197 34.1415C27.2018 34.1415 26.6198 33.5595 26.6198 32.8416V20.5747C26.6198 19.8568 27.2018 19.2749 27.9197 19.2749Z" fill="black"/>
<path fill-rule="evenodd" clip-rule="evenodd" d="M24 8C21.2674 8 19.4119 9.07214 18.2717 10.5312C17.5481 11.4573 17.1466 12.494 16.9577 13.4179H9.29984C8.58196 13.4179 8 13.9998 8 14.7177C8 15.4356 8.58196 16.0176 9.29984 16.0176H11.4512L12.9463 36.2919C13.1004 38.381 14.8403 39.9973 16.935 39.9973H31.0644C33.1591 39.9973 34.899 38.381 35.0531 36.2919L36.5481 16.0187L38.7002 16.0176C39.418 16.0176 40 15.4356 40 14.7177C40 13.9998 39.418 13.4179 38.7002 13.4179H31.0423C30.8534 12.494 30.4519 11.4573 29.7283 10.5312C28.5881 9.07214 26.7326 8 24 8ZM27.6798 12.1319C27.9962 12.5367 28.2145 12.9858 28.3568 13.4179H19.6432C19.7855 12.9858 20.0038 12.5367 20.3202 12.1319C20.9441 11.3335 22.0285 10.5997 24 10.5997C25.9715 10.5997 27.0559 11.3335 27.6798 12.1319ZM15.539 36.1007L14.058 16.0187H33.9414L32.4604 36.1007C32.4065 36.8319 31.7976 37.3976 31.0644 37.3976H16.935C16.2019 37.3976 15.5929 36.8319 15.539 36.1007Z" fill="black"/>
</svg>
