<svg width="48" height="48" viewBox="0 0 48 48" fill="none" xmlns="http://www.w3.org/2000/svg">
<path d="M17.0807 17.0808C17.5884 16.5731 18.4115 16.5731 18.9192 17.0808L24 22.1615L29.0807 17.0808C29.5884 16.5731 30.4115 16.5731 30.9192 17.0808C31.4269 17.5885 31.4269 18.4116 30.9192 18.9193L25.8384 24L30.9192 29.0808C31.4269 29.5885 31.4269 30.4116 30.9192 30.9193C30.4115 31.4269 29.5884 31.4269 29.0807 30.9193L24 25.8385L18.9192 30.9193C18.4115 31.4269 17.5884 31.4269 17.0807 30.9193C16.573 30.4116 16.573 29.5885 17.0807 29.0808L22.1615 24L17.0807 18.9193C16.573 18.4116 16.573 17.5885 17.0807 17.0808Z" fill="black"/>
<path fill-rule="evenodd" clip-rule="evenodd" d="M8 12C8 9.79086 9.79086 8 12 8H36C38.2091 8 40 9.79086 40 12V36C40 38.2091 38.2091 40 36 40H12C9.79086 40 8 38.2091 8 36V12ZM12 10.6H36C36.7732 10.6 37.4 11.2268 37.4 12V36C37.4 36.7732 36.7732 37.4 36 37.4H12C11.2268 37.4 10.6 36.7732 10.6 36V12C10.6 11.2268 11.2268 10.6 12 10.6Z" fill="black"/>
</svg>
