<svg width="48" height="48" viewBox="0 0 48 48" fill="none" xmlns="http://www.w3.org/2000/svg">
<path fill-rule="evenodd" clip-rule="evenodd" d="M12 12C12 9.79086 13.7909 8 16 8H32C34.2091 8 36 9.79086 36 12V36C36 38.2091 34.2091 40 32 40H16C13.7909 40 12 38.2091 12 36V12ZM16 10.6H32C32.7732 10.6 33.4 11.2268 33.4 12V36C33.4 36.7732 32.7732 37.4 32 37.4H16C15.2268 37.4 14.6 36.7732 14.6 36V12C14.6 11.2268 15.2268 10.6 16 10.6Z" fill="black"/>
<path d="M18 12C16.8954 12 16 12.8954 16 14V34C16 35.1046 16.8954 36 18 36H30C31.1046 36 32 35.1046 32 34V14C32 12.8954 31.1046 12 30 12H18Z" fill="black"/>
</svg>
