<svg width="48" height="48" viewBox="0 0 48 48" fill="none" xmlns="http://www.w3.org/2000/svg">
<path d="M31.3 27.6858C31.3 26.9678 30.718 26.3858 30 26.3858C29.282 26.3858 28.7 26.9678 28.7 27.6858C28.7 28.4778 28.4517 29.6946 27.745 30.6762C27.086 31.5914 25.9763 32.3858 24 32.3858C23.282 32.3858 22.7 32.9678 22.7 33.6858C22.7 34.4038 23.282 34.9858 24 34.9858C26.8237 34.9858 28.714 33.7801 29.855 32.1954C30.9483 30.6769 31.3 28.8938 31.3 27.6858Z" fill="black"/>
<path fill-rule="evenodd" clip-rule="evenodd" d="M36 25.8612C36 33.6698 30.6274 40 24 40C17.3726 40 12 33.6698 12 25.8612C12 19.1397 20.8912 10.5205 23.367 8.25078C23.7317 7.91641 24.2683 7.91641 24.633 8.25078C27.1088 10.5205 36 19.1397 36 25.8612ZM33.4 25.8612C33.4 32.65 28.808 37.4 24 37.4C19.192 37.4 14.6 32.65 14.6 25.8612C14.6 24.7252 14.9854 23.3312 15.7649 21.7327C16.5342 20.155 17.6125 18.53 18.8128 16.9758C20.4792 14.8182 22.2985 12.9023 23.6537 11.5669C23.8461 11.3773 24.1539 11.3773 24.3463 11.5669C25.7015 12.9023 27.5208 14.8182 29.1872 16.9758C30.3875 18.53 31.4658 20.155 32.2351 21.7327C33.0146 23.3312 33.4 24.7252 33.4 25.8612Z" fill="black"/>
</svg>
