<svg width="48" height="48" viewBox="0 0 48 48" fill="none" xmlns="http://www.w3.org/2000/svg">
<path fill-rule="evenodd" clip-rule="evenodd" d="M22.7 39V9H12C9.79086 9 8 10.7909 8 13V35C8 37.2091 9.79086 39 12 39H22.7ZM19.1615 24L18.3 23.1385V28.7C18.3 29.418 17.718 30 17 30C16.282 30 15.7 29.418 15.7 28.7V23.1385L14.8385 24C14.3308 24.5077 13.5077 24.5077 13 24C12.4923 23.4923 12.4923 22.6692 13 22.1615L16.2929 18.8686C16.6834 18.4781 17.3166 18.4781 17.7071 18.8686L21 22.1615C21.5077 22.6692 21.5077 23.4923 21 24C20.4923 24.5077 19.6692 24.5077 19.1615 24Z" fill="black"/>
<path fill-rule="evenodd" clip-rule="evenodd" d="M25.3 39V9H36C38.2091 9 40 10.7909 40 13V35C40 37.2091 38.2091 39 36 39H25.3ZM34.1615 26L33.3 26.8615V21.3C33.3 20.582 32.718 20 32 20C31.282 20 30.7 20.582 30.7 21.3V26.8615L29.8385 26C29.3308 25.4923 28.5077 25.4923 28 26C27.4923 26.5077 27.4923 27.3308 28 27.8385L31.2929 31.1314C31.6834 31.5219 32.3166 31.5219 32.7071 31.1314L36 27.8385C36.5077 27.3308 36.5077 26.5077 36 26C35.4923 25.4923 34.6692 25.4923 34.1615 26Z" fill="black"/>
</svg>
