<svg width="48" height="48" viewBox="0 0 48 48" fill="none" xmlns="http://www.w3.org/2000/svg">
<path fill-rule="evenodd" clip-rule="evenodd" d="M24 40C32.8366 40 40 32.8366 40 24C40 15.1634 32.8366 8 24 8C15.1634 8 8 15.1634 8 24C8 32.8366 15.1634 40 24 40ZM18.2612 27.6847C18.0871 26.9882 17.3812 26.5647 16.6847 26.7388C15.9882 26.9129 15.5647 27.6188 15.7388 28.3153C16.2264 30.2657 18.644 33.3 24 33.3C29.356 33.3 31.7736 30.2657 32.2612 28.3153C32.4353 27.6188 32.0118 26.9129 31.3153 26.7388C30.6188 26.5647 29.9129 26.9882 29.7388 27.6847C29.5598 28.4009 28.244 30.7 24 30.7C19.756 30.7 18.4402 28.4009 18.2612 27.6847ZM12.6 20.3C12.6 19.0297 13.6297 18 14.9 18H32.9C34.1702 18 35.2 19.0297 35.2 20.3V23.3C35.2 24.5703 34.1702 25.6 32.9 25.6H27.4C26.1297 25.6 25.1 24.5703 25.1 23.3V20.6H22.7V23.3C22.7 24.5703 21.6702 25.6 20.4 25.6H14.9C13.6297 25.6 12.6 24.5703 12.6 23.3V20.3Z" fill="black"/>
</svg>
