<svg width="48" height="48" viewBox="0 0 48 48" fill="none" xmlns="http://www.w3.org/2000/svg">
<path fill-rule="evenodd" clip-rule="evenodd" d="M15.6448 15.2997C15.6448 14.5819 16.2267 14 16.9445 14H26.5005C27.2183 14 27.8002 14.5819 27.8002 15.2997C27.8002 16.0174 27.2183 16.5993 26.5005 16.5993H24.9334V17.4799H26.9447C27.647 17.4799 28.3483 17.7981 28.7884 18.3991L30.0265 20.0898H30.8007C31.6649 20.0898 32.5782 20.7542 32.5782 21.8244V22.6997H32.8457V21.8244C32.8457 20.7542 33.759 20.0898 34.6231 20.0898H36.7825C37.2699 20.0898 37.7958 20.2898 38.1579 20.7311C39.8365 22.7769 40.1543 25.2942 39.9415 27.4941C39.7285 29.6951 38.9738 31.7376 38.2958 33.0529C37.9669 33.691 37.3174 33.9986 36.7169 33.9986H34.6231C33.759 33.9986 32.8457 33.3342 32.8457 32.264V31.3887H32.5782V32.264C32.5782 33.3342 31.6649 33.9986 30.8007 33.9986H21.1627C20.6019 33.9986 20.0424 33.7969 19.6121 33.4052L16.4415 30.5188H13.6219C12.6281 30.5188 11.8224 29.7131 11.8224 28.7193V25.299H10.5993V28.3492C10.5993 29.0669 10.0174 29.6488 9.29965 29.6488C8.58188 29.6488 8 29.0669 8 28.3492V19.6495C8 18.9317 8.58188 18.3498 9.29965 18.3498C10.0174 18.3498 10.5993 18.9317 10.5993 19.6495V22.6997H11.8224V22.2594C11.8224 21.0862 12.3957 20.2594 13.1263 19.7805C13.5728 19.4878 14.0571 19.3346 14.4795 19.2661L15.7897 18.0733C16.2199 17.6816 16.7795 17.4799 17.3403 17.4799H19.4672V16.5993H16.9445C16.2267 16.5993 15.6448 16.0174 15.6448 15.2997ZM22.0665 16.5993V17.4799H22.334V16.5993H22.0665ZM17.4475 20.0792L15.5363 21.8191H15.0333C14.984 21.8191 14.8949 21.8269 14.7931 21.8534C14.692 21.8797 14.6094 21.9163 14.5512 21.9544C14.4973 21.9898 14.4741 22.0194 14.4618 22.041C14.4519 22.0585 14.4217 22.1175 14.4217 22.2594V27.9195H16.5487C17.1095 27.9195 17.669 28.1212 18.0993 28.5129L21.2699 31.3993H29.9789V30.5241C29.9789 29.4539 30.8922 28.7894 31.7563 28.7894H33.6675C34.5317 28.7894 35.445 29.4539 35.445 30.5241V31.3993H36.21C36.7051 30.3182 37.2025 28.8124 37.3542 27.2438C37.5159 25.5733 37.2763 23.9674 36.3828 22.6891H35.445V23.2995C35.445 24.4038 34.5498 25.299 33.4455 25.299H31.7563C30.8922 25.299 29.9789 24.6345 29.9789 23.5643V22.6891H29.8787C29.1765 22.6891 28.4751 22.3708 28.0351 21.7699L26.797 20.0792H17.4475Z" fill="black"/>
</svg>
