<svg width="48" height="48" viewBox="0 0 48 48" fill="none" xmlns="http://www.w3.org/2000/svg">
<path d="M8.21918 6.38075C7.71151 5.87308 6.88842 5.87308 6.38075 6.38075C5.87308 6.88842 5.87308 7.71151 6.38075 8.21918L39.7808 41.6192C40.2885 42.1269 41.1116 42.1269 41.6193 41.6192C42.1269 41.1116 42.1269 40.2885 41.6193 39.7808L8.21918 6.38075Z" fill="black"/>
<path d="M9.08198 32.0333L18.2309 22.2308L20.0705 24.0704L11.7234 33.0137C11.455 33.3012 11.2774 33.6615 11.2127 34.0495L10.8959 35.9507C10.7831 36.6275 11.3698 37.2143 12.0466 37.1015L13.9479 36.7846C14.3358 36.7199 14.6961 36.5423 14.9837 36.2739L23.927 27.9269L25.7665 29.7664L15.964 38.9154C15.8203 39.0496 15.6401 39.1384 15.4461 39.1707L10.6789 39.9652C9.12221 40.2247 7.77266 38.8751 8.0321 37.3185L8.82665 32.5512C8.85898 32.3572 8.94779 32.1771 9.08198 32.0333Z" fill="black"/>
<path d="M22.0929 18.093L23.9324 19.9325L24.2638 19.5775L28.4198 23.7336L28.0648 24.0649L29.9043 25.9044L30.2593 25.5731L30.9302 26.2439C32.2546 27.5684 34.4145 27.5262 35.6862 26.1511L37.0077 24.7223C38.2111 23.421 38.1716 21.4016 36.9184 20.1483L36.2223 19.4523L38.2521 17.6425L38.2784 17.6162C38.9304 16.9642 39.6999 15.8186 39.9298 14.4065C40.1728 12.9138 39.7898 11.2302 38.2784 9.71878C36.767 8.2074 35.0833 7.8244 33.5907 8.06739C32.1989 8.29395 31.0661 9.04472 30.4095 9.69054L28.3219 11.5518L27.631 10.8609C26.3066 9.5365 24.1466 9.57866 22.8749 10.9538L21.5535 12.3826C20.3501 13.6838 20.3895 15.7033 21.6428 16.9565L22.4242 17.738L22.0929 18.093Z" fill="black"/>
</svg>
