<svg width="48" height="48" viewBox="0 0 48 48" fill="none" xmlns="http://www.w3.org/2000/svg">
<path d="M8 15.9998C8 14.8954 8.89536 14 9.99984 14H38.0002C39.1046 14 40 14.8954 40 15.9998C40 17.1043 39.1046 17.9997 38.0002 17.9997H9.99984C8.89536 17.9997 8 17.1043 8 15.9998Z" fill="black"/>
<path d="M11.9999 24.0002C11.9999 22.8957 12.8953 22.0004 13.9998 22.0004H34C35.1045 22.0004 35.9998 22.8957 35.9998 24.0002C35.9998 25.1047 35.1045 26.0001 34 26.0001H13.9998C12.8953 26.0001 11.9999 25.1047 11.9999 24.0002Z" fill="black"/>
<path d="M17.9999 30.0008C16.8954 30.0008 16.0001 30.8961 16.0001 32.0006C16.0001 33.1051 16.8954 34.0004 17.9999 34.0004H30.0001C31.1045 34.0004 31.9999 33.1051 31.9999 32.0006C31.9999 30.8961 31.1045 30.0008 30.0001 30.0008H17.9999Z" fill="black"/>
</svg>
