<svg width="48" height="48" viewBox="0 0 48 48" fill="none" xmlns="http://www.w3.org/2000/svg">
<path d="M29.1068 9.3C29.1068 8.58203 28.5247 8 27.8068 8C27.0888 8 26.5068 8.58203 26.5068 9.3V12.2721C26.5068 12.9901 27.0888 13.5721 27.8068 13.5721C28.5247 13.5721 29.1068 12.9901 29.1068 12.2721V9.3Z" fill="black"/>
<path d="M36.6499 11.3513C37.1576 11.859 37.1576 12.6821 36.6499 13.1898L33.6778 16.1619C33.1701 16.6696 32.347 16.6696 31.8393 16.1619C31.3316 15.6542 31.3316 14.8311 31.8393 14.3234L34.8114 11.3513C35.3191 10.8436 36.1422 10.8436 36.6499 11.3513Z" fill="black"/>
<path d="M35.7294 18.8932C35.0114 18.8932 34.4294 19.4753 34.4294 20.1932C34.4294 20.9112 35.0114 21.4932 35.7294 21.4932H38.7015C39.4195 21.4932 40.0015 20.9112 40.0015 20.1932C40.0015 19.4753 39.4195 18.8932 38.7015 18.8932H35.7294Z" fill="black"/>
<path d="M34.597 28.5625C36.1069 27.0526 36.1069 24.6045 34.597 23.0946L24.9052 13.4029C23.3953 11.8931 20.9474 11.8931 19.4375 13.4029L19.1793 13.6611C18.984 13.8564 18.984 14.173 19.1793 14.3683L33.6318 28.8207C33.8271 29.0159 34.1436 29.0159 34.3389 28.8207L34.597 28.5625Z" fill="black"/>
<path fill-rule="evenodd" clip-rule="evenodd" d="M30.9456 29.6887C31.2472 29.9903 31.0569 30.5068 30.6317 30.5407L25.145 30.9778C24.6849 31.0132 24.2527 31.212 23.9264 31.5383L16.597 38.8676C15.0871 40.3775 12.6391 40.3775 11.1293 38.8676L9.13245 36.8708C7.62252 35.3609 7.62252 32.9128 9.13245 31.4029L16.4614 24.0741C16.7877 23.7477 16.9865 23.3155 17.0219 22.8553L17.459 17.3681C17.4929 16.9429 18.0094 16.7526 18.311 17.0542L30.9456 29.6887ZM19.2623 28.7499C19.77 29.2576 19.77 30.0807 19.2623 30.5884L17.3284 32.5223C16.8207 33.03 15.9976 33.03 15.4899 32.5223C14.9823 32.0146 14.9823 31.1915 15.4899 30.6838L17.4238 28.7499C17.9315 28.2422 18.7546 28.2422 19.2623 28.7499Z" fill="black"/>
</svg>
