<svg width="48" height="48" viewBox="0 0 48 48" fill="none" xmlns="http://www.w3.org/2000/svg">
<path d="M8.21918 6.38075C7.71151 5.87308 6.88842 5.87308 6.38075 6.38075C5.87308 6.88842 5.87308 7.71151 6.38075 8.21918L39.7808 41.6192C40.2885 42.1269 41.1116 42.1269 41.6193 41.6192C42.1269 41.1116 42.1269 40.2885 41.6193 39.7808L8.21918 6.38075Z" fill="black"/>
<path d="M10.1477 22.2697L12.5861 16.586L26.8231 30.823L18.1742 39.4627C16.9224 40.7132 14.8067 39.5962 15.1331 37.8572L17.5878 24.7794H11.8018C10.5093 24.7794 9.63804 23.4575 10.1477 22.2697Z" fill="black"/>
<path d="M14.9879 10.988L30.8252 26.8253L37.4688 20.1887C38.6037 19.0551 37.8008 17.1153 36.1968 17.1153H29.0699L31.3209 10.3696C31.7098 9.20402 30.8423 7.99995 29.6135 7.99995H17.4562C16.7364 7.99995 16.0858 8.42876 15.8021 9.09023L14.9879 10.988Z" fill="black"/>
</svg>
