<svg width="48" height="48" viewBox="0 0 48 48" fill="none" xmlns="http://www.w3.org/2000/svg">
<path fill-rule="evenodd" clip-rule="evenodd" d="M12 8C9.79086 8 8 9.79086 8 12V36C8 38.2091 9.79086 40 12 40H36C38.2091 40 40 38.2091 40 36V12C40 9.79086 38.2091 8 36 8H12ZM14 13.2C13.282 13.2 12.7 13.782 12.7 14.5C12.7 15.218 13.282 15.8 14 15.8H34C34.718 15.8 35.3 15.218 35.3 14.5C35.3 13.782 34.718 13.2 34 13.2H14ZM24 20.7C23.282 20.7 22.7 21.282 22.7 22C22.7 22.718 23.282 23.3 24 23.3H34C34.718 23.3 35.3 22.718 35.3 22C35.3 21.282 34.718 20.7 34 20.7H24ZM24 29.7C23.282 29.7 22.7 30.282 22.7 31C22.7 31.718 23.282 32.3 24 32.3H34C34.718 32.3 35.3 31.718 35.3 31C35.3 30.282 34.718 29.7 34 29.7H24ZM17 35C19.2091 35 21 33.2091 21 31C21 28.7909 19.2091 27 17 27C14.7909 27 13 28.7909 13 31C13 33.2091 14.7909 35 17 35ZM18.4 31C18.4 31.7732 17.7732 32.4 17 32.4C16.2268 32.4 15.6 31.7732 15.6 31C15.6 30.2268 16.2268 29.6 17 29.6C17.7732 29.6 18.4 30.2268 18.4 31ZM17 26C19.2091 26 21 24.2091 21 22C21 19.7909 19.2091 18 17 18C14.7909 18 13 19.7909 13 22C13 24.2091 14.7909 26 17 26ZM18.4 22C18.4 22.7732 17.7732 23.4 17 23.4C16.2268 23.4 15.6 22.7732 15.6 22C15.6 21.2268 16.2268 20.6 17 20.6C17.7732 20.6 18.4 21.2268 18.4 22Z" fill="black"/>
</svg>
