<svg width="48" height="48" viewBox="0 0 48 48" fill="none" xmlns="http://www.w3.org/2000/svg">
<path d="M14 13.2C13.282 13.2 12.7 13.782 12.7 14.5C12.7 15.218 13.282 15.8 14 15.8H34C34.718 15.8 35.3 15.218 35.3 14.5C35.3 13.782 34.718 13.2 34 13.2H14Z" fill="black"/>
<path d="M22.7 22C22.7 21.282 23.282 20.7 24 20.7H34C34.718 20.7 35.3 21.282 35.3 22C35.3 22.718 34.718 23.3 34 23.3H24C23.282 23.3 22.7 22.718 22.7 22Z" fill="black"/>
<path d="M24 29.7C23.282 29.7 22.7 30.282 22.7 31C22.7 31.718 23.282 32.3 24 32.3H34C34.718 32.3 35.3 31.718 35.3 31C35.3 30.282 34.718 29.7 34 29.7H24Z" fill="black"/>
<path fill-rule="evenodd" clip-rule="evenodd" d="M17 26C19.2091 26 21 24.2091 21 22C21 19.7909 19.2091 18 17 18C14.7909 18 13 19.7909 13 22C13 24.2091 14.7909 26 17 26ZM17 23.4C17.7732 23.4 18.4 22.7732 18.4 22C18.4 21.2268 17.7732 20.6 17 20.6C16.2268 20.6 15.6 21.2268 15.6 22C15.6 22.7732 16.2268 23.4 17 23.4Z" fill="black"/>
<path fill-rule="evenodd" clip-rule="evenodd" d="M21 31C21 33.2091 19.2091 35 17 35C14.7909 35 13 33.2091 13 31C13 28.7909 14.7909 27 17 27C19.2091 27 21 28.7909 21 31ZM18.4 31C18.4 31.7732 17.7732 32.4 17 32.4C16.2268 32.4 15.6 31.7732 15.6 31C15.6 30.2268 16.2268 29.6 17 29.6C17.7732 29.6 18.4 30.2268 18.4 31Z" fill="black"/>
<path fill-rule="evenodd" clip-rule="evenodd" d="M8 12C8 9.79086 9.79086 8 12 8H36C38.2091 8 40 9.79086 40 12V36C40 38.2091 38.2091 40 36 40H12C9.79086 40 8 38.2091 8 36V12ZM12 10.6H36C36.7732 10.6 37.4 11.2268 37.4 12V36C37.4 36.7732 36.7732 37.4 36 37.4H12C11.2268 37.4 10.6 36.7732 10.6 36V12C10.6 11.2268 11.2268 10.6 12 10.6Z" fill="black"/>
</svg>
