<svg width="48" height="48" viewBox="0 0 48 48" fill="none" xmlns="http://www.w3.org/2000/svg">
<path fill-rule="evenodd" clip-rule="evenodd" d="M16.8922 16.5987C16.7267 16.5987 16.5666 16.6574 16.4402 16.7642L12.8493 19.8004H19.0602C20.7477 19.8004 22.1393 21.0667 22.336 22.7006H25.664C25.8607 21.0668 27.2523 19.8004 28.9398 19.8004H35.1507L31.5598 16.7642C31.4334 16.6574 31.2733 16.5987 31.1078 16.5987H27.92C27.2022 16.5987 26.6202 16.017 26.6202 15.2994C26.6202 14.5817 27.2022 14 27.92 14H31.1078C31.888 14 32.643 14.2764 33.2387 14.7801L39.2917 19.8981C39.7409 20.2779 40 20.8362 40 21.4244V30.7016C40 32.5233 38.5227 34 36.7004 34H28.9398C27.1175 34 25.6402 32.5233 25.6402 30.7016V25.2994H22.3598V30.7016C22.3598 32.5233 20.8825 34 19.0602 34H11.2996C9.47728 34 8 32.5233 8 30.7016V21.4244C8 20.8362 8.25909 20.2779 8.7083 19.8981L14.7613 14.7801C15.357 14.2764 16.112 14 16.8922 14H20.08C20.7978 14 21.3798 14.5817 21.3798 15.2994C21.3798 16.017 20.7978 16.5987 20.08 16.5987H16.8922Z" fill="black"/>
</svg>
