<svg width="48" height="48" viewBox="0 0 48 48" fill="none" xmlns="http://www.w3.org/2000/svg">
<path d="M27 28.8975C27.6968 28.7618 28.4824 28.4804 29.1657 27.9885C30.1582 27.2739 31 26.0741 31 24C31 21.9259 30.1582 20.7261 29.1657 20.0115C28.4824 19.5196 27.6968 19.2382 27 19.1025V28.8975Z" fill="black"/>
<path fill-rule="evenodd" clip-rule="evenodd" d="M12 12C9.79086 12 8 13.7909 8 16V32C8 34.2091 9.79086 36 12 36H36C38.2091 36 40 34.2091 40 32V16C40 13.7909 38.2091 12 36 12H12ZM16 17C16.5523 17 17 17.4477 17 18V23H21V18C21 17.4477 21.4477 17 22 17C22.5523 17 23 17.4477 23 18V30C23 30.5523 22.5523 31 22 31C21.4477 31 21 30.5523 21 30V25H17V30C17 30.5523 16.5523 31 16 31C15.4477 31 15 30.5523 15 30V18C15 17.4477 15.4477 17 16 17ZM25 18C25 17.4477 25.4477 17 26 17C27.16 17 28.8778 17.3398 30.3343 18.3885C31.8418 19.4739 33 21.2741 33 24C33 26.7259 31.8418 28.5261 30.3343 29.6115C28.8778 30.6602 27.16 31 26 31C25.4477 31 25 30.5523 25 30V18Z" fill="black"/>
</svg>
