<svg width="48" height="48" viewBox="0 0 48 48" fill="none" xmlns="http://www.w3.org/2000/svg">
<path fill-rule="evenodd" clip-rule="evenodd" d="M10.6 21.7727C10.6 19.9293 11.2083 17.1278 13.1469 14.8117C15.0433 12.546 18.3328 10.6 24 10.6C29.6673 10.6 32.9568 12.546 34.8531 14.8117C36.7918 17.1278 37.4 19.9293 37.4 21.7727L37.4 28.4888H30C28.8954 28.4888 28 29.3842 28 30.4888V38.0021C28 39.1066 28.8954 40.0021 30 40.0021H36C38.2091 40.0021 40 38.2112 40 36.0021V21.7727C40 19.4586 39.2583 16.0237 36.8469 13.1429C34.3933 10.2115 30.3328 8 24 8C17.6673 8 13.6068 10.2115 11.1532 13.1429C8.74181 16.0237 8.00005 19.4586 8.00005 21.7727L8 36.0021C8 38.2112 9.79086 40.0021 12 40.0021H18C19.1046 40.0021 20 39.1066 20 38.0021V30.4888C20 29.3842 19.1046 28.4888 18 28.4888H10.6V21.7727ZM17.4 31.5888C17.4 31.3127 17.1761 31.0888 16.9 31.0888H11.1C10.8239 31.0888 10.6 31.3127 10.6 31.5888V36.0021C10.6 36.7753 11.2268 37.4021 12 37.4021H16.9C17.1761 37.4021 17.4 37.1782 17.4 36.9021V31.5888ZM31.1 31.0888C30.8239 31.0888 30.6 31.3127 30.6 31.5888V36.9021C30.6 37.1782 30.8239 37.4021 31.1 37.4021H36C36.7732 37.4021 37.4 36.7753 37.4 36.0021V31.5888C37.4 31.3127 37.1761 31.0888 36.9 31.0888H31.1Z" fill="black"/>
</svg>
