<svg width="48" height="48" viewBox="0 0 48 48" fill="none" xmlns="http://www.w3.org/2000/svg">
<path d="M26.1902 31.0331C24.8599 30.1626 23.1401 30.1626 21.8098 31.0331L15.0112 35.4816C14.5954 35.7537 14.7881 36.4 15.285 36.4H32.715C33.2119 36.4 33.4046 35.7537 32.9887 35.4816L26.1902 31.0331Z" fill="black"/>
<path fill-rule="evenodd" clip-rule="evenodd" d="M10.561 12.6996C9.1207 10.7091 10.6206 8 13.1628 8H34.8372C37.3794 8 38.8793 10.7091 37.439 12.6996L30.4921 22.3004C29.7514 23.3242 29.7514 24.6758 30.4921 25.6996L37.439 35.3004C38.8793 37.2909 37.3794 40 34.8372 40H13.1628C10.6206 40 9.1207 37.2909 10.561 35.3004L17.5079 25.6996C18.2486 24.6758 18.2486 23.3242 17.5079 22.3004L10.561 12.6996ZM13.1628 10.6H34.8372C35.1332 10.6 35.2877 10.7377 35.357 10.8627C35.3937 10.9291 35.4013 10.9837 35.3998 11.0175C35.3989 11.0406 35.3939 11.0908 35.3327 11.1754L28.3857 20.7763C26.9868 22.7096 26.9868 25.2904 28.3857 27.2237L35.3327 36.8246C35.357 36.8582 35.3725 36.8864 35.3823 36.9096C35.3972 36.9449 35.3993 36.9686 35.3998 36.9825C35.4013 37.0163 35.3937 37.0709 35.357 37.1373C35.2877 37.2623 35.1332 37.4 34.8372 37.4H13.1628C12.8668 37.4 12.7123 37.2623 12.643 37.1373C12.6221 37.0995 12.6107 37.0655 12.605 37.037C12.6007 37.0155 12.5996 36.9971 12.6002 36.9825C12.6011 36.9594 12.6061 36.9092 12.6673 36.8246L19.6143 27.2237C21.0132 25.2904 21.0132 22.7096 19.6143 20.7763L12.6673 11.1754C12.6351 11.1309 12.6184 11.0958 12.6097 11.0693C12.6019 11.0454 12.6006 11.0284 12.6002 11.0175C12.5987 10.9837 12.6063 10.9291 12.643 10.8627C12.7123 10.7377 12.8668 10.6 13.1628 10.6Z" fill="black"/>
</svg>
