<svg width="48" height="48" viewBox="0 0 48 48" fill="none" xmlns="http://www.w3.org/2000/svg">
<path d="M17.3569 27.9912L10.6 32.4957L8 34V36C8 38.2091 9.79086 40 12 40H36C38.2091 40 40 38.2091 40 36V35L37.4 32.081L31.6534 24.8978C31.3616 24.533 30.8012 24.5509 30.5333 24.9336L26.432 30.7926C25.2553 32.4736 22.8461 32.6845 21.3951 31.2336L18.2401 28.0786C18.0042 27.8427 17.6345 27.8061 17.3569 27.9912Z" fill="black"/>
<path fill-rule="evenodd" clip-rule="evenodd" d="M10.6 29.3709L15.9147 25.8278C17.2235 24.9553 18.9663 25.1278 20.0786 26.2401L23.2336 29.3951C23.5414 29.7029 24.0524 29.6582 24.302 29.3016L28.4033 23.4426C29.6661 21.6386 32.308 21.554 33.6836 23.2735L37.4 27.919L40 31V12C40 9.79086 38.2091 8 36 8H12C9.79086 8 8 9.79086 8 12V31L10.6 29.3709ZM18 22.6C20.5405 22.6 22.6 20.5405 22.6 18C22.6 15.4595 20.5405 13.4 18 13.4C15.4595 13.4 13.4 15.4595 13.4 18C13.4 20.5405 15.4595 22.6 18 22.6Z" fill="black"/>
</svg>
