<svg width="48" height="48" viewBox="0 0 48 48" fill="none" xmlns="http://www.w3.org/2000/svg">
<path fill-rule="evenodd" clip-rule="evenodd" d="M17.9953 22.6C20.5346 22.6 22.5931 20.5405 22.5931 18C22.5931 15.4595 20.5346 13.4 17.9953 13.4C15.456 13.4 13.3974 15.4595 13.3974 18C13.3974 20.5405 15.456 22.6 17.9953 22.6ZM19.9943 18C19.9943 19.1046 19.0993 20 17.9953 20C16.8912 20 15.9962 19.1046 15.9962 18C15.9962 16.8954 16.8912 16 17.9953 16C19.0993 16 19.9943 16.8954 19.9943 18Z" fill="black"/>
<path fill-rule="evenodd" clip-rule="evenodd" d="M39.9849 36V31.2L40 31.1879L39.9849 31.169V12C39.9849 9.79086 38.1949 8 35.9868 8H11.9981C9.79001 8 8 9.79086 8 12V36C8 38.2091 9.79001 40 11.9981 40H35.9868C38.1949 40 39.9849 38.2091 39.9849 36ZM35.9868 10.6H11.9981C11.2253 10.6 10.5988 11.2268 10.5988 12V29.3709L15.9109 25.8278C17.2191 24.9553 18.9611 25.1278 20.0729 26.2401L23.2264 29.3951C23.534 29.7029 24.0449 29.6582 24.2943 29.3016L28.3937 23.4426C29.6559 21.6386 32.2965 21.554 33.6715 23.2735L37.3861 27.919V12C37.3861 11.2268 36.7596 10.6 35.9868 10.6ZM10.5988 36V32.4957L17.3525 27.9912C17.63 27.8061 17.9995 27.8427 18.2353 28.0786L21.3888 31.2336C22.8391 32.6845 25.2472 32.4736 26.4233 30.7926L30.5227 24.9336C30.7904 24.5509 31.3505 24.533 31.6422 24.8978L37.3861 32.081V36C37.3861 36.7732 36.7596 37.4 35.9868 37.4H11.9981C11.2253 37.4 10.5988 36.7732 10.5988 36Z" fill="black"/>
</svg>
