<svg width="48" height="48" viewBox="0 0 48 48" fill="none" xmlns="http://www.w3.org/2000/svg">
<path fill-rule="evenodd" clip-rule="evenodd" d="M25.3 20.8588C27.9887 20.2649 30 17.8673 30 15C30 11.6863 27.3137 9 24 9C20.6863 9 18 11.6863 18 15C18 17.8673 20.0113 20.2649 22.7 20.8588V25.7H20C18.1775 25.7 16.7 27.1775 16.7 29V31H14C12.8954 31 12 31.8954 12 33V37C12 38.1046 12.8954 39 14 39H34C35.1046 39 36 38.1046 36 37V33C36 31.8954 35.1046 31 34 31H31.3V29C31.3 27.1775 29.8225 25.7 28 25.7H25.3V20.8588ZM27.4 15C27.4 16.8778 25.8778 18.4 24 18.4C22.1222 18.4 20.6 16.8778 20.6 15C20.6 13.1222 22.1222 11.6 24 11.6C25.8778 11.6 27.4 13.1222 27.4 15ZM28.7 31V29C28.7 28.6134 28.3866 28.3 28 28.3H20C19.6134 28.3 19.3 28.6134 19.3 29V31H28.7ZM14.6 33.6V36.4H33.4V33.6H14.6Z" fill="black"/>
</svg>
