<svg width="48" height="48" viewBox="0 0 48 48" fill="none" xmlns="http://www.w3.org/2000/svg">
<path fill-rule="evenodd" clip-rule="evenodd" d="M22.2837 8.75853C23.2016 7.74716 24.7984 7.74716 25.7163 8.75852L39.1371 23.5463C41.0864 25.6941 39.5055 29.0433 36.6672 29.0433H32.3785V31.7072C32.3785 33.5438 30.8735 35.0011 29.056 35.0011H18.944C17.1265 35.0011 15.6215 33.5438 15.6215 31.7072V29.0433H11.3328C8.49455 29.0433 6.91362 25.6941 8.8629 23.5463L22.2837 8.75853Z" fill="black"/>
<path d="M17.0004 37.4012C16.2824 37.4012 15.7003 37.9833 15.7003 38.7013C15.7003 39.4193 16.2824 40.0013 17.0004 40.0013H31.001C31.719 40.0013 32.301 39.4193 32.301 38.7013C32.301 37.9833 31.719 37.4012 31.001 37.4012H17.0004Z" fill="black"/>
</svg>
