<svg width="48" height="48" viewBox="0 0 48 48" fill="none" xmlns="http://www.w3.org/2000/svg">
<path fill-rule="evenodd" clip-rule="evenodd" d="M36.8665 10.8538C38.1932 9.91917 40 10.8913 40 12.5398V29.5392C40 30.2128 39.6762 30.8433 39.134 31.2252L30.0338 37.6359C29.351 38.1169 28.4491 38.1169 27.7663 37.6358L20.2337 32.3295C19.5509 31.8485 18.649 31.8485 17.9662 32.3295L11.1335 37.1428C9.80679 38.0774 8 37.1053 8 35.4568V18.4574C8 17.7838 8.32383 17.1533 8.86597 16.7714L17.9662 10.3608C18.649 9.87975 19.5509 9.87975 20.2337 10.3608L27.7663 15.6671C28.4491 16.1481 29.351 16.1481 30.0338 15.6671L36.8665 10.8538ZM27.6002 19.0492C27.6002 18.8808 27.5193 18.7232 27.3837 18.6277L21.1832 14.2597C20.8515 14.0261 20.3998 14.2691 20.3998 14.6812V28.9474C20.3998 29.1158 20.4807 29.2734 20.6163 29.3689L26.8168 33.7369C27.1485 33.9706 27.6002 33.7275 27.6002 33.3154V19.0492ZM30.1999 33.3154C30.1999 33.7275 30.6516 33.9706 30.9833 33.7369L37.1838 29.3689C37.3194 29.2734 37.4003 29.1158 37.4003 28.9474V14.6812C37.4003 14.2691 36.9486 14.0261 36.6169 14.2597L30.4164 18.6277C30.2808 18.7232 30.1999 18.8808 30.1999 19.0492V33.3154ZM17.5836 29.3689C17.7191 29.2734 17.8001 29.1158 17.8001 28.9474V14.6812C17.8001 14.2691 17.3484 14.0261 17.0167 14.2597L10.8162 18.6277C10.6806 18.7232 10.5997 18.8808 10.5997 19.0492V33.3154C10.5997 33.7275 11.0514 33.9706 11.3831 33.7369L17.5836 29.3689Z" fill="black"/>
</svg>
