<svg width="48" height="48" viewBox="0 0 48 48" fill="none" xmlns="http://www.w3.org/2000/svg">
<path fill-rule="evenodd" clip-rule="evenodd" d="M40 12.6104C40 10.0143 37.3436 8.33316 34.9806 9.25526L9.46412 19.2126C8.58121 19.5571 8 20.4077 8 21.3552V24.7546C8 25.7021 8.58122 26.5527 9.46412 26.8972L13.2023 28.356C12.7208 29.3081 12.4503 30.3807 12.4503 31.559C12.4503 35.6685 15.7409 39 19.8001 39C23.1312 39 25.9447 36.7565 26.8468 33.6805L34.9806 36.8545C37.3436 37.7766 40 36.0955 40 33.4994V12.6104ZM35.9263 11.6773C36.673 11.386 37.3992 11.939 37.3992 12.6104V33.4994C37.3992 34.1707 36.673 34.7238 35.9263 34.4325L10.9191 24.6739C10.7271 24.599 10.6008 24.4141 10.6008 24.2081V21.9017C10.6008 21.6957 10.7271 21.5108 10.9191 21.4359L35.9263 11.6773ZM24.3831 32.8354L15.6216 29.3451C15.2498 30.0033 15.0511 30.7408 15.0511 31.559C15.0511 34.2636 17.2081 36.4 19.8001 36.4C21.9675 36.4 23.8308 34.9061 24.3831 32.8354Z" fill="black"/>
</svg>
