<svg width="48" height="48" viewBox="0 0 48 48" fill="none" xmlns="http://www.w3.org/2000/svg">
<path fill-rule="evenodd" clip-rule="evenodd" d="M24 7C20.6863 7 18 9.68629 18 13V23C18 26.3137 20.6863 29 24 29C27.3137 29 30 26.3137 30 23V13C30 9.68629 27.3137 7 24 7ZM27.4 13C27.4 11.1222 25.8778 9.6 24 9.6C22.1222 9.6 20.6 11.1222 20.6 13V23C20.6 24.8778 22.1222 26.4 24 26.4C25.8778 26.4 27.4 24.8778 27.4 23V13Z" fill="black"/>
<path d="M22.8 34.9395C21.464 34.8045 20.1572 34.4446 18.935 33.8724L18.9253 33.8678C17.3567 33.1317 15.9651 32.0631 14.8458 30.7351L14.8369 30.7246C13.7199 29.3962 12.9016 27.8406 12.4383 26.1644L12.4364 26.1575C12.1556 25.1393 12.0098 24.0914 12.0005 23.0407C11.9991 22.8824 12.0008 22.724 12.0056 22.5657C12.0088 22.4579 12.0135 22.3501 12.0196 22.2424C12.0589 21.5534 12.7077 21.0902 13.3889 21.2013C13.9822 21.2981 14.4026 21.7992 14.4858 22.3829C14.4979 22.4676 14.5028 22.5541 14.5002 22.6413C14.4974 22.7327 14.4959 22.8242 14.4958 22.9156C14.4942 23.784 14.6104 24.651 14.8429 25.4923L14.8449 25.4992C15.2131 26.8277 15.8629 28.0603 16.7497 29.1124L16.7586 29.1229C17.6454 30.1719 18.7471 31.016 19.9884 31.5972L19.9982 31.6017C21.241 32.1819 22.5939 32.485 23.9642 32.4902C25.3344 32.4954 26.6897 32.2025 27.9368 31.6318L27.9465 31.6273C29.1921 31.0556 30.3001 30.22 31.1947 29.1777L31.2037 29.1672C32.0983 28.1219 32.7574 26.8943 33.1356 25.5688L33.1376 25.5617C33.3764 24.7222 33.4991 23.8562 33.5041 22.9878C33.5046 22.8964 33.5038 22.8049 33.5017 22.7135C33.4997 22.6262 33.5054 22.5398 33.5181 22.4552C33.6056 21.8721 34.0299 21.3742 34.6239 21.2819C35.3058 21.1759 35.9511 21.6439 35.9852 22.3332C35.9905 22.4409 35.9944 22.5487 35.9969 22.6565C36.0005 22.8149 36.001 22.9733 35.9984 23.1316C35.9811 24.1822 35.8275 25.2289 35.5391 26.2449L35.5371 26.252C35.0612 27.9246 34.2313 29.474 33.1044 30.7938L33.0954 30.8043C31.9662 32.1238 30.5665 33.1819 28.9924 33.9061L28.9828 33.9105C27.8452 34.4327 26.6362 34.7716 25.4 34.9176V39.7C25.4 40.418 24.818 41 24.1 41C23.3821 41 22.8 40.418 22.8 39.7V34.9395Z" fill="black"/>
</svg>
