<svg width="48" height="48" viewBox="0 0 48 48" fill="none" xmlns="http://www.w3.org/2000/svg">
<path d="M12.5 21C14.4329 21 15.9999 22.567 16 24.5C16 26.4331 14.433 28 12.5 28C10.567 28 9 26.4331 9 24.5C9.0001 22.567 10.5671 21 12.5 21Z" fill="black"/>
<path d="M24.5 21C26.4329 21 27.9999 22.567 28 24.5C28 26.4331 26.433 28 24.5 28C22.567 28 21 26.4331 21 24.5C21.0001 22.567 22.5671 21 24.5 21Z" fill="black"/>
<path d="M36.5 21C38.4329 21 39.9999 22.567 40 24.5C40 26.4331 38.433 28 36.5 28C34.567 28 33 26.4331 33 24.5C33.0001 22.567 34.5671 21 36.5 21Z" fill="black"/>
</svg>
