<svg width="48" height="48" viewBox="0 0 48 48" fill="none" xmlns="http://www.w3.org/2000/svg">
<path fill-rule="evenodd" clip-rule="evenodd" d="M40 14V34C40 36.2091 38.2091 38 36 38H12C9.79086 38 8 36.2091 8 34V14C8 11.7909 9.79086 10 12 10H36C38.2091 10 40 11.7909 40 14ZM10.6 20.3C10.6 19.7477 11.0477 19.3 11.6 19.3H36.4C36.9523 19.3 37.4 19.7477 37.4 20.3V34C37.4 34.7732 36.7732 35.4 36 35.4H12C11.2268 35.4 10.6 34.7732 10.6 34V20.3ZM20.6652 16.4236C20.7499 16.593 20.9231 16.7 21.1125 16.7H23.0875C23.4592 16.7 23.701 16.3088 23.5348 15.9764L21.9848 12.8764C21.9001 12.707 21.7269 12.6 21.5375 12.6H19.5625C19.1908 12.6 18.949 12.9912 19.1152 13.3236L20.6652 16.4236ZM32.6652 16.4236C32.7499 16.593 32.9231 16.7 33.1125 16.7H36.4C36.9523 16.7 37.4 16.2523 37.4 15.7V14C37.4 13.2268 36.7732 12.6 36 12.6H31.5625C31.1908 12.6 30.949 12.9912 31.1152 13.3236L32.6652 16.4236ZM29.0875 16.7C29.4592 16.7 29.701 16.3088 29.5348 15.9764L27.9848 12.8764C27.9001 12.707 27.7269 12.6 27.5375 12.6H25.5625C25.1908 12.6 24.949 12.9912 25.1152 13.3236L26.6652 16.4236C26.7499 16.593 26.9231 16.7 27.1125 16.7H29.0875ZM17.0875 16.7C17.4592 16.7 17.701 16.3088 17.5348 15.9764L15.9848 12.8764C15.9001 12.707 15.7269 12.6 15.5375 12.6H12C11.2268 12.6 10.6 13.2268 10.6 14V15.7C10.6 16.2523 11.0477 16.7 11.6 16.7H17.0875Z" fill="black"/>
</svg>
