<svg width="48" height="48" viewBox="0 0 48 48" fill="none" xmlns="http://www.w3.org/2000/svg">
<path fill-rule="evenodd" clip-rule="evenodd" d="M18 12C15.7909 12 14 13.7909 14 16C14 18.2091 15.7909 20 18 20H26C28.2091 20 30 18.2091 30 16C30 13.7909 28.2091 12 26 12H18ZM26 14.6H18C17.2268 14.6 16.6 15.2268 16.6 16C16.6 16.7732 17.2268 17.4 18 17.4H26C26.7732 17.4 27.4 16.7732 27.4 16C27.4 15.2268 26.7732 14.6 26 14.6Z" fill="black"/>
<path fill-rule="evenodd" clip-rule="evenodd" d="M12 8C10.8954 8 10 8.89543 10 10V38C10 39.1046 10.8954 40 12 40H32C33.1046 40 34 39.1046 34 38V10C34 8.89543 33.1046 8 32 8H12ZM13.6 10.6C13.0477 10.6 12.6 11.0477 12.6 11.6V36.4C12.6 36.9523 13.0477 37.4 13.6 37.4H30.4C30.9523 37.4 31.4 36.9523 31.4 36.4V11.6C31.4 11.0477 30.9523 10.6 30.4 10.6H13.6Z" fill="black"/>
<path d="M38 14.5C38 13.782 37.418 13.2 36.7 13.2C35.982 13.2 35.4 13.782 35.4 14.5V17.5C35.4 18.218 35.982 18.8 36.7 18.8C37.418 18.8 38 18.218 38 17.5V14.5Z" fill="black"/>
<path d="M36.7 21.2C37.418 21.2 38 21.782 38 22.5V25.5C38 26.218 37.418 26.8 36.7 26.8C35.982 26.8 35.4 26.218 35.4 25.5V22.5C35.4 21.782 35.982 21.2 36.7 21.2Z" fill="black"/>
<path d="M38 30.5C38 29.782 37.418 29.2 36.7 29.2C35.982 29.2 35.4 29.782 35.4 30.5V33.5C35.4 34.218 35.982 34.8 36.7 34.8C37.418 34.8 38 34.218 38 33.5V30.5Z" fill="black"/>
</svg>
