<svg width="48" height="48" viewBox="0 0 48 48" fill="none" xmlns="http://www.w3.org/2000/svg">
<path fill-rule="evenodd" clip-rule="evenodd" d="M24 40C32.8366 40 40 32.8366 40 24C40 15.1634 32.8366 8 24 8C15.1634 8 8 15.1634 8 24C8 32.8366 15.1634 40 24 40ZM24.2711 17.2724C24.4216 16.5704 23.9744 15.8793 23.2724 15.7289C22.5704 15.5784 21.8793 16.0256 21.7289 16.7276L20.9946 20.1544H17C16.282 20.1544 15.7 20.7364 15.7 21.4544C15.7 22.1723 16.282 22.7544 17 22.7544H20.4374L19.9491 25.0333H17C16.282 25.0333 15.7 25.6154 15.7 26.3333C15.7 27.0513 16.282 27.6333 17 27.6333H19.3919L18.7289 30.7276C18.5784 31.4296 19.0256 32.1207 19.7276 32.2711C20.4296 32.4216 21.1207 31.9744 21.2711 31.2724L22.0509 27.6333H24.3919L23.7289 30.7276C23.5784 31.4296 24.0256 32.1207 24.7276 32.2711C25.4296 32.4216 26.1207 31.9744 26.2711 31.2724L27.0509 27.6333H31C31.718 27.6333 32.3 27.0513 32.3 26.3333C32.3 25.6154 31.718 25.0333 31 25.0333H27.6081L28.0964 22.7544H31C31.718 22.7544 32.3 22.1723 32.3 21.4544C32.3 20.7364 31.718 20.1544 31 20.1544H28.6536L29.2711 17.2724C29.4216 16.5704 28.9744 15.8793 28.2724 15.7289C27.5704 15.5784 26.8793 16.0256 26.7289 16.7276L25.9946 20.1544H23.6536L24.2711 17.2724ZM22.6081 25.0333H24.9491L25.4374 22.7544H23.0964L22.6081 25.0333Z" fill="black"/>
</svg>
