<svg width="48" height="48" viewBox="0 0 48 48" fill="none" xmlns="http://www.w3.org/2000/svg">
<path fill-rule="evenodd" clip-rule="evenodd" d="M24 40C32.8366 40 40 32.8366 40 24C40 15.1634 32.8366 8 24 8C15.1634 8 8 15.1634 8 24C8 32.8366 15.1634 40 24 40ZM22.3 21C22.3 20.708 22.3983 20.2411 22.655 19.8846C22.864 19.5943 23.2237 19.3 24 19.3C24.7763 19.3 25.136 19.5943 25.345 19.8846C25.6017 20.2411 25.7 20.708 25.7 21C25.7 21.292 25.6017 21.7589 25.345 22.1154C25.136 22.4057 24.7763 22.7 24 22.7H23.25C22.532 22.7 21.95 23.282 21.95 24C21.95 24.718 22.532 25.3 23.25 25.3H24C24.292 25.3 24.7589 25.3983 25.1154 25.655C25.4057 25.864 25.7 26.2237 25.7 27C25.7 27.7763 25.4057 28.136 25.1154 28.345C24.7589 28.6017 24.292 28.7 24 28.7C23.708 28.7 23.2411 28.6017 22.8846 28.345C22.5943 28.136 22.3 27.7763 22.3 27C22.3 26.282 21.718 25.7 21 25.7C20.282 25.7 19.7 26.282 19.7 27C19.7 28.6237 20.4057 29.764 21.3654 30.455C22.2589 31.0983 23.292 31.3 24 31.3C24.708 31.3 25.7411 31.0983 26.6346 30.455C27.5943 29.764 28.3 28.6237 28.3 27C28.3 25.6908 27.8413 24.6959 27.1605 23.9974C27.2664 23.8815 27.3645 23.7602 27.455 23.6346C28.0983 22.7411 28.3 21.708 28.3 21C28.3 20.292 28.0983 19.2589 27.455 18.3654C26.764 17.4057 25.6237 16.7 24 16.7C22.3763 16.7 21.236 17.4057 20.545 18.3654C19.9017 19.2589 19.7 20.292 19.7 21C19.7 21.718 20.282 22.3 21 22.3C21.718 22.3 22.3 21.718 22.3 21Z" fill="black"/>
</svg>
