<svg width="48" height="48" viewBox="0 0 48 48" fill="none" xmlns="http://www.w3.org/2000/svg">
<path d="M24 12C25.1046 12 26 11.1046 26 10C26 8.89543 25.1046 8 24 8H12C9.79086 8 8 9.79086 8 12V36C8 38.2091 9.79086 40 12 40H36C38.2091 40 40 38.2091 40 36V24C40 22.8954 39.1045 22 38 22C36.8954 22 36 22.8954 36 24V35C36 35.5523 35.5523 36 35 36H13C12.4477 36 12 35.5523 12 35V13C12 12.4477 12.4477 12 13 12H24Z" fill="black"/>
<path d="M30 8C28.8954 8 28 8.89543 28 10C28 11.1046 28.8954 12 30 12H32.6887C32.8669 12 32.9562 12.2154 32.8302 12.3414L24 21.1716C23.219 21.9526 23.219 23.219 24 24C24.7811 24.781 26.0474 24.781 26.8284 24L35.6586 15.1698C35.7846 15.0439 36 15.1331 36 15.3113V18C36 19.1046 36.8954 20 38 20C39.1046 20 40 19.1046 40 18V10C40 8.89543 39.1046 8 38 8H30Z" fill="black"/>
</svg>
