<svg width="48" height="48" viewBox="0 0 48 48" fill="none" xmlns="http://www.w3.org/2000/svg">
<path d="M9.30005 8C8.58203 8 8 8.58203 8 9.29999V14.7C8 15.418 8.58203 16 9.30005 16C10.0179 16 10.6 15.418 10.6 14.7V9.29999C10.6 8.58203 10.0179 8 9.30005 8Z" fill="black"/>
<path d="M37.4 9.29999C37.4 8.58203 37.9821 8 38.7001 8C39.418 8 40 8.58203 40 9.29999V38.7C40 39.418 39.418 40 38.7001 40C37.9821 40 37.4 39.418 37.4 38.7V9.29999Z" fill="black"/>
<path d="M17.6213 25.3C17.4431 25.3 17.3539 25.5154 17.4799 25.6414L24 32.1615C24.5077 32.6692 24.5077 33.4923 24 34C23.4923 34.5077 22.6692 34.5077 22.1615 34L13.5757 25.4142C12.7947 24.6331 12.7947 23.3668 13.5757 22.5858L22.1615 14C22.6692 13.4923 23.4923 13.4923 24 14C24.5077 14.5077 24.5077 15.3308 24 15.8385L17.4799 22.3586C17.3539 22.4846 17.4431 22.7 17.6213 22.7H32.7C33.418 22.7 34 23.282 34 24C34 24.718 33.418 25.3 32.7 25.3H17.6213Z" fill="black"/>
<path d="M8 33.3C8 32.582 8.58203 32 9.30005 32C10.0179 32 10.6 32.582 10.6 33.3V38.7C10.6 39.418 10.0179 40 9.30005 40C8.58203 40 8 39.418 8 38.7V33.3Z" fill="black"/>
<path d="M9.30005 18C8.58203 18 8 18.582 8 19.3V28.7C8 29.418 8.58203 30 9.30005 30C10.0179 30 10.6 29.418 10.6 28.7V19.3C10.6 18.582 10.0179 18 9.30005 18Z" fill="black"/>
</svg>
