<svg width="48" height="48" viewBox="0 0 48 48" fill="none" xmlns="http://www.w3.org/2000/svg">
<path d="M40 9.3C40 8.58203 39.418 8 38.7 8H33.3C32.582 8 32 8.58203 32 9.3C32 10.018 32.582 10.6 33.3 10.6L38.7 10.6C39.418 10.6 40 10.018 40 9.3Z" fill="black"/>
<path d="M22.5858 13.5757C23.3668 12.7947 24.6332 12.7947 25.4142 13.5757L34 22.1615C34.5077 22.6692 34.5077 23.4923 34 24C33.4923 24.5077 32.6692 24.5077 32.1615 24L25.6414 17.4799C25.5154 17.3539 25.3 17.4431 25.3 17.6213V32.7C25.3 33.418 24.718 34 24 34C23.282 34 22.7 33.418 22.7 32.7V17.6213C22.7 17.4431 22.4846 17.3539 22.3586 17.4799L15.8385 24C15.3308 24.5077 14.5077 24.5077 14 24C13.4923 23.4923 13.4923 22.6692 14 22.1615L22.5858 13.5757Z" fill="black"/>
<path d="M38.7 37.4C39.418 37.4 40 37.982 40 38.7C40 39.418 39.418 40 38.7 40H9.3C8.58203 40 8 39.418 8 38.7C8 37.982 8.58203 37.4 9.3 37.4L38.7 37.4Z" fill="black"/>
<path d="M14.7 8C15.418 8 16 8.58203 16 9.3C16 10.018 15.418 10.6 14.7 10.6L9.3 10.6C8.58203 10.6 8 10.018 8 9.3C8 8.58203 8.58203 8 9.3 8H14.7Z" fill="black"/>
<path d="M30 9.3C30 8.58203 29.418 8 28.7 8H19.3C18.582 8 18 8.58203 18 9.3C18 10.018 18.582 10.6 19.3 10.6L28.7 10.6C29.418 10.6 30 10.018 30 9.3Z" fill="black"/>
</svg>
