<svg width="48" height="48" viewBox="0 0 48 48" fill="none" xmlns="http://www.w3.org/2000/svg">
<path fill-rule="evenodd" clip-rule="evenodd" d="M12 12C9.79086 12 8 13.7909 8 16V32C8 34.2091 9.79086 36 12 36H36C38.2091 36 40 34.2091 40 32V16C40 13.7909 38.2091 12 36 12H12ZM14 32.3C13.282 32.3 12.7 31.718 12.7 31V27C12.7 26.282 13.282 25.7 14 25.7C14.718 25.7 15.3 26.282 15.3 27V29.7H18C18.718 29.7 19.3 30.282 19.3 31C19.3 31.718 18.718 32.3 18 32.3H14ZM12.7 17C12.7 16.282 13.282 15.7 14 15.7H18C18.718 15.7 19.3 16.282 19.3 17C19.3 17.718 18.718 18.3 18 18.3H15.3V21C15.3 21.718 14.718 22.3 14 22.3C13.282 22.3 12.7 21.718 12.7 21V17ZM34 15.7C34.718 15.7 35.3 16.282 35.3 17V21C35.3 21.718 34.718 22.3 34 22.3C33.282 22.3 32.7 21.718 32.7 21V18.3H30C29.282 18.3 28.7 17.718 28.7 17C28.7 16.282 29.282 15.7 30 15.7L34 15.7ZM35.3 31C35.3 31.718 34.718 32.3 34 32.3H30C29.282 32.3 28.7 31.718 28.7 31C28.7 30.282 29.282 29.7 30 29.7L32.7 29.7V27C32.7 26.282 33.282 25.7 34 25.7C34.718 25.7 35.3 26.282 35.3 27L35.3 31Z" fill="black"/>
</svg>
