<svg width="48" height="48" viewBox="0 0 48 48" fill="none" xmlns="http://www.w3.org/2000/svg">
<path fill-rule="evenodd" clip-rule="evenodd" d="M12 14C9.79089 14 8 15.7909 8 18V30C8 32.2091 9.79089 34 12 34H36C38.2091 34 40 32.2091 40 30V18C40 15.7909 38.2091 14 36 14H12ZM12.5858 24L12 23.4142C11.6095 23.0237 11.6095 22.3905 12 22C12.3906 21.6095 13.0237 21.6095 13.4142 22L14 22.5858L14.5858 22C14.9763 21.6095 15.6094 21.6095 16 22C16.3905 22.3905 16.3905 23.0237 16 23.4142L15.4142 24L16 24.5858C16.3905 24.9763 16.3905 25.6095 16 26C15.6094 26.3905 14.9763 26.3905 14.5858 26L14 25.4142L13.4142 26C13.0237 26.3905 12.3906 26.3905 12 26C11.6095 25.6095 11.6095 24.9763 12 24.5858L12.5858 24ZM19.1858 24L18.6 23.4142C18.2094 23.0237 18.2094 22.3905 18.6 22C18.9905 21.6095 19.6237 21.6095 20.0142 22L20.6 22.5858L21.1857 22C21.5763 21.6095 22.2094 21.6095 22.5999 22C22.9905 22.3905 22.9905 23.0237 22.6 23.4142L22.0142 24L22.6 24.5858C22.9905 24.9763 22.9905 25.6095 22.5999 26C22.2094 26.3905 21.5763 26.3905 21.1857 26L20.6 25.4142L20.0142 26C19.6237 26.3905 18.9905 26.3905 18.6 26C18.2094 25.6095 18.2094 24.9763 18.6 24.5858L19.1858 24ZM25.2 22C24.8094 22.3905 24.8094 23.0237 25.2 23.4142L25.7858 24L25.2 24.5858C24.8094 24.9763 24.8094 25.6095 25.2 26C25.5905 26.3905 26.2237 26.3905 26.6142 26L27.2 25.4142L27.7857 26C28.1762 26.3905 28.8094 26.3905 29.1999 26C29.5905 25.6095 29.5905 24.9763 29.1999 24.5858L28.6141 24L29.1999 23.4142C29.5905 23.0237 29.5905 22.3905 29.1999 22C28.8094 21.6095 28.1762 21.6095 27.7857 22L27.2 22.5858L26.6142 22C26.2237 21.6095 25.5905 21.6095 25.2 22ZM32.3857 24L31.7999 23.4142C31.4094 23.0237 31.4094 22.3905 31.8 22C32.1905 21.6095 32.8236 21.6095 33.2142 22L33.7999 22.5858L34.3857 22C34.7762 21.6095 35.4094 21.6095 35.7999 22C36.1905 22.3905 36.1905 23.0237 35.7999 23.4142L35.2141 24L35.7999 24.5858C36.1905 24.9763 36.1905 25.6095 35.7999 26C35.4094 26.3905 34.7762 26.3905 34.3857 26L33.7999 25.4142L33.2142 26C32.8236 26.3905 32.1905 26.3905 31.8 26C31.4094 25.6095 31.4094 24.9763 31.7999 24.5858L32.3857 24Z" fill="black"/>
</svg>
