<svg width="48" height="48" viewBox="0 0 48 48" fill="none" xmlns="http://www.w3.org/2000/svg">
<path d="M33.2888 9.4232C33.6989 8.92197 34.4434 8.84379 34.8947 9.30834C35.6138 10.0485 36.2188 10.8945 36.6878 11.8187C37.334 13.0924 37.7078 14.4868 37.785 15.9129C37.8622 17.3391 37.6412 18.7657 37.1363 20.1017C36.7697 21.0712 36.2596 21.9775 35.6246 22.791C35.2262 23.3015 34.4775 23.3042 34.0157 22.8502C33.5538 22.3961 33.5558 21.6578 33.9369 21.1341C34.3527 20.5627 34.6913 19.9368 34.9423 19.2724C35.332 18.2414 35.5026 17.1404 35.443 16.0397C35.3834 14.9391 35.0951 13.8629 34.5963 12.88C34.2749 12.2466 33.8708 11.6609 33.3957 11.1377C32.9603 10.6582 32.8786 9.92447 33.2888 9.4232Z" fill="black"/>
<path fill-rule="evenodd" clip-rule="evenodd" d="M21.4274 21.8816C19.4586 20.909 18.1015 18.8559 18.1015 16.4805C18.1015 13.1661 20.7436 10.4792 24.0028 10.4792C27.2619 10.4792 29.904 13.1661 29.904 16.4805C29.904 18.8559 28.5469 20.909 26.5781 21.8816C25.7999 22.2661 24.926 22.4817 24.0028 22.4817C23.0795 22.4817 22.2056 22.2661 21.4274 21.8816ZM24.0028 19.8812C25.8496 19.8812 27.3468 18.3586 27.3468 16.4805C27.3468 14.6023 25.8496 13.0798 24.0028 13.0798C22.1559 13.0798 20.6587 14.6023 20.6587 16.4805C20.6587 18.3586 22.1559 19.8812 24.0028 19.8812Z" fill="black"/>
<path fill-rule="evenodd" clip-rule="evenodd" d="M32.365 24.4822C35.3513 24.4822 37.867 27.0351 36.7242 29.8409C36.0321 31.5398 35.0179 33.0835 33.7393 34.3837C32.4607 35.684 30.9427 36.7155 29.2722 37.4192C27.6015 38.1229 25.811 38.4851 24.0028 38.4851C22.1945 38.4851 20.404 38.1229 18.7333 37.4192C17.0628 36.7155 15.5448 35.684 14.2662 34.3837C12.9876 33.0835 11.9734 31.5398 11.2813 29.8409C10.1385 27.0351 12.6542 24.4822 15.6405 24.4822H32.365ZM31.9311 32.5449C32.9723 31.4861 33.7981 30.2291 34.3616 28.8457C34.4606 28.6024 34.458 28.4357 34.4354 28.3185C34.4103 28.188 34.3395 28.0186 34.1768 27.8313C33.8321 27.4347 33.1706 27.0827 32.365 27.0827H15.6405C14.8349 27.0827 14.1734 27.4347 13.8287 27.8313C13.666 28.0186 13.5952 28.188 13.5701 28.3185C13.5476 28.4357 13.5449 28.6024 13.6439 28.8457C14.2074 30.2291 15.0332 31.4861 16.0745 32.5449C17.1156 33.6037 18.3517 34.4436 19.7119 35.0166C21.0723 35.5896 22.5303 35.8845 24.0028 35.8845C25.4752 35.8845 26.9332 35.5896 28.2936 35.0166C29.6538 34.4436 30.8899 33.6037 31.9311 32.5449Z" fill="black"/>
<path d="M32.538 12.2246C32.1937 11.7578 31.5212 11.7616 31.1111 12.1718C30.7009 12.5819 30.7127 13.2426 31.0261 13.7306C31.1835 13.9754 31.319 14.2343 31.4308 14.5044C31.6772 15.099 31.804 15.7364 31.804 16.38C31.804 17.0236 31.6772 17.6609 31.4308 18.2555C31.319 18.5256 31.1835 18.7845 31.0261 19.0293C30.7127 19.5173 30.7009 20.178 31.1111 20.5881C31.5212 20.9983 32.1937 21.0021 32.538 20.5353C32.8738 20.0799 33.1538 19.5844 33.3714 19.0593C33.7233 18.2098 33.9044 17.2994 33.9044 16.38C33.9044 15.4605 33.7233 14.5501 33.3714 13.7006C33.1538 13.1755 32.8738 12.68 32.538 12.2246Z" fill="black"/>
</svg>
