<svg width="48" height="48" viewBox="0 0 48 48" fill="none" xmlns="http://www.w3.org/2000/svg">
<path d="M9.29985 8C10.0177 8 10.5997 8.58196 10.5997 9.29984V38.7002C10.5997 39.418 10.0177 40 9.29985 40C8.58196 40 8 39.418 8 38.7002V9.29984C8 8.58196 8.58196 8 9.29985 8Z" fill="black"/>
<path d="M38.7002 8C39.418 8 40 8.58196 40 9.29984V38.7002C40 39.418 39.418 40 38.7002 40C37.9823 40 37.4003 39.418 37.4003 38.7002V9.29984C37.4003 8.58196 37.9823 8 38.7002 8Z" fill="black"/>
<path d="M25.2998 9.29984C25.2998 8.58196 24.7179 8 24 8C23.2821 8 22.7002 8.58196 22.7002 9.29984V15.1799C22.7002 15.8978 23.2821 16.4797 24 16.4797C24.7179 16.4797 25.2998 15.8978 25.2998 15.1799V9.29984Z" fill="black"/>
<path d="M24 19.7602C24.7179 19.7602 25.2998 20.3421 25.2998 21.06V26.9401C25.2998 27.6579 24.7179 28.2399 24 28.2399C23.2821 28.2399 22.7002 27.6579 22.7002 26.9401V21.06C22.7002 20.3421 23.2821 19.7602 24 19.7602Z" fill="black"/>
<path d="M25.2998 32.8201C25.2998 32.1022 24.7179 31.5202 24 31.5202C23.2821 31.5202 22.7002 32.1022 22.7002 32.8201V38.7001C22.7002 39.418 23.2821 40 24 40C24.7179 40 25.2998 39.418 25.2998 38.7001V32.8201Z" fill="black"/>
</svg>
