<svg width="48" height="48" viewBox="0 0 48 48" fill="none" xmlns="http://www.w3.org/2000/svg">
<path d="M16.5 34C17.8807 34 19 32.8807 19 31.5C19 30.1193 17.8807 29 16.5 29C15.1193 29 14 30.1193 14 31.5C14 32.8807 15.1193 34 16.5 34Z" fill="black"/>
<path d="M20.7569 25.0417C18.5627 23.513 15.8842 23.1475 14.108 23.2955C13.3925 23.3551 12.7641 22.8235 12.7045 22.108C12.6449 21.3925 13.1766 20.7641 13.892 20.7045C16.1158 20.5192 19.4373 20.9536 22.2431 22.9083C25.1248 24.9159 27.3 28.4163 27.3 34C27.3 34.718 26.718 35.3 26 35.3C25.282 35.3 24.7 34.718 24.7 34C24.7 29.1837 22.8752 26.5175 20.7569 25.0417Z" fill="black"/>
<path d="M15 13.7C14.282 13.7 13.7 14.282 13.7 15C13.7 15.718 14.282 16.3 15 16.3C17.6078 16.3 21.6261 17.1396 25.0576 19.6493C28.4348 22.1193 31.3236 26.2606 31.702 33.0721C31.7418 33.789 32.3552 34.3378 33.0721 34.298C33.789 34.2582 34.3378 33.6448 34.298 32.9279C33.8764 25.3394 30.5986 20.4807 26.5924 17.5507C22.6406 14.6604 18.0589 13.7 15 13.7Z" fill="black"/>
<path fill-rule="evenodd" clip-rule="evenodd" d="M8 12C8 9.79086 9.79086 8 12 8H36C38.2091 8 40 9.79086 40 12V36C40 38.2091 38.2091 40 36 40H12C9.79086 40 8 38.2091 8 36V12ZM12 10.6H36C36.7732 10.6 37.4 11.2268 37.4 12V36C37.4 36.7732 36.7732 37.4 36 37.4H12C11.2268 37.4 10.6 36.7732 10.6 36V12C10.6 11.2268 11.2268 10.6 12 10.6Z" fill="black"/>
</svg>
