<svg width="48" height="48" viewBox="0 0 48 48" fill="none" xmlns="http://www.w3.org/2000/svg">
<path fill-rule="evenodd" clip-rule="evenodd" d="M21.6391 12.2901C21.3139 11.7543 20.8432 11.1126 20.226 10.6472C19.5868 10.1653 18.6598 9.78898 17.5993 10.1336C16.241 10.5749 15.1687 11.3709 14.3442 12.2898C13.0512 13.7308 12.3279 15.5137 11.9938 16.9167C11.2574 17.1516 10.6396 17.4821 10.1515 17.9181C9.46118 18.5346 9.10687 19.2953 9.00852 20.074C8.82495 21.5275 9.53657 22.9018 10.1128 23.6752L10.198 23.7895L10.306 23.8827C12.5894 25.8527 17.9105 30.5565 21.0064 33.6727C21.6651 34.3357 22.2803 34.9084 22.8625 35.3999H9.29984C8.58196 35.3999 8 35.9819 8 36.6998C8 37.4177 8.58196 37.9996 9.29984 37.9996H29.8673L29.874 37.9996H35.6402C37.4716 37.9996 38.8061 37.4091 39.5105 36.2777C40.1082 35.3178 40.0648 34.2556 39.871 33.5301C39.8326 32.967 39.6477 32.4154 39.4178 31.9271C39.1523 31.3631 38.7877 30.8008 38.371 30.2776C37.5474 29.2434 36.4285 28.2477 35.2453 27.6522C34.7186 27.3872 34.2441 27.0003 33.8454 26.5817C33.3576 26.0695 33.0347 25.5643 32.9019 25.3073L30.0316 18.5666C29.5911 16.4681 28.7443 15.0907 27.6469 14.3186C26.6287 13.6024 25.5282 13.5058 24.6938 13.7102C22.836 13.6663 22.0184 12.915 21.6391 12.2901ZM11.8833 19.857C12.0322 19.7239 12.2808 19.566 12.6859 19.4259L23.9663 31.7262L24.0314 31.7808C25.543 33.0487 28.8721 34.9478 33.0543 35.3999H28.7844C27.4439 35.3999 25.8932 34.9029 22.8507 31.8404C19.7313 28.7007 14.4703 24.0458 12.1211 22.0153C11.761 21.4918 11.5304 20.8536 11.5877 20.3997C11.6118 20.209 11.686 20.0332 11.8833 19.857ZM36.3374 31.8972C36.5708 32.1902 36.7662 32.4793 36.9181 32.7492C33.7644 33.2148 30.8886 32.5162 28.7579 31.5933C29.1342 31.4864 29.5155 31.3596 29.8956 31.2102C30.961 30.7913 32.0529 30.18 32.9985 29.301C33.3257 29.5473 33.6854 29.7776 34.0766 29.9744C34.8522 30.3648 35.692 31.0867 36.3374 31.8972ZM17.6969 21.0437L25.4461 29.4935C25.9855 29.4814 26.6729 29.4128 27.4135 29.2513L27.392 29.2166C26.6751 28.0563 25.8284 26.6439 25.0437 25.2514C24.0341 23.4598 23.0661 21.5957 22.6535 20.3497C22.1015 18.6828 22.2982 17.1922 22.7361 16.0476C21.1407 15.617 20.0634 14.7044 19.4168 13.639C19.1689 13.2306 18.9014 12.9043 18.6609 12.723C18.5482 12.638 18.476 12.6114 18.446 12.604C18.4289 12.5997 18.4233 12.5993 18.4026 12.606C17.8951 12.7709 17.4417 13.0169 17.0368 13.324C17.5482 14.135 18.0352 15.1674 18.2917 16.3125C18.616 17.7607 18.5776 19.445 17.6969 21.0437ZM31.1823 27.4392C30.7966 27.7902 30.3663 28.0886 29.9083 28.3406C29.81 28.1832 29.7082 28.0194 29.6036 27.85C29.3493 27.4385 29.0788 26.9954 28.8011 26.5335L30.8819 26.9996C30.9709 27.1392 31.0712 27.2868 31.1823 27.4392ZM29.5339 24.0335L27.0274 23.472C26.6899 22.8626 26.377 22.2771 26.1025 21.7369L28.7982 22.3056L29.5339 24.0335ZM27.5552 19.3864L24.9574 18.8384C24.7915 17.6726 25.2037 16.727 25.5544 16.2179C25.7161 16.2296 25.9255 16.2862 26.1511 16.4449C26.5483 16.7243 27.158 17.4402 27.5095 19.2087L27.5357 19.3407L27.5552 19.3864ZM14.5107 17.5694C14.6547 16.9459 14.903 16.2151 15.2729 15.5026C15.4729 15.9249 15.6454 16.392 15.7548 16.8806C15.9071 17.5607 15.934 18.2545 15.7596 18.9313L14.5107 17.5694Z" fill="black"/>
<path d="M9.29984 31.4567C8.58196 31.4567 8 32.0387 8 32.7566C8 33.4745 8.58196 34.0564 9.29984 34.0564H17.1351C17.853 34.0564 18.4349 33.4745 18.4349 32.7566C18.4349 32.0387 17.853 31.4567 17.1351 31.4567H9.29984Z" fill="black"/>
<path d="M8 28.8134C8 28.0955 8.58196 27.5135 9.29984 27.5135H13.2175C13.9353 27.5135 14.5173 28.0955 14.5173 28.8134C14.5173 29.5312 13.9353 30.1132 13.2175 30.1132H9.29984C8.58196 30.1132 8 29.5312 8 28.8134Z" fill="black"/>
</svg>
