<svg width="48" height="48" viewBox="0 0 48 48" fill="none" xmlns="http://www.w3.org/2000/svg">
<path d="M14.0008 15.78C13.2828 15.78 12.7007 16.372 12.7007 17.1022C12.7007 17.8324 13.2828 18.4243 14.0008 18.4243H22.0019C22.72 18.4243 23.3021 17.8324 23.3021 17.1022C23.3021 16.372 22.72 15.78 22.0019 15.78H14.0008Z" fill="black"/>
<path d="M34.0036 17.1022C34.0036 17.8324 33.4215 18.4243 32.7035 18.4243C31.9854 18.4243 31.4033 17.8324 31.4033 17.1022C31.4033 16.372 31.9854 15.7801 32.7035 15.7801C33.4215 15.7801 34.0036 16.372 34.0036 17.1022Z" fill="black"/>
<path fill-rule="evenodd" clip-rule="evenodd" d="M12.0006 11C9.79111 11 8 12.8214 8 15.0681V19.1362C8 21.383 9.79111 23.2044 12.0006 23.2044H36.0039C38.2133 23.2044 40.0044 21.383 40.0044 19.1362V15.0681C40.0044 12.8214 38.2133 11 36.0039 11H12.0006ZM36.0039 13.6443H12.0006C11.2272 13.6443 10.6004 14.2818 10.6004 15.0681V19.1362C10.6004 19.9226 11.2272 20.5601 12.0006 20.5601H36.0039C36.7772 20.5601 37.4041 19.9226 37.4041 19.1362V15.0681C37.4041 14.2818 36.7772 13.6443 36.0039 13.6443Z" fill="black"/>
<path d="M12.7007 31.3406C12.7007 30.6104 13.2828 30.0185 14.0008 30.0185H22.0019C22.72 30.0185 23.3021 30.6104 23.3021 31.3406C23.3021 32.0708 22.72 32.6627 22.0019 32.6627H14.0008C13.2828 32.6627 12.7007 32.0708 12.7007 31.3406Z" fill="black"/>
<path d="M8 29.3065C8 27.0598 9.79111 25.2384 12.0006 25.2384H36.0039C38.2133 25.2384 40.0044 27.0598 40.0044 29.3065V29.6538C39.3788 29.4289 38.7055 29.3065 38.0042 29.3065H37.4041C37.4041 28.5202 36.7772 27.8827 36.0039 27.8827H12.0006C11.2272 27.8827 10.6004 28.5202 10.6004 29.3065V33.3747C10.6004 34.161 11.2272 34.7985 12.0006 34.7985H26.0321C26.0125 34.9992 26.0025 35.2028 26.0025 35.4087C26.0025 36.1219 26.1228 36.8066 26.344 37.4428H12.0006C9.79111 37.4428 8 35.6214 8 33.3747V29.3065Z" fill="black"/>
<path d="M32.2689 31.3406C31.5965 31.3406 30.5533 31.597 29.6593 32.328C28.7183 33.0973 28.0028 34.3449 28.0028 36.1724C28.0028 37.9998 28.7183 39.2475 29.6593 40.0168C30.5533 40.7478 31.5965 41.0042 32.2689 41.0042H34.1351C34.6875 41.0042 35.1353 40.5488 35.1353 39.9871C35.1353 39.4255 34.6875 38.9701 34.1351 38.9701H32.2689C32.0081 38.9701 31.4184 38.845 30.9127 38.4316C30.4539 38.0565 30.0031 37.3967 30.0031 36.1724C30.0031 34.948 30.4539 34.2883 30.9127 33.9132C31.4184 33.4997 32.0081 33.3747 32.2689 33.3747H34.1351C34.6875 33.3747 35.1353 32.9193 35.1353 32.3576C35.1353 31.7959 34.6875 31.3406 34.1351 31.3406H32.2689Z" fill="black"/>
<path d="M39.7339 41.0042C40.4063 41.0042 41.4495 40.7478 42.3435 40.0168C43.2844 39.2475 44 37.9998 44 36.1724C44 34.3449 43.2844 33.0973 42.3435 32.328C41.4495 31.597 40.4063 31.3406 39.7339 31.3406H37.8676C37.3153 31.3406 36.8675 31.7959 36.8675 32.3576C36.8675 32.9193 37.3153 33.3747 37.8676 33.3747H39.7339C39.9947 33.3747 40.5844 33.4997 41.0901 33.9132C41.5489 34.2883 41.9997 34.948 41.9997 36.1724C41.9997 37.3968 41.5489 38.0565 41.0901 38.4316C40.5844 38.845 39.9947 38.9701 39.7339 38.9701H37.8676C37.3153 38.9701 36.8675 39.4255 36.8675 39.9871C36.8675 40.5488 37.3153 41.0042 37.8676 41.0042H39.7339Z" fill="black"/>
<path d="M31.2687 36.1724C31.2687 35.6107 31.7165 35.1554 32.2689 35.1554H39.7339C40.2863 35.1554 40.7341 35.6107 40.7341 36.1724C40.7341 36.7341 40.2863 37.1894 39.7339 37.1894H32.2689C31.7165 37.1894 31.2687 36.7341 31.2687 36.1724Z" fill="black"/>
</svg>
