<svg width="48" height="48" viewBox="0 0 48 48" fill="none" xmlns="http://www.w3.org/2000/svg">
<path fill-rule="evenodd" clip-rule="evenodd" d="M8 15C8 12.7909 9.79089 11 12 11H36C38.2091 11 40 12.7909 40 15V19C40 21.2091 38.2091 23 36 23H12C9.79089 23 8 21.2091 8 19V15ZM32.7001 18.3C33.418 18.3 34 17.718 34 17C34 16.282 33.418 15.7 32.7001 15.7C31.9821 15.7 31.4 16.282 31.4 17C31.4 17.718 31.9821 18.3 32.7001 18.3ZM14 15.7C13.282 15.7 12.7 16.282 12.7 17C12.7 17.718 13.282 18.3 14 18.3H22C22.718 18.3 23.3 17.718 23.3 17C23.3 16.282 22.718 15.7 22 15.7H14Z" fill="black"/>
<path fill-rule="evenodd" clip-rule="evenodd" d="M8 29C8 26.7909 9.79089 25 12 25H36C38.2091 25 40 26.7909 40 29V30.2899C39.3663 30.1013 38.6949 30 38 30C36.5 30 35.1102 30.4718 33.9708 31.2751C33.99 31.1865 34 31.0944 34 31C34 30.282 33.418 29.7 32.7001 29.7C31.9821 29.7 31.4 30.282 31.4 31C31.4 31.718 31.9821 32.3 32.7001 32.3C32.722 32.3 32.744 32.2995 32.7657 32.2984C32.783 32.2975 32.8 32.2963 32.8171 32.2948C31.6881 33.5378 31 35.1885 31 37H12C9.79089 37 8 35.2091 8 33V29ZM14 29.7C13.282 29.7 12.7 30.282 12.7 31C12.7 31.718 13.282 32.3 14 32.3H22C22.718 32.3 23.3 31.718 23.3 31C23.3 30.282 22.718 29.7 22 29.7H14Z" fill="black"/>
<path fill-rule="evenodd" clip-rule="evenodd" d="M44 37C44 40.3137 41.3137 43 38 43C34.6863 43 32 40.3137 32 37C32 33.6863 34.6863 31 38 31C41.3137 31 44 33.6863 44 37ZM40.0815 36.7274L36.1912 34.7826C35.9884 34.6812 35.75 34.8286 35.75 35.0551V38.9449C35.75 39.1714 35.9884 39.3188 36.1912 39.2174L40.0815 37.2726C40.3062 37.1603 40.3062 36.8397 40.0815 36.7274Z" fill="black"/>
</svg>
