<svg width="48" height="48" viewBox="0 0 48 48" fill="none" xmlns="http://www.w3.org/2000/svg">
<path fill-rule="evenodd" clip-rule="evenodd" d="M18 30H12C9.79086 30 8 28.2091 8 26V12C8 9.79086 9.79086 8 12 8H26C28.2091 8 30 9.79086 30 12V18H36C38.2091 18 40 19.7909 40 22V36C40 38.2091 38.2091 40 36 40H22C19.7909 40 18 38.2091 18 36V30ZM12 10.6H12.9858L10.6 12.9858V12C10.6 11.2268 11.2268 10.6 12 10.6ZM10.6 15.8142L15.8142 10.6H16.9858L10.6 16.9858V15.8142ZM10.6 19.8142V20.9858L20.9858 10.6H19.8142L10.6 19.8142ZM10.6 24.9858V23.8142L23.8142 10.6H24.9858L10.6 24.9858ZM11.2389 27.1753C11.458 27.3174 11.7194 27.4 12 27.4H12.1858L18.0237 21.5621C18.1007 20.8548 18.3621 20.2028 18.7589 19.6553L11.2389 27.1753ZM16.259 27.4H15.0142L18 24.4142V25.7929L16.259 27.4ZM27.4 26C27.4 26.7732 26.7732 27.4 26 27.4H21C20.7791 27.4 20.6 27.2209 20.6 27V22C20.6 21.2268 21.2268 20.6 22 20.6H27C27.2209 20.6 27.4 20.7791 27.4 21V26ZM21.8046 30H20.6V31.1293L21.8046 30ZM20.6 33.8707V35.0578L25.9554 30H24.7288L20.6 33.8707ZM22 37.4C21.7275 37.4 21.4731 37.3221 21.258 37.1874L37.3989 21.9432C37.3996 21.9621 37.4 21.981 37.4 22V23.1326L22.2409 37.4H22ZM25.1591 37.4H26.259L37.4 27.116V25.8791L25.1591 37.4ZM30.2948 37.4H29.2076L37.4 29.8378V31.0843L30.2948 37.4ZM33.3052 37.4H34.3992L37.4 34.9994V33.7602L33.3052 37.4ZM34.7554 20.6H35.9083L29.9958 26.184C29.9986 26.123 30 26.0617 30 26V25.0582L34.7554 20.6ZM30 22.3168L31.8312 20.6H30.7266L30 21.2606V22.3168ZM27.4 17.116L26.4424 18H24.4142L27.4 15.0142V17.116ZM27.4 12V12.1858L21.5621 18.0237C20.8548 18.1007 20.2028 18.3621 19.6553 18.7589L27.1753 11.2389C27.3174 11.458 27.4 11.7194 27.4 12Z" fill="black"/>
</svg>
