<svg width="48" height="48" viewBox="0 0 48 48" fill="none" xmlns="http://www.w3.org/2000/svg">
<path fill-rule="evenodd" clip-rule="evenodd" d="M12 30H18V36C18 38.2091 19.7909 40 22 40H36C38.2091 40 40 38.2091 40 36V22C40 19.7909 38.2091 18 36 18H30V12C30 9.79086 28.2091 8 26 8H12C9.79086 8 8 9.79086 8 12V26C8 28.2091 9.79086 30 12 30ZM36 20.6H30V26C30 28.2091 28.2091 30 26 30H20.6V36C20.6 36.7732 21.2268 37.4 22 37.4H36C36.7732 37.4 37.4 36.7732 37.4 36V22C37.4 21.2268 36.7732 20.6 36 20.6Z" fill="black"/>
</svg>
