<svg width="48" height="48" viewBox="0 0 48 48" fill="none" xmlns="http://www.w3.org/2000/svg">
<path d="M36.0003 10.0004C36.5524 10.0004 37 9.55262 37 9.00022C37 8.44781 36.5524 8 36.0003 8C35.4481 8 35.0005 8.44781 35.0005 9.00022C35.0005 9.55262 35.4481 10.0004 36.0003 10.0004Z" fill="black"/>
<path fill-rule="evenodd" clip-rule="evenodd" d="M15.7032 11.9112C15.7032 10.9169 16.5089 10.1108 17.5027 10.1108H21.2062C22.2 10.1108 23.0057 10.9169 23.0057 11.9112V15.1955C23.0057 15.3311 23.0607 15.4608 23.1582 15.5551L26.4891 18.7762C27.2687 19.53 27.7089 20.5682 27.7089 21.6529V36.6993C27.7089 38.5222 26.2318 40 24.4097 40H14.2992C12.4771 40 11 38.5222 11 36.6993V21.6529C11 20.5682 11.4402 19.53 12.2197 18.7762L15.5507 15.5551C15.6482 15.4608 15.7032 15.3311 15.7032 15.1955V11.9112ZM17.6091 17.2595C17.5573 17.2595 17.5074 17.2796 17.4702 17.3157L15.8699 18.8632C15.7407 18.9882 15.8291 19.207 16.0089 19.207H22.7C22.8797 19.207 22.9682 18.9882 22.8389 18.8632L21.2387 17.3157C21.2014 17.2796 21.1516 17.2595 21.0997 17.2595H17.6091ZM20.2064 14.6589C20.3168 14.6589 20.4064 14.5694 20.4064 14.4589V12.9114C20.4064 12.8009 20.3168 12.7114 20.2064 12.7114H18.5025C18.392 12.7114 18.3025 12.8009 18.3025 12.9114V14.4589C18.3025 14.5694 18.392 14.6589 18.5025 14.6589H20.2064Z" fill="black"/>
<path d="M27.5937 13.5483C27.5937 14.1007 27.1461 14.5485 26.594 14.5485C26.0418 14.5485 25.5942 14.1007 25.5942 13.5483C25.5942 12.9959 26.0418 12.5481 26.594 12.5481C27.1461 12.5481 27.5937 12.9959 27.5937 13.5483Z" fill="black"/>
<path d="M31.2971 16.8226C31.8493 16.8226 32.2969 16.3748 32.2969 15.8224C32.2969 15.27 31.8493 14.8222 31.2971 14.8222C30.745 14.8222 30.2974 15.27 30.2974 15.8224C30.2974 16.3748 30.745 16.8226 31.2971 16.8226Z" fill="black"/>
<path d="M32.2969 11.2743C32.2969 11.8267 31.8493 12.2745 31.2971 12.2745C30.745 12.2745 30.2974 11.8267 30.2974 11.2743C30.2974 10.7219 30.745 10.2741 31.2971 10.2741C31.8493 10.2741 32.2969 10.7219 32.2969 11.2743Z" fill="black"/>
<path d="M37 13.5483C37 14.1007 36.5524 14.5485 36.0003 14.5485C35.4481 14.5485 35.0005 14.1007 35.0005 13.5483C35.0005 12.9959 35.4481 12.5481 36.0003 12.5481C36.5524 12.5481 37 12.9959 37 13.5483Z" fill="black"/>
<path d="M36.0003 19.0966C36.5524 19.0966 37 18.6488 37 18.0964C37 17.544 36.5524 17.0962 36.0003 17.0962C35.4481 17.0962 35.0005 17.544 35.0005 18.0964C35.0005 18.6488 35.4481 19.0966 36.0003 19.0966Z" fill="black"/>
</svg>
