<svg width="48" height="48" viewBox="0 0 48 48" fill="none" xmlns="http://www.w3.org/2000/svg">
<path d="M17 16C17 14.8954 17.8954 14 19 14H37C38.1046 14 39 14.8954 39 16C39 17.1046 38.1046 18 37 18H19C17.8954 18 17 17.1046 17 16Z" fill="black"/>
<path d="M9 24C9 22.8954 9.89543 22 11 22H37C38.1046 22 39 22.8954 39 24C39 25.1046 38.1046 26 37 26H11C9.89543 26 9 25.1046 9 24Z" fill="black"/>
<path d="M27 30C25.8954 30 25 30.8954 25 32C25 33.1046 25.8954 34 27 34H37C38.1046 34 39 33.1046 39 32C39 30.8954 38.1046 30 37 30H27Z" fill="black"/>
</svg>
