<svg width="48" height="48" viewBox="0 0 48 48" fill="none" xmlns="http://www.w3.org/2000/svg">
<path d="M18.5887 9.30037C18.5887 8.58219 19.1707 8 19.8886 8H27.7995C28.5174 8 29.0994 8.58219 29.0994 9.30037C29.0994 10.0185 28.5174 10.6007 27.7995 10.6007H19.8886C19.1707 10.6007 18.5887 10.0185 18.5887 9.30037Z" fill="black"/>
<path d="M25.1439 17.2253C25.1439 16.5071 24.5619 15.925 23.8439 15.925C23.126 15.925 22.544 16.5071 22.544 17.2253V27.1315C22.544 27.8497 23.126 28.4319 23.8439 28.4319C24.5619 28.4319 25.1439 27.8497 25.1439 27.1315V17.2253Z" fill="black"/>
<path fill-rule="evenodd" clip-rule="evenodd" d="M37.7184 26.1361C37.7184 33.7929 31.5135 40 23.8592 40C16.205 40 10 33.7929 10 26.1361C10 18.4793 16.205 12.2722 23.8592 12.2722C31.5135 12.2722 37.7184 18.4793 37.7184 26.1361ZM35.1186 26.1361C35.1186 32.3566 30.0776 37.3993 23.8592 37.3993C17.6408 37.3993 12.5999 32.3566 12.5999 26.1361C12.5999 19.9156 17.6408 14.8729 23.8592 14.8729C30.0776 14.8729 35.1186 19.9156 35.1186 26.1361Z" fill="black"/>
<path d="M35.6412 12.344C35.1339 11.8358 34.3108 11.8352 33.8028 12.3427C33.2948 12.8502 33.2943 13.6736 33.8016 14.1817L35.7803 16.1637C36.2876 16.6719 37.1107 16.6724 37.6187 16.1649C38.1266 15.6574 38.1272 14.8341 37.6199 14.3259L35.6412 12.344Z" fill="black"/>
</svg>
