<svg width="48" height="48" viewBox="0 0 48 48" fill="none" xmlns="http://www.w3.org/2000/svg">
<path fill-rule="evenodd" clip-rule="evenodd" d="M24 24C24 20.6863 26.6863 18 30 18C33.3137 18 36 20.6863 36 24C36 27.3137 33.3137 30 30 30C26.6863 30 24 27.3137 24 24ZM26.6 24C26.6 22.1222 28.1222 20.6 30 20.6C31.8778 20.6 33.4 22.1222 33.4 24C33.4 25.8778 31.8778 27.4 30 27.4C28.1222 27.4 26.6 25.8778 26.6 24Z" fill="black"/>
<path fill-rule="evenodd" clip-rule="evenodd" d="M40 24C40 29.5228 35.5228 34 30 34L18 34C12.4772 34 8 29.5228 8 24C8 18.4771 12.4772 14 18 14H30C35.5228 14 40 18.4772 40 24ZM37.4 24C37.4 28.0869 34.0869 31.4 30 31.4L18 31.4C13.9131 31.4 10.6 28.0869 10.6 24C10.6 19.9131 13.9131 16.6 18 16.6L30 16.6C34.0869 16.6 37.4 19.9131 37.4 24Z" fill="black"/>
</svg>
