<svg width="48" height="48" viewBox="0 0 48 48" fill="none" xmlns="http://www.w3.org/2000/svg">
<path fill-rule="evenodd" clip-rule="evenodd" d="M22.5982 8.58064C23.3725 7.80645 24.6275 7.80645 25.4018 8.58064L28.9268 12.1057H33.9119C35.0068 12.1057 35.8943 12.9932 35.8943 14.0881V19.0732L39.4194 22.5982C40.1935 23.3724 40.1935 24.6276 39.4194 25.4018L35.8943 28.9268V33.9119C35.8943 35.0068 35.0068 35.8943 33.9119 35.8943H28.9268L25.4018 39.4194C24.6275 40.1935 23.3725 40.1935 22.5982 39.4194L19.0732 35.8943H14.088C12.9932 35.8943 12.1056 35.0068 12.1056 33.9119V28.9268L8.5806 25.4018C7.80647 24.6276 7.80647 23.3724 8.5806 22.5982L12.1056 19.0732V14.0881C12.1056 12.9932 12.9932 12.1057 14.088 12.1057H19.0732L22.5982 8.58064ZM29.7299 21.1745C30.0098 20.9228 30.0206 20.5046 29.7541 20.2403C29.4876 19.976 29.0447 19.9658 28.7649 20.2175L22.0364 26.2695C21.9677 26.3314 21.8593 26.3301 21.7921 26.2667L19.2471 23.8631C18.9739 23.6051 18.5309 23.6051 18.2577 23.8631C17.9844 24.1212 17.9844 24.5396 18.2577 24.7977L21.4062 27.7712C21.6748 28.0248 22.1084 28.0298 22.3834 27.7825L29.7299 21.1745Z" fill="black"/>
</svg>
