<svg width="48" height="48" viewBox="0 0 48 48" fill="none" xmlns="http://www.w3.org/2000/svg">
<path fill-rule="evenodd" clip-rule="evenodd" d="M19.1931 23.3186L17.732 22.4552C16.7754 21.89 16.4477 20.6382 17 19.6592L23 9.02374C23.5522 8.04477 24.7754 7.70935 25.732 8.27456L32.6602 12.3682C33.6168 12.9334 33.9445 14.1852 33.3923 15.1642L28.792 23.3186H31C31.7179 23.3186 32.2999 23.9142 32.2999 24.649C32.2999 25.3838 31.7179 25.9794 31 25.9794H17C16.282 25.9794 15.7 25.3838 15.7 24.649C15.7 23.9142 16.282 23.3186 17 23.3186H19.1931ZM25.8176 11.3976C25.3394 11.115 24.7278 11.2827 24.4516 11.7722L20.0516 19.5716C19.7755 20.0611 19.9394 20.687 20.4176 20.9696L24.3932 23.3186H25.7897L30.3406 15.2518C30.6167 14.7623 30.4529 14.1364 29.9746 13.8538L25.8176 11.3976Z" fill="black"/>
<path fill-rule="evenodd" clip-rule="evenodd" d="M12.8944 19.7481C13.572 18.3612 14.957 17.4852 16.4721 17.4852H17.3397L15.8386 20.146C15.6966 20.146 15.5668 20.2281 15.5032 20.3581L12.2805 26.9545C11.948 27.6349 12.4315 28.4356 13.1749 28.4356H34.8251C35.5685 28.4356 36.052 27.6349 35.7195 26.9545L32.6695 20.7117C32.5001 20.365 32.1539 20.146 31.7751 20.146H31.4271L32.9282 17.4852C33.5851 17.4852 34.1856 17.865 34.4793 18.4662L39.5777 28.9016C39.8554 29.4701 40 30.0968 40 30.7324V35.9064C40 38.1672 38.2091 40 36 40H12C9.79086 40 8 38.1672 8 35.9064V30.7324C8 30.0968 8.14458 29.4701 8.42229 28.9016L12.8944 19.7481ZM37.4 33.1432C37.4 32.0128 36.5046 31.0964 35.4 31.0964H12.6C11.4954 31.0964 10.6 32.0128 10.6 33.1432V35.2924C10.6 36.4228 11.4954 37.3392 12.6 37.3392H35.4C36.5046 37.3392 37.4 36.4228 37.4 35.2924V33.1432Z" fill="black"/>
</svg>
