<svg width="20" height="20" viewBox="0 0 20 20" fill="none" xmlns="http://www.w3.org/2000/svg">
<path d="M11.3357 11.1286C10.6886 10.2573 10.6776 9.06804 11.3084 8.1849L11.8628 7.40886C12.0597 7.13308 11.8626 6.75001 11.5237 6.75001H8.14301C7.80411 6.75001 7.60697 7.13308 7.80396 7.40886L8.35826 8.1849C8.98906 9.06804 8.97803 10.2573 8.33095 11.1286L6.01492 14.2471C5.80536 14.5213 6.00088 14.9167 6.34598 14.9167H13.3207C13.6657 14.9167 13.8613 14.5213 13.6518 14.2471L11.3357 11.1286Z" fill="black"/>
<path fill-rule="evenodd" clip-rule="evenodd" d="M4.23375 4.95816C3.63363 4.12878 4.25858 3 5.31784 3H14.3488C15.4081 3 16.033 4.12878 15.4329 4.95816L12.5384 8.95852C12.2297 9.38508 12.2297 9.94828 12.5384 10.3748L15.4329 14.3752C16.033 15.2046 15.4081 16.3334 14.3488 16.3334H5.31784C4.25858 16.3334 3.63363 15.2046 4.23375 14.3752L7.1283 10.3748C7.43694 9.94828 7.43694 9.38508 7.1283 8.95852L4.23375 4.95816ZM5.31784 4.08334H14.3488C14.4722 4.08334 14.5366 4.14071 14.5654 4.19278C14.5807 4.22045 14.5839 4.2432 14.5833 4.25729C14.5829 4.2669 14.5808 4.28782 14.5553 4.3231L11.6607 8.32346C11.0778 9.129 11.0778 10.2044 11.6607 11.0099L14.5553 15.0103C14.5666 15.0259 14.5733 15.0388 14.5773 15.049C14.5823 15.0619 14.583 15.0707 14.5833 15.0761C14.5836 15.0839 14.5828 15.0943 14.5794 15.1067C14.5767 15.1168 14.5723 15.1282 14.5654 15.1406C14.5366 15.1926 14.4722 15.25 14.3488 15.25H5.31784C5.1945 15.25 5.13011 15.1926 5.10127 15.1406C5.08596 15.1129 5.08281 15.0902 5.08342 15.0761C5.08377 15.0665 5.08586 15.0455 5.11139 15.0103L8.00594 11.0099C8.58882 10.2044 8.58882 9.129 8.00594 8.32346L5.11139 4.3231C5.08586 4.28782 5.08377 4.2669 5.08342 4.25729C5.08281 4.2432 5.08596 4.22045 5.10127 4.19278C5.13011 4.14071 5.1945 4.08334 5.31784 4.08334Z" fill="black"/>
</svg>
