<svg width="48" height="48" viewBox="0 0 48 48" fill="none" xmlns="http://www.w3.org/2000/svg">
<path fill-rule="evenodd" clip-rule="evenodd" d="M33.0226 9.90477H30.3466C29.8913 8.78461 28.837 8 27.6091 8H20.391C19.1631 8 18.1088 8.78461 17.6535 9.90477H14.9774C13.333 9.90477 12 11.3119 12 13.0476V36.8571C12 38.5929 13.333 40 14.9774 40H33.0226C34.667 40 36 38.5929 36 36.8571V13.0476C36 11.3119 34.667 9.90477 33.0226 9.90477ZM20.391 10.4762C20.0422 10.4762 19.7594 10.7747 19.7594 11.1429C19.7594 11.511 20.0422 11.8095 20.391 11.8095H27.6091C27.9579 11.8095 28.2406 11.511 28.2406 11.1429C28.2406 10.7747 27.9579 10.4762 27.6091 10.4762H20.391ZM20.3692 19.8571C20.3692 21.3839 21.2042 22.7034 22.4155 23.3286C22.8943 23.5757 23.4319 23.7143 24 23.7143C24.5681 23.7143 25.1057 23.5757 25.5845 23.3286C26.7958 22.7034 27.6308 21.3839 27.6308 19.8571C27.6308 17.7269 26.0052 16 24 16C21.9948 16 20.3692 17.7269 20.3692 19.8571ZM31.8269 28.4442C32.53 26.6408 30.9823 25 29.1449 25H18.8551C17.0177 25 15.47 26.6408 16.1731 28.4441C16.5988 29.5361 17.2229 30.5282 18.0095 31.364C18.7962 32.1997 19.7301 32.8626 20.758 33.3149C21.7858 33.7672 22.8875 34 24 34C25.1125 34 26.2142 33.7672 27.242 33.3149C28.2699 32.8626 29.2038 32.1997 29.9905 31.364C30.7771 30.5282 31.4012 29.5361 31.8269 28.4442Z" fill="black"/>
</svg>
