<svg width="20" height="20" viewBox="0 0 20 20" fill="none" xmlns="http://www.w3.org/2000/svg">
<path fill-rule="evenodd" clip-rule="evenodd" d="M14.6637 5.66625C14.6637 4.74601 13.9177 4 12.9975 4H4.66625C3.74601 4 3 4.74601 3 5.66625V14.8306C3 15.7509 3.74601 16.4969 4.66625 16.4969H14.6637C15.584 16.4969 16.33 15.7509 16.33 14.8306V7.3325C16.33 6.41226 15.584 5.66625 14.6637 5.66625ZM4.66625 5.08306H12.9975C13.3196 5.08306 13.5807 5.34416 13.5807 5.66625H4.66625C4.46108 5.66625 4.26457 5.70333 4.08306 5.77116V5.66625C4.08306 5.34416 4.34416 5.08306 4.66625 5.08306ZM15.2469 9.83187V7.3325C15.2469 7.01041 14.9858 6.74931 14.6637 6.74931H4.66625C4.34416 6.74931 4.08306 7.01041 4.08306 7.3325V14.8306C4.08306 15.1527 4.34416 15.4138 4.66625 15.4138H14.6637C14.9858 15.4138 15.2469 15.1527 15.2469 14.8306V12.3313H11.7478C11.0576 12.3313 10.4981 11.7717 10.4981 11.0816C10.4981 10.3914 11.0576 9.83187 11.7478 9.83187H15.2469ZM15.2469 11.2482V10.9149H11.7478C11.6558 10.9149 11.5812 10.9895 11.5812 11.0816C11.5812 11.1736 11.6558 11.2482 11.7478 11.2482H15.2469Z" fill="black"/>
</svg>
