<svg width="48" height="48" viewBox="0 0 48 48" fill="none" xmlns="http://www.w3.org/2000/svg">
<path d="M32.0029 12.7231C32.6411 13.3443 32.6411 14.3514 32.0029 14.9725C31.3646 15.5937 30.3299 15.5937 29.6917 14.9725C29.0535 14.3514 29.0535 13.3443 29.6917 12.7231C30.3299 12.1019 31.3646 12.1019 32.0029 12.7231Z" fill="black"/>
<path d="M24.6461 23.4337C24.8946 23.6756 25.2945 24.0201 25.7443 24.3185L24.6461 23.4337Z" fill="black"/>
<path fill-rule="evenodd" clip-rule="evenodd" d="M32.0029 12.7231C32.6411 13.3443 32.6411 14.3514 32.0029 14.9725C31.3646 15.5937 30.3299 15.5937 29.6917 14.9725C29.0535 14.3514 29.0535 13.3443 29.6917 12.7231C30.3299 12.1019 31.3646 12.1019 32.0029 12.7231Z" fill="black"/>
<path fill-rule="evenodd" clip-rule="evenodd" d="M24.6461 23.4337C21.1011 19.9834 21.0161 14.4186 24.5236 11.0048C28.031 7.59104 33.7485 7.67376 37.2935 11.1241C40.6982 14.4379 40.9112 19.6993 37.816 23.1371L37.7955 23.1598L36.4337 24.5021L37.379 25.4222C37.8741 25.904 37.906 26.7076 37.383 27.2167L36.1121 28.4536L36.6808 29.0071C37.1758 29.4889 37.2078 30.2925 36.6848 30.8016L35.4139 32.0385L36.1691 32.7735C36.9733 33.5563 37.0106 34.8424 36.1851 35.6458L32.3148 39.4128C31.4893 40.2163 30.1679 40.1799 29.3637 39.3972L26.7481 36.8514C26.3597 36.4734 26.1349 35.9611 26.1289 35.423L26.007 24.4801C25.9146 24.4268 25.8251 24.3721 25.7443 24.3185L24.6461 23.4337ZM25.9982 12.4401C23.3351 15.032 23.3598 19.3113 26.1207 21.9985C26.2951 22.1682 26.5956 22.4269 26.9187 22.6412C27.0071 22.6998 27.1475 22.7807 27.2919 22.8536C27.7443 23.0823 28.0821 23.5453 28.0883 24.1031L28.2124 35.2392C28.2136 35.3429 28.2564 35.4422 28.3316 35.5157L30.5494 37.6801C30.7089 37.8357 30.9679 37.8359 31.1276 37.6804L34.4056 34.49C34.5652 34.3347 34.5652 34.0829 34.4056 33.9276L33.3886 32.9377C32.8935 32.4558 32.8615 31.6522 33.3846 31.1432L34.3665 30.1874C34.5261 30.0322 34.5261 29.7804 34.3665 29.6251L34.0868 29.3528C33.5917 28.8709 33.5598 28.0674 34.0828 27.5583L35.0647 26.6026C35.2243 26.4473 35.2243 26.1955 35.0647 26.0402L34.4119 25.4047C33.9179 24.9239 33.885 24.1228 34.4045 23.6135L36.2672 21.7775C38.5974 19.1659 38.4618 15.1316 35.8188 12.5593C33.058 9.87213 28.6613 9.84811 25.9982 12.4401ZM32.0029 12.7231C32.6411 13.3443 32.6411 14.3514 32.0029 14.9725C31.3646 15.5937 30.3299 15.5937 29.6917 14.9725C29.0535 14.3514 29.0535 13.3443 29.6917 12.7231C30.3299 12.1019 31.3646 12.1019 32.0029 12.7231Z" fill="black"/>
<path d="M24.5908 25.7361C23.8054 25.1949 23.0968 24.555 22.4842 23.8349C22.0346 24.0409 21.7352 24.4899 21.7352 24.9876V25.8863C21.7352 26.1059 21.5523 26.2839 21.3267 26.2839H19.9379C19.1983 26.2839 18.6371 26.8741 18.6371 27.5556V27.9407C18.6371 28.1603 18.4541 28.3383 18.2285 28.3383H16.8398C16.1001 28.3383 15.5389 28.9285 15.5389 29.61V31.0099C15.5389 31.2295 15.356 31.4075 15.1303 31.4075H10.4945C10.2687 31.4075 10.0857 31.2292 10.086 31.0094L10.0902 27.9526C10.0904 27.8488 10.1322 27.7492 10.2068 27.675L18.2094 19.7152C18.6103 19.3165 18.7078 18.7566 18.5541 18.2836C18.505 18.1326 18.4644 17.9788 18.4445 17.8765C18.3717 17.5026 18.3472 17.1129 18.3472 16.8728C18.3472 14.1854 19.8932 11.8767 22.1306 10.7551C22.9729 9.65249 24.03 8.7146 25.2416 8.00007C25.2293 8.00002 25.2171 8 25.2048 8C20.2445 8 16.2618 11.9934 16.2618 16.8728L16.3955 18.2543C16.4137 18.3478 16.4372 18.4481 16.4639 18.5494L8.59993 26.3711C8.21329 26.7557 8 27.2727 8 27.8072V31.4075C8 32.5145 8.90799 33.4496 10.0754 33.4496H15.5489C16.7163 33.4496 17.6243 32.5145 17.6243 31.4075V30.368H19.4216C20.1613 30.368 20.7225 29.7778 20.7225 29.0964V28.3137H22.5197C23.2594 28.3137 23.8206 27.7234 23.8206 27.042V25.7409L24.5908 25.7361Z" fill="black"/>
</svg>
