<svg width="32" height="32" viewBox="0 0 32 32" fill="none" xmlns="http://www.w3.org/2000/svg">
<path fill-rule="evenodd" clip-rule="evenodd" d="M24.9606 8.95406C22.7587 6.35623 18.8483 6.3473 16.6355 8.93547L16.935 9.1958C17.484 9.67303 17.5492 10.5023 17.0815 11.0594L16.6522 11.5707L15.171 13.2636C15.0433 13.4095 15.0667 13.6333 15.2219 13.7497L16.4229 14.6505C17.072 15.1373 17.1394 16.0862 16.5657 16.66L14.2795 18.9462C13.941 19.2846 13.3923 19.2846 13.0538 18.9462C12.7154 18.6077 12.7154 18.059 13.0538 17.7205L14.7421 16.0322C14.8856 15.8888 14.8687 15.6515 14.7064 15.5298L13.5492 14.6619C12.9285 14.1964 12.8349 13.3012 13.3458 12.7173L14.5293 11.3647L15.4762 10.2857C15.5855 10.1611 15.5867 9.97518 15.479 9.84922L14.6978 8.9355C12.4849 6.34733 8.57446 6.35628 6.37267 8.95416C4.46046 11.2104 4.55638 14.6105 6.59618 16.7475L14.7236 25.2621C15.2385 25.8015 16.0947 25.8015 16.6096 25.2621L24.7371 16.7477C26.777 14.6106 26.8729 11.2103 24.9606 8.95406Z" fill="black"/>
</svg>
