<svg width="20" height="20" viewBox="0 0 20 20" fill="none" xmlns="http://www.w3.org/2000/svg">
<path d="M16.0923 4.39521C16.4137 4.71438 16.4137 5.23186 16.0923 5.55103L15.1745 6.46245L14.4084 5.69641L13.618 4.91149L12.8519 4.14545L13.7644 3.23938C14.0858 2.92021 14.6069 2.92021 14.9283 3.23938L16.0923 4.39521Z" fill="black"/>
<path fill-rule="evenodd" clip-rule="evenodd" d="M8.0323 7.19304C8.55327 6.50996 9.49552 6.35767 10.1976 6.78129L12.0832 4.90882L12.8493 5.67486L13.6397 6.45978L14.4057 7.22582L12.5341 9.08442C13.0074 9.80221 12.8431 10.7941 12.1052 11.3123L10.7813 12.2419C10.9596 13.3725 10.6468 14.519 9.82472 15.3354C8.37835 16.7716 5.90305 16.6423 4.29598 15.0464C2.6889 13.4505 2.55863 10.9925 4.00499 9.55622C4.79097 8.77571 5.88081 8.45756 6.97004 8.58583L8.0323 7.19304ZM9.58427 10.6015C9.58427 11.0529 9.21579 11.4188 8.76124 11.4188C8.30669 11.4188 7.9382 11.0529 7.9382 10.6015C7.9382 10.1501 8.30669 9.78418 8.76124 9.78418C9.21579 9.78418 9.58427 10.1501 9.58427 10.6015Z" fill="black"/>
</svg>
