<svg width="28" height="28" viewBox="0 0 28 28" fill="none" xmlns="http://www.w3.org/2000/svg">
<path d="M8.09129 5C6.38402 5 5 6.38402 5 8.09129V10.3316C5 10.7504 5.33948 11.0899 5.75824 11.0899C6.17701 11.0899 6.51648 10.7504 6.51648 10.3316V8.09129C6.51648 7.22155 7.22155 6.51648 8.09129 6.51648H10.3316C10.7504 6.51648 11.0899 6.17701 11.0899 5.75824C11.0899 5.33948 10.7504 5 10.3316 5H8.09129Z" fill="black"/>
<path d="M6.51648 18.335C6.51648 17.9163 6.17701 17.5768 5.75824 17.5768C5.33948 17.5768 5 17.9163 5 18.335V20.5754C5 22.2826 6.38402 23.6667 8.09129 23.6667H10.3316C10.7504 23.6667 11.0899 23.3272 11.0899 22.9084C11.0899 22.4897 10.7504 22.1502 10.3316 22.1502H8.09129C7.22155 22.1502 6.51648 21.4451 6.51648 20.5754V18.335Z" fill="black"/>
<path d="M22.9084 17.5768C23.3271 17.5768 23.6666 17.9163 23.6666 18.335V20.5754C23.6666 22.2826 22.2826 23.6667 20.5753 23.6667H18.335C17.9162 23.6667 17.5767 23.3272 17.5767 22.9084C17.5767 22.4897 17.9162 22.1502 18.335 22.1502H20.5753C21.4451 22.1502 22.1501 21.4451 22.1501 20.5754V18.335C22.1501 17.9163 22.4896 17.5768 22.9084 17.5768Z" fill="black"/>
<path d="M18.335 5C17.9162 5 17.5767 5.33948 17.5767 5.75824C17.5767 6.17701 17.9162 6.51648 18.335 6.51648H20.5753C21.4451 6.51648 22.1501 7.22155 22.1501 8.09129V10.3316C22.1501 10.7504 22.4896 11.0899 22.9084 11.0899C23.3271 11.0899 23.6666 10.7504 23.6666 10.3316V8.09129C23.6666 6.38402 22.2826 5 20.5753 5H18.335Z" fill="black"/>
</svg>
