<svg width="24" height="24" viewBox="0 0 24 24" fill="none" xmlns="http://www.w3.org/2000/svg">
<path d="M5 4.94118C5 4.42138 5.44772 4 6 4H18C18.5523 4 19 4.42138 19 4.94118V6.35294C19 6.87274 18.5523 7.29412 18 7.29412C17.4477 7.29412 17 6.87274 17 6.35294V6.11765C17 5.9877 16.8881 5.88235 16.75 5.88235H13.25C13.1119 5.88235 13 5.9877 13 6.11765V17.8824C13 18.0123 13.1119 18.1176 13.25 18.1176H14C14.5523 18.1176 15 18.539 15 19.0588C15 19.5786 14.5523 20 14 20H10C9.44772 20 9 19.5786 9 19.0588C9 18.539 9.44772 18.1176 10 18.1176H10.75C10.8881 18.1176 11 18.0123 11 17.8824V6.11765C11 5.9877 10.8881 5.88235 10.75 5.88235H7.25C7.11193 5.88235 7 5.9877 7 6.11765V6.35294C7 6.87274 6.55228 7.29412 6 7.29412C5.44772 7.29412 5 6.87274 5 6.35294V4.94118Z" fill="black"/>
</svg>
