<svg width="48" height="48" viewBox="0 0 48 48" fill="none" xmlns="http://www.w3.org/2000/svg">
<path fill-rule="evenodd" clip-rule="evenodd" d="M9.95997 10.2998C9.95997 9.58196 10.5419 9 11.2598 9H36.7401C37.458 9 38.0399 9.58196 38.0399 10.2998C38.0399 11.0177 37.458 11.5997 36.7401 11.5997H35.7499L40 21.8V22.06C40 23.0847 39.7033 24.5927 38.775 25.882C37.799 27.2376 36.1838 28.2599 33.8001 28.2599C31.4164 28.2599 29.8012 27.2376 28.8252 25.882C27.8969 24.5927 27.6002 23.0847 27.6002 22.06V21.8L31.8503 11.5997H25.2998V30.8801H31.84C34.005 30.8801 35.7601 32.6352 35.7601 34.8001C35.7601 36.9651 34.005 38.7202 31.84 38.7202H16.1598C13.9949 38.7202 12.2398 36.9651 12.2398 34.8001C12.2398 32.6352 13.9949 30.8801 16.1598 30.8801H22.7002V11.5997H16.1497L20.3998 21.8V22.06C20.3998 23.0847 20.1031 24.5927 19.1748 25.882C18.1988 27.2376 16.5836 28.2599 14.1999 28.2599C11.8162 28.2599 10.201 27.2376 9.22499 25.882C8.29671 24.5927 8 23.0847 8 22.06V21.8L12.2501 11.5997H11.2598C10.5419 11.5997 9.95997 11.0177 9.95997 10.2998ZM16.1598 33.4798H31.84C32.5692 33.4798 33.1604 34.0709 33.1604 34.8001C33.1604 35.5294 32.5692 36.1205 31.84 36.1205H16.1598C15.4306 36.1205 14.8395 35.5293 14.8395 34.8001C14.8395 34.0709 15.4306 33.4798 16.1598 33.4798ZM14.1999 13.6794L11.2496 20.7601H17.1502L14.1999 13.6794ZM17.5726 23.3598H10.8272C10.9432 23.7019 11.1086 24.0489 11.3347 24.363C11.8287 25.0491 12.6635 25.6602 14.1999 25.6602C15.7363 25.6602 16.5711 25.0491 17.0651 24.363C17.2912 24.0489 17.4566 23.7019 17.5726 23.3598ZM30.8498 20.7601L33.8001 13.6794L36.7504 20.7601H30.8498ZM30.4274 23.3598H37.1728C37.0568 23.7019 36.8914 24.0489 36.6653 24.363C36.1713 25.0491 35.3365 25.6602 33.8001 25.6602C32.2637 25.6602 31.4289 25.0491 30.9349 24.363C30.7088 24.0489 30.5434 23.7019 30.4274 23.3598Z" fill="black"/>
</svg>
