<svg width="32" height="32" viewBox="0 0 32 32" fill="none" xmlns="http://www.w3.org/2000/svg">
<path d="M5.86656 9C5.38797 9 5 9.38808 5 9.86681C5 10.3455 5.38797 10.7336 5.86656 10.7336H11.9705C12.2289 10.7336 12.4641 10.883 12.5739 11.117L17.4785 21.5665C17.6982 22.0345 18.1685 22.3333 18.6853 22.3333H25.4668C25.9454 22.3333 26.3333 21.9452 26.3333 21.4665C26.3333 20.9878 25.9454 20.5997 25.4668 20.5997H19.3628C19.1044 20.5997 18.8693 20.4503 18.7594 20.2163L13.8548 9.76681C13.6351 9.29882 13.1649 9 12.648 9H5.86656Z" fill="black"/>
<path d="M17.6267 9C17.1481 9 16.7601 9.38808 16.7601 9.86681C16.7601 10.3455 17.1481 10.7336 17.6267 10.7336H25.4668C25.9454 10.7336 26.3333 10.3455 26.3333 9.86681C26.3333 9.38808 25.9454 9 25.4668 9H17.6267Z" fill="black"/>
</svg>
