<svg width="28" height="28" viewBox="0 0 28 28" fill="none" xmlns="http://www.w3.org/2000/svg">
<path fill-rule="evenodd" clip-rule="evenodd" d="M22.4655 7.7098C20.5389 5.4367 17.1173 5.42889 15.181 7.69353L14.3333 8.68509L13.4855 7.69357C11.5493 5.42892 8.12765 5.43674 6.20109 7.70989C4.5279 9.68408 4.61183 12.6592 6.39666 14.5291L13.5082 21.9794C13.9587 22.4513 14.7079 22.4513 15.1584 21.9794L22.27 14.5292C24.0549 12.6593 24.1388 9.68402 22.4655 7.7098ZM16.3086 8.67366C17.6491 7.10578 19.9996 7.11093 21.3337 8.68501C22.5106 10.0736 22.4495 12.1764 21.1973 13.4883L14.7459 20.2469C14.5206 20.4829 14.146 20.4829 13.9207 20.2469L7.46932 13.4882C6.21719 12.1764 6.15608 10.0736 7.33288 8.68508C8.66699 7.11098 11.0174 7.10581 12.3579 8.67369L13.3106 9.78791C13.3196 9.79847 13.3288 9.80888 13.3381 9.81914L12.3026 11.0026C11.8555 11.5135 11.9374 12.2968 12.4806 12.7042L13.4931 13.4636C13.6351 13.5701 13.6499 13.7777 13.5244 13.9032L12.0471 15.3804C11.751 15.6766 11.751 16.1567 12.0471 16.4529C12.3433 16.749 12.8234 16.749 13.1196 16.4529L15.12 14.4525C15.622 13.9504 15.563 13.1202 14.995 12.6942L13.9441 11.906C13.8083 11.8042 13.7878 11.6083 13.8996 11.4806L15.1957 9.99937L16.3086 8.67366Z" fill="black"/>
</svg>
