<svg width="48" height="48" viewBox="0 0 48 48" fill="none" xmlns="http://www.w3.org/2000/svg">
<path fill-rule="evenodd" clip-rule="evenodd" d="M31.3 29.6136C34.1577 27.4111 36 23.9463 36 20.0494C36 13.3947 30.6274 8 24 8C17.3726 8 12 13.3947 12 20.0494C12 23.9463 13.8423 27.4111 16.7 29.6136V38.1895C16.7 39.6331 18.3023 40.4942 19.4985 39.6934L24 36.68L28.5015 39.6934C29.6977 40.4942 31.3 39.6331 31.3 38.1895V29.6136ZM33.4 20.0494C33.4 25.2623 29.1915 29.4881 24 29.4881C18.8085 29.4881 14.6 25.2623 14.6 20.0494C14.6 14.8366 18.8085 10.6107 24 10.6107C29.1915 10.6107 33.4 14.8366 33.4 20.0494ZM28.7 31.1395C27.2566 31.7571 25.668 32.0988 24 32.0988C22.332 32.0988 20.7434 31.7571 19.3 31.1395V36.6886L24 33.5423L28.7 36.6886V31.1395Z" fill="black"/>
</svg>
