<svg width="16" height="16" viewBox="0 0 16 16" fill="none" xmlns="http://www.w3.org/2000/svg">
<path fill-rule="evenodd" clip-rule="evenodd" d="M5.81024 4.61076C5.97786 4.24091 6.37092 4 6.80673 4H12.586C13.3563 4 13.8788 4.72047 13.5825 5.3742L10.8564 11.3892C10.6888 11.7591 10.2957 12 9.85994 12H4.08065C3.31032 12 2.78788 11.2795 3.08416 10.6258L5.81024 4.61076ZM6.80673 4.78195C6.71429 4.78195 6.63091 4.83306 6.59535 4.91151L3.86927 10.9265C3.80643 11.0652 3.91725 11.218 4.08065 11.218H9.85994C9.95238 11.218 10.0358 11.1669 10.0713 11.0885L12.7974 5.07345C12.8602 4.93478 12.7494 4.78195 12.586 4.78195H6.80673Z" fill="black"/>
</svg>
