<svg width="28" height="28" viewBox="0 0 28 28" fill="none" xmlns="http://www.w3.org/2000/svg">
<path d="M5.00005 9.49165C5.00005 9.81382 5.26122 10.075 5.58338 10.075H23.0833C23.4055 10.075 23.6667 9.81382 23.6667 9.49166V7.33333C23.6667 6.04467 22.622 5 21.3333 5H7.33338C6.04472 5 5.00005 6.04467 5.00005 7.33333V9.49165Z" fill="black"/>
<path fill-rule="evenodd" clip-rule="evenodd" d="M5 12.175C5 11.8528 5.26117 11.5917 5.58333 11.5917H23.0833C23.4055 11.5917 23.6667 11.8528 23.6667 12.175V21.3333C23.6667 22.622 22.622 23.6666 21.3333 23.6666H7.33338C6.04472 23.6666 5.00005 22.622 5.00005 21.3333L5 12.175ZM10.8334 14.9166C10.8334 15.561 10.311 16.0833 9.6667 16.0833C9.02237 16.0833 8.50004 15.561 8.50004 14.9166C8.50004 14.2723 9.02237 13.75 9.6667 13.75C10.311 13.75 10.8334 14.2723 10.8334 14.9166ZM14.3334 16.0833C14.9777 16.0833 15.5 15.561 15.5 14.9166C15.5 14.2723 14.9777 13.75 14.3334 13.75C13.689 13.75 13.1667 14.2723 13.1667 14.9166C13.1667 15.561 13.689 16.0833 14.3334 16.0833ZM20.1667 14.9166C20.1667 15.561 19.6443 16.0833 19 16.0833C18.3557 16.0833 17.8334 15.561 17.8334 14.9166C17.8334 14.2723 18.3557 13.75 19 13.75C19.6443 13.75 20.1667 14.2723 20.1667 14.9166ZM9.6667 19.5833C10.311 19.5833 10.8334 19.061 10.8334 18.4166C10.8334 17.7723 10.311 17.25 9.6667 17.25C9.02237 17.25 8.50004 17.7723 8.50004 18.4166C8.50004 19.061 9.02237 19.5833 9.6667 19.5833ZM15.5 18.4166C15.5 19.061 14.9777 19.5833 14.3334 19.5833C13.689 19.5833 13.1667 19.061 13.1667 18.4166C13.1667 17.7723 13.689 17.25 14.3334 17.25C14.9777 17.25 15.5 17.7723 15.5 18.4166ZM19 19.5833C19.6443 19.5833 20.1667 19.061 20.1667 18.4166C20.1667 17.7723 19.6443 17.25 19 17.25C18.3557 17.25 17.8334 17.7723 17.8334 18.4166C17.8334 19.061 18.3557 19.5833 19 19.5833Z" fill="black"/>
</svg>
