<svg width="16" height="16" viewBox="0 0 16 16" fill="none" xmlns="http://www.w3.org/2000/svg">
<path d="M5.95942 4.92041C5.89143 5.07463 5.84476 5.23663 5.82007 5.40193C5.8146 5.43853 5.8102 5.4753 5.8069 5.51219C5.80321 5.55327 5.79502 5.59371 5.78271 5.63251C5.72868 5.80283 5.5954 5.9415 5.41681 5.96401C5.19763 5.99163 4.9945 5.83466 5.00011 5.61248C5.00157 5.55481 5.00488 5.49724 5.01003 5.43987C5.01619 5.37119 5.02498 5.30279 5.03639 5.23481C5.07328 5.01491 5.13776 4.79892 5.22854 4.5932C5.42518 4.14788 5.73885 3.76485 6.13584 3.48527L6.13651 3.4848C6.53353 3.20538 6.99894 3.03997 7.48248 3.00638C7.96602 2.9728 8.44951 3.0723 8.88101 3.29417L8.88163 3.29449C9.31309 3.51648 9.67619 3.85245 9.93192 4.26629L9.93233 4.26695C10.1881 4.68108 10.3266 5.15748 10.3331 5.64485C10.3396 6.13223 10.2137 6.61216 9.969 7.033L9.96861 7.03365C9.87352 7.1971 9.7619 7.34923 9.63598 7.48786C9.44696 7.69595 9.22573 7.87362 8.97985 8.01347C8.73241 8.17572 8.52637 8.395 8.37923 8.65367L8.37886 8.65432C8.21437 8.94376 8.12945 9.27211 8.13305 9.60542V11.1509C8.13305 11.3733 7.95394 11.5535 7.73299 11.5535C7.51205 11.5535 7.33294 11.3733 7.33294 11.1509V9.58455L7.3333 9.54088C7.33777 9.26785 7.3837 8.99802 7.46873 8.74053C7.52425 8.57242 7.59643 8.40958 7.68462 8.25454L7.68499 8.25389C7.77322 8.09888 7.87627 7.95378 7.99227 7.82044C8.15743 7.63061 8.34863 7.46419 8.561 7.32744L8.56398 7.3258L8.56763 7.32379C8.6005 7.30275 8.63387 7.28242 8.66772 7.2628L8.67207 7.26034L8.67251 7.2611C8.92095 7.10133 9.12875 6.88428 9.27818 6.62727L9.27857 6.62661C9.44959 6.33219 9.53757 5.99647 9.53306 5.65556C9.52854 5.31466 9.43169 4.98144 9.25293 4.69169L9.25252 4.69103C9.07361 4.40134 8.81956 4.16611 8.51765 4.01063L8.51703 4.01031C8.21485 3.85483 7.87609 3.78511 7.53742 3.80865C7.1988 3.8322 6.87297 3.94809 6.59498 4.14386L6.59431 4.14432C6.31661 4.34008 6.09695 4.60876 5.95942 4.92041Z" fill="black"/>
<path d="M7.74967 13.6667C8.07188 13.6667 8.33308 13.4039 8.33308 13.0797C8.33308 12.7555 8.07188 12.4927 7.74967 12.4927C7.42746 12.4927 7.16626 12.7555 7.16626 13.0797C7.16626 13.4039 7.42746 13.6667 7.74967 13.6667Z" fill="black"/>
</svg>
