<svg width="48" height="48" viewBox="0 0 48 48" fill="none" xmlns="http://www.w3.org/2000/svg">
<path d="M25.7 20.7692V22.2385H24C23.1815 22.2385 22.8172 21.9469 22.6251 21.7005C22.3866 21.3948 22.3 21.0005 22.3 20.7692C22.3 20.5379 22.3866 20.1437 22.6251 19.838C22.8172 19.5916 23.1815 19.3 24 19.3C24.8185 19.3 25.1828 19.5916 25.3749 19.838C25.6134 20.1437 25.7 20.5379 25.7 20.7692Z" fill="black"/>
<path fill-rule="evenodd" clip-rule="evenodd" d="M24 40C32.8366 40 40 32.8366 40 24C40 15.1634 32.8366 8 24 8C15.1634 8 8 15.1634 8 24C8 32.8366 15.1634 40 24 40ZM24 16.7C22.4185 16.7 21.2828 17.3315 20.5749 18.2389C19.9134 19.0871 19.7 20.0774 19.7 20.7692C19.7 21.461 19.9134 22.4514 20.5749 23.2995C21.2828 24.207 22.4185 24.8385 24 24.8385H25.7V27.2308C25.7 27.4621 25.6134 27.8563 25.3749 28.162C25.1828 28.4084 24.8185 28.7 24 28.7C23.1784 28.7 22.7563 28.4007 22.5308 28.1694C22.4056 28.041 22.3231 27.9132 22.2743 27.8231C22.2504 27.7789 22.2361 27.7466 22.23 27.732L22.228 27.7271C21.9965 27.0602 21.2727 26.6983 20.5982 26.9175C19.9154 27.1394 19.5417 27.8728 19.7637 28.5557L21 28.1538C19.7637 28.5557 19.7634 28.5549 19.7637 28.5557L19.7646 28.5586L19.7656 28.5617L19.7679 28.5685L19.7732 28.5842L19.7874 28.6239C19.7985 28.6539 19.8129 28.6911 19.831 28.7344C19.8671 28.8207 19.9184 28.9326 19.9882 29.0615C20.1269 29.3176 20.3444 29.6513 20.6692 29.9845C21.3437 30.6762 22.4216 31.3 24 31.3C25.5815 31.3 26.7172 30.6685 27.4251 29.7611C28.0866 28.9129 28.3 27.9226 28.3 27.2308V20.7692C28.3 20.0774 28.0866 19.0871 27.4251 18.2389C26.7172 17.3315 25.5815 16.7 24 16.7Z" fill="black"/>
</svg>
