<svg width="32" height="32" viewBox="0 0 32 32" fill="none" xmlns="http://www.w3.org/2000/svg">
<path d="M5 25.4709C5 24.9921 5.38814 24.604 5.86693 24.604H25.4664C25.9452 24.604 26.3333 24.9921 26.3333 25.4709C26.3333 25.9497 25.9452 26.3378 25.4664 26.3378H5.86693C5.38814 26.3378 5 25.9497 5 25.4709Z" fill="black"/>
<path fill-rule="evenodd" clip-rule="evenodd" d="M7.26691 20.6858C7.26691 22.159 8.46118 23.3533 9.93438 23.3533H12.2992C13.7724 23.3533 14.9667 22.159 14.9667 20.6858L14.9667 7.66747C14.9667 6.19427 13.7724 5 12.2992 5L9.93438 5C8.46118 5 7.26691 6.19427 7.26691 7.66748L7.26691 20.6858ZM9.00077 7.66748L9.00077 20.6858C9.00077 21.2014 9.41876 21.6194 9.93438 21.6194H12.2992C12.8148 21.6194 13.2328 21.2014 13.2328 20.6858V7.66747C13.2328 7.15185 12.8149 6.73386 12.2992 6.73386L9.93438 6.73386C9.41876 6.73386 9.00077 7.15185 9.00077 7.66748Z" fill="black"/>
<path fill-rule="evenodd" clip-rule="evenodd" d="M19.0341 23.3533C17.5609 23.3533 16.3667 22.159 16.3667 20.6858V11.9028C16.3667 10.4296 17.5609 9.23537 19.0341 9.23537H21.399C22.8722 9.23537 24.0664 10.4296 24.0664 11.9028V20.6858C24.0664 22.159 22.8722 23.3533 21.399 23.3533H19.0341ZM18.1005 20.6858V11.9028C18.1005 11.3872 18.5185 10.9692 19.0341 10.9692L21.399 10.9692C21.9146 10.9692 22.3326 11.3872 22.3326 11.9028V20.6858C22.3326 21.2014 21.9146 21.6194 21.399 21.6194H19.0341C18.5185 21.6194 18.1005 21.2014 18.1005 20.6858Z" fill="black"/>
</svg>
