<svg width="24" height="24" viewBox="0 0 24 24" fill="none" xmlns="http://www.w3.org/2000/svg">
<path fill-rule="evenodd" clip-rule="evenodd" d="M9.52198 5.10244C9.94231 4.91498 10.4452 4.98931 10.7806 5.28848L11.9642 6.34427C12.0073 6.38273 12.0759 6.38273 12.119 6.34427L13.3026 5.28848C13.638 4.98931 14.1409 4.91498 14.5612 5.10244L19.373 7.24843C20.1151 7.5794 20.2211 8.51261 19.5694 8.97765L18.5135 9.73108C18.4561 9.77204 18.4561 9.85183 18.5135 9.89279L19.5694 10.6462C20.2211 11.1113 20.1151 12.0445 19.373 12.3754L18.5067 12.7618V15.5894C18.5067 15.9815 18.2632 16.3391 17.8798 16.5101L12.5264 18.8976C12.2202 19.0341 11.863 19.0341 11.5568 18.8976L6.20342 16.5101C5.82002 16.3391 5.57652 15.9815 5.57652 15.5894V12.7618L4.62709 12.3384C3.9324 12.0285 3.78386 11.1775 4.33819 10.683L5.23241 9.8854C5.27747 9.8452 5.27747 9.77866 5.23241 9.73847L4.33819 8.94085C3.78386 8.44641 3.9324 7.59532 4.62709 7.2855L9.52198 5.10244ZM6.52371 10.5397C6.42177 10.5018 6.30514 10.5228 6.2262 10.5932L5.61608 11.1374C5.4775 11.261 5.51464 11.4738 5.68831 11.5513L9.72636 13.3522C9.84171 13.4036 9.98033 13.3758 10.0619 13.2848L10.7824 12.4815C10.902 12.3481 10.8464 12.1463 10.6721 12.0815L6.52371 10.5397ZM11.4097 13.8714C11.4097 13.7755 11.2791 13.7323 11.2128 13.8063L10.8276 14.2357C10.5013 14.5996 9.94679 14.7109 9.48539 14.5051L6.84037 13.3255V15.3735C6.84037 15.4715 6.90125 15.5609 6.9971 15.6037L11.0105 17.3936C11.1951 17.4759 11.4097 17.3522 11.4097 17.1634V13.8714ZM12.6735 17.1634C12.6735 17.3522 12.8881 17.4759 13.0727 17.3936L17.0861 15.6037C17.182 15.5609 17.2428 15.4715 17.2428 15.3735V13.3255L14.5978 14.5051C14.1364 14.7109 13.5819 14.5996 13.2556 14.2357L12.8704 13.8063C12.8041 13.7323 12.6735 13.7755 12.6735 13.8714V17.1634ZM11.9871 11.349C12.0149 11.3593 12.0461 11.3589 12.0736 11.3477L15.7644 9.8513C15.8495 9.81682 15.8537 9.70721 15.7716 9.66723L12.0787 7.87051C12.0474 7.85528 12.0101 7.85468 11.9782 7.86889L7.95152 9.66473C7.86477 9.70343 7.86899 9.81845 7.95837 9.85167L11.9871 11.349ZM6.19358 9.00154C6.27743 9.07633 6.40314 9.09491 6.50822 9.04804L10.6174 7.21543C10.791 7.13797 10.8282 6.9252 10.6896 6.80159L10.1121 6.28648C10.0282 6.21169 9.90252 6.19311 9.79744 6.23998L5.68831 8.07259C5.51464 8.15004 5.4775 8.36282 5.61608 8.48643L6.19358 9.00154ZM13.3605 6.83116C13.2248 6.95214 13.257 7.15971 13.424 7.24095L17.1637 9.06041C17.2602 9.10736 17.3776 9.09798 17.4639 9.03642L18.2992 8.44033C18.4622 8.32407 18.4357 8.09077 18.2501 8.00803L14.2858 6.23997C14.1807 6.19311 14.055 6.21169 13.9711 6.28648L13.3605 6.83116ZM17.4277 10.5617C17.3471 10.5041 17.2387 10.4919 17.1454 10.5297L13.3783 12.057C13.2097 12.1254 13.1587 12.3231 13.276 12.4539L14.0213 13.2848C14.1029 13.3758 14.2415 13.4036 14.3568 13.3522L18.2501 11.6158C18.4357 11.5331 18.4622 11.2998 18.2992 11.1835L17.4277 10.5617Z" fill="black"/>
</svg>
