<svg width="16" height="16" viewBox="0 0 16 16" fill="none" xmlns="http://www.w3.org/2000/svg">
<path fill-rule="evenodd" clip-rule="evenodd" d="M11.5305 8.90619C12.4989 8.49232 13.6061 7.57898 13.6166 5.87612V3.22229C13.6166 3.09952 13.5152 3 13.39 3H6.09871C5.06581 3.03347 3 3.65555 3 5.87612V13.4477C3 13.5705 3.10148 13.67 3.22665 13.67H7.03051C7.15569 13.67 7.25716 13.5705 7.25716 13.4477V9.54192C7.25716 9.43112 7.40438 9.38854 7.46568 9.48161L10.1575 13.5683C10.1993 13.6317 10.271 13.67 10.3479 13.67H13.443C13.6265 13.67 13.734 13.4671 13.6284 13.3198L10.7543 9.31152C10.706 9.24408 10.7463 9.14973 10.8284 9.13208C10.9154 9.11338 11.0076 9.08983 11.1036 9.06108C11.2373 9.02103 11.3783 8.97087 11.5223 8.90966C11.5251 8.90851 11.5278 8.90735 11.5305 8.90619ZM12.1911 12.8031L10.0498 9.81669C9.60474 9.19598 10.0097 8.42129 10.6462 8.2845C11.5056 8.09981 12.7389 7.41017 12.7497 5.87329V3.86694H6.11396C5.71886 3.88214 5.12189 4.01482 4.6482 4.33567C4.21095 4.63185 3.86694 5.08766 3.86694 5.87612V12.8031H6.39023V9.54192C6.39023 8.53197 7.67664 8.22585 8.18968 9.00473L10.6915 12.8031H12.1911Z" fill="black"/>
</svg>
