<svg width="32" height="32" viewBox="0 0 32 32" fill="none" xmlns="http://www.w3.org/2000/svg">
<path fill-rule="evenodd" clip-rule="evenodd" d="M15.0818 16.04L5.72289 11.6754C4.75904 11.2259 4.75903 9.94293 5.72289 9.49342L15.0818 5.12877C15.45 4.95708 15.8833 4.95708 16.2515 5.12877L25.6104 9.49342C26.5743 9.94292 26.5743 11.2259 25.6104 11.6754L16.2515 16.04C15.8833 16.2117 15.45 16.2117 15.0818 16.04Z" fill="black"/>
<path d="M7.57114 14.0526L5.72289 14.9145C4.75903 15.364 4.75904 16.647 5.72289 17.0965L15.0818 21.4611C15.45 21.6328 15.8833 21.6328 16.2515 21.4611L25.6104 17.0965C26.5743 16.647 26.5743 15.364 25.6104 14.9145L23.7622 14.0526L21.6503 15.0375L23.4661 15.8843C23.5731 15.9342 23.5731 16.0768 23.4661 16.1267L15.7316 19.7337C15.6907 19.7528 15.6426 19.7528 15.6017 19.7337L7.86728 16.1267C7.76019 16.0768 7.76019 15.9342 7.86728 15.8843L9.68304 15.0375L7.57114 14.0526Z" fill="black"/>
<path d="M6.84463 19.1348L8.95653 20.1197L7.86728 20.6277C7.76019 20.6777 7.76019 20.8202 7.86728 20.8702L15.6017 24.4772C15.6426 24.4963 15.6907 24.4963 15.7316 24.4772L23.4661 20.8702C23.5731 20.8202 23.5731 20.6777 23.4661 20.6277L22.3768 20.1197L24.4887 19.1348L25.6104 19.658C26.5743 20.1075 26.5743 21.3904 25.6104 21.8399L16.2515 26.2046C15.8833 26.3763 15.45 26.3763 15.0818 26.2046L5.72289 21.8399C4.75904 21.3904 4.75903 20.1075 5.72289 19.658L6.84463 19.1348Z" fill="black"/>
</svg>
