<svg width="16" height="16" viewBox="0 0 16 16" fill="none" xmlns="http://www.w3.org/2000/svg">
<path fill-rule="evenodd" clip-rule="evenodd" d="M8.11868 3.09809C8.35177 2.9673 8.63614 2.9673 8.86923 3.09809L13.2784 5.57212C13.7852 5.85648 13.8039 6.57922 13.3125 6.88942L11.9637 7.74082V10.3766C11.9637 10.5314 11.917 10.6989 11.8034 10.8399C11.3455 11.4084 10.1833 12.3365 8.49396 12.3365C6.80462 12.3365 5.64244 11.4084 5.18446 10.8399C5.07087 10.6989 5.0242 10.5314 5.0242 10.3766V7.74082L3.86692 7.01029V9.41851C3.86692 9.6579 3.67286 9.85197 3.43346 9.85197C3.19407 9.85197 3 9.6579 3 9.41851V5.97025L8.11868 3.09809ZM4.52431 6.10901C4.41414 6.17083 4.41007 6.32795 4.5169 6.39538L8.40496 8.84973C8.45933 8.88405 8.52858 8.88405 8.58295 8.84973L12.471 6.39538C12.5778 6.32795 12.5738 6.17083 12.4636 6.10901L8.57554 3.92737C8.52487 3.89894 8.46305 3.89894 8.41237 3.92737L4.52431 6.10901ZM5.89112 8.28807V10.3341C6.25126 10.7573 7.16847 11.4696 8.49396 11.4696C9.81944 11.4696 10.7366 10.7573 11.0968 10.3341V8.28807L8.90332 9.6727C8.65324 9.83056 8.33467 9.83056 8.08459 9.6727L5.89112 8.28807Z" fill="black"/>
</svg>
