<svg width="16" height="16" viewBox="0 0 16 16" fill="none" xmlns="http://www.w3.org/2000/svg">
<path d="M13.6667 3.43333C13.6667 3.19401 13.4727 3 13.2333 3H11.4333C11.194 3 11 3.19401 11 3.43333C11 3.67266 11.194 3.86667 11.4333 3.86667L13.2333 3.86667C13.4727 3.86667 13.6667 3.67266 13.6667 3.43333Z" fill="black"/>
<path d="M7.86193 4.85858C8.12228 4.59823 8.54439 4.59823 8.80474 4.85858L11.6667 7.72051C11.8359 7.88973 11.8359 8.16411 11.6667 8.33333C11.4974 8.50256 11.2231 8.50256 11.0538 8.33333L8.88047 6.15997C8.83848 6.11797 8.76667 6.14771 8.76667 6.20711V11.2333C8.76667 11.4727 8.57266 11.6667 8.33333 11.6667C8.09401 11.6667 7.9 11.4727 7.9 11.2333V6.20711C7.9 6.14771 7.82819 6.11797 7.78619 6.15997L5.61283 8.33333C5.4436 8.50256 5.16923 8.50256 5 8.33333C4.83077 8.16411 4.83077 7.88973 5 7.72051L7.86193 4.85858Z" fill="black"/>
<path d="M13.2333 12.8C13.4727 12.8 13.6667 12.994 13.6667 13.2333C13.6667 13.4727 13.4727 13.6667 13.2333 13.6667H3.43333C3.19401 13.6667 3 13.4727 3 13.2333C3 12.994 3.19401 12.8 3.43333 12.8L13.2333 12.8Z" fill="black"/>
<path d="M5.23333 3C5.47266 3 5.66667 3.19401 5.66667 3.43333C5.66667 3.67266 5.47266 3.86667 5.23333 3.86667L3.43333 3.86667C3.19401 3.86667 3 3.67266 3 3.43333C3 3.19401 3.19401 3 3.43333 3H5.23333Z" fill="black"/>
<path d="M10.3333 3.43333C10.3333 3.19401 10.1393 3 9.9 3H6.76667C6.52734 3 6.33333 3.19401 6.33333 3.43333C6.33333 3.67266 6.52734 3.86667 6.76667 3.86667L9.9 3.86667C10.1393 3.86667 10.3333 3.67266 10.3333 3.43333Z" fill="black"/>
</svg>
