<svg width="20" height="20" viewBox="0 0 20 20" fill="none" xmlns="http://www.w3.org/2000/svg">
<path d="M8.35256 4.48434C8.35256 4.28743 8.17952 4.13626 7.9863 4.16437L3.27476 4.84978C3.11705 4.87273 3 5.00904 3 5.16975V8.99539C3 9.17393 3.1435 9.31867 3.32051 9.31867H8.03205C8.20907 9.31867 8.35256 9.17393 8.35256 8.99539V4.48434Z" fill="black"/>
<path d="M9.46066 3.94989C9.30295 3.97283 9.1859 4.10914 9.1859 4.26986V8.99539C9.1859 9.17393 9.3294 9.31867 9.50641 9.31867H16.0128C16.1898 9.31867 16.3333 9.17393 16.3333 8.99539V3.32334C16.3333 3.12643 16.1603 2.97526 15.9671 3.00337L9.46066 3.94989Z" fill="black"/>
<path d="M16.3333 10.4825C16.3333 10.3039 16.1898 10.1592 16.0128 10.1592H9.50641C9.3294 10.1592 9.1859 10.3039 9.1859 10.4825V15.136C9.1859 15.298 9.30484 15.435 9.4641 15.4564L15.9705 16.3305C16.1626 16.3563 16.3333 16.2055 16.3333 16.01V10.4825Z" fill="black"/>
<path d="M7.98974 15.2584C8.18187 15.2842 8.35256 15.1334 8.35256 14.9379V10.4825C8.35256 10.3039 8.20907 10.1592 8.03205 10.1592H3.32051C3.1435 10.1592 3 10.3039 3 10.4825V14.305C3 14.4671 3.11895 14.6041 3.2782 14.6255L7.98974 15.2584Z" fill="black"/>
</svg>
