<svg width="20" height="20" viewBox="0 0 20 20" fill="none" xmlns="http://www.w3.org/2000/svg">
<path fill-rule="evenodd" clip-rule="evenodd" d="M5.49937 3C4.11901 3 3 4.11901 3 5.49937V13.8306C3 15.211 4.11901 16.33 5.49937 16.33H13.8306C15.211 16.33 16.33 15.211 16.33 13.8306V5.49937C16.33 4.11901 15.211 3 13.8306 3H5.49937ZM6.74906 10.0816C6.519 10.0816 6.3325 9.89506 6.3325 9.665C6.3325 9.43494 6.519 9.24844 6.74906 9.24844H9.24844V6.74906C9.24844 6.519 9.43494 6.3325 9.665 6.3325C9.89506 6.3325 10.0816 6.519 10.0816 6.74906V9.24844H12.5809C12.811 9.24844 12.9975 9.43494 12.9975 9.665C12.9975 9.89506 12.811 10.0816 12.5809 10.0816H10.0816V12.5809C10.0816 12.811 9.89506 12.9975 9.665 12.9975C9.43494 12.9975 9.24844 12.811 9.24844 12.5809V10.0816H6.74906Z" fill="black"/>
</svg>
