<svg width="16" height="16" viewBox="0 0 16 16" fill="none" xmlns="http://www.w3.org/2000/svg">
<path fill-rule="evenodd" clip-rule="evenodd" d="M7.41145 3C7.65084 3 7.84491 3.19407 7.84491 3.43346L7.84491 4.13345L10.6663 4.13345C11.4029 4.13345 12 4.73059 12 5.46719L12 6.64961C12 7.38621 11.4029 7.98335 10.6663 7.98335L7.84491 7.98335L7.84491 8.68332L9.61209 8.68332C10.3487 8.68332 10.9458 9.28046 10.9458 10.0171L10.9458 11.1995C10.9458 11.9361 10.3487 12.5332 9.61209 12.5332L7.84491 12.5332L7.84491 13.2332C7.84491 13.4726 7.65084 13.6667 7.41145 13.6667C7.17205 13.6667 6.97798 13.4726 6.97798 13.2332L6.97798 12.5332L5.21076 12.5332C4.47416 12.5332 3.87702 11.9361 3.87702 11.1995L3.87702 10.0171C3.87702 9.28046 4.47416 8.68332 5.21076 8.68332L6.97798 8.68332L6.97798 7.98335L4.1571 7.98335C3.4205 7.98335 2.82337 7.38621 2.82337 6.64961L2.82337 5.46719C2.82337 4.73058 3.4205 4.13345 4.1571 4.13345L6.97798 4.13345L6.97798 3.43346C6.97798 3.19407 7.17205 3 7.41145 3Z" fill="black"/>
</svg>
