<svg width="24" height="24" viewBox="0 0 24 24" fill="none" xmlns="http://www.w3.org/2000/svg">
<path fill-rule="evenodd" clip-rule="evenodd" d="M6 6C4.89543 6 4 6.89543 4 8V15C4 16.1046 4.89543 17 6 17H18C19.1046 17 20 16.1046 20 15V8C20 6.89543 19.1046 6 18 6H6ZM7.35 14C7.35 13.641 7.64102 13.35 8 13.35H16C16.359 13.35 16.65 13.641 16.65 14C16.65 14.359 16.359 14.65 16 14.65H8C7.64102 14.65 7.35 14.359 7.35 14ZM10.05 11.7C10.05 12.059 9.75899 12.35 9.4 12.35C9.04101 12.35 8.75 12.059 8.75 11.7C8.75 11.341 9.04101 11.05 9.4 11.05C9.75899 11.05 10.05 11.341 10.05 11.7ZM12.65 11.7C12.65 12.059 12.359 12.35 12 12.35C11.641 12.35 11.35 12.059 11.35 11.7C11.35 11.341 11.641 11.05 12 11.05C12.359 11.05 12.65 11.341 12.65 11.7ZM15.25 11.7C15.25 12.059 14.9589 12.35 14.6 12.35C14.241 12.35 13.95 12.059 13.95 11.7C13.95 11.341 14.241 11.05 14.6 11.05C14.9589 11.05 15.25 11.341 15.25 11.7ZM13.45 10.1C13.809 10.1 14.1 9.80899 14.1 9.45C14.1 9.09102 13.809 8.8 13.45 8.8C13.0911 8.8 12.8 9.09102 12.8 9.45C12.8 9.80899 13.0911 10.1 13.45 10.1ZM10.55 10.1C10.909 10.1 11.2 9.80899 11.2 9.45C11.2 9.09102 10.909 8.8 10.55 8.8C10.191 8.8 9.90002 9.09102 9.90002 9.45C9.90002 9.80899 10.191 10.1 10.55 10.1ZM7.65 10.1C8.00899 10.1 8.3 9.80899 8.3 9.45C8.3 9.09102 8.00899 8.8 7.65 8.8C7.29101 8.8 7 9.09102 7 9.45C7 9.80899 7.29101 10.1 7.65 10.1ZM16.3501 10.1C16.7091 10.1 17.0001 9.80899 17.0001 9.45C17.0001 9.09102 16.7091 8.8 16.3501 8.8C15.9911 8.8 15.7001 9.09102 15.7001 9.45C15.7001 9.80899 15.9911 10.1 16.3501 10.1Z" fill="black"/>
</svg>
