<svg width="16" height="16" viewBox="0 0 16 16" fill="none" xmlns="http://www.w3.org/2000/svg">
<path fill-rule="evenodd" clip-rule="evenodd" d="M3.86668 7.5909C3.86668 6.97642 4.06943 6.04259 4.71564 5.27056C5.34778 4.51535 6.44426 3.86667 8.33335 3.86667C10.2224 3.86667 11.3189 4.51535 11.951 5.27056C12.5973 6.04259 12.8 6.97642 12.8 7.5909L12.8 9.8296H10.3333C9.96514 9.8296 9.66667 10.1281 9.66667 10.4963V13.0007C9.66667 13.3689 9.96514 13.6674 10.3333 13.6674H12.3333C13.0697 13.6674 13.6667 13.0704 13.6667 12.334V7.5909C13.6667 6.81953 13.4194 5.67457 12.6156 4.71429C11.7978 3.73718 10.4443 3 8.33335 3C6.22244 3 4.86892 3.73718 4.05106 4.71429C3.24727 5.67457 3.00002 6.81953 3.00002 7.5909L3 12.334C3 13.0704 3.59695 13.6674 4.33333 13.6674H6.33333C6.70152 13.6674 7 13.3689 7 13.0007V10.4963C7 10.1281 6.70152 9.8296 6.33333 9.8296H3.86668V7.5909Z" fill="black"/>
</svg>
