<svg width="24" height="24" viewBox="0 0 24 24" fill="none" xmlns="http://www.w3.org/2000/svg">
<path fill-rule="evenodd" clip-rule="evenodd" d="M15.538 4.76556C16.5587 3.74482 18.2137 3.74482 19.2344 4.76556C20.2552 5.78631 20.2552 7.44128 19.2344 8.46202L18.2305 9.46598L19.2397 10.4978C19.501 10.7648 19.4986 11.1924 19.2344 11.4565L16.5701 14.1209C16.3039 14.3871 15.8722 14.3871 15.606 14.1209C15.3398 13.8546 15.3398 13.423 15.606 13.1568L17.6102 11.1526C17.7118 11.051 17.7127 10.8865 17.6123 10.7838L17.4517 10.6197C17.3497 10.5153 17.1821 10.5144 17.0789 10.6176L8.55218 19.1443C8.28742 19.409 7.94393 19.5808 7.57326 19.6337L5.07766 19.9903C4.45471 20.0793 3.92075 19.5453 4.00975 18.9223L4.36626 16.4268C4.41921 16.0561 4.59096 15.7126 4.85572 15.4478L15.538 4.76556Z" fill="black"/>
</svg>
