<svg width="16" height="16" viewBox="0 0 16 16" fill="none" xmlns="http://www.w3.org/2000/svg">
<path fill-rule="evenodd" clip-rule="evenodd" d="M6.83696 6.03542V4.91848C6.83696 4.18078 6.52061 3.68103 6.10122 3.37907C5.70227 3.09183 5.23557 3 4.91848 3C4.6014 3 4.13469 3.09183 3.73574 3.37907C3.31635 3.68103 3 4.18078 3 4.91848C3 5.69764 3.41983 6.19634 3.91216 6.47993C4.38457 6.75204 4.93312 6.83696 5.29791 6.83696H6.03542V9.8297H4.91848C4.18078 9.8297 3.68103 10.1461 3.37907 10.5654C3.09183 10.9644 3 11.4311 3 11.7482C3 12.0653 3.09183 12.532 3.37907 12.9309C3.68103 13.3503 4.18078 13.6667 4.91848 13.6667C5.65619 13.6667 6.15593 13.3503 6.45789 12.9309C6.74514 12.532 6.83696 12.0653 6.83696 11.7482V10.6312H9.8297V11.7482C9.8297 12.4859 10.1461 12.9856 10.5654 13.2876C10.9644 13.5748 11.4311 13.6667 11.7482 13.6667C12.0653 13.6667 12.532 13.5748 12.9309 13.2876C13.3503 12.9856 13.6667 12.4859 13.6667 11.7482C13.6667 11.0105 13.3503 10.5107 12.9309 10.2088C12.532 9.92153 12.0653 9.8297 11.7482 9.8297H10.6312V6.83696H11.7482C12.4859 6.83696 12.9856 6.52061 13.2876 6.10122C13.5748 5.70227 13.6667 5.23557 13.6667 4.91848C13.6667 4.6014 13.5748 4.13469 13.2876 3.73574C12.9856 3.31635 12.4859 3 11.7482 3C11.0105 3 10.5107 3.31635 10.2088 3.73574C9.92153 4.13469 9.8297 4.6014 9.8297 4.91848V6.03542H6.83696ZM4.20408 4.02955C3.99109 4.18291 3.80154 4.44202 3.80154 4.91848C3.80154 5.3535 4.0141 5.61364 4.31223 5.78537C4.6303 5.96858 5.03032 6.03542 5.29791 6.03542H6.03542V4.91848C6.03542 4.44202 5.84587 4.18291 5.63288 4.02955C5.39945 3.86148 5.1073 3.80154 4.91848 3.80154C4.72966 3.80154 4.43751 3.86148 4.20408 4.02955ZM6.83696 6.83696V9.8297H9.8297V6.83696H6.83696ZM10.6312 6.03542H11.7482C12.2246 6.03542 12.4838 5.84587 12.6371 5.63288C12.8052 5.39945 12.8651 5.1073 12.8651 4.91848C12.8651 4.72966 12.8052 4.43751 12.6371 4.20408C12.4838 3.99109 12.2246 3.80154 11.7482 3.80154C11.2717 3.80154 11.0126 3.99109 10.8593 4.20408C10.6912 4.43751 10.6312 4.72966 10.6312 4.91848V6.03542ZM10.6312 10.6312V11.7482C10.6312 12.2246 10.8208 12.4838 11.0338 12.6371C11.2672 12.8052 11.5594 12.8651 11.7482 12.8651C11.937 12.8651 12.2292 12.8052 12.4626 12.6371C12.6756 12.4838 12.8651 12.2246 12.8651 11.7482C12.8651 11.2717 12.6756 11.0126 12.4626 10.8593C12.2292 10.6912 11.937 10.6312 11.7482 10.6312H10.6312ZM6.03542 10.6312H4.91848C4.44202 10.6312 4.18291 10.8208 4.02955 11.0338C3.86148 11.2672 3.80154 11.5594 3.80154 11.7482C3.80154 11.937 3.86148 12.2292 4.02955 12.4626C4.18291 12.6756 4.44202 12.8651 4.91848 12.8651C5.39495 12.8651 5.65406 12.6756 5.80741 12.4626C5.97548 12.2292 6.03542 11.937 6.03542 11.7482V10.6312Z" fill="black"/>
</svg>
