<svg width="16" height="16" viewBox="0 0 16 16" fill="none" xmlns="http://www.w3.org/2000/svg">
<path d="M12.8 7.33333C12.8 8.25346 12.5218 9.10861 12.0449 9.81923L12.6676 10.4419C13.2964 9.56671 13.6667 8.49327 13.6667 7.33333C13.6667 4.38781 11.2789 2 8.33333 2C5.38781 2 3 4.38781 3 7.33333C3 8.49326 3.37029 9.56671 3.99911 10.4419L4.62179 9.81923C4.14488 9.1086 3.86667 8.25346 3.86667 7.33333C3.86667 4.86646 5.86646 2.86667 8.33333 2.86667C10.8002 2.86667 12.8 4.86646 12.8 7.33333Z" fill="black"/>
<path d="M12.25 7.33333C12.25 8.10109 12.0291 8.81726 11.6474 9.42173L11.0144 8.78872C11.2497 8.35618 11.3833 7.86037 11.3833 7.33333C11.3833 5.64886 10.0178 4.28333 8.33333 4.28333C6.64886 4.28333 5.28333 5.64886 5.28333 7.33333C5.28333 7.86037 5.41701 8.35618 5.6523 8.78871L5.01929 9.42172C4.63757 8.81725 4.41667 8.10109 4.41667 7.33333C4.41667 5.17022 6.17022 3.41667 8.33333 3.41667C10.4964 3.41667 12.25 5.17022 12.25 7.33333Z" fill="black"/>
<path d="M9.8 7.33333C9.8 7.4095 9.79419 7.48432 9.783 7.55736L10.4785 8.25285C10.5996 7.97069 10.6667 7.65984 10.6667 7.33333C10.6667 6.04467 9.622 5 8.33333 5C7.04467 5 6 6.04467 6 7.33333C6 7.65984 6.06706 7.97069 6.18817 8.25284L6.88367 7.55735C6.87247 7.48431 6.86667 7.4095 6.86667 7.33333C6.86667 6.52332 7.52332 5.86667 8.33333 5.86667C9.14335 5.86667 9.8 6.52332 9.8 7.33333Z" fill="black"/>
<path fill-rule="evenodd" clip-rule="evenodd" d="M7.86193 7.4714C8.12228 7.21105 8.54439 7.21105 8.80474 7.4714L12.5286 11.1953C12.9486 11.6152 12.6511 12.3333 12.0572 12.3333H4.60948C4.01554 12.3333 3.71809 11.6152 4.13807 11.1953L7.86193 7.4714Z" fill="black"/>
</svg>
