<svg width="20" height="20" viewBox="0 0 20 20" fill="none" xmlns="http://www.w3.org/2000/svg">
<path d="M15.7917 7.3499C16.0908 7.3499 16.3333 7.10742 16.3333 6.8083C16.3333 6.50918 16.0908 6.2667 15.7917 6.2667H14.1915C13.5702 6.2667 13.0666 5.76308 13.0666 5.14184V3.5416C13.0666 3.24248 12.8241 3 12.525 3C12.2259 3 11.9834 3.24248 11.9834 3.5416V5.14184C11.9834 6.36132 12.972 7.3499 14.1915 7.3499L15.7917 7.3499Z" fill="black"/>
<path d="M5.14185 7.34992C6.36133 7.34992 7.34991 6.36133 7.34991 5.14185V3.54162C7.34991 3.2425 7.10743 3.00002 6.80831 3.00002C6.50919 3.00002 6.26671 3.2425 6.26671 3.54162L6.26671 5.14185C6.26671 5.7631 5.76309 6.26672 5.14185 6.26672H3.5416C3.24248 6.26672 3 6.5092 3 6.80832C3 7.10744 3.24248 7.34992 3.5416 7.34992H5.14185Z" fill="black"/>
<path d="M6.26674 15.7917C6.26674 16.0908 6.50922 16.3333 6.80834 16.3333C7.10746 16.3333 7.34994 16.0908 7.34994 15.7917V14.1915C7.34994 12.972 6.36136 11.9834 5.14188 11.9834H3.54163C3.24251 11.9834 3.00003 12.2259 3.00003 12.525C3.00003 12.8241 3.24251 13.0666 3.54163 13.0666H5.14188C5.76312 13.0666 6.26674 13.5702 6.26674 14.1915L6.26674 15.7917Z" fill="black"/>
<path d="M12.525 16.3333C12.2259 16.3333 11.9834 16.0908 11.9834 15.7917V14.1915C11.9834 12.972 12.972 11.9834 14.1915 11.9834H15.7917C16.0908 11.9834 16.3333 12.2259 16.3333 12.525C16.3333 12.8241 16.0908 13.0666 15.7917 13.0666H14.1915C13.5702 13.0666 13.0666 13.5702 13.0666 14.1915V15.7917C13.0666 16.0908 12.8241 16.3333 12.525 16.3333Z" fill="black"/>
</svg>
