<svg width="32" height="32" viewBox="0 0 32 32" fill="none" xmlns="http://www.w3.org/2000/svg">
<path fill-rule="evenodd" clip-rule="evenodd" d="M14.3006 17.1333C14.4504 16.7857 14.5333 16.4025 14.5333 16C14.5333 14.4168 13.2499 13.1333 11.6667 13.1333C10.0835 13.1333 8.8 14.4168 8.8 16C8.8 17.5832 10.0835 18.8667 11.6667 18.8667H19.6667C21.2499 18.8667 22.5333 17.5832 22.5333 16C22.5333 14.4168 21.2499 13.1333 19.6667 13.1333C18.0835 13.1333 16.8 14.4168 16.8 16C16.8 16.4025 16.883 16.7857 17.0327 17.1333H14.3006ZM10.5333 16C10.5333 15.3741 11.0407 14.8667 11.6667 14.8667C12.2926 14.8667 12.8 15.3741 12.8 16C12.8 16.6259 12.2926 17.1333 11.6667 17.1333C11.0407 17.1333 10.5333 16.6259 10.5333 16ZM19.6667 17.1333C20.2926 17.1333 20.8 16.6259 20.8 16C20.8 15.3741 20.2926 14.8667 19.6667 14.8667C19.0407 14.8667 18.5333 15.3741 18.5333 16C18.5333 16.6259 19.0407 17.1333 19.6667 17.1333Z" fill="black"/>
<path fill-rule="evenodd" clip-rule="evenodd" d="M5 10.6667C5 9.19391 6.19391 8 7.66667 8H23.6667C25.1394 8 26.3333 9.19391 26.3333 10.6667V21.3333C26.3333 22.8061 25.1394 24 23.6667 24H7.66667C6.19391 24 5 22.8061 5 21.3333V10.6667ZM7.66667 9.73333H23.6667C24.1821 9.73333 24.6 10.1512 24.6 10.6667V21.3333C24.6 21.8488 24.1821 22.2667 23.6667 22.2667H7.66667C7.1512 22.2667 6.73333 21.8488 6.73333 21.3333V10.6667C6.73333 10.1512 7.1512 9.73333 7.66667 9.73333Z" fill="black"/>
</svg>
