<svg width="32" height="32" viewBox="0 0 32 32" fill="none" xmlns="http://www.w3.org/2000/svg">
<path d="M6.54302 14.9051C7.56994 13.3965 10.8377 9.78541 15.6666 9.78541C18.0791 9.78541 20.1542 10.6819 21.7413 11.7832C23.3446 12.8958 24.3865 14.173 24.7439 14.8292C24.977 15.2572 25.4966 15.406 25.9046 15.1614C26.3125 14.9167 26.4542 14.3714 26.2211 13.9434C25.7059 12.9973 24.4575 11.5276 22.6798 10.294C20.8859 9.04914 18.4893 8 15.6666 8C10.0253 8 6.31291 12.1715 5.15852 13.8674C4.88544 14.2686 4.97399 14.8261 5.35631 15.1127C5.73863 15.3993 6.26994 15.3063 6.54302 14.9051Z" fill="black"/>
<path d="M15.6666 13.9056C12.4326 13.9056 10.4497 16.3442 9.88362 17.5323C9.6735 17.9733 9.16251 18.152 8.74228 17.9315C8.32205 17.711 8.15171 17.1748 8.36183 16.7338C9.1045 15.1752 11.5715 12.1202 15.6666 12.1202C19.7617 12.1202 22.2288 15.1752 22.9714 16.7338C23.1815 17.1748 23.0112 17.711 22.591 17.9315C22.1707 18.152 21.6598 17.9733 21.4496 17.5323C20.8835 16.3442 18.9007 13.9056 15.6666 13.9056Z" fill="black"/>
<path d="M12.5012 20.2791C12.67 19.9248 13.0553 19.3401 13.6211 18.8535C14.1797 18.373 14.8679 18.0258 15.6666 18.0258C16.4653 18.0258 17.1535 18.373 17.7122 18.8535C18.2779 19.3401 18.6633 19.9248 18.8321 20.2791C19.0422 20.72 19.5532 20.8988 19.9734 20.6783C20.3936 20.4578 20.564 19.9216 20.3539 19.4806C20.0864 18.9193 19.5556 18.1306 18.7908 17.4727C18.0188 16.8087 16.962 16.2403 15.6666 16.2403C14.3713 16.2403 13.3144 16.8087 12.5425 17.4727C11.7776 18.1306 11.2469 18.9193 10.9794 19.4806C10.7693 19.9216 10.9396 20.4578 11.3598 20.6783C11.7801 20.8988 12.2911 20.72 12.5012 20.2791Z" fill="black"/>
<path d="M15.6666 24C16.5702 24 17.3026 23.2314 17.3026 22.2833C17.3026 21.3351 16.5702 20.5665 15.6666 20.5665C14.7631 20.5665 14.0307 21.3351 14.0307 22.2833C14.0307 23.2314 14.7631 24 15.6666 24Z" fill="black"/>
</svg>
