<svg width="48" height="48" viewBox="0 0 48 48" fill="none" xmlns="http://www.w3.org/2000/svg">
<path fill-rule="evenodd" clip-rule="evenodd" d="M20 12.7C18.1775 12.7 16.7 14.1775 16.7 16V18C16.7 19.8225 18.1775 21.3 20 21.3H28C29.8225 21.3 31.3 19.8225 31.3 18V16C31.3 14.1775 29.8225 12.7 28 12.7H20ZM19.3 16C19.3 15.6134 19.6134 15.3 20 15.3H28C28.3866 15.3 28.7 15.6134 28.7 16V18C28.7 18.3866 28.3866 18.7 28 18.7H20C19.6134 18.7 19.3 18.3866 19.3 18V16Z" fill="black"/>
<path d="M20 26C20 27.1046 19.1046 28 18 28C16.8954 28 16 27.1046 16 26C16 24.8954 16.8954 24 18 24C19.1046 24 20 24.8954 20 26Z" fill="black"/>
<path d="M24 28C25.1046 28 26 27.1046 26 26C26 24.8954 25.1046 24 24 24C22.8954 24 22 24.8954 22 26C22 27.1046 22.8954 28 24 28Z" fill="black"/>
<path d="M32 26C32 27.1046 31.1046 28 30 28C28.8954 28 28 27.1046 28 26C28 24.8954 28.8954 24 30 24C31.1046 24 32 24.8954 32 26Z" fill="black"/>
<path d="M18 34C19.1046 34 20 33.1046 20 32C20 30.8954 19.1046 30 18 30C16.8954 30 16 30.8954 16 32C16 33.1046 16.8954 34 18 34Z" fill="black"/>
<path d="M26 32C26 33.1046 25.1046 34 24 34C22.8954 34 22 33.1046 22 32C22 30.8954 22.8954 30 24 30C25.1046 30 26 30.8954 26 32Z" fill="black"/>
<path d="M30 34C31.1046 34 32 33.1046 32 32C32 30.8954 31.1046 30 30 30C28.8954 30 28 30.8954 28 32C28 33.1046 28.8954 34 30 34Z" fill="black"/>
<path fill-rule="evenodd" clip-rule="evenodd" d="M12 12C12 9.79086 13.7909 8 16 8H32C34.2091 8 36 9.79086 36 12V36C36 38.2091 34.2091 40 32 40H16C13.7909 40 12 38.2091 12 36V12ZM16 10.6H32C32.7732 10.6 33.4 11.2268 33.4 12V36C33.4 36.7732 32.7732 37.4 32 37.4H16C15.2268 37.4 14.6 36.7732 14.6 36V12C14.6 11.2268 15.2268 10.6 16 10.6Z" fill="black"/>
</svg>
