<svg width="48" height="48" viewBox="0 0 48 48" fill="none" xmlns="http://www.w3.org/2000/svg">
<path d="M30.0126 14.7432C30.4337 13.7177 29.9217 12.5538 28.8688 12.1436C27.816 11.7334 26.6211 12.2322 26.2 13.2577L17.9874 33.2568C17.5663 34.2823 18.0784 35.4462 19.1312 35.8564C20.184 36.2666 21.3789 35.7678 21.8 34.7423L30.0126 14.7432Z" fill="black"/>
<path d="M17.2392 16.5861C18.041 17.3671 18.041 18.6334 17.2392 19.4144L12.5315 24L17.2392 28.5856C18.041 29.3666 18.041 30.6329 17.2392 31.4139C16.4374 32.1949 15.1374 32.1949 14.3356 31.4139L8.90203 26.1212C7.69932 24.9497 7.69932 23.0503 8.90203 21.8788L14.3356 16.5861C15.1374 15.8051 16.4374 15.8051 17.2392 16.5861Z" fill="black"/>
<path d="M30.7608 31.4139C29.959 30.6329 29.959 29.3666 30.7608 28.5856L35.4685 24L30.7608 19.4144C29.959 18.6334 29.959 17.3671 30.7608 16.5861C31.5626 15.8051 32.8626 15.8051 33.6644 16.5861L39.098 21.8788C40.3007 23.0503 40.3007 24.9497 39.098 26.1212L33.6644 31.4139C32.8626 32.1949 31.5626 32.1949 30.7608 31.4139Z" fill="black"/>
</svg>
