<svg width="32" height="32" viewBox="0 0 32 32" fill="none" xmlns="http://www.w3.org/2000/svg">
<path fill-rule="evenodd" clip-rule="evenodd" d="M19.6833 22.3333C19.6483 22.4386 19.6132 22.5445 19.5781 22.6506C19.5173 22.8338 19.4564 23.0176 19.3956 23.2C18.8544 24.823 18.3214 26.3333 18 26.3333H14C13.6786 26.3333 13.1456 24.823 12.6044 23.2C12.5436 23.0176 12.4827 22.8338 12.4219 22.6506C12.3868 22.5445 12.3517 22.4386 12.3167 22.3333C11.8346 20.8816 11.375 19.5387 11.0845 19.3122C9.20722 17.8482 8 15.5651 8 13C8 8.58172 11.5817 5 16 5C20.4183 5 24 8.58172 24 13C24 15.5651 22.7928 17.8482 20.9155 19.3122C20.625 19.5387 20.1654 20.8816 19.6833 22.3333ZM14.0951 21.4667C13.9517 21.4667 13.8245 21.3749 13.7787 21.2391C13.5981 20.7024 13.4162 20.1786 13.2449 19.7368C13.1309 19.4428 13.0072 19.1472 12.8778 18.8919C12.8131 18.7642 12.7333 18.6194 12.638 18.4781C12.5558 18.3563 12.3968 18.1375 12.1504 17.9453C10.6762 16.7957 9.73333 15.0084 9.73333 13C9.73333 9.53902 12.539 6.73333 16 6.73333C19.461 6.73333 22.2667 9.53902 22.2667 13C22.2667 15.0084 21.3238 16.7957 19.8496 17.9453C19.6032 18.1375 19.4442 18.3563 19.362 18.4781C19.2667 18.6194 19.1869 18.7642 19.1222 18.8919C18.9928 19.1472 18.8691 19.4428 18.7551 19.7368C18.5838 20.1786 18.4019 20.7024 18.2213 21.2391C18.1755 21.3749 18.0483 21.4667 17.9049 21.4667H14.0951ZM14.8984 23.2C14.6701 23.2 14.5097 23.4243 14.5862 23.6394C14.6782 23.8983 14.7756 24.1647 14.859 24.3865C14.9074 24.5154 15.0311 24.6 15.1688 24.6H16.8312C16.9689 24.6 17.0926 24.5154 17.141 24.3865C17.2244 24.1647 17.3218 23.8983 17.4138 23.6394C17.4903 23.4243 17.3299 23.2 17.1016 23.2H14.8984Z" fill="black"/>
</svg>
