<svg width="32" height="32" viewBox="0 0 32 32" fill="none" xmlns="http://www.w3.org/2000/svg">
<path d="M19.3977 12.6655V16.8699H17.1174L19.3948 12.6655H19.3977Z" fill="black"/>
<path fill-rule="evenodd" clip-rule="evenodd" d="M15.665 26.33C21.5551 26.33 26.33 21.5551 26.33 15.665C26.33 9.77488 21.5551 5 15.665 5C9.77488 5 5 9.77488 5 15.665C5 21.5551 9.77488 26.33 15.665 26.33ZM11.6656 13.6653C11.6656 13.4387 11.7391 13.0839 11.9399 12.805C12.1163 12.56 12.4161 12.3322 12.9987 12.3322C13.5856 12.3322 13.9125 12.5664 14.103 12.7781C14.2045 12.8909 14.2728 13.0046 14.3148 13.0885C14.3331 13.1252 14.3457 13.1548 14.3534 13.1742C14.4428 13.6569 14.4535 14.327 14.2579 14.8472C14.1612 15.1043 14.0242 15.2992 13.8457 15.4313C13.6719 15.56 13.4108 15.665 12.9987 15.665C11.6461 15.665 10.7811 16.3928 10.2882 17.2487C9.81428 18.0714 9.66594 19.0281 9.66594 19.6644C9.66594 20.0325 9.96437 20.3309 10.3325 20.3309H14.9984C15.3666 20.3309 15.665 20.0325 15.665 19.6644C15.665 19.2962 15.3666 18.9978 14.9984 18.9978H11.0631C11.1288 18.6389 11.2493 18.251 11.4433 17.9141C11.7503 17.3812 12.2184 16.9981 12.9987 16.9981C13.6532 16.9981 14.2031 16.8254 14.6389 16.5028C15.0701 16.1836 15.3413 15.7535 15.5057 15.3163C15.8261 14.4641 15.7772 13.4937 15.6521 12.868C15.648 12.8475 15.6896 13.0637 15.6836 13.0437L15.6607 12.914L15.6521 12.868L15.6715 12.9714L15.6322 12.7921L15.6246 12.7692C15.6186 12.7514 15.6105 12.7286 15.6 12.7016C15.5792 12.6476 15.5489 12.5759 15.5071 12.4924C15.4242 12.3264 15.2924 12.1068 15.094 11.8863C14.6846 11.4315 14.0116 10.9991 12.9987 10.9991C11.9816 10.9991 11.2816 11.4378 10.8581 12.026C10.459 12.5803 10.3325 13.2254 10.3325 13.6653C10.3325 14.0334 10.6309 14.3319 10.9991 14.3319C11.3672 14.3319 11.6656 14.0334 11.6656 13.6653ZM18.9978 11.3323C18.7532 11.3323 18.5282 11.4663 18.4117 11.6814L15.7455 16.6037C15.6927 16.7012 15.665 16.8103 15.665 16.9212V17.5365C15.665 17.9046 15.9634 18.2031 16.3316 18.2031H19.3977V19.9977C19.3977 20.3658 19.6962 20.6642 20.0643 20.6642C20.4324 20.6642 20.7309 20.3658 20.7309 19.9977V18.2031H21.6641C22.0322 18.2031 22.3306 17.9046 22.3306 17.5365C22.3306 17.1684 22.0322 16.8699 21.6641 16.8699H20.7309V11.9989C20.7309 11.6308 20.4324 11.3323 20.0643 11.3323H18.9978Z" fill="black"/>
</svg>
