<svg width="20" height="20" viewBox="0 0 20 20" fill="none" xmlns="http://www.w3.org/2000/svg">
<path d="M3.12574 3.7085C2.85513 3.4451 3.05016 3 3.43618 3H15.7641C16.0766 3 16.33 3.24242 16.33 3.54147C16.33 3.84051 16.0766 4.08293 15.7641 4.08293H5.61666C5.42365 4.08293 5.32614 4.30548 5.46144 4.43718L10.5324 9.37301C10.6989 9.53508 10.6989 9.79492 10.5324 9.95699L5.46144 14.8928C5.32614 15.0245 5.42365 15.2471 5.61666 15.2471H15.7641C16.0766 15.2471 16.33 15.4895 16.33 15.7885C16.33 16.0876 16.0766 16.33 15.7641 16.33H3.43618C3.05016 16.33 2.85513 15.8849 3.12574 15.6215L9.09531 9.81099C9.17856 9.72996 9.17856 9.60004 9.09531 9.51901L3.12574 3.7085Z" fill="black"/>
</svg>
