<svg width="20" height="20" viewBox="0 0 20 20" fill="none" xmlns="http://www.w3.org/2000/svg">
<path d="M7.5 5.5C7.5 4.11929 8.61929 3 10 3C11.3807 3 12.5 4.11929 12.5 5.5V9.66667C12.5 11.0474 11.3807 12.1667 10 12.1667C8.61929 12.1667 7.5 11.0474 7.5 9.66667V5.5Z" fill="black"/>
<path d="M10.5834 14.6323C11.0984 14.5715 11.6022 14.4303 12.0762 14.2127C12.7337 13.9109 13.3183 13.4694 13.7898 12.9185C14.2612 12.3676 14.6083 11.7205 14.8071 11.0217C14.9583 10.4902 15.021 9.93854 14.9938 9.38882C14.9796 9.10163 14.7108 8.90663 14.4266 8.95078C14.1432 8.99482 13.9525 9.2605 13.9591 9.54728C13.9682 9.9473 13.9173 10.3474 13.8073 10.734C13.6499 11.2875 13.375 11.8 13.0016 12.2363C12.6282 12.6726 12.1651 13.0224 11.6444 13.2614C11.1236 13.5004 10.5575 13.6231 9.98506 13.6209C9.41263 13.6187 8.84746 13.4918 8.32851 13.2488C7.80956 13.0058 7.34916 12.6526 6.97904 12.2135C6.60891 11.7743 6.33786 11.2597 6.18456 10.7051C6.07747 10.3177 6.02961 9.91717 6.04174 9.51722C6.05044 9.23051 5.86179 8.96342 5.57869 8.91722C5.29488 8.87092 5.02455 9.0639 5.00819 9.351C4.97688 9.90048 5.03544 10.4526 5.18264 10.9852C5.3762 11.6854 5.71843 12.3352 6.18575 12.8896C6.65307 13.4441 7.23436 13.8901 7.88959 14.1968C8.39885 14.4353 8.94335 14.5852 9.50002 14.6415V16.625C9.50002 16.9242 9.74253 17.1667 10.0417 17.1667C10.3408 17.1667 10.5834 16.9242 10.5834 16.625V14.6323Z" fill="black"/>
</svg>
