<svg width="20" height="20" viewBox="0 0 20 20" fill="none" xmlns="http://www.w3.org/2000/svg">
<path d="M14.9971 7.62263L9.99714 4.18576C9.79808 4.04893 9.53526 4.04893 9.33619 4.18576L4.33619 7.62263L3.72245 6.73008L8.72245 3.29321C9.29121 2.90226 10.0421 2.90226 10.6109 3.29321L15.6109 6.73008C16.0631 7.04095 16.3333 7.55451 16.3333 8.10323V13.8921C16.3333 15.2726 15.214 16.3917 13.8333 16.3917H11.75C11.2898 16.3917 10.9167 16.0186 10.9167 15.5585V13.0589C10.9167 12.5988 10.5436 12.2258 10.0833 12.2258H9.25C8.78976 12.2258 8.41667 12.5988 8.41667 13.0589V15.5585C8.41667 16.0186 8.04357 16.3917 7.58333 16.3917H5.5C4.11929 16.3917 3 15.2726 3 13.8921V8.10323C3 7.55451 3.27019 7.04095 3.72245 6.73008L4.33619 7.62263C4.1779 7.73143 4.08333 7.91118 4.08333 8.10323V13.8921C4.08333 14.6744 4.7176 15.3085 5.5 15.3085H7.33333V13.0589C7.33333 12.0006 8.19145 11.1426 9.25 11.1426H10.0833C11.1419 11.1426 12 12.0006 12 13.0589V15.3085H13.8333C14.6157 15.3085 15.25 14.6744 15.25 13.8921V8.10323C15.25 7.91118 15.1554 7.73143 14.9971 7.62263Z" fill="black"/>
</svg>
