<svg width="20" height="20" viewBox="0 0 20 20" fill="none" xmlns="http://www.w3.org/2000/svg">
<path d="M10.9158 10.6667C10.3706 9.95311 9.29607 9.95311 8.75077 10.6667L6.01492 14.2471C5.80536 14.5213 6.00088 14.9167 6.34598 14.9167H13.3207C13.6657 14.9167 13.8613 14.5213 13.6518 14.2471L10.9158 10.6667Z" fill="black"/>
<path fill-rule="evenodd" clip-rule="evenodd" d="M4.23375 4.95816C3.63363 4.12878 4.25858 3 5.31784 3H14.3488C15.4081 3 16.033 4.12878 15.4329 4.95816L12.5384 8.95852C12.2297 9.38508 12.2297 9.94828 12.5384 10.3748L15.4329 14.3752C16.033 15.2046 15.4081 16.3334 14.3488 16.3334H5.31784C4.25858 16.3334 3.63363 15.2046 4.23375 14.3752L7.1283 10.3748C7.43694 9.94828 7.43694 9.38508 7.1283 8.95852L4.23375 4.95816ZM5.31784 4.08334H14.3488C14.4722 4.08334 14.5366 4.14071 14.5654 4.19278C14.5807 4.22045 14.5839 4.2432 14.5833 4.25729C14.5829 4.2669 14.5808 4.28782 14.5553 4.3231L11.6607 8.32346C11.0778 9.129 11.0778 10.2044 11.6607 11.0099L14.5553 15.0103C14.5808 15.0455 14.5829 15.0665 14.5833 15.0761C14.5839 15.0902 14.5807 15.1129 14.5654 15.1406C14.5366 15.1926 14.4722 15.25 14.3488 15.25H5.31784C5.1945 15.25 5.13011 15.1926 5.10127 15.1406C5.08596 15.1129 5.08281 15.0902 5.08342 15.0761C5.08362 15.0702 5.08448 15.0603 5.09079 15.0455C5.09491 15.0358 5.10132 15.0242 5.11139 15.0103L8.00594 11.0099C8.58882 10.2044 8.58882 9.129 8.00594 8.32346L5.11139 4.3231C5.09608 4.30196 5.08922 4.28596 5.08606 4.27448C5.08398 4.2668 5.08357 4.26114 5.08342 4.25729C5.08281 4.2432 5.08596 4.22045 5.10127 4.19278C5.13011 4.14071 5.1945 4.08334 5.31784 4.08334Z" fill="black"/>
</svg>
