<svg width="48" height="48" viewBox="0 0 48 48" fill="none" xmlns="http://www.w3.org/2000/svg">
<path d="M40 15.4667C40 13.4191 37.2 12.6667 35.3333 12.6667C35.3333 10.8 34.6095 8 32.5333 8C28.4096 8 25.0667 11.3429 25.0667 15.4667V20.9333C25.0667 22.0379 25.9621 22.9333 27.0667 22.9333H32.5333C36.657 22.9333 40 19.5904 40 15.4667Z" fill="black"/>
<path d="M12.6667 35.3333C10.8 35.3333 8 34.5808 8 32.5333C8 28.4096 11.343 25.0667 15.4667 25.0667H20.9333C22.0379 25.0667 22.9333 25.9621 22.9333 27.0667V32.5333C22.9333 36.6571 19.5904 40 15.4667 40C13.3905 40 12.6667 37.2 12.6667 35.3333Z" fill="black"/>
<path d="M35.3333 35.3333C35.3333 37.2 34.5809 40 32.5333 40C28.4096 40 25.0667 36.6571 25.0667 32.5333V27.0667C25.0667 25.9621 25.9621 25.0667 27.0667 25.0667L32.5333 25.0667C36.657 25.0667 40 28.4096 40 32.5333C40 34.6096 37.2 35.3333 35.3333 35.3333Z" fill="black"/>
<path d="M12.6667 12.6667C12.6667 10.8 13.4191 8 15.4667 8C19.5904 8 22.9333 11.3429 22.9333 15.4667V20.9333C22.9333 22.0379 22.0379 22.9333 20.9333 22.9333L15.4667 22.9333C11.343 22.9333 8 19.5904 8 15.4667C8 13.3904 10.8 12.6667 12.6667 12.6667Z" fill="black"/>
</svg>
