<svg width="24" height="24" viewBox="0 0 24 24" fill="none" xmlns="http://www.w3.org/2000/svg">
<path d="M20 9.00022C20 8.44781 19.5524 8 19.0003 8C18.4481 8 18.0005 8.44781 18.0005 9.00022V10.0631L17.5364 8.90257C17.0866 7.77789 15.4157 8.09994 15.4157 9.31129V14.9998C15.4157 15.5522 15.8633 16 16.4154 16C16.9676 16 17.4152 15.5522 17.4152 14.9998V13.9844L17.8793 15.1449C18.3291 16.2696 20 15.9476 20 14.7362V9.00022Z" fill="black"/>
<path d="M7.27334 9.01266C7.27334 8.46026 6.82575 8.01244 6.27362 8.01244C5.72148 8.01244 5.27389 8.46026 5.27389 9.01266V13.855H4.99973C4.44759 13.855 4 14.3028 4 14.8552C4 15.4076 4.44759 15.8554 4.99973 15.8554H5.77375C6.60195 15.8554 7.27334 15.1837 7.27334 14.3551V9.01266Z" fill="black"/>
<path fill-rule="evenodd" clip-rule="evenodd" d="M12.5204 8.01244C11.8303 8.01244 11.2708 8.57221 11.2708 9.26272V14.6052C11.2708 15.2957 11.8303 15.8554 12.5204 15.8554H14.0588C14.749 15.8554 15.3084 15.2957 15.3084 14.6052V9.26272C15.3084 8.57221 14.7489 8.01244 14.0588 8.01244H12.5204Z" fill="black"/>
<path d="M7.63539 9.26272C7.63539 8.57221 8.19488 8.01244 8.88505 8.01244H10.1638C10.7159 8.01244 11.1635 8.46026 11.1635 9.01266C11.1635 9.56507 10.7159 10.0129 10.1638 10.0129H9.63484V10.9337H9.91385C10.604 10.9337 11.1635 11.4935 11.1635 12.184V14.6052C11.1635 15.2957 10.604 15.8554 9.91385 15.8554H8.38034C7.8282 15.8554 7.38061 15.4076 7.38061 14.8552C7.38061 14.3028 7.8282 13.855 8.38034 13.855H9.16405V12.9342H8.88505C8.19488 12.9342 7.63539 12.3744 7.63539 11.6839V9.26272Z" fill="black"/>
</svg>
