<svg width="16" height="16" viewBox="0 0 16 16" fill="none" xmlns="http://www.w3.org/2000/svg">
<path fill-rule="evenodd" clip-rule="evenodd" d="M4.33333 3C3.59695 3 3 3.59695 3 4.33333V12.3333C3 13.0697 3.59695 13.6667 4.33333 13.6667H12.3333C13.0697 13.6667 13.6667 13.0697 13.6667 12.3333V4.33333C13.6667 3.59695 13.0697 3 12.3333 3H4.33333ZM6.0269 6.02692C6.19613 5.8577 6.4705 5.8577 6.63973 6.02692L8.33332 7.72051L10.0269 6.02692C10.1961 5.8577 10.4705 5.8577 10.6397 6.02692C10.809 6.19615 10.809 6.47052 10.6397 6.63975L8.94614 8.33334L10.6397 10.0269C10.809 10.1962 10.809 10.4705 10.6397 10.6398C10.4705 10.809 10.1961 10.809 10.0269 10.6398L8.33332 8.94616L6.63973 10.6398C6.4705 10.809 6.19613 10.809 6.0269 10.6398C5.85768 10.4705 5.85768 10.1962 6.0269 10.0269L7.72049 8.33334L6.0269 6.63975C5.85768 6.47052 5.85768 6.19615 6.0269 6.02692Z" fill="black"/>
</svg>
