<svg width="28" height="28" viewBox="0 0 28 28" fill="none" xmlns="http://www.w3.org/2000/svg">
<path d="M22.6552 10.2221L15.6552 5.41049C14.859 4.86317 13.8077 4.86317 13.0114 5.41049L6.01143 10.2221C5.37827 10.6573 5 11.3763 5 12.1445V20.249C5 22.1816 6.567 23.7483 8.5 23.7483H11.4167C12.061 23.7483 12.5833 23.2261 12.5833 22.5819V19.0825C12.5833 18.4383 13.1057 17.9161 13.75 17.9161H14.9167C15.561 17.9161 16.0833 18.4383 16.0833 19.0825V22.5819C16.0833 23.2261 16.6057 23.7483 17.25 23.7483H20.1667C22.0997 23.7483 23.6667 22.1816 23.6667 20.249V12.1445C23.6667 11.3763 23.2884 10.6573 22.6552 10.2221Z" fill="black"/>
</svg>
