<svg width="48" height="48" viewBox="0 0 48 48" fill="none" xmlns="http://www.w3.org/2000/svg">
<path fill-rule="evenodd" clip-rule="evenodd" d="M20.3077 16.7521V14.1538C20.3077 11.824 19.2971 10.1963 17.9277 9.21026C16.6488 8.28953 15.1677 8 14.1538 8C13.14 8 11.6588 8.28953 10.38 9.21026C9.01059 10.1963 8 11.824 8 14.1538C8 16.6676 9.3714 18.2907 10.9417 19.1952C12.4237 20.0488 14.1206 20.3077 15.2479 20.3077H16.7521V27.6923H14.1538C11.824 27.6923 10.1963 28.7029 9.21026 30.0723C8.28953 31.3512 8 32.8323 8 33.8462C8 34.86 8.28953 36.3412 9.21026 37.62C10.1963 38.9894 11.824 40 14.1538 40C16.4837 40 18.1114 38.9894 19.0974 37.62C20.0182 36.3412 20.3077 34.86 20.3077 33.8462V31.2479H27.6923V33.8462C27.6923 36.176 28.7029 37.8037 30.0723 38.7897C31.3512 39.7105 32.8323 40 33.8462 40C34.86 40 36.3412 39.7105 37.62 38.7897C38.9894 37.8037 40 36.176 40 33.8462C40 31.5163 38.9894 29.8886 37.62 28.9026C36.3412 27.9818 34.86 27.6923 33.8462 27.6923H31.2479V20.3077H33.8462C36.176 20.3077 37.8037 19.2971 38.7897 17.9277C39.7105 16.6488 40 15.1677 40 14.1538C40 13.14 39.7105 11.6588 38.7897 10.38C37.8037 9.01059 36.176 8 33.8462 8C31.5163 8 29.8886 9.01059 28.9026 10.38C27.9818 11.6588 27.6923 13.14 27.6923 14.1538V16.7521H20.3077ZM12.4576 12.0957C12.0037 12.4225 11.5556 12.9828 11.5556 14.1538C11.5556 15.141 12.0075 15.7059 12.7164 16.1142C13.5137 16.5734 14.5518 16.7521 15.2479 16.7521H16.7521V14.1538C16.7521 12.9828 16.304 12.4225 15.8501 12.0957C15.3056 11.7036 14.5987 11.5556 14.1538 11.5556C13.709 11.5556 13.0021 11.7036 12.4576 12.0957ZM20.3077 20.3077V27.6923H27.6923V20.3077H20.3077ZM31.2479 16.7521H33.8462C35.0172 16.7521 35.5775 16.304 35.9043 15.8501C36.2964 15.3056 36.4444 14.5987 36.4444 14.1538C36.4444 13.709 36.2964 13.0021 35.9043 12.4576C35.5775 12.0037 35.0172 11.5556 33.8462 11.5556C32.6751 11.5556 32.1148 12.0037 31.788 12.4576C31.3959 13.0021 31.2479 13.709 31.2479 14.1538V16.7521ZM31.2479 31.2479V33.8462C31.2479 35.0172 31.696 35.5775 32.1499 35.9043C32.6944 36.2964 33.4013 36.4444 33.8462 36.4444C34.291 36.4444 34.9979 36.2964 35.5424 35.9043C35.9963 35.5775 36.4444 35.0172 36.4444 33.8462C36.4444 32.6751 35.9963 32.1148 35.5424 31.788C34.9979 31.3959 34.291 31.2479 33.8462 31.2479H31.2479ZM16.7521 31.2479H14.1538C12.9828 31.2479 12.4225 31.696 12.0957 32.1499C11.7036 32.6944 11.5556 33.4013 11.5556 33.8462C11.5556 34.291 11.7036 34.9979 12.0957 35.5424C12.4225 35.9963 12.9828 36.4444 14.1538 36.4444C15.3249 36.4444 15.8852 35.9963 16.212 35.5424C16.6041 34.9979 16.7521 34.291 16.7521 33.8462V31.2479Z" fill="black"/>
</svg>
