<svg width="24" height="24" viewBox="0 0 24 24" fill="none" xmlns="http://www.w3.org/2000/svg">
<path fill-rule="evenodd" clip-rule="evenodd" d="M20.0019 14.1382C20.0019 13.5859 19.5542 13.1382 19.0019 13.1382H5C4.44772 13.1382 4 13.5859 4 14.1382V16.3534C4 17.2647 4.73873 18.0034 5.65 18.0034H18.3519C19.2632 18.0034 20.0019 17.2647 20.0019 16.3534V14.1382ZM16.9016 15.6506C17.3076 15.6506 17.6367 15.3239 17.6367 14.9208C17.6367 14.5178 17.3076 14.191 16.9016 14.191C16.4956 14.191 16.1665 14.5178 16.1665 14.9208C16.1665 15.3239 16.4956 15.6506 16.9016 15.6506Z" fill="black"/>
<path d="M4.43213 11.4758C4.34839 11.642 4.46925 11.8382 4.65541 11.8382H19.3465C19.5327 11.8382 19.6535 11.642 19.5698 11.4758L17.2692 6.90781C16.9888 6.35117 16.4188 6 15.7955 6H8.20641C7.58317 6 7.01311 6.35117 6.73276 6.90781L4.43213 11.4758Z" fill="black"/>
</svg>
