<svg width="16" height="16" viewBox="0 0 16 16" fill="none" xmlns="http://www.w3.org/2000/svg">
<path d="M10.2044 7.03314C10.2933 7.12123 10.2897 7.26065 10.1964 7.34455L7.74755 9.5472C7.65588 9.62966 7.5113 9.62799 7.42179 9.54345L6.37229 8.55226C6.28121 8.46624 6.28121 8.32677 6.37229 8.24075C6.46337 8.15473 6.61104 8.15473 6.70212 8.24075L7.55044 9.04195C7.57282 9.06308 7.60896 9.0635 7.63188 9.04289L9.8747 7.02554C9.96797 6.94165 10.1156 6.94505 10.2044 7.03314Z" fill="black"/>
<path fill-rule="evenodd" clip-rule="evenodd" d="M7.86608 3.19354C8.12414 2.93549 8.54253 2.93549 8.80059 3.19354L9.97559 4.36855H11.6373C12.0023 4.36855 12.2981 4.6644 12.2981 5.02935V6.69107L13.4731 7.86608C13.7312 8.12414 13.7312 8.54253 13.4731 8.80059L12.2981 9.9756V11.6373C12.2981 12.0023 12.0023 12.2981 11.6373 12.2981H9.9756L8.80059 13.4731C8.54253 13.7312 8.12414 13.7312 7.86608 13.4731L6.69106 12.2981H5.02935C4.6644 12.2981 4.36855 12.0023 4.36855 11.6373V9.9756L3.19354 8.80059C2.93549 8.54253 2.93549 8.12414 3.19354 7.86608L4.36855 6.69107V5.02935C4.36855 4.6644 4.6644 4.36855 5.02935 4.36855H6.69107L7.86608 3.19354ZM7.14367 5.13081C7.08171 5.19278 6.99767 5.22759 6.91004 5.22759H5.55799C5.37551 5.22759 5.22759 5.37551 5.22759 5.55798V6.91004C5.22759 6.99766 5.19278 7.0817 5.13082 7.14366L4.17478 8.09971C4.04575 8.22874 4.04575 8.43793 4.17478 8.56696L5.22759 9.61977V11.1087C5.22759 11.2911 5.37551 11.4391 5.55799 11.4391H6.91003C6.99766 11.4391 7.0817 11.4739 7.14366 11.5358L8.09971 12.4919C8.22874 12.6209 8.43793 12.6209 8.56696 12.4919L9.52301 11.5358C9.58497 11.4739 9.66901 11.4391 9.75663 11.4391H11.1087C11.2912 11.4391 11.4391 11.2911 11.4391 11.1087V9.75663C11.4391 9.669 11.4739 9.58496 11.5358 9.523L12.4919 8.56696C12.6209 8.43793 12.6209 8.22874 12.4919 8.09971L11.5358 7.14366C11.4739 7.0817 11.4391 6.99766 11.4391 6.91004V5.55798C11.4391 5.37551 11.2912 5.22759 11.1087 5.22759H9.75663C9.669 5.22759 9.58496 5.19278 9.523 5.13081L8.56696 4.17478C8.43793 4.04575 8.22874 4.04575 8.09971 4.17478L7.14367 5.13081Z" fill="black"/>
</svg>
