<svg width="16" height="16" viewBox="0 0 16 16" fill="none" xmlns="http://www.w3.org/2000/svg">
<path d="M2.73973 2.12692C2.5705 1.95769 2.29614 1.95769 2.12692 2.12692C1.95769 2.29614 1.95769 2.5705 2.12692 2.73973L13.2603 13.8731C13.4295 14.0423 13.7039 14.0423 13.8731 13.8731C14.0423 13.7039 14.0423 13.4295 13.8731 13.2603L2.73973 2.12692Z" fill="black"/>
<path d="M3.33325 5.33325H3.99995L5.33284 6.66614H3.33325C2.96509 6.66614 2.66665 6.36776 2.66665 5.99969C2.66665 5.63163 2.96509 5.33325 3.33325 5.33325Z" fill="black"/>
<path d="M6.66655 5.33325L7.99944 6.66614H12.6664C13.0346 6.66614 13.333 6.36776 13.333 5.99969C13.333 5.63163 13.0346 5.33325 12.6664 5.33325H6.66655Z" fill="black"/>
<path d="M3.33325 9.33355H8.00026L9.33315 10.6664H3.33325C2.96509 10.6664 2.66665 10.3681 2.66665 10C2.66665 9.63193 2.96509 9.33355 3.33325 9.33355Z" fill="black"/>
<path d="M10.6669 9.33355L11.9997 10.6664H12.6664C13.0346 10.6664 13.333 10.3681 13.333 10C13.333 9.63193 13.0346 9.33355 12.6664 9.33355H10.6669Z" fill="black"/>
</svg>
