<svg width="28" height="28" viewBox="0 0 28 28" fill="none" xmlns="http://www.w3.org/2000/svg">
<path d="M21.3333 7.51667H7.33333C6.8823 7.51667 6.51667 7.8823 6.51667 8.33333V17.6667C6.51667 18.1177 6.8823 18.4833 7.33333 18.4833V20C6.04467 20 5 18.9553 5 17.6667V8.33333C5 7.04467 6.04467 6 7.33333 6H21.3333C22.622 6 23.6667 7.04467 23.6667 8.33333V9.5H22.15V8.33333C22.15 7.8823 21.7844 7.51667 21.3333 7.51667Z" fill="black"/>
<path d="M8.5 21.1667V20.337C8.5 19.9182 8.83952 19.5787 9.25833 19.5787C9.67715 19.5787 10.0167 19.9182 10.0167 20.337V21.1667C10.0167 21.6177 10.3823 21.9833 10.8333 21.9833H12.5704C12.9892 21.9833 13.3287 22.3229 13.3287 22.7417C13.3287 23.1605 12.9892 23.5 12.5704 23.5H10.8333C9.54467 23.5 8.5 22.4553 8.5 21.1667Z" fill="black"/>
<path d="M9.25833 18.6713C8.83952 18.6713 8.5 18.3318 8.5 17.913V16.2537C8.5 15.8349 8.83952 15.4954 9.25833 15.4954C9.67715 15.4954 10.0167 15.8349 10.0167 16.2537V17.913C10.0167 18.3318 9.67715 18.6713 9.25833 18.6713Z" fill="black"/>
<path d="M9.25833 14.588C8.83952 14.588 8.5 14.2484 8.5 13.8296V13C8.5 11.7113 9.54467 10.6667 10.8333 10.6667H12.5704C12.9892 10.6667 13.3287 11.0062 13.3287 11.425C13.3287 11.8438 12.9892 12.1833 12.5704 12.1833H10.8333C10.3823 12.1833 10.0167 12.549 10.0167 13V13.8296C10.0167 14.2484 9.67715 14.588 9.25833 14.588Z" fill="black"/>
<path d="M14.7546 11.425C14.7546 11.0062 15.0941 10.6667 15.513 10.6667H18.987C19.4059 10.6667 19.7454 11.0062 19.7454 11.425C19.7454 11.8438 19.4059 12.1833 18.987 12.1833H15.513C15.0941 12.1833 14.7546 11.8438 14.7546 11.425Z" fill="black"/>
<path d="M21.1713 11.425C21.1713 11.0062 21.5108 10.6667 21.9296 10.6667H23.6667C24.9553 10.6667 26 11.7113 26 13V13.8296C26 14.2484 25.6605 14.588 25.2417 14.588C24.8229 14.588 24.4833 14.2484 24.4833 13.8296V13C24.4833 12.549 24.1177 12.1833 23.6667 12.1833H21.9296C21.5108 12.1833 21.1713 11.8438 21.1713 11.425Z" fill="black"/>
<path d="M25.2417 15.4954C25.6605 15.4954 26 15.8349 26 16.2537V17.913C26 18.3318 25.6605 18.6713 25.2417 18.6713C24.8229 18.6713 24.4833 18.3318 24.4833 17.913V16.2537C24.4833 15.8349 24.8229 15.4954 25.2417 15.4954Z" fill="black"/>
<path d="M25.2417 19.5787C25.6605 19.5787 26 19.9182 26 20.337V21.1667C26 22.4553 24.9553 23.5 23.6667 23.5H21.9296C21.5108 23.5 21.1713 23.1605 21.1713 22.7417C21.1713 22.3229 21.5108 21.9833 21.9296 21.9833H23.6667C24.1177 21.9833 24.4833 21.6177 24.4833 21.1667V20.337C24.4833 19.9182 24.8229 19.5787 25.2417 19.5787Z" fill="black"/>
<path d="M19.7454 22.7417C19.7454 23.1605 19.4059 23.5 18.987 23.5H15.513C15.0941 23.5 14.7546 23.1605 14.7546 22.7417C14.7546 22.3229 15.0941 21.9833 15.513 21.9833H18.987C19.4059 21.9833 19.7454 22.3229 19.7454 22.7417Z" fill="black"/>
</svg>
