<svg width="48" height="48" viewBox="0 0 48 48" fill="none" xmlns="http://www.w3.org/2000/svg">
<path fill-rule="evenodd" clip-rule="evenodd" d="M19.8588 22.7C19.2649 20.0113 16.8673 18 14 18C10.6863 18 8 20.6863 8 24C8 27.3137 10.6863 30 14 30C16.8673 30 19.2649 27.9887 19.8588 25.3H22.2C22.4761 25.3 22.7 25.5239 22.7 25.8V32C22.7 33.8225 24.1775 35.3 26 35.3H28.1412C28.7351 37.9887 31.1327 40 34 40C37.3137 40 40 37.3137 40 34C40 30.6863 37.3137 28 34 28C31.1327 28 28.7351 30.0113 28.1412 32.7H26C25.6134 32.7 25.3 32.3866 25.3 32V16C25.3 15.6134 25.6134 15.3 26 15.3H28.1412C28.7351 17.9887 31.1327 20 34 20C37.3137 20 40 17.3137 40 14C40 10.6863 37.3137 8 34 8C31.1327 8 28.7351 10.0113 28.1412 12.7H26C24.1775 12.7 22.7 14.1775 22.7 16V22.2C22.7 22.4761 22.4761 22.7 22.2 22.7H19.8588Z" fill="black"/>
</svg>
