<svg width="32" height="32" viewBox="0 0 32 32" fill="none" xmlns="http://www.w3.org/2000/svg">
<path fill-rule="evenodd" clip-rule="evenodd" d="M18.3083 22.5671C18.3083 23.6685 17.1937 24.3569 16.302 23.8062L5.66877 17.2391C4.77709 16.6884 4.77709 15.3116 5.66876 14.7609L16.302 8.19382C17.1937 7.64312 18.3083 8.3315 18.3083 9.4329L18.3083 11.6632C18.3083 11.7734 18.4197 11.8422 18.5089 11.7871L24.3271 8.19382C25.2187 7.64312 26.3333 8.33149 26.3333 9.43289L26.3333 22.5671C26.3333 23.6685 25.2187 24.3569 24.3271 23.8062L18.5089 20.2129C18.4197 20.1578 18.3083 20.2266 18.3083 20.3368L18.3083 22.5671ZM18.3083 17.5282C18.3083 17.7838 18.4357 18.0199 18.6426 18.1477L23.5914 21.2041C24.0373 21.4795 24.5946 21.1353 24.5946 20.5846L24.5946 11.4154C24.5946 10.8647 24.0373 10.5205 23.5914 10.7959L18.6426 13.8523C18.4357 13.9801 18.3083 14.2162 18.3083 14.4718L18.3083 17.5282ZM15.5664 21.2041C16.0122 21.4795 16.5695 21.1353 16.5695 20.5846L16.5695 11.4154C16.5695 10.8647 16.0122 10.5205 15.5664 10.7959L8.14316 15.3805C7.69733 15.6558 7.69733 16.3442 8.14316 16.6195L15.5664 21.2041Z" fill="black"/>
</svg>
