<svg width="16" height="16" viewBox="0 0 16 16" fill="none" xmlns="http://www.w3.org/2000/svg">
<path d="M8.33333 11.6667C10.1743 11.6667 11.6667 10.1743 11.6667 8.33333C11.6667 6.49238 10.1743 5 8.33333 5C6.49238 5 5 6.49238 5 8.33333C5 10.1743 6.49238 11.6667 8.33333 11.6667Z" fill="black"/>
<path fill-rule="evenodd" clip-rule="evenodd" d="M13.6667 8.33333C13.6667 11.2789 11.2789 13.6667 8.33333 13.6667C5.38781 13.6667 3 11.2789 3 8.33333C3 5.38781 5.38781 3 8.33333 3C11.2789 3 13.6667 5.38781 13.6667 8.33333ZM12.8 8.33333C12.8 10.8002 10.8002 12.8 8.33333 12.8C5.86646 12.8 3.86667 10.8002 3.86667 8.33333C3.86667 5.86646 5.86646 3.86667 8.33333 3.86667C10.8002 3.86667 12.8 5.86646 12.8 8.33333Z" fill="black"/>
</svg>
