<svg width="32" height="32" viewBox="0 0 32 32" fill="none" xmlns="http://www.w3.org/2000/svg">
<path fill-rule="evenodd" clip-rule="evenodd" d="M11.1426 14.4224C10.5895 13.479 9.97291 12.7488 9.33333 13.7052C8.81468 14.7621 8 17.1019 8 18.3577C8 22.7625 11.5817 26.3333 16 26.3333C20.4183 26.3333 24 22.7625 24 18.3577C24 16.1534 22.8033 14.4073 21.6466 12.7197L21.6214 12.683C20 10.3171 19.3333 8.38813 18.6667 5.06495C17.7502 4.70038 14.3445 5.87901 12.6667 8.38814C11.6998 9.83395 12.2032 11.6925 12.636 13.2904C12.6798 13.4522 12.7229 13.6113 12.7636 13.767C12.8564 14.1213 12.9371 14.4581 12.987 14.7693C13.0968 15.4546 13.0571 16.0154 12.6667 16.3638C12.3547 16.6422 11.9653 15.9232 11.5234 15.1071C11.5182 15.0976 11.5131 15.0881 11.508 15.0786C11.3897 14.8603 11.2678 14.6359 11.1426 14.4224Z" fill="black"/>
</svg>
