<svg width="32" height="32" viewBox="0 0 32 32" fill="none" xmlns="http://www.w3.org/2000/svg">
<path d="M14.6494 7.43234C14.1518 6.88946 13.3083 6.85289 12.7656 7.35067C12.2228 7.84844 12.1863 8.69206 12.6839 9.23495L17.9685 14.9997H6.33333C5.59695 14.9997 5 15.5968 5 16.3333C5 17.0699 5.59695 17.667 6.33333 17.667H17.9685L12.6839 23.4317C12.1863 23.9746 12.2228 24.8182 12.7656 25.316C13.3083 25.8138 14.1518 25.7772 14.6494 25.2343L21.9828 17.2346C22.4502 16.7247 22.4502 15.9419 21.9828 15.432L14.6494 7.43234Z" fill="black"/>
<path d="M26.3333 8.33364C26.3333 7.5971 25.7364 7.00001 25 7.00001C24.2636 7.00001 23.6667 7.5971 23.6667 8.33364V24.333C23.6667 25.0696 24.2636 25.6667 25 25.6667C25.7364 25.6667 26.3333 25.0696 26.3333 24.333V8.33364Z" fill="black"/>
</svg>
