<svg width="20" height="20" viewBox="0 0 20 20" fill="none" xmlns="http://www.w3.org/2000/svg">
<path fill-rule="evenodd" clip-rule="evenodd" d="M10.281 3.04033C10.5646 2.93714 10.8786 3.0364 11.0627 3.28737L13.5188 6.63649C13.7488 6.95008 13.706 7.39995 13.4216 7.65849L11.2105 9.66847V9.72811L13.4216 11.7381C13.7079 11.9984 13.7491 12.4521 13.5148 12.7655L11.0587 16.0514C10.8732 16.2995 10.5599 16.396 10.278 16.2919C9.99597 16.1877 9.80702 15.9057 9.80702 15.589V11.4951L8.19797 13.2015C7.92392 13.4922 7.4796 13.4922 7.20555 13.2015C6.9315 12.9109 6.9315 12.4397 7.20555 12.149L9.66929 9.53607L7.23965 7.2814C6.94798 7.01073 6.91842 6.54054 7.17364 6.2312C7.42885 5.92186 7.87219 5.89052 8.16387 6.16119L9.80702 7.68601V3.74429C9.80702 3.42635 9.99746 3.14351 10.281 3.04033ZM11.2105 11.6886V13.4522L11.9954 12.4021L11.2105 11.6886ZM11.2105 7.708L12.0002 6.99018L11.2105 5.91344V7.708Z" fill="black"/>
</svg>
