<svg width="28" height="28" viewBox="0 0 28 28" fill="none" xmlns="http://www.w3.org/2000/svg">
<path fill-rule="evenodd" clip-rule="evenodd" d="M14.3883 6.3956C14.5146 5.76383 14.1049 5.14924 13.4731 5.02288C12.8414 4.89652 12.2268 5.30625 12.1004 5.93802L11.1991 10.4446H6.16659C5.5223 10.4446 5 10.9669 5 11.6112C5 12.2555 5.5223 12.7778 6.16659 12.7778H10.7324L10.1102 15.8891H6.16659C5.5223 15.8891 5 16.4114 5 17.0557C5 17.7 5.5223 18.2223 6.16659 18.2223H9.64354L8.83372 22.2713C8.70736 22.9031 9.11708 23.5177 9.74886 23.644C10.3806 23.7704 10.9952 23.3607 11.1216 22.7289L12.0229 18.2223H15.0881L14.2782 22.2713C14.1519 22.9031 14.5616 23.5177 15.1934 23.644C15.8252 23.7704 16.4397 23.3607 16.5661 22.7289L17.4674 18.2223H22.5001C23.1444 18.2223 23.6667 17.7 23.6667 17.0557C23.6667 16.4114 23.1444 15.8891 22.5001 15.8891H17.9341L18.5563 12.7778H22.5001C23.1444 12.7778 23.6667 12.2555 23.6667 11.6112C23.6667 10.9669 23.1444 10.4446 22.5001 10.4446H19.023L19.8328 6.3956C19.9592 5.76383 19.5494 5.14924 18.9177 5.02288C18.2859 4.89652 17.6713 5.30625 17.5449 5.93802L16.6436 10.4446H13.5785L14.3883 6.3956ZM15.5547 15.8891L16.177 12.7778H13.1118L12.4896 15.8891H15.5547Z" fill="black"/>
</svg>
