<svg width="48" height="48" viewBox="0 0 48 48" fill="none" xmlns="http://www.w3.org/2000/svg">
<path fill-rule="evenodd" clip-rule="evenodd" d="M18.6837 11.7039C18.3946 12.4319 18.2457 13.2121 18.2457 14L17.8285 14C15.88 14 14.241 15.5231 14.0176 17.5415L12.0258 35.5415C11.763 37.9165 13.5438 40 15.8367 40H32.1633C34.4562 40 36.237 37.9165 35.9742 35.5415L33.9824 17.5415C33.759 15.5231 32.12 14 30.1715 14L29.7543 14C29.7543 13.2121 29.6054 12.4319 29.3163 11.7039C29.2755 11.6012 29.232 11.4999 29.186 11.4C28.9053 10.7915 28.5279 10.2359 28.0689 9.75736C27.5346 9.20021 26.9002 8.75825 26.2021 8.45672C25.5039 8.15519 24.7557 8 24 8C23.2443 8 22.4961 8.15519 21.7979 8.45672C21.0998 8.75825 20.4654 9.20021 19.9311 9.75736C19.4721 10.2359 19.0947 10.7915 18.8141 11.4C18.768 11.4999 18.7245 11.6012 18.6837 11.7039ZM20.8102 12.6223C20.6367 13.0591 20.5474 13.5272 20.5474 14L27.4526 14C27.4526 13.5272 27.3633 13.0591 27.1898 12.6223C27.0162 12.1856 26.7619 11.7887 26.4413 11.4544C26.1207 11.1201 25.7401 10.855 25.3212 10.674C24.9024 10.4931 24.4534 10.4 24 10.4C23.5466 10.4 23.0976 10.4931 22.6788 10.674C22.2599 10.855 21.8793 11.1201 21.5587 11.4544C21.2381 11.7887 20.9838 12.1856 20.8102 12.6223ZM17.8285 16.6H30.1715C30.8535 16.6 31.4271 17.1331 31.5053 17.8395L33.4971 35.8395C33.5891 36.6708 32.9658 37.4 32.1633 37.4H15.8367C15.0342 37.4 14.4109 36.6708 14.5029 35.8395L16.4947 17.8395C16.5729 17.1331 17.1465 16.6 17.8285 16.6Z" fill="black"/>
</svg>
