<svg width="28" height="28" viewBox="0 0 28 28" fill="none" xmlns="http://www.w3.org/2000/svg">
<path fill-rule="evenodd" clip-rule="evenodd" d="M6.20942 5.00001C5.54147 5.00002 5 5.54149 5 6.20944L5.00001 12.7137C5.00002 13.0345 5.12744 13.3421 5.35424 13.5689L15.0977 23.3124C15.5701 23.7847 16.3358 23.7847 16.8081 23.3124L23.3124 16.8081C23.7847 16.3358 23.7847 15.57 23.3124 15.0977L13.5689 5.35423C13.3421 5.12742 13.0345 5 12.7137 5L6.20942 5.00001ZM10.4424 12.2565C11.4443 12.2565 12.2565 11.4443 12.2565 10.4424C12.2565 9.44047 11.4443 8.62826 10.4424 8.62826C9.44047 8.62826 8.62825 9.44047 8.62825 10.4424C8.62825 11.4443 9.44047 12.2565 10.4424 12.2565Z" fill="black"/>
</svg>
