<svg width="32" height="32" viewBox="0 0 32 32" fill="none" xmlns="http://www.w3.org/2000/svg">
<path d="M6.54302 14.9051C7.56994 13.3965 10.8377 9.78541 15.6666 9.78541C17.4893 9.78541 19.1195 10.2972 20.4921 11.0224L21.5628 9.59435C19.9349 8.67984 17.9388 8 15.6666 8C10.0253 8 6.31291 12.1715 5.15852 13.8674C4.88544 14.2686 4.97399 14.8261 5.35631 15.1127C5.73863 15.3993 6.26994 15.3063 6.54302 14.9051Z" fill="black"/>
<path d="M15.6666 12.1202C16.9713 12.1202 18.1108 12.4303 19.0819 12.9033L17.9907 14.3586C17.3077 14.0802 16.5319 13.9056 15.6666 13.9056C12.4326 13.9056 10.4497 16.3442 9.88362 17.5323C9.6735 17.9733 9.16251 18.152 8.74228 17.9315C8.32205 17.711 8.15171 17.1748 8.36183 16.7338C9.1045 15.1752 11.5715 12.1202 15.6666 12.1202Z" fill="black"/>
<path d="M21.6371 14.8227L20.9045 16.649C21.1481 16.976 21.3303 17.2819 21.4496 17.5323C21.6598 17.9733 22.1707 18.152 22.591 17.9315C23.0112 17.711 23.1815 17.1748 22.9714 16.7338C22.7212 16.2086 22.2752 15.5136 21.6371 14.8227Z" fill="black"/>
<path d="M15.6666 16.2403C15.9628 16.2403 16.2465 16.2701 16.5172 16.3238L15.2128 18.0637C14.6048 18.166 14.071 18.4665 13.6211 18.8535C13.0553 19.3401 12.67 19.9248 12.5012 20.2791C12.2911 20.72 11.7801 20.8988 11.3598 20.6783C10.9396 20.4578 10.7693 19.9216 10.9794 19.4806C11.2469 18.9193 11.7776 18.1306 12.5425 17.4727C13.3144 16.8087 14.3713 16.2403 15.6666 16.2403Z" fill="black"/>
<path d="M20.0116 18.875L19.2761 20.7083C19.494 20.8 19.7469 20.7971 19.9734 20.6783C20.3936 20.4578 20.564 19.9216 20.3539 19.4806C20.2671 19.2986 20.1527 19.0926 20.0116 18.875Z" fill="black"/>
<path d="M23.2779 10.7325L22.5961 12.432C23.717 13.3602 24.4546 14.298 24.7439 14.8292C24.977 15.2572 25.4966 15.406 25.9046 15.1613C26.3125 14.9167 26.4542 14.3714 26.2211 13.9434C25.7658 13.1072 24.7378 11.8622 23.2779 10.7325Z" fill="black"/>
<path fill-rule="evenodd" clip-rule="evenodd" d="M21.92 12.4533L17.7059 22.696C17.2814 23.7542 16.066 24.2733 14.9911 23.8554C14.9068 23.8225 14.8247 23.7844 14.7453 23.7411C13.7343 23.1893 13.3691 21.9352 13.9295 20.9398L13.9991 20.8251L14.0761 20.715L20.4 12.2806C20.4314 12.2387 20.4996 12.1363 20.5948 11.9936C20.6432 11.9211 20.6986 11.838 20.7596 11.7472C21.0665 11.2904 21.5165 10.6364 21.9435 10.1211C22.3775 9.59761 22.7877 9.21745 23 9.33332C23.2078 9.44675 23.0556 9.99988 22.7878 10.6405C22.5262 11.2664 21.92 12.4533 21.92 12.4533Z" fill="black"/>
</svg>
