<svg width="32" height="32" viewBox="0 0 32 32" fill="none" xmlns="http://www.w3.org/2000/svg">
<path fill-rule="evenodd" clip-rule="evenodd" d="M13.3333 15.6667C13.3333 16.403 12.7364 17 12 17C11.2636 17 10.6667 16.403 10.6667 15.6667C10.6667 14.9303 11.2636 14.3333 12 14.3333C12.7364 14.3333 13.3333 14.9303 13.3333 15.6667Z" fill="black"/>
<path fill-rule="evenodd" clip-rule="evenodd" d="M8 7.66667C8 6.19391 9.19391 5 10.6667 5H21.3333C22.8061 5 24 6.19391 24 7.66667V23.6667C24 25.1394 22.8061 26.3333 21.3333 26.3333H10.6667C9.19391 26.3333 8 25.1394 8 23.6667V7.66667ZM10.6667 6.73333H21.3333C21.8488 6.73333 22.2667 7.1512 22.2667 7.66667V23.6667C22.2667 24.1821 21.8488 24.6 21.3333 24.6H10.6667C10.1512 24.6 9.73333 24.1821 9.73333 23.6667V7.66667C9.73333 7.1512 10.1512 6.73333 10.6667 6.73333Z" fill="black"/>
</svg>
