<svg width="48" height="48" viewBox="0 0 48 48" fill="none" xmlns="http://www.w3.org/2000/svg">
<path d="M22.4741 10.6485C21.7276 9.83419 20.4625 9.77934 19.6484 10.526C18.8342 11.2727 18.7794 12.5381 19.5259 13.3524L27.4527 21.9995H10C8.89543 21.9995 8 22.8952 8 24C8 25.1048 8.89543 26.0005 10 26.0005H27.4527L19.5259 34.6476C18.7794 35.4619 18.8342 36.7273 19.6484 37.474C20.4625 38.2207 21.7276 38.1658 22.4741 37.3515L33.4741 25.352C34.1753 24.5871 34.1753 23.4129 33.4741 22.6481L22.4741 10.6485Z" fill="black"/>
<path d="M40 12.0005C40 10.8956 39.1046 10 38 10C36.8954 10 36 10.8956 36 12.0005V35.9995C36 37.1044 36.8954 38 38 38C39.1046 38 40 37.1044 40 35.9995V12.0005Z" fill="black"/>
</svg>
