<svg width="48" height="48" viewBox="0 0 48 48" fill="none" xmlns="http://www.w3.org/2000/svg">
<path d="M18 24C19.0026 24 19.833 23.2622 19.9777 22.2999C20.3801 22.3065 20.78 22.1266 21.04 21.78C21.4708 21.2056 21.3544 20.3908 20.78 19.96L16.78 16.96C16.2056 16.5292 15.3908 16.6456 14.96 17.22C14.5292 17.7944 14.6456 18.6092 15.22 19.04L16.921 20.3157C16.367 20.6714 16 21.2928 16 22C16 23.1046 16.8954 24 18 24Z" fill="black"/>
<path d="M32 22C32 23.1046 31.1046 24 30 24C28.9974 24 28.167 23.2622 28.0223 22.2999C27.6199 22.3065 27.22 22.1266 26.96 21.78C26.5292 21.2056 26.6456 20.3908 27.22 19.96L31.22 16.96C31.7944 16.5292 32.6092 16.6456 33.04 17.22C33.4708 17.7944 33.3544 18.6092 32.78 19.04L31.079 20.3157C31.633 20.6714 32 21.2928 32 22Z" fill="black"/>
<path d="M29.7388 32.3153C29.9129 33.0118 30.6188 33.4353 31.3153 33.2612C32.0118 33.0871 32.4353 32.3812 32.2612 31.6847C31.7736 29.7343 29.356 26.7 24 26.7C18.644 26.7 16.2264 29.7343 15.7388 31.6847C15.5647 32.3812 15.9882 33.0871 16.6847 33.2612C17.3812 33.4353 18.0871 33.0118 18.2612 32.3153C18.4402 31.5991 19.756 29.3 24 29.3C28.244 29.3 29.5598 31.5991 29.7388 32.3153Z" fill="black"/>
<path fill-rule="evenodd" clip-rule="evenodd" d="M40 24C40 32.8366 32.8366 40 24 40C15.1634 40 8 32.8366 8 24C8 15.1634 15.1634 8 24 8C32.8366 8 40 15.1634 40 24ZM37.4 24C37.4 31.4006 31.4006 37.4 24 37.4C16.5994 37.4 10.6 31.4006 10.6 24C10.6 16.5994 16.5994 10.6 24 10.6C31.4006 10.6 37.4 16.5994 37.4 24Z" fill="black"/>
</svg>
