<svg width="24" height="24" viewBox="0 0 24 24" fill="none" xmlns="http://www.w3.org/2000/svg">
<path d="M11.5 8.5C11.5 8.22386 11.7239 8 12 8C12.2761 8 12.5 8.22386 12.5 8.5V11.5H15.5C15.7761 11.5 16 11.7239 16 12C16 12.2761 15.7761 12.5 15.5 12.5H12.5V15.5C12.5 15.7761 12.2761 16 12 16C11.7239 16 11.5 15.7761 11.5 15.5V12.5H8.5C8.22386 12.5 8 12.2761 8 12C8 11.7239 8.22386 11.5 8.5 11.5H11.5L11.5 8.5Z" fill="black"/>
<path fill-rule="evenodd" clip-rule="evenodd" d="M20 12C20 16.4183 16.4183 20 12 20C7.58172 20 4 16.4183 4 12C4 7.58172 7.58172 4 12 4C16.4183 4 20 7.58172 20 12ZM18.7 12C18.7 15.7003 15.7003 18.7 12 18.7C8.29969 18.7 5.3 15.7003 5.3 12C5.3 8.29969 8.29969 5.3 12 5.3C15.7003 5.3 18.7 8.29969 18.7 12Z" fill="black"/>
</svg>
