<svg width="32" height="32" viewBox="0 0 32 32" fill="none" xmlns="http://www.w3.org/2000/svg">
<path fill-rule="evenodd" clip-rule="evenodd" d="M15.8229 5C16.3017 5 16.6898 5.38814 16.6898 5.86693L16.6898 7.2669L22.3325 7.2669C23.8057 7.2669 25 8.46117 25 9.93438L25 12.2992C25 13.7724 23.8057 14.9667 22.3325 14.9667L16.6898 14.9667L16.6898 16.3666L20.2242 16.3666C21.6974 16.3666 22.8917 17.5609 22.8917 19.0341L22.8917 21.399C22.8917 22.8722 21.6974 24.0664 20.2242 24.0664L16.6898 24.0664L16.6898 25.4664C16.6898 25.9452 16.3017 26.3333 15.8229 26.3333C15.3441 26.3333 14.956 25.9452 14.956 25.4664L14.956 24.0664L11.4215 24.0664C9.94831 24.0664 8.75404 22.8722 8.75404 21.399L8.75404 19.0341C8.75404 17.5609 9.94831 16.3666 11.4215 16.3666L14.956 16.3666L14.956 14.9667L9.31421 14.9667C7.841 14.9667 6.64673 13.7724 6.64673 12.2992L6.64673 9.93437C6.64673 8.46117 7.841 7.2669 9.31421 7.2669L14.956 7.2669L14.956 5.86693C14.956 5.38814 15.3441 5 15.8229 5ZM11.4215 18.1005C10.9059 18.1005 10.4879 18.5185 10.4879 19.0341L10.4879 21.399C10.4879 21.9146 10.9059 22.3326 11.4215 22.3326L20.2242 22.3326C20.7398 22.3326 21.1578 21.9146 21.1578 21.399L21.1578 19.0341C21.1578 18.5185 20.7398 18.1005 20.2242 18.1005L11.4215 18.1005ZM9.31421 9.00076L22.3325 9.00076C22.8481 9.00076 23.2661 9.41876 23.2661 9.93438L23.2661 12.2992C23.2661 12.8148 22.8481 13.2328 22.3325 13.2328L9.31421 13.2328C8.79859 13.2328 8.38059 12.8148 8.38059 12.2992L8.38059 9.93437C8.38059 9.41875 8.79858 9.00076 9.31421 9.00076Z" fill="black"/>
</svg>
