<svg width="48" height="48" viewBox="0 0 48 48" fill="none" xmlns="http://www.w3.org/2000/svg">
<path fill-rule="evenodd" clip-rule="evenodd" d="M23.7642 8C24.4824 8 25.0646 8.58221 25.0646 9.30039L25.0646 11.4004L33.5287 11.4004C35.7385 11.4004 37.5299 13.1918 37.5299 15.4016L37.5299 18.9488C37.5299 21.1586 35.7385 22.95 33.5287 22.95L25.0646 22.95L25.0646 25.05L30.3662 25.05C32.576 25.05 34.3674 26.8414 34.3674 29.0512L34.3674 32.5984C34.3674 34.8083 32.576 36.5997 30.3662 36.5997L25.0646 36.5997L25.0646 38.6996C25.0646 39.4178 24.4824 40 23.7642 40C23.0461 40 22.4639 39.4178 22.4639 38.6996L22.4639 36.5997L17.1622 36.5997C14.9524 36.5997 13.161 34.8083 13.161 32.5984L13.161 29.0512C13.161 26.8414 14.9524 25.05 17.1622 25.05L22.4639 25.05L22.4639 22.95L14.0012 22.95C11.7914 22.95 10 21.1586 10 18.9488L10 15.4016C10 13.1918 11.7914 11.4004 14.0012 11.4004L22.4639 11.4004L22.4639 9.30039C22.4639 8.58221 23.0461 8 23.7642 8ZM17.1622 27.6508C16.3887 27.6508 15.7618 28.2777 15.7618 29.0512L15.7618 32.5984C15.7618 33.3719 16.3888 33.9989 17.1622 33.9989L30.3662 33.9989C31.1396 33.9989 31.7666 33.3719 31.7666 32.5984L31.7666 29.0512C31.7666 28.2777 31.1396 27.6508 30.3662 27.6508L17.1622 27.6508ZM14.0012 14.0011L33.5287 14.0011C34.3021 14.0011 34.9291 14.6281 34.9291 15.4016L34.9291 18.9488C34.9291 19.7223 34.3021 20.3493 33.5287 20.3493L14.0012 20.3493C13.2278 20.3493 12.6008 19.7223 12.6008 18.9488L12.6008 15.4016C12.6008 14.6281 13.2278 14.0011 14.0012 14.0011Z" fill="black"/>
</svg>
