<svg width="48" height="48" viewBox="0 0 48 48" fill="none" xmlns="http://www.w3.org/2000/svg">
<path d="M9.30012 8C10.0182 8 10.6002 8.58221 10.6002 9.30039V38.6996C10.6002 39.4178 10.0182 40 9.30012 40C8.58208 40 8 39.4178 8 38.6996V9.30039C8 8.58221 8.58208 8 9.30012 8Z" fill="black"/>
<path fill-rule="evenodd" clip-rule="evenodd" d="M16.4763 11.4004C14.2669 11.4004 12.4759 13.1918 12.4759 15.4016V18.9488C12.4759 21.1587 14.2669 22.9501 16.4763 22.9501H35.9996C38.209 22.9501 40 21.1587 40 18.9488V15.4016C40 13.1918 38.209 11.4004 35.9996 11.4004H16.4763Z" fill="black"/>
<path fill-rule="evenodd" clip-rule="evenodd" d="M12.4759 29.0512C12.4759 26.8414 14.2669 25.05 16.4763 25.05H29.6479C31.8572 25.05 33.6483 26.8414 33.6483 29.0512V32.5985C33.6483 34.8083 31.8573 36.5997 29.6479 36.5997H16.4763C14.2669 36.5997 12.4759 34.8083 12.4759 32.5985V29.0512Z" fill="black"/>
</svg>
