<svg width="48" height="48" viewBox="0 0 48 48" fill="none" xmlns="http://www.w3.org/2000/svg">
<path fill-rule="evenodd" clip-rule="evenodd" d="M15 13C13.8954 13 13 13.8954 13 15V21C13 22.1046 13.8954 23 15 23H21C22.1046 23 23 22.1046 23 21V15C23 13.8954 22.1046 13 21 13H15ZM16.6 15.6C16.0477 15.6 15.6 16.0477 15.6 16.6V19.4C15.6 19.9523 16.0477 20.4 16.6 20.4H19.4C19.9523 20.4 20.4 19.9523 20.4 19.4V16.6C20.4 16.0477 19.9523 15.6 19.4 15.6H16.6Z" fill="black"/>
<path fill-rule="evenodd" clip-rule="evenodd" d="M13 27C13 25.8954 13.8954 25 15 25H21C22.1046 25 23 25.8954 23 27V33C23 34.1046 22.1046 35 21 35H15C13.8954 35 13 34.1046 13 33V27ZM16.6 32.4C16.0477 32.4 15.6 31.9523 15.6 31.4V28.6C15.6 28.0477 16.0477 27.6 16.6 27.6H19.4C19.9523 27.6 20.4 28.0477 20.4 28.6V31.4C20.4 31.9523 19.9523 32.4 19.4 32.4H16.6Z" fill="black"/>
<path fill-rule="evenodd" clip-rule="evenodd" d="M27 25C25.8954 25 25 25.8954 25 27V33C25 34.1046 25.8954 35 27 35H33C34.1046 35 35 34.1046 35 33V27C35 25.8954 34.1046 25 33 25H27ZM28.6 27.6C28.0477 27.6 27.6 28.0477 27.6 28.6V31.4C27.6 31.9523 28.0477 32.4 28.6 32.4H31.4C31.9523 32.4 32.4 31.9523 32.4 31.4V28.6C32.4 28.0477 31.9523 27.6 31.4 27.6H28.6Z" fill="black"/>
<path fill-rule="evenodd" clip-rule="evenodd" d="M25 15C25 13.8954 25.8954 13 27 13H33C34.1046 13 35 13.8954 35 15V21C35 22.1046 34.1046 23 33 23H27C25.8954 23 25 22.1046 25 21V15ZM28.6 20.4C28.0477 20.4 27.6 19.9523 27.6 19.4V16.6C27.6 16.0477 28.0477 15.6 28.6 15.6H31.4C31.9523 15.6 32.4 16.0477 32.4 16.6V19.4C32.4 19.9523 31.9523 20.4 31.4 20.4H28.6Z" fill="black"/>
<path fill-rule="evenodd" clip-rule="evenodd" d="M12 8C9.79086 8 8 9.79086 8 12V36C8 38.2091 9.79086 40 12 40H36C38.2091 40 40 38.2091 40 36V12C40 9.79086 38.2091 8 36 8H12ZM36 10.6H12C11.2268 10.6 10.6 11.2268 10.6 12V36C10.6 36.7732 11.2268 37.4 12 37.4H36C36.7732 37.4 37.4 36.7732 37.4 36V12C37.4 11.2268 36.7732 10.6 36 10.6Z" fill="black"/>
</svg>
