<svg width="48" height="48" viewBox="0 0 48 48" fill="none" xmlns="http://www.w3.org/2000/svg">
<path d="M12 8.65039H36C37.8502 8.65039 39.3496 10.1498 39.3496 12V36C39.3496 37.8502 37.8502 39.3496 36 39.3496H12C10.1498 39.3496 8.65039 37.8502 8.65039 36V12C8.65039 10.1498 10.1498 8.65039 12 8.65039ZM12 9.9502C10.8678 9.9502 9.9502 10.8678 9.9502 12V36C9.9502 37.1322 10.8678 38.0498 12 38.0498H36C37.1322 38.0498 38.0498 37.1322 38.0498 36V12C38.0498 10.8678 37.1322 9.9502 36 9.9502H12ZM18.4688 29.9619L17.7969 31.1289C17.6749 31.3408 17.4059 31.4121 17.1963 31.291C16.9857 31.1691 16.9126 30.8974 17.0352 30.6846L17.4512 29.9619H18.4688ZM28.1172 26.4023L28.3047 26.7275H31.9102C32.1515 26.7278 32.3496 26.9248 32.3496 27.1709C32.3496 27.4171 32.1515 27.614 31.9102 27.6143H28.8145L29.376 28.5889L30.5234 30.582C30.6308 30.7685 30.5883 31.0002 30.4346 31.1367L30.3623 31.1885C30.1529 31.3097 29.8838 31.2384 29.7617 31.0264L25.6123 23.8203L26.0811 22.8672L28.1172 26.4023ZM22.0283 16.709C22.2379 16.5879 22.5069 16.6593 22.6289 16.8711L23.2451 17.9424L23.8086 18.9209L24.3721 17.9424L24.9785 16.8887C25.1005 16.677 25.3696 16.6063 25.5791 16.7275C25.7893 16.8495 25.8625 17.1202 25.7402 17.333L20.8916 25.7539L20.3311 26.7275H24.5049L25.0254 27.6143H17.6729L16.0889 27.625C15.848 27.6242 15.6506 27.4293 15.6504 27.1836C15.6504 26.9374 15.8485 26.7405 16.0898 26.7402H16.0928L18.9404 26.7275L19.3135 26.7266L19.501 26.4023L23.1133 20.1289L23.2998 19.8047L23.1133 19.4805L21.8662 17.3154C21.7438 17.1026 21.8178 16.8309 22.0283 16.709Z" fill="#D9D9D9" stroke="black" stroke-width="1.3"/>
</svg>
