<svg width="16" height="16" viewBox="0 0 16 16" fill="none" xmlns="http://www.w3.org/2000/svg">
<path d="M5 6.33333C4.63181 6.33333 4.33333 6.63181 4.33333 7V9.66667C4.33333 10.0349 4.63181 10.3333 5 10.3333H9.4C9.76819 10.3333 10.0667 10.0349 10.0667 9.66667V7C10.0667 6.63181 9.76819 6.33333 9.4 6.33333H5Z" fill="black"/>
<path fill-rule="evenodd" clip-rule="evenodd" d="M4.33333 5C3.59695 5 3 5.59695 3 6.33333V10.3333C3 11.0697 3.59695 11.6667 4.33333 11.6667H11.3468C12.0832 11.6667 12.6802 11.0697 12.6802 10.3333V9.70948C13.225 9.70948 13.6667 9.2678 13.6667 8.72297V7.9437C13.6667 7.39886 13.225 6.95719 12.6802 6.95719V6.33333C12.6802 5.59695 12.0832 5 11.3468 5H4.33333ZM3.80154 6.46177C3.80154 6.09358 4.10002 5.79511 4.46821 5.79511H11.2119C11.5801 5.79511 11.8786 6.09358 11.8786 6.46177V10.2049C11.8786 10.5731 11.5801 10.8716 11.2119 10.8716H4.46821C4.10002 10.8716 3.80154 10.5731 3.80154 10.2049V6.46177Z" fill="black"/>
</svg>
