<svg width="20" height="20" viewBox="0 0 20 20" fill="none" xmlns="http://www.w3.org/2000/svg">
<path d="M5.5 7.66667C5.03976 7.66667 4.66667 8.03976 4.66667 8.5V11.8333C4.66667 12.2936 5.03976 12.6667 5.5 12.6667H10.1667C10.6269 12.6667 11 12.2936 11 11.8333V8.5C11 8.03976 10.6269 7.66667 10.1667 7.66667H5.5Z" fill="black"/>
<path fill-rule="evenodd" clip-rule="evenodd" d="M4.66667 6C3.74619 6 3 6.74619 3 7.66667V12.6667C3 13.5871 3.74619 14.3333 4.66667 14.3333H13.4335C14.354 14.3333 15.1002 13.5871 15.1002 12.6667V11.8869C15.7812 11.8869 16.3333 11.3348 16.3333 10.6537V9.67963C16.3333 8.99858 15.7812 8.44648 15.1002 8.44648V7.66667C15.1002 6.74619 14.354 6 13.4335 6H4.66667ZM4.00193 7.82722C4.00193 7.36698 4.37502 6.99388 4.83526 6.99388H13.2649C13.7252 6.99388 14.0983 7.36698 14.0983 7.82722V12.5061C14.0983 12.9664 13.7252 13.3395 13.2649 13.3395H4.83526C4.37502 13.3395 4.00193 12.9664 4.00193 12.5061V7.82722Z" fill="black"/>
</svg>
