<svg width="16" height="16" viewBox="0 0 16 16" fill="none" xmlns="http://www.w3.org/2000/svg">
<path fill-rule="evenodd" clip-rule="evenodd" d="M11.1333 12.1H5.21667C5.02337 12.1 4.86667 12.2567 4.86667 12.45C4.86667 12.6433 5.02337 12.8 5.21667 12.8H11.5667C11.806 12.8 12 12.994 12 13.2333C12 13.4727 11.806 13.6667 11.5667 13.6667H4.66667C4.29848 13.6667 4 13.3682 4 13V3.66667C4 3.29848 4.29848 3 4.66667 3H11.3333C11.7015 3 12 3.29848 12 3.66667V11.2333C12 11.712 11.612 12.1 11.1333 12.1ZM5.33333 5.66667C5.33333 4.93029 5.93029 4.33333 6.66667 4.33333H9.33333C10.0697 4.33333 10.6667 4.93029 10.6667 5.66667C10.6667 6.40305 10.0697 7 9.33333 7H6.66667C5.93029 7 5.33333 6.40305 5.33333 5.66667Z" fill="black"/>
</svg>
