<svg width="28" height="28" viewBox="0 0 28 28" fill="none" xmlns="http://www.w3.org/2000/svg">
<path fill-rule="evenodd" clip-rule="evenodd" d="M7.33333 8.33333C6.04467 8.33333 5 9.378 5 10.6667V20C5 21.2887 6.04467 22.3333 7.33333 22.3333H21.3333C22.622 22.3333 23.6667 21.2887 23.6667 20V10.6667C23.6667 9.378 22.622 8.33333 21.3333 8.33333H19.6554C19.6112 8.33333 19.5708 8.30837 19.5511 8.26884L19.0616 7.28983C18.6663 6.49934 17.8584 6 16.9746 6H11.6921C10.8083 6 10.0003 6.49934 9.60508 7.28983L9.11558 8.26884C9.09582 8.30837 9.05542 8.33333 9.01123 8.33333H7.33333ZM18.4167 14.75C18.4167 17.0052 16.5885 18.8333 14.3333 18.8333C12.0782 18.8333 10.25 17.0052 10.25 14.75C10.25 12.4948 12.0782 10.6667 14.3333 10.6667C16.5885 10.6667 18.4167 12.4948 18.4167 14.75Z" fill="black"/>
<path d="M14.3333 17.3167C15.7509 17.3167 16.9 16.1675 16.9 14.75C16.9 13.3325 15.7509 12.1833 14.3333 12.1833C12.9158 12.1833 11.7667 13.3325 11.7667 14.75C11.7667 16.1675 12.9158 17.3167 14.3333 17.3167Z" fill="black"/>
</svg>
