<svg width="48" height="48" viewBox="0 0 48 48" fill="none" xmlns="http://www.w3.org/2000/svg">
<path fill-rule="evenodd" clip-rule="evenodd" d="M8 12.2996C8 11.5818 8.59794 11 9.33553 11H13.8848C14.8264 11 15.6475 11.6229 15.8773 12.5115L16.7639 15.9401H37.9435C39.3712 15.9401 40.3637 17.322 39.873 18.6266L36.3116 28.0952C36.0152 28.8833 35.2445 29.4074 34.3821 29.4074H19.0938C18.1522 29.4074 17.331 28.7845 17.1013 27.8959L13.5997 14.3549C13.4848 13.9106 13.0742 13.5992 12.6034 13.5992H9.33553C8.59794 13.5992 8 13.0173 8 12.2996ZM18.7539 18.5392C18.0849 18.5392 17.5944 19.1515 17.7576 19.7829L19.3789 26.0525C19.4938 26.4968 19.9044 26.8083 20.3752 26.8083H33.2333C33.6645 26.8083 34.0499 26.5462 34.1981 26.1522L36.5563 19.8825C36.8016 19.2302 36.3054 18.5392 35.5915 18.5392H18.7539Z" fill="black"/>
<path d="M22.6209 34.036C22.6209 35.673 21.2483 37 19.555 37C17.8618 37 16.4891 35.673 16.4891 34.036C16.4891 32.399 17.8618 31.0719 19.555 31.0719C21.2483 31.0719 22.6209 32.399 22.6209 34.036Z" fill="black"/>
<path d="M33.8627 37C35.5559 37 36.9286 35.673 36.9286 34.036C36.9286 32.399 35.5559 31.0719 33.8627 31.0719C32.1694 31.0719 30.7968 32.399 30.7968 34.036C30.7968 35.673 32.1694 37 33.8627 37Z" fill="black"/>
</svg>
