<svg width="20" height="20" viewBox="0 0 20 20" fill="none" xmlns="http://www.w3.org/2000/svg">
<path d="M6.329 3.65425C6.40925 3.74656 6.37594 3.88556 6.27135 3.94896C5.30921 4.5322 4.5029 5.35576 3.93153 6.33876C3.86841 6.44734 3.72478 6.4814 3.63229 6.39644C3.24414 6.03995 3 5.5228 3 4.94737C3 3.87186 3.85281 3 4.90475 3C5.4713 3 5.98008 3.25288 6.329 3.65425Z" fill="black"/>
<path d="M16.3333 4.94737C16.3333 5.5228 16.0892 6.03994 15.7011 6.39644C15.6086 6.4814 15.465 6.44735 15.4018 6.33877C14.8304 5.35577 14.0241 4.53221 13.062 3.94896C12.9574 3.88556 12.9241 3.74656 13.0044 3.65426C13.3533 3.25288 13.8621 3 14.4286 3C15.4806 3 16.3333 3.87186 16.3333 4.94737Z" fill="black"/>
<path fill-rule="evenodd" clip-rule="evenodd" d="M15.5 9.81576C15.5 11.2632 14.9955 12.5902 14.1567 13.6231L15.883 15.388C16.0946 15.6042 16.0946 15.9549 15.883 16.1711C15.6715 16.3874 15.3285 16.3874 15.117 16.1711L13.3907 14.4063C12.3804 15.2639 11.0825 15.7796 9.66667 15.7796C8.25085 15.7796 6.95289 15.2639 5.94261 14.4063L4.21633 16.1711C4.00479 16.3874 3.66188 16.3874 3.45034 16.1711C3.2388 15.9549 3.2388 15.6042 3.45034 15.388L5.17656 13.6231C4.33769 12.5902 3.83333 11.2632 3.83333 9.81576C3.83333 6.52205 6.44503 3.85197 9.66667 3.85197C12.8883 3.85197 15.5 6.52205 15.5 9.81576ZM9.66667 5.42812C9.96584 5.42812 10.2084 5.67606 10.2084 5.9819V9.41648C10.2084 9.52539 10.251 9.62997 10.3272 9.70783L12.5497 11.9801C12.7613 12.1964 12.7613 12.547 12.5497 12.7633C12.3382 12.9795 11.9952 12.9795 11.7837 12.7633L9.24378 10.1666C9.16762 10.0887 9.12498 9.98416 9.12498 9.87525V5.9819C9.12498 5.67606 9.36749 5.42812 9.66667 5.42812Z" fill="black"/>
</svg>
