<svg width="48" height="48" viewBox="0 0 48 48" fill="none" xmlns="http://www.w3.org/2000/svg">
<path d="M15.9896 9.5702C16.1822 9.79174 16.1023 10.1253 15.8512 10.2775C13.5421 11.6773 11.607 13.6538 10.2357 16.013C10.0842 16.2736 9.73948 16.3553 9.51749 16.1515C8.58594 15.2959 8 14.0547 8 12.6737C8 10.0925 10.0468 8 12.5714 8C13.9311 8 15.1522 8.60691 15.9896 9.5702Z" fill="black"/>
<path d="M40 12.6737C40 14.0547 39.4141 15.2958 38.4826 16.1514C38.2606 16.3554 37.9159 16.2736 37.7644 16.013C36.393 13.6539 34.4578 11.6773 32.1489 10.2775C31.8978 10.1253 31.8179 9.79176 32.0105 9.57022C32.8479 8.60692 34.069 8 35.4287 8C37.9534 8 40 10.0925 40 12.6737Z" fill="black"/>
<path fill-rule="evenodd" clip-rule="evenodd" d="M38 24.3578C38 27.8317 36.7893 31.0165 34.7761 33.4955L38.9192 37.7311C39.427 38.2502 39.427 39.0917 38.9192 39.6107C38.4116 40.1298 37.5884 40.1298 37.0808 39.6107L32.9377 35.375C30.5129 37.4333 27.3979 38.6709 24 38.6709C20.6021 38.6709 17.4869 37.4333 15.0623 35.375L10.9192 39.6107C10.4115 40.1298 9.5885 40.1298 9.08081 39.6107C8.57312 39.0917 8.57312 38.2502 9.08081 37.7311L13.2238 33.4955C11.2104 31.0165 10 27.8317 10 24.3578C10 16.4529 16.2681 10.0447 24 10.0447C31.7319 10.0447 38 16.4529 38 24.3578ZM24 13.8275C24.718 13.8275 25.3 14.4225 25.3 15.1566V23.3996C25.3 23.6609 25.4024 23.9119 25.5852 24.0988L30.9192 29.5522C31.427 30.0713 31.427 30.9128 30.9192 31.4318C30.4116 31.9508 29.5884 31.9508 29.0808 31.4318L22.9851 25.1999C22.8023 25.013 22.7 24.762 22.7 24.5006V15.1566C22.7 14.4225 23.282 13.8275 24 13.8275Z" fill="black"/>
</svg>
