<svg width="28" height="28" viewBox="0 0 28 28" fill="none" xmlns="http://www.w3.org/2000/svg">
<path fill-rule="evenodd" clip-rule="evenodd" d="M12.7772 5.52812C13.0827 4.82396 14.0839 4.82396 14.3895 5.52812L21.0983 20.9901C21.2808 21.4109 21.0806 21.8708 20.7023 22.0525C16.2199 24.2047 10.9468 24.2047 6.46433 22.0525C6.08605 21.8708 5.88582 21.4109 6.06838 20.9902L12.7772 5.52812ZM13.322 7.99906C13.4215 7.76983 13.7452 7.76983 13.8447 7.99906L19.3603 20.7112C19.4236 20.857 19.3564 21.027 19.2095 21.0865C15.6135 22.5417 11.5531 22.5417 7.95717 21.0865C7.81026 21.027 7.74307 20.857 7.80634 20.7112L13.322 7.99906Z" fill="black"/>
</svg>
