<svg width="24" height="24" viewBox="0 0 24 24" fill="none" xmlns="http://www.w3.org/2000/svg">
<path fill-rule="evenodd" clip-rule="evenodd" d="M5 12V17V17.15C5.18236 18.7372 8.25135 20 12 20C15.7486 20 18.8126 18.702 18.9949 17.1148C18.9983 17.0767 19 17.0384 19 17L18.9949 12.1148C18.9949 12.1532 18.9983 12.0767 18.9949 12.1148L19 7C19 6.96156 18.9983 6.9233 18.9949 6.88521C18.8126 5.29805 15.7486 4 12 4C8.25135 4 5.18236 5.26283 5 6.85L5 7L5 12ZM17.6949 8.74481C16.425 9.50478 14.3474 10 12 10C9.64943 10 7.56948 9.50348 6.3 8.74181V12.0006C6.3 12.0006 6.30029 12.0036 6.30109 12.007C6.30235 12.0123 6.30587 12.0247 6.31533 12.0445C6.33488 12.0854 6.37971 12.1577 6.47534 12.2546C6.67374 12.4556 7.02529 12.6963 7.56232 12.9264C8.63177 13.3848 10.1998 13.7 12 13.7C13.8001 13.7 15.3682 13.3848 16.4376 12.9264C16.9747 12.6963 17.3262 12.4556 17.5246 12.2546C17.6202 12.1577 17.6651 12.0854 17.6846 12.0445C17.6894 12.0344 17.6927 12.0262 17.6949 12.0199V8.74481ZM6.3 17.0006C6.3 17.0006 6.30029 17.0036 6.30109 17.007C6.30235 17.0123 6.30587 17.0247 6.31533 17.0445C6.33488 17.0854 6.37971 17.1577 6.47534 17.2546C6.67374 17.4556 7.02529 17.6963 7.56232 17.9264C8.63177 18.3848 10.1998 18.7 12 18.7C13.8001 18.7 15.3682 18.3848 16.4376 17.9264C16.9747 17.6963 17.3262 17.4556 17.5246 17.2546C17.6202 17.1577 17.6651 17.0854 17.6846 17.0445C17.6894 17.0344 17.6927 17.0262 17.6949 17.0199V13.7448C16.425 14.5048 14.3474 15 12 15C9.64943 15 7.56948 14.5035 6.3 13.7418V17.0006ZM17.5246 6.74543C17.6202 6.84233 17.6651 6.91458 17.6846 6.95553C17.6921 6.97154 17.7026 7.01174 17.6846 7.04447C17.6651 7.08542 17.6202 7.15767 17.5246 7.25457C17.3262 7.4556 16.9747 7.69627 16.4376 7.92643C15.3682 8.38477 13.8001 8.7 12 8.7C10.1998 8.7 8.63177 8.38477 7.56232 7.92643C7.02529 7.69627 6.67374 7.4556 6.47534 7.25457C6.37971 7.15767 6.33488 7.08542 6.31533 7.04447C6.29833 7.01338 6.30825 6.97223 6.31533 6.95553C6.33488 6.91458 6.37971 6.84233 6.47534 6.74543C6.67374 6.5444 7.02529 6.30373 7.56232 6.07357C8.63177 5.61523 10.1998 5.3 12 5.3C13.8001 5.3 15.3682 5.61523 16.4376 6.07357C16.9747 6.30373 17.3262 6.5444 17.5246 6.74543Z" fill="black"/>
</svg>
