<svg width="24" height="24" viewBox="0 0 24 24" fill="none" xmlns="http://www.w3.org/2000/svg">
<path fill-rule="evenodd" clip-rule="evenodd" d="M6.86923 4.02633C8.04193 3.89393 9.30085 4.28506 10.0914 4.65921C10.565 4.88336 11.2564 4.98687 11.9915 4.97644L12.0011 4.9763L12.0106 4.97644C12.7455 4.98687 13.4367 4.88336 13.9101 4.65924C14.7004 4.28509 15.959 3.89392 17.1315 4.02633C17.7313 4.09407 18.345 4.30367 18.8467 4.76106C19.3532 5.22288 19.6845 5.88168 19.813 6.73294C20.0395 8.23476 20.0459 9.34768 19.9089 10.2416C19.7702 11.1464 19.4895 11.7926 19.1923 12.3555C18.8703 12.9652 18.213 14.7697 18.1722 16.7333C18.171 16.7892 18.17 16.8468 18.1689 16.9059C18.1593 17.4503 18.1475 18.1188 18.0018 18.6583C17.9179 18.969 17.7727 19.3096 17.4984 19.5756C17.2058 19.8593 16.8263 20 16.3965 20C15.8621 20 15.4534 19.7146 15.1658 19.399C14.8816 19.087 14.6573 18.6848 14.4742 18.2904C14.2882 17.8896 14.1247 17.4519 13.9785 17.0453C13.9418 16.9434 13.9064 16.8441 13.872 16.7475C13.7654 16.448 13.6682 16.1752 13.5709 15.9328C13.3801 15.4576 13.1947 15.035 12.9356 14.7254C12.7028 14.4473 12.4263 14.2775 12.0011 14.2775C11.5756 14.2775 11.2991 14.4473 11.0663 14.7255C10.8071 15.0351 10.6217 15.4577 10.4305 15.9332C10.3327 16.1763 10.2351 16.4501 10.1279 16.7509C10.0939 16.8464 10.0589 16.9445 10.0226 17.0453C9.8763 17.4518 9.71283 17.8895 9.52678 18.2903C9.3437 18.6847 9.11936 19.0869 8.83515 19.3989C8.54754 19.7146 8.13881 20 7.60437 20C7.17449 20 6.79499 19.8593 6.50237 19.5755C6.22806 19.3094 6.08313 18.9687 5.99935 18.6581C5.85455 18.1214 5.8421 17.4561 5.83194 16.9137C5.83079 16.8522 5.82967 16.7922 5.82838 16.7342C5.78504 14.7744 5.12083 12.9722 4.80286 12.3457C4.51082 11.7703 4.23012 11.126 4.09127 10.2265C3.95398 9.33707 3.96051 8.23431 4.1871 6.73291C4.31557 5.88161 4.64699 5.2228 5.15367 4.761C5.65549 4.30364 6.26929 4.09406 6.86923 4.02633Z" fill="black"/>
</svg>
