<svg width="48" height="48" viewBox="0 0 48 48" fill="none" xmlns="http://www.w3.org/2000/svg">
<path d="M21.0692 33.4173C20.3513 33.4173 19.7694 33.9992 19.7694 34.7171C19.7694 35.4349 20.3513 36.0168 21.0692 36.0168H26.9308C27.6487 36.0168 28.2306 35.4349 28.2306 34.7171C28.2306 33.9992 27.6487 33.4173 26.9308 33.4173H21.0692Z" fill="black"/>
<path fill-rule="evenodd" clip-rule="evenodd" d="M34.0611 27.9956H34.7234C35.9934 27.9956 37.023 26.9661 37.023 25.6961V19.1279L33.2748 9.46776C32.9315 8.583 32.08 8 31.131 8H16.8689C15.9199 8 15.0683 8.58299 14.725 9.46776L10.9769 19.1279V25.6961C10.9769 26.9661 12.0064 27.9956 13.2765 27.9956H13.9386L13.4673 29.4312H12.2996C11.0296 29.4312 10 30.4608 10 31.7308V37.7033C10 38.9733 11.0296 40.0029 12.2996 40.0029H35.7004C36.9704 40.0029 38 38.9733 38 37.7033V31.7308C38 30.4608 36.9704 29.4312 35.7004 29.4312H34.5324L34.0611 27.9956ZM17.0743 10.5995L14.1751 18.0714H33.8247L30.9256 10.5995H17.0743ZM31.6563 20.671L33.2077 25.3961H34.4235V20.671H31.6563ZM13.5764 20.671H16.3434L14.7921 25.3961H13.5764V20.671ZM12.5995 32.0308V37.4033H35.4005V32.0308H12.5995ZM19.0795 20.671H28.9203L30.4716 25.3961L31.3251 27.9956L31.7964 29.4312H16.2034L16.6747 27.9956L17.5281 25.3961L19.0795 20.671Z" fill="black"/>
</svg>
