<svg width="28" height="28" viewBox="0 0 28 28" fill="none" xmlns="http://www.w3.org/2000/svg">
<path fill-rule="evenodd" clip-rule="evenodd" d="M14 23.6667C17.866 23.6667 21 19.9741 21 15.419C21 11.4981 15.8135 6.47029 14.3693 5.14629C14.1565 4.95124 13.8435 4.95124 13.6307 5.14629C12.1865 6.47029 7 11.4981 7 15.419C7 19.9741 10.134 23.6667 14 23.6667ZM18.2583 16.4834C18.2583 16.0646 17.9188 15.725 17.5 15.725C17.0812 15.725 16.7417 16.0646 16.7417 16.4834C16.7417 16.9454 16.5968 17.6552 16.1846 18.2278C15.8002 18.7617 15.1528 19.225 14 19.225C13.5812 19.225 13.2417 19.5646 13.2417 19.9834C13.2417 20.4022 13.5812 20.7417 14 20.7417C15.6472 20.7417 16.7498 20.0384 17.4154 19.114C18.0532 18.2282 18.2583 17.1881 18.2583 16.4834Z" fill="black"/>
</svg>
