<svg width="32" height="32" viewBox="0 0 32 32" fill="none" xmlns="http://www.w3.org/2000/svg">
<path d="M6.33312 7.66625C7.06939 7.66625 7.66625 7.06939 7.66625 6.33312C7.66625 5.59686 7.06939 5 6.33312 5C5.59686 5 5 5.59686 5 6.33312C5 7.06939 5.59686 7.66625 6.33312 7.66625Z" fill="black"/>
<path fill-rule="evenodd" clip-rule="evenodd" d="M8.99937 11.6656C8.99937 11.7635 8.93436 11.8499 8.84042 11.8772C6.62156 12.5226 5 14.571 5 16.9981C5 19.9432 7.38744 22.3306 10.3325 22.3306C11.1938 22.3306 12.0075 22.1264 12.7277 21.7637C13.0694 21.5916 13.4978 21.6855 13.7425 21.9797C14.5984 23.0087 15.8884 23.6637 17.3314 23.6637C19.1523 23.6637 20.7296 22.6207 21.4983 21.0995C21.5299 21.037 21.5941 20.9975 21.6641 20.9975C24.241 20.9975 26.33 18.9085 26.33 16.3316C26.33 14.8389 25.6291 13.5099 24.5384 12.6558C24.2748 12.4494 24.1635 12.0958 24.2407 11.7701C24.2993 11.5226 24.3303 11.2644 24.3303 10.9991C24.3303 9.1584 22.8382 7.66625 20.9975 7.66625C20.3804 7.66625 19.8025 7.83397 19.3068 8.12632C18.9556 8.33345 18.4807 8.29072 18.2 7.99501C17.2283 6.9714 15.8546 6.33312 14.3319 6.33312C11.3868 6.33312 8.99937 8.72057 8.99937 11.6656ZM14.3319 8.06619C12.344 8.06619 10.7324 9.67771 10.7324 11.6656C10.7324 12.5362 10.1565 13.2993 9.32446 13.5413C7.82564 13.9772 6.73306 15.3623 6.73306 16.9981C6.73306 18.986 8.34459 20.5976 10.3325 20.5976C10.917 20.5976 11.4643 20.4595 11.9482 20.2159C13.0269 19.6727 14.3262 19.9713 15.0749 20.8715C15.6156 21.5215 16.4249 21.9307 17.3314 21.9307C18.4735 21.9307 19.4662 21.2783 19.9516 20.3178C20.2776 19.6727 20.9393 19.2644 21.6641 19.2644C23.2838 19.2644 24.5969 17.9513 24.5969 16.3316C24.5969 15.3942 24.1591 14.56 23.4699 14.0203C22.635 13.3665 22.3329 12.3053 22.5543 11.3707C22.5821 11.2531 22.5972 11.129 22.5972 10.9991C22.5972 10.1155 21.881 9.39931 20.9975 9.39931C20.6985 9.39931 20.4235 9.47974 20.1872 9.61908C19.2176 10.191 17.8387 10.1317 16.943 9.18816C16.285 8.49491 15.3599 8.06619 14.3319 8.06619Z" fill="black"/>
<path d="M24.9969 24.9969C24.9969 25.7331 24.4 26.33 23.6637 26.33C22.9275 26.33 22.3306 25.7331 22.3306 24.9969C22.3306 24.2606 22.9275 23.6637 23.6637 23.6637C24.4 23.6637 24.9969 24.2606 24.9969 24.9969Z" fill="black"/>
</svg>
