<svg width="32" height="32" viewBox="0 0 32 32" fill="none" xmlns="http://www.w3.org/2000/svg">
<path d="M5.47945 4.25383C5.14101 3.91539 4.59228 3.91539 4.25383 4.25383C3.91539 4.59228 3.91539 5.14101 4.25383 5.47946L26.5205 27.7462C26.859 28.0846 27.4077 28.0846 27.7462 27.7462C28.0846 27.4077 28.0846 26.859 27.7462 26.5205L5.47945 4.25383Z" fill="black"/>
<path d="M6.69875 19.5127L11.7724 14.439L13.1025 15.7691L8.21377 20.6579C8.16643 20.7053 8.13416 20.7656 8.12103 20.8312L7.45901 24.1413C7.41155 24.3786 7.62077 24.5878 7.85807 24.5404L11.1681 23.8784C11.2338 23.8652 11.2941 23.833 11.3414 23.7856L16.2302 18.8968L17.5604 20.227L12.4867 25.3007C12.2973 25.49 12.0561 25.6191 11.7935 25.6716L6.95664 26.639C6.00744 26.8288 5.17056 25.992 5.3604 25.0428L6.32777 20.2059C6.38029 19.9433 6.50937 19.7021 6.69875 19.5127Z" fill="black"/>
<path fill-rule="evenodd" clip-rule="evenodd" d="M14.439 11.7724L15.7691 13.1025L19.0745 9.79722C19.2069 9.66478 19.4216 9.66478 19.5541 9.79722L22.2021 12.4453C22.3346 12.5777 22.3346 12.7925 22.2021 12.9249L18.8968 16.2302L20.227 17.5604L25.2191 12.5682L25.2103 12.5595C26.1006 11.8083 26.6661 10.6843 26.6661 9.42826C26.6661 7.16668 24.8327 5.3333 22.5711 5.3333C21.3151 5.3333 20.1911 5.89881 19.44 6.78912L19.4311 6.7803L14.439 11.7724ZM20.9641 7.90532C20.8492 8.02638 20.8657 8.21488 20.9837 8.3329L23.6665 11.0157C23.7845 11.1337 23.973 11.1502 24.0941 11.0353C24.5196 10.6315 24.785 10.0603 24.785 9.42826C24.785 8.20557 23.7938 7.21438 22.5711 7.21438C21.9391 7.21438 21.3679 7.47984 20.9641 7.90532Z" fill="black"/>
</svg>
