<svg width="48" height="48" viewBox="0 0 48 48" fill="none" xmlns="http://www.w3.org/2000/svg">
<path d="M18 24C19.1046 24 20 23.1046 20 22C20 20.8954 19.1046 20 18 20C16.8954 20 16 20.8954 16 22C16 23.1046 16.8954 24 18 24Z" fill="black"/>
<path d="M32 22C32 23.1046 31.1046 24 30 24C28.8954 24 28 23.1046 28 22C28 20.8954 28.8954 20 30 20C31.1046 20 32 20.8954 32 22Z" fill="black"/>
<path d="M17 28.7C16.282 28.7 15.7 29.282 15.7 30C15.7 30.718 16.282 31.3 17 31.3H18.5121V28.7H17Z" fill="black"/>
<path d="M20.1545 28.7V31.3H23.1788V28.7H20.1545Z" fill="black"/>
<path d="M24.8212 28.7L24.8212 31.3H27.8455V28.7H24.8212Z" fill="black"/>
<path d="M29.4879 28.7L29.4879 31.3H31C31.718 31.3 32.3 30.718 32.3 30C32.3 29.282 31.718 28.7 31 28.7H29.4879Z" fill="black"/>
<path fill-rule="evenodd" clip-rule="evenodd" d="M40 24C40 32.8366 32.8366 40 24 40C15.1634 40 8 32.8366 8 24C8 15.1634 15.1634 8 24 8C32.8366 8 40 15.1634 40 24ZM37.4 24C37.4 31.4006 31.4006 37.4 24 37.4C16.5994 37.4 10.6 31.4006 10.6 24C10.6 16.5994 16.5994 10.6 24 10.6C31.4006 10.6 37.4 16.5994 37.4 24Z" fill="black"/>
</svg>
