<svg width="48" height="48" viewBox="0 0 48 48" fill="none" xmlns="http://www.w3.org/2000/svg">
<path d="M8 15.3002C8 14.5821 8.58221 14 9.30039 14H38.6996C39.4178 14 40 14.5821 40 15.3002C40 16.0183 39.4178 16.6004 38.6996 16.6004H9.30039C8.58221 16.6004 8 16.0183 8 15.3002Z" fill="black"/>
<path d="M12.1998 24C12.1998 23.2819 12.782 22.6998 13.5002 22.6998H34.4996C35.2178 22.6998 35.8 23.2819 35.8 24C35.8 24.7181 35.2178 25.3002 34.4996 25.3002H13.5002C12.782 25.3002 12.1998 24.7181 12.1998 24Z" fill="black"/>
<path d="M17.7002 31.3996C16.982 31.3996 16.3998 31.9817 16.3998 32.6998C16.3998 33.4179 16.982 34 17.7002 34H30.2998C31.018 34 31.6002 33.4179 31.6002 32.6998C31.6002 31.9817 31.018 31.3996 30.2998 31.3996H17.7002Z" fill="black"/>
</svg>
