<svg width="20" height="20" viewBox="0 0 20 20" fill="none" xmlns="http://www.w3.org/2000/svg">
<path d="M3 6.83327C3 6.37307 3.37307 6 3.83327 6H15.5001C15.9603 6 16.3333 6.37307 16.3333 6.83327C16.3333 7.29347 15.9603 7.66653 15.5001 7.66653H3.83327C3.37307 7.66653 3 7.29347 3 6.83327Z" fill="black"/>
<path d="M4.66663 10.1668C4.66663 9.70656 5.0397 9.33349 5.4999 9.33349H13.8333C14.2935 9.33349 14.6666 9.70656 14.6666 10.1668C14.6666 10.627 14.2935 11 13.8333 11H5.4999C5.0397 11 4.66663 10.627 4.66663 10.1668Z" fill="black"/>
<path d="M7.16664 12.667C6.70643 12.667 6.33337 13.04 6.33337 13.5002C6.33337 13.9604 6.70643 14.3335 7.16664 14.3335H12.1667C12.6269 14.3335 13 13.9604 13 13.5002C13 13.04 12.6269 12.667 12.1667 12.667H7.16664Z" fill="black"/>
</svg>
