<svg width="48" height="48" viewBox="0 0 48 48" fill="none" xmlns="http://www.w3.org/2000/svg">
<path fill-rule="evenodd" clip-rule="evenodd" d="M12.5 12.7C12.6105 12.7 12.7 12.6105 12.7 12.5V9.3C12.7 8.58203 13.282 8 14 8C14.718 8 15.3 8.58203 15.3 9.3V12.5C15.3 12.6105 15.3895 12.7 15.5 12.7H32.5C32.6105 12.7 32.7 12.6105 32.7 12.5V9.3C32.7 8.58203 33.282 8 34 8C34.718 8 35.3 8.58203 35.3 9.3V12.5C35.3 12.6105 35.3895 12.7 35.5 12.7H38.7C39.418 12.7 40 13.282 40 14C40 14.718 39.418 15.3 38.7 15.3H35.5C35.3895 15.3 35.3 15.3895 35.3 15.5V32.5C35.3 32.6105 35.3895 32.7 35.5 32.7H38.7C39.418 32.7 40 33.282 40 34C40 34.718 39.418 35.3 38.7 35.3H35.5C35.3895 35.3 35.3 35.3895 35.3 35.5V38.7C35.3 39.418 34.718 40 34 40C33.282 40 32.7 39.418 32.7 38.7V35.5C32.7 35.3895 32.6105 35.3 32.5 35.3H15.5C15.3895 35.3 15.3 35.3895 15.3 35.5V38.7C15.3 39.418 14.718 40 14 40C13.282 40 12.7 39.418 12.7 38.7V35.5C12.7 35.3895 12.6105 35.3 12.5 35.3H9.3C8.58203 35.3 8 34.718 8 34C8 33.282 8.58203 32.7 9.3 32.7H12.5C12.6105 32.7 12.7 32.6105 12.7 32.5V15.5C12.7 15.3895 12.6105 15.3 12.5 15.3H9.3C8.58203 15.3 8 14.718 8 14C8 13.282 8.58203 12.7 9.3 12.7H12.5Z" fill="black"/>
</svg>
