<svg width="16" height="16" viewBox="0 0 16 16" fill="none" xmlns="http://www.w3.org/2000/svg">
<path d="M13.2334 6.47992C13.4727 6.47992 13.6667 6.28594 13.6667 6.04664C13.6667 5.80735 13.4727 5.61336 13.2334 5.61336H11.9532C11.4562 5.61336 11.0533 5.21047 11.0533 4.71347V3.43328C11.0533 3.19399 10.8593 3 10.62 3C10.3807 3 10.1867 3.19399 10.1867 3.43328V4.71347C10.1867 5.68905 10.9776 6.47992 11.9532 6.47992L13.2334 6.47992Z" fill="black"/>
<path d="M4.71348 6.47994C5.68906 6.47994 6.47993 5.68907 6.47993 4.71348V3.43329C6.47993 3.194 6.28594 3.00001 6.04665 3.00001C5.80736 3.00001 5.61337 3.194 5.61337 3.43329L5.61337 4.71348C5.61337 5.21048 5.21047 5.61337 4.71348 5.61337H3.43328C3.19399 5.61337 3 5.80736 3 6.04665C3 6.28595 3.19399 6.47994 3.43328 6.47994H4.71348Z" fill="black"/>
<path d="M5.61339 13.2334C5.61339 13.4727 5.80738 13.6667 6.04667 13.6667C6.28597 13.6667 6.47996 13.4727 6.47996 13.2334V11.9532C6.47996 10.9776 5.68909 10.1867 4.7135 10.1867H3.43331C3.19401 10.1867 3.00002 10.3807 3.00002 10.62C3.00002 10.8593 3.19401 11.0533 3.43331 11.0533H4.7135C5.2105 11.0533 5.61339 11.4562 5.61339 11.9532L5.61339 13.2334Z" fill="black"/>
<path d="M10.62 13.6667C10.3807 13.6667 10.1867 13.4727 10.1867 13.2334V11.9532C10.1867 10.9776 10.9776 10.1867 11.9532 10.1867H13.2334C13.4727 10.1867 13.6667 10.3807 13.6667 10.62C13.6667 10.8593 13.4727 11.0533 13.2334 11.0533H11.9532C11.4562 11.0533 11.0533 11.4562 11.0533 11.9532V13.2334C11.0533 13.4727 10.8593 13.6667 10.62 13.6667Z" fill="black"/>
</svg>
