<svg width="20" height="20" viewBox="0 0 20 20" fill="none" xmlns="http://www.w3.org/2000/svg">
<path d="M5.37498 8.75C5.37498 8.45085 5.61749 8.20834 5.91667 8.20834H6.41665V7.70833C6.41665 7.40918 6.65916 7.16667 6.95833 7.16667C7.25751 7.16667 7.50002 7.40918 7.50002 7.70833V8.20834H8C8.29917 8.20834 8.54169 8.45085 8.54169 8.75C8.54169 9.04915 8.29917 9.29166 8 9.29166H7.50002V9.79167C7.50002 10.0908 7.25751 10.3333 6.95833 10.3333C6.65916 10.3333 6.41665 10.0908 6.41665 9.79167V9.29166H5.91667C5.61749 9.29166 5.37498 9.04915 5.37498 8.75Z" fill="black"/>
<path d="M11.5833 8.66666C11.5833 8.96582 11.3408 9.20834 11.0417 9.20834C10.7425 9.20834 10.5 8.96582 10.5 8.66666C10.5 8.36751 10.7425 8.125 11.0417 8.125C11.3408 8.125 11.5833 8.36751 11.5833 8.66666Z" fill="black"/>
<path d="M12.0834 10.25C12.3825 10.25 12.625 10.0075 12.625 9.70833C12.625 9.40918 12.3825 9.16667 12.0834 9.16667C11.7842 9.16667 11.5417 9.40918 11.5417 9.70833C11.5417 10.0075 11.7842 10.25 12.0834 10.25Z" fill="black"/>
<path d="M13.6667 8.66666C13.6667 8.96582 13.4241 9.20834 13.125 9.20834C12.8258 9.20834 12.5833 8.96582 12.5833 8.66666C12.5833 8.36751 12.8258 8.125 13.125 8.125C13.4241 8.125 13.6667 8.36751 13.6667 8.66666Z" fill="black"/>
<path d="M12.0834 8.16667C12.3825 8.16667 12.625 7.92416 12.625 7.62499C12.625 7.32585 12.3825 7.08333 12.0834 7.08333C11.7842 7.08333 11.5417 7.32585 11.5417 7.62499C11.5417 7.92416 11.7842 8.16667 12.0834 8.16667Z" fill="black"/>
<path fill-rule="evenodd" clip-rule="evenodd" d="M7.91226 5C5.1993 5 3 7.23858 3 10V13.5714C3 14.3604 3.62836 15 4.4035 15H5.51251C6.01956 15 6.48719 14.7216 6.73576 14.2718L7.71105 12.507C7.83536 12.282 8.06917 12.1429 8.32272 12.1429H11.0106C11.2642 12.1429 11.498 12.282 11.6223 12.507L12.5976 14.2718C12.8461 14.7216 13.3138 15 13.8208 15H14.9298C15.705 15 16.3333 14.3604 16.3333 13.5714V10C16.3333 7.23858 14.134 5 11.4211 5H7.91226ZM11.4211 6.08334H7.91226C5.8156 6.08334 4.08332 7.81873 4.08332 10V13.5714C4.08332 13.7803 4.24466 13.9167 4.4035 13.9167H5.51251C5.61861 13.9167 5.72649 13.8584 5.78758 13.7478L6.76287 11.983C7.07466 11.4188 7.66822 11.0595 8.32272 11.0595H11.0106C11.6651 11.0595 12.2587 11.4188 12.5705 11.983L13.5458 13.7478C13.6068 13.8584 13.7147 13.9167 13.8208 13.9167H14.9298C15.0887 13.9167 15.25 13.7803 15.25 13.5714V10C15.25 7.81873 13.5177 6.08334 11.4211 6.08334Z" fill="black"/>
</svg>
