<svg width="20" height="20" viewBox="0 0 20 20" fill="none" xmlns="http://www.w3.org/2000/svg">
<path d="M5.91667 7.875C5.61751 7.875 5.375 8.11751 5.375 8.41667C5.375 8.71582 5.61751 8.95833 5.91667 8.95833H9.66667C9.96582 8.95833 10.2083 8.71582 10.2083 8.41667C10.2083 8.11751 9.96582 7.875 9.66667 7.875H5.91667Z" fill="black"/>
<path d="M8.29167 10.5C8.29167 10.2008 8.53418 9.95833 8.83333 9.95833H13.4167C13.7158 9.95833 13.9583 10.2008 13.9583 10.5C13.9583 10.7992 13.7158 11.0417 13.4167 11.0417H8.83333C8.53418 11.0417 8.29167 10.7992 8.29167 10.5Z" fill="black"/>
<path d="M7.16667 12.0417C6.86751 12.0417 6.625 12.2842 6.625 12.5833C6.625 12.8825 6.86751 13.125 7.16667 13.125H10.9167C11.2158 13.125 11.4583 12.8825 11.4583 12.5833C11.4583 12.2842 11.2158 12.0417 10.9167 12.0417H7.16667Z" fill="black"/>
<path fill-rule="evenodd" clip-rule="evenodd" d="M4.66667 3C3.74619 3 3 3.74619 3 4.66667V14.6667C3 15.5871 3.74619 16.3333 4.66667 16.3333H14.6667C15.5871 16.3333 16.3333 15.5871 16.3333 14.6667V4.66667C16.3333 3.74619 15.5871 3 14.6667 3H4.66667ZM4.79167 4.08333C4.40047 4.08333 4.08333 4.40046 4.08333 4.79167C4.08333 5.18287 4.40047 5.5 4.79167 5.5H14.5417C14.9329 5.5 15.25 5.18287 15.25 4.79167C15.25 4.40046 14.9329 4.08333 14.5417 4.08333H4.79167ZM4.08333 7.41667C4.08333 6.95643 4.45643 6.58333 4.91667 6.58333H14.4167C14.8769 6.58333 15.25 6.95643 15.25 7.41667V14.4167C15.25 14.8769 14.8769 15.25 14.4167 15.25H4.91667C4.45643 15.25 4.08333 14.8769 4.08333 14.4167V7.41667Z" fill="black"/>
</svg>
