<svg width="48" height="48" viewBox="0 0 48 48" fill="none" xmlns="http://www.w3.org/2000/svg">
<path fill-rule="evenodd" clip-rule="evenodd" d="M12.1817 10.6538C13.158 10.516 14.5948 10.6137 15.731 11.2617C16.6032 11.7591 17.4098 12.6381 17.6368 14.3076H14C11.7909 14.3076 10 16.0984 10 18.3076V36.0006C10 38.2098 11.7909 40.0006 14 40.0006H34C36.2091 40.0006 38 38.2098 38 36.0006V18.3076C38 16.5535 36.871 15.0632 35.3 14.5236V11.0548C35.3 9.95021 34.4046 9.05478 33.3 9.05478H25.7C24.5954 9.05478 23.7 9.95021 23.7 11.0548V14.3076H20.2533C19.9961 11.6693 18.7037 9.96399 17.019 9.00319C15.2385 7.98769 13.1753 7.88778 11.8183 8.07935C11.1074 8.17972 10.6124 8.83739 10.7128 9.54831C10.8131 10.2592 11.4708 10.7542 12.1817 10.6538ZM32.7 12.7748V14.3076H26.3V12.7748C26.3 12.1562 26.8014 11.6548 27.42 11.6548H31.58C32.1986 11.6548 32.7 12.1562 32.7 12.7748ZM18.8264 21.1428C18.2722 20.6864 17.4529 20.7657 16.9965 21.3199C16.5401 21.8741 16.6194 22.6934 17.1736 23.1498L21.955 27.0873L17.1736 31.0247C16.6194 31.4811 16.5401 32.3004 16.9965 32.8546C17.4529 33.4089 18.2722 33.4882 18.8264 33.0318L24 28.7713L29.1736 33.0318C29.7278 33.4882 30.5471 33.4089 31.0035 32.8546C31.4599 32.3004 31.3806 31.4811 30.8264 31.0247L26.045 27.0873L30.8264 23.1498C31.3806 22.6934 31.4599 21.8741 31.0035 21.3199C30.5471 20.7657 29.7278 20.6864 29.1736 21.1428L24 25.4032L18.8264 21.1428Z" fill="black"/>
</svg>
