<svg width="16" height="16" viewBox="0 0 16 16" fill="none" xmlns="http://www.w3.org/2000/svg">
<path fill-rule="evenodd" clip-rule="evenodd" d="M6.65488 4.06238L7.28162 3.43564C7.86247 2.85479 8.8042 2.85479 9.38505 3.43564L13.231 7.28161C13.8119 7.86246 13.8119 8.80419 13.231 9.38504L9.38505 13.231C8.8042 13.8119 7.86247 13.8119 7.28162 13.231L3.43564 9.38504C2.85479 8.80419 2.85479 7.86246 3.43564 7.28161L6.02814 4.68911L7.68669 6.31757C7.67359 6.37629 7.66667 6.43733 7.66667 6.49999C7.66667 6.72829 7.75846 6.93514 7.90719 7.08565V10.4504C7.66333 10.5958 7.5 10.8621 7.5 11.1667C7.5 11.6269 7.87309 12 8.33333 12C8.79358 12 9.16667 11.6269 9.16667 11.1667C9.16667 10.8681 9.00972 10.6063 8.77384 10.4591V7.41653L10.0156 8.67182C10.0054 8.72407 10 8.77807 10 8.83332C10 9.29357 10.3731 9.66665 10.8333 9.66665C11.2936 9.66665 11.6667 9.29357 11.6667 8.83332C11.6667 8.37309 11.2936 7.99999 10.8333 7.99999C10.7531 7.99999 10.6756 8.01132 10.6022 8.03246L9.30395 6.72009C9.32312 6.64998 9.33333 6.57618 9.33333 6.49999C9.33333 6.03976 8.96025 5.66666 8.5 5.66666C8.42696 5.66666 8.35612 5.67606 8.28862 5.69371L6.65488 4.06238Z" fill="black"/>
</svg>
