<svg width="24" height="24" viewBox="0 0 24 24" fill="none" xmlns="http://www.w3.org/2000/svg">
<path fill-rule="evenodd" clip-rule="evenodd" d="M8.44666 8.3C8.3639 8.3 8.28382 8.32933 8.22063 8.38277L6.42496 9.90163H9.53078C10.3746 9.90163 11.0705 10.5351 11.1689 11.3525H12.8331C12.9314 10.5351 13.6273 9.90163 14.4712 9.90163H17.577L15.7813 8.38277C15.7181 8.32933 15.638 8.3 15.5553 8.3H13.9612C13.6022 8.3 13.3112 8.00899 13.3112 7.65C13.3112 7.29101 13.6022 7 13.9612 7H15.5553C15.9454 7 16.323 7.13826 16.6209 7.39022L19.6477 9.9505C19.8724 10.1405 20.0019 10.4198 20.0019 10.714V15.3549C20.0019 16.2662 19.2632 17.0049 18.3519 17.0049H14.4712C13.5599 17.0049 12.8212 16.2662 12.8212 15.3549V12.6525H11.1808V15.3549C11.1808 16.2662 10.442 17.0049 9.53078 17.0049H5.65C4.73873 17.0049 4 16.2662 4 15.3549V10.714C4 10.4198 4.12956 10.1405 4.3542 9.9505L7.38108 7.39022C7.67897 7.13826 8.0565 7 8.44666 7H10.0407C10.3997 7 10.6907 7.29101 10.6907 7.65C10.6907 8.00899 10.3997 8.3 10.0407 8.3H8.44666Z" fill="black"/>
</svg>
