<svg width="48" height="48" viewBox="0 0 48 48" fill="none" xmlns="http://www.w3.org/2000/svg">
<path fill-rule="evenodd" clip-rule="evenodd" d="M23.8022 26.2435C23.8022 27.3268 22.9179 28.205 21.827 28.205C20.736 28.205 19.8517 27.3268 19.8517 26.2435C19.8517 25.1602 20.736 24.282 21.827 24.282C22.9179 24.282 23.8022 25.1602 23.8022 26.2435Z" fill="black"/>
<path fill-rule="evenodd" clip-rule="evenodd" d="M25.2742 17.0751C23.5892 16.0584 21.3278 16.4239 20.0775 18.0633L17.5281 21.406C14.9139 21.0981 12.2983 21.8617 10.412 23.7349C6.9407 27.182 7.25337 33.0813 11.1103 36.9113C14.9673 40.7414 20.908 41.0519 24.3793 37.6048C26.3524 35.6456 27.1029 32.894 26.675 30.1805L29.8525 27.9494C31.6234 26.7059 32.0178 24.3253 30.8818 22.6026L39.4215 14.1225C40.1928 13.3565 40.1928 12.1145 39.4215 11.3485L36.628 8.57451C35.8566 7.8085 34.6059 7.8085 33.8345 8.57451L25.2742 17.0751ZM37.1283 12.7355L35.3802 14.4714L33.4832 12.5876L35.2312 10.8517L37.1283 12.7355ZM33.5353 16.3035L31.6382 14.4197L25.6673 20.3489L23.931 19.3012C23.3476 18.9492 22.5664 19.0873 22.1449 19.64L19.388 23.2548C18.9593 23.8168 18.2658 24.1108 17.5638 24.0282L17.224 23.9881C15.3004 23.7616 13.5023 24.3303 12.244 25.5798C9.9766 27.8314 9.91973 32.0649 12.9424 35.0664C15.9712 38.0741 20.2661 38.0253 22.5473 35.7599C23.8596 34.4568 24.4204 32.5744 24.1068 30.5855L24.0485 30.216C23.9296 29.4621 24.2502 28.7063 24.8748 28.2677L28.3584 25.8216C28.9562 25.4018 29.088 24.6053 28.7112 24.034L27.5396 22.2573L33.5353 16.3035Z" fill="black"/>
</svg>
