<svg width="20" height="20" viewBox="0 0 20 20" fill="none" xmlns="http://www.w3.org/2000/svg">
<path fill-rule="evenodd" clip-rule="evenodd" d="M10.8256 4.15257C11.499 4.32608 12.1137 4.6273 12.4851 4.9253L12.5081 4.94375L16.1502 8.58211C16.394 8.82573 16.3944 9.22096 16.151 9.46505L14.7328 10.8873C14.4889 11.1319 14.0928 11.1319 13.8489 10.8873L12.5726 9.60737C12.4615 9.49603 12.2822 9.49603 12.1711 9.60737L8.62842 13.1601C8.60673 13.1818 8.58862 13.207 8.57484 13.2347L8.31097 13.7639C8.24532 13.8956 8.1589 14.0158 8.055 14.12L6.29437 15.8856L6.29183 15.8892C5.95789 16.5589 5.06591 16.705 4.53666 16.1743L3.32046 14.9547C2.79305 14.4258 2.93645 13.5339 3.60514 13.1986L3.6083 13.1963L5.32583 11.4739C5.47591 11.3234 5.65898 11.2099 5.86061 11.1425L6.64192 10.8814C6.68367 10.8674 6.72174 10.8438 6.75307 10.8124L10.3332 7.22217C10.3662 7.1891 10.376 7.16641 10.3781 7.15974C10.4528 6.92486 10.4471 6.76211 10.4176 6.65254C10.3888 6.54556 10.3272 6.4508 10.2221 6.365C9.99484 6.17951 9.57608 6.05191 9.0412 6.06058C8.52051 6.06902 7.99223 5.66887 7.99223 5.05813C7.99223 4.70542 8.19209 4.31911 8.59918 4.17513C9.3404 3.91296 10.1515 3.97888 10.8256 4.15257ZM10.0875 5.11044C10.3897 5.19844 10.6715 5.33347 10.9071 5.52575C11.1663 5.73736 11.369 6.01936 11.4636 6.37104C11.5576 6.72011 11.5345 7.09791 11.4105 7.48801C11.3446 7.69516 11.2255 7.86146 11.1003 7.98708L7.52014 11.5773C7.37006 11.7278 7.18698 11.8413 6.98535 11.9087L6.20405 12.1699C6.1623 12.1839 6.12422 12.2074 6.0929 12.2388L4.37538 13.9612C4.29218 14.0446 4.19606 14.1141 4.0907 14.167C4.08822 14.1682 4.08692 14.1693 4.08692 14.1693L4.08613 14.1702C4.08613 14.1702 4.08423 14.1734 4.08363 14.1771C4.08303 14.1808 4.08387 14.1847 4.08387 14.1847L4.08447 14.1861C4.08447 14.1861 4.08549 14.1877 4.08753 14.1897L5.30373 15.4094C5.30577 15.4114 5.30719 15.4123 5.30719 15.4123C5.30719 15.4123 5.31046 15.4132 5.31348 15.4127C5.31651 15.4122 5.31902 15.4107 5.31902 15.4107L5.31981 15.41C5.31981 15.41 5.32103 15.4085 5.32237 15.4058C5.37492 15.3004 5.4441 15.2041 5.52729 15.1207L7.28793 13.3551C7.30962 13.3334 7.32772 13.3082 7.34151 13.2805L7.60538 12.7513C7.67103 12.6196 7.75744 12.4994 7.86135 12.3952L11.4041 8.84246C11.9384 8.30663 12.8053 8.30663 13.3396 8.84246L14.1433 9.64841C14.2247 9.73005 14.357 9.73005 14.4384 9.64841L14.9134 9.17201C14.9946 9.09059 14.9945 8.95879 14.9131 8.87753L11.7861 5.75364C11.4105 5.4669 11.0976 5.34131 10.5553 5.20159C10.3996 5.16147 10.2428 5.13058 10.0875 5.11044Z" fill="black"/>
</svg>
