<svg width="48" height="48" viewBox="0 0 48 48" fill="none" xmlns="http://www.w3.org/2000/svg">
<path fill-rule="evenodd" clip-rule="evenodd" d="M29.0657 15.269C28.6421 13.9533 27.394 13 25.9203 13H22.0797C20.606 13 19.3579 13.9533 18.9343 15.269H14.2793C12.0752 15.269 10.2799 17.2421 10.2799 18.9193C9.02072 18.9193 8 19.9264 8 21.1687V25.1541C8 26.3965 9.02071 27.4036 10.2798 27.4036V31.0538C10.2798 33.2332 12.0705 35 14.2793 35H18.7253C19.6039 35 20.458 34.7145 21.1558 34.1877L22.7847 32.9579C23.5019 32.4164 24.498 32.4164 25.2152 32.9579L26.8442 34.1877C27.5419 34.7145 28.3961 35 29.2747 35H33.7206C35.9295 35 37.7201 33.2332 37.7201 31.0538L37.7201 27.4036C38.9793 27.4036 40 26.3965 40 25.1541V21.1687C40 19.9264 38.9793 18.9193 37.7201 18.9193C37.7201 17.2421 35.9295 15.269 33.7206 15.269H29.0657ZM16.1599 21.1883C15.4421 21.1883 14.8601 21.7625 14.8601 22.4708C14.8601 23.1792 15.4421 23.7534 16.1599 23.7534H31.8401C32.558 23.7534 33.1399 23.1792 33.1399 22.4708C33.1399 21.7625 32.558 21.1883 31.8401 21.1883H16.1599Z" fill="black"/>
</svg>
