<svg width="32" height="32" viewBox="0 0 32 32" fill="none" xmlns="http://www.w3.org/2000/svg">
<path fill-rule="evenodd" clip-rule="evenodd" d="M8 13.1671C8 14.1542 8.53628 15.016 9.33337 15.4771V16.8236C9.33337 17.993 10.0861 18.9866 11.1334 19.3464V24.1315C11.1334 25.6376 12.6125 26.6984 14.039 26.2154L19.3725 24.4098C20.2658 24.1073 20.867 23.2691 20.867 22.3259V19.3464C21.9144 18.9866 22.6671 17.993 22.6671 16.8236V15.4771C23.4642 15.016 24.0005 14.1542 24.0005 13.1671V7.66674C24.0005 6.19394 22.8065 5 21.3337 5H10.6667C9.19394 5 8 6.19394 8 7.66675V13.1671ZM22.2671 13.1671V7.66674C22.2671 7.15126 21.8492 6.73338 21.3337 6.73338H10.6667C10.1513 6.73338 9.73338 7.15126 9.73338 7.66675V13.1671C9.73338 13.6054 10.0354 13.9731 10.4427 14.0734H21.5577C21.965 13.9731 22.2671 13.6054 22.2671 13.1671ZM19.1337 19.4904H12.8668V24.1315C12.8668 24.451 13.1806 24.676 13.4831 24.5736L18.8166 22.7679C19.0061 22.7038 19.1337 22.526 19.1337 22.3259V19.4904ZM11.0668 16.8236V15.8339H20.9337V16.8236C20.9337 17.3391 20.5158 17.757 20.0003 17.757H12.0001C11.4846 17.757 11.0668 17.3391 11.0668 16.8236Z" fill="black"/>
</svg>
