<svg width="32" height="32" viewBox="0 0 32 32" fill="none" xmlns="http://www.w3.org/2000/svg">
<path d="M25.1774 10.9681L17.1774 5.46914C16.2674 4.84362 15.0659 4.84362 14.1559 5.46914L6.15592 10.9681C5.43231 11.4655 5 12.2872 5 13.1652V22.4274C5 24.6361 6.79086 26.4267 9 26.4267H12.3333C13.0697 26.4267 13.6667 25.8298 13.6667 25.0936V21.0943C13.6667 20.3581 14.2636 19.7612 15 19.7612H16.3333C17.0697 19.7612 17.6667 20.3581 17.6667 21.0943V25.0936C17.6667 25.8298 18.2636 26.4267 19 26.4267H22.3333C24.5425 26.4267 26.3333 24.6361 26.3333 22.4274V13.1652C26.3333 12.2872 25.901 11.4655 25.1774 10.9681Z" fill="black"/>
</svg>
