<svg width="16" height="16" viewBox="0 0 16 16" fill="none" xmlns="http://www.w3.org/2000/svg">
<path d="M10.3251 5.5822C10.3038 5.86232 10.0678 6.07882 9.78376 6.07882H6.34813C6.24957 6.07882 6.17195 6.16193 6.17975 6.25911L6.23499 6.94739C6.2419 7.03338 6.31384 7.10003 6.40104 7.10122L9.81338 7.14784C10.0101 7.15053 10.1629 7.3183 10.1451 7.51212L9.89904 10.1968C9.88628 10.3361 9.78718 10.4528 9.6507 10.4892L7.75475 10.9957C7.69706 11.0111 7.63627 11.0111 7.57858 10.9957L5.68142 10.4889C5.54553 10.4526 5.44664 10.3368 5.43323 10.1982L5.3488 9.3262C5.31821 9.01029 5.56932 8.73698 5.89017 8.73698C6.17013 8.73698 6.40435 8.9472 6.43146 9.22281L6.45426 9.45448C6.46106 9.52361 6.51039 9.58136 6.57816 9.59954L7.62194 9.87954C7.65122 9.88739 7.68209 9.8873 7.71132 9.87928L8.7315 9.59925C8.79745 9.58115 8.84583 9.52548 8.85403 9.45828L8.98144 8.41391C8.99358 8.31443 8.91506 8.22683 8.81375 8.22683H5.54784C5.3722 8.22683 5.22587 8.09371 5.2112 7.9206L4.99484 5.36685C4.97833 5.17199 5.13378 5.00481 5.33147 5.00481H9.78376C10.0997 5.00481 10.3489 5.27059 10.3251 5.5822Z" fill="black"/>
<path fill-rule="evenodd" clip-rule="evenodd" d="M3.00271 3.72747C2.96756 3.33657 3.27891 3 3.67568 3H11.6577C12.0544 3 12.3658 3.33657 12.3306 3.72747L11.572 12.1636C11.5472 12.4402 11.352 12.6727 11.0818 12.7478L7.86356 13.6418C7.74453 13.6748 7.61861 13.675 7.49951 13.6421L4.2528 12.7472C3.98192 12.6725 3.78611 12.4397 3.7612 12.1627L3.00271 3.72747ZM4.73619 11.9786C4.66847 11.9599 4.61952 11.9017 4.61329 11.8324L3.91355 4.05062C3.90476 3.95289 3.9826 3.86875 4.08179 3.86875H11.2515C11.3507 3.86875 11.4286 3.95289 11.4198 4.05062L10.7199 11.834C10.7137 11.9031 10.6649 11.9612 10.5973 11.98L7.72616 12.7776C7.69641 12.7858 7.66493 12.7859 7.63515 12.7777L4.73619 11.9786Z" fill="black"/>
</svg>
