<svg width="24" height="24" viewBox="0 0 24 24" fill="none" xmlns="http://www.w3.org/2000/svg">
<path d="M9.55463 5.05584C9.09055 4.89293 8.57874 5.09648 8.34676 5.53623L6.03733 9.9141C5.86772 10.2356 5.98672 10.636 6.30311 10.8083C6.6195 10.9807 7.01348 10.8598 7.18309 10.5383L9.17048 6.77086C9.28647 6.55099 9.54237 6.44921 9.77441 6.53066L11.8377 7.25496C11.9434 7.29209 12.0584 7.29209 12.1642 7.25496L14.2274 6.53066C14.4595 6.44921 14.7154 6.55099 14.8314 6.77086L16.8188 10.5383C16.9884 10.8598 17.3823 10.9807 17.6987 10.8083C18.0151 10.636 18.1341 10.2356 17.9645 9.9141L15.6551 5.53623C15.4231 5.09648 14.9113 4.89293 14.4472 5.05584L12.3274 5.79998C12.1159 5.87424 11.8859 5.87424 11.6744 5.79998L9.55463 5.05584Z" fill="black"/>
<path d="M4 11.7745C4 11.4097 4.29101 11.114 4.65 11.114H19.3519C19.7109 11.114 20.0019 11.4097 20.0019 11.7745C20.0019 12.1393 19.7109 12.435 19.3519 12.435H4.65C4.29101 12.435 4 12.1393 4 11.7745Z" fill="black"/>
<path fill-rule="evenodd" clip-rule="evenodd" d="M10.9872 16.3732C10.7722 17.8605 9.5527 19 8.08044 19C6.45651 19 5.14005 17.6136 5.14005 15.9034C5.14005 14.1931 6.45651 12.8067 8.08044 12.8067C9.35689 12.8067 10.4434 13.6633 10.8499 14.8604C11.0836 14.7401 11.3481 14.6432 11.6356 14.594C12.1223 14.5106 12.6471 14.5697 13.1588 14.8406C13.5706 13.6538 14.6521 12.8067 15.9215 12.8067C17.5454 12.8067 18.8618 14.1931 18.8618 15.9034C18.8618 17.6136 17.5454 19 15.9215 19C14.4492 19 13.2297 17.8605 13.0147 16.3732L13.0035 16.3617C12.5633 15.8984 12.1657 15.8428 11.8517 15.8966C11.4935 15.958 11.1717 16.1793 10.9984 16.3617L10.9872 16.3732ZM8.08044 17.6789C8.94305 17.6789 9.72083 16.9288 9.72083 15.9034C9.72083 14.8779 8.94305 14.1278 8.08044 14.1278C7.21783 14.1278 6.44005 14.8779 6.44005 15.9034C6.44005 16.9288 7.21783 17.6789 8.08044 17.6789ZM15.9215 17.6789C16.7841 17.6789 17.5618 16.9288 17.5618 15.9034C17.5618 14.8779 16.7841 14.1278 15.9215 14.1278C15.0589 14.1278 14.2811 14.8779 14.2811 15.9034C14.2811 16.9288 15.0589 17.6789 15.9215 17.6789Z" fill="black"/>
</svg>
