<svg width="24" height="24" viewBox="0 0 24 24" fill="none" xmlns="http://www.w3.org/2000/svg">
<path d="M12.75 8.25C12.75 8.66421 12.4142 9 12 9C11.5858 9 11.25 8.66421 11.25 8.25C11.25 7.83579 11.5858 7.5 12 7.5C12.4142 7.5 12.75 7.83579 12.75 8.25Z" fill="black"/>
<path d="M12.65 10.5C12.65 10.141 12.359 9.85 12 9.85C11.641 9.85 11.35 10.141 11.35 10.5V16.5C11.35 16.859 11.641 17.15 12 17.15C12.359 17.15 12.65 16.859 12.65 16.5V10.5Z" fill="black"/>
<path fill-rule="evenodd" clip-rule="evenodd" d="M12 20C16.4183 20 20 16.4183 20 12C20 7.58172 16.4183 4 12 4C7.58172 4 4 7.58172 4 12C4 16.4183 7.58172 20 12 20ZM12 18.7C15.7003 18.7 18.7 15.7003 18.7 12C18.7 8.29969 15.7003 5.3 12 5.3C8.29969 5.3 5.3 8.29969 5.3 12C5.3 15.7003 8.29969 18.7 12 18.7Z" fill="black"/>
</svg>
