<svg width="16" height="16" viewBox="0 0 16 16" fill="none" xmlns="http://www.w3.org/2000/svg">
<path d="M8.83333 5.83333C8.83333 6.10948 8.60948 6.33333 8.33333 6.33333C8.05719 6.33333 7.83333 6.10948 7.83333 5.83333C7.83333 5.55719 8.05719 5.33333 8.33333 5.33333C8.60948 5.33333 8.83333 5.55719 8.83333 5.83333Z" fill="black"/>
<path d="M8.76667 7.33333C8.76667 7.09401 8.57266 6.9 8.33333 6.9C8.09401 6.9 7.9 7.09401 7.9 7.33333V11.3333C7.9 11.5727 8.09401 11.7667 8.33333 11.7667C8.57266 11.7667 8.76667 11.5727 8.76667 11.3333V7.33333Z" fill="black"/>
<path fill-rule="evenodd" clip-rule="evenodd" d="M8.33333 13.6667C11.2789 13.6667 13.6667 11.2789 13.6667 8.33333C13.6667 5.38781 11.2789 3 8.33333 3C5.38781 3 3 5.38781 3 8.33333C3 11.2789 5.38781 13.6667 8.33333 13.6667ZM8.33333 12.8C10.8002 12.8 12.8 10.8002 12.8 8.33333C12.8 5.86646 10.8002 3.86667 8.33333 3.86667C5.86646 3.86667 3.86667 5.86646 3.86667 8.33333C3.86667 10.8002 5.86646 12.8 8.33333 12.8Z" fill="black"/>
</svg>
