<svg width="24" height="24" viewBox="0 0 24 24" fill="none" xmlns="http://www.w3.org/2000/svg">
<path fill-rule="evenodd" clip-rule="evenodd" d="M12.2447 7.5571C11.7905 7.19048 11.5 6.62916 11.5 6C11.5 4.89543 12.3954 4 13.5 4C14.6046 4 15.5 4.89543 15.5 6C15.5 7.10457 14.6046 8 13.5 8L13.4768 7.99987L12.8233 9.30687C13.629 9.7035 14.2308 10.451 14.4294 11.35H15.608C15.8778 10.5645 16.623 10 17.5 10C18.6046 10 19.5 10.8954 19.5 12C19.5 13.1046 18.6046 14 17.5 14C16.623 14 15.8778 13.4355 15.608 12.65H14.4294C14.2308 13.549 13.629 14.2965 12.8233 14.6931L13.4768 16.0001L13.5 16C14.6046 16 15.5 16.8954 15.5 18C15.5 19.1046 14.6046 20 13.5 20C12.3954 20 11.5 19.1046 11.5 18C11.5 17.3708 11.7905 16.8095 12.2447 16.4429L11.5232 14.9999L11.5 15C10.7624 15 10.087 14.7338 9.56459 14.2923L8.36959 15.2881C8.45386 15.5093 8.5 15.7493 8.5 16C8.5 17.1046 7.60457 18 6.5 18C5.39543 18 4.5 17.1046 4.5 16C4.5 14.8954 5.39543 14 6.5 14C6.87973 14 7.23474 14.1058 7.53715 14.2896L8.77553 13.2576C8.59868 12.8751 8.5 12.4491 8.5 12C8.5 11.4807 8.63195 10.9922 8.86415 10.5662L7.70255 9.59823C7.36785 9.85047 6.95139 10 6.5 10C5.39543 10 4.5 9.10457 4.5 8C4.5 6.89543 5.39543 6 6.5 6C7.60457 6 8.5 6.89543 8.5 8C8.5 8.17799 8.47675 8.35056 8.43312 8.51482L9.71851 9.58598C10.2167 9.21772 10.8329 9 11.5 9L11.5232 9.00009L12.2447 7.5571Z" fill="black"/>
</svg>
