<svg width="32" height="32" viewBox="0 0 32 32" fill="none" xmlns="http://www.w3.org/2000/svg">
<path fill-rule="evenodd" clip-rule="evenodd" d="M16.8667 13.9059C18.6591 13.5099 20 11.9115 20 10C20 7.79086 18.2091 6 16 6C13.7909 6 12 7.79086 12 10C12 11.9115 13.3409 13.5099 15.1333 13.9059V17.3333H14.2979C13.0288 17.3333 12 18.1392 12 19.1333V19.8973H20V19.1333C20 18.1392 18.9712 17.3333 17.7021 17.3333H16.8667V13.9059Z" fill="black"/>
<path d="M9.33333 20.6667C8.59695 20.6667 8 21.2636 8 22V24.6667C8 25.403 8.59695 26 9.33333 26H22.6667C23.403 26 24 25.403 24 24.6667V22C24 21.2636 23.403 20.6667 22.6667 20.6667H9.33333Z" fill="black"/>
</svg>
