<svg width="28" height="28" viewBox="0 0 28 28" fill="none" xmlns="http://www.w3.org/2000/svg">
<path d="M13.4432 6.3783C13.0078 5.90328 12.2698 5.87128 11.7949 6.30683C11.32 6.74239 11.288 7.48055 11.7234 7.95558L16.3474 12.9997H6.16667C5.52233 12.9997 5 13.5222 5 14.1667C5 14.8111 5.52233 15.3336 6.16667 15.3336H16.3474L11.7234 20.3778C11.288 20.8528 11.32 21.5909 11.7949 22.0265C12.2698 22.4621 13.0078 22.4301 13.4432 21.955L19.8599 14.9553C20.2689 14.5091 20.2689 13.8242 19.8599 13.378L13.4432 6.3783Z" fill="black"/>
<path d="M23.6667 7.16694C23.6667 6.52246 23.1443 6.00001 22.5 6.00001C21.8557 6.00001 21.3333 6.52246 21.3333 7.16694V21.1664C21.3333 21.8109 21.8557 22.3333 22.5 22.3333C23.1443 22.3333 23.6667 21.8109 23.6667 21.1664V7.16694Z" fill="black"/>
</svg>
