<svg width="20" height="20" viewBox="0 0 20 20" fill="none" xmlns="http://www.w3.org/2000/svg">
<path fill-rule="evenodd" clip-rule="evenodd" d="M9.30115 9.90001L3.45181 7.1721C2.8494 6.89116 2.8494 6.08933 3.45181 5.80839L9.30115 3.08048C9.53125 2.97317 9.80209 2.97317 10.0322 3.08048L15.8815 5.80839C16.4839 6.08933 16.4839 6.89116 15.8815 7.1721L10.0322 9.90001C9.80209 10.0073 9.53125 10.0073 9.30115 9.90001Z" fill="black"/>
<path d="M4.60696 8.65785L3.45181 9.19657C2.8494 9.47751 2.8494 10.2793 3.45181 10.5603L9.30115 13.2882C9.53125 13.3955 9.80209 13.3955 10.0322 13.2882L15.8815 10.5603C16.4839 10.2793 16.4839 9.47751 15.8815 9.19657L14.7264 8.65785L13.4064 9.27342L14.5413 9.80267C14.6082 9.83388 14.6082 9.92297 14.5413 9.95419L9.70728 12.2086C9.68171 12.2205 9.65162 12.2205 9.62605 12.2086L4.79205 9.95419C4.72512 9.92297 4.72512 9.83388 4.79205 9.80267L5.9269 9.27341L4.60696 8.65785Z" fill="black"/>
<path d="M4.15289 11.8343L5.47283 12.4498L4.79205 12.7673C4.72512 12.7985 4.72512 12.8876 4.79205 12.9188L9.62605 15.1732C9.65162 15.1852 9.68171 15.1852 9.70728 15.1732L14.5413 12.9188C14.6082 12.8876 14.6082 12.7985 14.5413 12.7673L13.8605 12.4498L15.1804 11.8343L15.8815 12.1612C16.4839 12.4422 16.4839 13.244 15.8815 13.5249L10.0322 16.2529C9.80209 16.3602 9.53125 16.3602 9.30115 16.2529L3.45181 13.5249C2.8494 13.244 2.8494 12.4422 3.45181 12.1612L4.15289 11.8343Z" fill="black"/>
</svg>
