<svg width="20" height="20" viewBox="0 0 20 20" fill="none" xmlns="http://www.w3.org/2000/svg">
<path d="M4.35879 7.65323C5.07478 7.16345 5.89999 7 6.39997 7H8.03332C8.33244 7 8.57492 7.24254 8.57492 7.54172C8.57492 7.8409 8.33244 8.08344 8.03332 8.08344H6.39997C6.08326 8.08344 5.47929 8.19932 4.97027 8.54752C4.48971 8.87625 4.0832 9.4147 4.0832 10.335C4.0832 11.2553 4.48971 11.7937 4.97027 12.1225C5.47929 12.4707 6.08326 12.5865 6.39997 12.5865H8.03332C8.33244 12.5865 8.57492 12.8291 8.57492 13.1283C8.57492 13.4274 8.33244 13.67 8.03332 13.67H6.39997C5.89999 13.67 5.07478 13.5065 4.35879 13.0167C3.61434 12.5075 3 11.6493 3 10.335C3 9.02065 3.61434 8.16247 4.35879 7.65323Z" fill="black"/>
<path d="M14.9745 13.0168C14.2586 13.5066 13.4333 13.67 12.9334 13.67H11.3C11.0009 13.67 10.7584 13.4275 10.7584 13.1283C10.7584 12.8291 11.0009 12.5866 11.3 12.5866L12.9334 12.5866C13.2501 12.5866 13.854 12.4707 14.3631 12.1225C14.8436 11.7937 15.2501 11.2553 15.2501 10.335C15.2501 9.41473 14.8436 8.87628 14.3631 8.54755C13.854 8.19935 13.2501 8.08346 12.9334 8.08346L11.3 8.08346C11.0009 8.08346 10.7584 7.84093 10.7584 7.54175C10.7584 7.24256 11.0009 7.00003 11.3 7.00003L12.9334 7.00003C13.4333 7.00003 14.2586 7.16347 14.9745 7.65325C15.719 8.1625 16.3333 9.02068 16.3333 10.335C16.3333 11.6493 15.719 12.5075 14.9745 13.0168Z" fill="black"/>
<path d="M6.39994 9.7933C6.10083 9.7933 5.85834 10.0358 5.85834 10.335C5.85834 10.6342 6.10083 10.8767 6.39994 10.8767H12.9333C13.2325 10.8767 13.475 10.6342 13.475 10.335C13.475 10.0358 13.2325 9.7933 12.9333 9.7933H6.39994Z" fill="black"/>
</svg>
