<svg width="20" height="20" viewBox="0 0 20 20" fill="none" xmlns="http://www.w3.org/2000/svg">
<path fill-rule="evenodd" clip-rule="evenodd" d="M6.95833 6.72372V5.92292C6.95833 4.30864 8.32013 3 10 3C11.6799 3 13.0417 4.30864 13.0417 5.92292V6.72372H13.3333C14.2538 6.72372 15 7.44079 15 8.32533V14.7317C15 15.6163 14.2538 16.3333 13.3333 16.3333H6.66667C5.74619 16.3333 5 15.6163 5 14.7317V8.32533C5 7.44079 5.74619 6.72372 6.66667 6.72372H6.95833ZM8.04167 5.92292C8.04167 4.88359 8.91844 4.04104 10 4.04104C11.0816 4.04104 11.9583 4.88359 11.9583 5.92292V6.72372H8.04167V5.92292ZM10.8333 11.5285C10.8333 11.9708 10.4602 12.3293 10 12.3293C9.53976 12.3293 9.16667 11.9708 9.16667 11.5285C9.16667 11.0863 9.53976 10.7277 10 10.7277C10.4602 10.7277 10.8333 11.0863 10.8333 11.5285Z" fill="black"/>
</svg>
