<svg width="48" height="48" viewBox="0 0 48 48" fill="none" xmlns="http://www.w3.org/2000/svg">
<path fill-rule="evenodd" clip-rule="evenodd" d="M16 8C11.5817 8 8 11.5817 8 16V32C8 36.4183 11.5817 40 16 40H28L26.9623 37.4C26.4653 36.0177 26.1748 34.5155 26.0087 33.0888C26.0006 33.0192 25.9928 32.9495 25.9852 32.8799L25.907 32.8932C22.9375 33.3867 19.3712 32.6656 15.6678 29.3737C15.4614 29.1902 15.4428 28.8742 15.6263 28.6678C15.8098 28.4614 16.1258 28.4428 16.3322 28.6263C19.8288 31.7344 23.0959 32.3466 25.743 31.9068C25.7938 31.8983 25.8443 31.8895 25.8946 31.8803C25.7627 30.0848 25.7951 28.3392 25.8994 26.9154H22C21.282 26.9154 20.7 26.3334 20.7 25.6154C20.7 22.8431 21.3972 18.9058 22.2317 15.1955C22.5882 13.6102 22.9749 12.0452 23.3534 10.6L24 8H16ZM31 40H32C36.4183 40 40 36.4183 40 32V16C40 11.5817 36.4183 8 32 8H26.75L26.0427 10.6C25.6172 12.1942 25.1728 13.9675 24.7683 15.766C24.0723 18.8608 23.5134 21.9492 23.3491 24.3154H27.3333C28.1165 24.3154 28.7219 25.0028 28.6229 25.7797C28.4581 27.0727 28.344 29.0003 28.4473 31.0401C29.832 30.3707 30.9263 29.4678 31.6237 28.6707C31.8056 28.4629 32.1214 28.4419 32.3293 28.6237C32.5371 28.8056 32.5581 29.1214 32.3763 29.3293C31.5413 30.2835 30.2117 31.3614 28.5215 32.1075C28.5417 32.3343 28.5649 32.5614 28.5913 32.7881C28.7966 34.5521 29.1813 36.1544 29.772 37.4L31 40ZM17.5 18C17.5 17.7239 17.2761 17.5 17 17.5C16.7239 17.5 16.5 17.7239 16.5 18V20C16.5 20.2761 16.7239 20.5 17 20.5C17.2761 20.5 17.5 20.2761 17.5 20V18ZM31.5 18C31.5 17.7239 31.2761 17.5 31 17.5C30.7239 17.5 30.5 17.7239 30.5 18V20C30.5 20.2761 30.7239 20.5 31 20.5C31.2761 20.5 31.5 20.2761 31.5 20V18Z" fill="black"/>
</svg>
