<svg width="48" height="48" viewBox="0 0 48 48" fill="none" xmlns="http://www.w3.org/2000/svg">
<path d="M21.1876 10.5629C20.8564 10.3211 20.3998 10.5666 20.3998 10.9864V32.4839C20.3998 32.6524 20.4789 32.8104 20.6118 32.9074L26.8124 37.4337C27.1436 37.6755 27.6002 37.43 27.6002 37.0102V15.5127C27.6002 15.3442 27.5211 15.1862 27.3882 15.0892L21.1876 10.5629Z" fill="black"/>
<path d="M17.5881 32.9074C17.721 32.8104 17.8001 32.6524 17.8001 32.4839V10.9864C17.8001 10.5666 17.3435 10.3211 17.0122 10.5629L8.86597 16.5095C8.32383 16.9053 8 17.5586 8 18.2566V35.872C8 37.5803 9.80679 38.5876 11.1335 37.6191L17.5881 32.9074Z" fill="black"/>
<path d="M30.4119 15.0892C30.279 15.1862 30.1999 15.3442 30.1999 15.5127V37.0102C30.1999 37.43 30.6565 37.6755 30.9877 37.4337L39.134 31.4871C39.6762 31.0913 40 30.438 40 29.74V12.1246C40 10.4163 38.1932 9.40897 36.8665 10.3775L30.4119 15.0892Z" fill="black"/>
</svg>
