<svg width="24" height="24" viewBox="0 0 24 24" fill="none" xmlns="http://www.w3.org/2000/svg">
<path fill-rule="evenodd" clip-rule="evenodd" d="M6 7C4.89543 7 4 7.89543 4 9V15C4 16.1046 4.89543 17 6 17H18C19.1046 17 20 16.1046 20 15V9C20 7.89543 19.1046 7 18 7H6ZM15.9 10.25C15.9 9.89102 15.609 9.6 15.25 9.6C14.891 9.6 14.6 9.89102 14.6 10.25V12.1808L14.2096 11.7904C13.9558 11.5365 13.5442 11.5365 13.2904 11.7904C13.0365 12.0442 13.0365 12.4558 13.2904 12.7096L14.8964 14.3157C15.0917 14.5109 15.4083 14.5109 15.6036 14.3157L17.2096 12.7096C17.4635 12.4558 17.4635 12.0442 17.2096 11.7904C16.9558 11.5365 16.5442 11.5365 16.2904 11.7904L15.9 12.1808V10.25ZM8.15 14V11.853L8.91435 12.8084C9.21459 13.1837 9.78541 13.1837 10.0857 12.8084L10.85 11.853V14C10.85 14.359 11.141 14.65 11.5 14.65C11.859 14.65 12.15 14.359 12.15 14V10.2851C12.15 9.57612 11.2572 9.26295 10.8143 9.81656L9.5 11.4595L8.18565 9.81656C7.74277 9.26295 6.85 9.57612 6.85 10.2851V14C6.85 14.359 7.14102 14.65 7.5 14.65C7.85898 14.65 8.15 14.359 8.15 14Z" fill="black"/>
</svg>
