<svg width="28" height="28" viewBox="0 0 28 28" fill="none" xmlns="http://www.w3.org/2000/svg">
<path fill-rule="evenodd" clip-rule="evenodd" d="M19.9785 13.2918C20.7012 13.7372 20.7012 14.7499 19.9785 15.1952L6.8184 23.3055C6.03297 23.7895 5 23.2489 5 22.3537V6.13325C5 5.23812 6.03297 4.6975 6.8184 5.18154L19.9785 13.2918ZM6.51672 7.82198C6.51672 7.36544 7.01747 7.08584 7.40613 7.32536L17.826 13.7469C18.1958 13.9747 18.1958 14.5123 17.826 14.7401L7.40613 21.1616C7.01747 21.4012 6.51672 21.1216 6.51672 20.665L6.51672 7.82198Z" fill="black"/>
<path d="M23.6667 6.15544C23.6667 5.73661 23.3271 5.39708 22.9083 5.39708C22.4895 5.39708 22.1499 5.73661 22.1499 6.15544V22.9093C22.1499 23.3281 22.4895 23.6676 22.9083 23.6676C23.3271 23.6676 23.6667 23.3281 23.6667 22.9093V6.15544Z" fill="black"/>
</svg>
