<svg width="28" height="28" viewBox="0 0 28 28" fill="none" xmlns="http://www.w3.org/2000/svg">
<path fill-rule="evenodd" clip-rule="evenodd" d="M10.6667 7.33333C9.378 7.33333 8.33333 8.378 8.33333 9.66667C8.33333 10.9553 9.378 12 10.6667 12H15.3333C16.622 12 17.6667 10.9553 17.6667 9.66667C17.6667 8.378 16.622 7.33333 15.3333 7.33333H10.6667ZM15.3333 8.85H10.6667C10.2156 8.85 9.85 9.21563 9.85 9.66667C9.85 10.1177 10.2156 10.4833 10.6667 10.4833H15.3333C15.7844 10.4833 16.15 10.1177 16.15 9.66667C16.15 9.21563 15.7844 8.85 15.3333 8.85Z" fill="black"/>
<path fill-rule="evenodd" clip-rule="evenodd" d="M7.16667 5C6.52233 5 6 5.52233 6 6.16667V22.5C6 23.1443 6.52233 23.6667 7.16667 23.6667H18.8333C19.4777 23.6667 20 23.1443 20 22.5V6.16667C20 5.52233 19.4777 5 18.8333 5H7.16667ZM8.1 6.51667C7.77783 6.51667 7.51667 6.77783 7.51667 7.1V21.5667C7.51667 21.8888 7.77783 22.15 8.1 22.15H17.9C18.2222 22.15 18.4833 21.8888 18.4833 21.5667V7.1C18.4833 6.77783 18.2222 6.51667 17.9 6.51667H8.1Z" fill="black"/>
<path d="M22.3333 8.79167C22.3333 8.37285 21.9938 8.03333 21.575 8.03333C21.1562 8.03333 20.8167 8.37285 20.8167 8.79167V10.5417C20.8167 10.9605 21.1562 11.3 21.575 11.3C21.9938 11.3 22.3333 10.9605 22.3333 10.5417V8.79167Z" fill="black"/>
<path d="M21.575 12.7C21.9938 12.7 22.3333 13.0395 22.3333 13.4583V15.2083C22.3333 15.6271 21.9938 15.9667 21.575 15.9667C21.1562 15.9667 20.8167 15.6271 20.8167 15.2083V13.4583C20.8167 13.0395 21.1562 12.7 21.575 12.7Z" fill="black"/>
<path d="M22.3333 18.125C22.3333 17.7062 21.9938 17.3667 21.575 17.3667C21.1562 17.3667 20.8167 17.7062 20.8167 18.125V19.875C20.8167 20.2938 21.1562 20.6333 21.575 20.6333C21.9938 20.6333 22.3333 20.2938 22.3333 19.875V18.125Z" fill="black"/>
</svg>
