<svg width="24" height="24" viewBox="0 0 24 24" fill="none" xmlns="http://www.w3.org/2000/svg">
<path d="M11.85 15V10.4514L10.9651 11.3577C10.7143 11.6145 10.3027 11.6194 10.0459 11.3686C9.78904 11.1178 9.78414 10.7063 10.0349 10.4495L11.8642 8.57609C12.3575 8.07089 13.15 8.46184 13.15 9.10262V15C13.15 15.359 12.859 15.65 12.5 15.65C12.141 15.65 11.85 15.359 11.85 15Z" fill="black"/>
<path fill-rule="evenodd" clip-rule="evenodd" d="M20 12C20 16.4183 16.4183 20 12 20C7.58172 20 4 16.4183 4 12C4 7.58172 7.58172 4 12 4C16.4183 4 20 7.58172 20 12ZM18.7 12C18.7 15.7003 15.7003 18.7 12 18.7C8.29969 18.7 5.3 15.7003 5.3 12C5.3 8.29969 8.29969 5.3 12 5.3C15.7003 5.3 18.7 8.29969 18.7 12Z" fill="black"/>
</svg>
