<svg width="24" height="24" viewBox="0 0 24 24" fill="none" xmlns="http://www.w3.org/2000/svg">
<path fill-rule="evenodd" clip-rule="evenodd" d="M6 4C4.89543 4 4 4.89543 4 6V18C4 19.1046 4.89543 20 6 20H18C19.1046 20 20 19.1046 20 18V6C20 4.89543 19.1046 4 18 4H6ZM10 8C10 8.55228 9.55228 9 9 9C8.44772 9 8 8.55228 8 8C8 7.44772 8.44772 7 9 7C9.55228 7 10 7.44772 10 8ZM13 8C13 8.55228 12.5523 9 12 9C11.4477 9 11 8.55228 11 8C11 7.44772 11.4477 7 12 7C12.5523 7 13 7.44772 13 8ZM16 8C16 8.55228 15.5523 9 15 9C14.4477 9 14 8.55228 14 8C14 7.44772 14.4477 7 15 7C15.5523 7 16 7.44772 16 8ZM8.85 12.5C8.85 12.141 9.14102 11.85 9.5 11.85H14.5C14.859 11.85 15.15 12.141 15.15 12.5C15.15 12.859 14.859 13.15 14.5 13.15H9.5C9.14102 13.15 8.85 12.859 8.85 12.5ZM7 11C7 10.4477 7.44772 10 8 10H16C16.5523 10 17 10.4477 17 11V16C17 16.5523 16.5523 17 16 17H8C7.44772 17 7 16.5523 7 16V11ZM8.3 11.8V15.2C8.3 15.4761 8.52386 15.7 8.8 15.7H15.2C15.4761 15.7 15.7 15.4761 15.7 15.2V11.8C15.7 11.5239 15.4761 11.3 15.2 11.3H8.8C8.52386 11.3 8.3 11.5239 8.3 11.8Z" fill="black"/>
</svg>
