<svg width="24" height="24" viewBox="0 0 24 24" fill="none" xmlns="http://www.w3.org/2000/svg">
<path fill-rule="evenodd" clip-rule="evenodd" d="M16 4C17.1046 4 18 4.89543 18 6V14C18 15.1046 17.1046 16 16 16H14V18C14 19.1046 13.1046 20 12 20C10.8954 20 10 19.1046 10 18V16H8C6.89543 16 6 15.1046 6 14V6C6 4.89543 6.89543 4 8 4H16ZM8 5.3H12V6.35C12 6.70899 12.291 7 12.65 7C13.009 7 13.3 6.70899 13.3 6.35V5.3H14V7.35C14 7.70899 14.291 8 14.65 8C15.009 8 15.3 7.70899 15.3 7.35V5.3H16C16.3866 5.3 16.7 5.6134 16.7 6V11H7.3V6C7.3 5.6134 7.6134 5.3 8 5.3ZM7.3 12.3V14C7.3 14.3866 7.6134 14.7 8 14.7H11.3V18C11.3 18.3866 11.6134 18.7 12 18.7C12.3866 18.7 12.7 18.3866 12.7 18V14.7H16C16.3866 14.7 16.7 14.3866 16.7 14V12.3H7.3Z" fill="black"/>
</svg>
