<svg width="28" height="28" viewBox="0 0 28 28" fill="none" xmlns="http://www.w3.org/2000/svg">
<path d="M10.7862 11.4638C10.4901 11.1676 10.0099 11.1676 9.71378 11.4638C9.41763 11.7599 9.41763 12.2401 9.71378 12.5362C10.0169 12.8393 10.3881 13.4012 10.4932 14.0468C10.5906 14.6455 10.4723 15.3719 9.71378 16.1304C9.41763 16.4266 9.41763 16.9067 9.71378 17.2029C10.0099 17.499 10.4901 17.499 10.7862 17.2029C11.8943 16.0948 12.1649 14.8768 11.9901 13.8032C11.823 12.7766 11.2609 11.9385 10.7862 11.4638Z" fill="black"/>
<path d="M12.6304 10.2971C12.9266 10.001 13.4067 10.001 13.7029 10.2971C14.8831 11.4773 16.3742 14.6475 13.7837 18.2741C13.5403 18.6149 13.0667 18.6938 12.7259 18.4504C12.3851 18.207 12.3062 17.7334 12.5496 17.3926C14.6258 14.4859 13.3947 12.1338 12.6304 11.3696C12.3343 11.0734 12.3343 10.5933 12.6304 10.2971Z" fill="black"/>
<path d="M16.5827 9.09596C16.2675 8.82017 15.7884 8.85211 15.5126 9.1673C15.2368 9.48249 15.2688 9.96158 15.584 10.2374C16.2549 10.8244 17.0802 11.9583 17.3186 13.3931C17.5502 14.7868 17.2439 16.553 15.5165 18.4962C15.2383 18.8092 15.2665 19.2885 15.5795 19.5668C15.8926 19.845 16.3719 19.8168 16.6501 19.5038C18.6561 17.247 19.1276 15.0271 18.8147 13.1444C18.5087 11.3028 17.4674 9.87003 16.5827 9.09596Z" fill="black"/>
<path fill-rule="evenodd" clip-rule="evenodd" d="M23.6667 14.3333C23.6667 19.488 19.488 23.6667 14.3333 23.6667C9.17868 23.6667 5 19.488 5 14.3333C5 9.17868 9.17868 5 14.3333 5C19.488 5 23.6667 9.17868 23.6667 14.3333ZM22.15 14.3333C22.15 18.6504 18.6504 22.15 14.3333 22.15C10.0163 22.15 6.51667 18.6504 6.51667 14.3333C6.51667 10.0163 10.0163 6.51667 14.3333 6.51667C18.6504 6.51667 22.15 10.0163 22.15 14.3333Z" fill="black"/>
</svg>
