<svg width="48" height="48" viewBox="0 0 48 48" fill="none" xmlns="http://www.w3.org/2000/svg">
<path fill-rule="evenodd" clip-rule="evenodd" d="M31.076 9.53112C33.1175 7.48963 36.4274 7.48963 38.4689 9.53112C40.5104 11.5726 40.5104 14.8825 38.4689 16.924L36.461 18.932L38.4795 20.9956C39.0019 21.5297 38.9972 22.3848 38.4689 22.9131L33.1402 28.2417C32.6078 28.7742 31.7445 28.7742 31.212 28.2417C30.6796 27.7093 30.6796 26.846 31.212 26.3135L35.2205 22.3051C35.4237 22.1019 35.4255 21.773 35.2245 21.5676L34.9034 21.2393C34.6993 21.0306 34.3641 21.0288 34.1577 21.2352L17.1043 38.2886C16.5748 38.8181 15.8878 39.1616 15.1465 39.2675L10.1553 39.9805C8.90941 40.1585 7.84149 39.0906 8.01948 37.8447L8.7325 32.8535C8.83841 32.1122 9.1819 31.4252 9.71143 30.8957L31.076 9.53112ZM36.5407 11.4593C35.5641 10.4827 33.9807 10.4827 33.0041 11.4593L11.6396 32.8238C11.5273 32.9362 11.4544 33.0819 11.432 33.2391L10.976 36.4307C10.9266 36.7768 11.2232 37.0734 11.5693 37.024L14.7609 36.568C14.9181 36.5456 15.0638 36.4727 15.1762 36.3604L36.5407 14.9959C37.5173 14.0193 37.5173 12.4359 36.5407 11.4593Z" fill="black"/>
</svg>
