<svg width="24" height="24" viewBox="0 0 24 24" fill="none" xmlns="http://www.w3.org/2000/svg">
<path fill-rule="evenodd" clip-rule="evenodd" d="M11.3799 4.20893L4.40145 9.51924C4.0579 9.78066 3.91677 10.2292 4.04906 10.6392L6.51897 18.2938C6.65475 18.7146 7.04771 19 7.49142 19H16.5086C16.9523 19 17.3453 18.7146 17.481 18.2938L19.9509 10.6392C20.0832 10.2292 19.9421 9.78066 19.5985 9.51924L12.6201 4.20893C12.254 3.93036 11.746 3.93036 11.3799 4.20893ZM5.65264 10.2007C5.4703 10.3395 5.39538 10.5782 5.46574 10.7963L7.57262 17.3258C7.64458 17.5488 7.85218 17.7 8.08653 17.7H15.9135C16.1478 17.7 16.3554 17.5488 16.4274 17.3258L18.5343 10.7963C18.6046 10.5782 18.5297 10.3395 18.3474 10.2007L12.327 5.61951C12.1338 5.47248 11.8662 5.47248 11.673 5.61951L5.65264 10.2007Z" fill="black"/>
</svg>
