<svg width="32" height="32" viewBox="0 0 32 32" fill="none" xmlns="http://www.w3.org/2000/svg">
<path fill-rule="evenodd" clip-rule="evenodd" d="M14.254 14.2664C12.9193 13.618 11.9993 12.2493 11.9993 10.6658C11.9993 8.45622 13.7904 6.66504 15.9999 6.66504C18.2094 6.66504 20.0005 8.45622 20.0005 10.6658C20.0005 12.2493 19.0805 13.618 17.7458 14.2664C17.2182 14.5227 16.6259 14.6665 15.9999 14.6665C15.374 14.6665 14.7816 14.5227 14.254 14.2664Z" fill="black"/>
<path d="M21.6689 16C23.6935 16 25.3988 17.7019 24.6241 19.5724C24.155 20.705 23.4674 21.734 22.6006 22.6009C21.7338 23.4677 20.7047 24.1553 19.5722 24.6245C18.4396 25.0936 17.2258 25.335 15.9999 25.335C14.7741 25.335 13.5602 25.0936 12.4277 24.6245C11.2951 24.1553 10.2661 23.4677 9.39924 22.6009C8.53243 21.734 7.84484 20.705 7.37572 19.5724C6.60097 17.7019 8.30636 16 10.3309 16H21.6689Z" fill="black"/>
</svg>
