<svg width="20" height="20" viewBox="0 0 20 20" fill="none" xmlns="http://www.w3.org/2000/svg">
<path d="M10.4035 3.55924C10.4035 3.25038 10.1482 3 9.83333 3C9.51843 3 9.26316 3.25038 9.26316 3.55924V10.4422C9.26316 10.751 9.51843 11.0014 9.83333 11.0014C10.1482 11.0014 10.4035 10.751 10.4035 10.4422V3.55924Z" fill="black"/>
<path d="M12.7504 5.65625C12.4778 5.5016 12.129 5.59296 11.9714 5.86031C11.8137 6.12766 11.9068 6.46976 12.1794 6.62441C13.5836 7.42113 14.5263 8.90887 14.5263 10.6119C14.5263 13.154 12.4252 15.2149 9.83333 15.2149C7.24147 15.2149 5.14035 13.154 5.14035 10.6119C5.14035 8.90887 6.08303 7.42113 7.48726 6.62441C7.75983 6.46976 7.85298 6.12766 7.6953 5.86031C7.53762 5.59296 7.18883 5.5016 6.91625 5.65625C5.17415 6.64467 4 8.49347 4 10.6119C4 13.7718 6.61167 16.3333 9.83333 16.3333C13.055 16.3333 15.6667 13.7718 15.6667 10.6119C15.6667 8.49347 14.4925 6.64467 12.7504 5.65625Z" fill="black"/>
</svg>
