<svg width="16" height="16" viewBox="0 0 16 16" fill="none" xmlns="http://www.w3.org/2000/svg">
<path d="M8.33333 3.65855C8.33333 3.29484 8.03486 3 7.66667 3C7.29848 3 7 3.29484 7 3.65855V8.92691C7 9.29062 7.29848 9.58546 7.66667 9.58546C8.03486 9.58546 8.33333 9.29062 8.33333 8.92691V3.65855Z" fill="black"/>
<path d="M6.00048 6.20422C6.31919 6.02211 6.4281 5.61926 6.24374 5.30443C6.05938 4.98961 5.65156 4.88203 5.33285 5.06414C3.93972 5.86021 3 7.34973 3 9.05685C3 11.6028 5.08934 13.6667 7.66667 13.6667C10.244 13.6667 12.3333 11.6028 12.3333 9.05685C12.3333 7.34973 11.3936 5.86021 10.0005 5.06414C9.68178 4.88203 9.27396 4.98961 9.0896 5.30443C8.90523 5.61926 9.01414 6.02211 9.33285 6.20422C10.3309 6.77455 11 7.8389 11 9.05685C11 10.8754 9.50762 12.3496 7.66667 12.3496C5.82572 12.3496 4.33333 10.8754 4.33333 9.05685C4.33333 7.8389 5.00241 6.77455 6.00048 6.20422Z" fill="black"/>
</svg>
