<svg width="28" height="28" viewBox="0 0 28 28" fill="none" xmlns="http://www.w3.org/2000/svg">
<path fill-rule="evenodd" clip-rule="evenodd" d="M7.24348 13.5697C6.91884 14.0222 6.91884 14.6444 7.24348 15.097L13.0261 23.1576C13.513 23.8364 14.487 23.8364 14.9739 23.1576L20.7565 15.097C21.0812 14.6444 21.0812 14.0222 20.7565 13.5697L14.9739 5.50909C14.487 4.8303 13.513 4.8303 13.0261 5.50909L7.24348 13.5697ZM8.80616 13.9933C8.66036 14.1965 8.66036 14.4701 8.80617 14.6734L13.526 21.2526C13.7587 21.577 14.2413 21.577 14.474 21.2526L19.1938 14.6734C19.3396 14.4701 19.3396 14.1965 19.1938 13.9933L14.474 7.41411C14.2413 7.08971 13.7587 7.08971 13.526 7.41411L8.80616 13.9933Z" fill="black"/>
</svg>
