<svg width="16" height="16" viewBox="0 0 16 16" fill="none" xmlns="http://www.w3.org/2000/svg">
<path fill-rule="evenodd" clip-rule="evenodd" d="M7.54638 3.76337C7.43798 3.58477 7.28106 3.37085 7.07534 3.21574C6.86227 3.0551 6.55328 2.92966 6.19976 3.04452C5.74701 3.19162 5.38958 3.45698 5.11473 3.76326C4.68372 4.24358 4.44262 4.83789 4.33128 5.30558C4.08581 5.38387 3.87986 5.49405 3.71717 5.63935C3.48706 5.84487 3.36896 6.09843 3.33617 6.35799C3.27498 6.84251 3.51219 7.30062 3.70427 7.55839L3.73267 7.59651L3.76867 7.62757C4.52979 8.28422 6.30349 9.85216 7.33548 10.8909C7.55505 11.1119 7.76011 11.3028 7.95417 11.4666H3.43328C3.19399 11.4666 3 11.6606 3 11.8999C3 12.1392 3.19399 12.3332 3.43328 12.3332H10.2891L10.2913 12.3332H12.2134C12.8239 12.3332 13.2687 12.1364 13.5035 11.7592C13.7027 11.4392 13.6883 11.0852 13.6237 10.8434C13.6109 10.6557 13.5492 10.4718 13.4726 10.309C13.3841 10.121 13.2626 9.93362 13.1237 9.75921C12.8491 9.41448 12.4762 9.08257 12.0818 8.88408C11.9062 8.79574 11.748 8.66676 11.6151 8.52722C11.4525 8.35649 11.3449 8.18809 11.3006 8.10245L10.3439 5.85553C10.197 5.15605 9.91478 4.69689 9.54896 4.43955C9.20958 4.20079 8.84273 4.16862 8.56461 4.23674C7.94532 4.2221 7.67281 3.97167 7.54638 3.76337ZM4.29442 6.28566C4.34408 6.24131 4.42692 6.18868 4.56196 6.14197L8.32209 10.2421L8.34381 10.2603C8.84765 10.6829 9.95737 11.3159 11.3514 11.4666H9.92813C9.48131 11.4666 8.96441 11.301 7.95022 10.2801C6.91044 9.23356 5.15677 7.68192 4.3737 7.00509C4.25368 6.83061 4.1768 6.61787 4.19591 6.46657C4.20394 6.40301 4.22866 6.34439 4.29442 6.28566ZM12.4458 10.2991C12.5236 10.3967 12.5887 10.4931 12.6394 10.5831C11.5881 10.7383 10.6295 10.5054 9.91931 10.1978C10.0447 10.1621 10.1718 10.1199 10.2985 10.0701C10.6537 9.93042 11.0176 9.72668 11.3328 9.43366C11.4419 9.51578 11.5618 9.59252 11.6922 9.65814C11.9507 9.78826 12.2307 10.0289 12.4458 10.2991ZM6.2323 6.68123L8.81536 9.49783C8.99518 9.49379 9.22431 9.47095 9.47116 9.41711L9.464 9.40553C9.22503 9.01878 8.9428 8.54798 8.68124 8.08381C8.3447 7.48659 8.02205 6.86523 7.88451 6.44991C7.70049 5.89426 7.76608 5.39741 7.91202 5.01586C7.38022 4.87233 7.02114 4.56813 6.80559 4.21299C6.72297 4.07686 6.6338 3.96811 6.55364 3.90767C6.51606 3.87934 6.49201 3.87047 6.48201 3.86799C6.47629 3.86658 6.47442 3.86644 6.46753 3.86867C6.29836 3.92364 6.14723 4.00563 6.01228 4.10799C6.18275 4.37834 6.34508 4.72248 6.43056 5.10417C6.53867 5.58691 6.52587 6.14833 6.2323 6.68123ZM10.7274 8.81306C10.5989 8.93005 10.4554 9.02954 10.3028 9.11354C10.27 9.06107 10.2361 9.00646 10.2012 8.95002C10.1164 8.81285 10.0263 8.66515 9.9337 8.51115L10.6273 8.66654C10.657 8.71307 10.6904 8.76225 10.7274 8.81306ZM10.178 7.67783L9.34246 7.49065C9.22998 7.28754 9.12567 7.09238 9.03417 6.91229L9.93272 7.10186L10.178 7.67783ZM9.51839 6.12881L8.65248 5.94613C8.59717 5.55752 8.73457 5.24232 8.85146 5.07262C8.90538 5.07652 8.97517 5.0954 9.05036 5.14829C9.18276 5.24144 9.38601 5.48005 9.50316 6.06955L9.5119 6.11356L9.51839 6.12881ZM5.17022 5.52312C5.21822 5.31529 5.301 5.07168 5.4243 4.8342C5.49096 4.97496 5.54847 5.13068 5.58494 5.29354C5.63571 5.52025 5.64465 5.75149 5.58654 5.97708L5.17022 5.52312Z" fill="black"/>
<path d="M3.43328 10.1522C3.19399 10.1522 3 10.3462 3 10.5855C3 10.8248 3.19399 11.0188 3.43328 11.0188H6.04503C6.28432 11.0188 6.47831 10.8248 6.47831 10.5855C6.47831 10.3462 6.28432 10.1522 6.04503 10.1522H3.43328Z" fill="black"/>
<path d="M3 9.27112C3 9.03182 3.19399 8.83784 3.43328 8.83784H4.73915C4.97845 8.83784 5.17244 9.03182 5.17244 9.27112C5.17244 9.51041 4.97845 9.7044 4.73915 9.7044H3.43328C3.19399 9.7044 3 9.51041 3 9.27112Z" fill="black"/>
</svg>
