<svg width="32" height="32" viewBox="0 0 32 32" fill="none" xmlns="http://www.w3.org/2000/svg">
<path fill-rule="evenodd" clip-rule="evenodd" d="M6.30665 6.86656C6.30665 6.38797 6.69462 6 7.17321 6H24.1601C24.6387 6 25.0266 6.38797 25.0266 6.86656C25.0266 7.34515 24.6387 7.73312 24.1601 7.73312H23.4999L26.3333 14.5333V14.7066C26.3333 15.3898 26.1355 16.3952 25.5167 17.2547C24.866 18.1584 23.7892 18.8399 22.2001 18.8399C20.611 18.8399 19.5341 18.1584 18.8835 17.2547C18.2646 16.3952 18.0668 15.3898 18.0668 14.7066V14.5333L20.9002 7.73312H16.5332V20.5867H20.8933C22.3367 20.5867 23.5067 21.7568 23.5067 23.2001C23.5067 24.6434 22.3367 25.8135 20.8933 25.8135H10.4399C8.99658 25.8135 7.82653 24.6434 7.82653 23.2001C7.82653 21.7568 8.99658 20.5867 10.4399 20.5867H14.8001V7.73312H10.4331L13.2665 14.5333V14.7066C13.2665 15.3898 13.0687 16.3952 12.4499 17.2547C11.7992 18.1584 10.7224 18.8399 9.13326 18.8399C7.54415 18.8399 6.46732 18.1584 5.81666 17.2547C5.19781 16.3952 5 15.3898 5 14.7066V14.5333L7.83342 7.73312H7.17321C6.69462 7.73312 6.30665 7.34515 6.30665 6.86656ZM9.13326 9.11962L7.1664 13.8401H11.1001L9.13326 9.11962ZM20.2332 13.8401L22.2001 9.11962L24.1669 13.8401H20.2332Z" fill="black"/>
</svg>
