<svg width="48" height="48" viewBox="0 0 48 48" fill="none" xmlns="http://www.w3.org/2000/svg">
<path d="M9.71533 8.81816C8.73945 9.49025 8 10.6167 8 12.2399C8 13.863 8.73945 14.9895 9.71533 15.6616C10.6224 16.2863 11.6666 16.4797 12.3766 16.4797H13.1225V10.5997C13.2115 9.83626 12.9507 8.27848 11.1958 8.15471C10.7103 8.27916 10.1937 8.48868 9.71533 8.81816Z" fill="black"/>
<path d="M34.9164 40C36.3381 40 37.4745 39.5134 38.3247 38.7435C39.1492 37.9969 39.6424 37.0426 39.929 36.1703C39.9465 36.1171 39.9623 36.0641 39.9763 36.0111C40.1098 35.5087 39.6582 35.0999 39.1372 35.0999H21.5528C21.2276 35.0999 20.7055 35.428 20.2883 36.297C20.0967 36.6961 19.864 37.064 19.5999 37.4003C18.7402 38.2656 16.8201 39.9961 16.0183 39.9961L34.9164 40Z" fill="black"/>
<path d="M36.2193 32.5003V11.2996C36.2193 9.47728 34.7385 8 32.9118 8H14.0137C15.3234 8 15.7026 9.73312 15.7285 10.5997V37.1228C16.6085 36.772 17.4934 36.1002 17.938 35.1741C18.4772 34.0509 19.6638 32.5003 21.5528 32.5003H36.2193Z" fill="black"/>
</svg>
