<svg width="48" height="48" viewBox="0 0 48 48" fill="none" xmlns="http://www.w3.org/2000/svg">
<path fill-rule="evenodd" clip-rule="evenodd" d="M27.031 28.9774C27.021 28.9849 27.011 28.9925 27.001 29C25.3295 30.2558 23.2516 31 21 31C15.4772 31 11 26.5228 11 21C11 15.4772 15.4772 11 21 11C26.5228 11 31 15.4772 31 21C31 23.2651 30.2469 25.3544 28.9774 27.031L35.759 33.8125C36.4078 34.4614 37.5108 35.9536 36.7322 36.7322C35.9536 37.5108 34.4614 36.4078 33.8125 35.759L27.031 28.9774ZM27 21C27 24.3137 24.3137 27 21 27C17.6863 27 15 24.3137 15 21C15 17.6863 17.6863 15 21 15C24.3137 15 27 17.6863 27 21Z" fill="black"/>
</svg>
