<svg width="20" height="20" viewBox="0 0 20 20" fill="none" xmlns="http://www.w3.org/2000/svg">
<path fill-rule="evenodd" clip-rule="evenodd" d="M16.0938 9.27905C16.4132 9.43876 16.4132 9.89458 16.0938 10.0543L3.62723 16.287C3.33906 16.4311 3 16.2216 3 15.8994V3.43393C3 3.11177 3.33906 2.90224 3.62723 3.04631L16.0938 9.27905ZM4.12686 4.90647C4.12686 4.74539 4.29639 4.64062 4.44048 4.71266L13.9617 9.47286C14.1214 9.55271 14.1214 9.78062 13.9617 9.86048L4.44048 14.6207C4.29639 14.6927 4.12686 14.5879 4.12686 14.4269V10.4467C4.12686 10.3271 4.22388 10.23 4.34356 10.23H7.76749C8.07866 10.23 8.33092 9.97781 8.33092 9.66667C8.33092 9.35552 8.07866 9.10328 7.76749 9.10328H4.34356C4.22388 9.10328 4.12686 9.00627 4.12686 8.8866L4.12686 4.90647Z" fill="black"/>
</svg>
