<svg width="32" height="32" viewBox="0 0 32 32" fill="none" xmlns="http://www.w3.org/2000/svg">
<path d="M9 10.1333C8.52135 10.1333 8.13333 10.5214 8.13333 11C8.13333 11.4786 8.52135 11.8667 9 11.8667H14.3333C14.812 11.8667 15.2 11.4786 15.2 11C15.2 10.5214 14.812 10.1333 14.3333 10.1333H9Z" fill="black"/>
<path d="M22.3334 11C22.3334 11.4787 21.9453 11.8667 21.4667 11.8667C20.988 11.8667 20.6 11.4787 20.6 11C20.6 10.5214 20.988 10.1333 21.4667 10.1333C21.9453 10.1333 22.3334 10.5214 22.3334 11Z" fill="black"/>
<path fill-rule="evenodd" clip-rule="evenodd" d="M5 9.66667C5 8.19391 6.19391 7 7.66667 7H23.6667C25.1394 7 26.3333 8.19391 26.3333 9.66667V12.3333C26.3333 13.8061 25.1394 15 23.6667 15H7.66667C6.19391 15 5 13.8061 5 12.3333V9.66667ZM7.66667 8.73333H23.6667C24.1821 8.73333 24.6 9.1512 24.6 9.66667V12.3333C24.6 12.8488 24.1821 13.2667 23.6667 13.2667H7.66667C7.1512 13.2667 6.73333 12.8488 6.73333 12.3333V9.66667C6.73333 9.1512 7.1512 8.73333 7.66667 8.73333Z" fill="black"/>
<path d="M8.13333 20.3333C8.13333 19.8547 8.52135 19.4667 9 19.4667H14.3333C14.812 19.4667 15.2 19.8547 15.2 20.3333C15.2 20.812 14.812 21.2 14.3333 21.2H9C8.52135 21.2 8.13333 20.812 8.13333 20.3333Z" fill="black"/>
<path d="M21.4667 21.2C21.9453 21.2 22.3334 20.812 22.3334 20.3333C22.3334 19.8547 21.9453 19.4667 21.4667 19.4667C20.988 19.4667 20.6 19.8547 20.6 20.3333C20.6 20.812 20.988 21.2 21.4667 21.2Z" fill="black"/>
<path fill-rule="evenodd" clip-rule="evenodd" d="M5 19C5 17.5272 6.19391 16.3333 7.66667 16.3333H23.6667C25.1394 16.3333 26.3333 17.5272 26.3333 19V21.6667C26.3333 23.1394 25.1394 24.3333 23.6667 24.3333H7.66667C6.19391 24.3333 5 23.1394 5 21.6667V19ZM7.66667 18.0667H23.6667C24.1821 18.0667 24.6 18.4845 24.6 19V21.6667C24.6 22.1821 24.1821 22.6 23.6667 22.6H7.66667C7.1512 22.6 6.73333 22.1821 6.73333 21.6667V19C6.73333 18.4845 7.1512 18.0667 7.66667 18.0667Z" fill="black"/>
</svg>
