<svg width="28" height="28" viewBox="0 0 28 28" fill="none" xmlns="http://www.w3.org/2000/svg">
<path d="M8.5 8.74167C8.08118 8.74167 7.74167 9.08118 7.74167 9.5C7.74167 9.91882 8.08118 10.2583 8.5 10.2583H13.1667C13.5855 10.2583 13.925 9.91882 13.925 9.5C13.925 9.08118 13.5855 8.74167 13.1667 8.74167H8.5Z" fill="black"/>
<path d="M20.1667 9.50001C20.1667 9.91882 19.8272 10.2583 19.4083 10.2583C18.9895 10.2583 18.65 9.91882 18.65 9.50001C18.65 9.08119 18.9895 8.74167 19.4083 8.74167C19.8272 8.74167 20.1667 9.08119 20.1667 9.50001Z" fill="black"/>
<path fill-rule="evenodd" clip-rule="evenodd" d="M5 8.33333C5 7.04467 6.04467 6 7.33333 6H21.3333C22.622 6 23.6667 7.04467 23.6667 8.33333V10.6667C23.6667 11.9553 22.622 13 21.3333 13H7.33333C6.04467 13 5 11.9553 5 10.6667V8.33333ZM7.33333 7.51667H21.3333C21.7844 7.51667 22.15 7.8823 22.15 8.33333V10.6667C22.15 11.1177 21.7844 11.4833 21.3333 11.4833H7.33333C6.8823 11.4833 6.51667 11.1177 6.51667 10.6667V8.33333C6.51667 7.8823 6.8823 7.51667 7.33333 7.51667Z" fill="black"/>
<path d="M7.74167 17.6667C7.74167 17.2479 8.08118 16.9083 8.5 16.9083H13.1667C13.5855 16.9083 13.925 17.2479 13.925 17.6667C13.925 18.0855 13.5855 18.425 13.1667 18.425H8.5C8.08118 18.425 7.74167 18.0855 7.74167 17.6667Z" fill="black"/>
<path d="M19.4083 18.425C19.8272 18.425 20.1667 18.0855 20.1667 17.6667C20.1667 17.2479 19.8272 16.9083 19.4083 16.9083C18.9895 16.9083 18.65 17.2479 18.65 17.6667C18.65 18.0855 18.9895 18.425 19.4083 18.425Z" fill="black"/>
<path fill-rule="evenodd" clip-rule="evenodd" d="M5 16.5C5 15.2113 6.04467 14.1667 7.33333 14.1667H21.3333C22.622 14.1667 23.6667 15.2113 23.6667 16.5V18.8333C23.6667 20.122 22.622 21.1667 21.3333 21.1667H7.33333C6.04467 21.1667 5 20.122 5 18.8333V16.5ZM7.33333 15.6833H21.3333C21.7844 15.6833 22.15 16.049 22.15 16.5V18.8333C22.15 19.2844 21.7844 19.65 21.3333 19.65H7.33333C6.8823 19.65 6.51667 19.2844 6.51667 18.8333V16.5C6.51667 16.049 6.8823 15.6833 7.33333 15.6833Z" fill="black"/>
</svg>
