<svg width="32" height="32" viewBox="0 0 32 32" fill="none" xmlns="http://www.w3.org/2000/svg">
<path d="M19.3256 16.8433C19.4983 16.8205 19.6578 16.9532 19.682 17.1397L19.7243 17.4669C19.7325 17.53 19.7854 17.5751 19.8425 17.5675L20.0228 17.5578C20.1955 17.535 20.3551 17.6678 20.3792 17.8542C20.4033 18.0406 20.2829 18.2102 20.1102 18.233L19.4489 18.3061C19.3917 18.3136 19.3521 18.3709 19.3602 18.434L19.4113 18.8288C19.4195 18.8919 19.4724 18.9369 19.5295 18.9294L20.1296 18.8503C20.2724 18.8315 20.4048 18.9441 20.4252 19.1019L20.573 20.2446C20.5934 20.4024 20.4942 20.5455 20.3515 20.5643L20.2324 20.58C20.1752 20.5876 20.1356 20.6448 20.1438 20.7079L20.1861 21.0351C20.2102 21.2216 20.0898 21.3911 19.9171 21.4139C19.7444 21.4366 19.5849 21.3039 19.5607 21.1175L19.5184 20.7903C19.5102 20.7272 19.4573 20.6821 19.4002 20.6896L19.0947 20.7299C18.9221 20.7527 18.7625 20.6199 18.7383 20.4335C18.7142 20.2471 18.8347 20.0774 19.0073 20.0547L19.7938 19.9511C19.851 19.9435 19.8906 19.8863 19.8824 19.8232L19.865 19.6882C19.8569 19.6251 19.8039 19.58 19.7467 19.5875L19.1467 19.6665C19.0039 19.6853 18.8715 19.5727 18.8511 19.4149L18.6697 18.0126C18.6603 17.9403 18.676 17.8712 18.7096 17.8157C18.7492 17.7498 18.8139 17.703 18.8912 17.6928L19.0103 17.6772C19.0675 17.6697 19.1071 17.6124 19.0989 17.5493L19.0566 17.222C19.0325 17.0356 19.1529 16.866 19.3256 16.8433Z" fill="black"/>
<path d="M20.9719 20.9329C20.8938 20.769 20.9622 20.5722 21.1246 20.4934L22.0069 20.0655C22.1694 19.9867 22.3643 20.0557 22.4424 20.2196C22.5206 20.3835 22.4521 20.5802 22.2897 20.6589L21.4074 21.0869C21.2449 21.1657 21.05 21.0967 20.9719 20.9329Z" fill="black"/>
<path fill-rule="evenodd" clip-rule="evenodd" d="M15.6644 5.19536C16.0609 4.94917 16.5574 4.93471 16.9674 5.15741L24.9802 9.51036C25.403 9.74006 25.6667 10.1854 25.6667 10.6699V20.6551C25.6667 21.1396 25.403 21.585 24.9802 21.8147L16.9522 26.1759C16.5658 26.3858 16.1008 26.3858 15.7145 26.1759L7.68649 21.8147C7.26367 21.585 7 21.1396 7 20.6551V11.3107C7 10.8533 7.23517 10.4287 7.62123 10.1891L15.6644 5.19536ZM16.5007 6.84832C16.4146 6.80154 16.3104 6.80458 16.2271 6.85628L8.82748 11.4505C8.74641 11.5008 8.69703 11.59 8.69703 11.686V20.254C8.69703 20.3557 8.7524 20.4492 8.84119 20.4975L15.7334 24.2417C15.916 24.3409 16.1375 24.2075 16.1375 23.9982V15.9273C16.1375 15.4589 16.3841 15.0257 16.7851 14.7897L23.243 10.9891C23.4279 10.8803 23.4233 10.6091 23.2348 10.5067L16.5007 6.84832ZM23.9696 20.254C23.9696 20.3557 23.9143 20.4492 23.8255 20.4975L18.2386 23.5326C18.056 23.6318 17.8345 23.4984 17.8345 23.2891V16.3131C17.8345 16.2147 17.8863 16.1238 17.9705 16.0742L23.5574 12.7862C23.7401 12.6786 23.9696 12.8116 23.9696 13.0251V20.254Z" fill="black"/>
</svg>
