<svg width="24" height="24" viewBox="0 0 24 24" fill="none" xmlns="http://www.w3.org/2000/svg">
<path d="M18.0019 7.33364C18.0019 7.88592 18.4496 8.33364 19.0019 8.33364C19.5541 8.33364 20.0019 7.88592 20.0019 7.33364C20.0019 6.07426 19.4547 5.19064 18.7111 4.65519C18.0184 4.15646 17.2172 4 16.6682 4C16.1159 4 15.6682 4.44772 15.6682 5C15.6682 5.55228 16.1159 6 16.6682 6C16.8971 6 17.2628 6.0769 17.5424 6.27826C17.7711 6.44291 18.0019 6.7261 18.0019 7.33364Z" fill="black"/>
<path d="M5.00005 8.33364C4.44776 8.33364 4.00005 7.88592 4.00005 7.33364C4.00005 6.07426 4.54719 5.19064 5.29086 4.65519C5.98354 4.15646 6.78472 4 7.33368 4C7.88597 4 8.33368 4.44772 8.33368 5C8.33368 5.55228 7.88597 6 7.33368 6C7.10477 6 6.73913 6.0769 6.45947 6.27826C6.23079 6.44291 6.00005 6.7261 6.00005 7.33364C6.00005 7.88592 5.55233 8.33364 5.00005 8.33364Z" fill="black"/>
<path d="M11.0675 4.00001C10.5152 4.00001 10.0675 4.44773 10.0675 5.00001C10.0675 5.5523 10.5152 6.00001 11.0675 6.00001H12.9344C13.4867 6.00001 13.9344 5.5523 13.9344 5.00001C13.9344 4.44773 13.4867 4.00001 12.9344 4.00001H11.0675Z" fill="black"/>
<path d="M11.0675 18.0018C10.5152 18.0018 10.0675 18.4496 10.0675 19.0018C10.0675 19.5541 10.5152 20.0018 11.0675 20.0018H12.9344C13.4867 20.0018 13.9344 19.5541 13.9344 19.0018C13.9344 18.4496 13.4867 18.0018 12.9344 18.0018H11.0675Z" fill="black"/>
<path d="M19.0019 10.0675C19.5541 10.0675 20.0019 10.5152 20.0019 11.0675V12.9344C20.0019 13.4867 19.5541 13.9344 19.0019 13.9344C18.4496 13.9344 18.0019 13.4867 18.0019 12.9344V11.0675C18.0019 10.5152 18.4496 10.0675 19.0019 10.0675Z" fill="black"/>
<path d="M6 11.0675C6 10.5152 5.55228 10.0675 5 10.0675C4.44772 10.0675 4 10.5152 4 11.0675V12.9344C4 13.4867 4.44772 13.9344 5 13.9344C5.55228 13.9344 6 13.4867 6 12.9344V11.0675Z" fill="black"/>
<path d="M19.0018 15.6682C19.5541 15.6682 20.0018 16.1159 20.0018 16.6682C20.0018 17.9276 19.4547 18.8112 18.711 19.3466C18.0183 19.8454 17.2171 20.0018 16.6682 20.0018C16.1159 20.0018 15.6682 19.5541 15.6682 19.0018C15.6682 18.4495 16.1159 18.0018 16.6682 18.0018C16.8971 18.0018 17.2627 17.9249 17.5424 17.7236C17.7711 17.5589 18.0018 17.2757 18.0018 16.6682C18.0018 16.1159 18.4495 15.6682 19.0018 15.6682Z" fill="black"/>
<path d="M6 16.6682C6 16.1159 5.55228 15.6682 5 15.6682C4.44772 15.6682 4 16.1159 4 16.6682C4 17.9276 4.54714 18.8112 5.29081 19.3466C5.98349 19.8454 6.78467 20.0018 7.33364 20.0018C7.88592 20.0018 8.33364 19.5541 8.33364 19.0018C8.33364 18.4495 7.88592 18.0018 7.33364 18.0018C7.10472 18.0018 6.73909 17.9249 6.45942 17.7236C6.23074 17.5589 6 17.2757 6 16.6682Z" fill="black"/>
</svg>
