<svg width="48" height="48" viewBox="0 0 48 48" fill="none" xmlns="http://www.w3.org/2000/svg">
<path d="M36.0005 14.6665C36.0005 15.7709 36.8958 16.6663 38.0003 16.6663C39.1047 16.6663 40 15.7709 40 14.6665C40 12.148 38.9059 10.381 37.4187 9.31023C36.0335 8.31289 34.4313 8 33.3335 8C32.2291 8 31.3338 8.89533 31.3338 9.99977C31.3338 11.1042 32.2291 11.9995 33.3335 11.9995C33.7913 11.9995 34.5225 12.1533 35.0818 12.556C35.5391 12.8853 36.0005 13.4516 36.0005 14.6665Z" fill="black"/>
<path d="M9.99987 16.6663C8.89542 16.6663 8.0001 15.7709 8.0001 14.6665C8.0001 12.148 9.09425 10.381 10.5814 9.31023C11.9666 8.31289 13.5688 8 14.6666 8C15.771 8 16.6664 8.89533 16.6664 9.99977C16.6664 11.1042 15.771 11.9995 14.6666 11.9995C14.2088 11.9995 13.4776 12.1533 12.9184 12.556C12.4611 12.8853 11.9996 13.4516 11.9996 14.6665C11.9996 15.7709 11.1043 16.6663 9.99987 16.6663Z" fill="black"/>
<path d="M22.1333 8.00002C21.0288 8.00002 20.1335 8.89535 20.1335 9.99979C20.1335 11.1042 21.0288 11.9996 22.1333 11.9996H25.8667C26.9711 11.9996 27.8664 11.1042 27.8664 9.99979C27.8664 8.89535 26.9711 8.00002 25.8667 8.00002H22.1333Z" fill="black"/>
<path d="M22.1333 36.0005C21.0288 36.0005 20.1335 36.8958 20.1335 38.0002C20.1335 39.1047 21.0288 40 22.1333 40H25.8667C26.9711 40 27.8664 39.1047 27.8664 38.0002C27.8664 36.8958 26.9711 36.0005 25.8667 36.0005H22.1333Z" fill="black"/>
<path d="M38.0003 20.1335C39.1047 20.1335 40 21.0289 40 22.1333V25.8667C40 26.9711 39.1047 27.8665 38.0003 27.8665C36.8958 27.8665 36.0005 26.9711 36.0005 25.8667V22.1333C36.0005 21.0289 36.8958 20.1335 38.0003 20.1335Z" fill="black"/>
<path d="M11.9995 22.1333C11.9995 21.0289 11.1042 20.1335 9.99977 20.1335C8.89533 20.1335 8 21.0289 8 22.1333V25.8667C8 26.9711 8.89533 27.8665 9.99977 27.8665C11.1042 27.8665 11.9995 26.9711 11.9995 25.8667V22.1333Z" fill="black"/>
<path d="M38.0002 31.3337C39.1046 31.3337 39.9999 32.229 39.9999 33.3335C39.9999 35.8519 38.9058 37.619 37.4186 38.6897C36.0334 39.6871 34.4312 40 33.3334 40C32.229 40 31.3337 39.1046 31.3337 38.0002C31.3337 36.8958 32.229 36.0004 33.3334 36.0004C33.7912 36.0004 34.5224 35.8466 35.0817 35.444C35.539 35.1147 36.0004 34.5484 36.0004 33.3335C36.0004 32.229 36.8957 31.3337 38.0002 31.3337Z" fill="black"/>
<path d="M11.9995 33.3335C11.9995 32.229 11.1042 31.3337 9.99977 31.3337C8.89533 31.3337 8 32.229 8 33.3335C8 35.8519 9.09415 37.619 10.5813 38.6897C11.9665 39.6871 13.5687 40 14.6665 40C15.7709 40 16.6663 39.1046 16.6663 38.0002C16.6663 36.8958 15.7709 36.0004 14.6665 36.0004C14.2087 36.0004 13.4775 35.8466 12.9183 35.444C12.461 35.1147 11.9995 34.5484 11.9995 33.3335Z" fill="black"/>
</svg>
