<svg width="32" height="32" viewBox="0 0 32 32" fill="none" xmlns="http://www.w3.org/2000/svg">
<path d="M16.7468 25.6667C10.317 25.6667 6.23651 21.2509 5 19.043C9.94604 22.4151 14.8921 21.2509 16.7468 20.2473C15.3224 19.7849 9.9852 13.7358 7.19027 10.4113C7.05304 10.2692 6.93987 10.1351 6.85476 10.0108C6.96188 10.1392 7.07387 10.2729 7.19027 10.4113C8.64805 11.9209 12.8202 14.3294 14.8921 15.4301C14.4159 14.9663 11.6093 11.1166 10.1136 9.03935C10.0349 8.94725 9.97818 8.86905 9.94604 8.80645C9.99978 8.88123 10.0557 8.95896 10.1136 9.03935C11.2466 10.3647 16.9477 14.57 19.8381 16.6344C21.8165 14.2258 19.4259 9.20789 17.9834 7C24.4132 10.372 25.1963 17.2366 24.7842 20.2473C26.7626 21.2108 26.4328 24.2616 26.0207 25.6667C25.0315 23.2581 23.1355 23.4588 22.3111 23.8602C20.8273 25.3054 17.9834 25.6667 16.7468 25.6667Z" fill="black"/>
</svg>
