<svg width="16" height="16" viewBox="0 0 16 16" fill="none" xmlns="http://www.w3.org/2000/svg">
<path d="M9.34758 10.4691C9.34758 11.1321 8.81953 11.6695 8.16815 11.6695C7.51676 11.6695 6.98871 11.1321 6.98871 10.4691C6.98871 10.0579 7.19181 9.69506 7.50146 9.47871V6.46767C7.50146 6.09942 7.79999 5.80089 8.16824 5.80089C8.53649 5.80089 8.83502 6.09942 8.83502 6.46767V9.47884C9.14457 9.6952 9.34758 10.058 9.34758 10.4691Z" fill="black"/>
<path fill-rule="evenodd" clip-rule="evenodd" d="M5.78629 5.40061C5.78629 4.09707 6.83064 3 8.16823 3C9.50583 3 10.5502 4.09707 10.5502 5.40061V8.35858C11.0406 8.92339 11.3365 9.66337 11.3365 10.4691C11.3365 12.2146 9.94009 13.67 8.16823 13.67C6.39638 13.67 5 12.2146 5 10.4691C5 9.66337 5.29585 8.92339 5.78629 8.35858V5.40061ZM7.11985 8.93647V5.40061C7.11985 4.81129 7.58922 4.33355 8.16823 4.33355C8.74724 4.33355 9.21662 4.81129 9.21662 5.40061V8.93647C9.69193 9.27391 10.0029 9.83454 10.0029 10.4691C10.0029 11.5004 9.1815 12.3364 8.16823 12.3364C7.15497 12.3364 6.33355 11.5004 6.33355 10.4691C6.33355 9.83454 6.64454 9.27391 7.11985 8.93647Z" fill="black"/>
</svg>
