<svg width="24" height="24" viewBox="0 0 24 24" fill="none" xmlns="http://www.w3.org/2000/svg">
<path fill-rule="evenodd" clip-rule="evenodd" d="M11.2094 7.21285C11.2504 7.13995 11.2532 7.05119 11.2169 6.97579L10.2335 4.93574C10.0799 4.61728 10.2063 4.23278 10.5174 4.07141C10.8365 3.90592 11.2274 4.03806 11.3849 4.36465L11.7754 5.17484C11.8668 5.36444 12.1332 5.36444 12.2246 5.17484L12.6151 4.36465C12.7726 4.03806 13.1635 3.90592 13.4826 4.07141C13.7937 4.23278 13.9201 4.61728 13.7665 4.93574L12.7831 6.97579C12.7468 7.05119 12.7496 7.13995 12.7906 7.21285L19.2376 18.6764H19.362C19.7143 18.6764 20 18.9727 20 19.3382C20 19.7037 19.7143 20 19.362 20H4.63804C4.28566 20 4 19.7037 4 19.3382C4 18.9727 4.28566 18.6764 4.63804 18.6764H4.76236L11.2094 7.21285ZM11.7829 8.82008C11.8788 8.6495 12.1212 8.6495 12.2171 8.82008L17.547 18.2972C17.6421 18.4662 17.5218 18.6764 17.3299 18.6764H15.5924C15.415 18.6764 15.2509 18.5811 15.1611 18.4259L12.4312 13.7067C12.238 13.3727 11.762 13.3727 11.5688 13.7067L8.83887 18.4259C8.74911 18.5811 8.58501 18.6764 8.40763 18.6764H6.67012C6.47824 18.6764 6.35789 18.4662 6.45297 18.2972L11.7829 8.82008ZM10.403 18.2945C10.3052 18.4635 10.4254 18.6764 10.6187 18.6764H13.3813C13.5746 18.6764 13.6948 18.4635 13.597 18.2945L12.2156 15.9066C12.119 15.7395 11.881 15.7395 11.7844 15.9066L10.403 18.2945Z" fill="black"/>
</svg>
