<svg width="28" height="28" viewBox="0 0 28 28" fill="none" xmlns="http://www.w3.org/2000/svg">
<path d="M8.61731 9.95922C8.61731 9.54033 8.95689 9.20075 9.37578 9.20075H19.2942C19.7131 9.20075 20.0527 9.54033 20.0527 9.95922C20.0527 10.3781 19.7131 10.7177 19.2942 10.7177H9.37578C8.95689 10.7177 8.61731 10.3781 8.61731 9.95922Z" fill="black"/>
<path d="M10.8344 13.2848C10.4155 13.2848 10.0759 13.6244 10.0759 14.0433C10.0759 14.4622 10.4155 14.8017 10.8344 14.8017H17.8356C18.2545 14.8017 18.5941 14.4622 18.5941 14.0433C18.5941 13.6244 18.2545 13.2848 17.8356 13.2848H10.8344Z" fill="black"/>
<path fill-rule="evenodd" clip-rule="evenodd" d="M7.33375 5C6.04486 5 5 6.04486 5 7.33375V21.3363C5 22.6251 6.04486 23.67 7.33375 23.67H21.3363C22.6251 23.67 23.67 22.6251 23.67 21.3363V7.33375C23.67 6.04486 22.6251 5 21.3363 5H7.33375ZM21.3363 6.51694H7.33375C6.88264 6.51694 6.51694 6.88264 6.51694 7.33375V21.3363C6.51694 21.7874 6.88264 22.1531 7.33375 22.1531H21.3363C21.7874 22.1531 22.1531 21.7874 22.1531 21.3363V7.33375C22.1531 6.88264 21.7874 6.51694 21.3363 6.51694Z" fill="black"/>
</svg>
