<svg width="48" height="48" viewBox="0 0 48 48" fill="none" xmlns="http://www.w3.org/2000/svg">
<path d="M9 16C9 14.8954 9.89543 14 11 14H29C30.1046 14 31 14.8954 31 16C31 17.1046 30.1046 18 29 18H11C9.89543 18 9 17.1046 9 16Z" fill="black"/>
<path d="M9 24C9 22.8954 9.89543 22 11 22H37C38.1046 22 39 22.8954 39 24C39 25.1046 38.1046 26 37 26H11C9.89543 26 9 25.1046 9 24Z" fill="black"/>
<path d="M11 30C9.89543 30 9 30.8954 9 32C9 33.1046 9.89543 34 11 34H21C22.1046 34 23 33.1046 23 32C23 30.8954 22.1046 30 21 30H11Z" fill="black"/>
</svg>
