<svg width="28" height="28" viewBox="0 0 28 28" fill="none" xmlns="http://www.w3.org/2000/svg">
<path fill-rule="evenodd" clip-rule="evenodd" d="M4 7.33333C4 6.04467 5.04467 5 6.33333 5H20.3333C21.622 5 22.6667 6.04467 22.6667 7.33333V21.3333C22.6667 22.622 21.622 23.6667 20.3333 23.6667H6.33333C5.04467 23.6667 4 22.622 4 21.3333V7.33333ZM7.325 14.3333C7.325 13.9145 7.66452 13.575 8.08333 13.575H18.5833C19.0021 13.575 19.3417 13.9145 19.3417 14.3333C19.3417 14.7521 19.0021 15.0917 18.5833 15.0917H8.08333C7.66452 15.0917 7.325 14.7521 7.325 14.3333ZM8.08333 17.6583C7.66452 17.6583 7.325 17.9979 7.325 18.4167C7.325 18.8355 7.66452 19.175 8.08333 19.175H18.5833C19.0021 19.175 19.3417 18.8355 19.3417 18.4167C19.3417 17.9979 19.0021 17.6583 18.5833 17.6583H8.08333Z" fill="black"/>
</svg>
