<svg width="16" height="16" viewBox="0 0 16 16" fill="none" xmlns="http://www.w3.org/2000/svg">
<path fill-rule="evenodd" clip-rule="evenodd" d="M3 4.33333C3 3.59695 3.59695 3 4.33333 3H12.3333C13.0697 3 13.6667 3.59695 13.6667 4.33333V12.3333C13.6667 13.0697 13.0697 13.6667 12.3333 13.6667H4.33333C3.59695 13.6667 3 13.0697 3 12.3333V4.33333ZM4.9 8.33333C4.9 8.09401 5.09401 7.9 5.33333 7.9H11C11.2393 7.9 11.4333 8.09401 11.4333 8.33333C11.4333 8.57266 11.2393 8.76667 11 8.76667H5.33333C5.09401 8.76667 4.9 8.57266 4.9 8.33333ZM5.33333 10.2333C5.09401 10.2333 4.9 10.4273 4.9 10.6667C4.9 10.906 5.09401 11.1 5.33333 11.1H9.33333C9.57266 11.1 9.76667 10.906 9.76667 10.6667C9.76667 10.4273 9.57266 10.2333 9.33333 10.2333H5.33333Z" fill="black"/>
</svg>
