<svg width="48" height="48" viewBox="0 0 48 48" fill="none" xmlns="http://www.w3.org/2000/svg">
<path fill-rule="evenodd" clip-rule="evenodd" d="M12 8C9.79086 8 8 9.79086 8 12V36C8 38.2091 9.79086 40 12 40H36C38.2091 40 40 38.2091 40 36V12C40 9.79086 38.2091 8 36 8H12ZM15 15.7C14.282 15.7 13.7 16.282 13.7 17C13.7 17.718 14.282 18.3 15 18.3H33C33.718 18.3 34.3 17.718 34.3 17C34.3 16.282 33.718 15.7 33 15.7H15ZM15 22.7C14.282 22.7 13.7 23.282 13.7 24C13.7 24.718 14.282 25.3 15 25.3H25C25.718 25.3 26.3 24.718 26.3 24C26.3 23.282 25.718 22.7 25 22.7H15ZM15 29.7C14.282 29.7 13.7 30.282 13.7 31C13.7 31.718 14.282 32.3 15 32.3H31C31.718 32.3 32.3 31.718 32.3 31C32.3 30.282 31.718 29.7 31 29.7H15Z" fill="black"/>
</svg>
