<svg width="28" height="28" viewBox="0 0 28 28" fill="none" xmlns="http://www.w3.org/2000/svg">
<path fill-rule="evenodd" clip-rule="evenodd" d="M6.16667 7.33333C6.16667 6.04467 7.21134 5 8.5 5H21.3333C22.622 5 23.6667 6.04467 23.6667 7.33333V13.75C23.6667 15.0387 22.622 16.0833 21.3333 16.0833H8.5C7.21134 16.0833 6.16667 15.0387 6.16667 13.75V7.33333ZM8.5 6.51667H21.3333C21.7844 6.51667 22.15 6.8823 22.15 7.33333V13.75C22.15 14.201 21.7844 14.5667 21.3333 14.5667H8.5C8.04897 14.5667 7.68333 14.201 7.68333 13.75V7.33333C7.68333 6.8823 8.04897 6.51667 8.5 6.51667Z" fill="black"/>
<path fill-rule="evenodd" clip-rule="evenodd" d="M9.66667 21.3333C10.9553 21.3333 12 20.2887 12 19C12 17.7113 10.9553 16.6667 9.66667 16.6667C8.378 16.6667 7.33333 17.7113 7.33333 19C7.33333 20.2887 8.378 21.3333 9.66667 21.3333ZM9.66667 19.8167C10.1177 19.8167 10.4833 19.451 10.4833 19C10.4833 18.549 10.1177 18.1833 9.66667 18.1833C9.21563 18.1833 8.85 18.549 8.85 19C8.85 19.451 9.21563 19.8167 9.66667 19.8167Z" fill="black"/>
<path fill-rule="evenodd" clip-rule="evenodd" d="M6.3125 23.6667C7.03737 23.6667 7.625 23.079 7.625 22.3542C7.625 21.6293 7.03737 21.0417 6.3125 21.0417C5.58763 21.0417 5 21.6293 5 22.3542C5 23.079 5.58763 23.6667 6.3125 23.6667ZM6.3125 22.15C6.19974 22.15 6.10833 22.2414 6.10833 22.3542C6.10833 22.4669 6.19974 22.5583 6.3125 22.5583C6.42526 22.5583 6.51667 22.4669 6.51667 22.3542C6.51667 22.2414 6.42526 22.15 6.3125 22.15Z" fill="black"/>
</svg>
