<svg width="28" height="28" viewBox="0 0 28 28" fill="none" xmlns="http://www.w3.org/2000/svg">
<path d="M11.0118 5.75855C11.0118 5.33961 11.3514 5 11.7703 5H16.3865C16.8055 5 17.1451 5.33961 17.1451 5.75855C17.1451 6.17748 16.8055 6.51709 16.3865 6.51709H11.7703C11.3514 6.51709 11.0118 6.17748 11.0118 5.75855Z" fill="black"/>
<path d="M20.9624 7.53397C20.6664 7.23755 20.1861 7.23723 19.8897 7.53326C19.5932 7.8293 19.5929 8.30958 19.8889 8.60601L21.0436 9.76216C21.3396 10.0586 21.8199 10.0589 22.1163 9.76288C22.4127 9.46684 22.4131 8.98656 22.117 8.69013L20.9624 7.53397Z" fill="black"/>
<path fill-rule="evenodd" clip-rule="evenodd" d="M14.0873 23.6667C18.5537 23.6667 22.1745 20.0459 22.1745 15.5794C22.1745 11.1129 18.5537 7.49213 14.0873 7.49213C9.62079 7.49213 6 11.1129 6 15.5794C6 20.0459 9.62079 23.6667 14.0873 23.6667ZM14.8369 10.3814C14.8369 9.9625 14.4973 9.62289 14.0784 9.62289C13.6594 9.62289 13.3198 9.9625 13.3198 10.3814V16.16C13.3198 16.579 13.6594 16.9186 14.0784 16.9186C14.4973 16.9186 14.8369 16.579 14.8369 16.16V10.3814Z" fill="black"/>
</svg>
