<svg width="28" height="28" viewBox="0 0 28 28" fill="none" xmlns="http://www.w3.org/2000/svg">
<path d="M7.33333 8C6.04467 8 5 9.04467 5 10.3333V17.3333C5 18.622 6.04467 19.6667 7.33333 19.6667H15.5C16.7887 19.6667 17.8333 18.622 17.8333 17.3333V10.3333C17.8333 9.04467 16.7887 8 15.5 8H7.33333Z" fill="black"/>
<path d="M23.6667 17.1758V10.4909C23.6667 9.50174 22.513 8.96139 21.7531 9.59463L18.7249 12.1181C18.459 12.3398 18.3052 12.6681 18.3052 13.0144V14.6523C18.3052 14.9986 18.459 15.3269 18.7249 15.5486L21.7531 18.0721C22.513 18.7053 23.6667 18.1649 23.6667 17.1758Z" fill="black"/>
</svg>
