<svg width="16" height="16" viewBox="0 0 16 16" fill="none" xmlns="http://www.w3.org/2000/svg">
<path fill-rule="evenodd" clip-rule="evenodd" d="M12.3363 4.33375C12.3363 3.59714 11.7391 3 11.0025 3H4.33375C3.59714 3 3 3.59714 3 4.33375V11.6694C3 12.406 3.59714 13.0031 4.33375 13.0031H12.3363C13.0729 13.0031 13.67 12.406 13.67 11.6694V5.6675C13.67 4.93089 13.0729 4.33375 12.3363 4.33375ZM4.33375 3.86694H11.0025C11.2603 3.86694 11.4693 4.07594 11.4693 4.33375H4.33375C4.16952 4.33375 4.01223 4.36343 3.86694 4.41772V4.33375C3.86694 4.07594 4.07594 3.86694 4.33375 3.86694ZM12.8031 7.66813V5.6675C12.8031 5.40969 12.5941 5.20069 12.3363 5.20069H4.33375C4.07594 5.20069 3.86694 5.40969 3.86694 5.6675V11.6694C3.86694 11.9272 4.07594 12.1362 4.33375 12.1362H12.3363C12.5941 12.1362 12.8031 11.9272 12.8031 11.6694V9.66875H10.0022C9.44973 9.66875 9.00187 9.22089 9.00187 8.66844C9.00187 8.11598 9.44973 7.66813 10.0022 7.66813H12.8031ZM12.8031 8.80181V8.53506H10.0022C9.92853 8.53506 9.86881 8.59478 9.86881 8.66844C9.86881 8.7421 9.92853 8.80181 10.0022 8.80181H12.8031Z" fill="black"/>
</svg>
