<svg width="20" height="20" viewBox="0 0 20 20" fill="none" xmlns="http://www.w3.org/2000/svg">
<path d="M12.133 3.54156C12.133 3.24247 11.8905 3 11.5914 3C11.2923 3 11.0498 3.24247 11.0498 3.54156V5.2205C11.0498 5.51959 11.2923 5.76206 11.5914 5.76206C11.8905 5.76206 12.133 5.51959 12.133 5.2205V3.54156Z" fill="black"/>
<path d="M15.3317 3.99797C15.5432 4.20943 15.5433 4.55233 15.3319 4.76386L14.0731 6.02306C13.8617 6.23459 13.5188 6.23466 13.3072 6.0232C13.0957 5.81175 13.0956 5.46885 13.3071 5.25732L14.5658 3.99812C14.7773 3.78658 15.1202 3.78652 15.3317 3.99797Z" fill="black"/>
<path fill-rule="evenodd" clip-rule="evenodd" d="M12.5634 6.26609C12.0265 5.72924 11.1561 5.72924 10.6192 6.26609L3.40266 13.4825C2.86578 14.0194 2.86578 14.8898 3.40266 15.4267L3.90334 15.9274C4.4402 16.4642 5.31062 16.4642 5.84748 15.9274L13.064 8.71094C13.6009 8.17407 13.6009 7.30363 13.064 6.76676L12.5634 6.26609ZM11.3851 7.03198C11.499 6.9181 11.6836 6.9181 11.7975 7.03198L12.2982 7.53265C12.412 7.64653 12.412 7.83117 12.2982 7.94505L11.1715 9.07165L10.2585 8.15858L11.3851 7.03198ZM9.49258 8.92446L10.4057 9.83752L5.08161 15.1615C4.96773 15.2753 4.78309 15.2753 4.66921 15.1615L4.16853 14.6608C4.05465 14.5469 4.05465 14.3623 4.16853 14.2484L9.49258 8.92446Z" fill="black"/>
<path d="M12.133 11.0967C12.133 10.7977 11.8905 10.5552 11.5914 10.5552C11.2923 10.5552 11.0498 10.7977 11.0498 11.0967V12.7757C11.0498 13.0748 11.2923 13.3172 11.5914 13.3172C11.8905 13.3172 12.133 13.0748 12.133 12.7757V11.0967Z" fill="black"/>
<path d="M13.3072 9.45452C13.5188 9.24307 13.8617 9.24313 14.0731 9.45466L15.3319 10.7139C15.5433 10.9254 15.5432 11.2683 15.3317 11.4797C15.1202 11.6912 14.7773 11.6911 14.5658 11.4796L13.3071 10.2204C13.0956 10.0089 13.0957 9.66598 13.3072 9.45452Z" fill="black"/>
<path d="M14.1098 7.19728C13.8107 7.19728 13.5682 7.43975 13.5682 7.73884C13.5682 8.03794 13.8107 8.2804 14.1098 8.2804H15.7881C16.0872 8.2804 16.3297 8.03794 16.3297 7.73884C16.3297 7.43975 16.0872 7.19728 15.7881 7.19728H14.1098Z" fill="black"/>
<path d="M6.01287 7.3191C6.01287 7.02001 6.25534 6.77754 6.55443 6.77754H8.23275C8.53185 6.77754 8.77431 7.02001 8.77431 7.3191C8.77431 7.6182 8.53185 7.86067 8.23275 7.86067H6.55443C6.25534 7.86067 6.01287 7.6182 6.01287 7.3191Z" fill="black"/>
<path d="M8.61644 3.99812C8.40498 3.78658 8.06208 3.78652 7.85055 3.99797C7.63902 4.20943 7.63896 4.55233 7.85041 4.76386L9.10915 6.02306C9.32061 6.23459 9.6635 6.23466 9.87504 6.0232C10.0866 5.81175 10.0866 5.46885 9.87518 5.25732L8.61644 3.99812Z" fill="black"/>
</svg>
