<svg width="16" height="16" viewBox="0 0 16 16" fill="none" xmlns="http://www.w3.org/2000/svg">
<path d="M4.71021 3.24054C4.81627 3.11318 4.96889 3.02596 5.14194 3.00502C5.31503 2.98363 5.48443 3.03159 5.6182 3.12993C5.70621 3.19464 5.7788 3.28115 5.82687 3.38406C5.84567 3.42412 5.8606 3.46636 5.87118 3.51029C5.89958 3.61483 5.98583 3.80567 6.14084 3.96264C6.2853 4.10892 6.48364 4.22289 6.77897 4.22289C7.07429 4.22289 7.27263 4.10892 7.41709 3.96264C7.57177 3.80601 7.65799 3.61565 7.68657 3.51097C7.69306 3.4841 7.7012 3.45775 7.7109 3.43204C7.74502 3.34106 7.7976 3.26118 7.86317 3.19566C7.9866 3.07232 8.15605 2.99987 8.33502 3C8.41645 2.99994 8.49591 3.01491 8.56996 3.04285C8.66124 3.07709 8.74134 3.1299 8.80697 3.19576C8.87249 3.26126 8.92504 3.3411 8.95914 3.43204C8.96885 3.45775 8.97698 3.48411 8.98347 3.51098C9.01206 3.61566 9.09827 3.80601 9.25295 3.96264C9.39741 4.10892 9.59575 4.22289 9.89108 4.22289C10.1864 4.22289 10.3847 4.10892 10.5292 3.96264C10.6839 3.80601 10.7701 3.61566 10.7987 3.51098C10.8052 3.48411 10.8133 3.45775 10.823 3.43204C10.8891 3.25688 11.0279 3.11198 11.2122 3.04286C11.2862 3.01491 11.3657 2.99994 11.4471 3C11.5286 2.99994 11.608 3.01491 11.6821 3.04285C11.8664 3.11198 12.0051 3.25688 12.0713 3.43204C12.081 3.45775 12.0891 3.48411 12.0956 3.51098C12.1242 3.61566 12.2104 3.80601 12.3651 3.96264C12.5095 4.10892 12.7079 4.22289 13.0032 4.22289C13.3715 4.22289 13.67 4.52144 13.67 4.88971C13.67 5.25798 13.3715 5.55653 13.0032 5.55653C12.3062 5.55653 11.7997 5.27913 11.4471 4.93091C11.0945 5.27913 10.5881 5.55653 9.89108 5.55653C9.19407 5.55653 8.68762 5.27913 8.33502 4.93091C7.98243 5.27913 7.47598 5.55653 6.77897 5.55653C6.12663 5.55653 5.64121 5.31354 5.29261 4.99694C5.19005 5.08594 5.08011 5.16194 4.96771 5.22553C4.51613 5.48102 4.00527 5.55653 3.66682 5.55653C3.29854 5.55653 3 5.25798 3 4.88971C3 4.52144 3.29854 4.22289 3.66682 4.22289C3.84705 4.22289 4.11421 4.17613 4.311 4.0648C4.40262 4.01296 4.46049 3.9577 4.49525 3.90475C4.52568 3.85841 4.55458 3.79015 4.556 3.67579C4.55537 3.6311 4.55928 3.58695 4.56738 3.54393C4.58865 3.42995 4.63891 3.32617 4.71021 3.24054Z" fill="black"/>
<path d="M4.71021 6.29733C4.81627 6.16997 4.96889 6.08275 5.14194 6.06181C5.31503 6.04042 5.48443 6.08838 5.6182 6.18672C5.70621 6.25142 5.7788 6.33793 5.82687 6.44085C5.84567 6.48091 5.8606 6.52315 5.87118 6.56708C5.89958 6.67162 5.98583 6.86246 6.14084 7.01943C6.2853 7.16571 6.48364 7.27968 6.77897 7.27968C7.07429 7.27968 7.27263 7.16571 7.41709 7.01943C7.57177 6.86279 7.65799 6.67243 7.68657 6.56776C7.69306 6.54089 7.7012 6.51453 7.7109 6.48883C7.74502 6.39785 7.7976 6.31797 7.86317 6.25245C7.9866 6.12911 8.15606 6.05666 8.33502 6.05679C8.41645 6.05673 8.49591 6.07169 8.56996 6.09964C8.66123 6.13387 8.74134 6.18669 8.80697 6.25255C8.87249 6.31805 8.92504 6.39789 8.95914 6.48883C8.96885 6.51454 8.97698 6.5409 8.98347 6.56776C9.01206 6.67245 9.09827 6.8628 9.25295 7.01943C9.39741 7.16571 9.59575 7.27968 9.89108 7.27968C10.1864 7.27968 10.3847 7.16571 10.5292 7.01943C10.6839 6.8628 10.7701 6.67245 10.7987 6.56776C10.8052 6.5409 10.8133 6.51454 10.823 6.48883C10.8891 6.31367 11.0279 6.16877 11.2122 6.09964C11.2862 6.0717 11.3657 6.05673 11.4471 6.05679C11.5286 6.05673 11.608 6.07169 11.6821 6.09964C11.8664 6.16877 12.0051 6.31367 12.0713 6.48883C12.081 6.51454 12.0891 6.5409 12.0956 6.56776C12.1242 6.67245 12.2104 6.8628 12.3651 7.01943C12.5095 7.16571 12.7079 7.27968 13.0032 7.27968C13.3715 7.27968 13.67 7.57823 13.67 7.9465C13.67 8.31477 13.3715 8.61332 13.0032 8.61332C12.3062 8.61332 11.7997 8.33591 11.4471 7.9877C11.0945 8.33591 10.5881 8.61332 9.89108 8.61332C9.19407 8.61332 8.68762 8.33591 8.33502 7.9877C7.98243 8.33591 7.47598 8.61332 6.77897 8.61332C6.12663 8.61332 5.64121 8.37033 5.29261 8.05372C5.19005 8.14273 5.08011 8.21873 4.96771 8.28232C4.51613 8.53781 4.00527 8.61332 3.66682 8.61332C3.29854 8.61332 3 8.31477 3 7.9465C3 7.57823 3.29854 7.27968 3.66682 7.27968C3.84705 7.27968 4.11421 7.23292 4.311 7.12158C4.40262 7.06974 4.46049 7.01449 4.49525 6.96154C4.52568 6.9152 4.55458 6.84694 4.556 6.73258C4.55537 6.68788 4.55928 6.64374 4.56738 6.60071C4.58865 6.48674 4.63891 6.38296 4.71021 6.29733Z" fill="black"/>
<path d="M5.14194 9.11872C4.96889 9.13966 4.81627 9.22688 4.71021 9.35424C4.63891 9.43987 4.58865 9.54365 4.56738 9.65762C4.55928 9.70065 4.55537 9.74479 4.556 9.78949C4.55458 9.90385 4.52568 9.97211 4.49525 10.0184C4.46049 10.0714 4.40262 10.1267 4.311 10.1785C4.11421 10.2898 3.84705 10.3366 3.66682 10.3366C3.29854 10.3366 3 10.6351 3 11.0034C3 11.3717 3.29854 11.6702 3.66682 11.6702C4.00527 11.6702 4.51613 11.5947 4.96771 11.3392C5.08011 11.2756 5.19005 11.1996 5.29261 11.1106C5.64121 11.4272 6.12663 11.6702 6.77897 11.6702C7.47598 11.6702 7.98243 11.3928 8.33502 11.0446C8.68762 11.3928 9.19407 11.6702 9.89108 11.6702C10.5881 11.6702 11.0945 11.3928 11.4471 11.0446C11.7997 11.3928 12.3062 11.6702 13.0032 11.6702C13.3715 11.6702 13.67 11.3717 13.67 11.0034C13.67 10.6351 13.3715 10.3366 13.0032 10.3366C12.7079 10.3366 12.5095 10.2226 12.3651 10.0763C12.2104 9.91971 12.1242 9.72936 12.0956 9.62467C12.0891 9.59781 12.081 9.57145 12.0713 9.54574C12.0051 9.37058 11.8664 9.22568 11.6821 9.15655C11.608 9.1286 11.5286 9.11364 11.4471 9.1137C11.3657 9.11364 11.2862 9.12861 11.2122 9.15655C11.0279 9.22568 10.8891 9.37058 10.823 9.54574C10.8133 9.57145 10.8052 9.59781 10.7987 9.62467C10.7701 9.72935 10.6839 9.91971 10.5292 10.0763C10.3847 10.2226 10.1864 10.3366 9.89108 10.3366C9.59575 10.3366 9.39741 10.2226 9.25295 10.0763C9.09828 9.91971 9.01206 9.72936 8.98347 9.62467C8.97698 9.59781 8.96885 9.57145 8.95914 9.54574C8.92504 9.4548 8.8725 9.37496 8.80698 9.30946C8.74134 9.2436 8.66124 9.19078 8.56996 9.15655C8.49591 9.1286 8.41645 9.11364 8.33502 9.1137C8.15605 9.11357 7.9866 9.18602 7.86317 9.30936C7.7976 9.37488 7.74502 9.45476 7.7109 9.54574C7.7012 9.57144 7.69306 9.5978 7.68657 9.62466C7.65799 9.72934 7.57177 9.9197 7.41709 10.0763C7.27263 10.2226 7.07429 10.3366 6.77897 10.3366C6.48364 10.3366 6.2853 10.2226 6.14084 10.0763C5.98583 9.91937 5.89958 9.72852 5.87118 9.62399C5.8606 9.58006 5.84567 9.53782 5.82687 9.49776C5.7788 9.39484 5.70621 9.30833 5.6182 9.24363C5.48443 9.14529 5.31503 9.09732 5.14194 9.11872Z" fill="black"/>
</svg>
