<svg width="28" height="28" viewBox="0 0 28 28" fill="none" xmlns="http://www.w3.org/2000/svg">
<path d="M13.229 6.19035C14.176 5.88519 15.1152 5.99308 15.7156 6.19243L15.7418 6.20113L15.7673 6.21172C16.1044 6.35163 16.6782 6.62452 17.1543 7.25674C17.632 7.89129 17.9499 8.80406 17.9499 10.1153C17.9499 11.5373 17.3635 12.5054 16.5735 13.0956C15.8206 13.6581 14.9368 13.8395 14.3333 13.8395H5.75824C5.33948 13.8395 5 13.5 5 13.0811C5 12.6623 5.33948 12.3227 5.75824 12.3227H14.3333C14.6826 12.3227 15.2281 12.2075 15.6661 11.8803C16.0671 11.5808 16.4335 11.066 16.4335 10.1153C16.4335 9.0539 16.1797 8.48377 15.9429 8.16925C15.7133 7.86436 15.442 7.72106 15.2128 7.62392C14.8573 7.51189 14.2674 7.44936 13.694 7.6341C13.1453 7.81092 12.5575 8.22898 12.1824 9.20185C12.0318 9.59266 11.5929 9.78731 11.2022 9.63662C10.8114 9.48592 10.6168 9.04695 10.7675 8.65613C11.3071 7.25634 12.2438 6.50784 13.229 6.19035Z" fill="black"/>
<path d="M18.9482 12.4796C19.3789 12.0582 19.9879 11.7295 20.6217 11.7295C21.1299 11.7295 21.8708 11.8813 22.5047 12.3549C23.1755 12.8561 23.6667 13.6759 23.6667 14.8606C23.6667 16.0453 23.1755 16.8652 22.5047 17.3664C21.8708 17.8399 21.1299 17.9917 20.6217 17.9917H19.6852C19.8203 18.4911 19.8108 19.0909 19.6439 19.7836C19.3693 20.9232 18.3827 21.5507 17.1917 21.5507C16.5043 21.5507 15.9555 21.2518 15.5715 20.9252C15.193 20.6033 14.9305 20.2193 14.7936 19.9352C14.6118 19.5579 14.7702 19.1046 15.1475 18.9227C15.5247 18.7409 15.9779 18.8993 16.1597 19.2766C16.2134 19.388 16.351 19.5971 16.5538 19.7696C16.751 19.9373 16.9644 20.0338 17.1917 20.0338C17.83 20.0338 18.0915 19.7525 18.1696 19.4282C18.3664 18.6113 18.2035 18.2797 18.1182 18.1679C18.0211 18.0407 17.8691 17.9917 17.7634 17.9917H5.75824C5.33948 17.9917 5 17.6521 5 17.2333C5 16.8144 5.33948 16.4749 5.75824 16.4749H20.6217C20.8758 16.4749 21.2783 16.3893 21.5972 16.1511C21.8791 15.9405 22.1502 15.574 22.1502 14.8606C22.1502 14.1472 21.8791 13.7807 21.5972 13.5701C21.2783 13.3319 20.8758 13.2464 20.6217 13.2464C20.4933 13.2464 20.2448 13.3329 20.0086 13.564C19.7806 13.787 19.665 14.0472 19.665 14.2675C19.665 14.6863 19.3255 15.0259 18.9067 15.0259C18.4879 15.0259 18.1485 14.6863 18.1485 14.2675C18.1485 13.5386 18.5092 12.9091 18.9482 12.4796Z" fill="black"/>
<path d="M7.01587 7.68206C7.42632 7.68206 7.75905 7.33708 7.75905 6.91152C7.75905 6.48596 7.42632 6.14098 7.01587 6.14098C6.60543 6.14098 6.2727 6.48596 6.2727 6.91152C6.2727 7.33708 6.60543 7.68206 7.01587 7.68206Z" fill="black"/>
<path d="M12.3324 21.5628C12.3324 21.9884 11.9997 22.3333 11.5892 22.3333C11.1788 22.3333 10.8461 21.9884 10.8461 21.5628C10.8461 21.1372 11.1788 20.7923 11.5892 20.7923C11.9997 20.7923 12.3324 21.1372 12.3324 21.5628Z" fill="black"/>
<path d="M20.7932 8.69056C21.2036 8.69056 21.5364 8.34558 21.5364 7.92002C21.5364 7.49447 21.2036 7.14948 20.7932 7.14948C20.3828 7.14948 20.05 7.49447 20.05 7.92002C20.05 8.34558 20.3828 8.69056 20.7932 8.69056Z" fill="black"/>
</svg>
