<svg width="24" height="24" viewBox="0 0 24 24" fill="none" xmlns="http://www.w3.org/2000/svg">
<path d="M11 6C8.70486 6 6.77602 7.4938 6.2891 9.50672C6.21904 9.79634 6.0014 9.93204 5.84723 9.93204H5.71511C4.22456 9.93204 3 11.0581 3 12.466C3 13.3173 3.44771 14.0656 4.13121 14.5241C4.24255 14.136 4.42103 13.7785 4.65228 13.4609C4.37359 13.2061 4.20231 12.8526 4.20231 12.466C4.20231 11.7023 4.87066 11.068 5.71511 11.068H5.84723C6.71463 11.068 7.30365 10.4111 7.46119 9.7598C7.82313 8.26353 9.26555 7.13592 11 7.13592C11.9442 7.13592 12.8018 7.47008 13.4458 8.01597C14.0952 8.06263 14.7189 8.21042 15.2968 8.44428C14.4942 6.99007 12.8685 6 11 6Z" fill="black"/>
<path fill-rule="evenodd" clip-rule="evenodd" d="M8.2891 12.5067C8.77602 10.4938 10.7049 9 13 9C15.2951 9 17.224 10.4938 17.7109 12.5067C17.781 12.7963 17.9986 12.932 18.1528 12.932H18.2849C19.7754 12.932 21 14.0581 21 15.466C21 16.8739 19.7754 18 18.2849 18H7.71511C6.22456 18 5 16.8739 5 15.466C5 14.0581 6.22456 12.932 7.71511 12.932H7.84723C8.0014 12.932 8.21904 12.7963 8.2891 12.5067ZM13 10.1359C11.2655 10.1359 9.82313 11.2635 9.46119 12.7598C9.30365 13.4111 8.71463 14.068 7.84723 14.068H7.71511C6.87066 14.068 6.20231 14.7023 6.20231 15.466C6.20231 16.2297 6.87066 16.8641 7.71511 16.8641H18.2849C19.1293 16.8641 19.7977 16.2297 19.7977 15.466C19.7977 14.7023 19.1293 14.068 18.2849 14.068H18.1528C17.2854 14.068 16.6964 13.4111 16.5388 12.7598C16.1769 11.2635 14.7345 10.1359 13 10.1359Z" fill="black"/>
</svg>
