<svg width="16" height="16" viewBox="0 0 16 16" fill="none" xmlns="http://www.w3.org/2000/svg">
<path d="M7.33333 3C5.80324 3 4.51735 3.99586 4.19273 5.33781C4.14603 5.53089 4.00094 5.62136 3.89816 5.62136H3.81007C2.81637 5.62136 2 6.37209 2 7.31068C2 7.8782 2.29847 8.37704 2.75414 8.68277C3.02944 7.72313 3.92046 7.04396 4.93838 6.96285C5.4204 5.41439 6.93343 4.33333 8.66667 4.33333C9.20661 4.33333 9.72518 4.43825 10.1979 4.62952C9.66283 3.66004 8.579 3 7.33333 3Z" fill="black"/>
<path d="M5.52607 7.33781C5.85068 5.99586 7.13658 5 8.66667 5C10.1968 5 11.4827 5.99586 11.8073 7.33781C11.854 7.53089 11.9991 7.62136 12.1018 7.62136H12.1899C13.1836 7.62136 14 8.37209 14 9.31068C14 10.2493 13.1836 11 12.1899 11H9.99448C9.96885 10.5615 9.71689 10.1438 9.28803 9.93429L9.4445 9.77782C9.87408 9.34825 9.87408 8.65176 9.4445 8.22219C9.01492 7.79261 8.31844 7.79261 7.88886 8.22219L6.73426 9.37679C6.27579 9.83526 6.25805 10.5215 6.59166 11H5.14341C4.1497 11 3.33333 10.2493 3.33333 9.31068C3.33333 8.37209 4.1497 7.62136 5.14341 7.62136H5.23149C5.33427 7.62136 5.47936 7.53089 5.52607 7.33781Z" fill="black"/>
<path d="M9.32127 10.9719C9.32285 10.9813 9.32421 10.9906 9.32535 11C9.34383 11.1524 9.30451 11.313 9.19802 11.4461L8.00503 12.9374C7.85552 13.1242 7.58283 13.1545 7.39595 13.005C7.20907 12.8555 7.17877 12.5828 7.32827 12.396L8.29672 11.1854L7.40709 10.8295C7.00715 10.6696 6.90104 10.1528 7.20563 9.8482L8.36024 8.69359C8.44486 8.60897 8.55577 8.56666 8.66668 8.56667C8.70484 8.56667 8.743 8.57168 8.78009 8.5817C8.85079 8.60079 8.91759 8.63809 8.97309 8.69359C9.14232 8.86282 9.14232 9.13719 8.97309 9.30642L8.10445 10.1751L8.95233 10.5142C9.12036 10.5814 9.23782 10.713 9.29335 10.866C9.30583 10.9004 9.31518 10.9359 9.32127 10.9719Z" fill="black"/>
</svg>
