<svg width="48" height="48" viewBox="0 0 48 48" fill="none" xmlns="http://www.w3.org/2000/svg">
<path d="M19.2518 30.4194C19.505 29.888 20.083 29.011 20.9316 28.2811C21.7696 27.5603 22.8019 27.0394 24 27.0394C25.198 27.0394 26.2303 27.5603 27.0683 28.2811C27.9169 29.011 28.4949 29.888 28.7481 30.4194C29.0633 31.0809 29.8298 31.349 30.4601 31.0182C31.0905 30.6875 31.346 29.8832 31.0308 29.2217C30.6296 28.3797 29.8334 27.1967 28.6862 26.2098C27.5283 25.2139 25.943 24.3613 24 24.3613C22.0569 24.3613 20.4716 25.2139 19.3138 26.2098C18.1665 27.1967 17.3703 28.3797 16.9691 29.2217C16.6539 29.8832 16.9094 30.6875 17.5398 31.0182C18.1701 31.349 18.9366 31.0809 19.2518 30.4194Z" fill="black"/>
<path d="M24 36.0008C25.3552 36.0008 26.4539 34.8479 26.4539 33.4257C26.4539 32.0035 25.3552 30.8506 24 30.8506C22.6447 30.8506 21.546 32.0035 21.546 33.4257C21.546 34.8479 22.6447 36.0008 24 36.0008Z" fill="black"/>
</svg>
