<svg width="48" height="48" viewBox="0 0 48 48" fill="none" xmlns="http://www.w3.org/2000/svg">
<path d="M29.5968 13.8936C29.8834 13.1857 29.5349 12.3823 28.8183 12.0991C28.1018 11.8159 27.2886 12.1603 27.002 12.8682L18.4032 34.1064C18.1166 34.8143 18.4651 35.6177 19.1817 35.9009C19.8982 36.1841 20.7114 35.8397 20.998 35.1318L29.5968 13.8936Z" fill="black"/>
<path d="M16.3892 16.6524C16.9349 17.1915 16.9349 18.0656 16.3892 18.6047L11.3082 23.6246C11.0983 23.8319 11.0983 24.1681 11.3082 24.3754L16.3892 29.3953C16.9349 29.9344 16.9349 30.8085 16.3892 31.3476C15.8436 31.8868 14.9588 31.8868 14.4131 31.3476L8.72408 25.727C7.75864 24.7732 7.75864 23.2268 8.72408 22.273L14.4131 16.6524C14.9588 16.1132 15.8436 16.1132 16.3892 16.6524Z" fill="black"/>
<path d="M31.6108 31.3476C31.0651 30.8085 31.0651 29.9344 31.6108 29.3953L36.6918 24.3754C36.9017 24.1681 36.9017 23.8319 36.6918 23.6246L31.6108 18.6047C31.0651 18.0656 31.0651 17.1915 31.6108 16.6524C32.1564 16.1132 33.0412 16.1132 33.5869 16.6524L39.2759 22.273C40.2414 23.2268 40.2414 24.7732 39.2759 25.727L33.5869 31.3476C33.0412 31.8868 32.1564 31.8868 31.6108 31.3476Z" fill="black"/>
</svg>
