<svg width="16" height="16" viewBox="0 0 16 16" fill="none" xmlns="http://www.w3.org/2000/svg">
<path fill-rule="evenodd" clip-rule="evenodd" d="M12.3306 3.72747C12.3658 3.33657 12.0544 3 11.6577 3H3.67568C3.27891 3 2.96756 3.33657 3.00271 3.72747L3.7612 12.1627C3.78611 12.4397 3.98192 12.6725 4.2528 12.7472L7.49951 13.6421C7.61861 13.675 7.74453 13.6748 7.86356 13.6418L11.0817 12.7478C11.352 12.6727 11.5472 12.4402 11.572 12.1636L12.3306 3.72747ZM10.3025 6.00838C10.295 6.1214 10.2301 6.22297 10.1301 6.2782L8.30654 7.28541C8.24574 7.31899 8.26984 7.41058 8.33948 7.41058H9.80129C9.99797 7.41058 10.1531 7.57613 10.1381 7.77011L9.90759 10.7626C9.89715 10.8981 9.80474 11.0139 9.67386 11.0554L7.78229 11.655C7.7156 11.6762 7.64393 11.6763 7.57717 11.6554L5.66075 11.055C5.52921 11.0137 5.43623 10.8975 5.4259 10.7614L5.35015 9.76428C5.32592 9.44535 5.581 9.17337 5.90435 9.17337C6.20069 9.17337 6.44491 9.40336 6.45944 9.69612L6.46774 9.86327C6.47474 10.0041 6.57041 10.1255 6.70682 10.1666L7.58036 10.4294C7.64515 10.4489 7.71436 10.4487 7.77902 10.4288L8.63005 10.167C8.76468 10.1256 8.85914 10.0058 8.86701 9.86657L8.91928 8.94096C8.9301 8.74939 8.77597 8.58818 8.58199 8.58818H5.56355C5.38789 8.58818 5.24154 8.45502 5.22691 8.28187L5.1659 7.55949C5.15489 7.42916 5.22177 7.30446 5.33703 7.24039L7.00217 6.31472C7.06279 6.28102 7.03861 6.18964 6.96907 6.18964H5.62145C5.31217 6.18964 5.05376 5.95672 5.02509 5.65213C4.9924 5.30477 5.26874 5.00481 5.62145 5.00481H10.0084C10.2037 5.00481 10.3583 5.16811 10.3455 5.36086L10.3025 6.00838Z" fill="black"/>
</svg>
