<svg width="16" height="16" viewBox="0 0 16 16" fill="none" xmlns="http://www.w3.org/2000/svg">
<path fill-rule="evenodd" clip-rule="evenodd" d="M5.00063 3C3.89571 3 3 3.89571 3 5.00063V11.6694C3 12.7743 3.89571 13.67 5.00063 13.67H11.6694C12.7743 13.67 13.67 12.7743 13.67 11.6694V5.00063C13.67 3.89571 12.7743 3 11.6694 3H5.00063ZM6.00094 8.66844C5.81678 8.66844 5.6675 8.51915 5.6675 8.335C5.6675 8.15085 5.81678 8.00156 6.00094 8.00156H8.00156V6.00094C8.00156 5.81678 8.15085 5.6675 8.335 5.6675C8.51915 5.6675 8.66844 5.81679 8.66844 6.00094V8.00156H10.6691C10.8532 8.00156 11.0025 8.15085 11.0025 8.335C11.0025 8.51915 10.8532 8.66844 10.6691 8.66844H8.66844V10.6691C8.66844 10.8532 8.51915 11.0025 8.335 11.0025C8.15085 11.0025 8.00156 10.8532 8.00156 10.6691V8.66844H6.00094Z" fill="black"/>
</svg>
