<svg width="16" height="16" viewBox="0 0 16 16" fill="none" xmlns="http://www.w3.org/2000/svg">
<path d="M6 8.66844C5.81591 8.66844 5.66667 8.51915 5.66667 8.335C5.66667 8.15085 5.81591 8.00156 6 8.00156H8V6.00094C8 5.81678 8.14924 5.6675 8.33333 5.6675C8.51743 5.6675 8.66667 5.81679 8.66667 6.00094V8.00156H10.6667C10.8508 8.00156 11 8.15085 11 8.335C11 8.51915 10.8508 8.66844 10.6667 8.66844H8.66667V10.6691C8.66667 10.8532 8.51743 11.0025 8.33333 11.0025C8.14924 11.0025 8 10.8532 8 10.6691V8.66844H6Z" fill="black"/>
<path fill-rule="evenodd" clip-rule="evenodd" d="M3 5.00063C3 3.89571 3.89543 3 5 3H11.6667C12.7712 3 13.6667 3.89571 13.6667 5.00063V11.6694C13.6667 12.7743 12.7712 13.67 11.6667 13.67H5C3.89543 13.67 3 12.7743 3 11.6694V5.00063ZM5 3.86694H11.6667C12.2926 3.86694 12.8 4.37451 12.8 5.00063V11.6694C12.8 12.2955 12.2926 12.8031 11.6667 12.8031H5C4.37408 12.8031 3.86667 12.2955 3.86667 11.6694V5.00063C3.86667 4.37451 4.37408 3.86694 5 3.86694Z" fill="black"/>
</svg>
