<svg width="16" height="16" viewBox="0 0 16 16" fill="none" xmlns="http://www.w3.org/2000/svg">
<path d="M13.6667 3.66667C13.6667 3.29847 13.3682 3 13 3H11.6667C11.2985 3 11 3.29847 11 3.66667C11 4.03486 11.2985 4.33333 11.6667 4.33333H13C13.3682 4.33333 13.6667 4.03486 13.6667 3.66667Z" fill="black"/>
<path d="M7.66667 7.43709C7.66667 7.3777 7.59486 7.34795 7.55286 7.38995L6.27613 8.66667C6.01578 8.92702 5.59367 8.92701 5.33333 8.66666C5.07299 8.40631 5.07299 7.98421 5.33333 7.72387L7.86193 5.19526C8.12228 4.93491 8.54439 4.93491 8.80474 5.19526L11.3333 7.72387C11.5937 7.98421 11.5937 8.40631 11.3333 8.66666C11.073 8.92701 10.6509 8.92702 10.3905 8.66667L9.11381 7.38995C9.07181 7.34795 9 7.3777 9 7.43709V11C9 11.3682 8.70152 11.6667 8.33333 11.6667C7.96514 11.6667 7.66667 11.3682 7.66667 11V7.43709Z" fill="black"/>
<path d="M13 12.3333C13.3682 12.3333 13.6667 12.6318 13.6667 13C13.6667 13.3682 13.3682 13.6667 13 13.6667H3.66667C3.29846 13.6667 3 13.3682 3 13C3 12.6318 3.29846 12.3333 3.66667 12.3333H13Z" fill="black"/>
<path d="M5 3C5.3682 3 5.66667 3.29847 5.66667 3.66667C5.66667 4.03486 5.3682 4.33333 5 4.33333H3.66667C3.29846 4.33333 3 4.03486 3 3.66667C3 3.29847 3.29846 3 3.66667 3H5Z" fill="black"/>
<path d="M10.3333 3.66667C10.3333 3.29847 10.0349 3 9.66667 3H7C6.6318 3 6.33333 3.29847 6.33333 3.66667C6.33333 4.03486 6.6318 4.33333 7 4.33333H9.66667C10.0349 4.33333 10.3333 4.03486 10.3333 3.66667Z" fill="black"/>
</svg>
