<svg width="28" height="28" viewBox="0 0 28 28" fill="none" xmlns="http://www.w3.org/2000/svg">
<path fill-rule="evenodd" clip-rule="evenodd" d="M5.99167 10.3323V9.26762C5.99167 7.46296 7.37585 6 9.08333 6H19.5833C21.2908 6 22.675 7.46296 22.675 9.26762V10.3323C23.2748 10.7786 23.6667 11.5161 23.6667 12.3503V16.0495C23.6667 17.4115 22.622 18.5156 21.3333 18.5156H20.0724L21.2862 19.7984C21.5824 20.1114 21.5824 20.6189 21.2862 20.9319C20.9901 21.2449 20.5099 21.2449 20.2138 20.9319L17.9276 18.5156H10.7391L8.45289 20.9319C8.15674 21.2449 7.67659 21.2449 7.38044 20.9319C7.0843 20.6189 7.0843 20.1114 7.38044 19.7984L8.59422 18.5156H7.33333C6.04467 18.5156 5 17.4115 5 16.0495V12.3503C5 11.5161 5.39187 10.7786 5.99167 10.3323ZM7.50833 9.26762C7.50833 8.34826 8.21348 7.60298 9.08333 7.60298H19.5833C20.4532 7.60298 21.1583 8.34826 21.1583 9.26762V9.88415H20.1667C18.878 9.88415 17.8333 10.9883 17.8333 12.3503V12.8435C17.8333 12.9116 17.7811 12.9668 17.7167 12.9668H10.95C10.8856 12.9668 10.8333 12.9116 10.8333 12.8435V12.3503C10.8333 10.9883 9.78866 9.88415 8.5 9.88415H7.50833V9.26762Z" fill="black"/>
</svg>
