<svg width="24" height="24" viewBox="0 0 24 24" fill="none" xmlns="http://www.w3.org/2000/svg">
<path d="M4.10962 3.19038C3.85578 2.93654 3.44422 2.93654 3.19038 3.19038C2.93654 3.44422 2.93654 3.85578 3.19038 4.10962L19.8908 20.8101C20.1447 21.0639 20.5562 21.0639 20.8101 20.8101C21.0639 20.5562 21.0639 20.1447 20.8101 19.8908L4.10962 3.19038Z" fill="black"/>
<path d="M4.54103 16.017L9.11562 11.1156L10.0354 12.0354L5.86177 16.5072C5.72758 16.6509 5.63876 16.8311 5.60643 17.0251L5.44799 17.9757C5.39159 18.3141 5.68498 18.6075 6.02339 18.5511L6.97404 18.3927C7.16803 18.3604 7.34818 18.2715 7.49196 18.1374L11.9637 13.9637L12.8835 14.8835L7.98214 19.4581C7.91025 19.5252 7.82018 19.5696 7.72318 19.5858L5.33949 19.983C4.56114 20.1128 3.88635 19.438 4.01608 18.6596L4.41336 16.2759C4.42952 16.1789 4.47393 16.0889 4.54103 16.017Z" fill="black"/>
<path fill-rule="evenodd" clip-rule="evenodd" d="M11.0467 9.04666L11.9664 9.96644L12.1321 9.78894L14.2102 11.867L14.0327 12.0327L14.9525 12.9525L15.13 12.7868L15.4654 13.1222C16.1276 13.7844 17.2076 13.7634 17.8435 13.0758L18.5042 12.3614C19.1059 11.7107 19.0862 10.701 18.4596 10.0743L18.1115 9.72629L19.1264 8.82139L19.1396 8.80823C19.4656 8.48222 19.8504 7.90941 19.9653 7.20336C20.0868 6.457 19.8953 5.61515 19.1396 4.85944C18.3839 4.10373 17.542 3.91222 16.7957 4.03372C16.0998 4.147 15.5333 4.5224 15.205 4.84532L14.1612 5.77599L13.8158 5.43052C13.1535 4.76829 12.0735 4.78938 11.4377 5.47694L10.7769 6.19138C10.1752 6.84201 10.1949 7.85176 10.8216 8.47841L11.2123 8.86915L11.0467 9.04666ZM16.3846 12.203C16.5251 12.3435 16.7542 12.339 16.8891 12.1931L17.5498 11.4787C17.6774 11.3407 17.6733 11.1265 17.5403 10.9936L16.8928 10.346C16.527 9.98024 16.5441 9.38212 16.9302 9.03786L18.232 7.87717C18.4088 7.69553 18.6218 7.36582 18.6822 6.99448C18.7374 6.65525 18.6765 6.23479 18.2204 5.77868C17.7642 5.32256 17.3438 5.26161 17.0046 5.31683C16.625 5.37862 16.289 5.59976 16.11 5.77868L14.7444 6.99769C14.3884 7.31518 13.8464 7.29966 13.5091 6.96233L12.8965 6.34976C12.756 6.20929 12.527 6.21376 12.3921 6.3596L11.7313 7.07404C11.6037 7.21205 11.6079 7.42624 11.7408 7.55917L16.3846 12.203Z" fill="black"/>
</svg>
