<svg width="16" height="16" viewBox="0 0 16 16" fill="none" xmlns="http://www.w3.org/2000/svg">
<path d="M12.3333 5.16667C12.3333 4.92734 12.1393 4.73333 11.9 4.73333C11.6607 4.73333 11.4667 4.92734 11.4667 5.16667V6.16667C11.4667 6.40599 11.6607 6.6 11.9 6.6C12.1393 6.6 12.3333 6.40599 12.3333 6.16667V5.16667Z" fill="black"/>
<path d="M11.9 7.4C12.1393 7.4 12.3333 7.59401 12.3333 7.83333V8.83333C12.3333 9.07266 12.1393 9.26667 11.9 9.26667C11.6607 9.26667 11.4667 9.07266 11.4667 8.83333V7.83333C11.4667 7.59401 11.6607 7.4 11.9 7.4Z" fill="black"/>
<path d="M12.3333 10.5C12.3333 10.2607 12.1393 10.0667 11.9 10.0667C11.6607 10.0667 11.4667 10.2607 11.4667 10.5V11.5C11.4667 11.7393 11.6607 11.9333 11.9 11.9333C12.1393 11.9333 12.3333 11.7393 12.3333 11.5V10.5Z" fill="black"/>
<path fill-rule="evenodd" clip-rule="evenodd" d="M3 3.66667C3 3.29848 3.29848 3 3.66667 3H10.3333C10.7015 3 11 3.29848 11 3.66667V13C11 13.3682 10.7015 13.6667 10.3333 13.6667H3.66667C3.29848 13.6667 3 13.3682 3 13V3.66667ZM5.66667 4.33333C4.93029 4.33333 4.33333 4.93029 4.33333 5.66667C4.33333 6.40305 4.93029 7 5.66667 7H8.33333C9.06971 7 9.66667 6.40305 9.66667 5.66667C9.66667 4.93029 9.06971 4.33333 8.33333 4.33333H5.66667Z" fill="black"/>
</svg>
