<svg width="20" height="20" viewBox="0 0 20 20" fill="none" xmlns="http://www.w3.org/2000/svg">
<path d="M4 3.818C4 3.36623 4.39273 3 4.87719 3H14.7895C15.2739 3 15.6667 3.36623 15.6667 3.818V5.04499C15.6667 5.33864 15.4114 5.57669 15.0965 5.57669C14.7816 5.57669 14.5263 5.33864 14.5263 5.04499V4.26789C14.5263 4.15495 14.4281 4.06339 14.307 4.06339H10.6228C10.5017 4.06339 10.4035 4.15495 10.4035 4.26789V15.0654C10.4035 15.1784 10.5017 15.2699 10.6228 15.2699H11.8947C12.2096 15.2699 12.4649 15.508 12.4649 15.8016C12.4649 16.0953 12.2096 16.3333 11.8947 16.3333H7.77193C7.45703 16.3333 7.20175 16.0953 7.20175 15.8016C7.20175 15.508 7.45703 15.2699 7.77193 15.2699H9.04386C9.16498 15.2699 9.26316 15.1784 9.26316 15.0654V4.26789C9.26316 4.15495 9.16497 4.06339 9.04386 4.06339H5.35965C5.23853 4.06339 5.14035 4.15495 5.14035 4.26789V5.04499C5.14035 5.33864 4.88507 5.57669 4.57018 5.57669C4.25528 5.57669 4 5.33864 4 5.04499V3.818Z" fill="black"/>
</svg>
