<svg width="20" height="20" viewBox="0 0 20 20" fill="none" xmlns="http://www.w3.org/2000/svg">
<path d="M6.95833 7.16667C6.95833 7.05161 6.86506 6.95833 6.75 6.95833C6.63494 6.95833 6.54167 7.05161 6.54167 7.16667V8C6.54167 8.11506 6.63494 8.20833 6.75 8.20833C6.86506 8.20833 6.95833 8.11506 6.95833 8V7.16667Z" fill="black"/>
<path d="M12.5833 6.95833C12.6984 6.95833 12.7917 7.05161 12.7917 7.16667V8C12.7917 8.11506 12.6984 8.20833 12.5833 8.20833C12.4683 8.20833 12.375 8.11506 12.375 8V7.16667C12.375 7.05161 12.4683 6.95833 12.5833 6.95833Z" fill="black"/>
<path fill-rule="evenodd" clip-rule="evenodd" d="M3 6.33333C3 4.49238 4.49238 3 6.33333 3H13C14.8409 3 16.3333 4.49238 16.3333 6.33333V13C16.3333 14.8409 14.8409 16.3333 13 16.3333H6.33333C4.49238 16.3333 3 14.8409 3 13V6.33333ZM8.92987 5.99813C9.07844 5.33757 9.23952 4.68548 9.39724 4.08333H6.33333C5.09069 4.08333 4.08333 5.09069 4.08333 6.33333V13C4.08333 14.2426 5.09069 15.25 6.33333 15.25H10.901C10.6939 14.674 10.5728 14.0481 10.5036 13.4537C10.5003 13.4247 10.497 13.3956 10.4938 13.3666L10.4612 13.3722C9.22394 13.5778 7.73799 13.2773 6.19492 11.9057C6.10893 11.8293 6.10118 11.6976 6.17762 11.6116C6.25406 11.5256 6.38575 11.5178 6.47174 11.5943C7.92868 12.8893 9.28995 13.1444 10.3929 12.9612C10.4141 12.9576 10.4351 12.954 10.4561 12.9501C10.4011 12.202 10.4146 11.4747 10.4581 10.8814H8.83333C8.53418 10.8814 8.29167 10.6389 8.29167 10.3397C8.29167 9.18461 8.58216 7.54409 8.92987 5.99813ZM11.5506 13.0448C12.2549 12.7339 12.8089 12.2848 13.1568 11.8872C13.2326 11.8006 13.2238 11.669 13.1372 11.5932C13.0506 11.5174 12.919 11.5262 12.8432 11.6128C12.5526 11.9449 12.0967 12.3211 11.5197 12.6C11.4766 11.7501 11.5242 10.9469 11.5929 10.4082C11.6341 10.0845 11.3819 9.79808 11.0556 9.79808H9.39547C9.4639 8.81217 9.69678 7.52532 9.9868 6.23585C10.1553 5.48647 10.3405 4.74758 10.5178 4.08333H13C14.2426 4.08333 15.25 5.09069 15.25 6.33333V13C15.25 14.2426 14.2426 15.25 13 15.25H12.0717C11.8255 14.731 11.6653 14.0634 11.5797 13.3284C11.5687 13.2339 11.559 13.1393 11.5506 13.0448Z" fill="black"/>
</svg>
