<svg width="48" height="48" viewBox="0 0 48 48" fill="none" xmlns="http://www.w3.org/2000/svg">
<path fill-rule="evenodd" clip-rule="evenodd" d="M8 15.0704C8 12.8224 9.7911 11 12.0005 11H36.0038C38.2132 11 40.0043 12.8224 40.0043 15.0704V19.1408C40.0043 21.3888 38.2132 23.2112 36.0038 23.2112H12.0005C9.7911 23.2112 8 21.3888 8 19.1408V15.0704ZM32.7034 18.4285C33.4214 18.4285 34.0036 17.8362 34.0036 17.1056C34.0036 16.375 33.4214 15.7827 32.7034 15.7827C31.9853 15.7827 31.4032 16.375 31.4032 17.1056C31.4032 17.8362 31.9853 18.4285 32.7034 18.4285ZM14.0008 15.7827C13.2827 15.7827 12.7006 16.375 12.7006 17.1056C12.7006 17.8362 13.2827 18.4285 14.0008 18.4285H22.0019C22.72 18.4285 23.3021 17.8362 23.3021 17.1056C23.3021 16.375 22.72 15.7827 22.0019 15.7827H14.0008Z" fill="black"/>
<path fill-rule="evenodd" clip-rule="evenodd" d="M8 29.3168C8 27.0688 9.7911 25.2464 12.0005 25.2464H36.0038C38.2132 25.2464 40.0043 27.0688 40.0043 29.3168V29.6582C39.3787 29.4371 38.7054 29.3168 38.0041 29.3168H32.0033C28.6891 29.3168 26.0024 32.0034 26.0024 35.3176V35.5272C26.0024 36.2025 26.114 36.8518 26.3197 37.4576H12.0005C9.7911 37.4576 8 35.6352 8 33.3872V29.3168ZM14.0008 30.0291C13.2827 30.0291 12.7006 30.6214 12.7006 31.352C12.7006 32.0826 13.2827 32.6749 14.0008 32.6749H22.0019C22.72 32.6749 23.3021 32.0826 23.3021 31.352C23.3021 30.6214 22.72 30.0291 22.0019 30.0291H14.0008Z" fill="black"/>
<path d="M39.7339 41.0035C40.4107 41.0035 41.4562 40.7454 42.3501 40.0141C43.2898 39.2453 44 38.0032 44 36.1865C44 34.3698 43.2898 33.1276 42.3501 32.3588C41.4562 31.6276 40.4107 31.3694 39.7339 31.3694H37.8677C37.3153 31.3694 36.8675 31.8172 36.8675 32.3696C36.8675 32.9219 37.3153 33.3697 37.8677 33.3697H39.7339C39.9903 33.3697 40.5777 33.4933 41.0835 33.907C41.5435 34.2833 41.9997 34.9496 41.9997 36.1865C41.9997 37.4233 41.5435 38.0896 41.0835 38.4659C40.5777 38.8797 39.9903 39.0032 39.7339 39.0032H37.8677C37.3153 39.0032 36.8675 39.451 36.8675 40.0034C36.8675 40.5557 37.3153 41.0035 37.8677 41.0035H39.7339Z" fill="black"/>
<path d="M32.2688 31.3694C31.5921 31.3694 30.5465 31.6276 29.6526 32.3589C28.7129 33.1276 28.0027 34.3698 28.0027 36.1865C28.0027 38.0032 28.7129 39.2453 29.6526 40.0141C30.5465 40.7454 31.5921 41.0035 32.2688 41.0035H34.135C34.6874 41.0035 35.1352 40.5557 35.1352 40.0034C35.1352 39.451 34.6874 39.0032 34.135 39.0032H32.2688C32.0124 39.0032 31.425 38.8797 30.9192 38.4659C30.4592 38.0896 30.003 37.4233 30.003 36.1865C30.003 34.9497 30.4592 34.2834 30.9192 33.907C31.425 33.4933 32.0124 33.3697 32.2688 33.3697H34.135C34.6874 33.3697 35.1352 32.9219 35.1352 32.3696C35.1352 31.8172 34.6874 31.3694 34.135 31.3694H32.2688Z" fill="black"/>
<path d="M31.2688 36.1865C31.2688 35.6341 31.7166 35.1863 32.2689 35.1863H39.7339C40.2863 35.1863 40.7341 35.6341 40.7341 36.1865C40.7341 36.7388 40.2863 37.1866 39.7339 37.1866H32.2689C31.7166 37.1866 31.2688 36.7388 31.2688 36.1865Z" fill="black"/>
</svg>
