<svg width="32" height="32" viewBox="0 0 32 32" fill="none" xmlns="http://www.w3.org/2000/svg">
<path d="M8.66667 8.33281C8.48257 8.33281 8.33333 8.48203 8.33333 8.66609V10.6658C8.33333 10.8498 8.48257 10.9991 8.66667 10.9991H10.6667C10.8508 10.9991 11 10.8498 11 10.6658V8.66609C11 8.48203 10.8508 8.33281 10.6667 8.33281H8.66667Z" fill="black"/>
<path fill-rule="evenodd" clip-rule="evenodd" d="M6.33333 5C5.59695 5 5 5.59686 5 6.33312V12.9987C5 13.735 5.59695 14.3319 6.33333 14.3319H13C13.7364 14.3319 14.3333 13.735 14.3333 12.9987V6.33312C14.3333 5.59686 13.7364 5 13 5H6.33333ZM8.33333 7.66625C7.96514 7.66625 7.66667 7.96468 7.66667 8.33281V10.9991C7.66667 11.3672 7.96514 11.6656 8.33333 11.6656H11C11.3682 11.6656 11.6667 11.3672 11.6667 10.9991V8.33281C11.6667 7.96468 11.3682 7.66625 11 7.66625H8.33333Z" fill="black"/>
<path d="M20.3333 8.66609C20.3333 8.48203 20.4826 8.33281 20.6667 8.33281H22.6667C22.8508 8.33281 23 8.48203 23 8.66609V10.6658C23 10.8498 22.8508 10.9991 22.6667 10.9991H20.6667C20.4826 10.9991 20.3333 10.8498 20.3333 10.6658V8.66609Z" fill="black"/>
<path fill-rule="evenodd" clip-rule="evenodd" d="M18.3333 5C17.597 5 17 5.59686 17 6.33312V12.9987C17 13.735 17.597 14.3319 18.3333 14.3319H25C25.7364 14.3319 26.3333 13.735 26.3333 12.9987V6.33312C26.3333 5.59686 25.7364 5 25 5H18.3333ZM20.3333 7.66625C19.9651 7.66625 19.6667 7.96468 19.6667 8.33281V10.9991C19.6667 11.3672 19.9651 11.6656 20.3333 11.6656H23C23.3682 11.6656 23.6667 11.3672 23.6667 10.9991V8.33281C23.6667 7.96468 23.3682 7.66625 23 7.66625H20.3333Z" fill="black"/>
<path d="M8.66667 20.3309C8.48257 20.3309 8.33333 20.4802 8.33333 20.6642V22.6639C8.33333 22.848 8.48257 22.9972 8.66667 22.9972H10.6667C10.8508 22.9972 11 22.848 11 22.6639V20.6642C11 20.4802 10.8508 20.3309 10.6667 20.3309H8.66667Z" fill="black"/>
<path fill-rule="evenodd" clip-rule="evenodd" d="M5 18.3313C5 17.595 5.59695 16.9981 6.33333 16.9981H13C13.7364 16.9981 14.3333 17.595 14.3333 18.3313V24.9969C14.3333 25.7331 13.7364 26.33 13 26.33H6.33333C5.59695 26.33 5 25.7331 5 24.9969V18.3313ZM8.33333 23.6637C7.96514 23.6637 7.66667 23.3653 7.66667 22.9972V20.3309C7.66667 19.9628 7.96514 19.6644 8.33333 19.6644H11C11.3682 19.6644 11.6667 19.9628 11.6667 20.3309V22.9972C11.6667 23.3653 11.3682 23.6637 11 23.6637H8.33333Z" fill="black"/>
<path d="M17 18.3313C17 17.595 17.597 16.9981 18.3333 16.9981H25C25.7364 16.9981 26.3333 17.595 26.3333 18.3313C26.3333 19.0675 25.7364 19.6644 25 19.6644H18.3333C17.597 19.6644 17 19.0675 17 18.3313Z" fill="black"/>
<path d="M18.3333 20.3309C17.597 20.3309 17 20.9278 17 21.6641C17 22.4003 17.597 22.9972 18.3333 22.9972H22.3333C23.0697 22.9972 23.6667 22.4003 23.6667 21.6641C23.6667 20.9278 23.0697 20.3309 22.3333 20.3309H18.3333Z" fill="black"/>
<path d="M17 24.9969C17 24.2606 17.597 23.6637 18.3333 23.6637H25C25.7364 23.6637 26.3333 24.2606 26.3333 24.9969C26.3333 25.7331 25.7364 26.33 25 26.33H18.3333C17.597 26.33 17 25.7331 17 24.9969Z" fill="black"/>
</svg>
