<svg width="24" height="24" viewBox="0 0 24 24" fill="none" xmlns="http://www.w3.org/2000/svg">
<path fill-rule="evenodd" clip-rule="evenodd" d="M4 7C4 5.89543 4.89543 5 6 5H18C19.1046 5 20 5.89543 20 7V17C20 18.1046 19.1046 19 18 19H6C4.89543 19 4 18.1046 4 17V7ZM7 9.5C7 8.94772 7.44772 8.5 8 8.5H10C10.5523 8.5 11 8.94772 11 9.5V12C11 12.5523 10.5523 13 10 13H8C7.44772 13 7 12.5523 7 12V9.5ZM12.5 8.85C12.141 8.85 11.85 9.14102 11.85 9.5C11.85 9.85898 12.141 10.15 12.5 10.15H16.5C16.859 10.15 17.15 9.85898 17.15 9.5C17.15 9.14102 16.859 8.85 16.5 8.85H12.5ZM11.85 12C11.85 11.641 12.141 11.35 12.5 11.35H16.5C16.859 11.35 17.15 11.641 17.15 12C17.15 12.359 16.859 12.65 16.5 12.65H12.5C12.141 12.65 11.85 12.359 11.85 12ZM7.5 14.35C7.14102 14.35 6.85 14.641 6.85 15C6.85 15.359 7.14102 15.65 7.5 15.65H16.5C16.859 15.65 17.15 15.359 17.15 15C17.15 14.641 16.859 14.35 16.5 14.35H7.5Z" fill="black"/>
</svg>
