<svg width="16" height="16" viewBox="0 0 16 16" fill="none" xmlns="http://www.w3.org/2000/svg">
<path d="M2.73973 2.12692C2.5705 1.95769 2.29614 1.95769 2.12692 2.12692C1.95769 2.29614 1.95769 2.5705 2.12692 2.73973L13.2603 13.8731C13.4295 14.0423 13.7039 14.0423 13.8731 13.8731C14.0423 13.7039 14.0423 13.4295 13.8731 13.2603L2.73973 2.12692Z" fill="black"/>
<path fill-rule="evenodd" clip-rule="evenodd" d="M2.66665 4.6666C2.66665 4.47096 2.70879 4.28516 2.78448 4.11778L4.33327 5.66657V6.23323C4.33327 6.47254 4.52728 6.66655 4.7666 6.66655C4.92038 6.66655 5.05546 6.58643 5.13237 6.46567L11.3331 12.6664H3.99995C3.26359 12.6664 2.66665 12.0695 2.66665 11.3331V4.6666ZM4.33327 7.59986C4.33327 7.36054 4.52728 7.16654 4.7666 7.16654C5.00591 7.16654 5.19992 7.36054 5.19992 7.59986V8.39984C5.19992 8.63916 5.00591 8.83316 4.7666 8.83316C4.52728 8.83316 4.33327 8.63916 4.33327 8.39984V7.59986ZM4.7666 9.33315C4.52728 9.33315 4.33327 9.52715 4.33327 9.76647V10.5665C4.33327 10.8058 4.52728 10.9998 4.7666 10.9998C5.00591 10.9998 5.19992 10.8058 5.19992 10.5665V9.76647C5.19992 9.52715 5.00591 9.33315 4.7666 9.33315Z" fill="black"/>
<path fill-rule="evenodd" clip-rule="evenodd" d="M13.333 11.3331C13.333 11.5287 13.2909 11.7145 13.2152 11.8819L11.6664 10.3331V9.76647C11.6664 9.52715 11.4724 9.33315 11.2331 9.33315C11.0793 9.33315 10.9442 9.41326 10.8673 9.53404L4.6666 3.3333H11.9997C12.7361 3.3333 13.333 3.93024 13.333 4.6666V11.3331ZM10.7998 7.59986C10.7998 7.36054 10.9938 7.16654 11.2331 7.16654C11.4724 7.16654 11.6664 7.36054 11.6664 7.59986V8.39984C11.6664 8.63916 11.4724 8.83316 11.2331 8.83316C10.9938 8.83316 10.7998 8.63916 10.7998 8.39984V7.59986ZM11.2331 4.99992C10.9938 4.99992 10.7998 5.19393 10.7998 5.43325V6.23323C10.7998 6.47254 10.9938 6.66655 11.2331 6.66655C11.4724 6.66655 11.6664 6.47254 11.6664 6.23323V5.43325C11.6664 5.19393 11.4724 4.99992 11.2331 4.99992Z" fill="black"/>
</svg>
