<svg width="32" height="32" viewBox="0 0 32 32" fill="none" xmlns="http://www.w3.org/2000/svg">
<path d="M16.0974 15.2891C16.2631 15.4504 16.5297 15.6801 16.8295 15.879L16.0974 15.2891Z" fill="black"/>
<path fill-rule="evenodd" clip-rule="evenodd" d="M16.0974 15.2891C13.7341 12.9889 13.6774 9.27909 16.0157 7.00322C18.354 4.72736 22.1657 4.7825 24.529 7.08271C26.7988 9.29196 26.9408 12.7995 24.8773 15.0914L24.8637 15.1066L23.9558 16.0014L24.586 16.6148C24.916 16.936 24.9373 17.4717 24.5887 17.8111L23.7414 18.6357L24.1205 19.0047C24.4506 19.3259 24.4719 19.8617 24.1232 20.201L23.2759 21.0257L23.7794 21.5157C24.3155 22.0375 24.3404 22.8949 23.7901 23.4306L21.2099 25.9419C20.6595 26.4775 19.7786 26.4533 19.2425 25.9315L17.4987 24.2343C17.2398 23.9823 17.0899 23.6407 17.0859 23.282L17.0047 15.9867C16.9431 15.9512 16.8834 15.9147 16.8295 15.879L16.0974 15.2891ZM21.0019 8.14872C21.4274 8.56283 21.4274 9.23424 21.0019 9.64835C20.5764 10.0625 19.8866 10.0625 19.4611 9.64835C19.0357 9.23424 19.0357 8.56283 19.4611 8.14872C19.8866 7.73461 20.5764 7.73461 21.0019 8.14872Z" fill="black"/>
<path d="M16.0606 16.8241C14.2025 15.5437 12.9896 13.435 12.9896 11.0505C12.9896 8.48517 14.3935 6.23897 16.4944 5.00005C16.4862 5.00002 16.478 5 16.4699 5C13.163 5 10.5078 7.66225 10.5078 10.9152L10.597 11.8362C10.6091 11.8985 10.6248 11.9654 10.6426 12.0329L5.39995 17.2474C5.14219 17.5038 5 17.8484 5 18.2048V20.605C5 21.343 5.60533 21.9664 6.38362 21.9664H10.0326C10.8109 21.9664 11.4162 21.343 11.4162 20.605V19.912H12.6144C13.1075 19.912 13.4816 19.5185 13.4816 19.0642V18.5424H14.6798C15.1729 18.5424 15.5471 18.149 15.5471 17.6947V16.8273L16.0606 16.8241Z" fill="black"/>
</svg>
