<svg width="24" height="24" viewBox="0 0 24 24" fill="none" xmlns="http://www.w3.org/2000/svg">
<path fill-rule="evenodd" clip-rule="evenodd" d="M6 4C4.89543 4 4 4.89543 4 6V18C4 19.1046 4.89543 20 6 20H18C19.1046 20 20 19.1046 20 18V6C20 4.89543 19.1046 4 18 4H6ZM7.50001 6.85001C7.14103 6.85001 6.85001 7.14102 6.85001 7.50001C6.85001 7.85899 7.14103 8.15001 7.50001 8.15001C8.80391 8.15001 10.8131 8.56982 12.5288 9.82466C14.2174 11.0597 15.6618 13.1303 15.851 16.5361C15.8709 16.8945 16.1776 17.1689 16.5361 17.149C16.8945 17.1291 17.1689 16.8224 17.149 16.464C16.9382 12.6697 15.2993 10.2404 13.2962 8.77535C11.3203 7.3302 9.02945 6.85001 7.50001 6.85001ZM10.3785 12.5208C9.28135 11.7565 7.94213 11.5738 7.05399 11.6478C6.69625 11.6776 6.38207 11.4117 6.35226 11.054C6.32244 10.6962 6.58829 10.3821 6.94603 10.3523C8.05789 10.2596 9.71867 10.4768 11.1216 11.4542C12.5624 12.4579 13.65 14.2081 13.65 17C13.65 17.359 13.359 17.65 13 17.65C12.641 17.65 12.35 17.359 12.35 17C12.35 14.5919 11.4376 13.2587 10.3785 12.5208ZM8.25001 17C8.94037 17 9.50001 16.4404 9.50001 15.75C9.50001 15.0596 8.94037 14.5 8.25001 14.5C7.55966 14.5 7.00001 15.0596 7.00001 15.75C7.00001 16.4404 7.55966 17 8.25001 17Z" fill="black"/>
</svg>
