<svg width="32" height="32" viewBox="0 0 32 32" fill="none" xmlns="http://www.w3.org/2000/svg">
<path fill-rule="evenodd" clip-rule="evenodd" d="M7.66667 8C6.19391 8 5 9.17838 5 10.632V18.5279C5 19.6821 5.75268 20.6628 6.8 21.0178V22.8006C6.8 23.4633 7.33726 24.0006 8 24.0006H14.0739C14.6232 24.0006 15.1023 23.6277 15.2372 23.0952L15.6667 21.3996L16.0962 23.0952C16.231 23.6277 16.7102 24.0006 17.2594 24.0006H23.3333C23.9961 24.0006 24.5333 23.4633 24.5333 22.8006V21.0178C25.5807 20.6628 26.3333 19.6821 26.3333 18.5279V10.632C26.3333 9.17838 25.1394 8 23.6667 8H7.66667ZM22.8 21.1599H17.394L17.6745 22.2672H22.8V21.1599ZM8.53333 22.2672V21.1599H13.9393L13.6588 22.2672H8.53333ZM10.3333 11.0813C9.11831 11.0813 8.13333 12.0663 8.13333 13.2813V15.8786C8.13333 17.0936 9.11831 18.0786 10.3333 18.0786H21C22.215 18.0786 23.2 17.0936 23.2 15.8786V13.2813C23.2 12.0663 22.215 11.0813 21 11.0813H10.3333ZM10.3333 12.8146C10.0756 12.8146 9.86667 13.0236 9.86667 13.2813V15.8786C9.86667 16.1364 10.0756 16.3453 10.3333 16.3453H11.4667V12.8146H10.3333ZM13.2 12.8146V16.3453H14.8V12.8146H13.2ZM16.5333 12.8146V16.3453H18.1333V12.8146H16.5333ZM19.8667 12.8146V16.3453H21C21.2577 16.3453 21.4667 16.1364 21.4667 15.8786V13.2813C21.4667 13.0236 21.2577 12.8146 21 12.8146H19.8667Z" fill="black"/>
</svg>
