<svg width="24" height="24" viewBox="0 0 24 24" fill="none" xmlns="http://www.w3.org/2000/svg">
<path d="M8.75 5.99988C8.75 5.44766 8.30228 5 7.75 5C7.19772 5 6.75 5.44766 6.75 5.99988V7.67364H5C4.44772 7.67364 4 8.1213 4 8.67352C4 9.22574 4.44772 9.6734 5 9.6734H6.75V11.3472C6.75 11.8994 7.19772 12.347 7.75 12.347C8.30228 12.347 8.75 11.8994 8.75 11.3472V9.6734H10.5C11.0523 9.6734 11.5 9.22574 11.5 8.67352C11.5 8.1213 11.0523 7.67364 10.5 7.67364H8.75V5.99988Z" fill="black"/>
<path d="M13.5 7.67362C12.9477 7.67362 12.5 8.12128 12.5 8.67351C12.5 9.22573 12.9477 9.67339 13.5 9.67339H19C19.5523 9.67339 20 9.22573 20 8.67351C20 8.12128 19.5523 7.67362 19 7.67362H13.5Z" fill="black"/>
<path d="M12.5 16.5726C12.5 16.0204 12.9477 15.5727 13.5 15.5727H19C19.5523 15.5727 20 16.0204 20 16.5726C20 17.1248 19.5523 17.5725 19 17.5725H13.5C12.9477 17.5725 12.5 17.1248 12.5 16.5726Z" fill="black"/>
<path d="M16.125 15.0805C16.7463 15.0805 17.25 14.5908 17.25 13.9868C17.25 13.3827 16.7463 12.893 16.125 12.893C15.5037 12.893 15 13.3827 15 13.9868C15 14.5908 15.5037 15.0805 16.125 15.0805Z" fill="black"/>
<path d="M17.25 18.9062C17.25 19.5103 16.7463 20 16.125 20C15.5037 20 15 19.5103 15 18.9062C15 18.3022 15.5037 17.8125 16.125 17.8125C16.7463 17.8125 17.25 18.3022 17.25 18.9062Z" fill="black"/>
<path d="M6.50254 14.0331C6.10658 13.6481 5.47348 13.657 5.08847 14.0529C4.70346 14.4488 4.71234 15.0819 5.1083 15.4668L6.3155 16.6405L5.1083 17.8142C4.71234 18.1991 4.70346 18.8322 5.08847 19.2281C5.47348 19.624 6.10658 19.6329 6.50254 19.2479L7.74996 18.0351L8.99738 19.2479C9.39335 19.6329 10.0264 19.624 10.4115 19.2281C10.7965 18.8322 10.7876 18.1991 10.3916 17.8142L9.18443 16.6405L10.3916 15.4668C10.7876 15.0819 10.7965 14.4488 10.4115 14.0529C10.0264 13.657 9.39335 13.6481 8.99738 14.0331L7.74996 15.2459L6.50254 14.0331Z" fill="black"/>
</svg>
