<svg width="24" height="24" viewBox="0 0 24 24" fill="none" xmlns="http://www.w3.org/2000/svg">
<path d="M6.35 8.5C6.35 8.14102 6.64102 7.85 7 7.85H9C9.35898 7.85 9.65 8.14102 9.65 8.5C9.65 8.85898 9.35898 9.15 9 9.15H7.65V10.5C7.65 10.859 7.35898 11.15 7 11.15C6.64102 11.15 6.35 10.859 6.35 10.5V8.5Z" fill="black"/>
<path d="M6.35 15.5C6.35 15.859 6.64102 16.15 7 16.15H9C9.35899 16.15 9.65 15.859 9.65 15.5C9.65 15.141 9.35898 14.85 9 14.85H7.65V13.5C7.65 13.141 7.35898 12.85 7 12.85C6.64101 12.85 6.35 13.141 6.35 13.5V15.5Z" fill="black"/>
<path d="M17.65 15.5C17.65 15.859 17.359 16.15 17 16.15H15C14.641 16.15 14.35 15.859 14.35 15.5C14.35 15.141 14.641 14.85 15 14.85L16.35 14.85V13.5C16.35 13.141 16.641 12.85 17 12.85C17.359 12.85 17.65 13.141 17.65 13.5L17.65 15.5Z" fill="black"/>
<path d="M17.65 8.5C17.65 8.14102 17.359 7.85 17 7.85L15 7.85C14.641 7.85 14.35 8.14101 14.35 8.5C14.35 8.85898 14.641 9.15 15 9.15H16.35V10.5C16.35 10.859 16.641 11.15 17 11.15C17.359 11.15 17.65 10.859 17.65 10.5V8.5Z" fill="black"/>
<path fill-rule="evenodd" clip-rule="evenodd" d="M6 6C4.89543 6 4 6.89543 4 8V16C4 17.1046 4.89543 18 6 18H18C19.1046 18 20 17.1046 20 16V8C20 6.89543 19.1046 6 18 6H6ZM18 7.3H6C5.6134 7.3 5.3 7.6134 5.3 8V16C5.3 16.3866 5.6134 16.7 6 16.7H18C18.3866 16.7 18.7 16.3866 18.7 16V8C18.7 7.6134 18.3866 7.3 18 7.3Z" fill="black"/>
</svg>
