<svg width="16" height="16" viewBox="0 0 16 16" fill="none" xmlns="http://www.w3.org/2000/svg">
<path d="M3 7.66661C3 7.29845 3.29845 7 3.66661 7H4.4444C4.81256 7 5.11101 7.29845 5.11101 7.66661C5.11101 8.03477 4.81256 8.33322 4.4444 8.33322H3.66661C3.29845 8.33322 3 8.03477 3 7.66661Z" fill="black"/>
<path d="M5.33336 7.66661C5.33336 7.29845 5.63181 7 5.99997 7H7.55555C7.92371 7 8.22216 7.29845 8.22216 7.66661C8.22216 8.03477 7.92371 8.33322 7.55555 8.33322H5.99997C5.63181 8.33322 5.33336 8.03477 5.33336 7.66661Z" fill="black"/>
<path d="M8.44451 7.66661C8.44451 7.29845 8.74296 7 9.11112 7H10.6667C11.0349 7 11.3333 7.29845 11.3333 7.66661C11.3333 8.03477 11.0349 8.33322 10.6667 8.33322H9.11112C8.74296 8.33322 8.44451 8.03477 8.44451 7.66661Z" fill="black"/>
<path d="M11.5557 7.66661C11.5557 7.29845 11.8541 7 12.2223 7H13.0001C13.3682 7 13.6667 7.29845 13.6667 7.66661C13.6667 8.03477 13.3682 8.33322 13.0001 8.33322H12.2223C11.8541 8.33322 11.5557 8.03477 11.5557 7.66661Z" fill="black"/>
</svg>
