<svg width="48" height="48" viewBox="0 0 48 48" fill="none" xmlns="http://www.w3.org/2000/svg">
<path d="M29.9246 9.30007C29.9246 8.58206 29.3425 8 28.6245 8C27.9065 8 27.3245 8.58206 27.3245 9.30007V13.3305C27.3245 14.0485 27.9065 14.6306 28.6245 14.6306C29.3425 14.6306 29.9246 14.0485 29.9246 13.3305V9.30007Z" fill="black"/>
<path d="M37.6035 10.3957C38.1113 10.9034 38.1115 11.7265 37.6038 12.2343L34.5821 15.2572C34.0745 15.765 33.2513 15.7651 32.7435 15.2575C32.2357 14.7499 32.2356 13.9267 32.7432 13.4189L35.7649 10.3961C36.2725 9.88827 37.0957 9.88812 37.6035 10.3957Z" fill="black"/>
<path fill-rule="evenodd" clip-rule="evenodd" d="M30.9578 15.8406C29.669 14.5518 27.5795 14.5518 26.2907 15.8406L8.96662 33.1643C7.67779 34.4531 7.67779 36.5427 8.96662 37.8315L10.1686 39.0334C11.4573 40.3222 13.5469 40.3222 14.8357 39.0334L32.1597 21.7097C33.4486 20.4209 33.4486 18.3313 32.1597 17.0425L30.9578 15.8406ZM28.1293 17.6792C28.4026 17.4058 28.8459 17.4058 29.1193 17.6792L30.3212 18.8811C30.5946 19.1545 30.5946 19.5977 30.3212 19.8711L27.6166 22.5756L25.4247 20.3837L28.1293 17.6792ZM23.5861 22.2223L25.778 24.4142L12.9971 37.1948C12.7237 37.4682 12.2805 37.4682 12.0071 37.1948L10.8052 35.9929C10.5318 35.7195 10.5318 35.2763 10.8052 35.0029L23.5861 22.2223Z" fill="black"/>
<path d="M29.9246 27.4371C29.9246 26.719 29.3425 26.137 28.6245 26.137C27.9065 26.137 27.3245 26.719 27.3245 27.4371V31.4675C27.3245 32.1855 27.9065 32.7676 28.6245 32.7676C29.3425 32.7676 29.9246 32.1855 29.9246 31.4675V27.4371Z" fill="black"/>
<path d="M32.7435 23.4947C33.2513 22.9871 34.0745 22.9873 34.5821 23.4951L37.6038 26.5179C38.1115 27.0257 38.1113 27.8489 37.6035 28.3565C37.0957 28.8641 36.2725 28.864 35.7649 28.3561L32.7432 25.3333C32.2356 24.8255 32.2357 24.0023 32.7435 23.4947Z" fill="black"/>
<path d="M34.6702 18.076C33.9522 18.076 33.3701 18.6581 33.3701 19.3761C33.3701 20.0941 33.9522 20.6761 34.6702 20.6761H38.6992C39.4172 20.6761 39.9992 20.0941 39.9992 19.3761C39.9992 18.6581 39.4172 18.076 38.6992 18.076H34.6702Z" fill="black"/>
<path d="M15.2327 18.3684C15.2327 17.6504 15.8148 17.0684 16.5328 17.0684H20.5617C21.2798 17.0684 21.8618 17.6504 21.8618 18.3684C21.8618 19.0865 21.2798 19.6685 20.5617 19.6685H16.5328C15.8148 19.6685 15.2327 19.0865 15.2327 18.3684Z" fill="black"/>
<path d="M21.4828 10.3961C20.9752 9.88827 20.152 9.88812 19.6442 10.3957C19.1364 10.9034 19.1363 11.7265 19.6439 12.2343L22.6656 15.2572C23.1732 15.765 23.9964 15.7651 24.5042 15.2575C25.012 14.7499 25.0122 13.9267 24.5045 13.4189L21.4828 10.3961Z" fill="black"/>
</svg>
