<svg width="24" height="24" viewBox="0 0 24 24" fill="none" xmlns="http://www.w3.org/2000/svg">
<path fill-rule="evenodd" clip-rule="evenodd" d="M6 4C4.89543 4 4 4.89543 4 6V18C4 19.1046 4.89543 20 6 20H18C19.1046 20 20 19.1046 20 18V6C20 4.89543 19.1046 4 18 4H6ZM9.6 11.75C9.6 11.391 9.89102 11.1 10.25 11.1H16.25C16.609 11.1 16.9 11.391 16.9 11.75C16.9 12.109 16.609 12.4 16.25 12.4H10.25C9.89102 12.4 9.6 12.109 9.6 11.75ZM7.1 8.25C7.1 7.89102 7.39102 7.6 7.75 7.6H16.25C16.609 7.6 16.9 7.89102 16.9 8.25C16.9 8.60898 16.609 8.9 16.25 8.9H7.75C7.39102 8.9 7.1 8.60898 7.1 8.25Z" fill="black"/>
</svg>
