<svg width="28" height="28" viewBox="0 0 28 28" fill="none" xmlns="http://www.w3.org/2000/svg">
<path fill-rule="evenodd" clip-rule="evenodd" d="M19.9237 15.3326C21.6179 14.6086 23.5549 13.0107 23.5733 10.0316V5.38889C23.5733 5.17411 23.3958 5 23.1768 5H10.421C8.61403 5.05855 5 6.14686 5 10.0316V23.2778C5 23.4926 5.17753 23.6667 5.39652 23.6667H12.0512C12.2702 23.6667 12.4477 23.4926 12.4477 23.2778V16.4448C12.4477 16.2509 12.7053 16.1765 12.8125 16.3393L17.5217 23.4888C17.5948 23.5997 17.7202 23.6667 17.8548 23.6667H23.2695C23.5906 23.6667 23.7786 23.3118 23.5938 23.0541L18.5659 16.0417C18.4813 15.9237 18.5517 15.7587 18.6954 15.7278C18.8476 15.6951 19.009 15.6539 19.1769 15.6036C19.4108 15.5335 19.6574 15.4458 19.9094 15.3387C19.9142 15.3367 19.9189 15.3346 19.9237 15.3326ZM21.0793 22.15L17.3333 16.9255C16.5547 15.8396 17.2632 14.4843 18.3767 14.245C19.8802 13.9219 22.0377 12.7154 22.0566 10.0267V6.51667H10.4477C9.75651 6.54327 8.71214 6.77538 7.88346 7.3367C7.1185 7.85484 6.51667 8.65227 6.51667 10.0316V22.15H10.931V16.4448C10.931 14.6779 13.1816 14.1424 14.0791 15.505L18.456 22.15H21.0793Z" fill="black"/>
</svg>
