<svg width="32" height="32" viewBox="0 0 32 32" fill="none" xmlns="http://www.w3.org/2000/svg">
<path d="M18 8.33333C18 9.62196 16.9553 10.6666 15.6667 10.6667C14.3779 10.6667 13.3333 9.622 13.3333 8.33333C13.3333 7.04467 14.3779 6 15.6667 6C16.9553 6.00006 18 7.04471 18 8.33333Z" fill="black"/>
<path d="M18 16.3333C18 17.622 16.9553 18.6666 15.6667 18.6667C14.3779 18.6667 13.3333 17.622 13.3333 16.3333C13.3333 15.0447 14.3779 14 15.6667 14C16.9553 14.0001 18 15.0447 18 16.3333Z" fill="black"/>
<path d="M18 24.3333C18 25.622 16.9553 26.6666 15.6667 26.6667C14.3779 26.6667 13.3333 25.622 13.3333 24.3333C13.3333 23.0447 14.3779 22 15.6667 22C16.9553 22.0001 18 23.0447 18 24.3333Z" fill="black"/>
</svg>
