<svg width="32" height="32" viewBox="0 0 32 32" fill="none" xmlns="http://www.w3.org/2000/svg">
<path fill-rule="evenodd" clip-rule="evenodd" d="M13.3333 8.13333C12.1183 8.13333 11.1333 9.11831 11.1333 10.3333V11.6667C11.1333 12.8817 12.1183 13.8667 13.3333 13.8667H18.6667C19.8817 13.8667 20.8667 12.8817 20.8667 11.6667V10.3333C20.8667 9.11831 19.8817 8.13333 18.6667 8.13333H13.3333ZM12.8667 10.3333C12.8667 10.0756 13.0756 9.86667 13.3333 9.86667H18.6667C18.9244 9.86667 19.1333 10.0756 19.1333 10.3333V11.6667C19.1333 11.9244 18.9244 12.1333 18.6667 12.1333H13.3333C13.0756 12.1333 12.8667 11.9244 12.8667 11.6667V10.3333Z" fill="black"/>
<path d="M13.3333 17C13.3333 17.7364 12.7364 18.3333 12 18.3333C11.2636 18.3333 10.6667 17.7364 10.6667 17C10.6667 16.2636 11.2636 15.6667 12 15.6667C12.7364 15.6667 13.3333 16.2636 13.3333 17Z" fill="black"/>
<path d="M16 18.3333C16.7364 18.3333 17.3333 17.7364 17.3333 17C17.3333 16.2636 16.7364 15.6667 16 15.6667C15.2636 15.6667 14.6667 16.2636 14.6667 17C14.6667 17.7364 15.2636 18.3333 16 18.3333Z" fill="black"/>
<path d="M21.3333 17C21.3333 17.7364 20.7364 18.3333 20 18.3333C19.2636 18.3333 18.6667 17.7364 18.6667 17C18.6667 16.2636 19.2636 15.6667 20 15.6667C20.7364 15.6667 21.3333 16.2636 21.3333 17Z" fill="black"/>
<path d="M12 22.3333C12.7364 22.3333 13.3333 21.7364 13.3333 21C13.3333 20.2636 12.7364 19.6667 12 19.6667C11.2636 19.6667 10.6667 20.2636 10.6667 21C10.6667 21.7364 11.2636 22.3333 12 22.3333Z" fill="black"/>
<path d="M17.3333 21C17.3333 21.7364 16.7364 22.3333 16 22.3333C15.2636 22.3333 14.6667 21.7364 14.6667 21C14.6667 20.2636 15.2636 19.6667 16 19.6667C16.7364 19.6667 17.3333 20.2636 17.3333 21Z" fill="black"/>
<path d="M20 22.3333C20.7364 22.3333 21.3333 21.7364 21.3333 21C21.3333 20.2636 20.7364 19.6667 20 19.6667C19.2636 19.6667 18.6667 20.2636 18.6667 21C18.6667 21.7364 19.2636 22.3333 20 22.3333Z" fill="black"/>
<path fill-rule="evenodd" clip-rule="evenodd" d="M8 7.66667C8 6.19391 9.19391 5 10.6667 5H21.3333C22.8061 5 24 6.19391 24 7.66667V23.6667C24 25.1394 22.8061 26.3333 21.3333 26.3333H10.6667C9.19391 26.3333 8 25.1394 8 23.6667V7.66667ZM10.6667 6.73333H21.3333C21.8488 6.73333 22.2667 7.1512 22.2667 7.66667V23.6667C22.2667 24.1821 21.8488 24.6 21.3333 24.6H10.6667C10.1512 24.6 9.73333 24.1821 9.73333 23.6667V7.66667C9.73333 7.1512 10.1512 6.73333 10.6667 6.73333Z" fill="black"/>
</svg>
