<svg width="28" height="28" viewBox="0 0 28 28" fill="none" xmlns="http://www.w3.org/2000/svg">
<path fill-rule="evenodd" clip-rule="evenodd" d="M23.6667 14.3333C23.6667 19.488 19.488 23.6667 14.3333 23.6667C9.17868 23.6667 5 19.488 5 14.3333C5 9.17868 9.17868 5 14.3333 5C19.488 5 23.6667 9.17868 23.6667 14.3333ZM19.0712 20.1437C19.193 20.2654 19.1836 20.466 19.0463 20.57C17.7359 21.5617 16.1033 22.15 14.3333 22.15C10.0163 22.15 6.51667 18.6504 6.51667 14.3333C6.51667 12.5633 7.10497 10.9307 8.09671 9.62041C8.20064 9.4831 8.40123 9.47368 8.523 9.59544L19.0712 20.1437ZM20.57 19.0463C20.466 19.1836 20.2654 19.193 20.1437 19.0712L9.59544 8.523C9.47368 8.40123 9.4831 8.20064 9.62041 8.09671C10.9307 7.10497 12.5633 6.51667 14.3333 6.51667C18.6504 6.51667 22.15 10.0163 22.15 14.3333C22.15 16.1033 21.5617 17.7359 20.57 19.0463Z" fill="black"/>
</svg>
