<svg width="20" height="20" viewBox="0 0 20 20" fill="none" xmlns="http://www.w3.org/2000/svg">
<path d="M11.5 4.66667C11.5 5.58714 10.7538 6.33333 9.83333 6.33333C8.91286 6.33333 8.16667 5.58714 8.16667 4.66667C8.16667 3.74619 8.91286 3 9.83333 3C10.7538 3 11.5 3.74619 11.5 4.66667Z" fill="black"/>
<path d="M8.58333 6.75L4.83333 5.5C4.41667 5.5 4 5.78912 4 6.33333C4 6.87754 4.83333 7.16667 4.83333 7.16667L8.16667 8V11.3333L6.5 15.5C6.5 15.9167 6.91667 16.3333 7.33333 16.3333C8.16667 16.3333 8.11349 16.1028 8.16667 15.9167C8.44444 14.9444 9.08333 12.8333 9.41667 12.1667C9.75 11.5 10.1111 11.8889 10.25 12.1667L11.5 15.9167C11.5 16.0556 11.6667 16.3333 12.3333 16.3333C13 16.3333 13.1667 15.7778 13.1667 15.5L11.5 11.3333V8L14.8333 7.16667C14.8333 7.16667 15.6667 7 15.6667 6.33333C15.6667 5.66667 15.25 5.5 14.8333 5.5L11.0833 6.75C10.25 7.16667 9.41667 7.16667 8.58333 6.75Z" fill="black"/>
</svg>
