<svg width="16" height="16" viewBox="0 0 16 16" fill="none" xmlns="http://www.w3.org/2000/svg">
<path d="M3 13.2354C3 12.996 3.19407 12.802 3.43346 12.802H13.2332C13.4726 12.802 13.6667 12.996 13.6667 13.2354C13.6667 13.4748 13.4726 13.6689 13.2332 13.6689H3.43346C3.19407 13.6689 3 13.4748 3 13.2354Z" fill="black"/>
<path fill-rule="evenodd" clip-rule="evenodd" d="M4.13346 10.8429C4.13346 11.5795 4.73059 12.1766 5.46719 12.1766H6.64961C7.38622 12.1766 7.98335 11.5795 7.98335 10.8429L7.98335 4.33374C7.98335 3.59713 7.38622 3 6.64962 3L5.46719 3C4.73059 3 4.13345 3.59714 4.13345 4.33374L4.13346 10.8429ZM5.00038 4.33374L5.00038 10.8429C5.00038 11.1007 5.20938 11.3097 5.46719 11.3097H6.64961C6.90742 11.3097 7.11642 11.1007 7.11642 10.8429V4.33374C7.11642 4.07593 6.90743 3.86693 6.64962 3.86693L5.46719 3.86693C5.20938 3.86693 5.00038 4.07593 5.00038 4.33374Z" fill="black"/>
<path fill-rule="evenodd" clip-rule="evenodd" d="M10.0171 12.1766C9.28046 12.1766 8.68333 11.5795 8.68333 10.8429V6.45142C8.68333 5.71482 9.28046 5.11768 10.0171 5.11768H11.1995C11.9361 5.11768 12.5332 5.71482 12.5332 6.45142V10.8429C12.5332 11.5795 11.9361 12.1766 11.1995 12.1766H10.0171ZM9.55026 10.8429V6.45142C9.55026 6.19361 9.75925 5.98461 10.0171 5.98461L11.1995 5.98461C11.4573 5.98461 11.6663 6.19361 11.6663 6.45142V10.8429C11.6663 11.1007 11.4573 11.3097 11.1995 11.3097H10.0171C9.75925 11.3097 9.55026 11.1007 9.55026 10.8429Z" fill="black"/>
</svg>
