<svg width="48" height="48" viewBox="0 0 48 48" fill="none" xmlns="http://www.w3.org/2000/svg">
<path d="M8.21918 6.38075C7.71151 5.87308 6.88842 5.87308 6.38075 6.38075C5.87308 6.88842 5.87308 7.71151 6.38075 8.21918L39.7808 41.6192C40.2885 42.1269 41.1116 42.1269 41.6192 41.6192C42.1269 41.1116 42.1269 40.2885 41.6192 39.7808L8.21918 6.38075Z" fill="black"/>
<path d="M9.99974 15.9997H11.9998L15.9985 19.9984H9.99974C8.89528 19.9984 7.99995 19.1033 7.99995 17.9991C7.99995 16.8949 8.89528 15.9997 9.99974 15.9997Z" fill="black"/>
<path d="M19.9996 15.9997L23.9983 19.9984H37.9993C39.1038 19.9984 39.9991 19.1033 39.9991 17.9991C39.9991 16.8949 39.1038 15.9997 37.9993 15.9997H19.9996Z" fill="black"/>
<path d="M9.99974 28.0007H24.0008L27.9994 31.9993H9.99974C8.89528 31.9993 7.99995 31.1042 7.99995 30C7.99995 28.8958 8.89528 28.0007 9.99974 28.0007Z" fill="black"/>
<path d="M32.0006 28.0007L35.9992 31.9993H37.9993C39.1038 31.9993 39.9991 31.1042 39.9991 30C39.9991 28.8958 39.1038 28.0007 37.9993 28.0007H32.0006Z" fill="black"/>
</svg>
