<svg width="16" height="16" viewBox="0 0 16 16" fill="none" xmlns="http://www.w3.org/2000/svg">
<path d="M4.87328 3.04584C4.91651 3.02416 4.96388 3.0095 5.01388 3.00336C5.06428 2.99704 5.11419 2.99977 5.16176 3.01043C5.22642 3.02481 5.28565 3.05363 5.33587 3.09333C5.38419 3.13143 5.42469 3.17998 5.45352 3.23667C5.46932 3.26761 5.48151 3.30069 5.48954 3.33537C5.57974 3.68229 5.95014 4.30066 6.70114 4.30066C7.45218 4.30066 7.82257 3.68224 7.91276 3.33532C7.91734 3.31569 7.92328 3.29646 7.93049 3.27778C7.95233 3.22085 7.98534 3.17068 8.0263 3.1292C8.06972 3.08507 8.12304 3.0498 8.18395 3.02724C8.2316 3.00947 8.28267 2.99996 8.335 3C8.38733 2.99996 8.4384 3.00947 8.48606 3.02724C8.54697 3.0498 8.60029 3.08508 8.64372 3.12921C8.68449 3.1705 8.71739 3.22041 8.73923 3.27704C8.74657 3.29596 8.75261 3.31544 8.75725 3.33534C8.84744 3.68225 9.21784 4.30066 9.96886 4.30066C10.7199 4.30066 11.0903 3.68222 11.1805 3.33531C11.1851 3.31573 11.191 3.29655 11.1982 3.27791C11.22 3.2209 11.2531 3.17067 11.2941 3.12915C11.3375 3.08505 11.3908 3.04979 11.4517 3.02724C11.4993 3.00947 11.5504 2.99996 11.6027 3C11.6551 2.99996 11.7061 3.00947 11.7538 3.02724C11.8733 3.07151 11.9636 3.16477 12.0073 3.27782C12.0145 3.29649 12.0204 3.3157 12.025 3.33532C12.1152 3.68223 12.4855 4.30066 13.2366 4.30066C13.476 4.30066 13.67 4.49471 13.67 4.73408C13.67 4.97345 13.476 5.1675 13.2366 5.1675C12.4559 5.1675 11.9306 4.78896 11.6027 4.3703C11.2749 4.78896 10.7496 5.1675 9.96886 5.1675C9.18816 5.1675 8.66284 4.78896 8.335 4.3703C8.00716 4.78896 7.48185 5.1675 6.70114 5.1675C5.97706 5.1675 5.47266 4.84187 5.14175 4.46063C5.00612 4.62242 4.84258 4.75115 4.6701 4.85C4.24643 5.09282 3.75796 5.1675 3.43342 5.1675C3.19405 5.1675 3 4.97345 3 4.73408C3 4.49471 3.19405 4.30066 3.43342 4.30066C3.65349 4.30066 3.98196 4.24529 4.23907 4.09793C4.47294 3.96389 4.63136 3.76965 4.63383 3.44136C4.63316 3.40573 4.63692 3.37062 4.64471 3.33673C4.65888 3.27461 4.6864 3.21756 4.72409 3.16878C4.76325 3.11794 4.81385 3.07551 4.87328 3.04584Z" fill="black"/>
<path d="M4.87328 6.29723C4.91651 6.27555 4.96388 6.26089 5.01388 6.25475C5.06428 6.24843 5.11419 6.25116 5.16176 6.26182C5.22642 6.27619 5.28565 6.30501 5.33587 6.34472C5.38419 6.38282 5.42469 6.43137 5.45352 6.48806C5.46932 6.519 5.48151 6.55208 5.48954 6.58676C5.57974 6.93368 5.95014 7.55205 6.70114 7.55205C7.45218 7.55205 7.82257 6.93362 7.91276 6.58671C7.91734 6.56708 7.92328 6.54785 7.93049 6.52917C7.95233 6.47223 7.98534 6.42207 8.0263 6.38059C8.06972 6.33646 8.12304 6.30118 8.18395 6.27863C8.2316 6.26086 8.28267 6.25135 8.335 6.25139C8.38733 6.25135 8.4384 6.26086 8.48606 6.27863C8.54697 6.30119 8.60029 6.33646 8.64372 6.3806C8.68449 6.42189 8.71739 6.4718 8.73923 6.52843C8.74657 6.54735 8.75261 6.56683 8.75725 6.58672C8.84744 6.93364 9.21784 7.55205 9.96886 7.55205C10.7199 7.55205 11.0903 6.9336 11.1805 6.58669C11.1851 6.56711 11.191 6.54794 11.1982 6.5293C11.22 6.47229 11.2531 6.42206 11.2941 6.38054C11.3375 6.33643 11.3908 6.30118 11.4517 6.27863C11.4993 6.26086 11.5504 6.25135 11.6027 6.25139C11.6551 6.25135 11.7061 6.26086 11.7538 6.27863C11.8733 6.3229 11.9636 6.41615 12.0073 6.52921C12.0145 6.54788 12.0204 6.56709 12.025 6.58671C12.1152 6.93362 12.4855 7.55205 13.2366 7.55205C13.476 7.55205 13.67 7.7461 13.67 7.98547C13.67 8.22484 13.476 8.41888 13.2366 8.41888C12.4559 8.41888 11.9306 8.04034 11.6027 7.62169C11.2749 8.04034 10.7496 8.41888 9.96886 8.41888C9.18816 8.41888 8.66284 8.04034 8.335 7.62169C8.00716 8.04034 7.48185 8.41888 6.70114 8.41888C5.97706 8.41888 5.47266 8.09326 5.14175 7.71202C5.00612 7.87381 4.84258 8.00254 4.6701 8.10139C4.24643 8.3442 3.75796 8.41888 3.43342 8.41888C3.19405 8.41888 3 8.22484 3 7.98547C3 7.7461 3.19405 7.55205 3.43342 7.55205C3.65349 7.55205 3.98196 7.49667 4.23907 7.34932C4.47294 7.21528 4.63136 7.02104 4.63383 6.69275C4.63316 6.65711 4.63692 6.62201 4.64471 6.58812C4.65888 6.52599 4.6864 6.46895 4.72409 6.42017C4.76325 6.36933 4.81385 6.3269 4.87328 6.29723Z" fill="black"/>
<path d="M5.01388 9.50616C4.96388 9.5123 4.91651 9.52696 4.87328 9.54864C4.81385 9.57831 4.76325 9.62074 4.72409 9.67158C4.6864 9.72036 4.65888 9.7774 4.64471 9.83952C4.63692 9.87342 4.63316 9.90852 4.63383 9.94416C4.63136 10.2724 4.47294 10.4667 4.23907 10.6007C3.98196 10.7481 3.65349 10.8035 3.43342 10.8035C3.19405 10.8035 3 10.9975 3 11.2369C3 11.4762 3.19405 11.6703 3.43342 11.6703C3.75796 11.6703 4.24643 11.5956 4.6701 11.3528C4.84258 11.2539 5.00612 11.1252 5.14175 10.9634C5.47266 11.3447 5.97706 11.6703 6.70114 11.6703C7.48185 11.6703 8.00716 11.2918 8.335 10.8731C8.66284 11.2918 9.18816 11.6703 9.96886 11.6703C10.7496 11.6703 11.2749 11.2918 11.6027 10.8731C11.9306 11.2918 12.4559 11.6703 13.2366 11.6703C13.476 11.6703 13.67 11.4762 13.67 11.2369C13.67 10.9975 13.476 10.8035 13.2366 10.8035C12.4855 10.8035 12.1152 10.185 12.025 9.83812C12.0204 9.8185 12.0145 9.79929 12.0073 9.78062C11.9636 9.66756 11.8733 9.57431 11.7538 9.53003C11.7061 9.51227 11.6551 9.50276 11.6027 9.5028C11.5504 9.50276 11.4993 9.51227 11.4517 9.53003C11.3908 9.55259 11.3375 9.58784 11.2941 9.63195C11.2531 9.67347 11.22 9.7237 11.1982 9.78071C11.191 9.79935 11.1851 9.81852 11.1805 9.8381C11.0903 10.185 10.7199 10.8035 9.96886 10.8035C9.21784 10.8035 8.84744 10.1851 8.75725 9.83813C8.75261 9.81824 8.74657 9.79876 8.73923 9.77984C8.71739 9.72321 8.68449 9.6733 8.64372 9.63201C8.60029 9.58787 8.54697 9.55259 8.48606 9.53003C8.4384 9.51227 8.38733 9.50276 8.335 9.5028C8.28267 9.50276 8.2316 9.51227 8.18395 9.53003C8.12304 9.55259 8.06972 9.58787 8.0263 9.632C7.98534 9.67347 7.95233 9.72364 7.93049 9.78058C7.92328 9.79926 7.91734 9.81849 7.91276 9.83812C7.82257 10.185 7.45218 10.8035 6.70114 10.8035C5.95014 10.8035 5.57974 10.1851 5.48954 9.83816C5.48151 9.80349 5.46932 9.7704 5.45352 9.73947C5.42469 9.68277 5.38419 9.63423 5.33587 9.59613C5.28565 9.55642 5.22642 9.5276 5.16176 9.51323C5.11419 9.50256 5.06428 9.49984 5.01388 9.50616Z" fill="black"/>
</svg>
