<svg width="16" height="16" viewBox="0 0 16 16" fill="none" xmlns="http://www.w3.org/2000/svg">
<path fill-rule="evenodd" clip-rule="evenodd" d="M8.75467 4.17994C8.52197 3.94002 8.14469 3.94002 7.91199 4.17994L6.55534 5.57866C6.18255 5.96301 5.61304 6.0583 5.14149 5.81521L3.86294 5.15611C3.41943 4.92748 2.91492 5.32478 3.01216 5.82608L4.05705 11.2125C4.22106 12.058 4.94113 12.6667 5.77747 12.6667H10.8892C11.7255 12.6667 12.4456 12.058 12.6096 11.2125L13.6545 5.82608C13.7517 5.32478 13.2472 4.92748 12.8037 5.15611L11.5252 5.81521C11.0536 6.0583 10.4841 5.96301 10.1113 5.57866L8.75467 4.17994ZM8.33333 7.66666C7.54173 7.66666 6.9 8.30839 6.9 9.1C6.9 9.8916 7.54173 10.5333 8.33333 10.5333C9.12494 10.5333 9.76667 9.8916 9.76667 9.1C9.76667 8.30839 9.12494 7.66666 8.33333 7.66666ZM8.33333 8.53333C8.02037 8.53333 7.76667 8.78703 7.76667 9.1C7.76667 9.41296 8.02037 9.66666 8.33333 9.66666C8.64629 9.66666 8.9 9.41296 8.9 9.1C8.9 8.78703 8.6463 8.53333 8.33333 8.53333Z" fill="black"/>
</svg>
