<svg width="20" height="20" viewBox="0 0 20 20" fill="none" xmlns="http://www.w3.org/2000/svg">
<path fill-rule="evenodd" clip-rule="evenodd" d="M4.66667 3C3.74619 3 3 3.74619 3 4.66667C3 5.58714 3.74619 6.33333 4.66667 6.33333H8.83333C9.75381 6.33333 10.5 5.58714 10.5 4.66667C10.5 3.74619 9.75381 3 8.83333 3H4.66667Z" fill="black"/>
<path fill-rule="evenodd" clip-rule="evenodd" d="M4.66667 8C3.74619 8 3 8.74619 3 9.66667C3 10.5871 3.74619 11.3333 4.66667 11.3333H11.3333C12.2538 11.3333 13 10.5871 13 9.66667C13 8.74619 12.2538 8 11.3333 8H4.66667Z" fill="black"/>
<path fill-rule="evenodd" clip-rule="evenodd" d="M3 14.6667C3 13.7462 3.74619 13 4.66667 13H14.6667C15.5871 13 16.3333 13.7462 16.3333 14.6667C16.3333 15.5871 15.5871 16.3333 14.6667 16.3333H4.66667C3.74619 16.3333 3 15.5871 3 14.6667Z" fill="black"/>
</svg>
