<svg width="20" height="20" viewBox="0 0 20 20" fill="none" xmlns="http://www.w3.org/2000/svg">
<path fill-rule="evenodd" clip-rule="evenodd" d="M13.3333 3C14.2538 3 15 3.74619 15 4.66667V11.3333C15 12.2538 14.2538 13 13.3333 13H11.6667V14.6667C11.6667 15.5871 10.9205 16.3333 10 16.3333C9.07953 16.3333 8.33333 15.5871 8.33333 14.6667V13H6.66667C5.74619 13 5 12.2538 5 11.3333V4.66667C5 3.74619 5.74619 3 6.66667 3H13.3333ZM6.66667 4.08333H10V4.95833C10 5.25749 10.2425 5.5 10.5417 5.5C10.8408 5.5 11.0833 5.25749 11.0833 4.95833V4.08333H11.6667V5.79167C11.6667 6.09082 11.9092 6.33333 12.2083 6.33333C12.5075 6.33333 12.75 6.09082 12.75 5.79167V4.08333H13.3333C13.6555 4.08333 13.9167 4.3445 13.9167 4.66667V8.83333H6.08333V4.66667C6.08333 4.3445 6.3445 4.08333 6.66667 4.08333ZM6.08333 9.91667V11.3333C6.08333 11.6555 6.3445 11.9167 6.66667 11.9167H9.41667V14.6667C9.41667 14.9888 9.67783 15.25 10 15.25C10.3222 15.25 10.5833 14.9888 10.5833 14.6667V11.9167H13.3333C13.6555 11.9167 13.9167 11.6555 13.9167 11.3333V9.91667H6.08333Z" fill="black"/>
</svg>
