<svg width="48" height="48" viewBox="0 0 48 48" fill="none" xmlns="http://www.w3.org/2000/svg">
<path fill-rule="evenodd" clip-rule="evenodd" d="M27.7456 25.3618C26.8247 24.5789 26.8247 23.1766 27.7456 22.3937L36.6906 14.7897C37.9859 13.6886 39.9999 14.5918 39.9999 16.2737L39.9999 31.4817C39.9999 33.1637 37.9859 34.0668 36.6906 32.9657L27.7456 25.3618Z" fill="black"/>
<path fill-rule="evenodd" clip-rule="evenodd" d="M20.2543 22.3937C21.1752 23.1766 21.1752 24.5789 20.2543 25.3618L11.3093 32.9657C10.014 34.0668 8 33.1637 8 31.4817L8 16.2737C8 14.5918 10.014 13.6886 11.3093 14.7897L20.2543 22.3937Z" fill="black"/>
<path d="M22.6999 38.7239C22.6999 39.4287 23.2819 40 23.9999 40C24.7178 40 25.2999 39.4287 25.2999 38.7239L25.2999 9.27607C25.2999 8.57132 24.7178 8 23.9999 8C23.2819 8 22.6999 8.57132 22.6999 9.27607L22.6999 38.7239Z" fill="black"/>
</svg>
