<svg width="32" height="32" viewBox="0 0 32 32" fill="none" xmlns="http://www.w3.org/2000/svg">
<path fill-rule="evenodd" clip-rule="evenodd" d="M16.8667 13.9059C18.6591 13.5099 20 11.9115 20 10C20 7.79086 18.2091 6 16 6C13.7909 6 12 7.79086 12 10C12 11.9115 13.3409 13.5099 15.1333 13.9059V17.1333H13.3333C12.1183 17.1333 11.1333 18.1183 11.1333 19.3333V20.6667H9.33333C8.59695 20.6667 8 21.2636 8 22V24.6667C8 25.403 8.59695 26 9.33333 26H22.6667C23.403 26 24 25.403 24 24.6667V22C24 21.2636 23.403 20.6667 22.6667 20.6667H20.8667V19.3333C20.8667 18.1183 19.8817 17.1333 18.6667 17.1333H16.8667V13.9059ZM18.2667 10C18.2667 11.2518 17.2518 12.2667 16 12.2667C14.7482 12.2667 13.7333 11.2518 13.7333 10C13.7333 8.74815 14.7482 7.73333 16 7.73333C17.2518 7.73333 18.2667 8.74815 18.2667 10ZM19.1333 20.6667V19.3333C19.1333 19.0756 18.9244 18.8667 18.6667 18.8667H13.3333C13.0756 18.8667 12.8667 19.0756 12.8667 19.3333V20.6667H19.1333ZM9.73333 22.4V24.2667H22.2667V22.4H9.73333Z" fill="black"/>
</svg>
