<svg width="24" height="24" viewBox="0 0 24 24" fill="none" xmlns="http://www.w3.org/2000/svg">
<path fill-rule="evenodd" clip-rule="evenodd" d="M6 6C4.89543 6 4 6.88378 4 7.97399V13.896C4 14.7616 4.56451 15.4971 5.35 15.7634V17.1004C5.35 17.5975 5.75294 18.0004 6.25 18.0004H10.8054C11.2174 18.0004 11.5767 17.7208 11.6779 17.3214L12 16.0497L12.3221 17.3214C12.4233 17.7208 12.7826 18.0004 13.1946 18.0004H17.75C18.2471 18.0004 18.65 17.5975 18.65 17.1004V15.7634C19.4355 15.4971 20 14.7616 20 13.896V7.97399C20 6.88379 19.1046 6 18 6H6ZM17.35 15.8699H13.2955L13.5059 16.7004H17.35V15.8699ZM6.65 16.7004V15.8699H10.7045L10.4941 16.7004H6.65ZM8 8.31099C7.08873 8.31099 6.35 9.04972 6.35 9.96099V11.909C6.35 12.8202 7.08873 13.559 8 13.559H16C16.9113 13.559 17.65 12.8202 17.65 11.909V9.96099C17.65 9.04972 16.9113 8.31099 16 8.31099H8ZM8 9.61099C7.8067 9.61099 7.65 9.76769 7.65 9.96099V11.909C7.65 12.1023 7.8067 12.259 8 12.259H8.85V9.61099H8ZM10.15 9.61099V12.259H11.35V9.61099H10.15ZM12.65 9.61099V12.259H13.85V9.61099H12.65ZM15.15 9.61099V12.259H16C16.1933 12.259 16.35 12.1023 16.35 11.909V9.96099C16.35 9.76769 16.1933 9.61099 16 9.61099H15.15Z" fill="black"/>
</svg>
