<svg width="16" height="16" viewBox="0 0 16 16" fill="none" xmlns="http://www.w3.org/2000/svg">
<path d="M6.33333 8.66667C6.33333 9.03486 6.03486 9.33333 5.66667 9.33333C5.29848 9.33333 5 9.03486 5 8.66667C5 8.29848 5.29848 8 5.66667 8C6.03486 8 6.33333 8.29848 6.33333 8.66667Z" fill="black"/>
<path d="M8.33333 9.33333C8.70152 9.33333 9 9.03486 9 8.66667C9 8.29848 8.70152 8 8.33333 8C7.96514 8 7.66667 8.29848 7.66667 8.66667C7.66667 9.03486 7.96514 9.33333 8.33333 9.33333Z" fill="black"/>
<path d="M11.6667 8.66667C11.6667 9.03486 11.3682 9.33333 11 9.33333C10.6318 9.33333 10.3333 9.03486 10.3333 8.66667C10.3333 8.29848 10.6318 8 11 8C11.3682 8 11.6667 8.29848 11.6667 8.66667Z" fill="black"/>
<path d="M5.66667 11.3333C6.03486 11.3333 6.33333 11.0349 6.33333 10.6667C6.33333 10.2985 6.03486 10 5.66667 10C5.29848 10 5 10.2985 5 10.6667C5 11.0349 5.29848 11.3333 5.66667 11.3333Z" fill="black"/>
<path d="M9 10.6667C9 11.0349 8.70152 11.3333 8.33333 11.3333C7.96514 11.3333 7.66667 11.0349 7.66667 10.6667C7.66667 10.2985 7.96514 10 8.33333 10C8.70152 10 9 10.2985 9 10.6667Z" fill="black"/>
<path d="M11 11.3333C11.3682 11.3333 11.6667 11.0349 11.6667 10.6667C11.6667 10.2985 11.3682 10 11 10C10.6318 10 10.3333 10.2985 10.3333 10.6667C10.3333 11.0349 10.6318 11.3333 11 11.3333Z" fill="black"/>
<path fill-rule="evenodd" clip-rule="evenodd" d="M3 4.33333C3 3.59695 3.59695 3 4.33333 3H12.3333C13.0697 3 13.6667 3.59695 13.6667 4.33333V12.3333C13.6667 13.0697 13.0697 13.6667 12.3333 13.6667H4.33333C3.59695 13.6667 3 13.0697 3 12.3333V4.33333ZM4.33333 3.86667H12.3333C12.5911 3.86667 12.8 4.0756 12.8 4.33333V5.56667C12.8 5.75076 12.6508 5.9 12.4667 5.9H4.2C4.01591 5.9 3.86667 5.75076 3.86667 5.56667V4.33333C3.86667 4.0756 4.0756 3.86667 4.33333 3.86667ZM4.2 6.76667C4.01591 6.76667 3.86667 6.91591 3.86667 7.1V12.3333C3.86667 12.5911 4.0756 12.8 4.33333 12.8H12.3333C12.5911 12.8 12.8 12.5911 12.8 12.3333V7.1C12.8 6.91591 12.6508 6.76667 12.4667 6.76667H4.2Z" fill="black"/>
</svg>
