<svg width="24" height="24" viewBox="0 0 24 24" fill="none" xmlns="http://www.w3.org/2000/svg">
<path d="M4.10962 3.19038C3.85578 2.93654 3.44422 2.93654 3.19038 3.19038C2.93654 3.44422 2.93654 3.85578 3.19038 4.10962L19.8908 20.8101C20.1447 21.0639 20.5562 21.0639 20.8101 20.8101C21.0639 20.5562 21.0639 20.1447 20.8101 19.8908L4.10962 3.19038Z" fill="black"/>
<path d="M4.85571 15.4478L9.15177 11.1518L10.1159 12.1159L5.81981 16.4119C5.76365 16.4681 5.72721 16.5409 5.71598 16.6196L5.48801 18.2153C5.46329 18.3884 5.61162 18.5367 5.78466 18.512L7.38043 18.284C7.45906 18.2728 7.53192 18.2364 7.58808 18.1802L11.8841 13.8841L12.8482 14.8482L8.55217 19.1443C8.28741 19.409 7.94392 19.5808 7.57325 19.6337L5.07766 19.9903C4.45471 20.0793 3.92075 19.5453 4.00974 18.9223L4.36625 16.4268C4.4192 16.0561 4.59095 15.7126 4.85571 15.4478Z" fill="black"/>
<path d="M11.1518 9.15177L12.1159 10.1159L16.5021 5.72965C16.9904 5.24136 17.7821 5.24136 18.2703 5.72965C18.7586 6.21795 18.7586 7.00963 18.2703 7.49793L13.8841 11.8841L14.8482 12.8482L17.0789 10.6176C17.1821 10.5144 17.3497 10.5153 17.4517 10.6197L17.6123 10.7838C17.7127 10.8865 17.7118 11.051 17.6102 11.1525L15.606 13.1568C15.5249 13.2379 15.4685 13.3344 15.4368 13.4368L16.2901 14.2901C16.3925 14.2584 16.489 14.202 16.5701 14.1209L19.2344 11.4565C19.4986 11.1924 19.501 10.7648 19.2397 10.4978L18.2305 9.46598L19.2344 8.46202C20.2552 7.44127 20.2552 5.78631 19.2344 4.76556C18.2137 3.74481 16.5587 3.74481 15.538 4.76556L11.1518 9.15177Z" fill="black"/>
</svg>
