<svg width="28" height="28" viewBox="0 0 28 28" fill="none" xmlns="http://www.w3.org/2000/svg">
<path d="M12.281 14.8412L12.7304 13.8133L14.0718 17.5145C14.4015 18.4242 15.6818 18.4416 16.0361 17.5412L16.8508 15.4705H18.9074C19.3262 15.4705 19.6657 15.131 19.6657 14.7122C19.6657 14.2934 19.3262 13.9539 18.9074 13.9539H16.533C16.1015 13.9539 15.7139 14.2179 15.5559 14.6194L15.0769 15.8367L13.7581 12.1979C13.435 11.3062 12.1888 11.266 11.8089 12.135L11.0137 13.9539H9.25833C8.83952 13.9539 8.5 14.2934 8.5 14.7122C8.5 15.131 8.83952 15.4705 9.25833 15.4705H11.319C11.7362 15.4705 12.1139 15.2235 12.281 14.8412Z" fill="black"/>
<path fill-rule="evenodd" clip-rule="evenodd" d="M5 14.3333C5 9.17868 9.17868 5 14.3333 5C19.488 5 23.6667 9.17868 23.6667 14.3333C23.6667 19.488 19.488 23.6667 14.3333 23.6667C9.17868 23.6667 5 19.488 5 14.3333ZM14.3333 22.15C10.0163 22.15 6.51667 18.6504 6.51667 14.3333C6.51667 10.0163 10.0163 6.51667 14.3333 6.51667C18.6504 6.51667 22.15 10.0163 22.15 14.3333C22.15 18.6504 18.6504 22.15 14.3333 22.15Z" fill="black"/>
</svg>
