<svg width="20" height="20" viewBox="0 0 20 20" fill="none" xmlns="http://www.w3.org/2000/svg">
<path d="M5.49937 5C5.03923 5 4.66625 5.373 4.66625 5.83312V11.665C4.66625 12.1251 5.03923 12.4981 5.49937 12.4981H13.8306C14.2908 12.4981 14.6637 12.1251 14.6637 11.665V5.83312C14.6637 5.373 14.2908 5 13.8306 5H5.49937Z" fill="black"/>
<path d="M3.54155 13.3313C3.24245 13.3313 3 13.5737 3 13.8728C3 14.1719 3.24245 14.4143 3.54155 14.4143H15.7884C16.0875 14.4143 16.33 14.1719 16.33 13.8728C16.33 13.5737 16.0875 13.3313 15.7884 13.3313H3.54155Z" fill="black"/>
</svg>
