<svg width="16" height="16" viewBox="0 0 16 16" fill="none" xmlns="http://www.w3.org/2000/svg">
<path d="M4.5286 8.33333L4.33333 8.13807C4.20316 8.0079 4.20316 7.79684 4.33333 7.66667C4.46351 7.53649 4.67456 7.53649 4.80474 7.66667L5 7.86193L5.19526 7.66667C5.32544 7.53649 5.53649 7.53649 5.66667 7.66667C5.79684 7.79684 5.79684 8.0079 5.66667 8.13807L5.4714 8.33333L5.66667 8.5286C5.79684 8.65877 5.79684 8.86982 5.66667 9C5.53649 9.13017 5.32544 9.13017 5.19526 9L5 8.80474L4.80474 9C4.67456 9.13017 4.46351 9.13017 4.33333 9C4.20316 8.86983 4.20316 8.65877 4.33333 8.5286L4.5286 8.33333Z" fill="black"/>
<path d="M6.53333 7.66667C6.40315 7.79684 6.40315 8.0079 6.53333 8.13807L6.72859 8.33333L6.53333 8.5286C6.40315 8.65877 6.40315 8.86982 6.53333 9C6.6635 9.13017 6.87456 9.13017 7.00473 9L7.19999 8.80474L7.39525 9C7.52543 9.13017 7.73648 9.13017 7.86666 9C7.99683 8.86982 7.99683 8.65877 7.86666 8.52859L7.6714 8.33333L7.86666 8.13807C7.99683 8.0079 7.99683 7.79684 7.86666 7.66667C7.73648 7.53649 7.52543 7.53649 7.39525 7.66667L7.19999 7.86193L7.00473 7.66667C6.87455 7.53649 6.6635 7.53649 6.53333 7.66667Z" fill="black"/>
<path d="M8.92858 8.33333L8.73332 8.13807C8.60314 8.0079 8.60314 7.79684 8.73332 7.66667C8.86349 7.53649 9.07455 7.53649 9.20472 7.66667L9.39998 7.86193L9.59525 7.66667C9.72542 7.53649 9.93648 7.53649 10.0667 7.66667C10.1968 7.79684 10.1968 8.0079 10.0667 8.13807L9.87139 8.33333L10.0667 8.5286C10.1968 8.65877 10.1968 8.86983 10.0667 9C9.93648 9.13017 9.72542 9.13017 9.59525 9L9.39998 8.80474L9.20472 9C9.07455 9.13017 8.86349 9.13017 8.73332 9C8.60314 8.86983 8.60314 8.65877 8.73332 8.52859L8.92858 8.33333Z" fill="black"/>
<path d="M10.9333 7.66667C10.8031 7.79684 10.8031 8.0079 10.9333 8.13807L11.1286 8.33333L10.9333 8.5286C10.8031 8.65877 10.8031 8.86983 10.9333 9C11.0635 9.13017 11.2745 9.13017 11.4047 9L11.6 8.80474L11.7952 9C11.9254 9.13017 12.1365 9.13017 12.2666 9C12.3968 8.86983 12.3968 8.65877 12.2666 8.52859L12.0714 8.33333L12.2666 8.13807C12.3968 8.0079 12.3968 7.79684 12.2666 7.66667C12.1365 7.53649 11.9254 7.53649 11.7952 7.66667L11.6 7.86193L11.4047 7.66667C11.2745 7.53649 11.0635 7.53649 10.9333 7.66667Z" fill="black"/>
<path fill-rule="evenodd" clip-rule="evenodd" d="M4.33333 5C3.59695 5 3 5.59695 3 6.33333V10.3333C3 11.0697 3.59695 11.6667 4.33333 11.6667H12.3333C13.0697 11.6667 13.6667 11.0697 13.6667 10.3333V6.33333C13.6667 5.59695 13.0697 5 12.3333 5H4.33333ZM12.3333 5.86667H4.33333C4.0756 5.86667 3.86667 6.0756 3.86667 6.33333V10.3333C3.86667 10.5911 4.0756 10.8 4.33333 10.8H12.3333C12.5911 10.8 12.8 10.5911 12.8 10.3333V6.33333C12.8 6.0756 12.5911 5.86667 12.3333 5.86667Z" fill="black"/>
</svg>
