<svg width="16" height="16" viewBox="0 0 16 16" fill="none" xmlns="http://www.w3.org/2000/svg">
<path d="M8.33333 3C8.56825 3 8.75869 3.19044 8.75869 3.42536V5.06135C8.75869 5.29627 8.56825 5.48671 8.33333 5.48671C8.09841 5.48671 7.90798 5.29627 7.90798 5.06135V3.42536C7.90798 3.19044 8.09841 3 8.33333 3Z" fill="black"/>
<path d="M6.28756 6.34372C6.12145 6.50983 5.85213 6.50983 5.68601 6.34372L4.52919 5.1869C4.36308 5.02078 4.36308 4.75146 4.52919 4.58535C4.69531 4.41924 4.96463 4.41924 5.13074 4.58535L6.28756 5.74217C6.45367 5.90828 6.45367 6.17761 6.28756 6.34372Z" fill="black"/>
<path d="M10.9509 8.33333C10.9509 9.77899 9.77899 10.9509 8.33333 10.9509C6.88768 10.9509 5.71575 9.77899 5.71575 8.33333C5.71575 6.88768 6.88768 5.71575 8.33333 5.71575C9.77899 5.71575 10.9509 6.88768 10.9509 8.33333Z" fill="black"/>
<path d="M8.33333 11.18C8.56825 11.18 8.75869 11.3704 8.75869 11.6053V13.2413C8.75869 13.4762 8.56825 13.6667 8.33333 13.6667C8.09841 13.6667 7.90798 13.4762 7.90798 13.2413V11.6053C7.90798 11.3704 8.09841 11.18 8.33333 11.18Z" fill="black"/>
<path d="M6.28756 10.9245C6.45367 10.7584 6.45367 10.4891 6.28756 10.3229C6.12145 10.1568 5.85213 10.1568 5.68601 10.3229L4.52919 11.4798C4.36308 11.6459 4.36308 11.9152 4.52919 12.0813C4.69531 12.2474 4.96463 12.2474 5.13074 12.0813L6.28756 10.9245Z" fill="black"/>
<path d="M10.3229 5.74217C10.1568 5.90828 10.1568 6.17761 10.3229 6.34372C10.4891 6.50983 10.7584 6.50983 10.9245 6.34372L12.0813 5.1869C12.2474 5.02078 12.2474 4.75146 12.0813 4.58535C11.9152 4.41924 11.6459 4.41924 11.4798 4.58535L10.3229 5.74217Z" fill="black"/>
<path d="M10.3229 10.3229C10.4891 10.1568 10.7584 10.1568 10.9245 10.3229L12.0813 11.4798C12.2474 11.6459 12.2474 11.9152 12.0813 12.0813C11.9152 12.2474 11.6459 12.2474 11.4798 12.0813L10.3229 10.9245C10.1568 10.7584 10.1568 10.4891 10.3229 10.3229Z" fill="black"/>
<path d="M11.6053 7.90798C11.3704 7.90798 11.18 8.09841 11.18 8.33333C11.18 8.56825 11.3704 8.75869 11.6053 8.75869H13.2413C13.4762 8.75869 13.6667 8.56825 13.6667 8.33333C13.6667 8.09841 13.4762 7.90798 13.2413 7.90798H11.6053Z" fill="black"/>
<path d="M3.42536 7.90798C3.19044 7.90798 3 8.09841 3 8.33333C3 8.56825 3.19044 8.75869 3.42536 8.75869H5.06135C5.29627 8.75869 5.48671 8.56825 5.48671 8.33333C5.48671 8.09841 5.29627 7.90798 5.06135 7.90798H3.42536Z" fill="black"/>
</svg>
