<svg width="24" height="24" viewBox="0 0 24 24" fill="none" xmlns="http://www.w3.org/2000/svg">
<path d="M5 4C4.44771 4 4 4.44769 4 5L4 7C4 7.55231 4.44771 8 5 8C5.55229 8 6 7.55231 6 7L6 5C6 4.44769 5.55229 4 5 4Z" fill="black"/>
<path d="M10.6556 13C10.5665 13 10.5219 13.1077 10.5849 13.1707L12.5 15.0858C12.8905 15.4763 12.8905 16.1095 12.5 16.5C12.1095 16.8905 11.4763 16.8905 11.0858 16.5L7.29289 12.7071C6.90237 12.3166 6.90237 11.6834 7.29289 11.2929L11.0858 7.5C11.4763 7.10948 12.1095 7.10948 12.5 7.49999C12.8905 7.89051 12.8905 8.52368 12.5 8.9142L10.5849 10.8293C10.5219 10.8923 10.5665 11 10.6556 11L16 11C16.5523 11 17 11.4477 17 12C17 12.5523 16.5523 13 16 13L10.6556 13Z" fill="black"/>
<path d="M18 5C18 4.44769 18.4477 4 19 4C19.5523 4 20 4.44769 20 5L20 19C20 19.5523 19.5523 20 19 20C18.4477 20 18 19.5523 18 19L18 5Z" fill="black"/>
<path d="M4 17C4 16.4477 4.44771 16 5 16C5.55229 16 6 16.4477 6 17L6 19C6 19.5523 5.55229 20 5 20C4.44771 20 4 19.5523 4 19L4 17Z" fill="black"/>
<path d="M5 9C4.44771 9 4 9.44769 4 10L4 14C4 14.5523 4.44771 15 5 15C5.55229 15 6 14.5523 6 14L6 10C6 9.44769 5.55229 9 5 9Z" fill="black"/>
</svg>
