<svg width="24" height="24" viewBox="0 0 24 24" fill="none" xmlns="http://www.w3.org/2000/svg">
<path d="M4.65002 4C4.29102 4 4 4.29102 4 4.64999V7.35001C4 7.70898 4.29102 8 4.65002 8C5.00897 8 5.29999 7.70898 5.29999 7.35001V4.64999C5.29999 4.29102 5.00897 4 4.65002 4Z" fill="black"/>
<path d="M18.7 4.64999C18.7 4.29102 18.991 4 19.35 4C19.709 4 20 4.29102 20 4.64999V19.35C20 19.709 19.709 20 19.35 20C18.991 20 18.7 19.709 18.7 19.35V4.64999Z" fill="black"/>
<path d="M8.81067 12.65C8.72156 12.65 8.67694 12.7577 8.73993 12.8207L12 16.0807C12.2538 16.3346 12.2538 16.7462 12 17C11.7462 17.2538 11.3346 17.2538 11.0807 17L6.78784 12.7071C6.39734 12.3166 6.39734 11.6834 6.78784 11.2929L11.0807 7C11.3346 6.74615 11.7462 6.74615 12 7C12.2538 7.25383 12.2538 7.66539 12 7.91924L8.73993 11.1793C8.67694 11.2423 8.72156 11.35 8.81067 11.35H16.35C16.709 11.35 17 11.641 17 12C17 12.359 16.709 12.65 16.35 12.65H8.81067Z" fill="black"/>
<path d="M4 16.65C4 16.291 4.29102 16 4.65002 16C5.00897 16 5.29999 16.291 5.29999 16.65V19.35C5.29999 19.709 5.00897 20 4.65002 20C4.29102 20 4 19.709 4 19.35V16.65Z" fill="black"/>
<path d="M4.65002 9C4.29102 9 4 9.29102 4 9.64999V14.35C4 14.709 4.29102 15 4.65002 15C5.00897 15 5.29999 14.709 5.29999 14.35V9.64999C5.29999 9.29102 5.00897 9 4.65002 9Z" fill="black"/>
</svg>
