<svg width="32" height="32" viewBox="0 0 32 32" fill="none" xmlns="http://www.w3.org/2000/svg">
<path d="M5.8667 5C5.38802 5 5 5.38802 5 5.86666V9.46667C5 9.94531 5.38802 10.3333 5.8667 10.3333C6.3453 10.3333 6.73332 9.94531 6.73332 9.46667V5.86666C6.73332 5.38802 6.3453 5 5.8667 5Z" fill="black"/>
<path d="M24.6 5.86666C24.6 5.38802 24.988 5 25.4667 5C25.9453 5 26.3333 5.38802 26.3333 5.86666V25.4667C26.3333 25.9453 25.9453 26.3333 25.4667 26.3333C24.988 26.3333 24.6 25.9453 24.6 25.4667V5.86666Z" fill="black"/>
<path d="M11.4142 16.5333C11.2954 16.5333 11.2359 16.6769 11.3199 16.7609L15.6667 21.1077C16.0051 21.4461 16.0051 21.9949 15.6667 22.3333C15.3282 22.6718 14.7795 22.6718 14.441 22.3333L8.71712 16.6095C8.19645 16.0888 8.19645 15.2445 8.71712 14.7239L14.441 9C14.7795 8.66154 15.3282 8.66154 15.6667 9C16.0051 9.33844 16.0051 9.88719 15.6667 10.2256L11.3199 14.5724C11.2359 14.6564 11.2954 14.8 11.4142 14.8H21.4666C21.9453 14.8 22.3333 15.188 22.3333 15.6667C22.3333 16.1453 21.9453 16.5333 21.4666 16.5333H11.4142Z" fill="black"/>
<path d="M5 21.8667C5 21.388 5.38802 21 5.8667 21C6.3453 21 6.73332 21.388 6.73332 21.8667V25.4667C6.73332 25.9453 6.3453 26.3333 5.8667 26.3333C5.38802 26.3333 5 25.9453 5 25.4667V21.8667Z" fill="black"/>
<path d="M5.8667 11.6667C5.38802 11.6667 5 12.0547 5 12.5333V18.8C5 19.2786 5.38802 19.6667 5.8667 19.6667C6.3453 19.6667 6.73332 19.2786 6.73332 18.8V12.5333C6.73332 12.0547 6.3453 11.6667 5.8667 11.6667Z" fill="black"/>
</svg>
