<svg width="28" height="28" viewBox="0 0 28 28" fill="none" xmlns="http://www.w3.org/2000/svg">
<path d="M6.16687 5.00033C5.52242 5.00033 5 5.52263 5 6.16699L5 8.50033C5 9.14468 5.52242 9.66699 6.16687 9.66699C6.81133 9.66699 7.33375 9.14468 7.33375 8.50033L7.33375 6.16699C7.33375 5.52263 6.81133 5.00033 6.16687 5.00033Z" fill="black"/>
<path d="M12.7663 15.5003C12.6623 15.5003 12.6103 15.626 12.6838 15.6995L14.9184 17.9338C15.3741 18.3894 15.3741 19.1281 14.9184 19.5837C14.4627 20.0393 13.7239 20.0393 13.2682 19.5837L8.8424 15.1586C8.3867 14.703 8.3867 13.9643 8.8424 13.5087L13.2682 9.08366C13.7239 8.62805 14.4627 8.62805 14.9184 9.08365C15.3741 9.53926 15.3741 10.2779 14.9184 10.7336L12.6838 12.9678C12.6103 13.0413 12.6623 13.167 12.7663 13.167L19.0025 13.167C19.6469 13.167 20.1694 13.6893 20.1694 14.3337C20.1694 14.978 19.6469 15.5003 19.0025 15.5003L12.7663 15.5003Z" fill="black"/>
<path d="M21.3362 6.16699C21.3362 5.52263 21.8587 5.00033 22.5031 5.00033C23.1476 5.00033 23.67 5.52263 23.67 6.16699L23.67 22.5003C23.67 23.1447 23.1476 23.667 22.5031 23.667C21.8587 23.667 21.3363 23.1447 21.3363 22.5003L21.3362 6.16699Z" fill="black"/>
<path d="M5 20.167C5 19.5226 5.52242 19.0003 6.16687 19.0003C6.81133 19.0003 7.33375 19.5226 7.33375 20.167L7.33375 22.5003C7.33375 23.1447 6.81133 23.667 6.16688 23.667C5.52242 23.667 5 23.1447 5 22.5003L5 20.167Z" fill="black"/>
<path d="M6.16687 10.8337C5.52242 10.8337 5 11.356 5 12.0003L5 16.667C5 17.3114 5.52242 17.8337 6.16687 17.8337C6.81133 17.8337 7.33375 17.3114 7.33375 16.667L7.33375 12.0003C7.33375 11.356 6.81133 10.8337 6.16687 10.8337Z" fill="black"/>
</svg>
