<svg width="32" height="32" viewBox="0 0 32 32" fill="none" xmlns="http://www.w3.org/2000/svg">
<path d="M6.33333 4.99967C5.59694 4.99967 5 5.5966 5 6.33301L5 8.99967C5 9.73608 5.59694 10.333 6.33333 10.333C7.06972 10.333 7.66667 9.73608 7.66667 8.99967L7.66667 6.33301C7.66667 5.5966 7.06972 4.99967 6.33333 4.99967Z" fill="black"/>
<path d="M13.8742 16.9997C13.7554 16.9997 13.6959 17.1433 13.7799 17.2273L16.3333 19.7807C16.854 20.3014 16.854 21.1457 16.3333 21.6663C15.8126 22.187 14.9684 22.187 14.4477 21.6663L9.39053 16.6092C8.86983 16.0885 8.86982 15.2442 9.39053 14.7235L14.4477 9.66634C14.9684 9.14565 15.8126 9.14564 16.3333 9.66633C16.854 10.187 16.854 11.0312 16.3333 11.5519L13.7799 14.1054C13.6959 14.1894 13.7554 14.333 13.8742 14.333L21 14.333C21.7364 14.333 22.3333 14.93 22.3333 15.6663C22.3333 16.4027 21.7364 16.9997 21 16.9997L13.8742 16.9997Z" fill="black"/>
<path d="M23.6667 6.33301C23.6667 5.5966 24.2636 4.99967 25 4.99967C25.7364 4.99967 26.3333 5.5966 26.3333 6.33301L26.3333 24.9997C26.3333 25.7361 25.7364 26.333 25 26.333C24.2636 26.333 23.6667 25.7361 23.6667 24.9997L23.6667 6.33301Z" fill="black"/>
<path d="M5 22.333C5 21.5966 5.59694 20.9997 6.33333 20.9997C7.06972 20.9997 7.66667 21.5966 7.66667 22.333L7.66667 24.9997C7.66667 25.7361 7.06972 26.333 6.33333 26.333C5.59694 26.333 5 25.7361 5 24.9997L5 22.333Z" fill="black"/>
<path d="M6.33333 11.6663C5.59694 11.6663 5 12.2633 5 12.9997L5 18.333C5 19.0694 5.59694 19.6663 6.33333 19.6663C7.06972 19.6663 7.66667 19.0694 7.66667 18.333L7.66667 12.9997C7.66667 12.2633 7.06972 11.6663 6.33333 11.6663Z" fill="black"/>
</svg>
