<svg width="20" height="20" viewBox="0 0 20 20" fill="none" xmlns="http://www.w3.org/2000/svg">
<path d="M16.3333 3.83333C16.3333 3.37309 15.9603 3 15.5 3H13.8333C13.3731 3 13 3.37309 13 3.83333C13 4.29358 13.3731 4.66667 13.8333 4.66667H15.5C15.9603 4.66667 16.3333 4.29358 16.3333 3.83333Z" fill="black"/>
<path d="M8.83333 8.54636C8.83333 8.47212 8.74357 8.43494 8.69107 8.48744L7.09517 10.0833C6.76973 10.4088 6.24209 10.4088 5.91666 10.0833C5.59123 9.75789 5.59123 9.23026 5.91667 8.90483L9.07741 5.74408C9.40285 5.41864 9.93049 5.41864 10.2559 5.74408L13.4167 8.90483C13.7421 9.23026 13.7421 9.75789 13.4167 10.0833C13.0912 10.4088 12.5636 10.4088 12.2382 10.0833L10.6423 8.48744C10.5898 8.43494 10.5 8.47212 10.5 8.54636V13C10.5 13.4602 10.1269 13.8333 9.66667 13.8333C9.20643 13.8333 8.83333 13.4602 8.83333 13V8.54636Z" fill="black"/>
<path d="M15.5 14.6667C15.9603 14.6667 16.3333 15.0398 16.3333 15.5C16.3333 15.9602 15.9603 16.3333 15.5 16.3333H3.83333C3.37308 16.3333 3 15.9602 3 15.5C3 15.0398 3.37308 14.6667 3.83333 14.6667H15.5Z" fill="black"/>
<path d="M5.5 3C5.96026 3 6.33333 3.37309 6.33333 3.83333C6.33333 4.29358 5.96026 4.66667 5.5 4.66667H3.83333C3.37308 4.66667 3 4.29358 3 3.83333C3 3.37309 3.37308 3 3.83333 3H5.5Z" fill="black"/>
<path d="M12.1667 3.83333C12.1667 3.37309 11.7936 3 11.3333 3H8C7.53974 3 7.16667 3.37309 7.16667 3.83333C7.16667 4.29358 7.53974 4.66667 8 4.66667H11.3333C11.7936 4.66667 12.1667 4.29358 12.1667 3.83333Z" fill="black"/>
</svg>
