<svg width="48" height="48" viewBox="0 0 48 48" fill="none" xmlns="http://www.w3.org/2000/svg">
<path d="M10 8C8.89541 8 8 8.89539 8 10L8 14C8 15.1046 8.89542 16 10 16C11.1046 16 12 15.1046 12 14L12 10C12 8.89539 11.1046 8 10 8Z" fill="black"/>
<path d="M21.3113 26C21.1331 26 21.0439 26.2154 21.1698 26.3414L25 30.1716C25.781 30.9526 25.781 32.219 25 33C24.2189 33.781 22.9526 33.781 22.1716 33L14.5858 25.4142C13.8047 24.6332 13.8047 23.3668 14.5858 22.5858L22.1716 15C22.9526 14.219 24.2189 14.219 25 15C25.781 15.781 25.7811 17.0474 25 17.8284L21.1698 21.6586C21.0439 21.7846 21.1331 22 21.3113 22L32 22C33.1046 22 34 22.8954 34 24C34 25.1046 33.1046 26 32 26L21.3113 26Z" fill="black"/>
<path d="M36 10C36 8.89538 36.8954 8 38 8C39.1046 8 40 8.89538 40 10L40 38C40 39.1046 39.1046 40 38 40C36.8954 40 36 39.1046 36 38L36 10Z" fill="black"/>
<path d="M8 34C8 32.8954 8.89542 32 10 32C11.1046 32 12 32.8954 12 34L12 38C12 39.1046 11.1046 40 10 40C8.89542 40 8 39.1046 8 38L8 34Z" fill="black"/>
<path d="M10 18C8.89542 18 8 18.8954 8 20L8 28C8 29.1046 8.89542 30 10 30C11.1046 30 12 29.1046 12 28L12 20C12 18.8954 11.1046 18 10 18Z" fill="black"/>
</svg>
