<svg width="16" height="16" viewBox="0 0 16 16" fill="none" xmlns="http://www.w3.org/2000/svg">
<path d="M3.66667 3.00033C3.29847 3.00033 3 3.29879 3 3.66699L3 5.00033C3 5.36853 3.29847 5.66699 3.66667 5.66699C4.03486 5.66699 4.33333 5.36853 4.33333 5.00033L4.33333 3.66699C4.33333 3.29879 4.03486 3.00033 3.66667 3.00033Z" fill="black"/>
<path d="M7.43709 9.00033C7.3777 9.00033 7.34795 9.07213 7.38995 9.11413L8.66667 10.3909C8.92702 10.6512 8.92701 11.0733 8.66666 11.3337C8.40631 11.594 7.98421 11.594 7.72387 11.3337L5.19526 8.80506C4.93491 8.54471 4.93491 8.1226 5.19526 7.86225L7.72387 5.33366C7.98421 5.07331 8.40631 5.07331 8.66666 5.33365C8.92701 5.594 8.92702 6.01611 8.66667 6.27646L7.38995 7.55318C7.34795 7.59518 7.3777 7.66699 7.43709 7.66699L11 7.66699C11.3682 7.66699 11.6667 7.96547 11.6667 8.33366C11.6667 8.70185 11.3682 9.00032 11 9.00032L7.43709 9.00033Z" fill="black"/>
<path d="M12.3333 3.66699C12.3333 3.29879 12.6318 3.00032 13 3.00032C13.3682 3.00032 13.6667 3.29879 13.6667 3.66699L13.6667 13.0003C13.6667 13.3685 13.3682 13.667 13 13.667C12.6318 13.667 12.3333 13.3685 12.3333 13.0003L12.3333 3.66699Z" fill="black"/>
<path d="M3 11.667C3 11.2988 3.29847 11.0003 3.66667 11.0003C4.03486 11.0003 4.33333 11.2988 4.33333 11.667L4.33333 13.0003C4.33333 13.3685 4.03486 13.667 3.66667 13.667C3.29847 13.667 3 13.3685 3 13.0003L3 11.667Z" fill="black"/>
<path d="M3.66667 6.33366C3.29847 6.33366 3 6.63212 3 7.00033L3 9.66699C3 10.0352 3.29847 10.3337 3.66667 10.3337C4.03486 10.3337 4.33333 10.0352 4.33333 9.66699L4.33333 7.00033C4.33333 6.63212 4.03486 6.33366 3.66667 6.33366Z" fill="black"/>
</svg>
