<svg width="16" height="16" viewBox="0 0 16 16" fill="none" xmlns="http://www.w3.org/2000/svg">
<path fill-rule="evenodd" clip-rule="evenodd" d="M8.97146 3C9.61414 3 10.0676 3.24569 10.3511 3.59682C10.6197 3.92947 10.7079 4.3214 10.7079 4.59528C10.7079 4.86915 10.6197 5.26108 10.3511 5.59373C10.3456 5.60058 10.34 5.60739 10.3343 5.61416H11.2366C11.8442 5.61416 12.3368 6.10674 12.3368 6.71437V7.2414C12.3368 7.42553 12.1875 7.5748 12.0034 7.5748H8.10182V5.33378H7.23499V7.5748H3.3334C3.14927 7.5748 3 7.42553 3 7.2414L3 6.71437C3 6.10674 3.49258 5.61416 4.10021 5.61416H5.00243C4.99677 5.60739 4.99117 5.60058 4.98564 5.59373C4.71702 5.26108 4.62881 4.86915 4.62881 4.59528C4.62881 4.3214 4.71702 3.92947 4.98564 3.59682C5.26918 3.24569 5.72262 3 6.3653 3C6.95296 3 7.38238 3.20542 7.66838 3.50903C7.95438 3.20542 8.3838 3 8.97146 3ZM3.98493 8.44163C3.8008 8.44163 3.65154 8.5909 3.65154 8.77503V12.5698C3.65154 13.1774 4.14412 13.67 4.75175 13.67H7.23499V8.44163H3.98493ZM8.10182 13.67H10.5851C11.1927 13.67 11.6853 13.1774 11.6853 12.5698V8.77503C11.6853 8.5909 11.536 8.44163 11.3519 8.44163H8.10182V13.67ZM8.1018 4.59528V5.32372H8.97146C9.37123 5.32372 9.56933 5.18212 9.67671 5.04914C9.79902 4.89769 9.84111 4.70869 9.84111 4.59528C9.84111 4.48186 9.79902 4.29287 9.67671 4.14141C9.56933 4.00843 9.37123 3.86683 8.97146 3.86683C8.57169 3.86683 8.37358 4.00843 8.2662 4.14141C8.1439 4.29287 8.1018 4.48186 8.1018 4.59528ZM7.23496 5.32372V4.59528C7.23496 4.48186 7.19286 4.29287 7.07056 4.14141C6.96318 4.00843 6.76508 3.86683 6.3653 3.86683C5.96553 3.86683 5.76743 4.00843 5.66005 4.14141C5.53774 4.29287 5.49565 4.48186 5.49565 4.59528C5.49565 4.70869 5.53774 4.89769 5.66005 5.04914C5.76743 5.18212 5.96553 5.32372 6.3653 5.32372H7.23496Z" fill="black"/>
</svg>
