<svg width="28" height="28" viewBox="0 0 28 28" fill="none" xmlns="http://www.w3.org/2000/svg">
<path fill-rule="evenodd" clip-rule="evenodd" d="M23.6667 14.3333C23.6667 19.488 19.488 23.6667 14.3333 23.6667C9.17868 23.6667 5 19.488 5 14.3333C5 9.17868 9.17868 5 14.3333 5C19.488 5 23.6667 9.17868 23.6667 14.3333ZM16.1403 21.9401C15.5603 22.0774 14.9553 22.15 14.3333 22.15C13.7789 22.15 13.2379 22.0923 12.716 21.9825L11.685 19.6074L12.4365 18.4532H16.2217L16.9582 19.6278L16.1403 21.9401ZM20.7649 18.777C21.5911 17.5835 22.0936 16.1489 22.1455 14.6001L20.1798 13.2145L18.5933 13.847L17.4668 17.5839L18.2149 18.777H20.7649ZM20.2707 9.24898L19.6385 11.7975L18.0747 12.421L15.0917 10.3092V8.40607L17.2219 7.06773C18.4089 7.54004 19.4528 8.29479 20.2707 9.24898ZM7.90172 18.777H10.4159L11.1976 17.5764L10.0742 13.8499L8.44849 13.214L6.52095 14.5946C6.57187 16.1454 7.07459 17.582 7.90172 18.777ZM8.39288 9.25263L8.98892 11.7968L10.5894 12.4228L13.575 10.3092V8.38466L11.5888 7.01206C10.3407 7.48015 9.24413 8.25827 8.39288 9.25263Z" fill="black"/>
</svg>
