<svg width="12" height="12" viewBox="0 0 12 12" fill="none" xmlns="http://www.w3.org/2000/svg">
<path d="M2.13783 2.13783C2.32161 1.95406 2.61957 1.95406 2.80334 2.13783L5.96672 5.30121C5.9851 5.31959 6.0149 5.31959 6.03328 5.30121L9.19665 2.13783C9.38043 1.95406 9.67839 1.95406 9.86217 2.13783C10.0459 2.32161 10.0459 2.61957 9.86217 2.80334L6.69879 5.96672C6.68041 5.9851 6.68041 6.0149 6.69879 6.03328L9.86217 9.19665C10.0459 9.38043 10.0459 9.67839 9.86217 9.86217C9.67839 10.0459 9.38043 10.0459 9.19665 9.86217L6.03328 6.69879C6.0149 6.68041 5.9851 6.68041 5.96672 6.69879L2.80334 9.86217C2.61957 10.0459 2.32161 10.0459 2.13783 9.86217C1.95406 9.67839 1.95406 9.38043 2.13783 9.19665L5.30121 6.03328C5.31959 6.0149 5.31959 5.9851 5.30121 5.96672L2.13783 2.80334C1.95406 2.61957 1.95406 2.32161 2.13783 2.13783Z" fill="black"/>
</svg>
