<svg width="28" height="28" viewBox="0 0 28 28" fill="none" xmlns="http://www.w3.org/2000/svg">
<path d="M5.32161 5.32167C5.75042 4.89278 6.44566 4.89278 6.87447 5.32167L14.2557 12.7042C14.2986 12.7471 14.3681 12.7471 14.411 12.7042L21.7922 5.32167C22.221 4.89278 22.9162 4.89278 23.3451 5.32167C23.7739 5.75055 23.7739 6.44592 23.3451 6.8748L15.9638 14.2573C15.921 14.3002 15.921 14.3698 15.9638 14.4127L23.3451 21.7952C23.7739 22.2241 23.7739 22.9194 23.3451 23.3483C22.9162 23.7772 22.221 23.7772 21.7922 23.3483L14.411 15.9658C14.3681 15.9229 14.2986 15.9229 14.2557 15.9658L6.87447 23.3483C6.44566 23.7772 5.75042 23.7772 5.32161 23.3483C4.8928 22.9194 4.8928 22.2241 5.32161 21.7952L12.7028 14.4127C12.7457 14.3698 12.7457 14.3002 12.7028 14.2573L5.32161 6.8748C4.8928 6.44592 4.8928 5.75055 5.32161 5.32167Z" fill="black"/>
</svg>
