<svg width="16" height="16" viewBox="0 0 16 16" fill="none" xmlns="http://www.w3.org/2000/svg">
<path d="M3.12458 3.12462C3.2907 2.95846 3.56002 2.95846 3.72613 3.12462L8.26261 7.66252C8.30167 7.70159 8.365 7.70159 8.40406 7.66252L12.9405 3.12462C13.1066 2.95846 13.376 2.95846 13.5421 3.12462C13.7082 3.29079 13.7082 3.56019 13.5421 3.72636L9.00556 8.2643C8.96652 8.30335 8.96652 8.36665 9.00556 8.4057L13.5421 12.9436C13.7082 13.1098 13.7082 13.3792 13.5421 13.5454C13.376 13.7115 13.1066 13.7115 12.9405 13.5454L8.40406 9.00748C8.365 8.96841 8.30167 8.96841 8.26261 9.00748L3.72613 13.5454C3.56002 13.7115 3.2907 13.7115 3.12458 13.5454C2.95847 13.3792 2.95847 13.1098 3.12458 12.9436L7.66111 8.4057C7.70015 8.36665 7.70015 8.30335 7.66111 8.2643L3.12458 3.72636C2.95847 3.56019 2.95847 3.29079 3.12458 3.12462Z" fill="black"/>
</svg>
