<svg width="16" height="16" viewBox="0 0 16 16" fill="none" xmlns="http://www.w3.org/2000/svg">
<path d="M3.18378 3.18378C3.42881 2.93874 3.82609 2.93874 4.07113 3.18378L8.28897 7.40162C8.31347 7.42612 8.3532 7.42612 8.3777 7.40162L12.5955 3.18378C12.8406 2.93874 13.2379 2.93874 13.4829 3.18378C13.7279 3.42881 13.7279 3.82609 13.4829 4.07113L9.26505 8.28897C9.24055 8.31347 9.24055 8.3532 9.26505 8.3777L13.4829 12.5955C13.7279 12.8406 13.7279 13.2379 13.4829 13.4829C13.2379 13.7279 12.8406 13.7279 12.5955 13.4829L8.3777 9.26505C8.3532 9.24055 8.31347 9.24055 8.28897 9.26505L4.07113 13.4829C3.82609 13.7279 3.42881 13.7279 3.18378 13.4829C2.93874 13.2379 2.93874 12.8406 3.18378 12.5955L7.40162 8.3777C7.42612 8.3532 7.42612 8.31347 7.40162 8.28897L3.18378 4.07113C2.93874 3.82609 2.93874 3.42881 3.18378 3.18378Z" fill="black"/>
</svg>
