<svg width="24" height="24" viewBox="0 0 24 24" fill="none" xmlns="http://www.w3.org/2000/svg">
<path fill-rule="evenodd" clip-rule="evenodd" d="M4.9801 4.65C4.9801 4.29101 5.27112 4 5.6301 4H18.3718C18.7308 4 19.0218 4.29101 19.0218 4.65C19.0218 5.00899 18.7308 5.3 18.3718 5.3H17.8766L20.0019 10.4008V10.5308C20.0019 11.0432 19.8536 11.7973 19.3894 12.442C18.9013 13.1199 18.0936 13.6311 16.9016 13.6311C15.7096 13.6311 14.9019 13.1199 14.4139 12.442C13.9497 11.7973 13.8013 11.0432 13.8013 10.5308V10.4008L15.9266 5.3H12.651V14.9414H15.9214C17.0041 14.9414 17.8817 15.819 17.8817 16.9016C17.8817 17.9842 17.0041 18.8619 15.9214 18.8619H8.08042C6.9978 18.8619 6.12016 17.9842 6.12016 16.9016C6.12016 15.819 6.99779 14.9414 8.08041 14.9414H11.351V5.3H8.07532L10.2006 10.4008V10.5308C10.2006 11.0432 10.0523 11.7973 9.58808 12.442C9.10002 13.1199 8.2923 13.6311 7.10032 13.6311C5.90835 13.6311 5.10062 13.1199 4.61257 12.442C4.14837 11.7973 4 11.0432 4 10.5308V10.4008L6.12532 5.3H5.6301C5.27112 5.3 4.9801 5.00899 4.9801 4.65ZM7.10032 6.34L5.625 9.88077H8.57565L7.10032 6.34ZM15.4263 9.88077L16.9016 6.34L18.3769 9.88077H15.4263Z" fill="black"/>
</svg>
