<svg width="28" height="28" viewBox="0 0 28 28" fill="none" xmlns="http://www.w3.org/2000/svg">
<path fill-rule="evenodd" clip-rule="evenodd" d="M18.7375 5.10797C18.6652 5.08519 18.5941 5.14093 18.5941 5.21668V8.50063C18.5941 10.2084 17.2097 11.5928 15.5019 11.5928H12.5847C10.8769 11.5928 9.49247 10.2084 9.49247 8.50063V5.11669C9.49247 5.05224 9.44023 5 9.37578 5H7.33375C6.04486 5 5 6.04486 5 7.33375V21.3363C5 22.6251 6.04486 23.67 7.33375 23.67H7.62547C7.68991 23.67 7.74216 23.6178 7.74216 23.5533V17.2522C7.74216 15.5444 9.12659 14.16 10.8344 14.16H17.8356C19.5434 14.16 20.9278 15.5444 20.9278 17.2522V23.5533C20.9278 23.6178 20.9801 23.67 21.0445 23.67H21.3363C22.6251 23.67 23.67 22.6251 23.67 21.3363V10.6342C23.67 10.0152 23.4241 9.42162 22.9865 8.98396L19.686 5.68354C19.4183 5.41575 19.0921 5.21977 18.7375 5.10797ZM11.1261 5C11.0616 5 11.0094 5.05224 11.0094 5.11669V8.50063C11.0094 9.37063 11.7147 10.0759 12.5847 10.0759H15.5019C16.3719 10.0759 17.0772 9.37063 17.0772 8.50063V5.11669C17.0772 5.05224 17.0249 5 16.9605 5H11.1261ZM19.4109 23.5533C19.4109 23.6178 19.3587 23.67 19.2942 23.67H9.37578C9.31134 23.67 9.25909 23.6178 9.25909 23.5533V17.2522C9.25909 16.3822 9.96437 15.6769 10.8344 15.6769H17.8356C18.7056 15.6769 19.4109 16.3822 19.4109 17.2522V23.5533Z" fill="black"/>
</svg>
