<svg width="32" height="32" viewBox="0 0 32 32" fill="none" xmlns="http://www.w3.org/2000/svg">
<path d="M6.33322 5C7.06954 5 7.66644 5.5969 7.66644 6.33322V25.0001C7.66644 25.7364 7.06954 26.3333 6.33322 26.3333C5.5969 26.3333 5 25.7364 5 25.0001V6.33322C5 5.5969 5.5969 5 6.33322 5Z" fill="black"/>
<path d="M25.0001 5C25.7364 5 26.3333 5.5969 26.3333 6.33322V25.0001C26.3333 25.7364 25.7364 26.3333 25.0001 26.3333C24.2638 26.3333 23.6669 25.7364 23.6669 25.0001V6.33322C23.6669 5.5969 24.2638 5 25.0001 5Z" fill="black"/>
<path d="M16.9998 6.33322C16.9998 5.5969 16.4029 5 15.6666 5C14.9303 5 14.3334 5.5969 14.3334 6.33322V10.0666C14.3334 10.8029 14.9303 11.3998 15.6666 11.3998C16.4029 11.3998 16.9998 10.8029 16.9998 10.0666V6.33322Z" fill="black"/>
<path d="M15.6666 12.4668C16.4029 12.4668 16.9998 13.0637 16.9998 13.8V17.5334C16.9998 18.2697 16.4029 18.8666 15.6666 18.8666C14.9303 18.8666 14.3334 18.2697 14.3334 17.5334V13.8C14.3334 13.0637 14.9303 12.4668 15.6666 12.4668Z" fill="black"/>
<path d="M16.9998 21.2667C16.9998 20.5304 16.4029 19.9335 15.6666 19.9335C14.9303 19.9335 14.3334 20.5304 14.3334 21.2667V25.0001C14.3334 25.7364 14.9303 26.3333 15.6666 26.3333C16.4029 26.3333 16.9998 25.7364 16.9998 25.0001V21.2667Z" fill="black"/>
</svg>
