<svg width="48" height="48" viewBox="0 0 48 48" fill="none" xmlns="http://www.w3.org/2000/svg">
<path d="M8 9.2998C8 10.0177 8.58194 10.5996 9.2998 10.5996L38.7002 10.5996C39.4181 10.5996 40 10.0177 40 9.2998C40 8.58194 39.4181 8 38.7002 8L9.2998 8C8.58194 8 8 8.58194 8 9.2998Z" fill="black"/>
<path fill-rule="evenodd" clip-rule="evenodd" d="M11.3998 16.4745C11.3998 14.2657 13.1904 12.4752 15.3992 12.4752H18.9506C21.1594 12.4752 22.95 14.2657 22.95 16.4745V35.9961C22.95 38.2049 21.1594 39.9955 18.9506 39.9955H15.3992C13.1904 39.9955 11.3998 38.2049 11.3998 35.9961L11.3998 16.4745Z" fill="black"/>
<path fill-rule="evenodd" clip-rule="evenodd" d="M29.0494 12.4752C26.8406 12.4752 25.05 14.2657 25.05 16.4745V29.6453C25.05 31.8541 26.8406 33.6446 29.0494 33.6446H32.6008C34.8096 33.6446 36.6002 31.8541 36.6002 29.6453V16.4745C36.6002 14.2657 34.8096 12.4752 32.6008 12.4752H29.0494Z" fill="black"/>
</svg>
