<svg width="24" height="24" viewBox="0 0 24 24" fill="none" xmlns="http://www.w3.org/2000/svg">
<path d="M13.5 14.4487C13.8484 14.3809 14.2412 14.2402 14.5828 13.9942C15.0791 13.6369 15.5 13.037 15.5 12C15.5 10.963 15.0791 10.3631 14.5828 10.0058C14.2412 9.75979 13.8484 9.61909 13.5 9.55126V14.4487Z" fill="black"/>
<path fill-rule="evenodd" clip-rule="evenodd" d="M6 6C4.89543 6 4 6.89543 4 8V16C4 17.1046 4.89543 18 6 18H18C19.1046 18 20 17.1046 20 16V8C20 6.89543 19.1046 6 18 6H6ZM8 8.5C8.27614 8.5 8.5 8.72386 8.5 9V11.5H10.5V9C10.5 8.72386 10.7239 8.5 11 8.5C11.2761 8.5 11.5 8.72386 11.5 9V15C11.5 15.2761 11.2761 15.5 11 15.5C10.7239 15.5 10.5 15.2761 10.5 15V12.5H8.5V15C8.5 15.2761 8.27614 15.5 8 15.5C7.72386 15.5 7.5 15.2761 7.5 15V9C7.5 8.72386 7.72386 8.5 8 8.5ZM12.5 9C12.5 8.72386 12.7239 8.5 13 8.5C13.58 8.5 14.4389 8.66989 15.1672 9.19423C15.9209 9.73693 16.5 10.637 16.5 12C16.5 13.363 15.9209 14.2631 15.1672 14.8058C14.4389 15.3301 13.58 15.5 13 15.5C12.7239 15.5 12.5 15.2761 12.5 15V9Z" fill="black"/>
</svg>
