<svg width="48" height="48" viewBox="0 0 48 48" fill="none" xmlns="http://www.w3.org/2000/svg">
<path fill-rule="evenodd" clip-rule="evenodd" d="M14.2718 8.21847C14.875 7.82022 15.69 7.98164 16.0922 8.57902L29.5823 28.6183C30.3219 28.2954 31.1398 28.1162 32 28.1162C35.3137 28.1162 38 30.7765 38 34.0581C38 37.3397 35.3137 40 32 40C28.6863 40 26 37.3397 26 34.0581C26 32.5686 26.5534 31.2071 27.4677 30.1643L13.9077 10.0212C13.5056 9.42384 13.6686 8.61672 14.2718 8.21847ZM32 37.4C33.8638 37.4 35.3746 35.9038 35.3746 34.0581C35.3746 32.2124 33.8638 30.7161 32 30.7161C30.1362 30.7161 28.6254 32.2124 28.6254 34.0581C28.6254 35.9038 30.1362 37.4 32 37.4Z" fill="black"/>
<path d="M34.0817 10.0142L26.7642 20.8841L25.2018 18.5632L31.9183 8.58599C32.3166 7.99439 33.1237 7.83452 33.7211 8.22893C34.3185 8.62333 34.4799 9.42264 34.0817 10.0142Z" fill="black"/>
<path fill-rule="evenodd" clip-rule="evenodd" d="M21.2357 24.4548L22.7981 26.7757L20.5236 30.1544C21.4431 31.1985 22 32.5639 22 34.0581C22 37.3397 19.3137 40 16 40C12.6863 40 10 37.3397 10 34.0581C10 30.7765 12.6863 28.1162 16 28.1162C16.8647 28.1162 17.6868 28.2973 18.4295 28.6234L21.2357 24.4548ZM19.4 34.0581C19.4 35.9177 17.8778 37.4252 16 37.4252C14.1222 37.4252 12.6 35.9177 12.6 34.0581C12.6 32.1985 14.1222 30.691 16 30.691C17.8778 30.691 19.4 32.1985 19.4 34.0581Z" fill="black"/>
</svg>
