<svg width="12" height="12" viewBox="0 0 12 12" fill="none" xmlns="http://www.w3.org/2000/svg">
<path fill-rule="evenodd" clip-rule="evenodd" d="M8.1255 6C8.88456 6 9.52397 6.63809 9.23349 7.33939C9.0576 7.76403 8.7998 8.14987 8.47481 8.47487C8.14981 8.79988 7.76398 9.05769 7.33935 9.23358C6.91473 9.40947 6.45961 9.5 6 9.5C5.54039 9.5 5.08527 9.40947 4.66064 9.23358C4.23602 9.05769 3.85019 8.79988 3.52519 8.47487C3.2002 8.14987 2.9424 7.76403 2.76651 7.33939C2.47603 6.63809 3.11543 6 3.8745 6L8.1255 6ZM8.0152 8.01525C8.27984 7.75061 8.48976 7.43643 8.63299 7.09065C8.65817 7.02985 8.65746 6.98819 8.65174 6.95889C8.64536 6.92627 8.62736 6.88392 8.58601 6.83712C8.4984 6.73798 8.33024 6.65 8.1255 6.65H3.8745C3.66976 6.65 3.5016 6.73798 3.41399 6.83712C3.37264 6.88392 3.35464 6.92627 3.34826 6.95889C3.34254 6.98819 3.34183 7.02985 3.36701 7.09065C3.51024 7.43643 3.72016 7.75061 3.9848 8.01525C4.24944 8.2799 4.56361 8.48983 4.90938 8.63306C5.25515 8.77628 5.62574 8.85 6 8.85C6.37426 8.85 6.74485 8.77628 7.09062 8.63306C7.43639 8.48983 7.75056 8.2799 8.0152 8.01525Z" fill="black"/>
<path fill-rule="evenodd" clip-rule="evenodd" d="M5.3454 5.35C4.84499 5.10689 4.50004 4.59373 4.50004 4C4.50004 3.17157 5.1716 2.5 6 2.5C6.8284 2.5 7.49996 3.17157 7.49996 4C7.49996 4.59373 7.15501 5.10689 6.6546 5.35C6.45679 5.4461 6.23469 5.5 6 5.5C5.76531 5.5 5.54321 5.4461 5.3454 5.35ZM6 4.85C6.46943 4.85 6.84998 4.46944 6.84998 4C6.84998 3.53056 6.46943 3.15 6 3.15C5.53057 3.15 5.15002 3.53056 5.15002 4C5.15002 4.46944 5.53057 4.85 6 4.85Z" fill="black"/>
</svg>
