<svg width="12" height="12" viewBox="0 0 12 12" fill="none" xmlns="http://www.w3.org/2000/svg">
<path d="M7.50496 4C7.50496 4.82843 6.8334 5.5 6.005 5.5C5.1766 5.5 4.50504 4.82843 4.50504 4C4.50504 3.17157 5.1766 2.5 6.005 2.5C6.8334 2.5 7.50496 3.17157 7.50496 4Z" fill="black"/>
<path d="M8.1305 6C8.88956 6 9.52897 6.63809 9.23849 7.33939C9.0626 7.76403 8.8048 8.14987 8.47981 8.47487C8.15481 8.79988 7.76898 9.05769 7.34436 9.23358C6.91973 9.40947 6.46461 9.5 6.005 9.5C5.54539 9.5 5.09027 9.40947 4.66564 9.23358C4.24102 9.05769 3.85519 8.79988 3.53019 8.47487C3.2052 8.14987 2.9474 7.76403 2.77151 7.33939C2.48103 6.63809 3.12043 6 3.8795 6L8.1305 6Z" fill="black"/>
</svg>
