<svg width="32" height="32" viewBox="0 0 32 32" fill="none" xmlns="http://www.w3.org/2000/svg">
<path d="M9.13333 10.6667C9.13333 10.188 9.52135 9.8 10 9.8H21.3333C21.812 9.8 22.2 10.188 22.2 10.6667C22.2 11.1453 21.812 11.5333 21.3333 11.5333H10C9.52135 11.5333 9.13333 11.1453 9.13333 10.6667Z" fill="black"/>
<path d="M13.3333 14.4667C12.8547 14.4667 12.4667 14.8547 12.4667 15.3333C12.4667 15.812 12.8547 16.2 13.3333 16.2H21.3333C21.812 16.2 22.2 15.812 22.2 15.3333C22.2 14.8547 21.812 14.4667 21.3333 14.4667H13.3333Z" fill="black"/>
<path fill-rule="evenodd" clip-rule="evenodd" d="M7.66667 5C6.19391 5 5 6.19391 5 7.66667V23.6667C5 25.1394 6.19391 26.3333 7.66667 26.3333H23.6667C25.1394 26.3333 26.3333 25.1394 26.3333 23.6667V7.66667C26.3333 6.19391 25.1394 5 23.6667 5H7.66667ZM23.6667 6.73333H7.66667C7.1512 6.73333 6.73333 7.1512 6.73333 7.66667V23.6667C6.73333 24.1821 7.1512 24.6 7.66667 24.6H23.6667C24.1821 24.6 24.6 24.1821 24.6 23.6667V7.66667C24.6 7.1512 24.1821 6.73333 23.6667 6.73333Z" fill="black"/>
</svg>
