<svg width="20" height="20" viewBox="0 0 20 20" fill="none" xmlns="http://www.w3.org/2000/svg">
<path fill-rule="evenodd" clip-rule="evenodd" d="M14.8793 13.9688C15.4573 13.9688 15.8378 13.3222 15.5893 12.7622L14.7047 10.7692C14.6041 10.5426 14.5519 10.2947 14.5519 10.0437V8.0625C14.5519 5.26656 12.4393 3 9.83333 3C7.22732 3 5.11472 5.26656 5.11472 8.0625V10.0437C5.11472 10.2947 5.06253 10.5426 4.96194 10.7692L4.07735 12.7622C3.82884 13.3222 4.20936 13.9688 4.7874 13.9688H7.47403C7.47403 14.3617 7.5575 14.7338 7.70645 15.0656C8.08738 15.9143 8.8966 16.5 9.83333 16.5C10.7701 16.5 11.5793 15.9143 11.9602 15.0656C12.1092 14.7338 12.1926 14.3617 12.1926 13.9688H14.8793ZM5.9843 11.0171C6.08489 10.7904 6.13709 10.5426 6.13709 10.2916V8.0625C6.13709 5.87235 7.79195 4.09687 9.83333 4.09687C11.8747 4.09687 13.5296 5.87235 13.5296 8.0625V10.2916C13.5296 10.5426 13.5818 10.7904 13.6824 11.0171L14.345 12.5099C14.4195 12.6779 14.3054 12.8719 14.1319 12.8719H5.53472C5.36131 12.8719 5.24715 12.6779 5.32171 12.5099L5.9843 11.0171ZM11.1703 13.9688H8.49639C8.49639 14.7609 9.09496 15.4031 9.83333 15.4031C10.5717 15.4031 11.1703 14.7609 11.1703 13.9688Z" fill="black"/>
</svg>
