<svg width="16" height="16" viewBox="0 0 16 16" fill="none" xmlns="http://www.w3.org/2000/svg">
<path d="M8.33327 5.81061C8.14912 5.81061 7.99983 5.95987 7.99983 6.14398C7.99983 6.3281 8.14912 6.47735 8.33327 6.47735C8.71061 6.47735 9.64644 6.71515 10.1351 7.69059C10.2175 7.85522 10.4179 7.92183 10.5825 7.83938C10.7472 7.75693 10.8138 7.55664 10.7313 7.39202C10.1 6.13174 8.88923 5.81061 8.33327 5.81061Z" fill="black"/>
<path fill-rule="evenodd" clip-rule="evenodd" d="M3 11.0346C3 10.4094 3.50693 9.90259 4.13227 9.90259H12.5344C13.1597 9.90259 13.6667 10.4094 13.6667 11.0346C13.6667 11.6598 13.1597 12.1667 12.5344 12.1667H4.13227C3.50693 12.1667 3 11.6598 3 11.0346ZM3.86693 11.0346C3.86693 10.8881 3.98573 10.7693 4.13227 10.7693H12.5344C12.6809 10.7693 12.7997 10.8881 12.7997 11.0346C12.7997 11.1811 12.6809 11.2999 12.5344 11.2999H4.13227C3.98573 11.2999 3.86693 11.1811 3.86693 11.0346Z" fill="black"/>
<path fill-rule="evenodd" clip-rule="evenodd" d="M11.7981 5.82976C11.2139 5.24669 10.4974 4.82606 9.71907 4.59697C9.72842 4.53177 9.73325 4.46511 9.73325 4.39733C9.73325 3.6256 9.10647 3 8.33329 3C7.56011 3 6.93333 3.6256 6.93333 4.39733C6.93333 4.46511 6.93816 4.53177 6.94751 4.59698C6.07668 4.80604 5.51234 5.18723 4.8686 5.82976C4.10812 6.58881 3.62343 7.57168 3.47891 8.62325C3.42878 8.98805 3.73203 9.28796 4.10033 9.28796H12.5663C12.9346 9.28796 13.2379 8.98805 13.1878 8.62325C13.0432 7.57168 12.5585 6.58881 11.7981 5.82976ZM12.2716 8.42121C12.1073 7.67796 11.7335 6.99004 11.1856 6.44316C10.4294 5.68837 9.40341 5.26408 8.33333 5.26408C7.26326 5.26408 6.23731 5.68837 5.4811 6.44316C4.93319 6.99003 4.55938 7.67796 4.39505 8.4212L12.2716 8.42121ZM7.80104 4.42624C7.80052 4.41667 7.80026 4.40702 7.80026 4.39733C7.80026 4.10567 8.03753 3.86675 8.33329 3.86675C8.62905 3.86675 8.86632 4.10567 8.86632 4.39733C8.86632 4.40702 8.86606 4.41666 8.86554 4.42624C8.68962 4.40706 8.51198 4.39732 8.33333 4.39732C8.15466 4.39732 7.97699 4.40706 7.80104 4.42624Z" fill="black"/>
</svg>
