<svg width="28" height="28" viewBox="0 0 28 28" fill="none" xmlns="http://www.w3.org/2000/svg">
<path d="M4.29452 4.2221C3.99838 3.92596 3.51824 3.92597 3.2221 4.22211C2.92596 4.51825 2.92597 4.99838 3.22211 5.29452L22.7055 24.7779C23.0016 25.074 23.4818 25.074 23.7779 24.7779C24.074 24.4817 24.074 24.0016 23.7779 23.7055L4.29452 4.2221Z" fill="black"/>
<path d="M5.28227 17.9693L9.95914 13.2924L14.7071 18.0403L10.0302 22.7172C9.86448 22.8829 9.65343 22.9959 9.42364 23.0418L5.58706 23.8091C4.75651 23.9752 4.02424 23.243 4.19035 22.4124L4.95767 18.5758C5.00362 18.346 5.11657 18.135 5.28227 17.9693Z" fill="black"/>
<path d="M12.2924 10.9591L17.0403 15.7071L20.249 12.4983C20.3649 12.3825 20.3649 12.1946 20.249 12.0787L15.9208 7.75043C15.8049 7.63454 15.617 7.63454 15.5011 7.75043L12.2924 10.9591Z" fill="black"/>
<path d="M21.2355 11.3865C21.3402 11.4912 21.5071 11.5037 21.6185 11.406C22.3629 10.7533 22.8328 9.79534 22.8328 8.72758C22.8328 6.76092 21.2386 5.16664 19.2719 5.16664C18.2041 5.16664 17.2461 5.63659 16.5934 6.38095C16.4958 6.49234 16.5082 6.65926 16.613 6.76401L21.2355 11.3865Z" fill="black"/>
</svg>
