<svg width="28" height="28" viewBox="0 0 28 28" fill="none" xmlns="http://www.w3.org/2000/svg">
<path fill-rule="evenodd" clip-rule="evenodd" d="M21.5491 11.9282L18.6123 9.93477C18.4954 9.8554 18.394 9.75576 18.3131 9.64067L16.2159 6.65902L14.8806 5.33971C14.4221 4.88676 13.6788 4.88676 13.2204 5.33971L10.0083 8.51322C9.54985 8.96617 9.54985 9.70055 10.0083 10.1535L11.3436 11.4728L13.0898 12.6717L5.50828 20.1622C4.83057 20.8318 4.83057 21.9174 5.50828 22.587C6.18599 23.2565 7.28477 23.2565 7.96247 22.587L15.5372 15.1031L16.6768 16.742L18.0926 18.1408C18.5511 18.5937 19.2944 18.5937 19.7528 18.1408L22.9649 14.9673C23.4233 14.5143 23.4233 13.78 22.9649 13.327L21.5491 11.9282ZM14.8611 14.1309L14.6592 13.8405C14.5789 13.725 14.478 13.6248 14.3615 13.5448L14.0693 13.3442L6.33838 20.9824C6.11913 21.199 6.11913 21.5502 6.33838 21.7668C6.55763 21.9835 6.91311 21.9835 7.13237 21.7668L14.8611 14.1309ZM17.9476 10.8907L20.2128 12.4283L17.183 15.4217L15.6268 13.1837C15.4661 12.9527 15.2644 12.7523 15.0314 12.5923L12.6768 10.9757L15.7128 7.97623L17.349 10.3025C17.5109 10.5327 17.7137 10.732 17.9476 10.8907ZM21.134 13.1584L17.922 16.3319L18.9227 17.3206L22.1348 14.1471L21.134 13.1584ZM10.8384 9.33336L11.7587 10.2426L14.9708 7.06909L14.0505 6.15985L10.8384 9.33336Z" fill="black"/>
<path d="M17.1695 22.1568C16.7506 22.1568 16.411 22.4964 16.411 22.9153C16.411 23.3342 16.7506 23.6738 17.1695 23.6738H22.9115C23.3304 23.6738 23.67 23.3342 23.67 22.9153C23.67 22.4964 23.3304 22.1568 22.9115 22.1568H22.4219C22.4854 22.0459 22.5216 21.9175 22.5216 21.7806C22.5216 21.3617 22.182 21.0221 21.7631 21.0221H18.3179C17.899 21.0221 17.5594 21.3617 17.5594 21.7806C17.5594 21.9175 17.5957 22.0459 17.6591 22.1568H17.1695Z" fill="black"/>
</svg>
