<svg width="24" height="24" viewBox="0 0 24 24" fill="none" xmlns="http://www.w3.org/2000/svg">
<path d="M5.70709 11.5812C6.42088 10.5195 8.68471 8 12 8C13.6553 8 15.0854 8.62283 16.1866 9.39661C17.3058 10.183 18.0151 11.0752 18.2415 11.4961C18.4994 11.9757 19.0743 12.1423 19.5256 11.8682C19.9769 11.5942 20.1337 10.9834 19.8758 10.5039C19.4748 9.75818 18.537 8.65033 17.2249 7.72839C15.8948 6.79383 14.1092 6 12 6C7.7859 6 5.03019 9.14721 4.17538 10.4188C3.87326 10.8682 3.97123 11.4927 4.3942 11.8137C4.81717 12.1347 5.40497 12.0307 5.70709 11.5812Z" fill="black"/>
<path d="M12 11C9.84101 11 8.50886 12.6548 8.13594 13.4472C7.90349 13.9412 7.33816 14.1414 6.87324 13.8944C6.40833 13.6474 6.21988 13.0468 6.45234 12.5528C7.02059 11.3452 8.88839 9 12 9C15.1115 9 16.9793 11.3452 17.5476 12.5528C17.78 13.0468 17.5916 13.6474 17.1267 13.8944C16.6618 14.1414 16.0964 13.9412 15.864 13.4472C15.491 12.6548 14.1589 11 12 11Z" fill="black"/>
<path d="M10.0183 15.4472C10.1206 15.2299 10.3695 14.8441 10.7378 14.5234C11.0983 14.2095 11.5218 14 12 14C12.4782 14 12.9017 14.2095 13.2621 14.5234C13.6304 14.8441 13.8794 15.2299 13.9816 15.4472C14.2141 15.9412 14.7794 16.1414 15.2443 15.8944C15.7093 15.6474 15.8977 15.0468 15.6652 14.5528C15.4538 14.1035 15.044 13.4892 14.4554 12.9766C13.859 12.4572 13.0276 12 12 12C10.9723 12 10.1409 12.4572 9.54453 12.9766C8.95596 13.4892 8.5461 14.1035 8.33467 14.5528C8.10221 15.0468 8.29065 15.6474 8.75557 15.8944C9.22048 16.1414 9.78581 15.9412 10.0183 15.4472Z" fill="black"/>
<path d="M12 18C12.6497 18 13.1764 17.4404 13.1764 16.75C13.1764 16.0596 12.6497 15.5 12 15.5C11.3502 15.5 10.8235 16.0596 10.8235 16.75C10.8235 17.4404 11.3502 18 12 18Z" fill="black"/>
</svg>
