<svg width="48" height="48" viewBox="0 0 48 48" fill="none" xmlns="http://www.w3.org/2000/svg">
<path d="M23.0625 9.81543C23.6157 9.39448 24.3843 9.39448 24.9375 9.81543L38.8945 20.4365C39.4131 20.8313 39.625 21.5076 39.4258 22.125L34.4863 37.4346C34.2817 38.0684 33.6888 38.4998 33.0176 38.5H14.9824C14.3112 38.4998 13.7183 38.0684 13.5137 37.4346L8.57422 22.125C8.375 21.5076 8.58689 20.8313 9.10547 20.4365L23.0625 9.81543ZM24.957 11.8408C24.3917 11.4106 23.6083 11.4106 23.043 11.8408L11.0029 21.0039C10.4694 21.4099 10.2502 22.108 10.4561 22.7461L14.6689 35.8057C14.8796 36.458 15.4874 36.9003 16.1729 36.9004H31.8271C32.5126 36.9003 33.1204 36.458 33.3311 35.8057L37.5439 22.7461C37.7498 22.108 37.5306 21.4099 36.9971 21.0039L24.957 11.8408Z" fill="black" stroke="black"/>
</svg>
