<svg width="28" height="28" viewBox="0 0 28 28" fill="none" xmlns="http://www.w3.org/2000/svg">
<path fill-rule="evenodd" clip-rule="evenodd" d="M7.33333 6C6.04467 6 5 7.04467 5 8.33333V20C5 21.2887 6.04467 22.3333 7.33333 22.3333H21.3333C22.622 22.3333 23.6667 21.2887 23.6667 20V8.33333C23.6667 7.04467 22.622 6 21.3333 6H7.33333ZM8.675 8.91667C8.25618 8.91667 7.91667 9.25618 7.91667 9.675V11.075C7.91667 11.4938 8.25618 11.8333 8.675 11.8333C9.09382 11.8333 9.43333 11.4938 9.43333 11.075V9.675C9.43333 9.25618 9.09382 8.91667 8.675 8.91667ZM7.91667 13.4667C7.91667 13.0479 8.25618 12.7083 8.675 12.7083C9.09382 12.7083 9.43333 13.0479 9.43333 13.4667V14.8667C9.43333 15.2855 9.09382 15.625 8.675 15.625C8.25618 15.625 7.91667 15.2855 7.91667 14.8667V13.4667ZM8.675 16.5C8.25618 16.5 7.91667 16.8395 7.91667 17.2583V18.6583C7.91667 19.0772 8.25618 19.4167 8.675 19.4167C9.09382 19.4167 9.43333 19.0772 9.43333 18.6583V17.2583C9.43333 16.8395 9.09382 16.5 8.675 16.5ZM19.9917 16.5C19.5729 16.5 19.2333 16.8395 19.2333 17.2583V18.6583C19.2333 19.0772 19.5729 19.4167 19.9917 19.4167C20.4105 19.4167 20.75 19.0772 20.75 18.6583V17.2583C20.75 16.8395 20.4105 16.5 19.9917 16.5ZM19.2333 13.4667C19.2333 13.0479 19.5729 12.7083 19.9917 12.7083C20.4105 12.7083 20.75 13.0479 20.75 13.4667V14.8667C20.75 15.2855 20.4105 15.625 19.9917 15.625C19.5729 15.625 19.2333 15.2855 19.2333 14.8667V13.4667ZM19.9917 8.91667C19.5729 8.91667 19.2333 9.25618 19.2333 9.675V11.075C19.2333 11.4938 19.5729 11.8333 19.9917 11.8333C20.4105 11.8333 20.75 11.4938 20.75 11.075V9.675C20.75 9.25618 20.4105 8.91667 19.9917 8.91667Z" fill="black"/>
</svg>
