<svg width="48" height="48" viewBox="0 0 48 48" fill="none" xmlns="http://www.w3.org/2000/svg">
<path d="M12 20C14.2091 20 16 21.7909 16 24C16 26.2091 14.2091 28 12 28C9.79086 28 8 26.2091 8 24C8 21.7909 9.79086 20 12 20Z" fill="black"/>
<path d="M24 20C26.2091 20 28 21.7909 28 24C28 26.2091 26.2091 28 24 28C21.7909 28 20 26.2091 20 24C20 21.7909 21.7909 20 24 20Z" fill="black"/>
<path d="M36 20C38.2091 20 40 21.7909 40 24C40 26.2091 38.2091 28 36 28C33.7909 28 32 26.2091 32 24C32 21.7909 33.7909 20 36 20Z" fill="black"/>
</svg>
