<svg width="12" height="12" viewBox="0 0 12 12" fill="none" xmlns="http://www.w3.org/2000/svg">
<path fill-rule="evenodd" clip-rule="evenodd" d="M5.96861 2.0242C6.13875 1.96229 6.32718 2.02184 6.43762 2.17242L7.91129 4.18189C8.04928 4.37005 8.0236 4.63997 7.85295 4.7951L6.52631 6.00108V6.03686L7.85295 7.24285C8.02475 7.39902 8.04945 7.67126 7.90889 7.8593L6.43521 9.83083C6.32391 9.97973 6.13596 10.0376 5.96677 9.97513C5.79758 9.91263 5.68421 9.74343 5.68421 9.55342V7.09704L4.71878 8.12093C4.55435 8.29532 4.28776 8.29532 4.12333 8.12093C3.9589 7.94654 3.9589 7.6638 4.12333 7.48941L5.60158 5.92164L4.14379 4.56884C3.96879 4.40644 3.95105 4.12432 4.10418 3.93872C4.25731 3.75312 4.52332 3.73431 4.69832 3.89671L5.68421 4.81161V2.44658C5.68421 2.25581 5.79847 2.08611 5.96861 2.0242ZM6.52631 7.21315V8.27131L6.99726 7.64126L6.52631 7.21315ZM6.52631 4.8248L7.0001 4.39411L6.52631 3.74806V4.8248Z" fill="black"/>
</svg>
