<svg width="48" height="48" viewBox="0 0 48 48" fill="none" xmlns="http://www.w3.org/2000/svg">
<path fill-rule="evenodd" clip-rule="evenodd" d="M24 40C32.8366 40 40 32.8366 40 24C40 15.1634 32.8366 8 24 8C15.1634 8 8 15.1634 8 24C8 32.8366 15.1634 40 24 40ZM18 24C19.1046 24 20 23.1046 20 22C20 20.8954 19.1046 20 18 20C16.8954 20 16 20.8954 16 22C16 23.1046 16.8954 24 18 24ZM30 24C31.1046 24 32 23.1046 32 22C32 20.8954 31.1046 20 30 20C28.8954 20 28 20.8954 28 22C28 23.1046 28.8954 24 30 24ZM18.5814 31.1628C20.3674 30.2697 25.1138 29.0103 29.4186 31.1628C30.0608 31.4838 30.8417 31.2235 31.1628 30.5814C31.4838 29.9392 31.2235 29.1583 30.5814 28.8372C25.2862 26.1897 19.6326 27.7303 17.4186 28.8372C16.7765 29.1583 16.5162 29.9392 16.8372 30.5814C17.1583 31.2235 17.9392 31.4838 18.5814 31.1628Z" fill="black"/>
</svg>
