<svg width="20" height="20" viewBox="0 0 20 20" fill="none" xmlns="http://www.w3.org/2000/svg">
<path d="M6.33333 5.70833C6.33333 6.05351 6.05351 6.33333 5.70833 6.33333C5.36316 6.33333 5.08333 6.05351 5.08333 5.70833C5.08333 5.36316 5.36316 5.08333 5.70833 5.08333C6.05351 5.08333 6.33333 5.36316 6.33333 5.70833Z" fill="black"/>
<path d="M7.79167 6.33333C8.13684 6.33333 8.41667 6.05351 8.41667 5.70833C8.41667 5.36316 8.13684 5.08333 7.79167 5.08333C7.44649 5.08333 7.16667 5.36316 7.16667 5.70833C7.16667 6.05351 7.44649 6.33333 7.79167 6.33333Z" fill="black"/>
<path d="M10.5 5.70833C10.5 6.05351 10.2202 6.33333 9.875 6.33333C9.52982 6.33333 9.25 6.05351 9.25 5.70833C9.25 5.36316 9.52982 5.08333 9.875 5.08333C10.2202 5.08333 10.5 5.36316 10.5 5.70833Z" fill="black"/>
<path fill-rule="evenodd" clip-rule="evenodd" d="M9.66667 13.8333C11.5076 13.8333 13 12.3409 13 10.5C13 8.65905 11.5076 7.16667 9.66667 7.16667C7.82572 7.16667 6.33333 8.65905 6.33333 10.5C6.33333 12.3409 7.82572 13.8333 9.66667 13.8333ZM11.2185 10.4945C11.4678 10.4605 11.7066 10.3761 11.9059 10.2787C11.7947 9.13991 10.8346 8.25 9.66667 8.25C8.78647 8.25 8.02432 8.75542 7.65461 9.49187C7.75656 9.46697 7.86141 9.44664 7.96848 9.43204C8.63284 9.34144 9.40519 9.47248 10.0497 10.117C10.4052 10.4725 10.8134 10.5498 11.2185 10.4945Z" fill="black"/>
<path fill-rule="evenodd" clip-rule="evenodd" d="M4.66667 3C3.74619 3 3 3.74619 3 4.66667V14.6667C3 15.5871 3.74619 16.3333 4.66667 16.3333H14.6667C15.5871 16.3333 16.3333 15.5871 16.3333 14.6667V4.66667C16.3333 3.74619 15.5871 3 14.6667 3H4.66667ZM14.6667 4.08333H4.66667C4.3445 4.08333 4.08333 4.3445 4.08333 4.66667V14.6667C4.08333 14.9888 4.3445 15.25 4.66667 15.25H14.6667C14.9888 15.25 15.25 14.9888 15.25 14.6667V4.66667C15.25 4.3445 14.9888 4.08333 14.6667 4.08333Z" fill="black"/>
</svg>
