<svg width="32" height="32" viewBox="0 0 32 32" fill="none" xmlns="http://www.w3.org/2000/svg">
<path fill-rule="evenodd" clip-rule="evenodd" d="M12.3333 7.66667C10.8606 7.66667 9.66667 8.86057 9.66667 10.3333C9.66667 11.8061 10.8606 13 12.3333 13H17.6667C19.1394 13 20.3333 11.8061 20.3333 10.3333C20.3333 8.86057 19.1394 7.66667 17.6667 7.66667H12.3333ZM17.6667 9.4H12.3333C11.8179 9.4 11.4 9.81787 11.4 10.3333C11.4 10.8488 11.8179 11.2667 12.3333 11.2667H17.6667C18.1821 11.2667 18.6 10.8488 18.6 10.3333C18.6 9.81787 18.1821 9.4 17.6667 9.4Z" fill="black"/>
<path fill-rule="evenodd" clip-rule="evenodd" d="M8.33333 5C7.59695 5 7 5.59695 7 6.33333V25C7 25.7364 7.59695 26.3333 8.33333 26.3333H21.6667C22.403 26.3333 23 25.7364 23 25V6.33333C23 5.59695 22.403 5 21.6667 5H8.33333ZM9.4 6.73333C9.03181 6.73333 8.73333 7.03181 8.73333 7.4V23.9333C8.73333 24.3015 9.03181 24.6 9.4 24.6H20.6C20.9682 24.6 21.2667 24.3015 21.2667 23.9333V7.4C21.2667 7.03181 20.9682 6.73333 20.6 6.73333H9.4Z" fill="black"/>
<path d="M25.6667 9.33333C25.6667 8.85469 25.2786 8.46667 24.8 8.46667C24.3214 8.46667 23.9333 8.85469 23.9333 9.33333V11.3333C23.9333 11.812 24.3214 12.2 24.8 12.2C25.2786 12.2 25.6667 11.812 25.6667 11.3333V9.33333Z" fill="black"/>
<path d="M24.8 13.8C25.2786 13.8 25.6667 14.188 25.6667 14.6667V16.6667C25.6667 17.1453 25.2786 17.5333 24.8 17.5333C24.3214 17.5333 23.9333 17.1453 23.9333 16.6667V14.6667C23.9333 14.188 24.3214 13.8 24.8 13.8Z" fill="black"/>
<path d="M25.6667 20C25.6667 19.5214 25.2786 19.1333 24.8 19.1333C24.3214 19.1333 23.9333 19.5214 23.9333 20V22C23.9333 22.4786 24.3214 22.8667 24.8 22.8667C25.2786 22.8667 25.6667 22.4786 25.6667 22V20Z" fill="black"/>
</svg>
