<svg width="16" height="16" viewBox="0 0 16 16" fill="none" xmlns="http://www.w3.org/2000/svg">
<path fill-rule="evenodd" clip-rule="evenodd" d="M9.38505 3.43564C8.8042 2.85479 7.86246 2.85479 7.28162 3.43564L3.43564 7.28162C2.85479 7.86246 2.85479 8.8042 3.43564 9.38505L7.28162 13.231C7.86246 13.8119 8.8042 13.8119 9.38505 13.231L13.231 9.38505C13.8119 8.8042 13.8119 7.86246 13.231 7.28162L9.38505 3.43564ZM12.6182 7.89444L8.77223 4.04846C8.52983 3.80607 8.13684 3.80607 7.89444 4.04846L4.04846 7.89444C3.80607 8.13684 3.80607 8.52983 4.04846 8.77223L7.89444 12.6182C8.13684 12.8606 8.52983 12.8606 8.77223 12.6182L12.6182 8.77223C12.8606 8.52983 12.8606 8.13684 12.6182 7.89444Z" fill="black"/>
</svg>
