<svg width="16" height="16" viewBox="0 0 16 16" fill="none" xmlns="http://www.w3.org/2000/svg">
<path fill-rule="evenodd" clip-rule="evenodd" d="M3 5.33333C3 4.59695 3.59695 4 4.33333 4H12.3333C13.0697 4 13.6667 4.59695 13.6667 5.33333V10.6667C13.6667 11.403 13.0697 12 12.3333 12H4.33333C3.59695 12 3 11.403 3 10.6667V5.33333ZM4.5 6.66667C4.5 6.29848 4.79848 6 5.16667 6H7.83333C8.20152 6 8.5 6.29848 8.5 6.66667V9.33333C8.5 9.70152 8.20152 10 7.83333 10H5.16667C4.79848 10 4.5 9.70152 4.5 9.33333V6.66667ZM9.66667 6.06667C9.42734 6.06667 9.23333 6.26068 9.23333 6.5C9.23333 6.73932 9.42734 6.93333 9.66667 6.93333H11.6667C11.906 6.93333 12.1 6.73932 12.1 6.5C12.1 6.26068 11.906 6.06667 11.6667 6.06667H9.66667ZM9.23333 8C9.23333 7.76068 9.42734 7.56667 9.66667 7.56667H11.6667C11.906 7.56667 12.1 7.76068 12.1 8C12.1 8.23932 11.906 8.43333 11.6667 8.43333H9.66667C9.42734 8.43333 9.23333 8.23932 9.23333 8ZM9.66667 9.06667C9.42734 9.06667 9.23333 9.26068 9.23333 9.5C9.23333 9.73932 9.42734 9.93333 9.66667 9.93333H11.6667C11.906 9.93333 12.1 9.73932 12.1 9.5C12.1 9.26068 11.906 9.06667 11.6667 9.06667H9.66667Z" fill="black"/>
</svg>
