<svg width="48" height="48" viewBox="0 0 48 48" fill="none" xmlns="http://www.w3.org/2000/svg">
<path d="M22 9C17.4097 9 13.552 11.9876 12.5782 16.0134C12.4381 16.5927 12.0028 16.8641 11.6945 16.8641H11.4302C8.44912 16.8641 6 19.1163 6 21.932C6 23.6346 6.89541 25.1311 8.26242 26.0483C9.08831 23.1694 11.7614 21.1319 14.8151 20.8885C16.2612 16.2432 20.8003 13 26 13C27.6198 13 29.1756 13.3147 30.5936 13.8886C28.9885 10.9801 25.737 9 22 9Z" fill="black"/>
<path d="M16.5782 22.0134C17.552 17.9876 21.4097 15 26 15C30.5903 15 34.448 17.9876 35.4218 22.0134C35.5619 22.5927 35.9972 22.8641 36.3055 22.8641H36.5698C39.5509 22.8641 42 25.1163 42 27.932C42 30.7478 39.5509 33 36.5698 33H29.9834C29.9066 31.6845 29.1507 30.4313 27.8641 29.8029L28.3335 29.3335C29.6222 28.0447 29.6222 25.9553 28.3335 24.6666C27.0448 23.3778 24.9553 23.3778 23.6666 24.6666L20.2028 28.1304C18.8274 29.5058 18.7741 31.5644 19.775 33H15.4302C12.4491 33 10 30.7478 10 27.932C10 25.1163 12.4491 22.8641 15.4302 22.8641H15.6945C16.0028 22.8641 16.4381 22.5927 16.5782 22.0134Z" fill="black"/>
<path d="M27.9638 32.9158C27.9685 32.9438 27.9726 32.9718 27.976 33C28.0315 33.4571 27.9135 33.939 27.5941 34.3384L24.0151 38.8121C23.5666 39.3727 22.7485 39.4636 22.1878 39.0151C21.6272 38.5666 21.5363 37.7485 21.9848 37.1879L24.8902 33.5562L22.2213 32.4886C21.0215 32.0087 20.7031 30.4583 21.6169 29.5446L25.0807 26.0808C25.3346 25.8269 25.6673 25.7 26 25.7C26.1145 25.7 26.229 25.715 26.3403 25.7451C26.5524 25.8024 26.7528 25.9143 26.9193 26.0808C27.427 26.5885 27.427 27.4116 26.9193 27.9193L24.3133 30.5252L26.857 31.5427C27.3611 31.7443 27.7135 32.139 27.8801 32.5981C27.9175 32.7012 27.9455 32.8076 27.9638 32.9158Z" fill="black"/>
</svg>
