<svg width="48" height="48" viewBox="0 0 48 48" fill="none" xmlns="http://www.w3.org/2000/svg">
<path d="M18 13C18 9.68629 20.6863 7 24 7C27.3137 7 30 9.68629 30 13V23C30 26.3137 27.3137 29 24 29C20.6863 29 18 26.3137 18 23V13Z" fill="black"/>
<path d="M25.4 34.9176C26.6362 34.7716 27.8452 34.4327 28.9828 33.9105C30.5608 33.1862 31.9639 32.1265 33.0954 30.8043C34.2269 29.4822 35.06 27.9291 35.5371 26.252C35.9 24.9766 36.0504 23.6525 35.9852 22.3332C35.9511 21.6439 35.3058 21.1759 34.6239 21.2819C33.9436 21.3876 33.486 22.0252 33.5017 22.7135C33.5236 23.6735 33.4016 24.6338 33.1376 25.5617C32.7597 26.8899 32.0999 28.12 31.2037 29.1672C30.3076 30.2143 29.1963 31.0537 27.9465 31.6273C26.6966 32.201 25.338 32.4954 23.9642 32.4902C22.5903 32.485 21.2339 32.1803 19.9884 31.5972C18.743 31.014 17.638 30.1663 16.7497 29.1124C15.8614 28.0584 15.2109 26.8234 14.8429 25.4923C14.5859 24.5625 14.4711 23.6012 14.5002 22.6413C14.5211 21.9532 14.0683 21.3122 13.3889 21.2013C12.7077 21.0902 12.0589 21.5534 12.0196 22.2424C11.9445 23.5612 12.085 24.8863 12.4383 26.1644C12.9029 27.8451 13.7242 29.4044 14.8458 30.7351C15.9674 32.0658 17.3625 33.1361 18.935 33.8724C20.1572 34.4446 21.464 34.8045 22.8 34.9395V39.7C22.8 40.418 23.3821 41 24.1 41C24.818 41 25.4 40.418 25.4 39.7V34.9176Z" fill="black"/>
</svg>
