<svg width="48" height="48" viewBox="0 0 48 48" fill="none" xmlns="http://www.w3.org/2000/svg">
<path fill-rule="evenodd" clip-rule="evenodd" d="M26.3241 10.3897C26.6922 9.9888 27.2875 9.88458 27.7723 10.1361C36.7952 14.8178 38.297 24.0466 37.9236 28.7544C39.2729 29.7581 39.794 31.3383 39.9454 32.7374C40.1237 34.3852 39.835 36.0751 39.5176 37.1453C39.3739 37.63 38.9365 37.972 38.4266 37.9984C37.9168 38.0247 37.4457 37.7296 37.2518 37.2624C36.6842 35.8951 35.9422 35.429 35.374 35.2679C34.8192 35.1107 34.2615 35.1977 33.8898 35.3383C32.6575 36.4448 31.0054 37.09 29.5297 37.4664C27.9658 37.8653 26.4492 38 25.4985 38C16.0068 38 10.005 31.5716 8.15335 28.3004C7.88069 27.8187 7.97884 27.2148 8.39035 26.8419C8.80186 26.4691 9.41858 26.4253 9.87963 26.7363C14.9339 30.1456 19.9579 29.9215 22.9688 29.0811C22.7193 28.8679 22.4589 28.636 22.1904 28.3894C21.0667 27.357 19.7414 26.0107 18.3788 24.5626C15.8795 21.9064 13.2099 18.8599 11.3438 16.6646C11.1256 16.4382 10.9353 16.2136 10.7833 15.9939C10.4208 15.4699 10.5382 14.7566 11.05 14.3734C11.5618 13.9902 12.2875 14.0724 12.6987 14.56C12.8383 14.7256 12.984 14.8978 13.1352 15.0757C13.4249 15.3679 13.8427 15.7289 14.3899 16.1477C15.2145 16.7787 16.2375 17.4702 17.333 18.1627C17.6625 18.3709 17.9971 18.5784 18.3331 18.7833C17.264 17.3434 16.1677 15.8474 15.3475 14.7207C15.2076 14.5545 15.0825 14.3822 14.9943 14.2123C14.7069 13.6584 14.8998 12.9789 15.4368 12.6541C15.9737 12.3294 16.6729 12.4692 17.0402 12.9748C17.1044 13.0631 17.1708 13.1545 17.2393 13.2486C17.2999 13.3165 17.3904 13.4131 17.5211 13.5413C17.8046 13.8193 18.1946 14.1681 18.6761 14.5756C19.6369 15.3887 20.9102 16.3921 22.3086 17.4584C24.6607 19.2521 27.334 21.199 29.3956 22.6707C29.7886 21.4995 29.6721 19.896 29.1254 18.0292C28.4309 15.6576 27.1621 13.2858 26.2074 11.8402C25.908 11.3868 25.9559 10.7905 26.3241 10.3897ZM22.974 20.9481C23.1563 21.1808 23.316 21.3809 23.4491 21.543C23.5362 21.6491 23.6086 21.735 23.6662 21.8008C23.6949 21.8336 23.7181 21.8593 23.7361 21.8787L23.757 21.9008C23.7622 21.9061 23.7646 21.9084 23.7643 21.9081C24.1929 22.3212 24.2494 22.9831 23.8968 23.4614C23.5441 23.9396 22.8898 24.0885 22.3614 23.8108C21.5682 23.3939 20.5568 22.8426 19.4627 22.218C19.6891 22.4619 19.9147 22.7033 20.1388 22.9415C21.4851 24.3723 22.7651 25.6708 23.8267 26.646C24.3584 27.1345 24.8204 27.5281 25.1985 27.8128C25.3872 27.9549 25.5438 28.0614 25.6689 28.1363C25.7307 28.1734 25.7797 28.1996 25.8166 28.2174C25.851 28.2341 25.8681 28.2401 25.8698 28.2407C25.8699 28.2408 25.8699 28.2408 25.8698 28.2407C26.3272 28.3876 26.6522 28.7901 26.6959 29.264C26.7396 29.7379 26.4937 30.1919 26.0707 30.4183C23.8816 31.5902 19.119 32.8329 13.7569 31.2112C16.434 33.4989 20.4019 35.6209 25.4985 35.6209C26.2632 35.6209 27.577 35.5076 28.9294 35.1627C30.3021 34.8125 31.5678 34.2605 32.3789 33.4789C32.4707 33.3904 32.5762 33.317 32.6914 33.2615C33.4751 32.8839 34.7252 32.6093 36.0362 32.9808C36.5812 33.1353 37.108 33.3932 37.5954 33.7689C37.5949 33.5084 37.5822 33.2473 37.5544 32.9906C37.4167 31.7173 36.9534 30.8421 36.1222 30.4416C35.655 30.2165 35.3869 29.7201 35.4574 29.2108C35.8916 26.0723 35.2857 19.7081 30.6358 15.1173C30.9376 15.8468 31.2116 16.6041 31.435 17.3671C32.1854 19.9295 32.4996 23.02 30.7161 25.1683C30.3146 25.6519 29.603 25.745 29.0882 25.3813C27.4637 24.2333 25.2007 22.6043 22.974 20.9481Z" fill="black"/>
</svg>
