<svg width="16" height="16" viewBox="0 0 16 16" fill="none" xmlns="http://www.w3.org/2000/svg">
<path fill-rule="evenodd" clip-rule="evenodd" d="M10.692 3.51038C11.3725 2.82988 12.4758 2.82988 13.1563 3.51038C13.8368 4.19088 13.8368 5.29418 13.1563 5.97468L12.487 6.64399L13.1598 7.33186C13.334 7.5099 13.3324 7.79492 13.1563 7.97102L11.3801 9.74725C11.2026 9.92473 10.9148 9.92473 10.7373 9.74725C10.5599 9.56976 10.5599 9.282 10.7373 9.10452L12.0735 7.76837C12.1412 7.70064 12.1418 7.59101 12.0749 7.52254L11.9678 7.4131C11.8998 7.34355 11.788 7.34293 11.7193 7.41173L6.03479 13.0962C5.85828 13.2727 5.62928 13.3872 5.38217 13.4225L3.71844 13.6602C3.30314 13.7195 2.94717 13.3635 3.0065 12.9482L3.24417 11.2845C3.27947 11.0374 3.39397 10.8084 3.57048 10.6319L10.692 3.51038Z" fill="black"/>
</svg>
