<svg width="16" height="16" viewBox="0 0 16 16" fill="none" xmlns="http://www.w3.org/2000/svg">
<path fill-rule="evenodd" clip-rule="evenodd" d="M8.33333 13.67C11.2789 13.67 13.6667 11.2814 13.6667 8.335C13.6667 5.38856 11.2789 3 8.33333 3C5.38781 3 3 5.38856 3 8.335C3 11.2814 5.38781 13.67 8.33333 13.67ZM6.33333 8.335C6.70152 8.335 7 8.03643 7 7.66813C7 7.29982 6.70152 7.00125 6.33333 7.00125C5.96514 7.00125 5.66667 7.29982 5.66667 7.66813C5.66667 8.03643 5.96514 8.335 6.33333 8.335ZM11 7.66813C11 8.03643 10.7015 8.335 10.3333 8.335C9.96514 8.335 9.66667 8.03643 9.66667 7.66813C9.66667 7.29982 9.96514 7.00125 10.3333 7.00125C10.7015 7.00125 11 7.29982 11 7.66813ZM6.42039 9.56362C6.36235 9.33137 6.12708 9.19016 5.8949 9.24822C5.66272 9.30629 5.52156 9.54163 5.57961 9.77388C5.74214 10.4242 6.54799 11.436 8.33333 11.436C10.1187 11.436 10.9245 10.4242 11.0871 9.77388C11.1451 9.54163 11.0039 9.30629 10.7718 9.24822C10.5396 9.19016 10.3043 9.33137 10.2463 9.56362C10.1866 9.80244 9.74799 10.569 8.33333 10.569C6.91868 10.569 6.48008 9.80244 6.42039 9.56362Z" fill="black"/>
</svg>
