<svg width="16" height="16" viewBox="0 0 16 16" fill="none" xmlns="http://www.w3.org/2000/svg">
<path d="M5.94213 7.38093C5.75739 7.22879 5.48429 7.25522 5.33216 7.43997C5.18002 7.62471 5.20646 7.89781 5.3912 8.04994L6.98499 9.36242L5.3912 10.6749C5.20646 10.827 5.18002 11.1001 5.33216 11.2849C5.48429 11.4696 5.75739 11.4961 5.94213 11.3439L7.66667 9.92378L9.3912 11.3439C9.57594 11.4961 9.84904 11.4696 10.0012 11.2849C10.1533 11.1001 10.1269 10.827 9.94213 10.6749L8.34834 9.36242L9.94213 8.04994C10.1269 7.89781 10.1533 7.62471 10.0012 7.43997C9.84904 7.25522 9.57594 7.22879 9.3912 7.38093L7.66667 8.80107L5.94213 7.38093Z" fill="black"/>
<path fill-rule="evenodd" clip-rule="evenodd" d="M4.91032 4.08723C4.53161 3.87124 4.05267 3.83867 3.72724 3.88461C3.49027 3.91806 3.27104 3.75308 3.23759 3.5161C3.20413 3.27913 3.36912 3.05991 3.60609 3.02645C4.05844 2.96259 4.74616 2.9959 5.33968 3.3344C5.90123 3.65466 6.33204 4.22309 6.41775 5.10252H7.56667V4.01826C7.56667 3.65007 7.86514 3.35159 8.23333 3.35159H10.7667C11.1349 3.35159 11.4333 3.65007 11.4333 4.01826V5.17452C11.957 5.35439 12.3333 5.85117 12.3333 6.43586V12.3335C12.3333 13.0699 11.7364 13.6669 11 13.6669H4.33333C3.59695 13.6669 3 13.0699 3 12.3335V6.43586C3 5.69948 3.59695 5.10252 4.33333 5.10252H5.54558C5.46992 4.54603 5.20106 4.25305 4.91032 4.08723ZM10.5667 5.10252V4.59159C10.5667 4.38541 10.3995 4.21826 10.1933 4.21826H8.80667C8.60048 4.21826 8.43333 4.38541 8.43333 4.59159V5.10252H10.5667ZM4.33333 5.96919H11C11.2577 5.96919 11.4667 6.17813 11.4667 6.43586V12.3335C11.4667 12.5913 11.2577 12.8002 11 12.8002H4.33333C4.0756 12.8002 3.86667 12.5913 3.86667 12.3335V6.43586C3.86667 6.17813 4.0756 5.96919 4.33333 5.96919Z" fill="black"/>
</svg>
