<svg width="16" height="16" viewBox="0 0 16 16" fill="none" xmlns="http://www.w3.org/2000/svg">
<path fill-rule="evenodd" clip-rule="evenodd" d="M9.26049 3.12206C9.7992 3.26086 10.2909 3.50184 10.5881 3.74024L10.6065 3.755L13.5201 6.66569C13.7152 6.86058 13.7155 7.17677 13.5208 7.37204L12.3862 8.50983C12.1911 8.70551 11.8742 8.70551 11.6791 8.50983L10.6581 7.4859C10.5692 7.39682 10.4257 7.39682 10.3369 7.4859L7.50274 10.3281C7.48538 10.3455 7.4709 10.3656 7.45987 10.3877L7.24878 10.8111C7.19626 10.9165 7.12712 11.0127 7.044 11.096L5.63549 12.5085L5.63346 12.5114C5.36631 13.0472 4.65273 13.164 4.22933 12.7394L3.25637 11.7637C2.83444 11.3406 2.94916 10.6271 3.48411 10.3589L3.48664 10.357L4.86066 8.97915C4.98072 8.85874 5.12719 8.76794 5.28849 8.71402L5.91353 8.50508C5.94693 8.49392 5.97739 8.47507 6.00245 8.44994L8.86656 5.57774C8.89294 5.55128 8.90079 5.53313 8.90249 5.52779C8.96224 5.33989 8.95765 5.20969 8.93406 5.12203C8.91104 5.03645 8.8618 4.96064 8.77769 4.892C8.59587 4.74361 8.26086 4.64152 7.83296 4.64846C7.41641 4.65522 6.99378 4.3351 6.99378 3.8465C6.99378 3.56434 7.15367 3.25529 7.47934 3.1401C8.07232 2.93037 8.72122 2.9831 9.26049 3.12206Z" fill="black"/>
</svg>
