<svg width="16" height="16" viewBox="0 0 16 16" fill="none" xmlns="http://www.w3.org/2000/svg">
<path fill-rule="evenodd" clip-rule="evenodd" d="M7.66667 13.6667L7.72127 13.6567C8.65707 13.4859 9.80016 12.8048 10.7053 11.8681C11.6109 10.9309 12.3333 9.68023 12.3333 8.33467V4.88905C12.3333 4.70494 12.1909 4.55568 12.0151 4.55568C11.1707 4.55568 10.2746 4.29491 9.50645 3.97035C8.73894 3.64607 8.12568 3.26953 7.85303 3.06315C7.74179 2.97895 7.59154 2.97895 7.4803 3.06315C7.20762 3.26955 6.5946 3.6461 5.82724 3.97036C5.05925 4.2949 4.16313 4.55568 3.31822 4.55568C3.14247 4.55568 3 4.70494 3 4.88905V8.33467C3 9.68023 3.72241 10.9309 4.62806 11.8681C5.53318 12.8048 6.67626 13.4859 7.61206 13.6567L7.66667 13.6667Z" fill="black"/>
</svg>
