<svg width="16" height="16" viewBox="0 0 16 16" fill="none" xmlns="http://www.w3.org/2000/svg">
<path fill-rule="evenodd" clip-rule="evenodd" d="M3.16667 6.43333C3.07462 6.43333 3 6.50795 3 6.6V11C3 11.7364 3.59695 12.3333 4.33333 12.3333H12.3333C13.0697 12.3333 13.6667 11.7364 13.6667 11V6.6C13.6667 6.50795 13.592 6.43333 13.5 6.43333H3.16667ZM4.56667 8C4.56667 7.76068 4.76068 7.56667 5 7.56667H10.3333C10.5727 7.56667 10.7667 7.76068 10.7667 8C10.7667 8.23932 10.5727 8.43333 10.3333 8.43333H5C4.76068 8.43333 4.56667 8.23932 4.56667 8ZM5 9.23333C4.76068 9.23333 4.56667 9.42734 4.56667 9.66667C4.56667 9.90599 4.76068 10.1 5 10.1H8.33333C8.57266 10.1 8.76667 9.90599 8.76667 9.66667C8.76667 9.42734 8.57266 9.23333 8.33333 9.23333H5Z" fill="black"/>
<path fill-rule="evenodd" clip-rule="evenodd" d="M4.33333 3C3.59695 3 3 3.59695 3 4.33333V5.4C3 5.49205 3.07462 5.56667 3.16667 5.56667H13.5C13.592 5.56667 13.6667 5.49205 13.6667 5.4V4.33333C13.6667 3.59695 13.0697 3 12.3333 3H4.33333ZM10.1 5.2C10.3393 5.2 10.5333 5.00599 10.5333 4.76667C10.5333 4.52734 10.3393 4.33333 10.1 4.33333C9.86068 4.33333 9.66667 4.52734 9.66667 4.76667C9.66667 5.00599 9.86068 5.2 10.1 5.2ZM11.1 5.2C11.3393 5.2 11.5333 5.00599 11.5333 4.76667C11.5333 4.52734 11.3393 4.33333 11.1 4.33333C10.8607 4.33333 10.6667 4.52734 10.6667 4.76667C10.6667 5.00599 10.8607 5.2 11.1 5.2ZM12.1 5.2C12.3393 5.2 12.5333 5.00599 12.5333 4.76667C12.5333 4.52734 12.3393 4.33333 12.1 4.33333C11.8607 4.33333 11.6667 4.52734 11.6667 4.76667C11.6667 5.00599 11.8607 5.2 12.1 5.2Z" fill="black"/>
</svg>
