<svg width="20" height="20" viewBox="0 0 20 20" fill="none" xmlns="http://www.w3.org/2000/svg">
<path d="M9.11137 4.16266C8.90202 3.94891 8.55905 3.94537 8.34532 4.15473C8.1316 4.3641 8.12805 4.7071 8.3374 4.92085L12.6182 9.29158H3.5417C3.24253 9.29158 3 9.53413 3 9.83333C3 10.1325 3.24253 10.3751 3.5417 10.3751H12.6182L8.3374 14.7458C8.12805 14.9596 8.1316 15.3026 8.34532 15.5119C8.55905 15.7213 8.90202 15.7178 9.11137 15.504L14.0941 10.4166C14.4115 10.0925 14.4115 9.57415 14.0941 9.25011L9.11137 4.16266Z" fill="black"/>
<path d="M16.3333 4.54176C16.3333 4.24255 16.0908 4 15.7916 4C15.4925 4 15.2499 4.24255 15.2499 4.54176V15.1249C15.2499 15.4241 15.4925 15.6667 15.7916 15.6667C16.0908 15.6667 16.3333 15.4241 16.3333 15.1249V4.54176Z" fill="black"/>
</svg>
