<svg width="28" height="28" viewBox="0 0 28 28" fill="none" xmlns="http://www.w3.org/2000/svg">
<path fill-rule="evenodd" clip-rule="evenodd" d="M8.83728 10.3832C9.40536 7.86716 11.6557 6 14.3333 6C17.011 6 19.2613 7.86716 19.8294 10.3832C19.9111 10.7452 20.165 10.9148 20.3449 10.9148H20.499C22.238 10.9148 23.6667 12.3224 23.6667 14.0822C23.6667 15.8419 22.238 17.2495 20.499 17.2495H20.4348L18.8122 20.7263C18.6351 21.1058 18.1838 21.2699 17.8043 21.0928C17.4248 20.9157 17.2607 20.4644 17.4378 20.0849L18.7611 17.2495H16.3154L14.1022 20.8062C13.8809 21.1618 13.4133 21.2707 13.0577 21.0494C12.7021 20.8282 12.5932 20.3605 12.8145 20.0049L14.5291 17.2495H11.6487L9.43553 20.8062C9.21426 21.1618 8.74662 21.2707 8.39102 21.0494C8.03543 20.8282 7.92654 20.3605 8.14781 20.0049L9.8624 17.2495H8.16763C6.42865 17.2495 5 15.8419 5 14.0822C5 12.3224 6.42865 10.9148 8.16763 10.9148H8.32177C8.50164 10.9148 8.75555 10.7452 8.83728 10.3832Z" fill="black"/>
</svg>
