<svg width="20" height="20" viewBox="0 0 20 20" fill="none" xmlns="http://www.w3.org/2000/svg">
<path d="M3 9.5416C3 9.24248 3.24248 9 3.5416 9H4.56245C4.86156 9 5.10405 9.24248 5.10405 9.5416C5.10405 9.84072 4.86156 10.0832 4.56245 10.0832H3.5416C3.24248 10.0832 3 9.84072 3 9.5416Z" fill="black"/>
<path d="M6.06253 9.5416C6.06253 9.24248 6.30502 9 6.60413 9H8.64582C8.94494 9 9.18742 9.24248 9.18742 9.5416C9.18742 9.84072 8.94494 10.0832 8.64582 10.0832H6.60413C6.30502 10.0832 6.06253 9.84072 6.06253 9.5416Z" fill="black"/>
<path d="M10.1459 9.5416C10.1459 9.24248 10.3884 9 10.6875 9H12.7292C13.0283 9 13.2708 9.24248 13.2708 9.5416C13.2708 9.84072 13.0283 10.0832 12.7292 10.0832H10.6875C10.3884 10.0832 10.1459 9.84072 10.1459 9.5416Z" fill="black"/>
<path d="M14.2293 9.5416C14.2293 9.24248 14.4718 9 14.7709 9H15.7917C16.0908 9 16.3333 9.24248 16.3333 9.5416C16.3333 9.84072 16.0908 10.0832 15.7917 10.0832H14.7709C14.4718 10.0832 14.2293 9.84072 14.2293 9.5416Z" fill="black"/>
</svg>
