<svg width="28" height="28" viewBox="0 0 28 28" fill="none" xmlns="http://www.w3.org/2000/svg">
<path d="M6.35014 13.042C7.2487 11.7219 10.108 8.56223 14.3333 8.56223C16.4442 8.56223 18.2599 9.34666 19.6486 10.3103C21.0515 11.2839 21.9632 12.4013 22.2759 12.9755C22.4798 13.3501 22.9345 13.4802 23.2915 13.2662C23.6484 13.0521 23.7724 12.575 23.5685 12.2004C23.1177 11.3726 22.0253 10.0867 20.4698 9.00726C18.9001 7.918 16.8032 7 14.3333 7C9.39713 7 6.14879 10.65 5.13871 12.134C4.89976 12.485 4.97724 12.9729 5.31177 13.2236C5.6463 13.4743 6.1112 13.393 6.35014 13.042Z" fill="black"/>
<path d="M14.3333 12.1674C11.5035 12.1674 9.76852 14.3011 9.27317 15.3407C9.08932 15.7266 8.64219 15.883 8.27449 15.6901C7.90679 15.4971 7.75775 15.0279 7.9416 14.6421C8.59143 13.2783 10.7501 10.6052 14.3333 10.6052C17.9165 10.6052 20.0752 13.2783 20.725 14.6421C20.9088 15.0279 20.7598 15.4971 20.3921 15.6901C20.0244 15.883 19.5773 15.7266 19.3934 15.3407C18.8981 14.3011 17.1631 12.1674 14.3333 12.1674Z" fill="black"/>
<path d="M11.5635 17.7442C11.7112 17.4342 12.0484 16.9226 12.5434 16.4968C13.0323 16.0763 13.6344 15.7725 14.3333 15.7725C15.0322 15.7725 15.6343 16.0763 16.1232 16.4968C16.6182 16.9226 16.9554 17.4342 17.1031 17.7442C17.2869 18.13 17.734 18.2864 18.1017 18.0935C18.4694 17.9006 18.6185 17.4314 18.4346 17.0455C18.2006 16.5544 17.7362 15.8642 17.0669 15.2886C16.3915 14.7076 15.4667 14.2103 14.3333 14.2103C13.1999 14.2103 12.2751 14.7076 11.5997 15.2886C10.9304 15.8642 10.466 16.5544 10.232 17.0455C10.0481 17.4314 10.1972 17.9006 10.5649 18.0935C10.9326 18.2864 11.3797 18.13 11.5635 17.7442Z" fill="black"/>
<path d="M14.3333 21C15.1239 21 15.7648 20.3275 15.7648 19.4979C15.7648 18.6682 15.1239 17.9957 14.3333 17.9957C13.5427 17.9957 12.9018 18.6682 12.9018 19.4979C12.9018 20.3275 13.5427 21 14.3333 21Z" fill="black"/>
</svg>
