<svg width="20" height="20" viewBox="0 0 20 20" fill="none" xmlns="http://www.w3.org/2000/svg">
<path d="M8.18193 6.88645C8.18193 7.60193 7.60192 8.18193 6.88645 8.18193C6.17097 8.18193 5.59096 7.60193 5.59096 6.88645C5.59096 6.17097 6.17097 5.59097 6.88645 5.59097C7.60192 5.59097 8.18193 6.17097 8.18193 6.88645Z" fill="black"/>
<path fill-rule="evenodd" clip-rule="evenodd" d="M3.00001 8.50844C3.00001 8.73749 3.091 8.95716 3.25297 9.11913L10.2109 16.077C10.5482 16.4143 11.095 16.4143 11.4323 16.077L16.077 11.4323C16.4143 11.095 16.4143 10.5481 16.077 10.2109L9.11914 3.25296C8.95717 3.09099 8.7375 3 8.50844 3L3.86365 3.00001C3.38667 3.00001 3 3.38669 3 3.86367L3.00001 8.50844ZM8.5276 4.24923C8.44662 4.16825 8.33678 4.12275 8.22225 4.12275L4.55458 4.12276C4.31609 4.12276 4.12275 4.3161 4.12275 4.55459L4.12276 8.22224C4.12276 8.33677 4.16826 8.44661 4.24924 8.52759L10.5162 14.7946C10.6849 14.9632 10.9583 14.9632 11.1269 14.7946L14.7946 11.1269C14.9632 10.9583 14.9632 10.6849 14.7946 10.5162L8.5276 4.24923Z" fill="black"/>
</svg>
