<svg width="32" height="32" viewBox="0 0 32 32" fill="none" xmlns="http://www.w3.org/2000/svg">
<path fill-rule="evenodd" clip-rule="evenodd" d="M15.4598 16.1742C16.4162 17.1386 17.967 17.1386 18.9234 16.1742C19.8799 15.2098 19.8799 13.6462 18.9234 12.6818C17.967 11.7174 16.4162 11.7174 15.4598 12.6818C14.5033 13.6462 14.5033 15.2098 15.4598 16.1742ZM16.6803 14.9435C16.9627 15.2282 17.4205 15.2282 17.7029 14.9435C17.9852 14.6588 17.9852 14.1972 17.7029 13.9125C17.4205 13.6278 16.9627 13.6278 16.6803 13.9125C16.398 14.1972 16.398 14.6588 16.6803 14.9435Z" fill="black"/>
<path fill-rule="evenodd" clip-rule="evenodd" d="M7.84038 25.9387C7.47909 25.9387 7.1613 25.9518 6.88226 25.9734C6.8211 25.9781 6.76179 25.9832 6.7043 25.9887C5.89983 26.0652 5.44997 26.2103 5.21715 26.2855C5.09251 26.3257 5.03007 26.3459 5.00873 26.3247C4.9873 26.3034 5.00729 26.2404 5.04733 26.1142C5.12143 25.8808 5.26422 25.4309 5.34041 24.6282C5.34591 24.5702 5.35106 24.5105 5.35581 24.4489C5.37776 24.1642 5.39123 23.8394 5.39123 23.4692C5.3912 22.1053 6.48775 20.9997 7.84038 20.9997C9.19301 20.9997 10.2895 22.1053 10.2895 23.4692C10.2895 24.833 9.19301 25.9387 7.84038 25.9387ZM8.55624 23.4692C8.55624 23.8893 8.22225 24.2054 7.84038 24.2054C7.57849 24.2054 7.33431 24.2116 7.1066 24.2227C7.11812 23.9893 7.12453 23.7386 7.12452 23.4692C7.12452 23.0491 7.45848 22.733 7.84038 22.733C8.22225 22.733 8.55624 23.0491 8.55624 23.4692Z" fill="black"/>
<path fill-rule="evenodd" clip-rule="evenodd" d="M22.8617 17.2758L25.1666 14.9517C26.0203 14.0909 26.4408 12.8862 26.3098 11.676L25.9976 8.79152C25.79 6.87308 24.2586 5.37471 22.3506 5.22319L19.6965 5.01241C18.5347 4.92015 17.3911 5.34551 16.5671 6.17639L14.2287 8.53421C13.206 7.75519 12.1267 7.57028 11.1563 7.72957C10.0619 7.9092 9.16995 8.51263 8.6641 9.02268L6.98155 10.7192C6.46605 11.239 6.46605 12.0772 6.98155 12.597L9.1048 14.7378C9.22667 14.8607 9.37621 14.9395 9.53355 14.974C9.53977 15.5808 9.68157 16.1866 9.95893 16.741L8.92488 17.2623C7.99465 17.7313 7.79287 18.9715 8.52646 19.7111L11.5098 22.7193C12.2502 23.4658 13.5051 23.2626 13.9722 22.3207L14.4342 21.3889C15.1111 21.8132 15.8867 22.0135 16.6569 21.9898C16.6894 22.0405 16.7277 22.0885 16.7717 22.1329L18.8859 24.2646C19.4074 24.7905 20.2577 24.7905 20.7792 24.2646L22.2798 22.7516C22.7857 22.2414 23.3841 21.3419 23.5621 20.2382C23.7129 19.3024 23.5516 18.2664 22.8617 17.2758ZM21.6108 18.537L19.3513 20.8153C19.1015 21.0672 18.8268 21.2786 18.5351 21.4496L19.3592 22.2805C19.62 22.5434 20.0451 22.5434 20.3059 22.2805L21.0592 21.5209C21.3697 21.2078 21.7509 20.6254 21.8583 19.9589C21.9261 19.5383 21.8919 19.0542 21.6108 18.537ZM9.12367 11.0207C8.86592 11.2806 8.86592 11.6997 9.12367 11.9596L10.0711 12.9149C10.2406 12.6209 10.4503 12.344 10.7 12.0921L12.824 9.95049C12.2554 9.58493 11.7237 9.53695 11.2688 9.61163C10.6105 9.71969 10.0339 10.103 9.72319 10.4162L9.12367 11.0207ZM10.2741 19.0119C10.1146 18.8511 10.1585 18.5815 10.3607 18.4795L10.8384 18.2387C10.9673 18.1737 11.1234 18.1991 11.2251 18.3016L12.9275 20.0182C13.0279 20.1194 13.0528 20.2732 12.9894 20.401L12.7506 20.8826C12.6491 21.0873 12.3763 21.1315 12.2153 20.9692L10.2741 19.0119ZM23.9461 13.721L18.1308 19.5846C17.2493 20.4734 15.8201 20.4734 14.9386 19.5846L11.9206 16.5415C11.0391 15.6527 11.0391 14.2116 11.9206 13.3228L17.7876 7.40708C18.2546 6.93624 18.9026 6.69521 19.5609 6.74749L22.215 6.95826C23.2962 7.04412 24.1641 7.8932 24.2817 8.98032L24.5939 11.8648C24.6681 12.5505 24.4298 13.2332 23.9461 13.721ZM15.4598 16.1742C16.4162 17.1386 17.967 17.1386 18.9234 16.1742C19.8799 15.2098 19.8799 13.6462 18.9234 12.6818C17.967 11.7174 16.4162 11.7174 15.4598 12.6818C14.5033 13.6462 14.5033 15.2098 15.4598 16.1742ZM16.6803 14.9435C16.9627 15.2282 17.4205 15.2282 17.7029 14.9435C17.9852 14.6588 17.9852 14.1972 17.7029 13.9125C17.4205 13.6278 16.9627 13.6278 16.6803 13.9125C16.398 14.1972 16.398 14.6588 16.6803 14.9435Z" fill="black"/>
</svg>
