<svg width="16" height="16" viewBox="0 0 16 16" fill="none" xmlns="http://www.w3.org/2000/svg">
<path d="M1 3.45522C1 3.20381 1.19402 3 1.43335 3H7.75641C7.99574 3 8.18975 3.20381 8.18975 3.45522C8.18975 3.70662 7.99574 3.91043 7.75641 3.91043H1.43335C1.19402 3.91043 1 3.70662 1 3.45522Z" fill="black"/>
<path d="M1 6.5C1 6.24859 1.19402 6.04478 1.43335 6.04478H10.5667C10.806 6.04478 11 6.24859 11 6.5C11 6.75141 10.806 6.95522 10.5667 6.95522H1.43335C1.19402 6.95522 1 6.75141 1 6.5Z" fill="black"/>
<path d="M1.43335 9.08957C1.19402 9.08957 1 9.29338 1 9.54478C1 9.79619 1.19402 10 1.43335 10H4.94616C5.18549 10 5.3795 9.79619 5.3795 9.54478C5.3795 9.29338 5.18549 9.08957 4.94616 9.08957H1.43335Z" fill="black"/>
</svg>
