<svg width="24" height="24" viewBox="0 0 24 24" fill="none" xmlns="http://www.w3.org/2000/svg">
<path d="M6.80903 5.06874C6.87387 5.03623 6.9449 5.01425 7.01988 5.00504C7.09545 4.99556 7.17029 4.99965 7.24162 5.01564C7.33859 5.0372 7.4274 5.08041 7.50271 5.13995C7.57518 5.19709 7.6359 5.26988 7.67913 5.3549C7.70282 5.40129 7.7211 5.4509 7.73314 5.50289C7.86841 6.02312 8.42383 6.95038 9.54998 6.95038C10.6762 6.95038 11.2316 6.02303 11.3668 5.50282C11.3737 5.47338 11.3826 5.44456 11.3934 5.41654C11.4262 5.33116 11.4757 5.25594 11.5371 5.19374C11.6022 5.12757 11.6822 5.07467 11.7735 5.04084C11.8449 5.0142 11.9215 4.99994 12 5C12.0785 4.99994 12.1551 5.0142 12.2265 5.04084C12.3179 5.07467 12.3978 5.12757 12.4629 5.19376C12.5241 5.25568 12.5734 5.33052 12.6062 5.41543C12.6172 5.4438 12.6262 5.47301 12.6332 5.50285C12.7684 6.02306 13.3238 6.95038 14.45 6.95038C15.5762 6.95038 16.1317 6.02301 16.2669 5.5028C16.2737 5.47344 16.2826 5.44468 16.2934 5.41674C16.3262 5.33125 16.3757 5.25593 16.4372 5.19367C16.5023 5.12753 16.5822 5.07466 16.6735 5.04084C16.745 5.0142 16.8216 4.99994 16.9001 5C16.9785 4.99994 17.0551 5.0142 17.1266 5.04084C17.3058 5.10723 17.4412 5.24707 17.5067 5.41661C17.5175 5.4446 17.5264 5.4734 17.5332 5.50282C17.6685 6.02303 18.2239 6.95038 19.3501 6.95038C19.709 6.95038 20 7.24136 20 7.60031C20 7.95925 19.709 8.25023 19.3501 8.25023C18.1794 8.25023 17.3917 7.6826 16.9001 7.05481C16.4084 7.6826 15.6207 8.25023 14.45 8.25023C13.2793 8.25023 12.4916 7.6826 12 7.05482C11.5084 7.6826 10.7207 8.25023 9.54998 8.25023C8.46419 8.25023 7.70784 7.76195 7.21162 7.19027C7.00824 7.43287 6.763 7.62591 6.50436 7.77414C5.86906 8.13824 5.13659 8.25023 4.64992 8.25023C4.29098 8.25023 4 7.95925 4 7.60031C4 7.24136 4.29098 6.95038 4.64992 6.95038C4.97993 6.95038 5.47247 6.86735 5.85802 6.64638C6.20872 6.44539 6.44627 6.15412 6.44999 5.66183C6.44897 5.6084 6.45461 5.55576 6.4663 5.50493C6.48755 5.41178 6.52881 5.32624 6.58533 5.25309C6.64405 5.17685 6.71993 5.11323 6.80903 5.06874Z" fill="black"/>
<path d="M6.80903 9.9443C6.87387 9.91179 6.9449 9.88981 7.01988 9.8806C7.09545 9.87112 7.17029 9.87521 7.24162 9.8912C7.33859 9.91276 7.4274 9.95597 7.50271 10.0155C7.57518 10.0726 7.6359 10.1454 7.67913 10.2305C7.70282 10.2768 7.7211 10.3265 7.73314 10.3785C7.86841 10.8987 8.42383 11.8259 9.54998 11.8259C10.6762 11.8259 11.2316 10.8986 11.3668 10.3784C11.3737 10.3489 11.3826 10.3201 11.3934 10.2921C11.4262 10.2067 11.4757 10.1315 11.5371 10.0693C11.6022 10.0031 11.6822 9.95023 11.7735 9.9164C11.8449 9.88976 11.9215 9.8755 12 9.87556C12.0785 9.8755 12.1551 9.88976 12.2265 9.9164C12.3179 9.95023 12.3978 10.0031 12.4629 10.0693C12.5241 10.1312 12.5734 10.2061 12.6062 10.291C12.6172 10.3194 12.6262 10.3486 12.6332 10.3784C12.7684 10.8986 13.3238 11.8259 14.45 11.8259C15.5762 11.8259 16.1317 10.8986 16.2669 10.3784C16.2737 10.349 16.2826 10.3202 16.2934 10.2923C16.3262 10.2068 16.3757 10.1315 16.4372 10.0692C16.5023 10.0031 16.5822 9.95022 16.6735 9.9164C16.745 9.88976 16.8216 9.8755 16.9001 9.87556C16.9785 9.8755 17.0551 9.88976 17.1266 9.9164C17.3058 9.98279 17.4412 10.1226 17.5067 10.2922C17.5175 10.3202 17.5264 10.349 17.5332 10.3784C17.6685 10.8986 18.2239 11.8259 19.3501 11.8259C19.709 11.8259 20 12.1169 20 12.4759C20 12.8348 19.709 13.1258 19.3501 13.1258C18.1794 13.1258 17.3917 12.5582 16.9001 11.9304C16.4084 12.5582 15.6207 13.1258 14.45 13.1258C13.2793 13.1258 12.4916 12.5582 12 11.9304C11.5084 12.5582 10.7207 13.1258 9.54998 13.1258C8.46419 13.1258 7.70784 12.6375 7.21162 12.0658C7.00824 12.3084 6.763 12.5015 6.50436 12.6497C5.86906 13.0138 5.13659 13.1258 4.64992 13.1258C4.29098 13.1258 4 12.8348 4 12.4759C4 12.1169 4.29098 11.8259 4.64992 11.8259C4.97993 11.8259 5.47247 11.7429 5.85802 11.5219C6.20872 11.3209 6.44627 11.0297 6.44999 10.5374C6.44897 10.484 6.45461 10.4313 6.4663 10.3805C6.48755 10.2873 6.52881 10.2018 6.58533 10.1286C6.64405 10.0524 6.71993 9.98879 6.80903 9.9443Z" fill="black"/>
<path d="M7.01988 14.7562C6.9449 14.7654 6.87387 14.7874 6.80903 14.8199C6.71993 14.8644 6.64405 14.928 6.58533 15.0042C6.52881 15.0774 6.48755 15.1629 6.4663 15.2561C6.45461 15.3069 6.44897 15.3595 6.44999 15.413C6.44627 15.9053 6.20872 16.1965 5.85802 16.3975C5.47247 16.6185 4.97993 16.7015 4.64992 16.7015C4.29098 16.7015 4 16.9925 4 17.3515C4 17.7104 4.29098 18.0014 4.64992 18.0014C5.13659 18.0014 5.86906 17.8894 6.50436 17.5253C6.763 17.3771 7.00824 17.184 7.21162 16.9414C7.70784 17.5131 8.46419 18.0014 9.54998 18.0014C10.7207 18.0014 11.5084 17.4337 12 16.806C12.4916 17.4337 13.2793 18.0014 14.45 18.0014C15.6207 18.0014 16.4084 17.4337 16.9001 16.806C17.3917 17.4337 18.1794 18.0014 19.3501 18.0014C19.709 18.0014 20 17.7104 20 17.3515C20 16.9925 19.709 16.7015 19.3501 16.7015C18.2239 16.7015 17.6685 15.7742 17.5332 15.254C17.5264 15.2246 17.5175 15.1957 17.5067 15.1678C17.4412 14.9982 17.3058 14.8584 17.1266 14.792C17.0551 14.7653 16.9785 14.7511 16.9001 14.7511C16.8216 14.7511 16.745 14.7653 16.6735 14.792C16.5822 14.8258 16.5023 14.8787 16.4372 14.9448C16.3757 15.0071 16.3262 15.0824 16.2934 15.1679C16.2826 15.1958 16.2737 15.2246 16.2669 15.2539C16.1317 15.7742 15.5762 16.7015 14.45 16.7015C13.3238 16.7015 12.7684 15.7742 12.6332 15.254C12.6262 15.2242 12.6172 15.1949 12.6062 15.1666C12.5734 15.0817 12.5241 15.0068 12.4629 14.9449C12.3978 14.8787 12.3179 14.8258 12.2265 14.792C12.1551 14.7653 12.0785 14.7511 12 14.7511C11.9215 14.7511 11.8449 14.7653 11.7735 14.792C11.6822 14.8258 11.6022 14.8787 11.5371 14.9449C11.4757 15.0071 11.4262 15.0823 11.3934 15.1677C11.3826 15.1957 11.3737 15.2245 11.3668 15.254C11.2316 15.7742 10.6762 16.7015 9.54998 16.7015C8.42383 16.7015 7.86841 15.7743 7.73314 15.254C7.7211 15.202 7.70282 15.1524 7.67913 15.106C7.6359 15.021 7.57518 14.9482 7.50271 14.8911C7.4274 14.8316 7.33859 14.7883 7.24162 14.7668C7.17029 14.7508 7.09545 14.7467 7.01988 14.7562Z" fill="black"/>
</svg>
