<svg width="28" height="28" viewBox="0 0 28 28" fill="none" xmlns="http://www.w3.org/2000/svg">
<path d="M17.25 5C18.5387 5 19.5833 6.04467 19.5833 7.33333V21.3333C19.5833 22.622 18.5387 23.6667 17.25 23.6667H11.4167C10.128 23.6667 9.08333 22.622 9.08333 21.3333V7.33333C9.08333 6.04467 10.128 5 11.4167 5H17.25Z" fill="black"/>
<path d="M5 9.66667C5 8.378 6.04467 7.33333 7.33333 7.33333H8.20833V21.3333H7.33333C6.04467 21.3333 5 20.2887 5 19V9.66667Z" fill="black"/>
<path d="M21.3333 21.3333C22.622 21.3333 23.6667 20.2887 23.6667 19V9.66667C23.6667 8.378 22.622 7.33333 21.3333 7.33333H20.4583V21.3333H21.3333Z" fill="black"/>
</svg>
