<svg width="32" height="32" viewBox="0 0 32 32" fill="none" xmlns="http://www.w3.org/2000/svg">
<path d="M23.9167 9.73333H7.91667C7.4012 9.73333 6.98333 10.1512 6.98333 10.6667V20C6.98333 20.5155 7.4012 20.9333 7.91667 20.9333H19.9167V22.6667H7.91667C6.44391 22.6667 5.25 21.4728 5.25 20V10.6667C5.25 9.19391 6.44391 8 7.91667 8H23.9167C25.3894 8 26.5833 9.19391 26.5833 10.6667V14.9498C26.1766 14.7679 25.7252 14.6667 25.25 14.6667C25.1146 14.6667 24.9811 14.6749 24.85 14.6909V10.6667C24.85 10.1512 24.4321 9.73333 23.9167 9.73333Z" fill="black"/>
<path d="M22.0056 18.7628V18.2418C21.8569 17.9781 21.5743 17.8 21.25 17.8H10.5833C10.1047 17.8 9.71667 18.188 9.71667 18.6667C9.71667 19.1453 10.1047 19.5333 10.5833 19.5333H20.2245C20.5445 19.0682 21.0835 18.7628 21.6944 18.7628H22.0056Z" fill="black"/>
<path d="M10.9833 12.6C10.9833 13.0787 10.5953 13.4667 10.1167 13.4667C9.63802 13.4667 9.25 13.0787 9.25 12.6C9.25 12.1214 9.63802 11.7333 10.1167 11.7333C10.5953 11.7333 10.9833 12.1214 10.9833 12.6Z" fill="black"/>
<path d="M13.9834 13.4667C14.462 13.4667 14.85 13.0787 14.85 12.6C14.85 12.1214 14.462 11.7333 13.9834 11.7333C13.5047 11.7333 13.1167 12.1214 13.1167 12.6C13.1167 13.0787 13.5047 13.4667 13.9834 13.4667Z" fill="black"/>
<path d="M18.7167 12.6C18.7167 13.0787 18.3287 13.4667 17.8501 13.4667C17.3714 13.4667 16.9834 13.0787 16.9834 12.6C16.9834 12.1214 17.3714 11.7333 17.8501 11.7333C18.3287 11.7333 18.7167 12.1214 18.7167 12.6Z" fill="black"/>
<path d="M21.7168 13.4667C22.1954 13.4667 22.5834 13.0787 22.5834 12.6C22.5834 12.1214 22.1954 11.7333 21.7168 11.7333C21.2381 11.7333 20.8501 12.1214 20.8501 12.6C20.8501 13.0787 21.2381 13.4667 21.7168 13.4667Z" fill="black"/>
<path d="M13.3167 15.6C13.3167 16.0787 12.9286 16.4667 12.45 16.4667C11.9714 16.4667 11.5833 16.0787 11.5833 15.6C11.5833 15.1214 11.9714 14.7333 12.45 14.7333C12.9286 14.7333 13.3167 15.1214 13.3167 15.6Z" fill="black"/>
<path d="M15.9166 16.4667C16.3953 16.4667 16.7833 16.0787 16.7833 15.6C16.7833 15.1214 16.3953 14.7333 15.9166 14.7333C15.438 14.7333 15.05 15.1214 15.05 15.6C15.05 16.0787 15.438 16.4667 15.9166 16.4667Z" fill="black"/>
<path d="M20.2499 15.6C20.2499 16.0787 19.8619 16.4667 19.3833 16.4667C18.9046 16.4667 18.5166 16.0787 18.5166 15.6C18.5166 15.1214 18.9046 14.7333 19.3833 14.7333C19.8619 14.7333 20.2499 15.1214 20.2499 15.6Z" fill="black"/>
<path fill-rule="evenodd" clip-rule="evenodd" d="M22.8167 18.6306V19.3514H22.5833C21.847 19.3514 21.25 19.9967 21.25 20.7928V26.5586C21.25 27.3546 21.847 28 22.5833 28H27.9167C28.653 28 29.25 27.3546 29.25 26.5586V20.7928C29.25 19.9967 28.653 19.3514 27.9167 19.3514H27.6833V18.6306C27.6833 17.1778 26.5939 16 25.25 16C23.9061 16 22.8167 17.1778 22.8167 18.6306ZM25.25 16.9369C24.3848 16.9369 23.6833 17.6952 23.6833 18.6306V19.3514H26.8167V18.6306C26.8167 17.6952 26.1152 16.9369 25.25 16.9369ZM25.25 24.3964C25.6182 24.3964 25.9167 24.0737 25.9167 23.6757C25.9167 23.2776 25.6182 22.955 25.25 22.955C24.8818 22.955 24.5833 23.2776 24.5833 23.6757C24.5833 24.0737 24.8818 24.3964 25.25 24.3964Z" fill="black"/>
</svg>
