<svg width="28" height="28" viewBox="0 0 28 28" fill="none" xmlns="http://www.w3.org/2000/svg">
<path d="M4.29452 4.2221C3.99838 3.92596 3.51824 3.92597 3.2221 4.22211C2.92596 4.51825 2.92597 4.99838 3.22211 5.29452L22.7055 24.7779C23.0016 25.074 23.4818 25.074 23.7779 24.7779C24.074 24.4817 24.074 24.0016 23.7779 23.7055L4.29452 4.2221Z" fill="black"/>
<path d="M4.16664 10.4165C4.16664 9.62321 4.56253 8.92238 5.16753 8.50081L6.29302 9.62629C5.94218 9.7179 5.68327 10.037 5.68327 10.4165V18.583C5.68327 19.034 6.04889 19.3996 6.49991 19.3996H16.0663L17.583 20.9162H6.49991C5.21128 20.9162 4.16664 19.8716 4.16664 18.583V10.4165Z" fill="black"/>
<path d="M9.4165 8.08323L10.9331 9.59986H20.4996C20.9506 9.59986 21.3162 9.96548 21.3162 10.4165V18.583C21.3162 18.9625 21.0573 19.2816 20.7064 19.3732L21.8319 20.4987C22.4369 20.0771 22.8328 19.3763 22.8328 18.583V10.4165C22.8328 9.12787 21.7882 8.08323 20.4996 8.08323H9.4165Z" fill="black"/>
<path d="M15.8167 14.4834L16.7826 15.4493C17.0787 15.3461 17.2912 15.0644 17.2912 14.7331C17.2912 14.3143 16.9517 13.9748 16.5329 13.9748C16.2016 13.9748 15.9199 14.1873 15.8167 14.4834Z" fill="black"/>
<path d="M11.1975 14.5308L10.6688 14.002C10.6044 13.9843 10.5365 13.9748 10.4665 13.9748C10.0477 13.9748 9.70816 14.3143 9.70816 14.7331C9.70816 15.1519 10.0477 15.4914 10.4665 15.4914C10.8853 15.4914 11.2248 15.1519 11.2248 14.7331C11.2248 14.663 11.2153 14.5952 11.1975 14.5308Z" fill="black"/>
<path d="M9.10684 12.4401L8.09288 11.4262C7.84046 11.5493 7.66655 11.8084 7.66655 12.1081C7.66655 12.5269 8.00606 12.8664 8.42486 12.8664C8.72461 12.8664 8.98373 12.6925 9.10684 12.4401Z" fill="black"/>
<path d="M14.8414 18.1746L13.3247 16.658H8.83319C8.41438 16.658 8.07487 16.9975 8.07487 17.4163C8.07487 17.8351 8.41438 18.1746 8.83319 18.1746H14.8414Z" fill="black"/>
<path d="M17.9913 16.658L18.908 17.5747C18.9189 17.5237 18.9246 17.4707 18.9246 17.4163C18.9246 16.9975 18.5851 16.658 18.1663 16.658H17.9913Z" fill="black"/>
<path d="M15.9497 12.1081C15.9497 12.5269 15.6102 12.8664 15.1914 12.8664C14.7726 12.8664 14.4331 12.5269 14.4331 12.1081C14.4331 11.6893 14.7726 11.3498 15.1914 11.3498C15.6102 11.3498 15.9497 11.6893 15.9497 12.1081Z" fill="black"/>
<path d="M19.333 12.1081C19.333 12.5269 18.9935 12.8664 18.5747 12.8664C18.1559 12.8664 17.8164 12.5269 17.8164 12.1081C17.8164 11.6893 18.1559 11.3498 18.5747 11.3498C18.9935 11.3498 19.333 11.6893 19.333 12.1081Z" fill="black"/>
</svg>
