<svg width="48" height="48" viewBox="0 0 48 48" fill="none" xmlns="http://www.w3.org/2000/svg">
<path d="M24.6461 23.4337C24.8946 23.6756 25.2945 24.0201 25.7443 24.3185L24.6461 23.4337Z" fill="black"/>
<path fill-rule="evenodd" clip-rule="evenodd" d="M24.6461 23.4337C21.1011 19.9834 21.0161 14.4186 24.5236 11.0048C28.031 7.59104 33.7485 7.67376 37.2935 11.1241C40.6982 14.4379 40.9112 19.6993 37.816 23.1371L37.7955 23.1598L36.4337 24.5021L37.379 25.4222C37.8741 25.904 37.906 26.7076 37.383 27.2167L36.1121 28.4536L36.6808 29.0071C37.1758 29.4889 37.2078 30.2925 36.6848 30.8016L35.4139 32.0385L36.1691 32.7735C36.9733 33.5563 37.0106 34.8424 36.1851 35.6458L32.3148 39.4128C31.4893 40.2163 30.1679 40.1799 29.3637 39.3972L26.7481 36.8514C26.3597 36.4734 26.1349 35.9611 26.1289 35.423L26.007 24.4801C25.9146 24.4268 25.8251 24.3721 25.7443 24.3185L24.6461 23.4337ZM32.0029 12.7231C32.6411 13.3443 32.6411 14.3514 32.0029 14.9725C31.3646 15.5937 30.3299 15.5937 29.6917 14.9725C29.0535 14.3514 29.0535 13.3443 29.6917 12.7231C30.3299 12.1019 31.3646 12.1019 32.0029 12.7231Z" fill="black"/>
<path d="M24.5908 25.7361C21.8038 23.8155 19.9844 20.6524 19.9844 17.0758C19.9844 13.2278 22.0903 9.85845 25.2416 8.00007C25.2293 8.00002 25.2171 8 25.2048 8C20.2445 8 16.2618 11.9934 16.2618 16.8728L16.3955 18.2543C16.4137 18.3478 16.4372 18.4481 16.4639 18.5494L8.59993 26.3711C8.21329 26.7557 8 27.2727 8 27.8072V31.4075C8 32.5145 8.90799 33.4496 10.0754 33.4496H15.5489C16.7163 33.4496 17.6243 32.5145 17.6243 31.4075V30.368H19.4216C20.1613 30.368 20.7225 29.7778 20.7225 29.0964V28.3137H22.5197C23.2594 28.3137 23.8206 27.7234 23.8206 27.042V25.7409L24.5908 25.7361Z" fill="black"/>
</svg>
