<svg width="32" height="32" viewBox="0 0 32 32" fill="none" xmlns="http://www.w3.org/2000/svg">
<path fill-rule="evenodd" clip-rule="evenodd" d="M9 11.6834C9 7.99227 11.9809 5 15.658 5C19.3247 5 22.2991 7.97531 22.316 11.652C22.4295 14.254 22.0123 17.8585 20.292 20.8698C18.6749 23.7003 15.9313 25.9432 11.6619 26.3284C10.9294 26.3945 10.3316 25.7885 10.3316 25.0503C10.3316 24.312 10.9306 23.7237 11.6615 23.6417C14.8678 23.282 16.7981 21.6117 17.9817 19.5398C18.3433 18.9068 18.637 18.2314 18.8717 17.5381C17.9189 18.0663 16.8234 18.3668 15.658 18.3668C11.9809 18.3668 9 15.3746 9 11.6834Z" fill="black"/>
</svg>
