<svg width="20" height="20" viewBox="0 0 20 20" fill="none" xmlns="http://www.w3.org/2000/svg">
<path fill-rule="evenodd" clip-rule="evenodd" d="M5 8.10431C5 8.72121 5.33517 9.25983 5.83333 9.54801V10.3896C5.83333 11.1204 6.30376 11.7414 6.95833 11.9662V14.9569C6.95833 15.8981 7.88273 16.5611 8.77426 16.2593L12.1076 15.1308C12.6659 14.9417 13.0417 14.4178 13.0417 13.8284V11.9662C13.6962 11.7414 14.1667 11.1204 14.1667 10.3896V9.54801C14.6648 9.25983 15 8.72121 15 8.10431V4.66667C15 3.74619 14.2538 3 13.3333 3H6.66667C5.74619 3 5 3.74619 5 4.66667V8.10431ZM13.9167 8.10431V4.66667C13.9167 4.3445 13.6555 4.08333 13.3333 4.08333H6.66667C6.3445 4.08333 6.08333 4.3445 6.08333 4.66667V8.10431C6.08333 8.37821 6.27211 8.60803 6.52666 8.67073H13.4733C13.7279 8.60803 13.9167 8.37821 13.9167 8.10431ZM11.9583 12.0562H8.04167V14.9569C8.04167 15.1565 8.23775 15.2972 8.42686 15.2331L11.7602 14.1046C11.8786 14.0645 11.9583 13.9534 11.9583 13.8284V12.0562ZM6.91667 10.3896V9.77098H13.0833V10.3896C13.0833 10.7117 12.8222 10.9729 12.5 10.9729H7.5C7.17783 10.9729 6.91667 10.7117 6.91667 10.3896Z" fill="black"/>
</svg>
