<svg width="20" height="20" viewBox="0 0 20 20" fill="none" xmlns="http://www.w3.org/2000/svg">
<path fill-rule="evenodd" clip-rule="evenodd" d="M7.66667 3.83333C7.66667 3.3731 8.03976 3 8.5 3H11.8333C12.2936 3 12.6667 3.3731 12.6667 3.83333V6.33333C13.5871 6.33333 14.3333 7.07953 14.3333 8V12.1667C14.3333 13.0871 13.5871 13.8333 12.6667 13.8333H11.8333V15.9167C11.8333 16.1468 11.6468 16.3333 11.4167 16.3333C11.1865 16.3333 11 16.1468 11 15.9167V13.8333H9.33333V15.9167C9.33333 16.1468 9.14679 16.3333 8.91667 16.3333C8.68655 16.3333 8.5 16.1468 8.5 15.9167V13.8333H7.66667C6.74619 13.8333 6 13.0871 6 12.1667V8C6 7.07953 6.74619 6.33333 7.66667 6.33333V3.83333ZM8.75 6.325V4.08333H11.5833V6.325H8.75ZM12.6667 7.41667H7.66667C7.3445 7.41667 7.08333 7.67783 7.08333 8V12.1667C7.08333 12.4888 7.3445 12.75 7.66667 12.75H12.6667C12.9888 12.75 13.25 12.4888 13.25 12.1667V8C13.25 7.67783 12.9888 7.41667 12.6667 7.41667Z" fill="black"/>
</svg>
