<svg width="16" height="16" viewBox="0 0 16 16" fill="none" xmlns="http://www.w3.org/2000/svg">
<path d="M6.6894 11.4717C6.45014 11.4717 6.25618 11.6656 6.25618 11.9049C6.25618 12.1441 6.45014 12.3381 6.6894 12.3381H8.6431C8.88236 12.3381 9.07632 12.1441 9.07632 11.9049C9.07632 11.6656 8.88236 11.4717 8.6431 11.4717H6.6894Z" fill="black"/>
<path fill-rule="evenodd" clip-rule="evenodd" d="M11.0197 9.66462H11.2404C11.6637 9.66462 12.0069 9.32146 12.0069 8.89816V6.70896L10.7576 3.48921C10.6432 3.19431 10.3593 3 10.043 3H5.28943C4.97312 3 4.6893 3.19431 4.57488 3.48921L3.3256 6.70896V8.89816C3.3256 9.32146 3.66875 9.66462 4.09206 9.66462H4.31276L4.15567 10.1431H3.76646C3.34316 10.1431 3 10.4863 3 10.9096V12.9002C3 13.3235 3.34316 13.6667 3.76646 13.6667H11.566C11.9893 13.6667 12.3325 13.3235 12.3325 12.9002V10.9096C12.3325 10.4863 11.9893 10.1431 11.566 10.1431H11.1767L11.0197 9.66462ZM5.35788 3.86643L4.39159 6.35684H10.9409L9.97458 3.86643H5.35788ZM10.2181 7.22328L10.7352 8.79818H11.1404V7.22328H10.2181ZM4.19203 7.22328H5.11428L4.59722 8.79818H4.19203V7.22328ZM3.86643 11.0095V12.8002H11.4661V11.0095H3.86643ZM6.02622 7.22328H9.3062L9.82326 8.79818L10.1077 9.66462L10.2648 10.1431H5.0676L5.2247 9.66462L5.50916 8.79818L6.02622 7.22328Z" fill="black"/>
</svg>
