<svg width="32" height="32" viewBox="0 0 32 32" fill="none" xmlns="http://www.w3.org/2000/svg">
<path fill-rule="evenodd" clip-rule="evenodd" d="M15.2326 7.19609C15.6985 6.93464 16.267 6.93463 16.733 7.19609L25.5471 12.1418C26.5602 12.7103 26.5976 14.1551 25.6153 14.7752L22.919 16.4772V21.7464C22.919 22.0557 22.8257 22.3905 22.5986 22.6724C21.6831 23.8089 19.3599 25.6643 15.9828 25.6643C12.6057 25.6643 10.2824 23.8089 9.36688 22.6724C9.1398 22.3905 9.0465 22.0557 9.0465 21.7464V16.4772L6.73304 15.0168V19.831C6.73304 20.3096 6.34508 20.6975 5.86652 20.6975C5.38795 20.6975 5 20.3096 5 19.831V12.9377L15.2326 7.19609ZM8.04719 13.2151C7.82695 13.3387 7.81882 13.6528 8.03237 13.7876L15.8049 18.694C15.9135 18.7626 16.052 18.7626 16.1607 18.694L23.9331 13.7876C24.1467 13.6528 24.1386 13.3387 23.9183 13.2151L16.1458 8.85388C16.0446 8.79704 15.921 8.79704 15.8197 8.85388L8.04719 13.2151ZM10.7795 17.5712V21.6613C11.4995 22.5072 13.333 23.9313 15.9828 23.9313C18.6325 23.9313 20.466 22.5073 21.186 21.6613V17.5712L16.8011 20.3391C16.3012 20.6547 15.6643 20.6547 15.1644 20.3391L10.7795 17.5712Z" fill="black"/>
</svg>
