<svg width="24" height="24" viewBox="0 0 24 24" fill="none" xmlns="http://www.w3.org/2000/svg">
<path fill-rule="evenodd" clip-rule="evenodd" d="M4 6C4 4.89543 4.89543 4 6 4H18C19.1046 4 20 4.89543 20 6V18C20 19.1046 19.1046 20 18 20H6C4.89543 20 4 19.1046 4 18V6ZM7.1 8.25C7.1 7.89102 7.39102 7.6 7.75 7.6H16.25C16.609 7.6 16.9 7.89102 16.9 8.25C16.9 8.60898 16.609 8.9 16.25 8.9H7.75C7.39102 8.9 7.1 8.60898 7.1 8.25ZM9 11.1C8.64102 11.1 8.35 11.391 8.35 11.75C8.35 12.109 8.64102 12.4 9 12.4H15C15.359 12.4 15.65 12.109 15.65 11.75C15.65 11.391 15.359 11.1 15 11.1H9Z" fill="black"/>
</svg>
