<svg width="20" height="20" viewBox="0 0 20 20" fill="none" xmlns="http://www.w3.org/2000/svg">
<path fill-rule="evenodd" clip-rule="evenodd" d="M9.39475 4.12255C9.68595 3.95915 10.0412 3.95915 10.3324 4.12255L15.8407 7.21334C16.4739 7.56859 16.4972 8.47151 15.8833 8.85904L14.1983 9.92269V13.2156C14.1983 13.409 14.14 13.6182 13.9981 13.7943C13.426 14.5046 11.9741 15.6641 9.86358 15.6641C7.7531 15.6641 6.3012 14.5046 5.72905 13.7943C5.58713 13.6182 5.52882 13.409 5.52882 13.2156V9.92269L4.08305 9.01004V12.0186C4.08305 12.3177 3.8406 12.5601 3.54152 12.5601C3.24245 12.5601 3 12.3177 3 12.0186V7.71072L9.39475 4.12255ZM4.90431 7.88408C4.76668 7.96131 4.7616 8.1576 4.89506 8.24184L9.75241 11.3081C9.82032 11.3509 9.90684 11.3509 9.97476 11.3081L14.8321 8.24184C14.9656 8.1576 14.9605 7.96131 14.8229 7.88408L9.9655 5.15856C9.9022 5.12304 9.82497 5.12304 9.76166 5.15856L4.90431 7.88408ZM6.61187 10.6064V13.1625C7.06179 13.6911 8.20766 14.5811 9.86358 14.5811C11.5195 14.5811 12.6654 13.6911 13.1153 13.1625V10.6064L10.375 12.3362C10.0626 12.5334 9.66459 12.5334 9.35216 12.3362L6.61187 10.6064Z" fill="black"/>
</svg>
