<svg width="16" height="16" viewBox="0 0 16 16" fill="none" xmlns="http://www.w3.org/2000/svg">
<path d="M5.33333 3C4.59695 3 4 3.59695 4 4.33333V7.5C4 7.59205 4.07462 7.66667 4.16667 7.66667H11.8333C11.9254 7.66667 12 7.59205 12 7.5V4.33333C12 3.59695 11.403 3 10.6667 3H10.3667C10.2746 3 10.2 3.07462 10.2 3.16667V5.23333C10.2 5.47266 10.006 5.66667 9.76667 5.66667C9.52734 5.66667 9.33333 5.47266 9.33333 5.23333V3.16667C9.33333 3.07462 9.25871 3 9.16667 3H9.03333C8.94129 3 8.86667 3.07462 8.86667 3.16667V4.56667C8.86667 4.80599 8.67266 5 8.43333 5C8.19401 5 8 4.80599 8 4.56667V3.16667C8 3.07462 7.92538 3 7.83333 3H5.33333Z" fill="black"/>
<path d="M11.8333 8.53334C11.9254 8.53334 12 8.60795 12 8.7V9.66667C12 10.403 11.403 11 10.6667 11H9.5C9.40795 11 9.33333 11.0746 9.33333 11.1667V12.3333C9.33333 13.0697 8.73638 13.6667 8 13.6667C7.26362 13.6667 6.66667 13.0697 6.66667 12.3333V11.1667C6.66667 11.0746 6.59205 11 6.5 11H5.33333C4.59695 11 4 10.403 4 9.66667V8.7C4 8.60795 4.07462 8.53334 4.16667 8.53334H11.8333Z" fill="black"/>
</svg>
