<svg width="48" height="48" viewBox="0 0 48 48" fill="none" xmlns="http://www.w3.org/2000/svg">
<path d="M18.588 17.6256C18.7043 16.9171 19.3729 16.4371 20.0814 16.5534C22.6348 16.9726 25.4023 17.1403 28.1349 16.8379C28.8485 16.7589 29.491 17.2734 29.57 17.987C29.649 18.7007 29.1345 19.3432 28.4209 19.4221C25.4019 19.7562 22.3908 19.5674 19.6602 19.1191C18.9517 19.0027 18.4717 18.3341 18.588 17.6256Z" fill="black"/>
<path d="M27.9186 31.4466C28.6271 31.5629 29.2957 31.0829 29.412 30.3744C29.5283 29.6659 29.0483 28.9973 28.3398 28.8809C25.6092 28.4326 22.5981 28.2438 19.5791 28.5779C18.8655 28.6568 18.351 29.2993 18.43 30.013C18.509 30.7266 19.1515 31.241 19.8651 31.1621C22.5977 30.8597 25.3652 31.0274 27.9186 31.4466Z" fill="black"/>
<path fill-rule="evenodd" clip-rule="evenodd" d="M24 40C32.8366 40 40 32.8366 40 24C40 15.1634 32.8366 8 24 8C15.1634 8 8 15.1634 8 24C8 32.8366 15.1634 40 24 40ZM35.5547 30.7902C36.7273 28.799 37.4 26.4781 37.4 24C37.4 21.6078 36.7731 19.362 35.6747 17.4179C35.0067 17.7374 34.327 18.0162 33.6395 18.2577C32.9621 18.4957 32.2201 18.1394 31.9821 17.462C31.7442 16.7846 32.1004 16.0426 32.7778 15.8047C33.2431 15.6412 33.7025 15.4589 34.1547 15.2566C31.6974 12.4052 28.0595 10.6 24 10.6C20.0515 10.6 16.5018 12.3078 14.0495 15.0251C14.453 15.1657 14.878 15.3049 15.3221 15.4405C16.0088 15.6502 16.3954 16.3769 16.1858 17.0635C15.9761 17.7502 15.2494 18.1369 14.5628 17.9272C13.8077 17.6966 13.0986 17.4546 12.4453 17.2098C11.2727 19.201 10.6 21.5219 10.6 24C10.6 26.3922 11.2269 28.638 12.3253 30.5821C12.9933 30.2626 13.673 29.9838 14.3605 29.7423C15.0379 29.5043 15.7799 29.8606 16.0179 30.538C16.2558 31.2154 15.8996 31.9574 15.2222 32.1953C14.7569 32.3588 14.2975 32.5411 13.8452 32.7434C16.3026 35.5948 19.9405 37.4 24 37.4C27.9485 37.4 31.4982 35.6922 33.9505 32.9749C33.547 32.8343 33.122 32.6951 32.6779 32.5595C31.9912 32.3498 31.6046 31.6231 31.8142 30.9365C32.0239 30.2498 32.7506 29.8631 33.4372 30.0728C34.1923 30.3034 34.9014 30.5454 35.5547 30.7902Z" fill="black"/>
</svg>
