<svg width="20" height="20" viewBox="0 0 20 20" fill="none" xmlns="http://www.w3.org/2000/svg">
<path d="M7.41166 7.01067C7.46013 6.71547 7.73873 6.51545 8.03393 6.56392C9.09784 6.73859 10.2509 6.80847 11.3895 6.68247C11.6869 6.64956 11.9546 6.86393 11.9875 7.16127C12.0204 7.45861 11.806 7.72632 11.5087 7.75923C10.2508 7.89843 8.99616 7.81973 7.85842 7.63294C7.56321 7.58447 7.3632 7.30587 7.41166 7.01067Z" fill="black"/>
<path d="M11.2994 12.7694C11.5946 12.8179 11.8732 12.6179 11.9217 12.3227C11.9701 12.0275 11.7701 11.7489 11.4749 11.7004C10.3372 11.5136 9.08255 11.4349 7.82463 11.5741C7.52729 11.607 7.31293 11.8747 7.34583 12.1721C7.37874 12.4694 7.64645 12.6838 7.94379 12.6509C9.08239 12.5249 10.2355 12.5947 11.2994 12.7694Z" fill="black"/>
<path fill-rule="evenodd" clip-rule="evenodd" d="M9.66667 16.3333C13.3486 16.3333 16.3333 13.3486 16.3333 9.66667C16.3333 5.98477 13.3486 3 9.66667 3C5.98477 3 3 5.98477 3 9.66667C3 13.3486 5.98477 16.3333 9.66667 16.3333ZM14.4811 12.4959C14.9697 11.6663 15.25 10.6992 15.25 9.66667C15.25 8.66991 14.9888 7.73416 14.5311 6.92412C14.2528 7.05725 13.9696 7.17342 13.6831 7.27405C13.4009 7.37319 13.0917 7.22476 12.9925 6.94251C12.8934 6.66027 13.0418 6.35109 13.3241 6.25194C13.518 6.18384 13.7094 6.10788 13.8978 6.02358C12.8739 4.83549 11.3581 4.08333 9.66667 4.08333C8.02145 4.08333 6.54244 4.79492 5.52061 5.92711C5.68875 5.98569 5.86583 6.04372 6.05088 6.10023C6.33699 6.1876 6.4981 6.49036 6.41073 6.77647C6.32336 7.06259 6.02059 7.2237 5.73448 7.13632C5.41989 7.04026 5.12443 6.9394 4.85223 6.8374C4.36361 7.66708 4.08333 8.63414 4.08333 9.66667C4.08333 10.6634 4.34453 11.5992 4.8022 12.4092C5.08053 12.2761 5.36373 12.1599 5.65022 12.0593C5.93246 11.9601 6.24164 12.1086 6.34079 12.3908C6.43993 12.6731 6.2915 12.9822 6.00925 13.0814C5.81536 13.1495 5.62395 13.2255 5.43552 13.3098C6.45941 14.4978 7.9752 15.25 9.66667 15.25C11.3119 15.25 12.7909 14.5384 13.8127 13.4062C13.6446 13.3476 13.4675 13.2896 13.2825 13.2331C12.9963 13.1457 12.8352 12.843 12.9226 12.5569C13.01 12.2707 13.3127 12.1096 13.5989 12.197C13.9134 12.2931 14.2089 12.3939 14.4811 12.4959Z" fill="black"/>
</svg>
