<svg width="16" height="16" viewBox="0 0 16 16" fill="none" xmlns="http://www.w3.org/2000/svg">
<path d="M8.33326 6.95325C6.71624 6.95325 5.72482 8.17254 5.44176 8.7666C5.3367 8.98709 5.0812 9.07646 4.87109 8.96621C4.66097 8.85597 4.57581 8.58786 4.68086 8.36737C5.0522 7.58804 6.2857 6.06055 8.33326 6.06055C10.3808 6.06055 11.6143 7.58804 11.9857 8.36737C12.0907 8.58786 12.0056 8.85597 11.7954 8.96621C11.5853 9.07646 11.3298 8.98709 11.2248 8.7666C10.9417 8.17254 9.95029 6.95325 8.33326 6.95325Z" fill="black"/>
<path d="M6.75054 10.14C6.83494 9.96286 7.02762 9.67052 7.31049 9.42721C7.58982 9.18694 7.93391 9.01334 8.33326 9.01334C8.73261 9.01334 9.0767 9.18694 9.35604 9.42721C9.63891 9.67052 9.83159 9.96286 9.91599 10.14C10.021 10.3605 10.2765 10.4498 10.4867 10.3396C10.6968 10.2294 10.7819 9.96125 10.6769 9.74076C10.5432 9.4601 10.2778 9.06574 9.89533 8.7368C9.50937 8.40482 8.98094 8.12063 8.33326 8.12063C7.68559 8.12063 7.15716 8.40482 6.7712 8.7368C6.38877 9.06574 6.12337 9.4601 5.98964 9.74076C5.88459 9.96125 5.96975 10.2294 6.17987 10.3396C6.38998 10.4498 6.64548 10.3605 6.75054 10.14Z" fill="black"/>
<path d="M8.33326 12.0005C8.78503 12.0005 9.15125 11.6162 9.15125 11.1421C9.15125 10.668 8.78503 10.2837 8.33326 10.2837C7.8815 10.2837 7.51528 10.668 7.51528 11.1421C7.51528 11.6162 7.8815 12.0005 8.33326 12.0005Z" fill="black"/>
</svg>
