<svg width="32" height="32" viewBox="0 0 32 32" fill="none" xmlns="http://www.w3.org/2000/svg">
<path fill-rule="evenodd" clip-rule="evenodd" d="M10.0966 9.86644C10.0966 9.38792 10.4845 9 10.963 9H17.3337C17.8122 9 18.2001 9.38792 18.2001 9.86644C18.2001 10.345 17.8122 10.7329 17.3337 10.7329H16.2889V11.3199H17.6298C18.098 11.3199 18.5655 11.5321 18.8589 11.9327L19.6843 13.0598H20.2005C20.7766 13.0598 21.3855 13.5028 21.3855 14.2163V14.7998H21.5638V14.2163C21.5638 13.5028 22.1727 13.0598 22.7488 13.0598H24.1883C24.5133 13.0598 24.8639 13.1932 25.1052 13.4874C26.2243 14.8512 26.4362 16.5295 26.2943 17.9961C26.1524 19.4634 25.6492 20.8251 25.1972 21.7019C24.9779 22.1273 24.5449 22.3324 24.1446 22.3324H22.7488C22.1727 22.3324 21.5638 21.8894 21.5638 21.176V20.5925H21.3855V21.176C21.3855 21.8894 20.7766 22.3324 20.2005 22.3324H13.7751C13.4013 22.3324 13.0282 22.198 12.7414 21.9368L10.6277 20.0125H8.74796C8.08539 20.0125 7.54828 19.4754 7.54828 18.8128V16.5326H6.73287V18.5661C6.73287 19.0446 6.34496 19.4325 5.86644 19.4325C5.38792 19.4325 5 19.0446 5 18.5661V12.7663C5 12.2878 5.38792 11.8999 5.86644 11.8999C6.34496 11.8999 6.73287 12.2878 6.73287 12.7663V14.7998H7.54828V14.5063C7.54828 13.7241 7.93045 13.1729 8.41753 12.8537C8.71522 12.6585 9.03805 12.5564 9.31965 12.5107L10.1931 11.7155C10.48 11.4544 10.853 11.3199 11.2269 11.3199H12.6448V10.7329H10.963C10.4845 10.7329 10.0966 10.345 10.0966 9.86644ZM14.3777 10.7329V11.3199H14.556V10.7329H14.3777Z" fill="black"/>
</svg>
