<svg width="48" height="48" viewBox="0 0 48 48" fill="none" xmlns="http://www.w3.org/2000/svg">
<path fill-rule="evenodd" clip-rule="evenodd" d="M21.9509 25.7C22.1755 25.1786 22.3 24.6038 22.3 24C22.3 21.6252 20.3748 19.7 18 19.7C15.6252 19.7 13.7 21.6252 13.7 24C13.7 26.3748 15.6252 28.3 18 28.3H30C32.3748 28.3 34.3 26.3748 34.3 24C34.3 21.6252 32.3748 19.7 30 19.7C27.6252 19.7 25.7 21.6252 25.7 24C25.7 24.6038 25.8245 25.1786 26.0491 25.7H21.9509ZM16.3 24C16.3 23.0611 17.0611 22.3 18 22.3C18.9389 22.3 19.7 23.0611 19.7 24C19.7 24.9389 18.9389 25.7 18 25.7C17.0611 25.7 16.3 24.9389 16.3 24ZM30 25.7C30.9389 25.7 31.7 24.9389 31.7 24C31.7 23.0611 30.9389 22.3 30 22.3C29.0611 22.3 28.3 23.0611 28.3 24C28.3 24.9389 29.0611 25.7 30 25.7Z" fill="black"/>
<path fill-rule="evenodd" clip-rule="evenodd" d="M8 16C8 13.7909 9.79086 12 12 12H36C38.2091 12 40 13.7909 40 16V32C40 34.2091 38.2091 36 36 36H12C9.79086 36 8 34.2091 8 32V16ZM12 14.6H36C36.7732 14.6 37.4 15.2268 37.4 16V32C37.4 32.7732 36.7732 33.4 36 33.4H12C11.2268 33.4 10.6 32.7732 10.6 32V16C10.6 15.2268 11.2268 14.6 12 14.6Z" fill="black"/>
</svg>
