<svg width="16" height="16" viewBox="0 0 16 16" fill="none" xmlns="http://www.w3.org/2000/svg">
<path d="M8.66667 9.82282C8.66667 10.1766 8.36819 10.4635 8 10.4635C7.63181 10.4635 7.33333 10.1766 7.33333 9.82282C7.33333 9.46901 7.63181 9.18218 8 9.18218C8.36819 9.18218 8.66667 9.46901 8.66667 9.82282Z" fill="black"/>
<path fill-rule="evenodd" clip-rule="evenodd" d="M8 3C6.80928 3 5.81831 3.82187 5.60789 4.90749C5.56235 5.14244 5.76068 5.33834 6 5.33834C6.23932 5.33834 6.42697 5.14005 6.49726 4.91128C6.68883 4.28782 7.28912 3.83283 8 3.83283C8.86525 3.83283 9.56667 4.50687 9.56667 5.33834V5.97898H5.33333C4.59695 5.97898 4 6.55263 4 7.26026V12.3854C4 13.093 4.59695 13.6667 5.33333 13.6667H10.6667C11.403 13.6667 12 13.093 12 12.3854V7.26026C12 6.55263 11.403 5.97898 10.6667 5.97898H10.4333V5.33834C10.4333 4.04691 9.34389 3 8 3ZM10.6667 6.81181C10.9244 6.81181 11.1333 7.01259 11.1333 7.26026V12.3854C11.1333 12.6331 10.9244 12.8338 10.6667 12.8338H5.33333C5.0756 12.8338 4.86667 12.6331 4.86667 12.3854V7.26026C4.86667 7.01259 5.0756 6.81181 5.33333 6.81181H10.6667Z" fill="black"/>
</svg>
