<svg width="32" height="32" viewBox="0 0 32 32" fill="none" xmlns="http://www.w3.org/2000/svg">
<path d="M26.1335 5C25.6549 5 25.2669 5.38796 25.2669 5.86653L25.2669 25.4668C25.2669 25.9454 25.6549 26.3333 26.1335 26.3333C26.612 26.3333 27 25.9454 27 25.4668L27 5.86653C27 5.38796 26.612 5 26.1335 5Z" fill="black"/>
<path fill-rule="evenodd" clip-rule="evenodd" d="M21.3503 7.26654C22.8229 7.26654 24.0166 8.46026 24.0166 9.93279L24.0166 12.3004C24.0166 13.7729 22.8229 14.9666 21.3503 14.9666L8.33593 14.9666C6.8634 14.9666 5.66968 13.7729 5.66968 12.3004L5.66968 9.93278C5.66968 8.46026 6.8634 7.26654 8.33593 7.26654L21.3503 7.26654Z" fill="black"/>
<path fill-rule="evenodd" clip-rule="evenodd" d="M24.0166 19.0329C24.0166 17.5604 22.8229 16.3667 21.3503 16.3667L12.5698 16.3667C11.0973 16.3667 9.90358 17.5604 9.90358 19.0329L9.90358 21.4005C9.90358 22.8731 11.0973 24.0668 12.5698 24.0668L21.3503 24.0668C22.8229 24.0668 24.0166 22.8731 24.0166 21.4005L24.0166 19.0329Z" fill="black"/>
</svg>
