<svg width="16" height="16" viewBox="0 0 16 16" fill="none" xmlns="http://www.w3.org/2000/svg">
<path d="M3.66688 3C3.29857 3 3 3.29857 3 3.66688V5.83422C3 5.9263 3.07464 6.00094 3.16672 6.00094H4.16703C4.25911 6.00094 4.33375 5.9263 4.33375 5.83422V5.27685L5.86282 6.80593C6.12325 7.06636 6.5455 7.06636 6.80593 6.80593C7.06636 6.5455 7.06636 6.12325 6.80593 5.86282L5.27685 4.33375L5.83422 4.33375C5.9263 4.33375 6.00094 4.25911 6.00094 4.16703V3.16672C6.00094 3.07464 5.9263 3 5.83422 3L3.66688 3Z" fill="black"/>
<path d="M13.0031 13.67C13.3714 13.67 13.67 13.3714 13.67 13.0031V10.8358C13.67 10.7437 13.5954 10.6691 13.5033 10.6691H12.503C12.4109 10.6691 12.3363 10.7437 12.3363 10.8358V11.3931L10.8072 9.86407C10.5467 9.60364 10.1245 9.60364 9.86407 9.86407C9.60364 10.1245 9.60364 10.5467 9.86407 10.8072L11.3931 12.3363H10.8358C10.7437 12.3363 10.6691 12.4109 10.6691 12.503V13.5033C10.6691 13.5954 10.7437 13.67 10.8358 13.67H13.0031Z" fill="black"/>
<path d="M13.0031 3C13.3714 3 13.67 3.29857 13.67 3.66688V5.83422C13.67 5.9263 13.5954 6.00094 13.5033 6.00094H12.503C12.4109 6.00094 12.3363 5.92629 12.3363 5.83422V5.27685L10.8072 6.80593C10.5467 7.06636 10.1245 7.06636 9.86407 6.80593C9.60364 6.5455 9.60364 6.12325 9.86407 5.86282L11.3931 4.33375L10.8358 4.33375C10.7437 4.33375 10.6691 4.25911 10.6691 4.16703V3.16672C10.6691 3.07464 10.7437 3 10.8358 3H13.0031Z" fill="black"/>
<path d="M3 13.0031C3 13.3714 3.29857 13.67 3.66688 13.67H5.83422C5.9263 13.67 6.00094 13.5954 6.00094 13.5033L6.00094 12.503C6.00094 12.4109 5.92629 12.3363 5.83422 12.3363H5.27685L6.80593 10.8072C7.06636 10.5467 7.06636 10.1245 6.80593 9.86407C6.5455 9.60364 6.12325 9.60364 5.86282 9.86407L4.33375 11.3931V10.8358C4.33375 10.7437 4.25911 10.6691 4.16703 10.6691H3.16672C3.07464 10.6691 3 10.7437 3 10.8358L3 13.0031Z" fill="black"/>
</svg>
