<svg width="20" height="20" viewBox="0 0 20 20" fill="none" xmlns="http://www.w3.org/2000/svg">
<path fill-rule="evenodd" clip-rule="evenodd" d="M9.77964 6.86349C9.84232 6.57098 9.65601 6.28304 9.36349 6.22036C9.07098 6.15768 8.78304 6.34399 8.72036 6.63651L8.4144 8.06432H6.75C6.45085 8.06432 6.20833 8.30683 6.20833 8.60598C6.20833 8.90514 6.45085 9.14765 6.75 9.14765H8.18225L7.97877 10.0972H6.75C6.45085 10.0972 6.20833 10.3397 6.20833 10.6389C6.20833 10.938 6.45085 11.1806 6.75 11.1806H7.74663L7.47036 12.4698C7.40768 12.7624 7.59399 13.0503 7.88651 13.113C8.17902 13.1757 8.46696 12.9893 8.52964 12.6968L8.85456 11.1806H9.82997L9.55369 12.4698C9.49101 12.7624 9.67732 13.0503 9.96984 13.113C10.2624 13.1757 10.5503 12.9893 10.613 12.6968L10.9379 11.1806H12.5833C12.8825 11.1806 13.125 10.938 13.125 10.6389C13.125 10.3397 12.8825 10.0972 12.5833 10.0972H11.17L11.3735 9.14765H12.5833C12.8825 9.14765 13.125 8.90514 13.125 8.60598C13.125 8.30683 12.8825 8.06432 12.5833 8.06432H11.6057L11.863 6.86349C11.9257 6.57098 11.7393 6.28304 11.4468 6.22036C11.1543 6.15768 10.8664 6.34399 10.8037 6.63651L10.4977 8.06432H9.52232L9.77964 6.86349ZM10.0621 10.0972H9.0867L9.29018 9.14765H10.2656L10.0621 10.0972Z" fill="black"/>
<path fill-rule="evenodd" clip-rule="evenodd" d="M16.3333 9.66667C16.3333 13.3486 13.3486 16.3333 9.66667 16.3333C5.98477 16.3333 3 13.3486 3 9.66667C3 5.98477 5.98477 3 9.66667 3C13.3486 3 16.3333 5.98477 16.3333 9.66667ZM15.25 9.66667C15.25 12.7503 12.7503 15.25 9.66667 15.25C6.58308 15.25 4.08333 12.7503 4.08333 9.66667C4.08333 6.58308 6.58308 4.08333 9.66667 4.08333C12.7503 4.08333 15.25 6.58308 15.25 9.66667Z" fill="black"/>
</svg>
