<svg width="20" height="20" viewBox="0 0 20 20" fill="none" xmlns="http://www.w3.org/2000/svg">
<path fill-rule="evenodd" clip-rule="evenodd" d="M9.66667 16.3333C13.3486 16.3333 16.3333 13.3486 16.3333 9.66667C16.3333 5.98477 13.3486 3 9.66667 3C5.98477 3 3 5.98477 3 9.66667C3 13.3486 5.98477 16.3333 9.66667 16.3333ZM7.16667 9.66667C7.6269 9.66667 8 9.29357 8 8.83333C8 8.3731 7.6269 8 7.16667 8C6.70643 8 6.33333 8.3731 6.33333 8.83333C6.33333 9.29357 6.70643 9.66667 7.16667 9.66667ZM12.1667 9.66667C12.6269 9.66667 13 9.29357 13 8.83333C13 8.3731 12.6269 8 12.1667 8C11.7064 8 11.3333 8.3731 11.3333 8.83333C11.3333 9.29357 11.7064 9.66667 12.1667 9.66667ZM7.40891 12.6511C8.1531 12.2791 10.1307 11.7543 11.9244 12.6511C12.192 12.7849 12.5174 12.6765 12.6511 12.4089C12.7849 12.1413 12.6765 11.816 12.4089 11.6822C10.2026 10.579 7.8469 11.2209 6.92443 11.6822C6.65685 11.816 6.5484 12.1413 6.68219 12.4089C6.81597 12.6765 7.14134 12.7849 7.40891 12.6511Z" fill="black"/>
</svg>
