<svg width="20" height="20" viewBox="0 0 20 20" fill="none" xmlns="http://www.w3.org/2000/svg">
<path d="M3.00635 6.5913C2.97333 6.45984 3.07322 6.3325 3.20935 6.3325H4.01207C4.37234 6.3325 4.69219 6.56197 4.80612 6.90217L5.34385 8.5079C5.40694 8.69628 5.59484 8.81415 5.79279 8.78952L8.55299 8.44609C8.68205 8.43003 8.76529 8.3019 8.72703 8.17816L7.29298 3.53907C7.21018 3.2712 7.41141 3 7.69298 3H9.01916C9.3866 3 9.71108 3.23854 9.81914 3.58811L11.2618 8.25508C11.2907 8.34863 11.3812 8.40952 11.4792 8.40139L14.6651 8.13712C15.5631 8.06264 16.3333 8.76803 16.3333 9.665C16.3333 10.562 15.5631 11.2674 14.6651 11.1929L11.4792 10.9286C11.3812 10.9205 11.2907 10.9814 11.2618 11.0749L9.81914 15.7419C9.71108 16.0915 9.3866 16.33 9.01916 16.33H7.69298C7.41141 16.33 7.21018 16.0588 7.29298 15.7909L8.72703 11.1518C8.76529 11.0281 8.68205 10.9 8.55299 10.8839L5.79279 10.5405C5.59484 10.5159 5.40694 10.6337 5.34385 10.8221L4.80612 12.4278C4.69219 12.768 4.37234 12.9975 4.01207 12.9975H3.20935C3.07322 12.9975 2.97333 12.8702 3.00635 12.7387L3.7276 9.86706C3.76092 9.7344 3.76092 9.5956 3.7276 9.46294L3.00635 6.5913Z" fill="black"/>
</svg>
