<svg width="48" height="48" viewBox="0 0 48 48" fill="none" xmlns="http://www.w3.org/2000/svg">
<path fill-rule="evenodd" clip-rule="evenodd" d="M16.7 24C16.7 22.1775 18.1775 20.7 20 20.7H28C29.8225 20.7 31.3 22.1775 31.3 24V32C31.3 33.8225 29.8225 35.3 28 35.3H20C18.1775 35.3 16.7 33.8225 16.7 32V24ZM25.3 32.7H28C28.3866 32.7 28.7 32.3866 28.7 32V29.3H25.3V32.7ZM28.7 26.7V24C28.7 23.6134 28.3866 23.3 28 23.3H25.3V26.7H28.7ZM22.7 23.3V32.7H20C19.6134 32.7 19.3 32.3866 19.3 32V24C19.3 23.6134 19.6134 23.3 20 23.3H22.7Z" fill="black"/>
<path fill-rule="evenodd" clip-rule="evenodd" d="M35.4142 17.4142C35.7893 17.7893 36 18.298 36 18.8284V38C36 39.1046 35.1046 40 34 40H14C12.8954 40 12 39.1046 12 38V10C12 8.89543 12.8954 8 14 8H25.1716C25.702 8 26.2107 8.21071 26.5858 8.58579L35.4142 17.4142ZM33.4 19.077L24.923 10.6H14.6V37.4H33.4V19.077Z" fill="black"/>
</svg>
