<svg width="32" height="32" viewBox="0 0 32 32" fill="none" xmlns="http://www.w3.org/2000/svg">
<path fill-rule="evenodd" clip-rule="evenodd" d="M10.3333 11.1333C9.11831 11.1333 8.13333 12.1183 8.13333 13.3333V18.6667C8.13333 19.8817 9.11831 20.8667 10.3333 20.8667H21C22.215 20.8667 23.2 19.8817 23.2 18.6667V13.3333C23.2 12.1183 22.215 11.1333 21 11.1333H10.3333ZM9.86667 13.3333C9.86667 13.0756 10.0756 12.8667 10.3333 12.8667H21C21.2577 12.8667 21.4667 13.0756 21.4667 13.3333V15.1333H9.86667V13.3333ZM13.8667 16.8667H21.4667V18.6667C21.4667 18.9244 21.2577 19.1333 21 19.1333H13.8667V16.8667ZM12.1333 16.8667V19.1333H10.3333C10.0756 19.1333 9.86667 18.9244 9.86667 18.6667V16.8667H12.1333Z" fill="black"/>
<path fill-rule="evenodd" clip-rule="evenodd" d="M5 10.6667C5 9.19391 6.19391 8 7.66667 8H23.6667C25.1394 8 26.3333 9.19391 26.3333 10.6667V21.3333C26.3333 22.8061 25.1394 24 23.6667 24H7.66667C6.19391 24 5 22.8061 5 21.3333V10.6667ZM7.66667 9.73333H23.6667C24.1821 9.73333 24.6 10.1512 24.6 10.6667V21.3333C24.6 21.8488 24.1821 22.2667 23.6667 22.2667H7.66667C7.1512 22.2667 6.73333 21.8488 6.73333 21.3333V10.6667C6.73333 10.1512 7.1512 9.73333 7.66667 9.73333Z" fill="black"/>
</svg>
