<svg width="24" height="24" viewBox="0 0 24 24" fill="none" xmlns="http://www.w3.org/2000/svg">
<path d="M6.75 6.5C6.61193 6.5 6.5 6.61193 6.5 6.75V8.25C6.5 8.38807 6.61193 8.5 6.75 8.5H8.25C8.38807 8.5 8.5 8.38807 8.5 8.25V6.75C8.5 6.61193 8.38807 6.5 8.25 6.5H6.75Z" fill="black"/>
<path fill-rule="evenodd" clip-rule="evenodd" d="M5 4C4.44772 4 4 4.44772 4 5V10C4 10.5523 4.44772 11 5 11H10C10.5523 11 11 10.5523 11 10V5C11 4.44772 10.5523 4 10 4H5ZM6.5 6C6.22386 6 6 6.22386 6 6.5V8.5C6 8.77614 6.22386 9 6.5 9H8.5C8.77614 9 9 8.77614 9 8.5V6.5C9 6.22386 8.77614 6 8.5 6H6.5Z" fill="black"/>
<path d="M15.5 6.75C15.5 6.61193 15.6119 6.5 15.75 6.5H17.25C17.3881 6.5 17.5 6.61193 17.5 6.75V8.25C17.5 8.38807 17.3881 8.5 17.25 8.5H15.75C15.6119 8.5 15.5 8.38807 15.5 8.25V6.75Z" fill="black"/>
<path fill-rule="evenodd" clip-rule="evenodd" d="M14 4C13.4477 4 13 4.44772 13 5V10C13 10.5523 13.4477 11 14 11H19C19.5523 11 20 10.5523 20 10V5C20 4.44772 19.5523 4 19 4H14ZM15.5 6C15.2239 6 15 6.22386 15 6.5V8.5C15 8.77614 15.2239 9 15.5 9H17.5C17.7761 9 18 8.77614 18 8.5V6.5C18 6.22386 17.7761 6 17.5 6H15.5Z" fill="black"/>
<path d="M6.75 15.5C6.61193 15.5 6.5 15.6119 6.5 15.75V17.25C6.5 17.3881 6.61193 17.5 6.75 17.5H8.25C8.38807 17.5 8.5 17.3881 8.5 17.25V15.75C8.5 15.6119 8.38807 15.5 8.25 15.5H6.75Z" fill="black"/>
<path fill-rule="evenodd" clip-rule="evenodd" d="M4 14C4 13.4477 4.44772 13 5 13H10C10.5523 13 11 13.4477 11 14V19C11 19.5523 10.5523 20 10 20H5C4.44772 20 4 19.5523 4 19V14ZM6.5 18C6.22386 18 6 17.7761 6 17.5V15.5C6 15.2239 6.22386 15 6.5 15H8.5C8.77614 15 9 15.2239 9 15.5V17.5C9 17.7761 8.77614 18 8.5 18H6.5Z" fill="black"/>
<path d="M13 14C13 13.4477 13.4477 13 14 13H19C19.5523 13 20 13.4477 20 14C20 14.5523 19.5523 15 19 15H14C13.4477 15 13 14.5523 13 14Z" fill="black"/>
<path d="M14 15.5C13.4477 15.5 13 15.9477 13 16.5C13 17.0523 13.4477 17.5 14 17.5H17C17.5523 17.5 18 17.0523 18 16.5C18 15.9477 17.5523 15.5 17 15.5H14Z" fill="black"/>
<path d="M13 19C13 18.4477 13.4477 18 14 18H19C19.5523 18 20 18.4477 20 19C20 19.5523 19.5523 20 19 20H14C13.4477 20 13 19.5523 13 19Z" fill="black"/>
</svg>
