<svg width="16" height="16" viewBox="0 0 16 16" fill="none" xmlns="http://www.w3.org/2000/svg">
<path fill-rule="evenodd" clip-rule="evenodd" d="M7.62482 3.03226C7.85167 2.94971 8.10291 3.02912 8.25016 3.2299L10.2151 5.90919C10.399 6.16006 10.3648 6.51996 10.1373 6.72679L8.36841 8.33478V8.38249L10.1373 9.99047C10.3663 10.1987 10.3993 10.5617 10.2118 10.8124L8.24695 13.4411C8.09855 13.6396 7.84795 13.7168 7.62236 13.6335C7.39677 13.5502 7.24561 13.3246 7.24561 13.0712V9.79605L5.95838 11.1612C5.73914 11.3938 5.38368 11.3938 5.16444 11.1612C4.9452 10.9287 4.9452 10.5517 5.16444 10.3192L7.13543 8.22886L5.19172 6.42512C4.95838 6.20858 4.93474 5.83243 5.13891 5.58496C5.34308 5.33749 5.69776 5.31241 5.93109 5.52895L7.24561 6.74881V3.59544C7.24561 3.34108 7.39797 3.11481 7.62482 3.03226ZM8.36841 9.95086V11.3617L8.99635 10.5217L8.36841 9.95086ZM8.36841 6.7664L9.00013 6.19214L8.36841 5.33075V6.7664Z" fill="black"/>
</svg>
