<svg width="48" height="48" viewBox="0 0 48 48" fill="none" xmlns="http://www.w3.org/2000/svg">
<path fill-rule="evenodd" clip-rule="evenodd" d="M8 36C8 38.2091 9.79086 40 12 40C14.2091 40 16 38.2091 16 36V26C16 23.7909 14.2091 22 12 22C9.79086 22 8 23.7909 8 26L8 36Z" fill="black"/>
<path fill-rule="evenodd" clip-rule="evenodd" d="M20 36C20 38.2091 21.7909 40 24 40C26.2091 40 28 38.2091 28 36V20C28 17.7909 26.2091 16 24 16C21.7909 16 20 17.7909 20 20V36Z" fill="black"/>
<path fill-rule="evenodd" clip-rule="evenodd" d="M36 40C33.7909 40 32 38.2091 32 36V12C32 9.79086 33.7909 8 36 8C38.2091 8 40 9.79086 40 12V36C40 38.2091 38.2091 40 36 40Z" fill="black"/>
</svg>
