<svg width="24" height="24" viewBox="0 0 24 24" fill="none" xmlns="http://www.w3.org/2000/svg">
<path d="M10.25 10.25H11.75C11.8881 10.25 12 10.1381 12 10C12 9.86193 11.8881 9.75 11.75 9.75H10.25V8.25C10.25 8.11193 10.1381 8 10 8C9.86193 8 9.75 8.11193 9.75 8.25V9.75H8.25C8.11193 9.75 8 9.86193 8 10C8 10.1381 8.11193 10.25 8.25 10.25H9.75V11.75C9.75 11.8881 9.86193 12 10 12C10.1381 12 10.25 11.8881 10.25 11.75V10.25Z" fill="black"/>
<path fill-rule="evenodd" clip-rule="evenodd" d="M13.0005 14L13.0155 13.9887L16.4063 17.3795C16.483 17.4563 16.5834 17.5458 16.6971 17.6325L16.7105 17.6426C17.076 17.9182 17.5725 18.1597 17.8661 17.8661C18.1597 17.5725 17.9182 17.076 17.6426 16.7105L17.6325 16.6971C17.5458 16.5834 17.4563 16.483 17.3795 16.4063L13.9887 13.0155C14.6234 12.1772 15 11.1326 15 10C15 7.23858 12.7614 5 10 5C7.23858 5 5 7.23858 5 10C5 12.7614 7.23858 15 10 15C11.1258 15 12.1647 14.6279 13.0005 14ZM6.3 10C6.3 12.0435 7.95655 13.7 10 13.7C10.8346 13.7 11.6013 13.4252 12.2196 12.9607C13.121 12.2834 13.7 11.2095 13.7 10C13.7 7.95655 12.0435 6.3 10 6.3C7.95655 6.3 6.3 7.95655 6.3 10Z" fill="black"/>
</svg>
