<svg width="28" height="28" viewBox="0 0 28 28" fill="none" xmlns="http://www.w3.org/2000/svg">
<path fill-rule="evenodd" clip-rule="evenodd" d="M17.2492 7.46821C17.2492 9.38365 15.6264 17.8728 13.6246 17.8728C11.6228 17.8728 10 9.38365 10 7.46821C10 5.55277 11.6228 4 13.6246 4C15.6264 4 17.2492 5.55277 17.2492 7.46821ZM15.6785 7.46821C15.6785 8.21932 15.3145 10.6631 14.6742 12.9685C14.4299 13.8481 14.1505 14.6653 13.8715 15.3053C13.7743 15.5284 13.4749 15.5284 13.3777 15.3053C13.0987 14.6653 12.8193 13.8481 12.575 12.9685C11.9347 10.6631 11.5707 8.21932 11.5707 7.46821C11.5707 6.48479 12.4242 5.57066 13.6246 5.57066C14.825 5.57066 15.6785 6.48479 15.6785 7.46821Z" fill="black"/>
<path fill-rule="evenodd" clip-rule="evenodd" d="M13.6246 18.1478C12.192 18.1478 11.027 19.3067 11.027 20.7406C11.027 22.1745 12.192 23.3333 13.6246 23.3333C15.0572 23.3333 16.2222 22.1745 16.2222 20.7406C16.2222 19.3067 15.0572 18.1478 13.6246 18.1478ZM12.5976 20.7406C12.5976 20.1781 13.0554 19.7185 13.6246 19.7185C14.1938 19.7185 14.6516 20.1781 14.6516 20.7406C14.6516 21.3031 14.1938 21.7627 13.6246 21.7627C13.0554 21.7627 12.5976 21.3031 12.5976 20.7406Z" fill="black"/>
</svg>
