<svg width="24" height="24" viewBox="0 0 24 24" fill="none" xmlns="http://www.w3.org/2000/svg">
<path d="M4.85766 4.40908C4.36972 4.74513 4 5.30837 4 6.11994C4 6.93151 4.36972 7.49475 4.85766 7.83079C5.31119 8.14314 5.83329 8.23987 6.1883 8.23987H6.56127V5.29984C6.60575 4.91813 6.47534 4.13924 5.59792 4.07735C5.35514 4.13958 5.09687 4.24434 4.85766 4.40908Z" fill="black"/>
<path d="M17.4582 20C18.169 20 18.7372 19.7567 19.1623 19.3718C19.5746 18.9985 19.8212 18.5213 19.9645 18.0851C19.9733 18.0586 19.9811 18.032 19.9882 18.0056C20.0549 17.7544 19.8291 17.55 19.5686 17.55H10.7764C10.6138 17.55 10.3527 17.714 10.1442 18.1485C10.0484 18.348 9.93201 18.532 9.79997 18.7002C9.37008 19.1328 8.41007 19.9981 8.00916 19.9981L17.4582 20Z" fill="black"/>
<path d="M18.1097 16.2501V5.6498C18.1097 4.73864 17.3692 4 16.4559 4H7.00687C7.66172 4 7.85131 4.86656 7.86425 5.29984V18.5614C8.30425 18.386 8.74669 18.0501 8.969 17.587C9.2386 17.0254 9.83189 16.2501 10.7764 16.2501H18.1097Z" fill="black"/>
</svg>
