<svg width="16" height="16" viewBox="0 0 16 16" fill="none" xmlns="http://www.w3.org/2000/svg">
<path fill-rule="evenodd" clip-rule="evenodd" d="M6.05011 4.63391C6.05011 3.73153 6.77387 3 7.66667 3C8.55947 3 9.28322 3.73153 9.28322 4.63391C9.28322 5.00848 9.15852 5.35362 8.94878 5.62921L11.2014 4.87028C11.2418 4.85666 11.2842 4.84971 11.3268 4.84971C11.5217 4.84971 11.7793 4.88735 11.9939 5.06085C12.2253 5.248 12.3333 5.53197 12.3333 5.86705C12.3333 6.31287 12.048 6.57526 11.8358 6.70397C11.7278 6.76949 11.6231 6.81137 11.5475 6.83685C11.509 6.84983 11.4762 6.85916 11.4518 6.8655C11.4395 6.86869 11.4292 6.87115 11.4213 6.87297L11.4172 6.87389L9.28322 7.41311V9.48929L10.4749 12.5005C10.4936 12.5478 10.5033 12.5983 10.5033 12.6493C10.5033 12.8162 10.457 13.0576 10.3065 13.2689C10.1415 13.5005 9.86997 13.6667 9.49673 13.6667C8.96877 13.6667 8.5451 13.4351 8.49513 13.0376L7.65659 10.495C7.55224 10.744 7.41129 11.1537 7.26629 11.6085C7.09511 12.1453 6.92866 12.7112 6.82792 13.0676C6.82792 13.0676 6.82749 13.0692 6.82652 13.0734L6.82165 13.0958C6.81768 13.1142 6.8101 13.1494 6.79781 13.1876C6.77001 13.2742 6.7172 13.3811 6.60894 13.4718C6.41972 13.6305 6.14606 13.6667 5.8366 13.6667C5.55514 13.6667 5.30686 13.5285 5.13683 13.3566C4.96681 13.1848 4.83007 12.9338 4.83007 12.6493C4.83007 12.5983 4.83969 12.5478 4.85843 12.5005L6.05011 9.48929V7.41311L3.91037 6.87243C3.89896 6.86954 3.88768 6.86615 3.87657 6.86225L4.00654 6.48362C3.87657 6.86225 3.87668 6.86229 3.87657 6.86225L3.8756 6.86191L3.8744 6.86149L3.87131 6.86038L3.86251 6.85715C3.85552 6.85454 3.84627 6.85101 3.8351 6.84657C3.81282 6.83771 3.78251 6.82505 3.74677 6.80858C3.67639 6.77616 3.5796 6.72652 3.48003 6.65875C3.3072 6.5411 3 6.28233 3 5.86705C3 5.20358 3.52375 4.84971 4.00654 4.84971C4.04915 4.84971 4.09149 4.85666 4.13192 4.87028L6.38455 5.62921C6.17481 5.35362 6.05011 5.00848 6.05011 4.63391ZM7.66667 3.80154C7.21184 3.80154 6.84314 4.17421 6.84314 4.63391C6.84314 5.09362 7.21184 5.46628 7.66667 5.46628C8.12149 5.46628 8.4902 5.09362 8.4902 4.63391C8.4902 4.17421 8.12149 3.80154 7.66667 3.80154ZM4.13826 6.10561C4.1383 6.10563 4.13783 6.10546 4.13686 6.1051L4.13826 6.10561ZM4.12465 6.10036C4.11354 6.09593 4.09655 6.08885 4.07567 6.07923C4.03167 6.05896 3.97596 6.02996 3.92302 5.99392C3.8043 5.9131 3.79398 5.86493 3.7931 5.86511C3.79301 5.86513 3.79303 5.86577 3.79303 5.86705C3.79303 5.7764 3.82369 5.73172 3.85207 5.70596C3.87751 5.68287 3.91384 5.6644 3.95646 5.65606L6.60049 6.54686C7.30515 6.89414 8.02818 6.89414 8.73285 6.54686L11.3839 5.65369C11.454 5.66008 11.487 5.67749 11.4985 5.68675C11.5029 5.69028 11.5102 5.69699 11.5184 5.71676C11.5275 5.73898 11.5403 5.7848 11.5403 5.86705C11.5403 5.91449 11.5206 5.96039 11.4278 6.01665C11.3833 6.04361 11.3355 6.06339 11.2967 6.07644C11.278 6.08274 11.2632 6.08689 11.2543 6.08922L11.246 6.09126C11.2455 6.09137 11.2455 6.09137 11.246 6.09126M11.246 6.09126C11.2408 6.09234 11.2357 6.09353 11.2306 6.09482L8.79054 6.71139C8.61403 6.75599 8.4902 6.91629 8.4902 7.10019V9.56647C8.4902 9.61746 8.49982 9.66798 8.51856 9.71532L9.70267 12.7074C9.69525 12.739 9.68223 12.7735 9.66296 12.8005C9.64957 12.8193 9.6347 12.8326 9.61614 12.8423C9.59791 12.8518 9.56213 12.8651 9.49673 12.8651C9.37088 12.8651 9.29963 12.8477 9.26412 12.8347C9.26371 12.8334 9.2633 12.8322 9.26288 12.8309L8.34784 10.0563C8.34191 10.0383 8.33472 10.0208 8.32633 10.0038C8.28814 9.92662 8.23355 9.83865 8.16251 9.75887C8.09457 9.68258 7.98858 9.58789 7.8428 9.53992C7.6781 9.48572 7.49531 9.50298 7.33217 9.6083C7.18681 9.70215 7.08406 9.84804 7.007 10.0038C6.86899 10.2828 6.6822 10.8272 6.51149 11.3626C6.33701 11.9098 6.16797 12.4845 6.06537 12.8475C6.06495 12.849 6.06454 12.8504 6.06414 12.8519C6.01595 12.8592 5.94319 12.8651 5.8366 12.8651C5.81305 12.8651 5.75632 12.8492 5.69759 12.7898C5.6647 12.7566 5.64528 12.724 5.63456 12.6975L6.81478 9.71532C6.83351 9.66798 6.84314 9.61746 6.84314 9.56647V7.10019C6.84314 6.91629 6.71931 6.75599 6.54279 6.71139L4.12465 6.10036M11.246 6.09126L11.2471 6.09103L11.248 6.09085" fill="black"/>
</svg>
