<svg width="32" height="32" viewBox="0 0 32 32" fill="none" xmlns="http://www.w3.org/2000/svg">
<path fill-rule="evenodd" clip-rule="evenodd" d="M7.66667 19.6667H11.6667V23.6667C11.6667 25.1394 12.8606 26.3333 14.3333 26.3333H23.6667C25.1394 26.3333 26.3333 25.1394 26.3333 23.6667V14.3333C26.3333 12.8606 25.1394 11.6667 23.6667 11.6667H19.6667V7.66667C19.6667 6.19391 18.4728 5 17 5H7.66667C6.19391 5 5 6.19391 5 7.66667V17C5 18.4728 6.19391 19.6667 7.66667 19.6667ZM17.9333 15.0095V15.7905L15.7905 17.9333H15.0095L17.9333 15.0095ZM17.9333 13.1239L13.1239 17.9333H12.3428L17.9333 12.3428V13.1239ZM17.9333 10.4572L10.4572 17.9333H9.67614L17.9333 9.67614V10.4572ZM7.79052 17.9333L17.9333 7.79052V7.66667C17.9333 7.47958 17.8783 7.30536 17.7835 7.1593L7.1593 17.7835C7.30536 17.8783 7.47958 17.9333 7.66667 17.9333H7.79052ZM6.73333 16.3239L16.3239 6.73333H15.5428L6.73333 15.5428V16.3239ZM6.73333 13.6572L13.6572 6.73333H12.8761L6.73333 12.8761V13.6572ZM6.73333 10.9905L10.9905 6.73333H10.2095L6.73333 10.2095V10.9905ZM8.32386 6.73333L6.73333 8.32386V7.66667C6.73333 7.1512 7.1512 6.73333 7.66667 6.73333H8.32386ZM22.2095 13.4H23.6667C24.1821 13.4 24.6 13.8179 24.6 14.3333V23.6667C24.6 24.1821 24.1821 24.6 23.6667 24.6H14.3333C13.8179 24.6 13.4 24.1821 13.4 23.6667V22.2095V20.3239V19.6667H14.0572H15.9428H17C18.4728 19.6667 19.6667 18.4728 19.6667 17V15.9428V14.0572V13.4H20.3239H22.2095Z" fill="black"/>
</svg>
