<svg width="28" height="28" viewBox="0 0 28 28" fill="none" xmlns="http://www.w3.org/2000/svg">
<path d="M23.6667 10.1669C23.6667 9.52245 23.1445 9 22.5003 9C21.8562 9 21.334 9.52245 21.334 10.1669V11.407L20.7925 10.053C20.2677 8.74087 18.3183 9.11659 18.3183 10.5298V17.1664C18.3183 17.8109 18.8405 18.3333 19.4847 18.3333C20.1288 18.3333 20.651 17.8109 20.651 17.1664V15.9818L21.1925 17.3357C21.7172 18.6478 23.6667 18.2722 23.6667 16.8589V10.1669Z" fill="black"/>
<path d="M8.8189 10.1814C8.8189 9.53697 8.29671 9.01452 7.65255 9.01452C7.0084 9.01452 6.4862 9.53697 6.4862 10.1814V15.8308H6.16635C5.52219 15.8308 5 16.3533 5 16.9978C5 17.6422 5.52219 18.1647 6.16635 18.1647H7.06938C8.03561 18.1647 8.8189 17.381 8.8189 16.4143V10.1814Z" fill="black"/>
<path fill-rule="evenodd" clip-rule="evenodd" d="M14.9405 9.01452C14.1353 9.01452 13.4826 9.66758 13.4826 10.4732V16.706C13.4826 17.5116 14.1353 18.1647 14.9405 18.1647H16.7352C17.5404 18.1647 18.1932 17.5116 18.1932 16.706V10.4732C18.1932 9.66758 17.5404 9.01452 16.7352 9.01452H14.9405Z" fill="black"/>
<path d="M9.24129 10.4732C9.24129 9.66758 9.89403 9.01452 10.6992 9.01452H12.1911C12.8352 9.01452 13.3574 9.53697 13.3574 10.1814C13.3574 10.8259 12.8352 11.3484 12.1911 11.3484H11.574V12.4227H11.8995C12.7047 12.4227 13.3574 13.0757 13.3574 13.8813V16.706C13.3574 17.5116 12.7047 18.1647 11.8995 18.1647H10.1104C9.46624 18.1647 8.94405 17.6422 8.94405 16.9978C8.94405 16.3533 9.46624 15.8308 10.1104 15.8308H11.0247V14.7565H10.6992C9.89403 14.7565 9.24129 14.1035 9.24129 13.2979V10.4732Z" fill="black"/>
</svg>
