<svg width="20" height="20" viewBox="0 0 20 20" fill="none" xmlns="http://www.w3.org/2000/svg">
<path d="M5.29109 5.08281C5.17606 5.08281 5.08281 5.17606 5.08281 5.29109V6.54078C5.08281 6.65581 5.17606 6.74906 5.29109 6.74906H6.54078C6.65581 6.74906 6.74906 6.65581 6.74906 6.54078V5.29109C6.74906 5.17606 6.65581 5.08281 6.54078 5.08281H5.29109Z" fill="black"/>
<path fill-rule="evenodd" clip-rule="evenodd" d="M3.83312 3C3.373 3 3 3.373 3 3.83312V7.99875C3 8.45887 3.373 8.83187 3.83312 8.83187H7.99875C8.45887 8.83187 8.83187 8.45887 8.83187 7.99875V3.83312C8.83187 3.373 8.45887 3 7.99875 3H3.83312ZM5.08281 4.66625C4.85275 4.66625 4.66625 4.85275 4.66625 5.08281V6.74906C4.66625 6.97912 4.85275 7.16563 5.08281 7.16563H6.74906C6.97912 7.16563 7.16563 6.97912 7.16563 6.74906V5.08281C7.16563 4.85275 6.97912 4.66625 6.74906 4.66625H5.08281Z" fill="black"/>
<path d="M12.5809 5.29109C12.5809 5.17606 12.6742 5.08281 12.7892 5.08281H14.0389C14.1539 5.08281 14.2472 5.17606 14.2472 5.29109V6.54078C14.2472 6.65581 14.1539 6.74906 14.0389 6.74906H12.7892C12.6742 6.74906 12.5809 6.65581 12.5809 6.54078V5.29109Z" fill="black"/>
<path fill-rule="evenodd" clip-rule="evenodd" d="M11.3313 3C10.8711 3 10.4981 3.373 10.4981 3.83312V7.99875C10.4981 8.45887 10.8711 8.83187 11.3313 8.83187H15.4969C15.957 8.83187 16.33 8.45887 16.33 7.99875V3.83312C16.33 3.373 15.957 3 15.4969 3H11.3313ZM12.5809 4.66625C12.3509 4.66625 12.1644 4.85275 12.1644 5.08281V6.74906C12.1644 6.97912 12.3509 7.16563 12.5809 7.16563H14.2472C14.4772 7.16563 14.6637 6.97912 14.6637 6.74906V5.08281C14.6637 4.85275 14.4772 4.66625 14.2472 4.66625H12.5809Z" fill="black"/>
<path d="M5.29109 12.5809C5.17606 12.5809 5.08281 12.6742 5.08281 12.7892V14.0389C5.08281 14.1539 5.17606 14.2472 5.29109 14.2472H6.54078C6.65581 14.2472 6.74906 14.1539 6.74906 14.0389V12.7892C6.74906 12.6742 6.65581 12.5809 6.54078 12.5809H5.29109Z" fill="black"/>
<path fill-rule="evenodd" clip-rule="evenodd" d="M3 11.3313C3 10.8711 3.373 10.4981 3.83312 10.4981H7.99875C8.45887 10.4981 8.83187 10.8711 8.83187 11.3313V15.4969C8.83187 15.957 8.45887 16.33 7.99875 16.33H3.83312C3.373 16.33 3 15.957 3 15.4969V11.3313ZM5.08281 14.6637C4.85275 14.6637 4.66625 14.4772 4.66625 14.2472V12.5809C4.66625 12.3509 4.85275 12.1644 5.08281 12.1644H6.74906C6.97912 12.1644 7.16563 12.3509 7.16563 12.5809V14.2472C7.16563 14.4772 6.97912 14.6637 6.74906 14.6637H5.08281Z" fill="black"/>
<path d="M10.4981 11.3313C10.4981 10.8711 10.8711 10.4981 11.3313 10.4981H15.4969C15.957 10.4981 16.33 10.8711 16.33 11.3313C16.33 11.7914 15.957 12.1644 15.4969 12.1644H11.3313C10.8711 12.1644 10.4981 11.7914 10.4981 11.3313Z" fill="black"/>
<path d="M11.3313 12.5809C10.8711 12.5809 10.4981 12.9539 10.4981 13.4141C10.4981 13.8742 10.8711 14.2472 11.3313 14.2472H13.8306C14.2907 14.2472 14.6637 13.8742 14.6637 13.4141C14.6637 12.9539 14.2907 12.5809 13.8306 12.5809H11.3313Z" fill="black"/>
<path d="M10.4981 15.4969C10.4981 15.0368 10.8711 14.6637 11.3313 14.6637H15.4969C15.957 14.6637 16.33 15.0368 16.33 15.4969C16.33 15.957 15.957 16.33 15.4969 16.33H11.3313C10.8711 16.33 10.4981 15.957 10.4981 15.4969Z" fill="black"/>
</svg>
