<svg width="16" height="16" viewBox="0 0 16 16" fill="none" xmlns="http://www.w3.org/2000/svg">
<path fill-rule="evenodd" clip-rule="evenodd" d="M4.33333 10.3333H6.33333V12.3333C6.33333 13.0697 6.93029 13.6667 7.66667 13.6667H12.3333C13.0697 13.6667 13.6667 13.0697 13.6667 12.3333V7.66667C13.6667 6.93029 13.0697 6.33333 12.3333 6.33333H10.3333V4.33333C10.3333 3.59695 9.73638 3 9 3H4.33333C3.59695 3 3 3.59695 3 4.33333V9C3 9.73638 3.59695 10.3333 4.33333 10.3333ZM9.46667 8.00474V8.39526L8.39526 9.46667H8.00474L9.46667 8.00474ZM9.46667 7.06193L7.06193 9.46667H6.6714L9.46667 6.6714V7.06193ZM9.46667 5.7286L5.7286 9.46667H5.33807L9.46667 5.33807V5.7286ZM4.39526 9.46667L9.46667 4.39526V4.33333C9.46667 4.23979 9.43915 4.15268 9.39176 4.07965L4.07965 9.39176C4.15268 9.43915 4.23979 9.46667 4.33333 9.46667H4.39526ZM3.86667 8.66193L8.66193 3.86667H8.27141L3.86667 8.27141V8.66193ZM3.86667 7.3286L7.3286 3.86667H6.93807L3.86667 6.93807V7.3286ZM3.86667 5.99526L5.99526 3.86667H5.60474L3.86667 5.60474V5.99526ZM4.66193 3.86667L3.86667 4.66193V4.33333C3.86667 4.0756 4.0756 3.86667 4.33333 3.86667H4.66193ZM11.6047 7.2H12.3333C12.5911 7.2 12.8 7.40893 12.8 7.66667V12.3333C12.8 12.5911 12.5911 12.8 12.3333 12.8H7.66667C7.40893 12.8 7.2 12.5911 7.2 12.3333V11.6047V10.6619V10.3333H7.5286H8.47141H9C9.73638 10.3333 10.3333 9.73638 10.3333 9V8.47141V7.5286V7.2H10.6619H11.6047Z" fill="black"/>
</svg>
