<svg width="20" height="20" viewBox="0 0 20 20" fill="none" xmlns="http://www.w3.org/2000/svg">
<path fill-rule="evenodd" clip-rule="evenodd" d="M9.665 16.33C13.346 16.33 16.33 13.346 16.33 9.665C16.33 5.98402 13.346 3 9.665 3C5.98402 3 3 5.98402 3 9.665C3 13.346 5.98402 16.33 9.665 16.33ZM10.0816 6.74906C10.0816 6.519 9.89508 6.3325 9.66502 6.3325C9.43496 6.3325 9.24846 6.519 9.24846 6.74906L9.24846 9.24844H6.74908C6.51902 9.24844 6.33252 9.43494 6.33252 9.665C6.33252 9.89506 6.51902 10.0816 6.74908 10.0816H9.24846V12.5809C9.24846 12.811 9.43496 12.9975 9.66502 12.9975C9.89508 12.9975 10.0816 12.811 10.0816 12.5809V10.0816H12.581C12.811 10.0816 12.9975 9.89506 12.9975 9.665C12.9975 9.43494 12.811 9.24844 12.581 9.24844H10.0816L10.0816 6.74906Z" fill="black"/>
</svg>
