<svg width="32" height="32" viewBox="0 0 32 32" fill="none" xmlns="http://www.w3.org/2000/svg">
<path fill-rule="evenodd" clip-rule="evenodd" d="M23.2454 8.19407C24.7664 9.74155 25.783 11.7062 26.1877 13.8237L26.1899 13.8356C26.2507 14.1553 26.2975 14.4785 26.33 14.8042C26.3802 15.3083 25.8606 15.6386 25.4152 15.412L24.3043 14.8469C23.9272 14.655 23.4832 14.655 23.106 14.8469L21.3253 15.7528C21.1367 15.8488 20.9147 15.8488 20.7261 15.7528L18.9453 14.8469C18.5681 14.655 18.1242 14.655 17.747 14.8469L16.5375 15.4622V23.4026C16.5375 23.948 16.3323 24.6865 15.759 25.2941C15.1645 25.9242 14.2518 26.3333 12.9872 26.3333C11.6315 26.3333 10.7002 25.7388 10.1368 24.9426C9.60544 24.1917 9.43682 23.3172 9.43682 22.721C9.43682 22.2316 9.82671 21.8349 10.3077 21.8349C10.7886 21.8349 11.1785 22.2316 11.1785 22.721C11.1785 23.0336 11.2778 23.5222 11.5503 23.9072C11.7908 24.247 12.1992 24.5612 12.9872 24.5612C13.8661 24.5612 14.2932 24.2888 14.5026 24.0669C14.7331 23.8225 14.7958 23.5387 14.7958 23.4026V15.4622L13.5863 14.8469C13.2091 14.655 12.7652 14.655 12.388 14.8469L10.6072 15.7528C10.4186 15.8488 10.1967 15.8488 10.0081 15.7528L8.22731 14.8469C7.85013 14.655 7.40618 14.655 7.029 14.8469L5.91811 15.412C5.4727 15.6386 4.95312 15.3083 5.00338 14.8042C5.03586 14.4785 5.08266 14.1553 5.1434 13.8356L5.14565 13.8238C5.55035 11.7063 6.56697 9.74155 8.08789 8.19407C10.0979 6.14894 12.8241 5 15.6667 5C18.5093 5 21.2354 6.14894 23.2454 8.19407ZM22.0139 9.44713C22.9959 10.4462 23.7268 11.653 24.1655 12.966C23.5449 12.8707 22.9022 12.9693 22.3271 13.2619L21.0257 13.924L19.7242 13.2619C18.8567 12.8205 17.8356 12.8205 16.9681 13.2619L15.6667 13.924L14.3652 13.2619C13.4977 12.8205 12.4766 12.8205 11.6091 13.2619L10.3077 13.924L9.00621 13.2619C8.43109 12.9693 7.78847 12.8707 7.16784 12.966C7.6065 11.653 8.33748 10.4462 9.31944 9.44713C11.0028 7.73434 13.286 6.7721 15.6667 6.7721C18.0473 6.7721 20.3305 7.73434 22.0139 9.44713Z" fill="black"/>
</svg>
