<svg width="16" height="16" viewBox="0 0 16 16" fill="none" xmlns="http://www.w3.org/2000/svg">
<path d="M9.94508 5.0029L8.50881 3.24446C8.24258 2.91851 7.75738 2.91851 7.49115 3.24446L6.05489 5.0029C5.90585 5.18537 5.93001 5.45656 6.10886 5.60861C6.2877 5.76067 6.5535 5.73602 6.70254 5.55355L7.57845 4.48116V9.2481C7.57845 9.48562 7.76718 9.67817 7.99998 9.67817C8.23279 9.67817 8.42151 9.48562 8.42151 9.2481V4.48116L9.29742 5.55355C9.44646 5.73602 9.71226 5.76067 9.89111 5.60861C10.07 5.45656 10.0941 5.18537 9.94508 5.0029Z" fill="black"/>
<path d="M5.09969 6.15284C4.49235 6.15284 4 6.66277 4 7.2918V12.5277C4 13.1567 4.49235 13.6667 5.09969 13.6667H10.9003C11.5077 13.6667 12 13.1567 12 12.5277V7.2918C12 6.66277 11.5077 6.15284 10.9003 6.15284H9.62127C9.38201 6.15284 9.18806 6.35372 9.18806 6.60152C9.18806 6.84932 9.38201 7.0502 9.62127 7.0502H10.9003C11.0291 7.0502 11.1336 7.15837 11.1336 7.2918V12.5277C11.1336 12.6611 11.0291 12.7693 10.9003 12.7693H5.09969C4.97086 12.7693 4.86642 12.6611 4.86642 12.5277V7.2918C4.86642 7.15837 4.97086 7.0502 5.09969 7.0502H6.37873C6.61799 7.0502 6.81194 6.84932 6.81194 6.60152C6.81194 6.35372 6.61799 6.15284 6.37873 6.15284H5.09969Z" fill="black"/>
</svg>
