<svg width="28" height="28" viewBox="0 0 28 28" fill="none" xmlns="http://www.w3.org/2000/svg">
<path d="M7.33301 5.65039H21.333C22.2626 5.65039 23.0164 6.40348 23.0166 7.33301V21.333C23.0166 22.2627 22.2627 23.0166 21.333 23.0166H7.33301C6.40348 23.0164 5.65039 22.2626 5.65039 21.333V7.33301C5.65057 6.40359 6.40359 5.65057 7.33301 5.65039ZM7.33301 5.86621C6.52325 5.86639 5.86639 6.52325 5.86621 7.33301V21.333C5.86621 22.1429 6.52314 22.7996 7.33301 22.7998H21.333C22.143 22.7998 22.7998 22.143 22.7998 21.333V7.33301C22.7996 6.52314 22.1429 5.86621 21.333 5.86621H7.33301Z" fill="#D9D9D9" stroke="black" stroke-width="1.3"/>
</svg>
