<svg width="28" height="28" viewBox="0 0 28 28" fill="none" xmlns="http://www.w3.org/2000/svg">
<path fill-rule="evenodd" clip-rule="evenodd" d="M23.6667 21.3333C23.6667 22.622 22.622 23.6667 21.3333 23.6667C20.0447 23.6667 19 22.622 19 21.3333V15.5C19 14.2113 20.0447 13.1667 21.3333 13.1667C22.622 13.1667 23.6667 14.2113 23.6667 15.5V21.3333Z" fill="black"/>
<path fill-rule="evenodd" clip-rule="evenodd" d="M16.6667 21.3333C16.6667 22.622 15.622 23.6667 14.3333 23.6667C13.0447 23.6667 12 22.622 12 21.3333L12 12C12 10.7113 13.0447 9.66667 14.3333 9.66667C15.622 9.66667 16.6667 10.7113 16.6667 12L16.6667 21.3333Z" fill="black"/>
<path fill-rule="evenodd" clip-rule="evenodd" d="M7.33333 23.6667C8.622 23.6667 9.66667 22.622 9.66667 21.3333L9.66667 7.33333C9.66667 6.04467 8.622 5 7.33333 5C6.04467 5 5 6.04467 5 7.33333L5 21.3333C5 22.622 6.04467 23.6667 7.33333 23.6667Z" fill="black"/>
</svg>
