<svg width="28" height="28" viewBox="0 0 28 28" fill="none" xmlns="http://www.w3.org/2000/svg">
<path d="M23.6667 10.3334C23.6667 10.947 23.1632 11.4445 22.5422 11.4445C21.9212 11.4445 21.4176 10.947 21.4176 10.3334V9.49996C21.4176 9.34658 21.2918 9.22225 21.1365 9.22225H20.2931C19.6721 9.22225 19.1687 8.72479 19.1687 8.11112C19.1687 7.49746 19.6721 7 20.2931 7H22.5422C23.1632 7 23.6667 7.49746 23.6667 8.11112V10.3334Z" fill="black"/>
<path d="M6.12451 16.5555C5.50344 16.5555 5 17.053 5 17.6666V19.8889C5 20.5025 5.50344 21 6.12451 21H8.37346C8.99454 21 9.49798 20.5025 9.49798 19.8889C9.49798 19.2752 8.99454 18.7778 8.37346 18.7778H7.53015C7.37485 18.7778 7.24902 18.6534 7.24902 18.5V17.6666C7.24902 17.053 6.74551 16.5555 6.12451 16.5555Z" fill="black"/>
<path d="M19.1687 19.8889C19.1687 20.5025 19.6721 21 20.2931 21H22.5422C23.1632 21 23.6667 20.5025 23.6667 19.8889V17.6666C23.6667 17.053 23.1632 16.5555 22.5422 16.5555C21.9212 16.5555 21.4176 17.053 21.4176 17.6666V18.5C21.4176 18.6534 21.2918 18.7778 21.1365 18.7778H20.2931C19.6721 18.7778 19.1687 19.2752 19.1687 19.8889Z" fill="black"/>
<path d="M9.49798 8.11112C9.49798 7.49746 8.99454 7 8.37346 7H6.12451C5.50344 7 5 7.49746 5 8.11112V10.3334C5 10.947 5.50344 11.4445 6.12451 11.4445C6.74551 11.4445 7.24902 10.947 7.24902 10.3334V9.49996C7.24902 9.34658 7.37485 9.22225 7.53015 9.22225H8.37346C8.99454 9.22225 9.49798 8.72479 9.49798 8.11112Z" fill="black"/>
<path d="M9.49798 18.1111C8.87697 18.1111 8.37346 17.6136 8.37346 17V11.4445C8.37346 10.8308 8.87697 10.3334 9.49798 10.3334C10.119 10.3334 10.6225 10.8308 10.6225 11.4445V17C10.6225 17.6136 10.119 18.1111 9.49798 18.1111Z" fill="black"/>
<path d="M15.1205 14.0594C15.1205 14.6731 15.624 15.1705 16.245 15.1705C16.866 15.1705 17.3695 14.6731 17.3695 14.0594V11.4445C17.3695 10.8308 16.866 10.3334 16.245 10.3334C15.624 10.3334 15.1205 10.8308 15.1205 11.4445V14.0594Z" fill="black"/>
<path d="M12.8715 18.1111C12.2504 18.1111 11.747 17.6136 11.747 17V11.4445C11.747 10.8308 12.2504 10.3334 12.8715 10.3334C13.4925 10.3334 13.996 10.8308 13.996 11.4445V17C13.996 17.6136 13.4925 18.1111 12.8715 18.1111Z" fill="black"/>
<path d="M19.6185 10.3334C18.9974 10.3334 18.494 10.8308 18.494 11.4445V17C18.494 17.6136 18.9974 18.1111 19.6185 18.1111C20.2395 18.1111 20.743 17.6136 20.743 17V11.4445C20.743 10.8308 20.2395 10.3334 19.6185 10.3334Z" fill="black"/>
<path d="M16.2 18.0833C16.8443 18.0833 17.3666 17.561 17.3666 16.9167C17.3666 16.2724 16.8443 15.75 16.2 15.75C15.5556 15.75 15.0333 16.2724 15.0333 16.9167C15.0333 17.561 15.5556 18.0833 16.2 18.0833Z" fill="black"/>
</svg>
