<svg width="28" height="28" viewBox="0 0 28 28" fill="none" xmlns="http://www.w3.org/2000/svg">
<path fill-rule="evenodd" clip-rule="evenodd" d="M21.2274 20.1471C21.3479 20.2676 21.546 20.2598 21.6518 20.1262C22.9133 18.5347 23.6667 16.522 23.6667 14.3333C23.6667 9.17868 19.488 5 14.3333 5C12.1447 5 10.132 5.75333 8.54043 7.01484C8.40686 7.12071 8.39905 7.31878 8.51957 7.4393L21.2274 20.1471ZM20.1471 21.2274C20.2676 21.3479 20.2598 21.546 20.1262 21.6518C18.5347 22.9133 16.522 23.6667 14.3333 23.6667C9.17868 23.6667 5 19.488 5 14.3333C5 12.1447 5.75333 10.132 7.01484 8.54043C7.12071 8.40686 7.31878 8.39905 7.4393 8.51957L20.1471 21.2274Z" fill="black"/>
</svg>
