<svg width="28" height="28" viewBox="0 0 28 28" fill="none" xmlns="http://www.w3.org/2000/svg">
<path d="M14.3333 21.0416C14.3333 21.2027 14.4639 21.3333 14.625 21.3333H20.5069C19.8087 21.9496 19.0175 22.4631 18.157 22.85C16.9901 23.3747 15.6958 23.6666 14.3333 23.6666C9.17867 23.6666 5 19.488 5 14.3333C5 9.17867 9.17867 5 14.3333 5C16.2163 5 17.969 5.55759 19.4354 6.51666H14.625C14.4639 6.51666 14.3333 6.64725 14.3333 6.80833V7.04166C14.3333 7.20275 14.4639 7.33333 14.625 7.33333H20.5069C21.0203 7.78643 21.4834 8.29513 21.8869 8.84999H14.625C14.4639 8.84999 14.3333 8.98058 14.3333 9.14166V9.37499C14.3333 9.53608 14.4639 9.66666 14.625 9.66666H22.418C22.6958 10.1468 22.932 10.654 23.1217 11.1833H14.625C14.4639 11.1833 14.3333 11.3139 14.3333 11.475V11.7083C14.3333 11.8694 14.4639 12 14.625 12H23.3726C23.499 12.4911 23.5865 12.9978 23.6314 13.5167H14.625C14.4639 13.5167 14.3333 13.6472 14.3333 13.8083V14.0417C14.3333 14.2027 14.4639 14.3333 14.625 14.3333L23.6667 14.3333C23.6667 14.8497 23.6247 15.3564 23.5441 15.85H14.625C14.4639 15.85 14.3333 15.9806 14.3333 16.1416V16.375C14.3333 16.5361 14.4639 16.6666 14.625 16.6666H23.3726C23.2375 17.1915 23.058 17.6985 22.8381 18.1833H14.625C14.4639 18.1833 14.3333 18.3139 14.3333 18.475V18.7083C14.3333 18.8694 14.4639 19 14.625 19H22.418C22.1043 19.5424 21.7375 20.0503 21.3247 20.5166H14.625C14.4639 20.5166 14.3333 20.6472 14.3333 20.8083V21.0416Z" fill="black"/>
</svg>
