<svg width="28" height="28" viewBox="0 0 28 28" fill="none" xmlns="http://www.w3.org/2000/svg">
<path d="M23.6667 19.175C23.6667 18.5307 23.1443 18.0083 22.5 18.0083H16.2583C15.614 18.0083 15.0917 18.5307 15.0917 19.175V22.5C15.0917 23.1443 15.614 23.6667 16.2583 23.6667H21.3333C22.622 23.6667 23.6667 22.622 23.6667 21.3333V19.175Z" fill="black"/>
<path d="M13.575 13.3417C13.575 12.6973 13.0527 12.175 12.4083 12.175H6.16667C5.52233 12.175 5 12.6973 5 13.3417V21.3333C5 22.622 6.04467 23.6667 7.33333 23.6667H12.4083C13.0527 23.6667 13.575 23.1443 13.575 22.5V13.3417Z" fill="black"/>
<path d="M5 9.49167C5 10.136 5.52233 10.6583 6.16667 10.6583H12.4083C13.0527 10.6583 13.575 10.136 13.575 9.49167V6.16667C13.575 5.52233 13.0527 5 12.4083 5H7.33333C6.04467 5 5 6.04467 5 7.33333V9.49167Z" fill="black"/>
<path d="M15.0917 15.325C15.0917 15.9693 15.614 16.4917 16.2583 16.4917H22.5C23.1443 16.4917 23.6667 15.9693 23.6667 15.325V7.33333C23.6667 6.04467 22.622 5 21.3333 5H16.2583C15.614 5 15.0917 5.52233 15.0917 6.16667V15.325Z" fill="black"/>
</svg>
