<svg width="28" height="28" viewBox="0 0 28 28" fill="none" xmlns="http://www.w3.org/2000/svg">
<path fill-rule="evenodd" clip-rule="evenodd" d="M9.33333 5C8.04467 5 7 6.04467 7 7.33333V21.3333C7 22.622 8.04467 23.6667 9.33333 23.6667H18.6667C19.9553 23.6667 21 22.622 21 21.3333V7.33333C21 6.04467 19.9553 5 18.6667 5H9.33333ZM11.6667 7.74167C10.6035 7.74167 9.74167 8.60352 9.74167 9.66667V10.8333C9.74167 11.8965 10.6035 12.7583 11.6667 12.7583H16.3333C17.3965 12.7583 18.2583 11.8965 18.2583 10.8333V9.66667C18.2583 8.60352 17.3965 7.74167 16.3333 7.74167H11.6667ZM10.5 16.6667C11.1443 16.6667 11.6667 16.1443 11.6667 15.5C11.6667 14.8557 11.1443 14.3333 10.5 14.3333C9.85567 14.3333 9.33333 14.8557 9.33333 15.5C9.33333 16.1443 9.85567 16.6667 10.5 16.6667ZM14 16.6667C14.6443 16.6667 15.1667 16.1443 15.1667 15.5C15.1667 14.8557 14.6443 14.3333 14 14.3333C13.3557 14.3333 12.8333 14.8557 12.8333 15.5C12.8333 16.1443 13.3557 16.6667 14 16.6667ZM17.5 16.6667C18.1443 16.6667 18.6667 16.1443 18.6667 15.5C18.6667 14.8557 18.1443 14.3333 17.5 14.3333C16.8557 14.3333 16.3333 14.8557 16.3333 15.5C16.3333 16.1443 16.8557 16.6667 17.5 16.6667ZM17.5 20.1667C18.1443 20.1667 18.6667 19.6443 18.6667 19C18.6667 18.3557 18.1443 17.8333 17.5 17.8333C16.8557 17.8333 16.3333 18.3557 16.3333 19C16.3333 19.6443 16.8557 20.1667 17.5 20.1667ZM14 20.1667C14.6443 20.1667 15.1667 19.6443 15.1667 19C15.1667 18.3557 14.6443 17.8333 14 17.8333C13.3557 17.8333 12.8333 18.3557 12.8333 19C12.8333 19.6443 13.3557 20.1667 14 20.1667ZM10.5 20.1667C11.1443 20.1667 11.6667 19.6443 11.6667 19C11.6667 18.3557 11.1443 17.8333 10.5 17.8333C9.85567 17.8333 9.33333 18.3557 9.33333 19C9.33333 19.6443 9.85567 20.1667 10.5 20.1667Z" fill="black"/>
</svg>
