<svg width="28" height="28" viewBox="0 0 28 28" fill="none" xmlns="http://www.w3.org/2000/svg">
<path fill-rule="evenodd" clip-rule="evenodd" d="M14.3333 23.6667C19.488 23.6667 23.6667 19.488 23.6667 14.3333C23.6667 9.17868 19.488 5 14.3333 5C9.17868 5 5 9.17868 5 14.3333V22.5C5 23.1443 5.52233 23.6667 6.16667 23.6667H14.3333ZM8.9083 13.1667C8.9083 12.7479 9.24782 12.4083 9.66667 12.4083H19C19.4188 12.4083 19.7584 12.7479 19.7584 13.1667C19.7584 13.5855 19.4188 13.925 19 13.925H9.66667C9.24782 13.925 8.9083 13.5855 8.9083 13.1667ZM8.9083 16.6667C8.9083 16.2479 9.24782 15.9083 9.66667 15.9083H14.3333C14.7522 15.9083 15.0917 16.2479 15.0917 16.6667C15.0917 17.0855 14.7522 17.425 14.3333 17.425H9.66667C9.24782 17.425 8.9083 17.0855 8.9083 16.6667Z" fill="black"/>
</svg>
