<svg width="28" height="28" viewBox="0 0 28 28" fill="none" xmlns="http://www.w3.org/2000/svg">
<path fill-rule="evenodd" clip-rule="evenodd" d="M18.2815 9.87727L18.7411 6.43475C18.8653 5.50487 17.8005 4.89133 17.0583 5.465L15.8224 6.42017L14.7535 5.31876C14.3411 4.89375 13.6589 4.89375 13.2465 5.31876L12.1776 6.42017L10.9417 5.465C10.1994 4.89132 9.13474 5.50488 9.25889 6.43476L9.7185 9.87727C8.74361 10.0075 7.99167 10.8424 7.99167 11.853C7.99167 12.8713 8.75532 13.7113 9.74122 13.8316C9.73383 14.8605 9.63332 16.0694 9.27816 17.654C8.01498 17.6833 7 18.7165 7 19.9867V22.4978C7 23.1421 7.52233 23.6644 8.16667 23.6644H19.8333C20.4777 23.6644 21 23.1421 21 22.4978V19.9867C21 18.7165 19.985 17.6833 18.7218 17.654C18.3667 16.0694 18.2662 14.8605 18.2588 13.8316C19.2447 13.7113 20.0083 12.8713 20.0083 11.853C20.0083 10.8424 19.2564 10.0075 18.2815 9.87727ZM14 6.7201L12.9757 7.77562C12.6036 8.15907 12.0029 8.20192 11.5801 7.87518L10.9124 7.35918L11.2463 9.85961H16.7537L17.0876 7.35918L16.4199 7.87518C15.9971 8.20192 15.3964 8.15906 15.0243 7.77562L14 6.7201ZM16.7422 13.8463H11.2578C11.25 14.903 11.1518 16.1195 10.8302 17.6534H17.1698C16.8482 16.1195 16.75 14.903 16.7422 13.8463ZM9.33333 19.17C8.8823 19.17 8.51667 19.5357 8.51667 19.9867V22.1478H19.4833V19.9867C19.4833 19.5357 19.1177 19.17 18.6667 19.17H9.33333ZM9.50833 11.853C9.50833 11.5897 9.72175 11.3763 9.98502 11.3763H18.015C18.2782 11.3763 18.4917 11.5897 18.4917 11.853C18.4917 12.1162 18.2782 12.3297 18.015 12.3297H9.98502C9.72175 12.3297 9.50833 12.1162 9.50833 11.853Z" fill="black"/>
</svg>
