<svg width="28" height="28" viewBox="0 0 28 28" fill="none" xmlns="http://www.w3.org/2000/svg">
<path fill-rule="evenodd" clip-rule="evenodd" d="M23.6667 12.6591C23.6667 12.3369 23.4055 12.0758 23.0834 12.0758H14.1584C13.8362 12.0758 13.5751 12.3369 13.5751 12.6591V19.243C13.5751 20.9503 14.9591 22.3343 16.6664 22.3343H20.5754C22.2826 22.3343 23.6667 20.9503 23.6667 19.243V12.6591ZM16.4335 16.4468C16.4335 16.028 16.7729 15.6886 17.1917 15.6886H20.0501C20.4688 15.6886 20.8083 16.028 20.8083 16.4468C20.8083 16.8656 20.4688 17.2051 20.0501 17.2051H17.1917C16.7729 17.2051 16.4335 16.8656 16.4335 16.4468Z" fill="black"/>
<path d="M23.6667 9.09129C23.6667 7.38402 22.2826 6 20.5754 6H8.09129C6.38402 6 5 7.38402 5 9.09129V21.5761C5 21.9948 5.33948 22.3343 5.75824 22.3343C6.17701 22.3343 6.51648 21.9948 6.51648 21.5761V11.1426C6.51648 10.8205 6.77762 10.5593 7.09974 10.5593H23.0834C23.4055 10.5593 23.6667 10.2982 23.6667 9.97607V9.09129Z" fill="black"/>
</svg>
