<svg width="28" height="28" viewBox="0 0 28 28" fill="none" xmlns="http://www.w3.org/2000/svg">
<path d="M12.4576 19.8281C12.0388 19.8281 11.6993 20.1676 11.6993 20.5863C11.6993 21.0051 12.0388 21.3446 12.4576 21.3446H15.8772C16.296 21.3446 16.6355 21.0051 16.6355 20.5863C16.6355 20.1676 16.296 19.8281 15.8772 19.8281H12.4576Z" fill="black"/>
<path fill-rule="evenodd" clip-rule="evenodd" d="M20.0369 16.6652H20.4233C21.1642 16.6652 21.7648 16.0645 21.7648 15.3236V11.4918L19.5782 5.85627C19.3779 5.34011 18.8811 5 18.3275 5H10.0072C9.45358 5 8.9568 5.34011 8.75652 5.85627L6.56989 11.4918V15.3236C6.56989 16.0645 7.17052 16.6652 7.91144 16.6652H8.29775L8.02278 17.5027H7.34154C6.60063 17.5027 6 18.1033 6 18.8442V22.3285C6 23.0694 6.60063 23.67 7.34154 23.67H20.9932C21.7342 23.67 22.3348 23.0694 22.3348 22.3285V18.8442C22.3348 18.1033 21.7342 17.5027 20.9932 17.5027H20.3119L20.0369 16.6652ZM10.127 6.51653L8.43571 10.8755H19.899L18.2077 6.51653H10.127ZM18.634 12.3921L19.539 15.1486H20.2483V12.3921H18.634ZM8.08642 12.3921H9.70066L8.79564 15.1486H8.08642V12.3921ZM7.51653 19.0192V22.1535H20.8183V19.0192H7.51653ZM11.2968 12.3921H17.0378L17.9428 15.1486L18.4407 16.6652L18.7157 17.5027H9.61895L9.89391 16.6652L10.3918 15.1486L11.2968 12.3921Z" fill="black"/>
</svg>
