<svg width="28" height="28" viewBox="0 0 28 28" fill="none" xmlns="http://www.w3.org/2000/svg">
<path d="M6.16688 7.33375C6.81132 7.33375 7.33375 6.81132 7.33375 6.16688C7.33375 5.52243 6.81132 5 6.16688 5C5.52243 5 5 5.52243 5 6.16688C5 6.81132 5.52243 7.33375 6.16688 7.33375Z" fill="black"/>
<path fill-rule="evenodd" clip-rule="evenodd" d="M8.50063 10.8344C8.50063 10.92 8.44372 10.9956 8.36149 11.0196C6.41934 11.5845 5 13.3774 5 15.5019C5 18.0797 7.08971 20.1694 9.6675 20.1694C10.4214 20.1694 11.1336 19.9906 11.764 19.6732C12.0631 19.5225 12.438 19.6047 12.6522 19.8622C13.4014 20.7629 14.5305 21.3363 15.7936 21.3363C17.3874 21.3363 18.768 20.4233 19.4409 19.0918C19.4685 19.0371 19.5247 19.0025 19.5859 19.0025C21.8415 19.0025 23.67 17.174 23.67 14.9184C23.67 13.6119 23.0565 12.4487 22.1018 11.7011C21.8711 11.5204 21.7737 11.2109 21.8412 10.9258C21.8925 10.7092 21.9197 10.4832 21.9197 10.2509C21.9197 8.63982 20.6136 7.33375 19.0025 7.33375C18.4623 7.33375 17.9565 7.48056 17.5226 7.73644C17.2152 7.91775 16.7996 7.88035 16.5539 7.62151C15.7034 6.72555 14.501 6.16688 13.1681 6.16688C10.5903 6.16688 8.50063 8.25659 8.50063 10.8344Z" fill="black"/>
<path d="M22.5031 22.5031C22.5031 23.1476 21.9807 23.67 21.3363 23.67C20.6918 23.67 20.1694 23.1476 20.1694 22.5031C20.1694 21.8587 20.6918 21.3363 21.3363 21.3363C21.9807 21.3363 22.5031 21.8587 22.5031 22.5031Z" fill="black"/>
</svg>
