<svg width="28" height="28" viewBox="0 0 28 28" fill="none" xmlns="http://www.w3.org/2000/svg">
<path fill-rule="evenodd" clip-rule="evenodd" d="M14.3333 23.6667C19.488 23.6667 23.6667 19.488 23.6667 14.3333C23.6667 9.17868 19.488 5 14.3333 5C9.17868 5 5 9.17868 5 14.3333C5 19.488 9.17868 23.6667 14.3333 23.6667ZM10.8333 14.3333C11.4777 14.3333 12 13.811 12 13.1667C12 12.5223 11.4777 12 10.8333 12C10.189 12 9.66667 12.5223 9.66667 13.1667C9.66667 13.811 10.189 14.3333 10.8333 14.3333ZM17.8333 14.3333C18.4777 14.3333 19 13.811 19 13.1667C19 12.5223 18.4777 12 17.8333 12C17.189 12 16.6667 12.5223 16.6667 13.1667C16.6667 13.811 17.189 14.3333 17.8333 14.3333ZM11.4167 17.075C10.9979 17.075 10.6583 17.4145 10.6583 17.8333C10.6583 18.2521 10.9979 18.5917 11.4167 18.5917H17.25C17.6688 18.5917 18.0083 18.2521 18.0083 17.8333C18.0083 17.4145 17.6688 17.075 17.25 17.075H11.4167Z" fill="black"/>
</svg>
