<svg width="28" height="28" viewBox="0 0 28 28" fill="none" xmlns="http://www.w3.org/2000/svg">
<path d="M10.8333 14.3333C11.4777 14.3333 12 13.811 12 13.1667C12 12.5223 11.4777 12 10.8333 12C10.189 12 9.66667 12.5223 9.66667 13.1667C9.66667 13.811 10.189 14.3333 10.8333 14.3333Z" fill="black"/>
<path d="M19 13.1667C19 13.811 18.4777 14.3333 17.8333 14.3333C17.189 14.3333 16.6667 13.811 16.6667 13.1667C16.6667 12.5223 17.189 12 17.8333 12C18.4777 12 19 12.5223 19 13.1667Z" fill="black"/>
<path d="M10.25 17.075C9.83118 17.075 9.49167 17.4145 9.49167 17.8333C9.49167 18.2521 9.83118 18.5917 10.25 18.5917H11.1321V17.075H10.25Z" fill="black"/>
<path d="M12.0902 17.075V18.5917H13.8543V17.075H12.0902Z" fill="black"/>
<path d="M14.8124 17.075L14.8124 18.5917H16.5765V17.075H14.8124Z" fill="black"/>
<path d="M17.5346 17.075L17.5346 18.5917H18.4167C18.8355 18.5917 19.175 18.2521 19.175 17.8333C19.175 17.4145 18.8355 17.075 18.4167 17.075H17.5346Z" fill="black"/>
<path fill-rule="evenodd" clip-rule="evenodd" d="M23.6667 14.3333C23.6667 19.488 19.488 23.6667 14.3333 23.6667C9.17868 23.6667 5 19.488 5 14.3333C5 9.17868 9.17868 5 14.3333 5C19.488 5 23.6667 9.17868 23.6667 14.3333ZM22.15 14.3333C22.15 18.6504 18.6504 22.15 14.3333 22.15C10.0163 22.15 6.51667 18.6504 6.51667 14.3333C6.51667 10.0163 10.0163 6.51667 14.3333 6.51667C18.6504 6.51667 22.15 10.0163 22.15 14.3333Z" fill="black"/>
</svg>
