<svg width="28" height="28" viewBox="0 0 28 28" fill="none" xmlns="http://www.w3.org/2000/svg">
<path d="M9.49167 12.5833C9.49167 12.1645 9.83118 11.825 10.25 11.825H18.4167C18.8355 11.825 19.175 12.1645 19.175 12.5833C19.175 13.0021 18.8355 13.3417 18.4167 13.3417H10.25C9.83118 13.3417 9.49167 13.0021 9.49167 12.5833Z" fill="black"/>
<path d="M10.25 15.325C9.83118 15.325 9.49167 15.6645 9.49167 16.0833C9.49167 16.5021 9.83118 16.8417 10.25 16.8417H18.4167C18.8355 16.8417 19.175 16.5021 19.175 16.0833C19.175 15.6645 18.8355 15.325 18.4167 15.325H10.25Z" fill="black"/>
<path fill-rule="evenodd" clip-rule="evenodd" d="M14.3333 23.6667C19.488 23.6667 23.6667 19.488 23.6667 14.3333C23.6667 9.17868 19.488 5 14.3333 5C9.17868 5 5 9.17868 5 14.3333C5 19.488 9.17868 23.6667 14.3333 23.6667ZM14.3333 22.15C18.6504 22.15 22.15 18.6504 22.15 14.3333C22.15 10.0163 18.6504 6.51667 14.3333 6.51667C10.0163 6.51667 6.51667 10.0163 6.51667 14.3333C6.51667 18.6504 10.0163 22.15 14.3333 22.15Z" fill="black"/>
</svg>
