<svg width="28" height="28" viewBox="0 0 28 28" fill="none" xmlns="http://www.w3.org/2000/svg">
<path fill-rule="evenodd" clip-rule="evenodd" d="M9.23464 5.00001L16.002 5C17.7093 5 19.0933 6.38402 19.0933 8.0913V17.04C19.274 17.4556 19.5845 18.0233 19.9755 18.4932C20.433 19.0431 20.8579 19.2918 21.1934 19.2918C21.6323 19.2918 21.8334 19.126 21.9501 18.9639C22.0946 18.7632 22.1502 18.4996 22.1502 18.3351V11.681C22.1502 11.3402 22.0397 11.0087 21.8352 10.7361L20.5868 9.07156C20.3355 8.73654 20.4034 8.26127 20.7385 8.01001C21.0735 7.75875 21.5487 7.82665 21.8 8.16166L23.0484 9.82621C23.4497 10.3613 23.6667 11.0121 23.6667 11.681V18.3351C23.6667 18.7422 23.5508 19.3361 23.1808 19.85C22.7829 20.4025 22.1265 20.8083 21.1934 20.8083C20.3262 20.8083 19.6149 20.3155 19.0933 19.779V22.1502H19.4784C19.8972 22.1502 20.2367 22.4897 20.2367 22.9085C20.2367 23.3272 19.8972 23.6667 19.4784 23.6667H5.75824C5.33948 23.6667 5 23.3272 5 22.9085C5 22.4897 5.33948 22.1502 5.75824 22.1502H6.14335V8.0913C6.14335 6.38403 7.52736 5.00001 9.23464 5.00001ZM9.78314 7.47326C9.13888 7.47326 8.61661 7.99553 8.61661 8.63978V12.0235C8.61661 12.6677 9.13888 13.19 9.78314 13.19H15.4535C16.0978 13.19 16.62 12.6677 16.62 12.0235V8.63978C16.62 7.99553 16.0978 7.47326 15.4535 7.47326H9.78314Z" fill="black"/>
</svg>
