<svg width="28" height="28" viewBox="0 0 28 28" fill="none" xmlns="http://www.w3.org/2000/svg">
<path d="M12.7025 12.3374C12.1043 11.8479 11.2205 11.532 10.3776 11.7232C9.46705 11.9296 8.78268 12.6813 8.56742 13.9606C8.35794 15.2056 8.65264 16.1008 9.22933 16.6774C9.77905 17.227 10.4999 17.4 10.9998 17.4L11.0096 17.4C11.4925 17.3918 11.9041 17.2639 12.2328 17.0239C12.5594 16.7855 12.7628 16.4668 12.8831 16.1449C13.1158 15.5226 13.0631 14.828 12.961 14.386C12.8998 14.1214 12.6642 13.934 12.3926 13.934H10.9998C10.6776 13.934 10.4165 14.1951 10.4165 14.5173C10.4165 14.8395 10.6776 15.1006 10.9998 15.1006H11.8803C11.8861 15.3188 11.8616 15.5458 11.7903 15.7364C11.7323 15.8917 11.6505 16.0045 11.5449 16.0816C11.4421 16.1567 11.2758 16.2278 10.995 16.2334C10.7213 16.2322 10.3308 16.1289 10.0542 15.8523C9.80292 15.6011 9.55596 15.1167 9.71791 14.1542C9.87407 13.2262 10.2908 12.9391 10.6355 12.861C11.0479 12.7675 11.5735 12.9211 11.9636 13.2403C12.2129 13.4443 12.5804 13.4076 12.7844 13.1583C12.9885 12.909 12.9518 12.5414 12.7025 12.3374Z" fill="black"/>
<path d="M16.9531 11.6669V16.8167C16.9531 17.1389 17.2143 17.4 17.5365 17.4C17.8586 17.4 18.1198 17.1389 18.1198 16.8167V15.5735H19.2272C19.5493 15.5735 19.8105 15.3123 19.8105 14.9901C19.8105 14.668 19.5493 14.4068 19.2272 14.4068H18.1198V12.8336H19.6498C19.972 12.8336 20.2332 12.5724 20.2332 12.2503C20.2332 11.9281 19.972 11.6669 19.6498 11.6669H16.9531Z" fill="black"/>
<path d="M15.0004 11.7451C15.3226 11.7451 15.5837 12.0062 15.5837 12.3284V16.8948C15.5837 17.217 15.3226 17.4782 15.0004 17.4782C14.6782 17.4782 14.4171 17.217 14.4171 16.8948V12.3284C14.4171 12.0062 14.6782 11.7451 15.0004 11.7451Z" fill="black"/>
<path fill-rule="evenodd" clip-rule="evenodd" d="M5 9.33333C5 8.04467 6.04467 7 7.33333 7H21.3333C22.622 7 23.6667 8.04467 23.6667 9.33333V18.6667C23.6667 19.9553 22.622 21 21.3333 21H7.33333C6.04467 21 5 19.9553 5 18.6667V9.33333ZM7.33333 8.51667H21.3333C21.7844 8.51667 22.15 8.8823 22.15 9.33333V18.6667C22.15 19.1177 21.7844 19.4833 21.3333 19.4833H7.33333C6.8823 19.4833 6.51667 19.1177 6.51667 18.6667V9.33333C6.51667 8.8823 6.8823 8.51667 7.33333 8.51667Z" fill="black"/>
</svg>
