<svg width="28" height="28" viewBox="0 0 28 28" fill="none" xmlns="http://www.w3.org/2000/svg">
<path fill-rule="evenodd" clip-rule="evenodd" d="M10.1881 9.51592C10.0915 9.51592 9.99807 9.55012 9.92435 9.61245L7.82928 11.3836H11.4529C12.4375 11.3836 13.2494 12.1223 13.3642 13.0754H15.3058C15.4206 12.1223 16.2325 11.3836 17.2171 11.3836H20.8407L18.7457 9.61245C18.6719 9.55012 18.5785 9.51592 18.4819 9.51592H16.6221C16.2033 9.51592 15.8637 9.17657 15.8637 8.75796C15.8637 8.33935 16.2033 8 16.6221 8H18.4819C18.9371 8 19.3776 8.16122 19.7252 8.45504L23.2567 11.4406C23.5188 11.6621 23.67 11.9878 23.67 12.3309V17.7426C23.67 18.8052 22.8081 19.6667 21.7449 19.6667H17.2171C16.1538 19.6667 15.2919 18.8052 15.2919 17.7426V14.5913H13.3781V17.7426C13.3781 18.8052 12.5162 19.6667 11.4529 19.6667H6.92511C5.8619 19.6667 5 18.8052 5 17.7426V12.3309C5 11.9878 5.15117 11.6621 5.41325 11.4406L8.94482 8.45504C9.29237 8.16122 9.73286 8 10.1881 8H12.0479C12.4667 8 12.8063 8.33935 12.8063 8.75796C12.8063 9.17657 12.4667 9.51592 12.0479 9.51592H10.1881ZM22.1532 13.4826C22.1532 13.1605 21.8921 12.8995 21.5699 12.8995H17.2171C16.9915 12.8995 16.8087 13.0822 16.8087 13.3076V17.7426C16.8087 17.968 16.9915 18.1507 17.2171 18.1507H21.7449C21.9704 18.1507 22.1532 17.968 22.1532 17.7426V13.4826ZM6.51675 13.4826C6.51675 13.1605 6.77794 12.8995 7.10012 12.8995H11.4529C11.6785 12.8995 11.8613 13.0822 11.8613 13.3076V17.7426C11.8613 17.968 11.6785 18.1507 11.4529 18.1507H6.92511C6.69958 18.1507 6.51675 17.968 6.51675 17.7426V13.4826Z" fill="black"/>
</svg>
