<svg width="28" height="28" viewBox="0 0 28 28" fill="none" xmlns="http://www.w3.org/2000/svg">
<path fill-rule="evenodd" clip-rule="evenodd" d="M6.5167 13.0341C6.5167 11.9587 6.8715 10.3245 8.00237 8.97348C9.10861 7.65186 11.0275 6.51667 14.3334 6.51667C17.6393 6.51667 19.5581 7.65186 20.6643 8.97348C21.7952 10.3245 22.15 11.9587 22.15 13.0341V16.9518H17.8333C17.189 16.9518 16.6667 17.4741 16.6667 18.1185V22.5012C16.6667 23.1455 17.189 23.6679 17.8333 23.6679H21.3333C22.622 23.6679 23.6667 22.6232 23.6667 21.3345V13.0341C23.6667 11.6842 23.234 9.68051 21.8274 8C20.3961 6.29006 18.0275 5 14.3334 5C10.6393 5 8.27062 6.29006 6.83935 8C5.43272 9.6805 5.00003 11.6842 5.00003 13.0341L5 21.3345C5 22.6232 6.04467 23.6679 7.33333 23.6679H10.8333C11.4777 23.6679 12 23.1455 12 22.5012V18.1185C12 17.4741 11.4777 16.9518 10.8333 16.9518H6.5167V13.0341Z" fill="black"/>
</svg>
