<svg width="28" height="28" viewBox="0 0 28 28" fill="none" xmlns="http://www.w3.org/2000/svg">
<path d="M11.6506 6.46766C11.8167 5.84504 11.4465 5.20571 10.8239 5.03968C10.2013 4.87365 9.56196 5.24379 9.39593 5.8664L5.03968 22.2023C4.87365 22.825 5.24379 23.4643 5.8664 23.6303C6.48902 23.7963 7.12835 23.4262 7.29438 22.8036L11.6506 6.46766Z" fill="black"/>
<path d="M19.2741 5.8664C19.108 5.24379 18.4687 4.87365 17.8461 5.03968C17.2235 5.20571 16.8533 5.84504 17.0194 6.46766L21.3756 22.8036C21.5417 23.4262 22.181 23.7963 22.8036 23.6303C23.4262 23.4643 23.7963 22.825 23.6303 22.2023L19.2741 5.8664Z" fill="black"/>
<path d="M15.4238 6.71148C15.4238 6.11005 14.9363 5.6225 14.3349 5.6225C13.7335 5.6225 13.2459 6.11005 13.2459 6.71148V9.76088C13.2459 10.3623 13.7335 10.8499 14.3349 10.8499C14.9363 10.8499 15.4238 10.3623 15.4238 9.76088V6.71148Z" fill="black"/>
<path d="M14.3349 11.7213C14.9363 11.7213 15.4238 12.2089 15.4238 12.8103V15.8597C15.4238 16.4611 14.9363 16.9487 14.3349 16.9487C13.7335 16.9487 13.2459 16.4611 13.2459 15.8597V12.8103C13.2459 12.2089 13.7335 11.7213 14.3349 11.7213Z" fill="black"/>
<path d="M14.3349 17.8202C14.9363 17.8202 15.4238 18.3077 15.4238 18.9091V21.9585C15.4238 22.56 14.9363 23.0475 14.3349 23.0475C13.7335 23.0475 13.2459 22.56 13.2459 21.9585V18.9091C13.2459 18.3077 13.7335 17.8202 14.3349 17.8202Z" fill="black"/>
</svg>
