<svg width="28" height="28" viewBox="0 0 28 28" fill="none" xmlns="http://www.w3.org/2000/svg">
<path d="M10.5281 5.02579C10.9328 5.13371 11.1733 5.54927 11.0654 5.95397L6.49133 23.1068C6.38341 23.5115 5.96786 23.7521 5.56316 23.6442C5.15846 23.5363 4.91787 23.1207 5.02579 22.716L9.59989 5.56316C9.70781 5.15846 10.1234 4.91787 10.5281 5.02579Z" fill="black"/>
<path d="M14.3351 5.18684C14.7455 5.18684 15.0783 5.51958 15.0783 5.93004V9.29204C15.0783 9.7025 14.7455 10.0352 14.3351 10.0352C13.9246 10.0352 13.5919 9.7025 13.5919 9.29204V5.93004C13.5919 5.51958 13.9246 5.18684 14.3351 5.18684Z" fill="black"/>
<path d="M15.0783 12.6541C15.0783 12.2436 14.7455 11.9109 14.3351 11.9109C13.9246 11.9109 13.5919 12.2436 13.5919 12.6541V16.0161C13.5919 16.4265 13.9246 16.7593 14.3351 16.7593C14.7455 16.7593 15.0783 16.4265 15.0783 16.0161V12.6541Z" fill="black"/>
<path d="M15.0783 19.378C15.0783 18.9676 14.7455 18.6348 14.3351 18.6348C13.9246 18.6348 13.5919 18.9676 13.5919 19.378V22.74C13.5919 23.1505 13.9246 23.4832 14.3351 23.4832C14.7455 23.4832 15.0783 23.1505 15.0783 22.74V19.378Z" fill="black"/>
<path d="M19.0701 5.56316C18.9622 5.15846 18.5466 4.91787 18.1419 5.02579C17.7372 5.13371 17.4967 5.54927 17.6046 5.95397L22.1787 23.1068C22.2866 23.5115 22.7021 23.7521 23.1068 23.6442C23.5115 23.5363 23.7521 23.1207 23.6442 22.716L19.0701 5.56316Z" fill="black"/>
</svg>
