<svg width="28" height="28" viewBox="0 0 28 28" fill="none" xmlns="http://www.w3.org/2000/svg">
<path d="M18.1833 14.8833C18.4411 14.69 18.4933 14.3245 18.3 14.0668C18.1067 13.8091 17.7411 13.7569 17.4833 13.9501L13.2214 17.146L11.2458 15.1708C11.018 14.943 10.6487 14.943 10.4209 15.1708C10.193 15.3985 10.193 15.7678 10.4209 15.9956L12.6826 18.2569C12.929 18.5032 13.3189 18.5309 13.5976 18.3219L18.1833 14.8833Z" fill="black"/>
<path fill-rule="evenodd" clip-rule="evenodd" d="M13.0114 5.41049L6.01143 10.2221C5.37827 10.6573 5 11.3763 5 12.1445V20.249C5 22.1816 6.567 23.7483 8.5 23.7483H20.1667C22.0997 23.7483 23.6667 22.1816 23.6667 20.249V12.1445C23.6667 11.3763 23.2884 10.6573 22.6552 10.2221L15.6552 5.41049C14.859 4.86317 13.8077 4.86317 13.0114 5.41049ZM14.796 6.66006L21.796 11.4717C22.0176 11.624 22.15 11.8756 22.15 12.1445V20.249C22.15 21.3441 21.262 22.2319 20.1667 22.2319H8.5C7.40464 22.2319 6.51667 21.3441 6.51667 20.249V12.1445C6.51667 11.8757 6.64906 11.624 6.87067 11.4717L13.8707 6.66006C14.1494 6.4685 14.5173 6.4685 14.796 6.66006Z" fill="black"/>
</svg>
