<svg width="28" height="28" viewBox="0 0 28 28" fill="none" xmlns="http://www.w3.org/2000/svg">
<path d="M15.4443 18.436C14.6683 17.9282 13.6651 17.9282 12.8891 18.436L8.92321 21.031C8.68068 21.1897 8.79304 21.5667 9.08293 21.5667H19.2504C19.5403 21.5667 19.6527 21.1897 19.4101 21.031L15.4443 18.436Z" fill="black"/>
<path fill-rule="evenodd" clip-rule="evenodd" d="M6.32726 7.74143C5.48708 6.5803 6.36201 5 7.84498 5H20.4884C21.9713 5 22.8463 6.5803 22.0061 7.74143L17.9537 13.3419C17.5216 13.9391 17.5216 14.7276 17.9537 15.3248L22.0061 20.9253C22.8463 22.0864 21.9713 23.6667 20.4884 23.6667H7.84498C6.36201 23.6667 5.48708 22.0864 6.32726 20.9253L10.3796 15.3248C10.8117 14.7276 10.8117 13.9391 10.3796 13.3419L6.32726 7.74143ZM7.84498 6.51667H20.4884C20.661 6.51667 20.7512 6.597 20.7916 6.66989C20.813 6.70863 20.8174 6.74048 20.8166 6.7602C20.8161 6.77366 20.8131 6.80295 20.7774 6.85235L16.725 12.4528C15.909 13.5806 15.909 15.0861 16.725 16.2139L20.7774 21.8144C20.7916 21.834 20.8006 21.8504 20.8064 21.864C20.8151 21.8845 20.8163 21.8984 20.8166 21.9065C20.8174 21.9262 20.813 21.9581 20.7916 21.9968C20.7512 22.0697 20.661 22.15 20.4884 22.15H7.84498C7.6723 22.15 7.58215 22.0697 7.54178 21.9968C7.52953 21.9747 7.52291 21.9549 7.51956 21.9383C7.51707 21.9257 7.51643 21.915 7.51678 21.9065C7.51728 21.893 7.5202 21.8638 7.55595 21.8144L11.6083 16.2139C12.4244 15.0861 12.4244 13.5806 11.6083 12.4528L7.55595 6.85235C7.53715 6.82634 7.52739 6.8059 7.52234 6.79041C7.51778 6.77649 7.517 6.76658 7.51678 6.7602C7.51593 6.74048 7.52034 6.70863 7.54178 6.66989C7.58215 6.597 7.6723 6.51667 7.84498 6.51667Z" fill="black"/>
</svg>
