<svg width="28" height="28" viewBox="0 0 28 28" fill="none" xmlns="http://www.w3.org/2000/svg">
<path d="M16.27 16.38C15.3641 15.1602 15.3486 13.4953 16.2318 12.2589L17.0079 11.1724C17.2836 10.7863 17.0076 10.25 16.5331 10.25H11.8002C11.3258 10.25 11.0498 10.7863 11.3255 11.1724L12.1016 12.2589C12.9847 13.4953 12.9692 15.1602 12.0633 16.38L8.82088 20.7459C8.52751 21.1298 8.80123 21.6834 9.28437 21.6834H19.049C19.532 21.6834 19.8058 21.1298 19.5125 20.7459L16.27 16.38Z" fill="black"/>
<path fill-rule="evenodd" clip-rule="evenodd" d="M6.32726 7.74143C5.48708 6.5803 6.36201 5 7.84498 5H20.4884C21.9713 5 22.8463 6.5803 22.0061 7.74143L17.9537 13.3419C17.5216 13.9391 17.5216 14.7276 17.9537 15.3248L22.0061 20.9253C22.8463 22.0864 21.9713 23.6667 20.4884 23.6667H7.84498C6.36201 23.6667 5.48708 22.0864 6.32726 20.9253L10.3796 15.3248C10.8117 14.7276 10.8117 13.9391 10.3796 13.3419L6.32726 7.74143ZM7.84498 6.51667H20.4884C20.661 6.51667 20.7512 6.597 20.7916 6.66989C20.813 6.70863 20.8174 6.74048 20.8166 6.7602C20.8161 6.77366 20.8131 6.80295 20.7774 6.85235L16.725 12.4528C15.909 13.5806 15.909 15.0861 16.725 16.2139L20.7774 21.8144C20.7933 21.8363 20.8027 21.8543 20.8083 21.8687C20.8153 21.8866 20.8163 21.899 20.8166 21.9065C20.817 21.9174 20.8159 21.932 20.8112 21.9494C20.8074 21.9635 20.8012 21.9794 20.7916 21.9968C20.7512 22.0697 20.661 22.15 20.4884 22.15H7.84498C7.6723 22.15 7.58215 22.0697 7.54178 21.9968C7.52034 21.9581 7.51593 21.9262 7.51678 21.9065C7.51728 21.893 7.5202 21.8638 7.55595 21.8144L11.6083 16.2139C12.4244 15.0861 12.4244 13.5806 11.6083 12.4528L7.55595 6.85235C7.5202 6.80295 7.51728 6.77366 7.51678 6.7602C7.51593 6.74048 7.52034 6.70863 7.54178 6.66989C7.58215 6.597 7.6723 6.51667 7.84498 6.51667Z" fill="black"/>
</svg>
