<svg width="28" height="28" viewBox="0 0 28 28" fill="none" xmlns="http://www.w3.org/2000/svg">
<path fill-rule="evenodd" clip-rule="evenodd" d="M10.8306 13.5182C12.3118 13.5182 13.5126 12.3166 13.5126 10.8344C13.5126 9.35215 12.3118 8.15056 10.8306 8.15056C9.34931 8.15056 8.14851 9.35215 8.14851 10.8344C8.14851 12.3166 9.34931 13.5182 10.8306 13.5182ZM11.9967 10.8344C11.9967 11.4788 11.4746 12.0013 10.8306 12.0013C10.1865 12.0013 9.66446 11.4788 9.66446 10.8344C9.66446 10.1899 10.1865 9.6675 10.8306 9.6675C11.4746 9.6675 11.9967 10.1899 11.9967 10.8344Z" fill="black"/>
<path fill-rule="evenodd" clip-rule="evenodd" d="M23.6578 21.3363V18.5358L23.6667 18.5287L23.6578 18.5177V7.33375C23.6578 6.04486 22.6137 5 21.3256 5H7.33223C6.04418 5 5 6.04486 5 7.33375V21.3363C5 22.6251 6.04418 23.67 7.33223 23.67H21.3256C22.6137 23.67 23.6578 22.6251 23.6578 21.3363ZM21.3256 6.51694H7.33223C6.88141 6.51694 6.51595 6.88264 6.51595 7.33375V17.4686L9.6147 15.4014C10.3778 14.8923 11.394 14.993 12.0425 15.642L13.8821 17.4827C14.0615 17.6623 14.3595 17.6362 14.505 17.4281L16.8963 14.0098C17.6326 12.9573 19.173 12.9079 19.975 13.9112L22.1419 16.6215V7.33375C22.1419 6.88264 21.7764 6.51694 21.3256 6.51694ZM6.51595 21.3363V19.2917L10.4556 16.6636C10.6175 16.5556 10.833 16.577 10.9706 16.7146L12.8101 18.5554C13.6561 19.4019 15.0609 19.2788 15.7469 18.298L18.1382 14.8797C18.2944 14.6564 18.6212 14.646 18.7913 14.8588L22.1419 19.0498V21.3363C22.1419 21.7874 21.7764 22.1531 21.3256 22.1531H7.33223C6.88141 22.1531 6.51595 21.7874 6.51595 21.3363Z" fill="black"/>
</svg>
