<svg width="28" height="28" viewBox="0 0 28 28" fill="none" xmlns="http://www.w3.org/2000/svg">
<path fill-rule="evenodd" clip-rule="evenodd" d="M11.4796 6.06514C10.9383 5.8751 10.3412 6.11255 10.0706 6.62552L7.69888 11.1215C7.28229 11.9112 7.84526 12.867 8.72699 12.867H19.9396C20.8213 12.867 21.3843 11.9112 20.9677 11.1215L18.5959 6.62552C18.3253 6.11255 17.7283 5.8751 17.1869 6.06514L14.7142 6.9332C14.4674 7.01983 14.1992 7.01983 13.9524 6.9332L11.4796 6.06514Z" fill="black"/>
<path d="M5 13.9026C5 13.4771 5.33948 13.1321 5.75824 13.1321H22.9084C23.3272 13.1321 23.6667 13.4771 23.6667 13.9026C23.6667 14.3282 23.3272 14.6732 22.9084 14.6732H5.75824C5.33948 14.6732 5 14.3282 5 13.9026Z" fill="black"/>
<path fill-rule="evenodd" clip-rule="evenodd" d="M13.1507 19.2671C12.9 21.0021 11.4774 22.3314 9.75994 22.3314C7.86558 22.3314 6.3299 20.7141 6.3299 18.719C6.3299 16.724 7.86558 15.1067 9.75994 15.1067C11.249 15.1067 12.5164 16.106 12.9906 17.5024C13.2632 17.3621 13.5717 17.2491 13.9071 17.1916C14.4749 17.0943 15.0871 17.1633 15.684 17.4793C16.1643 16.0949 17.4259 15.1067 18.9067 15.1067C20.801 15.1067 22.3367 16.724 22.3367 18.719C22.3367 20.7141 20.801 22.3314 18.9067 22.3314C17.1893 22.3314 15.7666 21.0021 15.5159 19.2672L15.5028 19.2538C14.9893 18.7133 14.5255 18.6485 14.1592 18.7112C13.7413 18.7828 13.366 19.0409 13.1638 19.2538L13.1507 19.2671ZM9.75994 20.7903C10.7662 20.7903 11.6735 19.9153 11.6735 18.719C11.6735 17.5228 10.7662 16.6478 9.75994 16.6478C8.75368 16.6478 7.84638 17.5228 7.84638 18.719C7.84638 19.9153 8.75368 20.7903 9.75994 20.7903ZM18.9067 20.7903C19.9129 20.7903 20.8202 19.9153 20.8202 18.719C20.8202 17.5228 19.9129 16.6478 18.9067 16.6478C17.9004 16.6478 16.9931 17.5228 16.9931 18.719C16.9931 19.9153 17.9004 20.7903 18.9067 20.7903Z" fill="black"/>
</svg>
