<svg width="28" height="28" viewBox="0 0 28 28" fill="none" xmlns="http://www.w3.org/2000/svg">
<path d="M19.0017 7.75513C19.374 8.11748 19.374 8.70496 19.0017 9.06731C18.6294 9.42966 18.0258 9.42966 17.6535 9.06731C17.2812 8.70496 17.2812 8.11748 17.6535 7.75513C18.0258 7.39278 18.6294 7.39278 19.0017 7.75513Z" fill="black"/>
<path d="M14.7102 14.003C14.8552 14.1441 15.0885 14.3451 15.3509 14.5191L14.7102 14.003Z" fill="black"/>
<path fill-rule="evenodd" clip-rule="evenodd" d="M19.0017 7.75513C19.374 8.11748 19.374 8.70496 19.0017 9.06731C18.6294 9.42966 18.0258 9.42966 17.6535 9.06731C17.2812 8.70496 17.2812 8.11748 17.6535 7.75513C18.0258 7.39278 18.6294 7.39278 19.0017 7.75513Z" fill="black"/>
<path fill-rule="evenodd" clip-rule="evenodd" d="M14.7102 14.003C12.6423 11.9903 12.5927 8.7442 14.6388 6.75282C16.6848 4.76144 20.0199 4.80969 22.0878 6.82237C24.074 8.75546 24.1982 11.8246 22.3927 13.83L22.3807 13.8432L21.5863 14.6263L22.1377 15.1629C22.4265 15.444 22.4452 15.9128 22.1401 16.2097L21.3987 16.9313L21.7304 17.2541C22.0192 17.5352 22.0379 18.004 21.7328 18.3009L20.9914 19.0225L21.432 19.4512C21.9011 19.9078 21.9229 20.6581 21.4413 21.1267L19.1836 23.3241C18.7021 23.7928 17.9313 23.7716 17.4622 23.3151L15.9364 21.83C15.7098 21.6095 15.5787 21.3106 15.5752 20.9968L15.5041 14.6134C15.4502 14.5823 15.398 14.5504 15.3509 14.5191L14.7102 14.003ZM15.4989 7.59004C13.9455 9.10201 13.9599 11.5983 15.5704 13.1658C15.6721 13.2648 15.8474 13.4157 16.0359 13.5407C16.0875 13.5749 16.1694 13.622 16.2536 13.6646C16.5175 13.798 16.7146 14.0681 16.7182 14.3935L16.7906 20.8895C16.7912 20.9501 16.8162 21.0079 16.8601 21.0508L18.1538 22.3134C18.2469 22.4042 18.3979 22.4043 18.4911 22.3136L20.4033 20.4525C20.4964 20.3619 20.4964 20.215 20.4033 20.1244L19.81 19.547C19.5212 19.2659 19.5026 18.7971 19.8077 18.5002L20.3805 17.9427C20.4735 17.8521 20.4735 17.7052 20.3805 17.6146L20.2173 17.4558C19.9285 17.1747 19.9099 16.706 20.215 16.409L20.7878 15.8515C20.8808 15.7609 20.8808 15.614 20.7878 15.5234L20.4069 15.1528C20.1187 14.8723 20.0996 14.4049 20.4026 14.1079L21.4892 13.0369C22.8485 11.5135 22.7694 9.16012 21.2277 7.65959C19.6171 6.09208 17.0524 6.07807 15.4989 7.59004ZM19.0017 7.75513C19.374 8.11748 19.374 8.70496 19.0017 9.06731C18.6294 9.42966 18.0258 9.42966 17.6535 9.06731C17.2812 8.70496 17.2812 8.11748 17.6535 7.75513C18.0258 7.39278 18.6294 7.39278 19.0017 7.75513Z" fill="black"/>
<path d="M14.678 15.3461C14.2198 15.0304 13.8065 14.6571 13.4491 14.237C13.1868 14.3572 13.0122 14.6191 13.0122 14.9094V15.4337C13.0122 15.5618 12.9055 15.6656 12.7739 15.6656H11.9638C11.5323 15.6656 11.205 16.0099 11.205 16.4074V16.6321C11.205 16.7602 11.0982 16.864 10.9666 16.864H10.1565C9.72507 16.864 9.39769 17.2083 9.39769 17.6058V18.4224C9.39769 18.5505 9.29099 18.6544 9.15937 18.6544H6.45514C6.32339 18.6544 6.21663 18.5504 6.21681 18.4221L6.21929 16.639C6.21938 16.5785 6.24377 16.5203 6.28728 16.4771L10.9555 11.8339C11.1893 11.6013 11.2462 11.2747 11.1565 10.9988C11.1279 10.9107 11.1042 10.821 11.0926 10.7613C11.0502 10.5432 11.0358 10.3159 11.0358 10.1758C11.0358 8.60815 11.9377 7.26141 13.2429 6.60712C13.7342 5.96395 14.3508 5.41685 15.0576 5.00004C15.0504 5.00001 15.0433 5 15.0361 5C12.1426 5 9.81936 7.32947 9.81936 10.1758L9.89738 10.9817C9.90799 11.0362 9.92171 11.0947 9.93725 11.1538L5.34996 15.7165C5.12442 15.9408 5 16.2424 5 16.5542V18.6544C5 19.3001 5.52966 19.8456 6.21066 19.8456H9.40352C10.0845 19.8456 10.6142 19.3001 10.6142 18.6544V18.048H11.6626C12.0941 18.048 12.4214 17.7037 12.4214 17.3062V16.8496H13.4699C13.9013 16.8496 14.2287 16.5053 14.2287 16.1078V15.3488L14.678 15.3461Z" fill="black"/>
</svg>
