<svg width="28" height="28" viewBox="0 0 28 28" fill="none" xmlns="http://www.w3.org/2000/svg">
<path fill-rule="evenodd" clip-rule="evenodd" d="M7.33333 8C6.04467 8 5 9.04467 5 10.3333V18.5C5 19.7887 6.04467 20.8333 7.33333 20.8333H21.3333C22.622 20.8333 23.6667 19.7887 23.6667 18.5V10.3333C23.6667 9.04467 22.622 8 21.3333 8H7.33333ZM8.90833 17.3333C8.90833 16.9145 9.24785 16.575 9.66667 16.575H19C19.4188 16.575 19.7583 16.9145 19.7583 17.3333C19.7583 17.7521 19.4188 18.0917 19 18.0917H9.66667C9.24785 18.0917 8.90833 17.7521 8.90833 17.3333ZM12.0583 14.65C12.0583 15.0688 11.7188 15.4083 11.3 15.4083C10.8812 15.4083 10.5417 15.0688 10.5417 14.65C10.5417 14.2312 10.8812 13.8917 11.3 13.8917C11.7188 13.8917 12.0583 14.2312 12.0583 14.65ZM15.0916 14.65C15.0916 15.0688 14.7521 15.4083 14.3333 15.4083C13.9145 15.4083 13.575 15.0688 13.575 14.65C13.575 14.2312 13.9145 13.8917 14.3333 13.8917C14.7521 13.8917 15.0916 14.2312 15.0916 14.65ZM18.1249 14.65C18.1249 15.0688 17.7854 15.4083 17.3666 15.4083C16.9478 15.4083 16.6083 15.0688 16.6083 14.65C16.6083 14.2312 16.9478 13.8917 17.3666 13.8917C17.7854 13.8917 18.1249 14.2312 18.1249 14.65ZM16.0251 12.7833C16.4439 12.7833 16.7834 12.4438 16.7834 12.025C16.7834 11.6062 16.4439 11.2667 16.0251 11.2667C15.6062 11.2667 15.2667 11.6062 15.2667 12.025C15.2667 12.4438 15.6062 12.7833 16.0251 12.7833ZM12.6417 12.7833C13.0605 12.7833 13.4 12.4438 13.4 12.025C13.4 11.6062 13.0605 11.2667 12.6417 11.2667C12.2229 11.2667 11.8834 11.6062 11.8834 12.025C11.8834 12.4438 12.2229 12.7833 12.6417 12.7833ZM9.25833 12.7833C9.67715 12.7833 10.0167 12.4438 10.0167 12.025C10.0167 11.6062 9.67715 11.2667 9.25833 11.2667C8.83952 11.2667 8.5 11.6062 8.5 12.025C8.5 12.4438 8.83952 12.7833 9.25833 12.7833ZM19.4084 12.7833C19.8272 12.7833 20.1668 12.4438 20.1668 12.025C20.1668 11.6062 19.8272 11.2667 19.4084 11.2667C18.9896 11.2667 18.6501 11.6062 18.6501 12.025C18.6501 12.4438 18.9896 12.7833 19.4084 12.7833Z" fill="black"/>
</svg>
