<svg width="28" height="28" viewBox="0 0 28 28" fill="none" xmlns="http://www.w3.org/2000/svg">
<path d="M13.5559 6.22773C13.2628 5.92848 12.7827 5.92351 12.4835 6.21663C12.1842 6.50974 12.1793 6.98995 12.4724 7.28919L18.4654 13.4082H5.75838C5.33954 13.4082 5 13.7478 5 14.1667C5 14.5856 5.33954 14.9251 5.75838 14.9251H18.4654L12.4724 21.0441C12.1793 21.3434 12.1842 21.8236 12.4835 22.1167C12.7827 22.4098 13.2628 22.4049 13.5559 22.1056L20.5318 14.9832C20.9761 14.5295 20.9761 13.8038 20.5318 13.3502L13.5559 6.22773Z" fill="black"/>
<path d="M23.6667 6.75846C23.6667 6.33957 23.3271 6 22.9083 6C22.4894 6 22.1499 6.33957 22.1499 6.75846V21.5749C22.1499 21.9938 22.4894 22.3333 22.9083 22.3333C23.3271 22.3333 23.6667 21.9938 23.6667 21.5749V6.75846Z" fill="black"/>
</svg>
