<svg width="28" height="28" viewBox="0 0 28 28" fill="none" xmlns="http://www.w3.org/2000/svg">
<path d="M7.03203 9.88661C8.06833 9.21958 9.24952 9 9.9777 9H12.1555C12.7998 9 13.322 9.52183 13.322 10.1655C13.322 10.8093 12.7998 11.3311 12.1555 11.3311H9.9777C9.61698 11.3311 8.89259 11.462 8.29553 11.8463C7.75876 12.1918 7.33307 12.724 7.33307 13.67C7.33307 14.616 7.75876 15.1482 8.29553 15.4937C8.89259 15.878 9.61698 16.0089 9.9777 16.0089H12.1555C12.7998 16.0089 13.322 16.5307 13.322 17.1744C13.322 17.8182 12.7998 18.34 12.1555 18.34H9.9777C9.24952 18.34 8.06833 18.1204 7.03203 17.4534C5.93544 16.7475 5 15.5276 5 13.67C5 11.8124 5.93544 10.5924 7.03203 9.88661Z" fill="black"/>
<path d="M21.6346 17.4534C20.5983 18.1204 19.4171 18.34 18.689 18.34H16.5112C15.8669 18.34 15.3446 17.8182 15.3446 17.1745C15.3446 16.5307 15.8669 16.0089 16.5112 16.0089H18.689C19.0497 16.0089 19.7741 15.878 20.3711 15.4937C20.9079 15.1482 21.3336 14.616 21.3336 13.67C21.3336 12.724 20.9079 12.1918 20.3711 11.8463C19.7741 11.462 19.0497 11.3311 18.689 11.3311L16.5112 11.3311C15.8669 11.3311 15.3446 10.8093 15.3446 10.1656C15.3446 9.52184 15.8669 9.00001 16.5112 9.00001L18.689 9.00001C19.4171 9.00001 20.5983 9.21959 21.6346 9.88662C22.7312 10.5925 23.6667 11.8124 23.6667 13.67C23.6667 15.5276 22.7312 16.7476 21.6346 17.4534Z" fill="black"/>
<path d="M9.97772 12.5044C9.33346 12.5044 8.81118 13.0263 8.81118 13.67C8.81118 14.3137 9.33346 14.8355 9.97772 14.8355H18.689C19.3332 14.8355 19.8555 14.3137 19.8555 13.67C19.8555 13.0263 19.3332 12.5044 18.689 12.5044H9.97772Z" fill="black"/>
</svg>
