<svg width="28" height="28" viewBox="0 0 28 28" fill="none" xmlns="http://www.w3.org/2000/svg">
<path d="M8.04548 13.5766C7.62664 13.5766 7.2871 13.9162 7.2871 14.335C7.2871 14.7538 7.62664 15.0934 8.04548 15.0934H10.9044C11.3232 15.0934 11.6627 14.7538 11.6627 14.335C11.6627 13.9162 11.3232 13.5766 10.9044 13.5766H8.04548Z" fill="black"/>
<path fill-rule="evenodd" clip-rule="evenodd" d="M18.9207 5C18.1797 5 17.579 5.60072 17.579 6.34174V9.00242H9.23727C9.16717 9.00242 9.08894 9.00763 9.00424 9.02331C7.59313 9.28469 5 10.7122 5 14.335V19.4698C5 20.2114 5.60137 20.8111 6.34174 20.8111H11.8613V22.3283C11.8613 23.0693 12.462 23.67 13.203 23.67H15.467C16.208 23.67 16.8087 23.0693 16.8087 22.3283V20.8111H22.3283C23.0693 20.8111 23.67 20.2104 23.67 19.4694V14.335C23.67 13.4317 23.372 12.1103 22.4717 10.9988C21.7398 10.0951 20.6435 9.37306 19.0957 9.10985V8.80385H22.3282C23.0692 8.80385 23.6699 8.20313 23.6699 7.46211V6.34174C23.6699 5.60072 23.0692 5 22.3282 5H18.9207ZM17.579 10.5192V14.9068C17.579 15.3256 17.9185 15.6652 18.3374 15.6652C18.7562 15.6652 19.0957 15.3256 19.0957 14.9068V10.6544C20.1536 10.8883 20.8422 11.3968 21.2931 11.9535C21.9366 12.7479 22.1532 13.7136 22.1532 14.335V19.2944H14.5216V14.335C14.5216 13.4876 14.3355 12.2105 13.7444 11.1158C13.6336 10.9105 13.5071 10.7099 13.364 10.5192H17.579ZM22.1532 7.2871H19.0957V6.51675H22.1532V7.2871ZM6.51675 14.335C6.51675 11.6629 8.34419 10.6988 9.25708 10.5192H10.3326C11.3542 10.5192 11.9895 11.0581 12.4098 11.8365C12.8478 12.6477 13.0048 13.6577 13.0048 14.335V19.2944H6.51675V14.335ZM15.2919 20.8111V22.1532H13.3781V20.8111H15.2919Z" fill="black"/>
</svg>
