<svg width="28" height="28" viewBox="0 0 28 28" fill="none" xmlns="http://www.w3.org/2000/svg">
<path fill-rule="evenodd" clip-rule="evenodd" d="M23.67 7.10604C23.67 5.59166 22.1202 4.61101 20.7415 5.1489L5.85422 10.9573C5.3391 11.1583 5 11.6545 5 12.2072V14.1902C5 14.7429 5.3391 15.2391 5.85422 15.44L8.03524 16.291C7.75428 16.8464 7.59646 17.4721 7.59646 18.1594C7.59646 20.5566 9.51633 22.5 11.8846 22.5C13.8281 22.5 15.4696 21.1913 15.996 19.3969L20.7415 21.2485C22.1202 21.7864 23.67 20.8057 23.67 19.2913V7.10604ZM21.2933 6.56178C21.7289 6.39181 22.1526 6.71444 22.1526 7.10604V19.2913C22.1526 19.6829 21.7289 20.0056 21.2933 19.8356L6.7031 14.1431C6.59112 14.0994 6.5174 13.9915 6.5174 13.8714V12.526C6.5174 12.4058 6.59112 12.298 6.7031 12.2543L21.2933 6.56178ZM14.5585 18.904L9.44672 16.868C9.22979 17.2519 9.11386 17.6821 9.11386 18.1594C9.11386 19.7371 10.3724 20.9833 11.8846 20.9833C13.1492 20.9833 14.2363 20.1119 14.5585 18.904Z" fill="black"/>
</svg>
