<svg width="28" height="28" viewBox="0 0 28 28" fill="none" xmlns="http://www.w3.org/2000/svg">
<path fill-rule="evenodd" clip-rule="evenodd" d="M23.6667 8.33333V20C23.6667 21.2887 22.622 22.3333 21.3333 22.3333H7.33333C6.04467 22.3333 5 21.2887 5 20V8.33333C5 7.04467 6.04467 6 7.33333 6H21.3333C22.622 6 23.6667 7.04467 23.6667 8.33333ZM6.51667 12.0083C6.51667 11.6862 6.77783 11.425 7.1 11.425H21.5667C21.8888 11.425 22.15 11.6862 22.15 12.0083V20C22.15 20.451 21.7844 20.8167 21.3333 20.8167H7.33333C6.8823 20.8167 6.51667 20.451 6.51667 20V12.0083ZM12.3881 9.7471C12.4375 9.84592 12.5385 9.90833 12.6489 9.90833H13.8011C14.0179 9.90833 14.1589 9.68016 14.0619 9.48623L13.1578 7.6779C13.1084 7.57908 13.0074 7.51667 12.8969 7.51667H11.7448C11.5279 7.51667 11.3869 7.74484 11.4839 7.93877L12.3881 9.7471ZM19.3881 9.7471C19.4375 9.84592 19.5385 9.90833 19.6489 9.90833H21.5667C21.8888 9.90833 22.15 9.64717 22.15 9.325V8.33333C22.15 7.8823 21.7844 7.51667 21.3333 7.51667H18.7448C18.5279 7.51667 18.3869 7.74484 18.4839 7.93877L19.3881 9.7471ZM17.3011 9.90833C17.5179 9.90833 17.6589 9.68016 17.5619 9.48623L16.6578 7.6779C16.6084 7.57908 16.5074 7.51667 16.3969 7.51667H15.2448C15.0279 7.51667 14.8869 7.74484 14.9839 7.93877L15.8881 9.7471C15.9375 9.84592 16.0385 9.90833 16.1489 9.90833H17.3011ZM10.3011 9.90833C10.5179 9.90833 10.6589 9.68016 10.5619 9.48623L9.65777 7.6779C9.60837 7.57908 9.50737 7.51667 9.3969 7.51667H7.33333C6.8823 7.51667 6.51667 7.8823 6.51667 8.33333V9.325C6.51667 9.64717 6.77783 9.90833 7.1 9.90833H10.3011Z" fill="black"/>
</svg>
