<svg width="28" height="28" viewBox="0 0 28 28" fill="none" xmlns="http://www.w3.org/2000/svg">
<path d="M5.75836 7C5.33952 7 5 7.33952 5 7.75833C5 8.17714 5.33952 8.51665 5.75836 8.51665H22.9083C23.3271 8.51665 23.6667 8.17714 23.6667 7.75833C23.6667 7.33952 23.3271 7 22.9083 7H5.75836Z" fill="black"/>
<path d="M5 13.5917C5 13.1729 5.33952 12.8333 5.75836 12.8333H22.9083C23.3271 12.8333 23.6667 13.1729 23.6667 13.5917C23.6667 14.0105 23.3271 14.35 22.9083 14.35H5.75836C5.33952 14.35 5 14.0105 5 13.5917Z" fill="black"/>
<path d="M5 19.425C5 19.0062 5.33952 18.6667 5.75836 18.6667H22.9083C23.3271 18.6667 23.6667 19.0062 23.6667 19.425C23.6667 19.8438 23.3271 20.1833 22.9083 20.1833H5.75836C5.33952 20.1833 5 19.8438 5 19.425Z" fill="black"/>
</svg>
