<svg width="28" height="28" viewBox="0 0 28 28" fill="none" xmlns="http://www.w3.org/2000/svg">
<path d="M8.5 11.25C8.5 10.6057 9.02233 10.0833 9.66667 10.0833H12C12.6443 10.0833 13.1667 10.6057 13.1667 11.25V14.1667C13.1667 14.811 12.6443 15.3333 12 15.3333H9.66667C9.02233 15.3333 8.5 14.811 8.5 14.1667V11.25Z" fill="black"/>
<path d="M14.9167 10.4917C14.4979 10.4917 14.1583 10.8312 14.1583 11.25C14.1583 11.6688 14.4979 12.0083 14.9167 12.0083H19.5833C20.0021 12.0083 20.3417 11.6688 20.3417 11.25C20.3417 10.8312 20.0021 10.4917 19.5833 10.4917H14.9167Z" fill="black"/>
<path d="M14.1583 14.1667C14.1583 13.7479 14.4979 13.4083 14.9167 13.4083H19.5833C20.0021 13.4083 20.3417 13.7479 20.3417 14.1667C20.3417 14.5855 20.0021 14.925 19.5833 14.925H14.9167C14.4979 14.925 14.1583 14.5855 14.1583 14.1667Z" fill="black"/>
<path d="M9.08333 16.9083C8.66452 16.9083 8.325 17.2479 8.325 17.6667C8.325 18.0855 8.66452 18.425 9.08333 18.425H19.5833C20.0021 18.425 20.3417 18.0855 20.3417 17.6667C20.3417 17.2479 20.0021 16.9083 19.5833 16.9083H9.08333Z" fill="black"/>
<path fill-rule="evenodd" clip-rule="evenodd" d="M7.33333 6C6.04467 6 5 7.04467 5 8.33333V20C5 21.2887 6.04467 22.3333 7.33333 22.3333H21.3333C22.622 22.3333 23.6667 21.2887 23.6667 20V8.33333C23.6667 7.04467 22.622 6 21.3333 6H7.33333ZM21.3333 7.51667H7.33333C6.8823 7.51667 6.51667 7.8823 6.51667 8.33333V20C6.51667 20.451 6.8823 20.8167 7.33333 20.8167H21.3333C21.7844 20.8167 22.15 20.451 22.15 20V8.33333C22.15 7.8823 21.7844 7.51667 21.3333 7.51667Z" fill="black"/>
</svg>
