<svg width="28" height="28" viewBox="0 0 28 28" fill="none" xmlns="http://www.w3.org/2000/svg">
<path fill-rule="evenodd" clip-rule="evenodd" d="M13.75 10.075C12.6869 10.075 11.825 10.9369 11.825 12V16.6667C11.825 17.7298 12.6869 18.5917 13.75 18.5917H14.9167C15.9798 18.5917 16.8417 17.7298 16.8417 16.6667V15.5C16.8417 14.4369 15.9798 13.575 14.9167 13.575H13.3417V12C13.3417 11.7745 13.5245 11.5917 13.75 11.5917H16.0833C16.5021 11.5917 16.8417 11.2521 16.8417 10.8333C16.8417 10.4145 16.5021 10.075 16.0833 10.075H13.75ZM13.3417 16.6667V15.0917H14.9167C15.1422 15.0917 15.325 15.2745 15.325 15.5V16.6667C15.325 16.8922 15.1422 17.075 14.9167 17.075H13.75C13.5245 17.075 13.3417 16.8922 13.3417 16.6667Z" fill="black"/>
<path fill-rule="evenodd" clip-rule="evenodd" d="M23.6667 14.3333C23.6667 19.488 19.488 23.6667 14.3333 23.6667C9.17868 23.6667 5 19.488 5 14.3333C5 9.17868 9.17868 5 14.3333 5C19.488 5 23.6667 9.17868 23.6667 14.3333ZM22.15 14.3333C22.15 18.6504 18.6504 22.15 14.3333 22.15C10.0163 22.15 6.51667 18.6504 6.51667 14.3333C6.51667 10.0163 10.0163 6.51667 14.3333 6.51667C18.6504 6.51667 22.15 10.0163 22.15 14.3333Z" fill="black"/>
</svg>
