<svg width="28" height="28" viewBox="0 0 28 28" fill="none" xmlns="http://www.w3.org/2000/svg">
<path d="M14.7375 6.51694C15.1562 6.51694 15.4956 6.17736 15.4956 5.75847C15.4956 5.33958 15.1562 5 14.7375 5H7.33235C6.04423 5 5 6.04486 5 7.33375V21.3363C5 22.6251 6.04423 23.67 7.33235 23.67H21.3264C22.6145 23.67 23.6588 22.6251 23.6588 21.3363V13.9266C23.6588 13.5077 23.3194 13.1681 22.9008 13.1681C22.4821 13.1681 22.1427 13.5077 22.1427 13.9266V21.3363C22.1427 21.7874 21.7773 22.1531 21.3264 22.1531H7.33235C6.8815 22.1531 6.51603 21.7874 6.51603 21.3363V7.33375C6.51603 6.88264 6.8815 6.51694 7.33235 6.51694H14.7375Z" fill="black"/>
<path d="M18.189 5C17.7703 5 17.431 5.33958 17.431 5.75847C17.431 6.17736 17.7703 6.51694 18.189 6.51694H21.082L14.5155 13.0873C14.2195 13.3835 14.2195 13.8638 14.5155 14.16C14.8116 14.4562 15.2915 14.4562 15.5875 14.16L22.154 7.58957V10.4843C22.154 10.9032 22.4933 11.2428 22.912 11.2428C23.3306 11.2428 23.67 10.9032 23.67 10.4843V5.75847C23.67 5.33958 23.3306 5 22.912 5H18.189Z" fill="black"/>
</svg>
