<svg width="28" height="28" viewBox="0 0 28 28" fill="none" xmlns="http://www.w3.org/2000/svg">
<path fill-rule="evenodd" clip-rule="evenodd" d="M11.9176 12.9083C11.5712 11.3399 10.1726 10.1667 8.5 10.1667C6.567 10.1667 5 11.7337 5 13.6667C5 15.5997 6.567 17.1667 8.5 17.1667C10.1726 17.1667 11.5712 15.9934 11.9176 14.425H13.2833C13.4444 14.425 13.575 14.5556 13.575 14.7167V18.3333C13.575 19.3965 14.4369 20.2583 15.5 20.2583H16.749C17.0955 21.8267 18.4941 23 20.1667 23C22.0997 23 23.6667 21.433 23.6667 19.5C23.6667 17.567 22.0997 16 20.1667 16C18.4941 16 17.0955 17.1733 16.749 18.7417H15.5C15.2745 18.7417 15.0917 18.5588 15.0917 18.3333V9C15.0917 8.77448 15.2745 8.59167 15.5 8.59167H16.749C17.0955 10.1601 18.4941 11.3333 20.1667 11.3333C22.0997 11.3333 23.6667 9.76633 23.6667 7.83333C23.6667 5.90034 22.0997 4.33333 20.1667 4.33333C18.4941 4.33333 17.0955 5.50658 16.749 7.075H15.5C14.4369 7.075 13.575 7.93685 13.575 9V12.6167C13.575 12.7778 13.4444 12.9083 13.2833 12.9083H11.9176ZM10.4833 13.6667C10.4833 12.5713 9.59536 11.6833 8.5 11.6833C7.40464 11.6833 6.51667 12.5713 6.51667 13.6667C6.51667 14.762 7.40464 15.65 8.5 15.65C9.59536 15.65 10.4833 14.762 10.4833 13.6667ZM20.1667 17.5167C21.262 17.5167 22.15 18.4046 22.15 19.5C22.15 20.5954 21.262 21.4833 20.1667 21.4833C19.0713 21.4833 18.1833 20.5954 18.1833 19.5C18.1833 18.4046 19.0713 17.5167 20.1667 17.5167ZM20.1667 5.85C21.262 5.85 22.15 6.73797 22.15 7.83333C22.15 8.9287 21.262 9.81667 20.1667 9.81667C19.0713 9.81667 18.1833 8.9287 18.1833 7.83333C18.1833 6.73797 19.0713 5.85 20.1667 5.85Z" fill="black"/>
</svg>
