<svg width="28" height="28" viewBox="0 0 28 28" fill="none" xmlns="http://www.w3.org/2000/svg">
<path d="M5.75836 5C5.33952 5 5 5.33958 5 5.75846V8.90904C5 9.32792 5.33952 9.6675 5.75836 9.6675C6.17713 9.6675 6.51665 9.32792 6.51665 8.90904V5.75846C6.51665 5.33958 6.17713 5 5.75836 5Z" fill="black"/>
<path d="M22.15 5.75846C22.15 5.33958 22.4895 5 22.9084 5C23.3271 5 23.6667 5.33958 23.6667 5.75846V22.9115C23.6667 23.3304 23.3271 23.67 22.9084 23.67C22.4895 23.67 22.15 23.3304 22.15 22.9115V5.75846Z" fill="black"/>
<path d="M10.6124 15.0935C10.5085 15.0935 10.4564 15.2191 10.5299 15.2927L14.3333 19.0967C14.6295 19.3929 14.6295 19.8732 14.3333 20.1694C14.0372 20.4656 13.557 20.4656 13.2609 20.1694L8.25248 15.1601C7.7969 14.7044 7.7969 13.9656 8.25248 13.5099L13.2609 8.50063C13.557 8.20442 14.0372 8.20442 14.3333 8.50063C14.6295 8.79681 14.6295 9.27705 14.3333 9.57326L10.5299 13.3773C10.4564 13.4508 10.5085 13.5765 10.6124 13.5765H19.4083C19.8271 13.5765 20.1667 13.9161 20.1667 14.335C20.1667 14.7539 19.8271 15.0935 19.4083 15.0935H10.6124Z" fill="black"/>
<path d="M5 19.761C5 19.3421 5.33952 19.0025 5.75836 19.0025C6.17713 19.0025 6.51665 19.3421 6.51665 19.761V22.9115C6.51665 23.3304 6.17713 23.67 5.75836 23.67C5.33952 23.67 5 23.3304 5 22.9115V19.761Z" fill="black"/>
<path d="M5.75836 10.8344C5.33952 10.8344 5 11.174 5 11.5928V17.0772C5 17.496 5.33952 17.8356 5.75836 17.8356C6.17713 17.8356 6.51665 17.496 6.51665 17.0772V11.5928C6.51665 11.174 6.17713 10.8344 5.75836 10.8344Z" fill="black"/>
</svg>
