<svg width="28" height="28" viewBox="0 0 28 28" fill="none" xmlns="http://www.w3.org/2000/svg">
<path fill-rule="evenodd" clip-rule="evenodd" d="M10.3333 5C9.04467 5 8 6.04467 8 7.33333V21.3333C8 22.622 9.04467 23.6667 10.3333 23.6667H17.3333C18.622 23.6667 19.6667 22.622 19.6667 21.3333V7.33333C19.6667 6.04467 18.622 5 17.3333 5H10.3333ZM14.7083 7.33333H12.9583C12.4751 7.33333 12.0833 7.72508 12.0833 8.20833C12.0833 8.69158 12.4751 9.08333 12.9583 9.08333H14.7083C15.1916 9.08333 15.5833 8.69158 15.5833 8.20833C15.5833 7.72508 15.1916 7.33333 14.7083 7.33333Z" fill="black"/>
</svg>
