<svg width="28" height="28" viewBox="0 0 28 28" fill="none" xmlns="http://www.w3.org/2000/svg">
<path fill-rule="evenodd" clip-rule="evenodd" d="M5 7.33333C5 6.04467 6.04467 5 7.33333 5H21.3333C22.622 5 23.6667 6.04467 23.6667 7.33333V21.3333C23.6667 22.622 22.622 23.6667 21.3333 23.6667H7.33333C6.04467 23.6667 5 22.622 5 21.3333V7.33333ZM13.1667 6.51667H15.5V14.9167C15.5 15.5461 15.8323 16.0979 16.331 16.4062C16.4263 16.4652 16.4917 16.5655 16.4917 16.6775V22.15H12.175V16.6775C12.175 16.5655 12.2404 16.4652 12.3357 16.4062C12.8344 16.0979 13.1667 15.5461 13.1667 14.9167V6.51667ZM18.0083 22.15H21.3333C21.7844 22.15 22.15 21.7844 22.15 21.3333V7.33333C22.15 6.8823 21.7844 6.51667 21.3333 6.51667H19V14.9167C19 15.5461 18.6677 16.0979 18.169 16.4062C18.0737 16.4652 18.0083 16.5655 18.0083 16.6775V22.15ZM10.4977 16.4062C10.593 16.4652 10.6583 16.5655 10.6583 16.6775V22.15H7.33333C6.8823 22.15 6.51667 21.7844 6.51667 21.3333V7.33333C6.51667 6.8823 6.8823 6.51667 7.33333 6.51667H9.66667V14.9167C9.66667 15.5461 9.99896 16.0979 10.4977 16.4062Z" fill="black"/>
</svg>
