<svg width="28" height="28" viewBox="0 0 28 28" fill="none" xmlns="http://www.w3.org/2000/svg">
<path fill-rule="evenodd" clip-rule="evenodd" d="M7.33333 7C6.04467 7 5 8.04467 5 9.33333V18.6667C5 19.9553 6.04467 21 7.33333 21H21.3333C22.622 21 23.6667 19.9553 23.6667 18.6667V9.33333C23.6667 8.04467 22.622 7 21.3333 7H7.33333ZM7.33333 10.5C7.33333 9.85567 7.85567 9.33333 8.5 9.33333H20.1667C20.811 9.33333 21.3333 9.85567 21.3333 10.5V12.8333C21.3333 13.4777 20.811 14 20.1667 14H8.5C7.85567 14 7.33333 13.4777 7.33333 12.8333V10.5ZM9.14167 10.85C8.98058 10.85 8.85 10.9806 8.85 11.1417V12.1917C8.85 12.3527 8.98058 12.4833 9.14167 12.4833H19.525C19.6861 12.4833 19.8167 12.3527 19.8167 12.1917V11.1417C19.8167 10.9806 19.6861 10.85 19.525 10.85H9.14167ZM8.09167 16.5083H12.9917C13.4105 16.5083 13.75 16.1688 13.75 15.75C13.75 15.3312 13.4105 14.9917 12.9917 14.9917H8.09167C7.67285 14.9917 7.33333 15.3312 7.33333 15.75C7.33333 16.1688 7.67285 16.5083 8.09167 16.5083ZM15.5 14.875C14.8557 14.875 14.3333 15.3973 14.3333 16.0417V17.7917C14.3333 18.436 14.8557 18.9583 15.5 18.9583H20.1667C20.811 18.9583 21.3333 18.436 21.3333 17.7917V16.0417C21.3333 15.3973 20.811 14.875 20.1667 14.875H15.5ZM16.0892 17.4417C15.9571 17.4417 15.85 17.3346 15.85 17.2025V16.6308C15.85 16.4987 15.9571 16.3917 16.0892 16.3917H19.5775C19.7096 16.3917 19.8167 16.4987 19.8167 16.6308V17.2025C19.8167 17.3346 19.7096 17.4417 19.5775 17.4417H16.0892ZM12.9917 18.8417H8.09167C7.67285 18.8417 7.33333 18.5021 7.33333 18.0833C7.33333 17.6645 7.67285 17.325 8.09167 17.325H12.9917C13.4105 17.325 13.75 17.6645 13.75 18.0833C13.75 18.5021 13.4105 18.8417 12.9917 18.8417Z" fill="black"/>
</svg>
