<svg width="28" height="28" viewBox="0 0 28 28" fill="none" xmlns="http://www.w3.org/2000/svg">
<path fill-rule="evenodd" clip-rule="evenodd" d="M8.5 8.5V7.33333C8.5 6.04467 9.54467 5 10.8333 5H17.8333C19.122 5 20.1667 6.04467 20.1667 7.33333V8.5H21.3333C22.622 8.5 23.6667 9.54467 23.6667 10.8333V17.8333C23.6667 19.122 22.622 20.1667 21.3333 20.1667H20.4583C20.2972 20.1667 20.1667 20.2972 20.1667 20.4583V22.5C20.1667 23.1443 19.6443 23.6667 19 23.6667H9.66667C9.02233 23.6667 8.5 23.1443 8.5 22.5V20.4583C8.5 20.2972 8.36942 20.1667 8.20833 20.1667H7.33333C6.04467 20.1667 5 19.122 5 17.8333V10.8333C5 9.54467 6.04467 8.5 7.33333 8.5H8.5ZM10.0167 7.68333C10.0167 7.039 10.539 6.51667 11.1833 6.51667H17.4833C18.1277 6.51667 18.65 7.039 18.65 7.68333V8.20833C18.65 8.36942 18.5194 8.5 18.3583 8.5H10.3083C10.1473 8.5 10.0167 8.36942 10.0167 8.20833V7.68333ZM18.0667 22.15C18.3888 22.15 18.65 21.8888 18.65 21.5667V16.4333C18.65 16.1112 18.3888 15.85 18.0667 15.85H10.6C10.2778 15.85 10.0167 16.1112 10.0167 16.4333V21.5667C10.0167 21.8888 10.2778 22.15 10.6 22.15H18.0667Z" fill="black"/>
</svg>
