<svg width="28" height="28" viewBox="0 0 28 28" fill="none" xmlns="http://www.w3.org/2000/svg">
<path d="M13.2543 7.85934C13.2543 8.30628 12.892 8.66859 12.4451 8.66859C11.9981 8.66859 11.6358 8.30628 11.6358 7.85934C11.6358 7.41241 11.9981 7.0501 12.4451 7.0501C12.892 7.0501 13.2543 7.41241 13.2543 7.85934Z" fill="black"/>
<path d="M17.0308 20.8073C17.0308 21.2543 16.6685 21.6166 16.2216 21.6166C15.7746 21.6166 15.4123 21.2543 15.4123 20.8073C15.4123 20.3604 15.7746 19.9981 16.2216 19.9981C16.6685 19.9981 17.0308 20.3604 17.0308 20.8073Z" fill="black"/>
<path fill-rule="evenodd" clip-rule="evenodd" d="M11.6164 5.33586C12.5352 5.06536 13.5341 5 13.9485 5C14.8284 5 15.9061 5.17165 16.622 5.28566C16.7387 5.30425 16.8459 5.32132 16.9409 5.33585C16.9596 5.3387 16.9781 5.3423 16.9964 5.34664C18.7422 5.75967 19.3083 7.13695 19.3496 7.87483C19.3503 7.88786 19.3507 7.90092 19.3507 7.91398V9.31599H20.5737C21.7989 9.31599 22.5451 10.1171 22.956 10.8377C23.3655 11.5557 23.5274 12.3246 23.5745 12.6057C23.5912 12.705 23.602 12.8805 23.6106 13.0424C23.6202 13.2252 23.6296 13.454 23.6379 13.6964C23.6543 14.18 23.6667 14.7318 23.6667 15.0982C23.6667 15.1099 23.6664 15.1217 23.6658 15.1334C23.5929 16.5812 23.1304 17.5851 22.5042 18.2371C21.8894 18.8772 21.1524 19.1386 20.5994 19.159C20.5909 19.1593 20.5823 19.1595 20.5737 19.1595L19.1307 19.1603V21.2444C19.1307 21.8853 18.7959 22.3622 18.3903 22.6846C17.9994 22.9954 17.5074 23.1962 17.0502 23.3308C16.1315 23.6013 15.1326 23.6667 14.7182 23.6667C13.8383 23.6667 12.7605 23.495 12.0447 23.381C11.9279 23.3624 11.8208 23.3453 11.7257 23.3308C11.7071 23.328 11.6886 23.3244 11.6702 23.32C9.92447 22.907 9.35834 21.5297 9.31709 20.7918C9.31636 20.7788 9.31599 20.7657 9.31599 20.7527V19.3507H8.09301C6.86774 19.3507 6.12158 18.5496 5.71064 17.829C5.30115 17.1109 5.13927 16.3421 5.09213 16.061C5.07547 15.9617 5.06464 15.7862 5.05609 15.6242C5.04644 15.4414 5.03703 15.2127 5.02878 14.9702C5.01232 14.4867 5 13.9349 5 13.5685C5 13.5567 5.0003 13.545 5.00089 13.5332C5.07373 12.0855 5.53628 11.0815 6.16249 10.4295C6.77722 9.78949 7.5143 9.52803 8.06722 9.50768C8.07581 9.50737 8.08441 9.50721 8.09301 9.50721L9.53591 9.50641V7.42228C9.53591 6.78135 9.87073 6.30449 10.2763 5.98207C10.6673 5.67128 11.1593 5.47046 11.6164 5.33586ZM10.9386 8.93356H14.4433C14.8306 8.93356 15.1446 9.24757 15.1446 9.63491V10.2086C15.1446 10.5959 14.8306 10.9099 14.4433 10.9099H8.10838C7.91535 10.9203 7.53018 11.0305 7.17416 11.4012C6.82482 11.7649 6.46449 12.4226 6.40271 13.5864C6.4031 13.9307 6.41474 14.4547 6.43066 14.9225C6.43874 15.1599 6.44781 15.3793 6.45684 15.5503C6.46136 15.636 6.46574 15.7069 6.46979 15.7605C6.47269 15.799 6.47481 15.8198 6.47563 15.8278C6.47613 15.8327 6.47613 15.8327 6.47551 15.829C6.51084 16.0396 6.63761 16.6229 6.92913 17.1341C7.21919 17.6428 7.58639 17.948 8.09301 17.948H8.95862V16.3547C8.95862 15.8488 9.1161 15.1149 9.6008 14.4905C10.1105 13.834 10.9373 13.3588 12.1341 13.3588H16.5562C16.7843 13.3355 17.1407 13.2287 17.4303 12.9902C17.7035 12.7653 17.948 12.4014 17.948 11.7656V7.93782C17.9258 7.67994 17.6825 6.96179 16.6991 6.71786C16.5982 6.70233 16.4905 6.68528 16.3776 6.66741C15.6499 6.55221 14.7054 6.4027 13.9485 6.4027C13.6206 6.4027 12.7639 6.46026 12.0126 6.68145C11.6347 6.79271 11.3381 6.92992 11.1492 7.0801C10.9749 7.21864 10.9386 7.32567 10.9386 7.42228V8.93356ZM17.7281 19.7331H14.2234C13.836 19.7331 13.522 19.4191 13.522 19.0318V18.4581C13.522 18.0708 13.836 17.7568 14.2234 17.7568H20.5583C20.7513 17.7463 21.1365 17.6362 21.4925 17.2655C21.8418 16.9017 22.2022 16.2441 22.264 15.0803C22.2636 14.736 22.2519 14.212 22.236 13.7441C22.2279 13.5068 22.2189 13.2874 22.2098 13.1164C22.2053 13.0306 22.2009 12.9598 22.1969 12.9062C22.194 12.8677 22.1919 12.8469 22.191 12.8389C22.1908 12.8369 22.1907 12.8357 22.1907 12.8352C22.1906 12.8346 22.1908 12.8355 22.1912 12.8377C22.1558 12.627 22.0291 12.0437 21.7375 11.5326C21.4475 11.0239 21.0803 10.7187 20.5737 10.7187H19.708V12.3119C19.708 12.8178 19.5506 13.5518 19.0659 14.1761C18.5561 14.8327 17.7293 15.3078 16.5326 15.3078H12.1105C11.8824 15.3312 11.526 15.4379 11.2364 15.6765C10.9632 15.9014 10.7187 16.2653 10.7187 16.9011V20.7288C10.7409 20.9867 10.9842 21.7049 11.9676 21.9488C12.0682 21.9643 12.1765 21.9814 12.2891 21.9993C13.0168 22.1145 13.9613 22.264 14.7182 22.264C15.0461 22.264 15.9028 22.2064 16.6541 21.9852C17.0319 21.874 17.3286 21.7367 17.5175 21.5866C17.6918 21.448 17.7281 21.341 17.7281 21.2444L17.7281 19.7331Z" fill="black"/>
</svg>
