<svg width="28" height="28" viewBox="0 0 28 28" fill="none" xmlns="http://www.w3.org/2000/svg">
<path d="M6.51667 10.8333C6.51667 13.2174 8.4493 15.15 10.8333 15.15V16.6667C7.61167 16.6667 5 14.055 5 10.8333C5 7.61167 7.61167 5 10.8333 5C14.055 5 16.6667 7.61167 16.6667 10.8333H15.15C15.15 8.4493 13.2174 6.51667 10.8333 6.51667C8.4493 6.51667 6.51667 8.4493 6.51667 10.8333Z" fill="black"/>
<path fill-rule="evenodd" clip-rule="evenodd" d="M12 14.3333C12 13.0447 13.0447 12 14.3333 12H21.3333C22.622 12 23.6667 13.0447 23.6667 14.3333V21.3333C23.6667 22.622 22.622 23.6667 21.3333 23.6667H14.3333C13.0447 23.6667 12 22.622 12 21.3333V14.3333ZM14.3333 13.5167H21.3333C21.7844 13.5167 22.15 13.8823 22.15 14.3333V21.3333C22.15 21.7844 21.7844 22.15 21.3333 22.15H14.3333C13.8823 22.15 13.5167 21.7844 13.5167 21.3333V14.3333C13.5167 13.8823 13.8823 13.5167 14.3333 13.5167Z" fill="black"/>
</svg>
