<svg width="28" height="28" viewBox="0 0 28 28" fill="none" xmlns="http://www.w3.org/2000/svg">
<path fill-rule="evenodd" clip-rule="evenodd" d="M7.33333 17.8333H10.8333V21.3333C10.8333 22.622 11.878 23.6667 13.1667 23.6667H21.3333C22.622 23.6667 23.6667 22.622 23.6667 21.3333V13.1667C23.6667 11.878 22.622 10.8333 21.3333 10.8333H17.8333V7.33333C17.8333 6.04467 16.7887 5 15.5 5H7.33333C6.04467 5 5 6.04467 5 7.33333V15.5C5 16.7887 6.04467 17.8333 7.33333 17.8333ZM15.5 6.51667H7.33333C6.8823 6.51667 6.51667 6.8823 6.51667 7.33333V15.5C6.51667 15.951 6.8823 16.3167 7.33333 16.3167H10.8333V13.1667C10.8333 11.878 11.878 10.8333 13.1667 10.8333H16.3167V7.33333C16.3167 6.8823 15.951 6.51667 15.5 6.51667ZM21.3333 12.35H17.8333V15.5C17.8333 16.7887 16.7887 17.8333 15.5 17.8333H12.35V21.3333C12.35 21.7844 12.7156 22.15 13.1667 22.15H21.3333C21.7844 22.15 22.15 21.7844 22.15 21.3333V13.1667C22.15 12.7156 21.7844 12.35 21.3333 12.35ZM15.4917 12.35L12.35 15.4917V14.8083L14.8083 12.35H15.4917ZM12.35 13.1583L13.1583 12.35C12.7139 12.3545 12.3545 12.7139 12.35 13.1583ZM16.3167 13.175L13.175 16.3167H13.8584L16.3167 13.8584V13.175ZM16.3166 15.5083L15.5083 16.3166C15.9528 16.3122 16.3122 15.9528 16.3166 15.5083Z" fill="black"/>
</svg>
