<svg width="28" height="28" viewBox="0 0 28 28" fill="none" xmlns="http://www.w3.org/2000/svg">
<path d="M8.15683 5C6.41336 5 5 6.40171 5 8.1308V20.5359C5 22.265 6.41336 23.6667 8.15683 23.6667H19.4738C21.2172 23.6667 22.6306 22.265 22.6306 20.5359V18.7637C22.6306 18.3396 22.2839 17.9958 21.8563 17.9958C21.4286 17.9958 21.082 18.3396 21.082 18.7637V20.5359C21.082 21.4167 20.3619 22.1308 19.4738 22.1308H8.15683C7.26865 22.1308 6.54863 21.4167 6.54863 20.5359V8.1308C6.54863 7.24994 7.26865 6.53586 8.15683 6.53586H12.9219C13.3495 6.53586 13.6962 6.19205 13.6962 5.76793C13.6962 5.34382 13.3495 5 12.9219 5H8.15683Z" fill="black"/>
<path d="M15.5426 13.5918C16.0922 13.5158 16.6158 13.4709 17.0913 13.4473V14.8137C17.0913 15.8542 18.3493 16.3866 19.1067 15.6667L23.2996 11.6816C23.8044 11.2019 23.786 10.3961 23.2599 9.93952L19.067 6.30099C18.2967 5.63258 17.0913 6.17507 17.0913 7.19011V8.72152C11.2187 8.72152 8.83356 12.0579 7.97004 15.5866C7.86313 16.3893 7.99787 17.6582 9.39215 16.3117C11.0148 14.6105 13.4644 13.8792 15.5426 13.5918Z" fill="black"/>
</svg>
