<svg width="28" height="28" viewBox="0 0 28 28" fill="none" xmlns="http://www.w3.org/2000/svg">
<path d="M15.2785 22.3333C9.65237 22.3333 6.08195 18.4695 5 16.5376C9.32778 19.4882 13.6556 18.4695 15.2785 17.5914C14.0321 17.1867 9.36205 11.8938 6.91648 8.98491C6.79641 8.86057 6.69739 8.7432 6.62292 8.63441C6.71664 8.74676 6.81464 8.86377 6.91648 8.98491C8.19204 10.3058 11.8427 12.4132 13.6556 13.3763C13.2389 12.9705 10.7832 9.60206 9.47439 7.78443C9.40549 7.70384 9.35591 7.63542 9.32778 7.58065C9.37481 7.64608 9.42374 7.71409 9.47439 7.78443C10.4658 8.94411 15.4542 12.6237 17.9834 14.4301C19.7145 12.3226 17.6227 7.9319 16.3604 6C21.9866 8.95054 22.6718 14.957 22.3111 17.5914C24.0423 18.4344 23.7537 21.1039 23.3931 22.3333C22.5275 20.2258 20.8685 20.4014 20.1472 20.7527C18.8489 22.0172 16.3604 22.3333 15.2785 22.3333Z" fill="black"/>
</svg>
