<svg width="28" height="28" viewBox="0 0 28 28" fill="none" xmlns="http://www.w3.org/2000/svg">
<path d="M6 6.14519C6 5.51272 6.54983 5 7.22807 5H21.1053C21.7835 5 22.3333 5.51272 22.3333 6.14519V7.86299C22.3333 8.27409 21.9759 8.60736 21.5351 8.60736C21.0942 8.60736 20.7368 8.27409 20.7368 7.86299V6.77505C20.7368 6.61693 20.5994 6.48875 20.4298 6.48875H15.2719C15.1024 6.48875 14.9649 6.61693 14.9649 6.77505V21.8916C14.9649 22.0497 15.1024 22.1779 15.2719 22.1779H17.0526C17.4935 22.1779 17.8509 22.5112 17.8509 22.9223C17.8509 23.3334 17.4935 23.6667 17.0526 23.6667H11.2807C10.8398 23.6667 10.4825 23.3334 10.4825 22.9223C10.4825 22.5112 10.8398 22.1779 11.2807 22.1779H13.0614C13.231 22.1779 13.3684 22.0497 13.3684 21.8916V6.77505C13.3684 6.61693 13.231 6.48875 13.0614 6.48875H7.90351C7.73395 6.48875 7.59649 6.61693 7.59649 6.77505V7.86299C7.59649 8.27409 7.2391 8.60736 6.79825 8.60736C6.35739 8.60736 6 8.27409 6 7.86299V6.14519Z" fill="black"/>
</svg>
