<svg width="28" height="28" viewBox="0 0 28 28" fill="none" xmlns="http://www.w3.org/2000/svg">
<path fill-rule="evenodd" clip-rule="evenodd" d="M13.138 14.9917C13.2691 14.6875 13.3417 14.3522 13.3417 14C13.3417 12.6147 12.2186 11.4917 10.8333 11.4917C9.44802 11.4917 8.325 12.6147 8.325 14C8.325 15.3853 9.44802 16.5083 10.8333 16.5083H17.8333C19.2186 16.5083 20.3417 15.3853 20.3417 14C20.3417 12.6147 19.2186 11.4917 17.8333 11.4917C16.448 11.4917 15.325 12.6147 15.325 14C15.325 14.3522 15.3976 14.6875 15.5287 14.9917H13.138ZM9.84167 14C9.84167 13.4523 10.2857 13.0083 10.8333 13.0083C11.381 13.0083 11.825 13.4523 11.825 14C11.825 14.5477 11.381 14.9917 10.8333 14.9917C10.2857 14.9917 9.84167 14.5477 9.84167 14ZM17.8333 14.9917C18.381 14.9917 18.825 14.5477 18.825 14C18.825 13.4523 18.381 13.0083 17.8333 13.0083C17.2857 13.0083 16.8417 13.4523 16.8417 14C16.8417 14.5477 17.2857 14.9917 17.8333 14.9917Z" fill="black"/>
<path fill-rule="evenodd" clip-rule="evenodd" d="M5 9.33333C5 8.04467 6.04467 7 7.33333 7H21.3333C22.622 7 23.6667 8.04467 23.6667 9.33333V18.6667C23.6667 19.9553 22.622 21 21.3333 21H7.33333C6.04467 21 5 19.9553 5 18.6667V9.33333ZM7.33333 8.51667H21.3333C21.7844 8.51667 22.15 8.8823 22.15 9.33333V18.6667C22.15 19.1177 21.7844 19.4833 21.3333 19.4833H7.33333C6.8823 19.4833 6.51667 19.1177 6.51667 18.6667V9.33333C6.51667 8.8823 6.8823 8.51667 7.33333 8.51667Z" fill="black"/>
</svg>
