<svg width="48" height="48" viewBox="0 0 48 48" fill="none" xmlns="http://www.w3.org/2000/svg">
<path fill-rule="evenodd" clip-rule="evenodd" d="M40 24C40 32.8365 32.8365 40 24 40H10C8.89543 40 8 39.1046 8 38V24C8 15.1635 15.1635 8 24 8C32.8365 8 40 15.1635 40 24ZM25.3 17C25.3 16.282 24.718 15.7 24 15.7C23.282 15.7 22.7 16.282 22.7 17V22.7H17C16.282 22.7 15.7 23.282 15.7 24C15.7 24.718 16.282 25.3 17 25.3H22.7V31C22.7 31.718 23.282 32.3 24 32.3C24.718 32.3 25.3 31.718 25.3 31V25.3H31C31.718 25.3 32.3 24.718 32.3 24C32.3 23.282 31.718 22.7 31 22.7H25.3V17Z" fill="black"/>
</svg>
