<svg width="48" height="48" viewBox="0 0 48 48" fill="none" xmlns="http://www.w3.org/2000/svg">
<path d="M15.3 27.4C14.582 27.4 14 27.982 14 28.7C14 29.418 14.582 30 15.3 30H18.7C19.418 30 20 29.418 20 28.7C20 27.982 19.418 27.4 18.7 27.4H15.3Z" fill="black"/>
<path fill-rule="evenodd" clip-rule="evenodd" d="M12 12C9.79086 12 8 13.7909 8 16V32C8 34.2091 9.79086 36 12 36H36C38.2091 36 40 34.2091 40 32V16C40 13.7909 38.2091 12 36 12H12ZM36 14.6H12C11.2268 14.6 10.6 15.2268 10.6 16V18.7H37.4V16C37.4 15.2268 36.7732 14.6 36 14.6ZM10.6 32V21.3H37.4V32C37.4 32.7732 36.7732 33.4 36 33.4H12C11.2268 33.4 10.6 32.7732 10.6 32Z" fill="black"/>
</svg>
