<svg width="32" height="32" viewBox="0 0 32 32" fill="none" xmlns="http://www.w3.org/2000/svg">
<path fill-rule="evenodd" clip-rule="evenodd" d="M16 26.3333C20.4183 26.3333 24 22.1132 24 16.9074C24 12.4264 18.0725 6.68033 16.422 5.16719C16.1789 4.94427 15.8211 4.94427 15.578 5.16719C13.9275 6.68033 8 12.4264 8 16.9074C8 22.1132 11.5817 26.3333 16 26.3333ZM20.8667 18.1239C20.8667 17.6452 20.4786 17.2572 20 17.2572C19.5214 17.2572 19.1333 17.6452 19.1333 18.1239C19.1333 18.6518 18.9678 19.4631 18.4967 20.1175C18.0573 20.7276 17.3175 21.2572 16 21.2572C15.5214 21.2572 15.1333 21.6452 15.1333 22.1239C15.1333 22.6025 15.5214 22.9905 16 22.9905C17.8825 22.9905 19.1427 22.1868 19.9033 21.1303C20.6322 20.1179 20.8667 18.9292 20.8667 18.1239Z" fill="black"/>
</svg>
