<svg width="32" height="32" viewBox="0 0 32 32" fill="none" xmlns="http://www.w3.org/2000/svg">
<path d="M14.5333 13.6667C14.5333 13.472 14.5989 13.1608 14.77 12.9231C14.9093 12.7296 15.1491 12.5333 15.6667 12.5333C16.1842 12.5333 16.424 12.7296 16.5633 12.9231C16.7345 13.1608 16.8 13.472 16.8 13.6667C16.8 13.8613 16.7345 14.1726 16.5633 14.4103C16.424 14.6038 16.1842 14.8 15.6667 14.8H15.1667C14.688 14.8 14.3 15.188 14.3 15.6667C14.3 16.1453 14.688 16.5333 15.1667 16.5333H15.6667C15.8613 16.5333 16.1726 16.5989 16.4103 16.77C16.6038 16.9093 16.8 17.1491 16.8 17.6667C16.8 18.1842 16.6038 18.424 16.4103 18.5633C16.1726 18.7345 15.8613 18.8 15.6667 18.8C15.472 18.8 15.1608 18.7345 14.9231 18.5633C14.7296 18.424 14.5333 18.1842 14.5333 17.6667C14.5333 17.188 14.1453 16.8 13.6667 16.8C13.188 16.8 12.8 17.188 12.8 17.6667C12.8 18.7491 13.2704 19.5093 13.9103 19.97C14.5059 20.3989 15.1946 20.5333 15.6667 20.5333C16.1387 20.5333 16.8274 20.3989 17.4231 19.97C18.0629 19.5093 18.5333 18.7491 18.5333 17.6667C18.5333 16.7939 18.2275 16.1306 17.7736 15.6649C17.8443 15.5877 17.9097 15.5068 17.97 15.4231C18.3989 14.8274 18.5333 14.1387 18.5333 13.6667C18.5333 13.1946 18.3989 12.5059 17.97 11.9103C17.5093 11.2704 16.7491 10.8 15.6667 10.8C14.5842 10.8 13.824 11.2704 13.3633 11.9103C12.9345 12.5059 12.8 13.1946 12.8 13.6667C12.8 14.1453 13.188 14.5333 13.6667 14.5333C14.1453 14.5333 14.5333 14.1453 14.5333 13.6667Z" fill="black"/>
<path fill-rule="evenodd" clip-rule="evenodd" d="M26.3333 15.6667C26.3333 21.5577 21.5577 26.3333 15.6667 26.3333C9.77563 26.3333 5 21.5577 5 15.6667C5 9.77563 9.77563 5 15.6667 5C21.5577 5 26.3333 9.77563 26.3333 15.6667ZM24.6 15.6667C24.6 20.6004 20.6004 24.6 15.6667 24.6C10.7329 24.6 6.73333 20.6004 6.73333 15.6667C6.73333 10.7329 10.7329 6.73333 15.6667 6.73333C20.6004 6.73333 24.6 10.7329 24.6 15.6667Z" fill="black"/>
</svg>
