<svg width="32" height="32" viewBox="0 0 32 32" fill="none" xmlns="http://www.w3.org/2000/svg">
<path d="M22.3333 15.6663H23.6667C24.0283 15.6663 24.373 15.7383 24.6874 15.8687L24.1767 17.1003C24.0213 17.0359 23.8499 16.9997 23.6667 16.9997H22.3333V15.6663Z" fill="black"/>
<path d="M26.3333 23.6663V22.333H25V23.6663C25 23.8496 24.9638 24.021 24.8994 24.1764L26.131 24.6871C26.2614 24.3727 26.3333 24.0279 26.3333 23.6663Z" fill="black"/>
<path d="M17 26.333H19.6667V24.9997H17V26.333Z" fill="black"/>
<path d="M22.3333 26.333H23.6667C24.0283 26.333 24.373 26.261 24.6874 26.1307L24.1767 24.899C24.0213 24.9635 23.8499 24.9997 23.6667 24.9997H22.3333V26.333Z" fill="black"/>
<path d="M26.3333 19.6663V18.333C26.3333 17.9714 26.2614 17.6267 26.131 17.3122L24.8994 17.823C24.9638 17.9783 25 18.1498 25 18.333V19.6663H26.3333Z" fill="black"/>
<path d="M19.6667 15.6663H17V16.9997H19.6667V15.6663Z" fill="black"/>
<path fill-rule="evenodd" clip-rule="evenodd" d="M13 4.99967C14.4728 4.99967 15.6667 6.19358 15.6667 7.66634L15.6667 23.6663C15.6667 25.1391 14.4728 26.333 13 26.333H7.66668C6.19392 26.333 5.00001 25.1391 5.00001 23.6663V7.66634C5.00001 6.19358 6.19392 4.99967 7.66667 4.99967H13Z" fill="black"/>
<path d="M21.415 11.2691L21.6896 11.4189C21.5683 10.9743 21.3915 10.5219 21.1457 10.1122C20.6081 9.2161 19.7566 8.53301 18.3333 8.53301C17.8547 8.53301 17.4667 8.14499 17.4667 7.66634C17.4667 7.18769 17.8547 6.79967 18.3333 6.79967C20.4657 6.79967 21.8364 7.89436 22.6321 9.22044C22.851 9.58531 23.0273 9.96788 23.1676 10.3516C23.4114 10.1802 23.7373 10.1393 24.0278 10.2724C24.4629 10.4719 24.654 10.9863 24.4545 11.4214L23.4763 13.5557C23.3153 13.907 22.8903 14.0482 22.551 13.8632L20.585 12.7908C20.1648 12.5616 20.01 12.0352 20.2392 11.615C20.4684 11.1948 20.9948 11.0399 21.415 11.2691Z" fill="black"/>
</svg>
