<svg width="24" height="24" viewBox="0 0 24 24" fill="none" xmlns="http://www.w3.org/2000/svg">
<path fill-rule="evenodd" clip-rule="evenodd" d="M5.3 16.5814C5.3 16.3053 5.52386 16.0814 5.8 16.0814H18.289C19.6 16.0814 20.534 14.6166 19.6486 13.4762L17.1196 10.2186C17.0349 10.1095 17.0349 9.97197 17.1196 9.86283L19.6486 6.60521C20.534 5.46478 19.6 4 18.289 4H5.69624C4.80005 4 4 4.69052 4 5.63013V19.3519C4 19.7109 4.29101 20.0019 4.65 20.0019C5.00899 20.0019 5.3 19.7109 5.3 19.3519V16.5814ZM5.69624 5.3C5.43678 5.3 5.3 5.48712 5.3 5.63013V14.2814C5.3 14.5576 5.52386 14.7814 5.8 14.7814H18.289C18.4739 14.7814 18.5944 14.6885 18.6503 14.5856C18.7038 14.4872 18.7033 14.3785 18.6217 14.2734L16.0927 11.0158C15.6439 10.4376 15.6439 9.64385 16.0927 9.06563L18.6217 5.80802C18.7033 5.70294 18.7038 5.59423 18.6503 5.49579C18.5944 5.39296 18.4739 5.3 18.289 5.3H5.69624Z" fill="black"/>
</svg>
