<svg width="28" height="28" viewBox="0 0 28 28" fill="none" xmlns="http://www.w3.org/2000/svg">
<path fill-rule="evenodd" clip-rule="evenodd" d="M11.3377 7.85934C11.3377 6.28017 12.6043 5 14.1667 5C15.7291 5 16.9956 6.28017 16.9956 7.85934C16.9956 8.51485 16.7774 9.11883 16.4104 9.60112L20.3525 8.27298C20.4232 8.24915 20.4973 8.23699 20.5719 8.23699C20.9129 8.23699 21.3638 8.30286 21.7393 8.60648C22.1444 8.93401 22.3333 9.43095 22.3333 10.0173C22.3333 10.7975 21.8341 11.2567 21.4627 11.4819C21.2736 11.5966 21.0905 11.6699 20.9581 11.7145C20.8907 11.7372 20.8333 11.7535 20.7906 11.7646C20.7691 11.7702 20.7512 11.7745 20.7373 11.7777L20.73 11.7793L16.9956 12.7229V16.3563L19.0811 21.6258C19.1139 21.7087 19.1307 21.7971 19.1307 21.8863C19.1307 22.1784 19.0497 22.6009 18.7864 22.9705C18.4977 23.3759 18.0225 23.6667 17.3693 23.6667C16.4453 23.6667 15.7039 23.2614 15.6165 22.5658L14.149 18.1162C13.9664 18.5519 13.7198 19.269 13.466 20.0648C13.1664 21.0043 12.8752 21.9946 12.6989 22.6183C12.6989 22.6183 12.6981 22.6211 12.6964 22.6285L12.6879 22.6677C12.6809 22.6999 12.6677 22.7614 12.6462 22.8283C12.5975 22.9798 12.5051 23.1669 12.3156 23.3257C11.9845 23.6034 11.5056 23.6667 10.9641 23.6667C10.4715 23.6667 10.037 23.4248 9.73946 23.1241C9.44191 22.8233 9.20261 22.3842 9.20261 21.8863C9.20261 21.7971 9.21946 21.7087 9.25224 21.6258L11.3377 16.3563V12.7229L7.59314 11.7767C7.57317 11.7717 7.55344 11.7658 7.53399 11.7589L7.76144 11.0963C7.53399 11.7589 7.53419 11.759 7.53399 11.7589L7.5323 11.7583L7.53019 11.7576L7.5248 11.7557L7.5094 11.75C7.49715 11.7454 7.48098 11.7393 7.46143 11.7315C7.42244 11.716 7.36939 11.6938 7.30685 11.665C7.18369 11.6083 7.01429 11.5214 6.84005 11.4028C6.5376 11.1969 6 10.7441 6 10.0173C6 8.85627 6.91657 8.23699 7.76144 8.23699C7.83602 8.23699 7.91011 8.24915 7.98087 8.27298L11.923 9.60112C11.5559 9.11883 11.3377 8.51485 11.3377 7.85934ZM14.1667 6.4027C13.3707 6.4027 12.7255 7.05486 12.7255 7.85934C12.7255 8.66383 13.3707 9.31599 14.1667 9.31599C14.9626 9.31599 15.6078 8.66383 15.6078 7.85934C15.6078 7.05486 14.9626 6.4027 14.1667 6.4027ZM7.99195 10.4348C7.99203 10.4349 7.9912 10.4346 7.9895 10.4339L7.99195 10.4348ZM7.96814 10.4256C7.9487 10.4179 7.91897 10.4055 7.88242 10.3887C7.80542 10.3532 7.70793 10.3024 7.61528 10.2394C7.40752 10.0979 7.38946 10.0136 7.38793 10.0139C7.38776 10.014 7.3878 10.0151 7.3878 10.0173C7.3878 9.8587 7.44146 9.78051 7.49112 9.73544C7.53564 9.69503 7.59923 9.66269 7.67381 9.64811L12.3009 11.207C13.534 11.8147 14.7993 11.8147 16.0325 11.207L20.6719 9.64395C20.7946 9.65514 20.8523 9.68561 20.8724 9.7018C20.88 9.70798 20.8929 9.71974 20.9072 9.75434C20.9232 9.79321 20.9455 9.87339 20.9455 10.0173C20.9455 10.1004 20.911 10.1807 20.7487 10.2791C20.6709 10.3263 20.5871 10.3609 20.5193 10.3838C20.4866 10.3948 20.4606 10.4021 20.445 10.4061L20.4305 10.4097C20.4296 10.4099 20.4296 10.4099 20.4305 10.4097M20.4305 10.4097C20.4215 10.4116 20.4125 10.4137 20.4036 10.4159L16.1334 11.4949C15.8245 11.573 15.6078 11.8535 15.6078 12.1753V16.4913C15.6078 16.5806 15.6247 16.669 15.6575 16.7518L17.7297 21.9879C17.7167 22.0433 17.6939 22.1036 17.6602 22.1509C17.6367 22.1838 17.6107 22.2071 17.5783 22.224C17.5463 22.2406 17.4837 22.264 17.3693 22.264C17.149 22.264 17.0244 22.2334 16.9622 22.2107C16.9615 22.2085 16.9608 22.2063 16.96 22.204L15.3587 17.3485C15.3483 17.3171 15.3358 17.2864 15.3211 17.2567C15.2543 17.1216 15.1587 16.9676 15.0344 16.828C14.9155 16.6945 14.73 16.5288 14.4749 16.4449C14.1867 16.35 13.8668 16.3802 13.5813 16.5645C13.3269 16.7288 13.1471 16.9841 13.0123 17.2567C12.7707 17.7449 12.4439 18.6976 12.1451 19.6346C11.8398 20.5922 11.5439 21.598 11.3644 22.2331C11.3637 22.2357 11.363 22.2383 11.3622 22.2408C11.2779 22.2535 11.1506 22.264 10.9641 22.264C10.9228 22.264 10.8236 22.2361 10.7208 22.1322C10.6632 22.074 10.6292 22.0169 10.6105 21.9707L12.6759 16.7518C12.7086 16.669 12.7255 16.5806 12.7255 16.4913V12.1753C12.7255 11.8535 12.5088 11.573 12.1999 11.4949L7.96814 10.4256M20.4305 10.4097L20.4324 10.4093L20.4339 10.409" fill="black"/>
</svg>
