<svg width="32" height="32" viewBox="0 0 32 32" fill="none" xmlns="http://www.w3.org/2000/svg">
<path d="M23.6667 6.73333H13C12.4845 6.73333 12.0667 7.1512 12.0667 7.66667H10.3333C10.3333 6.19391 11.5272 5 13 5H23.6667C25.1394 5 26.3333 6.19391 26.3333 7.66667V18.3333C26.3333 19.8061 25.1394 21 23.6667 21V19.2667C24.1821 19.2667 24.6 18.8488 24.6 18.3333V7.66667C24.6 7.1512 24.1821 6.73333 23.6667 6.73333Z" fill="black"/>
<path fill-rule="evenodd" clip-rule="evenodd" d="M7.66667 9C6.19391 9 5 10.1939 5 11.6667V23.6667C5 25.1394 6.19391 26.3333 7.66667 26.3333H19.6667C21.1394 26.3333 22.3333 25.1394 22.3333 23.6667V11.6667C22.3333 10.1939 21.1394 9 19.6667 9H7.66667ZM7.66667 10.7333C7.1512 10.7333 6.73333 11.1512 6.73333 11.6667V23.6667C6.73333 24.1821 7.1512 24.6 7.66667 24.6H19.6667C20.1821 24.6 20.6 24.1821 20.6 23.6667V11.6667C20.6 11.1512 20.1821 10.7333 19.6667 10.7333H7.66667Z" fill="black"/>
</svg>
