<svg width="20" height="20" viewBox="0 0 20 20" fill="none" xmlns="http://www.w3.org/2000/svg">
<path fill-rule="evenodd" clip-rule="evenodd" d="M11.3176 14.1044C11.3176 14.7928 10.621 15.2231 10.0637 14.8789L3.41795 10.7744C2.86066 10.4302 2.86065 9.56977 3.41795 9.22558L10.0637 5.12114C10.621 4.77695 11.3176 5.20718 11.3176 5.89556L11.3176 7.28952C11.3176 7.35836 11.3873 7.40138 11.443 7.36696L15.0794 5.12114C15.6367 4.77695 16.3333 5.20718 16.3333 5.89556L16.3333 14.1044C16.3333 14.7928 15.6367 15.223 15.0794 14.8789L11.443 12.633C11.3873 12.5986 11.3176 12.6416 11.3176 12.7105L11.3176 14.1044ZM11.3176 10.9551C11.3176 11.1149 11.3973 11.2625 11.5266 11.3423L14.6196 13.2526C14.8983 13.4247 15.2466 13.2096 15.2466 12.8654L15.2466 7.13464C15.2466 6.79045 14.8983 6.57533 14.6196 6.74742L11.5266 8.65767C11.3973 8.73754 11.3176 8.88514 11.3176 9.04488L11.3176 10.9551ZM9.60395 13.2526C9.8826 13.4247 10.2309 13.2096 10.2309 12.8654L10.2309 7.13464C10.2309 6.79045 9.8826 6.57533 9.60395 6.74742L4.96445 9.61279C4.6858 9.78488 4.6858 10.2151 4.96445 10.3872L9.60395 13.2526Z" fill="black"/>
</svg>
