<svg width="32" height="32" viewBox="0 0 32 32" fill="none" xmlns="http://www.w3.org/2000/svg">
<path d="M10.6667 22.3333C11.5871 22.3333 12.3333 21.5871 12.3333 20.6667C12.3333 19.7462 11.5871 19 10.6667 19C9.74619 19 9 19.7462 9 20.6667C9 21.5871 9.74619 22.3333 10.6667 22.3333Z" fill="black"/>
<path d="M13.5046 16.3611C12.0418 15.342 10.2562 15.0983 9.07197 15.197C8.59498 15.2368 8.17608 14.8823 8.13633 14.4053C8.09658 13.9283 8.45103 13.5094 8.92803 13.4697C10.4105 13.3461 12.6249 13.6358 14.4954 14.9389C16.4165 16.2773 17.8667 18.6109 17.8667 22.3333C17.8667 22.812 17.4786 23.2 17 23.2C16.5214 23.2 16.1333 22.812 16.1333 22.3333C16.1333 19.1225 14.9168 17.345 13.5046 16.3611Z" fill="black"/>
<path d="M9.66667 8.8C9.18802 8.8 8.8 9.18802 8.8 9.66667C8.8 10.1453 9.18802 10.5333 9.66667 10.5333C11.4052 10.5333 14.0841 11.0931 16.3717 12.7662C18.6232 14.4129 20.5491 17.1737 20.8013 21.7147C20.8279 22.1927 21.2368 22.5585 21.7147 22.532C22.1927 22.5054 22.5585 22.0965 22.532 21.6186C22.2509 16.5596 20.0657 13.3205 17.395 11.3671C14.7604 9.44025 11.7059 8.8 9.66667 8.8Z" fill="black"/>
<path fill-rule="evenodd" clip-rule="evenodd" d="M5 7.66667C5 6.19391 6.19391 5 7.66667 5H23.6667C25.1394 5 26.3333 6.19391 26.3333 7.66667V23.6667C26.3333 25.1394 25.1394 26.3333 23.6667 26.3333H7.66667C6.19391 26.3333 5 25.1394 5 23.6667V7.66667ZM7.66667 6.73333H23.6667C24.1821 6.73333 24.6 7.1512 24.6 7.66667V23.6667C24.6 24.1821 24.1821 24.6 23.6667 24.6H7.66667C7.1512 24.6 6.73333 24.1821 6.73333 23.6667V7.66667C6.73333 7.1512 7.1512 6.73333 7.66667 6.73333Z" fill="black"/>
</svg>
