<svg width="28" height="28" viewBox="0 0 28 28" fill="none" xmlns="http://www.w3.org/2000/svg">
<path fill-rule="evenodd" clip-rule="evenodd" d="M21.8995 17.0173C20.9059 17.4847 19.7961 17.7459 18.6253 17.7459C14.372 17.7459 10.9241 14.298 10.9241 10.0447C10.9241 8.87388 11.1853 7.76411 11.6527 6.77047C11.6989 6.67225 11.7471 6.57517 11.7973 6.47927C11.944 6.19891 12.1075 5.9287 12.2864 5.66998C12.3271 5.61104 12.3687 5.5527 12.411 5.49497C12.5772 5.26829 12.3893 4.93972 12.117 5.00955C12.027 5.03261 11.9376 5.05697 11.8487 5.08259C11.538 5.17212 11.2339 5.27712 10.9372 5.3967C10.8029 5.45084 10.6701 5.50797 10.5389 5.56801C7.27061 7.06353 5 10.3624 5 14.1915C5 19.4263 9.24366 23.67 14.4785 23.67C18.3076 23.67 21.6065 21.3994 23.102 18.1311C23.162 17.9999 23.2192 17.8671 23.2733 17.7328C23.3929 17.4361 23.4979 17.132 23.5874 16.8213C23.613 16.7324 23.6374 16.643 23.6605 16.553C23.7303 16.2807 23.4017 16.0928 23.175 16.259C23.1173 16.3013 23.059 16.3429 23 16.3836C22.7413 16.5625 22.4711 16.726 22.1907 16.8727C22.0948 16.9229 21.9977 16.9711 21.8995 17.0173ZM20.7678 19.0363C20.0799 19.1997 19.3624 19.2862 18.6253 19.2862C13.5214 19.2862 9.3838 15.1486 9.3838 10.0447C9.3838 9.3076 9.47033 8.59015 9.63375 7.9022C7.75198 9.35427 6.54025 11.6323 6.54025 14.1915C6.54025 18.5757 10.0943 22.1297 14.4785 22.1297C17.0377 22.1297 19.3157 20.918 20.7678 19.0363Z" fill="black"/>
</svg>
