<svg width="48" height="48" viewBox="0 0 48 48" fill="none" xmlns="http://www.w3.org/2000/svg">
<path fill-rule="evenodd" clip-rule="evenodd" d="M27.1552 9.30691C25.4126 7.56437 22.5874 7.56436 20.8448 9.30691L9.30691 20.8448C7.56437 22.5874 7.56436 25.4126 9.30691 27.1552L20.8448 38.6931C22.5874 40.4356 25.4126 40.4356 27.1552 38.6931L38.6931 27.1552C40.4356 25.4126 40.4356 22.5874 38.6931 20.8448L27.1552 9.30691ZM36.8546 22.6833L25.3167 11.1454C24.5895 10.4182 23.4105 10.4182 22.6833 11.1454L11.1454 22.6833C10.4182 23.4105 10.4182 24.5895 11.1454 25.3167L22.6833 36.8546C23.4105 37.5818 24.5895 37.5818 25.3167 36.8546L36.8546 25.3167C37.5818 24.5895 37.5818 23.4105 36.8546 22.6833Z" fill="black"/>
</svg>
