<svg width="32" height="32" viewBox="0 0 32 32" fill="none" xmlns="http://www.w3.org/2000/svg">
<path fill-rule="evenodd" clip-rule="evenodd" d="M8.82563 5.0351C10.3892 4.85858 12.0678 5.38008 13.1218 5.87894C13.7533 6.17781 14.6752 6.31583 15.6553 6.30192L15.6681 6.30174L15.6808 6.30192C16.6607 6.31583 17.5822 6.17782 18.2134 5.87899C19.2672 5.38011 20.9453 4.85857 22.5086 5.03511C23.3084 5.12542 24.1266 5.4049 24.7956 6.01475C25.471 6.63051 25.9127 7.50891 26.0839 8.64392C26.3861 10.6463 26.3946 12.1302 26.2118 13.3222C26.0269 14.5285 25.6527 15.3901 25.2564 16.1406C24.8271 16.9536 23.9507 19.3597 23.8962 21.9778C23.8947 22.0522 23.8933 22.1291 23.8919 22.2079C23.8791 22.9337 23.8633 23.8251 23.669 24.5444C23.5571 24.9586 23.3637 25.4128 22.9979 25.7675C22.6077 26.1457 22.1018 26.3333 21.5286 26.3333C20.8161 26.3333 20.2712 25.9528 19.8878 25.532C19.5089 25.116 19.2097 24.5797 18.9656 24.0539C18.7176 23.5195 18.4996 22.9358 18.3046 22.3938C18.2557 22.2578 18.2086 22.1254 18.1627 21.9967C18.0205 21.5973 17.8909 21.2336 17.7612 20.9104C17.5068 20.2768 17.2596 19.7134 16.9141 19.3006C16.6037 18.9297 16.2351 18.7033 15.6681 18.7033C15.1008 18.7033 14.7322 18.9297 14.4217 19.3006C14.0761 19.7135 13.8289 20.2769 13.5739 20.9109C13.4436 21.235 13.3134 21.6002 13.1705 22.0012C13.1251 22.1285 13.0785 22.2594 13.0301 22.3937C12.8351 22.9357 12.6171 23.5193 12.369 24.0537C12.1249 24.5796 11.8258 25.1159 11.4469 25.5319C11.0634 25.9528 10.5184 26.3333 9.80582 26.3333C9.23265 26.3333 8.72666 26.1458 8.33649 25.7673C7.97075 25.4125 7.77751 24.9582 7.6658 24.5442C7.47274 23.8285 7.45613 22.9415 7.44259 22.2183C7.44105 22.1362 7.43955 22.0563 7.43784 21.9789C7.38005 19.3658 6.49444 16.9629 6.07048 16.1276C5.68109 15.3605 5.30683 14.5013 5.12169 13.3019C4.93863 12.1161 4.94734 10.6457 5.24946 8.64388C5.42077 7.50881 5.86265 6.6304 6.53823 6.01466C7.20731 5.40485 8.02572 5.12541 8.82563 5.0351Z" fill="black"/>
</svg>
