<svg width="32" height="32" viewBox="0 0 32 32" fill="none" xmlns="http://www.w3.org/2000/svg">
<path d="M25.9429 5.39048C26.4635 5.91112 26.4635 6.75524 25.9429 7.27588L24.7762 8.44257C24.2555 8.96321 23.4114 8.96321 22.8908 8.44257C22.3701 7.92193 22.3701 7.07781 22.8908 6.55717L24.0574 5.39048C24.5781 4.86984 25.4222 4.86984 25.9429 5.39048Z" fill="black"/>
<path d="M22.4428 8.89054C22.9634 9.41118 22.9634 10.2553 22.4428 10.7759L20.1094 13.1093C19.5888 13.63 18.7447 13.63 18.224 13.1093C17.7034 12.5887 17.7034 11.7445 18.224 11.2239L20.5574 8.89054C21.078 8.3699 21.9222 8.3699 22.4428 8.89054Z" fill="black"/>
<path d="M17.7761 13.5573C18.2967 14.0779 18.2967 14.922 17.7761 15.4427L15.4427 17.7761C14.922 18.2967 14.0779 18.2967 13.5573 17.7761C13.0366 17.2554 13.0366 16.4113 13.5573 15.8907L15.8906 13.5573C16.4113 13.0366 17.2554 13.0366 17.7761 13.5573Z" fill="black"/>
<path d="M13.1093 18.224C13.63 18.7447 13.63 19.5888 13.1093 20.1094L10.7759 22.4428C10.2553 22.9634 9.41118 22.9634 8.89054 22.4428C8.3699 21.9222 8.3699 21.078 8.89054 20.5574L11.2239 18.224C11.7445 17.7034 12.5887 17.7034 13.1093 18.224Z" fill="black"/>
<path d="M8.44257 22.8908C8.96321 23.4114 8.96321 24.2555 8.44257 24.7762L7.27588 25.9429C6.75524 26.4635 5.91112 26.4635 5.39048 25.9429C4.86984 25.4222 4.86984 24.5781 5.39048 24.0574L6.55717 22.8908C7.07781 22.3701 7.92193 22.3701 8.44257 22.8908Z" fill="black"/>
</svg>
