<svg width="20" height="20" viewBox="0 0 20 20" fill="none" xmlns="http://www.w3.org/2000/svg">
<path fill-rule="evenodd" clip-rule="evenodd" d="M3 14.6667C3 15.5871 3.74619 16.3333 4.66667 16.3333C5.58714 16.3333 6.33333 15.5871 6.33333 14.6667V10.5C6.33333 9.57953 5.58714 8.83333 4.66667 8.83333C3.74619 8.83333 3 9.57953 3 10.5L3 14.6667Z" fill="black"/>
<path fill-rule="evenodd" clip-rule="evenodd" d="M8 14.6667C8 15.5871 8.74619 16.3333 9.66667 16.3333C10.5871 16.3333 11.3333 15.5871 11.3333 14.6667V8C11.3333 7.07953 10.5871 6.33333 9.66667 6.33333C8.74619 6.33333 8 7.07953 8 8V14.6667Z" fill="black"/>
<path fill-rule="evenodd" clip-rule="evenodd" d="M14.6667 16.3333C13.7462 16.3333 13 15.5871 13 14.6667V4.66667C13 3.74619 13.7462 3 14.6667 3C15.5871 3 16.3333 3.74619 16.3333 4.66667V14.6667C16.3333 15.5871 15.5871 16.3333 14.6667 16.3333Z" fill="black"/>
</svg>
