<svg width="28" height="28" viewBox="0 0 28 28" fill="none" xmlns="http://www.w3.org/2000/svg">
<path d="M17.075 18.0833C17.075 17.6645 17.4145 17.325 17.8333 17.325H19C19.4188 17.325 19.7583 17.6645 19.7583 18.0833C19.7583 18.5021 19.4188 18.8417 19 18.8417H17.8333C17.4145 18.8417 17.075 18.5021 17.075 18.0833Z" fill="black"/>
<path d="M9.66667 17.325C9.24785 17.325 8.90833 17.6645 8.90833 18.0833C8.90833 18.5021 9.24785 18.8417 9.66667 18.8417H10.8333C11.2521 18.8417 11.5917 18.5021 11.5917 18.0833C11.5917 17.6645 11.2521 17.325 10.8333 17.325H9.66667Z" fill="black"/>
<path fill-rule="evenodd" clip-rule="evenodd" d="M7.33333 7C6.04467 7 5 8.04467 5 9.33333V18.6667C5 19.9553 6.04467 21 7.33333 21H21.3333C22.622 21 23.6667 19.9553 23.6667 18.6667V9.33333C23.6667 8.04467 22.622 7 21.3333 7H7.33333ZM15.675 8.51667C15.3528 8.51667 15.0917 8.77783 15.0917 9.1V18.9C15.0917 19.2222 15.3528 19.4833 15.675 19.4833H21.3333C21.7844 19.4833 22.15 19.1177 22.15 18.6667V9.33333C22.15 8.8823 21.7844 8.51667 21.3333 8.51667H15.675ZM12.9917 8.51667C13.3138 8.51667 13.575 8.77783 13.575 9.1V18.9C13.575 19.2222 13.3138 19.4833 12.9917 19.4833H7.33333C6.8823 19.4833 6.51667 19.1177 6.51667 18.6667V9.33333C6.51667 8.8823 6.8823 8.51667 7.33333 8.51667H12.9917Z" fill="black"/>
</svg>
