<svg width="28" height="28" viewBox="0 0 28 28" fill="none" xmlns="http://www.w3.org/2000/svg">
<path fill-rule="evenodd" clip-rule="evenodd" d="M7.33333 7C6.04467 7 5 8.04467 5 9.33333V18.6667C5 19.9553 6.04467 21 7.33333 21H21.3333C22.622 21 23.6667 19.9553 23.6667 18.6667V9.33333C23.6667 8.04467 22.622 7 21.3333 7H7.33333ZM21.3333 8.51667H7.33333C6.8823 8.51667 6.51667 8.8823 6.51667 9.33333V18.6667C6.51667 19.1177 6.8823 19.4833 7.33333 19.4833H21.3333C21.7844 19.4833 22.15 19.1177 22.15 18.6667V9.33333C22.15 8.8823 21.7844 8.51667 21.3333 8.51667Z" fill="black"/>
</svg>
