<svg width="28" height="28" viewBox="0 0 28 28" fill="none" xmlns="http://www.w3.org/2000/svg">
<path d="M8.27779 6.08021C8.35345 6.04228 8.43633 6.01663 8.52382 6.00588C8.612 5.99482 8.69933 5.99959 8.78257 6.01825C8.89572 6.0434 8.99934 6.09383 9.08722 6.16331C9.17178 6.22998 9.24264 6.31492 9.29309 6.41412C9.32073 6.46825 9.34206 6.52614 9.35611 6.58682C9.51395 7.19385 10.1621 8.27585 11.4761 8.27585C12.7903 8.27585 13.4384 7.19375 13.5962 6.58673C13.6042 6.55238 13.6146 6.51874 13.6272 6.48605C13.6654 6.38643 13.7232 6.29865 13.7948 6.22607C13.8708 6.14886 13.9641 6.08713 14.0707 6.04766C14.1541 6.01657 14.2434 5.99993 14.335 6C14.4266 5.99993 14.5159 6.01657 14.5993 6.04766C14.7059 6.08713 14.7992 6.14886 14.8752 6.22609C14.9465 6.29834 15.0041 6.38567 15.0423 6.48475C15.0552 6.51786 15.0657 6.55194 15.0738 6.58676C15.2317 7.19379 15.8798 8.27585 17.1939 8.27585C18.508 8.27585 19.1561 7.19372 19.3139 6.58671C19.3219 6.55245 19.3323 6.51889 19.3449 6.48628C19.3831 6.38652 19.4409 6.29863 19.5127 6.22599C19.5886 6.14881 19.6819 6.08712 19.7884 6.04766C19.8718 6.01657 19.9612 5.99993 20.0527 6C20.1443 5.99993 20.2337 6.01657 20.3171 6.04766C20.5262 6.12513 20.6842 6.2883 20.7606 6.48613C20.7732 6.51879 20.7836 6.5524 20.7916 6.58673C20.9494 7.19375 21.5975 8.27585 22.9116 8.27585C23.3305 8.27585 23.67 8.61539 23.67 9.03423C23.67 9.45307 23.3305 9.79261 22.9116 9.79261C21.5456 9.79261 20.6264 9.13025 20.0528 8.39771C19.4791 9.13025 18.5599 9.79261 17.1939 9.79261C15.8278 9.79261 14.9086 9.13025 14.335 8.39771C13.7614 9.13025 12.8422 9.79261 11.4761 9.79261C10.2092 9.79261 9.32658 9.22285 8.74756 8.55577C8.51024 8.83885 8.22408 9.0641 7.92228 9.23707C7.18096 9.66194 6.32626 9.79261 5.75838 9.79261C5.33954 9.79261 5 9.45307 5 9.03423C5 8.61539 5.33954 8.27585 5.75838 8.27585C6.14346 8.27585 6.71819 8.17896 7.16808 7.92112C7.5773 7.68659 7.85449 7.34671 7.85883 6.77228C7.85765 6.70992 7.86423 6.6485 7.87786 6.58919C7.90266 6.4805 7.95081 6.38069 8.01675 6.29533C8.08528 6.20637 8.17381 6.13213 8.27779 6.08021Z" fill="black"/>
<path d="M8.27779 11.7694C8.35345 11.7314 8.43633 11.7058 8.52382 11.695C8.612 11.684 8.69933 11.6888 8.78257 11.7074C8.89572 11.7326 8.99934 11.783 9.08722 11.8525C9.17178 11.9191 9.24264 12.0041 9.29309 12.1033C9.32073 12.1574 9.34206 12.2153 9.35611 12.276C9.51395 12.883 10.1621 13.965 11.4761 13.965C12.7903 13.965 13.4384 12.8829 13.5962 12.2759C13.6042 12.2415 13.6146 12.2079 13.6272 12.1752C13.6654 12.0756 13.7232 11.9878 13.7948 11.9152C13.8708 11.838 13.9641 11.7763 14.0707 11.7368C14.1541 11.7057 14.2434 11.6891 14.335 11.6892C14.4266 11.6891 14.5159 11.7057 14.5993 11.7368C14.7059 11.7763 14.7992 11.838 14.8752 11.9153C14.9465 11.9875 15.0041 12.0748 15.0423 12.1739C15.0552 12.207 15.0657 12.2411 15.0738 12.2759C15.2317 12.883 15.8798 13.965 17.1939 13.965C18.508 13.965 19.1561 12.8829 19.3139 12.2759C19.3219 12.2416 19.3323 12.2081 19.3449 12.1755C19.3831 12.0757 19.4409 11.9878 19.5127 11.9152C19.5886 11.838 19.6819 11.7763 19.7884 11.7368C19.8718 11.7057 19.9612 11.6891 20.0527 11.6892C20.1443 11.6891 20.2337 11.7057 20.3171 11.7368C20.5262 11.8143 20.6842 11.9775 20.7606 12.1753C20.7732 12.208 20.7836 12.2416 20.7916 12.2759C20.9494 12.8829 21.5975 13.965 22.9116 13.965C23.3305 13.965 23.67 14.3046 23.67 14.7234C23.67 15.1422 23.3305 15.4818 22.9116 15.4818C21.5456 15.4818 20.6264 14.8194 20.0528 14.0869C19.4791 14.8194 18.5599 15.4818 17.1939 15.4818C15.8278 15.4818 14.9086 14.8194 14.335 14.0869C13.7614 14.8194 12.8422 15.4818 11.4761 15.4818C10.2092 15.4818 9.32658 14.912 8.74756 14.2449C8.51024 14.528 8.22408 14.7533 7.92228 14.9262C7.18096 15.3511 6.32626 15.4818 5.75838 15.4818C5.33954 15.4818 5 15.1422 5 14.7234C5 14.3046 5.33954 13.965 5.75838 13.965C6.14346 13.965 6.71819 13.8681 7.16808 13.6103C7.5773 13.3758 7.85449 13.0359 7.85883 12.4614C7.85765 12.3991 7.86423 12.3377 7.87786 12.2784C7.90266 12.1697 7.95081 12.0699 8.01675 11.9845C8.08528 11.8955 8.17381 11.8213 8.27779 11.7694Z" fill="black"/>
<path d="M8.52382 17.3843C8.43633 17.395 8.35345 17.4207 8.27779 17.4586C8.17381 17.5105 8.08528 17.5847 8.01675 17.6737C7.95081 17.7591 7.90266 17.8589 7.87786 17.9676C7.86423 18.0269 7.85765 18.0883 7.85883 18.1506C7.85449 18.7251 7.5773 19.065 7.16808 19.2995C6.71819 19.5573 6.14346 19.6542 5.75838 19.6542C5.33954 19.6542 5 19.9938 5 20.4126C5 20.8314 5.33954 21.171 5.75838 21.171C6.32626 21.171 7.18096 21.0403 7.92228 20.6154C8.22408 20.4425 8.51024 20.2172 8.74756 19.9341C9.32658 20.6012 10.2092 21.171 11.4761 21.171C12.8422 21.171 13.7614 20.5086 14.335 19.7761C14.9086 20.5086 15.8278 21.171 17.1939 21.171C18.5599 21.171 19.4791 20.5086 20.0528 19.7761C20.6264 20.5086 21.5456 21.171 22.9116 21.171C23.3305 21.171 23.67 20.8314 23.67 20.4126C23.67 19.9938 23.3305 19.6542 22.9116 19.6542C21.5975 19.6542 20.9494 18.5721 20.7916 17.9651C20.7836 17.9308 20.7732 17.8972 20.7606 17.8645C20.6842 17.6667 20.5262 17.5035 20.3171 17.426C20.2337 17.3949 20.1443 17.3783 20.0527 17.3784C19.9612 17.3783 19.8718 17.3949 19.7884 17.426C19.6819 17.4655 19.5886 17.5272 19.5127 17.6044C19.4409 17.677 19.3831 17.7649 19.3449 17.8647C19.3323 17.8973 19.3219 17.9308 19.3139 17.9651C19.1561 18.5721 18.508 19.6542 17.1939 19.6542C15.8798 19.6542 15.2317 18.5722 15.0738 17.9651C15.0657 17.9303 15.0552 17.8962 15.0423 17.8631C15.0041 17.764 14.9465 17.6767 14.8752 17.6045C14.7992 17.5272 14.7059 17.4655 14.5993 17.426C14.5159 17.3949 14.4266 17.3783 14.335 17.3784C14.2434 17.3783 14.1541 17.3949 14.0707 17.426C13.9641 17.4655 13.8708 17.5272 13.7948 17.6044C13.7232 17.677 13.6654 17.7648 13.6272 17.8644C13.6146 17.8971 13.6042 17.9308 13.5962 17.9651C13.4384 18.5721 12.7903 19.6542 11.4761 19.6542C10.1621 19.6542 9.51395 18.5722 9.35611 17.9652C9.34206 17.9045 9.32073 17.8466 9.29309 17.7925C9.24264 17.6933 9.17178 17.6083 9.08722 17.5417C8.99934 17.4722 8.89572 17.4218 8.78257 17.3966C8.69933 17.378 8.612 17.3732 8.52382 17.3843Z" fill="black"/>
</svg>
