<svg width="32" height="32" viewBox="0 0 32 32" fill="none" xmlns="http://www.w3.org/2000/svg">
<path fill-rule="evenodd" clip-rule="evenodd" d="M6.13333 11.9513V10.7344C6.13333 8.67196 7.71526 7 9.66667 7H21.6667C23.6181 7 25.2 8.67196 25.2 10.7344V11.9513C25.8855 12.4613 26.3333 13.3041 26.3333 14.2575V18.4851C26.3333 20.0417 25.1394 21.3035 23.6667 21.3035H22.2257L23.6128 22.7696C23.9513 23.1274 23.9513 23.7073 23.6128 24.065C23.2744 24.4228 22.7256 24.4228 22.3872 24.065L19.7743 21.3035H11.559L8.94616 24.065C8.6077 24.4228 8.05896 24.4228 7.72051 24.065C7.38205 23.7073 7.38205 23.1274 7.72051 22.7696L9.10768 21.3035H7.66667C6.19391 21.3035 5 20.0417 5 18.4851V14.2575C5 13.3041 5.44785 12.4613 6.13333 11.9513ZM7.86667 10.7344C7.86667 9.68373 8.67255 8.83198 9.66667 8.83198H21.6667C22.6608 8.83198 23.4667 9.68373 23.4667 10.7344V11.439H22.3333C20.8606 11.439 19.6667 12.7009 19.6667 14.2575V14.8211C19.6667 14.899 19.607 14.9621 19.5333 14.9621H11.8C11.7264 14.9621 11.6667 14.899 11.6667 14.8211V14.2575C11.6667 12.7009 10.4728 11.439 9 11.439H7.86667V10.7344ZM7.66667 13.271H9C9.51547 13.271 9.93333 13.7127 9.93333 14.2575V14.8211C9.93333 15.9107 10.7691 16.794 11.8 16.794H19.5333C20.5643 16.794 21.4 15.9107 21.4 14.8211V14.2575C21.4 13.7127 21.8179 13.271 22.3333 13.271H23.6667C24.1821 13.271 24.6 13.7127 24.6 14.2575V18.4851C24.6 19.0299 24.1821 19.4715 23.6667 19.4715H7.66667C7.1512 19.4715 6.73333 19.0299 6.73333 18.4851V14.2575C6.73333 13.7127 7.1512 13.271 7.66667 13.271Z" fill="black"/>
</svg>
