<svg width="28" height="28" viewBox="0 0 28 28" fill="none" xmlns="http://www.w3.org/2000/svg">
<path d="M18.3492 10.563C18.3373 10.7457 18.2343 10.9098 18.0757 10.999L15.182 12.6266C15.0855 12.6808 15.1238 12.8288 15.2343 12.8288H17.5539C17.866 12.8288 18.1121 13.0963 18.0884 13.4098L17.7226 18.2452C17.706 18.4642 17.5594 18.6512 17.3517 18.7183L14.3501 19.6873C14.2443 19.7214 14.1306 19.7216 14.0247 19.6878L10.9837 18.7176C10.7749 18.651 10.6274 18.4633 10.611 18.2434L10.4908 16.6321C10.4524 16.1167 10.8571 15.6773 11.3702 15.6773C11.8405 15.6773 12.228 16.0489 12.251 16.5219L12.2735 16.9818C12.279 17.0956 12.3549 17.1936 12.4631 17.2268L14.1086 17.731C14.16 17.7468 14.2149 17.7466 14.2662 17.7305L15.873 17.2272C15.9798 17.1937 16.0548 17.0969 16.061 16.9844L16.1543 15.3017C16.1715 14.9922 15.9269 14.7317 15.6191 14.7317H10.8294C10.5507 14.7317 10.3185 14.5165 10.2953 14.2367L10.1984 13.0694C10.181 12.8588 10.2871 12.6573 10.47 12.5538L13.1122 11.058C13.2084 11.0036 13.1701 10.8559 13.0597 10.8559H10.9213C10.4305 10.8559 10.0205 10.4796 9.97501 9.98739C9.92313 9.4261 10.3616 8.9414 10.9213 8.9414H17.8826C18.1925 8.9414 18.4378 9.20528 18.4175 9.51673L18.3492 10.563Z" fill="black"/>
<path fill-rule="evenodd" clip-rule="evenodd" d="M7.07217 5C6.44258 5 5.94852 5.54386 6.0043 6.1755L7.31805 21.0533C7.35758 21.501 7.66828 21.8772 8.09812 21.9979L13.9021 23.627C14.0911 23.6801 14.2909 23.6799 14.4798 23.6264L20.2372 21.9978C20.6661 21.8765 20.9758 21.5008 21.0152 21.0539L22.329 6.1755C22.3848 5.54386 21.8908 5 21.2612 5H7.07217ZM8.86516 20.7559C8.7577 20.7257 8.68003 20.6317 8.67015 20.5197L7.44962 6.69766C7.43567 6.53975 7.55919 6.40379 7.71658 6.40379H20.6167C20.7741 6.40379 20.8977 6.53975 20.8837 6.69766L19.6631 20.5212C19.6532 20.6329 19.5758 20.7268 19.4686 20.7572L14.2618 22.23C14.2146 22.2434 14.1646 22.2434 14.1174 22.2302L8.86516 20.7559Z" fill="black"/>
</svg>
