<svg width="20" height="20" viewBox="0 0 20 20" fill="none" xmlns="http://www.w3.org/2000/svg">
<path fill-rule="evenodd" clip-rule="evenodd" d="M9.91074 16.0893C9.75446 16.2455 9.5425 16.3333 9.32149 16.3333H4.66616C3.74569 16.3333 3 15.5871 3 14.6667V4.66667C3 3.74619 3.74619 3 4.66667 3H14.6667C15.5871 3 16.3333 3.74619 16.3333 4.66667V9.32149C16.3333 9.5425 16.2455 9.75446 16.0893 9.91074L9.91074 16.0893ZM15.0417 9.125C15.1567 9.125 15.25 9.03173 15.25 8.91667V4.66667C15.25 4.3445 14.9888 4.08333 14.6667 4.08333H4.66667C4.3445 4.08333 4.08333 4.3445 4.08333 4.66667V14.6667C4.08333 14.9893 4.34442 15.25 4.66616 15.25H8.91667C9.03173 15.25 9.125 15.1567 9.125 15.0417V11.3328C9.125 10.113 10.1139 9.125 11.3333 9.125H15.0417ZM10.564 13.904C10.4327 14.0352 10.2083 13.9422 10.2083 13.7566V11.3328C10.2083 10.7117 10.7118 10.2083 11.3333 10.2083H13.7566C13.9422 10.2083 14.0352 10.4327 13.904 10.564L10.564 13.904Z" fill="black"/>
</svg>
