<svg width="20" height="20" viewBox="0 0 20 20" fill="none" xmlns="http://www.w3.org/2000/svg">
<path fill-rule="evenodd" clip-rule="evenodd" d="M10.2296 3.09838C9.97339 2.95919 9.66308 2.96823 9.41524 3.1221L4.38827 6.24316C4.14698 6.39296 4 6.65833 4 6.94417V12.7845C4 13.0873 4.16479 13.3656 4.42906 13.5092L9.44654 16.2349C9.68801 16.3661 9.97865 16.3661 10.2201 16.2349L15.2376 13.5092C15.5019 13.3656 15.6667 13.0873 15.6667 12.7845V6.54371C15.6667 6.2409 15.5019 5.96254 15.2376 5.81898L10.2296 3.09838ZM9.76692 4.16018C9.81897 4.12786 9.88414 4.12597 9.93794 4.1552L14.1468 6.4417C14.2646 6.5057 14.2674 6.67517 14.1519 6.7432L10.1157 9.11856C9.86506 9.26607 9.71094 9.53679 9.71094 9.82955V14.8739C9.71094 15.0047 9.57253 15.0881 9.45838 15.0261L5.15074 12.6859C5.09525 12.6558 5.06064 12.5973 5.06064 12.5337V7.17875C5.06064 7.11872 5.09151 7.063 5.14218 7.03154L9.76692 4.16018ZM11.7542 10.4096C11.8622 10.3954 11.9619 10.4783 11.977 10.5949L12.0034 10.7994C12.0086 10.8388 12.0416 10.867 12.0773 10.8623L12.19 10.8562C12.298 10.842 12.3977 10.9249 12.4128 11.0415C12.4278 11.158 12.3526 11.264 12.2446 11.2782L11.8313 11.3239C11.7956 11.3286 11.7708 11.3644 11.7759 11.4038L11.8078 11.6505C11.8129 11.69 11.846 11.7181 11.8817 11.7134L12.2568 11.664C12.346 11.6523 12.4287 11.7227 12.4415 11.8213L12.5339 12.5354C12.5467 12.634 12.4847 12.7235 12.3954 12.7353L12.321 12.7451C12.2853 12.7498 12.2605 12.7856 12.2656 12.825L12.2921 13.0295C12.3071 13.146 12.2319 13.252 12.1239 13.2663C12.016 13.2805 11.9163 13.1975 11.9012 13.081L11.8747 12.8765C11.8696 12.837 11.8366 12.8089 11.8009 12.8136L11.61 12.8387C11.502 12.853 11.4023 12.77 11.3872 12.6535C11.3721 12.5369 11.4474 12.431 11.5553 12.4167L12.0469 12.352C12.0826 12.3473 12.1074 12.3115 12.1023 12.272L12.0914 12.1876C12.0863 12.1482 12.0532 12.12 12.0175 12.1247L11.6424 12.1742C11.5532 12.1859 11.4705 12.1155 11.4577 12.0169L11.3443 11.1404C11.3315 11.0418 11.3935 10.9524 11.4828 10.9406L11.5572 10.9308C11.5929 10.9261 11.6177 10.8903 11.6126 10.8509L11.5861 10.6464C11.571 10.5298 11.6463 10.4238 11.7542 10.4096ZM12.7832 12.9656C12.7344 12.8632 12.7771 12.7402 12.8786 12.691L13.4301 12.4235C13.5316 12.3742 13.6535 12.4173 13.7023 12.5198C13.7511 12.6222 13.7084 12.7452 13.6068 12.7944L13.0554 13.0619C12.9538 13.1111 12.832 13.068 12.7832 12.9656Z" fill="black"/>
</svg>
