<svg width="48" height="48" viewBox="0 0 48 48" fill="none" xmlns="http://www.w3.org/2000/svg">
<path fill-rule="evenodd" clip-rule="evenodd" d="M22.7073 18.4875C22.7073 20.8216 20.816 22.7138 18.483 22.7138C16.15 22.7138 14.2587 20.8216 14.2587 18.4875C14.2587 16.1534 16.15 14.2612 18.483 14.2612C20.816 14.2612 22.7073 16.1534 22.7073 18.4875ZM18.483 20.325C19.4973 20.325 20.3196 19.5023 20.3196 18.4875C20.3196 17.4727 19.4973 16.65 18.483 16.65C17.4687 16.65 16.6464 17.4727 16.6464 18.4875C16.6464 19.5023 17.4687 20.325 18.483 20.325Z" fill="black"/>
<path fill-rule="evenodd" clip-rule="evenodd" d="M24 8C15.1634 8 8 15.1634 8 24C8 32.8366 15.1634 40 24 40C32.8366 40 40 32.8366 40 24C40 15.1634 32.8366 8 24 8ZM10.5999 24C10.5999 16.5993 16.5993 10.5999 24 10.5999C31.4007 10.5999 37.4001 16.5993 37.4001 24C37.4001 25.4554 37.1681 26.8567 36.739 28.1687L36.2984 27.6006L32.8856 23.3326C31.6223 21.7527 29.1962 21.8305 28.0366 23.4879L24.2703 28.8709C24.0411 29.1985 23.5718 29.2396 23.2891 28.9568L20.3918 26.0582C19.3704 25.0362 17.7699 24.8777 16.568 25.6793L11.6311 29.164C10.9668 27.5747 10.5999 25.8302 10.5999 24ZM12.6664 31.1525C15.0408 34.907 19.2292 37.4001 24 37.4001C28.9934 37.4001 33.3489 34.6688 35.6541 30.6187L31.0212 24.8248C30.7532 24.4897 30.2386 24.5062 29.9926 24.8578L26.2263 30.2407C25.1457 31.7852 22.9332 31.979 21.6008 30.6459L18.7035 27.7473C18.4869 27.5305 18.1474 27.4969 17.8924 27.6669L12.6664 31.1525Z" fill="black"/>
</svg>
