<svg width="28" height="28" viewBox="0 0 28 28" fill="none" xmlns="http://www.w3.org/2000/svg">
<path fill-rule="evenodd" clip-rule="evenodd" d="M18.8627 6.04429C18.3666 5.4299 17.5732 5 16.4487 5C15.4204 5 14.669 5.35943 14.1686 5.89069C13.6681 5.35943 12.9167 5 11.8885 5C10.7639 5 9.97054 5.4299 9.4744 6.04429C9.00439 6.62635 8.85004 7.31215 8.85004 7.79136C8.85004 8.27057 9.00439 8.95636 9.4744 9.53842C9.48408 9.55041 9.49387 9.56232 9.50378 9.57417H7.92511C6.8619 9.57417 6 10.4361 6 11.4993V12.6232C6 13.402 6.46902 14.0713 7.14004 14.364V21.7449C7.14004 22.8081 8.00194 23.67 9.06515 23.67H19.2721C20.3353 23.67 21.1972 22.8081 21.1972 21.7449V14.364C21.8682 14.0713 22.3372 13.402 22.3372 12.6232V11.4993C22.3372 10.4361 21.4753 9.57417 20.4121 9.57417H18.8334C18.8433 9.56232 18.8531 9.55041 18.8627 9.53842C19.3328 8.95636 19.4871 8.27057 19.4871 7.79136C19.4871 7.31215 19.3328 6.62635 18.8627 6.04429ZM14.927 9.06597V7.79136C14.927 7.59291 15.0006 7.26221 15.2146 6.9972C15.4025 6.76452 15.7491 6.51675 16.4487 6.51675C17.1482 6.51675 17.4948 6.76452 17.6827 6.9972C17.8967 7.26221 17.9703 7.59291 17.9703 7.79136C17.9703 7.98981 17.8967 8.32051 17.6827 8.58552C17.4948 8.8182 17.1482 9.06597 16.4487 9.06597H14.927ZM7.92511 11.0909C7.69958 11.0909 7.51675 11.2737 7.51675 11.4993V12.6232C7.51675 12.834 7.68763 13.0048 7.89841 13.0048H13.4102V11.0909H7.92511ZM14.927 11.0909V13.0048H20.4388C20.6496 13.0048 20.8205 12.834 20.8205 12.6232V11.4993C20.8205 11.2737 20.6376 11.0909 20.4121 11.0909H14.927ZM13.4102 14.5216H8.65679V21.7449C8.65679 21.9704 8.83962 22.1532 9.06515 22.1532H13.4102V14.5216ZM14.927 22.1532V14.5216H19.6804V21.7449C19.6804 21.9704 19.4976 22.1532 19.2721 22.1532H14.927ZM13.4102 7.79136V9.06597H11.8885C11.189 9.06597 10.8423 8.8182 10.6545 8.58552C10.4405 8.32051 10.3668 7.98981 10.3668 7.79136C10.3668 7.59291 10.4405 7.26221 10.6545 6.9972C10.8423 6.76452 11.189 6.51675 11.8885 6.51675C12.588 6.51675 12.9346 6.76452 13.1225 6.9972C13.3365 7.26221 13.4102 7.59291 13.4102 7.79136Z" fill="black"/>
</svg>
