<svg width="16" height="16" viewBox="0 0 16 16" fill="none" xmlns="http://www.w3.org/2000/svg">
<path d="M7.40381 5.23085C7.65271 5.50945 7.6209 5.9304 7.33277 6.17106L5.54209 7.66674H12.2879V5.93328C12.2879 5.56513 12.5965 5.26668 12.9773 5.26668C13.358 5.26668 13.6667 5.56513 13.6667 5.93328V8.33333C13.6667 8.70148 13.358 8.99993 12.9773 8.99993H5.54209L7.33277 10.4956C7.6209 10.7363 7.65271 11.1572 7.40381 11.4358C7.15492 11.7144 6.71957 11.7452 6.43144 11.5045L3.23874 8.83778C2.92042 8.57191 2.92042 8.09476 3.23874 7.82888L6.43144 5.16216C6.71957 4.9215 7.15492 4.95225 7.40381 5.23085Z" fill="black"/>
</svg>
