<svg width="24" height="24" viewBox="0 0 24 24" fill="none" xmlns="http://www.w3.org/2000/svg">
<path d="M5.70703 11.5812C6.42082 10.5195 8.68465 8 11.9999 8C13.6553 8 15.0853 8.62283 16.1866 9.39661C17.3058 10.183 18.015 11.0752 18.2415 11.4961C18.4993 11.9757 19.0743 12.1423 19.5256 11.8682C19.9769 11.5942 20.1337 10.9834 19.8758 10.5039C19.4747 9.75818 18.537 8.65033 17.2248 7.72839C15.8948 6.79383 14.1092 6 11.9999 6C7.78584 6 5.03013 9.14721 4.17532 10.4188C3.8732 10.8682 3.97116 11.4927 4.39414 11.8137C4.81711 12.1347 5.40491 12.0307 5.70703 11.5812Z" fill="black"/>
<path d="M11.9999 11C9.84095 11 8.5088 12.6548 8.13588 13.4472C7.90343 13.9412 7.33809 14.1414 6.87318 13.8944C6.40827 13.6474 6.21982 13.0468 6.45228 12.5528C7.02052 11.3452 8.88833 9 11.9999 9C15.1115 9 16.9793 11.3452 17.5475 12.5528C17.78 13.0468 17.5915 13.6474 17.1266 13.8944C16.6617 14.1414 16.0964 13.9412 15.8639 13.4472C15.491 12.6548 14.1588 11 11.9999 11Z" fill="black"/>
<path d="M10.0182 15.4472C10.1205 15.2299 10.3694 14.8441 10.7377 14.5234C11.0982 14.2095 11.5217 14 11.9999 14C12.4781 14 12.9016 14.2095 13.2621 14.5234C13.6303 14.8441 13.8793 15.2299 13.9816 15.4472C14.214 15.9412 14.7794 16.1414 15.2443 15.8944C15.7092 15.6474 15.8976 15.0468 15.6652 14.5528C15.4537 14.1035 15.0439 13.4892 14.4553 12.9766C13.8589 12.4572 13.0276 12 11.9999 12C10.9722 12 10.1409 12.4572 9.54447 12.9766C8.9559 13.4892 8.54604 14.1035 8.3346 14.5528C8.10215 15.0468 8.29059 15.6474 8.75551 15.8944C9.22042 16.1414 9.78575 15.9412 10.0182 15.4472Z" fill="black"/>
<path d="M11.9999 18C12.6496 18 13.1763 17.4404 13.1763 16.75C13.1763 16.0596 12.6496 15.5 11.9999 15.5C11.3502 15.5 10.8234 16.0596 10.8234 16.75C10.8234 17.4404 11.3502 18 11.9999 18Z" fill="black"/>
</svg>
