<svg width="24" height="24" viewBox="0 0 24 24" fill="none" xmlns="http://www.w3.org/2000/svg">
<path d="M5.50718 11.5285C6.27737 10.397 8.72821 7.68867 12.3499 7.68867C14.1592 7.68867 15.7156 8.36104 16.9059 9.18704C18.1084 10.0215 18.8898 10.9793 19.1578 11.4715C19.3326 11.7925 19.7224 11.9041 20.0283 11.7206C20.3343 11.5372 20.4406 11.1282 20.2657 10.8071C19.8794 10.0976 18.943 8.99532 17.6097 8.07012C16.2643 7.13647 14.4669 6.34961 12.3499 6.34961C8.11888 6.34961 5.3346 9.47821 4.46881 10.7502C4.26399 11.051 4.33041 11.4692 4.61715 11.6841C4.90389 11.8991 5.30237 11.8294 5.50718 11.5285Z" fill="black"/>
<path d="M12.3499 10.7788C9.92435 10.7788 8.43721 12.6077 8.01263 13.4988C7.85504 13.8295 7.4718 13.9636 7.15662 13.7982C6.84145 13.6329 6.7137 13.2307 6.87129 12.9C7.42829 11.731 9.27854 9.43974 12.3499 9.43974C15.4212 9.43974 17.2715 11.731 17.8285 12.9C17.9861 13.2307 17.8583 13.6329 17.5431 13.7982C17.228 13.9636 16.8447 13.8295 16.6871 13.4988C16.2626 12.6077 14.7754 10.7788 12.3499 10.7788Z" fill="black"/>
<path d="M9.9758 15.5589C10.1024 15.2932 10.3914 14.8547 10.8157 14.4897C11.2347 14.1293 11.7509 13.8689 12.3499 13.8689C12.9489 13.8689 13.465 14.1293 13.8841 14.4897C14.3084 14.8547 14.5974 15.2932 14.724 15.5589C14.8816 15.8896 15.2648 16.0237 15.58 15.8583C15.8952 15.693 16.0229 15.2908 15.8653 14.9601C15.6647 14.5391 15.2666 13.9475 14.693 13.4541C14.114 12.9562 13.3214 12.5299 12.3499 12.5299C11.3784 12.5299 10.5857 12.9562 10.0068 13.4541C9.43315 13.9475 9.03505 14.5391 8.83446 14.9601C8.67687 15.2908 8.80462 15.693 9.11979 15.8583C9.43497 16.0237 9.81821 15.8896 9.9758 15.5589Z" fill="black"/>
<path d="M12.3499 18.3496C13.0275 18.3496 13.5769 17.7732 13.5769 17.0621C13.5769 16.351 13.0275 15.7745 12.3499 15.7745C11.6722 15.7745 11.1229 16.351 11.1229 17.0621C11.1229 17.7732 11.6722 18.3496 12.3499 18.3496Z" fill="black"/>
</svg>
