<svg width="48" height="48" viewBox="0 0 48 48" fill="none" xmlns="http://www.w3.org/2000/svg">
<path d="M29.8352 14.0087L25.5264 8.73338C24.7277 7.75554 23.2721 7.75554 22.4735 8.73338L18.1647 14.0087C17.7175 14.5561 17.79 15.3697 18.3266 15.8258C18.8631 16.282 19.6605 16.2081 20.1076 15.6606L22.7354 12.4435V26.7443C22.7354 27.4569 23.3015 28.0345 23.9999 28.0345C24.6984 28.0345 25.2645 27.4569 25.2645 26.7443V12.4435L27.8923 15.6606C28.3394 16.2081 29.1368 16.282 29.6733 15.8258C30.2099 15.3697 30.2823 14.5561 29.8352 14.0087Z" fill="black"/>
<path d="M15.2991 17.4585C13.477 17.4585 12 18.9883 12 20.8754V36.5831C12 38.4702 13.477 40 15.2991 40H32.7009C34.523 40 36 38.4702 36 36.5831V20.8754C36 18.9883 34.523 17.4585 32.7009 17.4585H28.8638C28.146 17.4585 27.5642 18.0612 27.5642 18.8046C27.5642 19.548 28.146 20.1506 28.8638 20.1506H32.7009C33.0874 20.1506 33.4007 20.4751 33.4007 20.8754V36.5831C33.4007 36.9834 33.0874 37.3079 32.7009 37.3079H15.2991C14.9126 37.3079 14.5993 36.9834 14.5993 36.5831V20.8754C14.5993 20.4751 14.9126 20.1506 15.2991 20.1506H19.1362C19.854 20.1506 20.4358 19.548 20.4358 18.8046C20.4358 18.0612 19.854 17.4585 19.1362 17.4585H15.2991Z" fill="black"/>
</svg>
