<svg width="24" height="24" viewBox="0 0 24 24" fill="none" xmlns="http://www.w3.org/2000/svg">
<path fill-rule="evenodd" clip-rule="evenodd" d="M4 5.84618C4 4.44963 5.5858 3.53473 6.8895 4.24813L18.03 10.3444C19.3174 11.0489 19.3246 12.8188 18.0436 13.533L6.90303 19.7443C5.5993 20.4712 4 19.5568 4 18.1537V5.84618ZM5.62406 5.28026C5.5032 5.34148 5.5103 5.50133 5.60887 5.59429L10.9534 10.6346C11.0533 10.7288 11.2104 10.7248 11.3054 10.6258L12.6971 9.17513C12.8111 9.05635 12.7811 8.86176 12.6367 8.78274L6.24985 5.28775C6.04703 5.17677 5.81238 5.18488 5.62406 5.28026ZM10.1031 11.879C10.1992 11.7788 10.1952 11.6194 10.0942 11.5241L5.69603 7.37631C5.53655 7.22591 5.27451 7.33898 5.27451 7.55819V16.2904C5.27451 16.5156 5.54898 16.626 5.70491 16.4634L10.1031 11.879ZM11.0084 12.7269C11.1034 12.6279 11.2604 12.624 11.3603 12.7181L13.2077 14.4604C13.3307 14.5764 13.3056 14.7784 13.158 14.8606L6.25442 18.7096C6.03694 18.8309 5.78164 18.8142 5.58615 18.6989C5.47664 18.6344 5.48324 18.486 5.57126 18.3943L11.0084 12.7269ZM14.7487 13.9737C14.6535 14.0268 14.5348 14.0121 14.4554 13.9373L12.2196 11.8287C12.1185 11.7333 12.1145 11.5739 12.2107 11.4737L13.9177 9.69436C13.9959 9.61285 14.1191 9.5939 14.2181 9.64812L17.3904 11.384C17.835 11.6273 17.8379 12.2514 17.395 12.4984L14.7487 13.9737Z" fill="black"/>
</svg>
