<svg width="24" height="24" viewBox="0 0 24 24" fill="none" xmlns="http://www.w3.org/2000/svg">
<path fill-rule="evenodd" clip-rule="evenodd" d="M10.3688 7.48336C10.3688 6.65731 11.2047 6.14103 11.8735 6.55406L19.8484 11.4794C20.5172 11.8924 20.5172 12.925 19.8484 13.338L11.8735 18.2633C11.2047 18.6764 10.3688 18.1601 10.3688 17.334V15.6613C10.3688 15.5787 10.2852 15.527 10.2183 15.5683L5.85468 18.2633C5.18592 18.6764 4.34998 18.1601 4.34998 17.334V7.48336C4.34998 6.65731 5.18592 6.14103 5.85468 6.55406L10.2183 9.24905C10.2852 9.29035 10.3688 9.23872 10.3688 9.15612V7.48336ZM10.3688 11.2625C10.3688 11.0709 10.2732 10.8937 10.118 10.7979L6.4064 8.5056C6.07202 8.29909 5.65405 8.55723 5.65405 8.97026V15.8471C5.65405 16.2602 6.07202 16.5183 6.4064 16.3118L10.118 14.0195C10.2732 13.9236 10.3688 13.7465 10.3688 13.5548L10.3688 11.2625ZM12.4252 8.5056C12.0908 8.29909 11.6729 8.55723 11.6729 8.97026L11.6729 15.8471C11.6729 16.2602 12.0908 16.5183 12.4252 16.3118L17.9926 12.8733C18.327 12.6668 18.327 12.1506 17.9926 11.944L12.4252 8.5056Z" fill="black"/>
</svg>
